<svg width="21" height="16" viewBox="0 0 21 16" fill="none" xmlns="http://www.w3.org/2000/svg">
<path d="M17.756 10.253C17.66 9.586 17.145 9.066 16.482 8.911C13.905 8.307 13.259 6.823 13.15 5.177C12.693 5.092 11.88 5 10.5 5C9.12 5 8.307 5.092 7.85 5.177C7.741 6.823 7.095 8.307 4.518 8.911C3.855 9.067 3.34 9.586 3.244 10.253L2.747 13.695C2.572 14.907 3.462 16 4.7 16H16.3C17.537 16 18.428 14.907 18.253 13.695L17.756 10.253ZM10.5 13.492C9.105 13.492 7.974 12.372 7.974 10.992C7.974 9.612 9.105 8.492 10.5 8.492C11.895 8.492 13.026 9.612 13.026 10.992C13.026 12.372 11.894 13.492 10.5 13.492ZM20.45 4C20.426 2.5 16.608 0.001 10.5 0C4.391 0.001 0.572998 2.5 0.549998 4C0.526998 5.5 0.570998 7.452 3.085 7.127C6.026 6.746 5.845 5.719 5.845 4.251C5.845 3.227 8.237 2.98 10.5 2.98C12.763 2.98 15.154 3.227 15.155 4.251C15.155 5.719 14.974 6.746 17.915 7.127C20.428 7.452 20.473 5.5 20.45 4Z" fill="white" fill-opacity="0.7"/>
</svg>
