<?xml version="1.0" encoding="utf-8"?>
<!-- Generator: Adobe Illustrator 24.0.0, SVG Export Plug-In . SVG Version: 6.00 Build 0)  -->
<svg version="1.1" id="Layer_1" xmlns="http://www.w3.org/2000/svg" xmlns:xlink="http://www.w3.org/1999/xlink" x="0px" y="0px"
	 viewBox="0 0 23 23.8" style="enable-background:new 0 0 23 23.8;" xml:space="preserve">
<style type="text/css">
	.st0{fill:#172335;}
	.st1{fill:#EA2127;}
</style>
<title>icon-deposit</title>
<g>
	<path class="st0" d="M22.9,15.8c-0.2-0.6-0.8-0.9-1.4-0.7c0,0,0,0,0,0s0,0,0,0c0,0,0,0,0,0c0,0,0,0,0,0c0,0,0,0,0,0c0,0,0,0,0,0
		c0,0,0,0,0,0c0,0,0,0,0,0c0,0,0,0,0,0c0,0,0,0,0,0l0,0c-0.4,0.1-2,0.6-7,2.1l0,0c0.5,0.6,0.5,1.5-0.1,2c-0.3,0.3-0.6,0.4-1,0.4
		c0,0,0,0,0,0c-0.4,0-0.8-0.2-1-0.5l-2-2.1l0.4-0.3l2,2.1c0.4,0.4,1,0.4,1.4,0c0.4-0.4,0.4-0.9,0.1-1.3c-2.1-2.5-2.6-3.1-2.7-3.2
		c0,0,0,0,0,0l0,0c0,0,0,0,0,0c0,0,0,0,0,0H6.3V20h1.8l4.8,2.7l9.5-5.4C22.9,17,23.1,16.4,22.9,15.8z"/>
	<rect x="3.6" y="13.3" class="st0" width="2.2" height="7.4"/>
	<path class="st0" d="M0,21.7h3.4v-9.6H0V21.7z M1.7,18.5c0.4,0,0.7,0.3,0.7,0.7c0,0.4-0.3,0.7-0.7,0.7C1.3,20,1,19.7,1,19.3
		C1,18.9,1.3,18.5,1.7,18.5z"/>
	<path class="st1" d="M16.6,9.6c0.3,0,0.5-0.2,0.5-0.5c0-0.3-0.2-0.5-0.5-0.5c-0.3,0-0.5,0.2-0.5,0.5C16.1,9.3,16.3,9.6,16.6,9.6z"
		/>
	<path class="st1" d="M17.9,14.8c2.4,0,4.3-1.9,4.3-4.3s-1.9-4.3-4.3-4.3c-2.4,0-4.3,1.9-4.3,4.3S15.5,14.8,17.9,14.8z M20.2,12.1
		c0,0.6-0.4,1-1,1s-1-0.4-1-1s0.4-1,1-1C19.8,11.1,20.2,11.5,20.2,12.1z M19.1,8l0.4,0.2l-2.7,4.7l-0.4-0.2L19.1,8z M16.6,8.1
		c0.6,0,1,0.4,1,1c0,0.6-0.4,1-1,1c-0.5,0-1-0.4-1-1C15.6,8.5,16,8.1,16.6,8.1z"/>
	<path class="st1" d="M18.7,12.1c0,0.3,0.2,0.5,0.5,0.5c0.3,0,0.5-0.2,0.5-0.5c0-0.3-0.2-0.5-0.5-0.5C18.9,11.5,18.7,11.8,18.7,12.1
		z"/>
	<path class="st1" d="M9.5,9.8c2.4,0,4.3-1.9,4.3-4.3s-1.9-4.3-4.3-4.3C7.1,1.1,5.2,3,5.2,5.4S7.1,9.8,9.5,9.8z M9.5,5.7
		c-0.7,0-1.2-0.5-1.2-1.2c0-0.6,0.4-1.1,1-1.2V2.4h0.5v0.8c0.6,0.1,1,0.6,1,1.2h-0.5c0-0.4-0.3-0.7-0.7-0.7C9.1,3.7,8.8,4,8.8,4.4
		c0,0.4,0.3,0.7,0.7,0.7c0.7,0,1.2,0.5,1.2,1.2c0,0.6-0.4,1.1-1,1.2v0.8H9.3V7.6c-0.6-0.1-1-0.6-1-1.2h0.5c0,0.4,0.3,0.7,0.7,0.7
		c0.4,0,0.7-0.3,0.7-0.7C10.2,6,9.9,5.7,9.5,5.7z"/>
</g>
</svg>
