<svg width="32" height="32" viewBox="0 0 49 49" fill="none" xmlns="http://www.w3.org/2000/svg">
<path d="M11.2207 10.4785L30.356 5.25535L29.3427 3.20706C28.6797 1.87567 27.0626 1.32587 25.7312 1.98887L8.60107 10.4785H11.2207Z" fill="#314060"/>
<path d="M36.2948 5.40625C36.0577 5.40625 35.8204 5.43859 35.5833 5.50327L31.0879 6.73225L17.3589 10.4785H32.942H39.7337L38.8929 7.39525C38.5694 6.19322 37.4806 5.40625 36.2948 5.40625Z" fill="#314060"/>
<path d="M42.5426 12.3657H41.9281H41.0927H40.2572H33.8805H10.4492H7.37677H4.78945H4.30972H2.70344C1.85178 12.3657 1.09176 12.7592 0.595855 13.3791C0.369465 13.6648 0.196978 13.9936 0.0999538 14.3547C0.0406613 14.5811 0.00292969 14.8183 0.00292969 15.0608V15.3843V18.4567V45.0898C0.00292969 46.5776 1.21034 47.7849 2.69805 47.7849H42.5372C44.025 47.7849 45.2324 46.5776 45.2324 45.0898V37.5704H29.2395C26.7115 37.5704 24.6578 35.5168 24.6578 32.9887V30.52V29.6845V28.849V26.9948C24.6578 25.7551 25.1537 24.6286 25.9569 23.8038C26.6684 23.0707 27.6225 22.5748 28.6897 22.4508C28.8676 22.4293 29.0509 22.4185 29.2341 22.4185H42.99H43.8255H44.661H45.2324V15.0608C45.2377 13.5731 44.0303 12.3657 42.5426 12.3657Z" fill="#314060"/>
<path d="M47.1234 24.9942C46.8538 24.7462 46.5358 24.5575 46.1801 24.4336C45.9051 24.342 45.6141 24.2881 45.3069 24.2881H45.2368H45.1829H44.3474H41.3342H29.2386C27.7508 24.2881 26.5435 25.4954 26.5435 26.9832V28.3253V29.1608V29.9963V32.9825C26.5435 34.4702 27.7508 35.6776 29.2386 35.6776H45.2368H45.3069C45.6141 35.6776 45.9052 35.6237 46.1801 35.5321C46.5358 35.4135 46.8538 35.2194 47.1234 34.9715C47.6624 34.481 48.002 33.7694 48.002 32.9825V26.9832C48.002 26.1962 47.6624 25.4846 47.1234 24.9942ZM34.866 30.5191C34.866 31.263 34.2623 31.8667 33.5184 31.8667H32.6236C31.8798 31.8667 31.2761 31.263 31.2761 30.5191V29.6244C31.2761 29.1931 31.4755 28.8104 31.7935 28.5678C32.0253 28.3899 32.3111 28.2768 32.6236 28.2768H32.85H33.5184C34.2623 28.2768 34.866 28.8805 34.866 29.6244V30.5191Z" fill="#314060"/>
</svg>
