<?xml version="1.0" encoding="utf-8"?>
<!-- Generator: Adobe Illustrator 19.2.1, SVG Export Plug-In . SVG Version: 6.00 Build 0)  -->
<svg version="1.1" id="Layer_1" xmlns="http://www.w3.org/2000/svg" xmlns:xlink="http://www.w3.org/1999/xlink" x="0px" y="0px"
	 viewBox="0 0 150 150" style="enable-background:new 0 0 150 150;" xml:space="preserve">
<style type="text/css">
	.st0{fill:#FFFFFF;}
</style>
<path class="st0" d="M75,0C43.4,0,17.6,25.7,17.6,57.4v52.9c0,7.3,5.9,13.2,13.2,13.2c7.3,0,13.2-5.9,13.2-13.2V66.2
	c0-7.3-5.9-13.2-13.2-13.2c-1.5,0-2.9,0.3-4.2,0.8C28.5,28.6,49.5,8.8,75,8.8c25.5,0,46.4,19.8,48.3,44.8c-1.3-0.5-2.7-0.7-4.2-0.7
	c-7.3,0-13.2,5.9-13.2,13.2v44.1c0,7.3,5.9,13.2,13.2,13.2c1.6,0,3-0.3,4.4-0.8v5.2c0,2.4-2,4.4-4.4,4.4H87.4
	c-1.8-5.1-6.7-8.8-12.4-8.8c-7.3,0-13.2,5.9-13.2,13.2S67.7,150,75,150c5.7,0,10.6-3.7,12.4-8.8h31.7c7.3,0,13.2-5.9,13.2-13.2
	c0-26.5,0-44,0-70.6C132.4,25.7,106.6,0,75,0z"/>
<path class="st0" d="M141.2,62.6v51.3c5.1-1.8,8.8-6.7,8.8-12.4V75C150,69.3,146.3,64.4,141.2,62.6z"/>
<path class="st0" d="M0,75v26.5c0,5.7,3.7,10.6,8.8,12.4V62.6C3.7,64.4,0,69.3,0,75z"/>
</svg>
