<?xml version="1.0" encoding="utf-8"?>
<!-- Generator: Adobe Illustrator 19.2.1, SVG Export Plug-In . SVG Version: 6.00 Build 0)  -->
<svg version="1.1" id="Layer_1" xmlns="http://www.w3.org/2000/svg" xmlns:xlink="http://www.w3.org/1999/xlink" x="0px" y="0px"
	 viewBox="0 0 150 150" style="enable-background:new 0 0 150 150;" xml:space="preserve">
<style type="text/css">
	.st0{fill:#FFFFFF;}
</style>
<g>
	<path class="st0" d="M75,6.5c37.8,0,68.5,30.7,68.5,68.5c0,37.8-30.7,68.5-68.5,68.5S6.5,112.8,6.5,75S37.2,6.5,75,6.5 M75,0.5
		L75,0.5L75,0.5C33.9,0.5,0.5,33.9,0.5,75s33.4,74.5,74.5,74.5s74.5-33.4,74.5-74.5C149.5,34,116,0.5,75,0.5L75,0.5z"/>
</g>
<path class="st0" d="M77.5,25.9l24-9.6c2.7,1.2,5.4,2.7,7.9,4.2l0.1,0c2.5,1.6,4.9,3.3,7.1,5.2l0.2,0.2c1,0.9,2,1.7,2.9,2.7
	c0.1,0.1,0.2,0.2,0.4,0.4c1,1,2,2,2.9,3c0.1,0.1,0.2,0.2,0.2,0.3c0.8,0.9,1.6,1.9,2.4,2.8c0.2,0.2,0.4,0.5,0.5,0.7
	c0.8,1.1,1.6,2.2,2.4,3.3l-4.8,20.3l-23.5,7.8L77.5,49.1L77.5,25.9z"/>
<path class="st0" d="M23.9,35.8c0.2-0.2,0.4-0.5,0.5-0.7c0.8-1,1.5-1.9,2.3-2.8c0.1-0.1,0.2-0.2,0.3-0.3c0.9-1,1.9-2,2.9-3
	c0.1-0.1,0.2-0.2,0.3-0.3c0.9-0.9,1.9-1.8,2.9-2.6l0.2-0.2c2.2-1.9,4.6-3.6,7-5.2l0.1-0.1c2.5-1.6,5.1-3,7.8-4.2l24.1,9.5v23.2
	L49.9,67.3l-23.5-7.8l-4.8-20.3C22.3,38,23.1,36.9,23.9,35.8z"/>
<path class="st0" d="M21.2,110.3c-0.7-1-1.3-2.1-1.9-3.2l-0.1-0.3c-0.6-1.1-1.2-2.1-1.7-3.2l0,0c-1.2-2.3-2.2-4.7-3-7.1v0
	c-0.4-1.2-0.8-2.3-1.1-3.5L13,92.5c-0.3-1.1-0.6-2.2-0.9-3.4c0-0.1-0.1-0.2-0.1-0.3c-0.6-2.6-1-5.2-1.2-7.8l14-16.8l23.4,7.8
	l6.8,27.1l-11.1,14.8L21.2,110.3z"/>
<path class="st0" d="M90.3,137.5c-1.2,0.3-2.3,0.5-3.5,0.8c-0.2,0-0.3,0.1-0.5,0.1c-1,0.2-2,0.3-3,0.5c-0.3,0-0.5,0.1-0.8,0.1
	c-0.9,0.1-1.9,0.2-2.9,0.3c-0.3,0-0.6,0.1-0.9,0.1c-1.2,0.1-2.5,0.1-3.7,0.1c-1.1,0-2.3,0-3.4-0.1c-0.1,0-0.3,0-0.4,0
	c-1-0.1-2-0.1-3-0.2l-0.1,0c-2.2-0.2-4.3-0.6-6.5-1L48,116.7l11-14.6h32l11.1,14.7L90.3,137.5z"/>
<path class="st0" d="M137.9,88.8c0,0.1-0.1,0.2-0.1,0.3c-0.3,1.1-0.5,2.3-0.9,3.4l-0.1,0.4c-0.3,1.2-0.7,2.4-1.1,3.5v0
	c-0.9,2.4-1.9,4.8-3,7.1l0,0c-0.6,1.1-1.1,2.2-1.7,3.2l-0.1,0.3c-0.6,1.1-1.3,2.1-1.9,3.1l-22.7,3.6L94.9,99.1l6.8-27.1l23.4-7.8
	l14,16.8C138.9,83.6,138.5,86.2,137.9,88.8z"/>
</svg>
