<svg width="24" height="24" viewBox="0 0 24 24" fill="none" xmlns="http://www.w3.org/2000/svg">
<path d="M22.6451 11.5023C21.6509 7.0074 20.1546 4.60833 17.9351 3.95302C17.4686 3.81617 16.9846 3.7478 16.4984 3.75005C15.8557 3.75005 15.296 3.90662 14.704 4.07255C13.9906 4.27271 13.1801 4.50005 11.9984 4.50005C10.8167 4.50005 10.0057 4.27318 9.29089 4.07302C8.69839 3.90662 8.13917 3.75005 7.49839 3.75005C6.99562 3.74831 6.49505 3.81646 6.01104 3.95255C3.80323 4.60505 2.30792 7.00318 1.29917 11.4995C0.21448 16.3379 0.748387 19.3927 2.79636 20.1015C3.07708 20.2005 3.37245 20.2515 3.67011 20.2524C5.07307 20.2524 6.19807 19.0838 6.96682 18.1271C7.83542 17.0443 8.85214 16.4949 11.9984 16.4949C14.8085 16.4949 15.9715 16.876 16.976 18.1271C17.6075 18.9137 18.2042 19.464 18.7995 19.8104C19.5912 20.2707 20.3825 20.3729 21.1507 20.109C22.361 19.696 23.0548 18.6043 23.2132 16.8634C23.3337 15.5284 23.1481 13.7748 22.6451 11.5023ZM9.74839 11.2501H8.24839V12.7501C8.24839 12.949 8.16937 13.1398 8.02872 13.2804C7.88806 13.4211 7.6973 13.5001 7.49839 13.5001C7.29947 13.5001 7.10871 13.4211 6.96806 13.2804C6.8274 13.1398 6.74839 12.949 6.74839 12.7501V11.2501H5.24839C5.04948 11.2501 4.85871 11.1711 4.71806 11.0304C4.57741 10.8898 4.49839 10.699 4.49839 10.5001C4.49839 10.3012 4.57741 10.1104 4.71806 9.96972C4.85871 9.82907 5.04948 9.75005 5.24839 9.75005H6.74839V8.25005C6.74839 8.05114 6.8274 7.86038 6.96806 7.71972C7.10871 7.57907 7.29947 7.50005 7.49839 7.50005C7.6973 7.50005 7.88806 7.57907 8.02872 7.71972C8.16937 7.86038 8.24839 8.05114 8.24839 8.25005V9.75005H9.74839C9.9473 9.75005 10.1381 9.82907 10.2787 9.96972C10.4194 10.1104 10.4984 10.3012 10.4984 10.5001C10.4984 10.699 10.4194 10.8898 10.2787 11.0304C10.1381 11.1711 9.9473 11.2501 9.74839 11.2501ZM13.6859 11.4376C13.5005 11.4376 13.3192 11.3826 13.165 11.2796C13.0109 11.1766 12.8907 11.0302 12.8197 10.8589C12.7488 10.6876 12.7302 10.4991 12.7664 10.3172C12.8026 10.1353 12.8919 9.96825 13.023 9.83714C13.1541 9.70603 13.3211 9.61674 13.503 9.58057C13.6848 9.54439 13.8733 9.56296 14.0447 9.63392C14.216 9.70487 14.3624 9.82503 14.4654 9.97921C14.5684 10.1334 14.6234 10.3147 14.6234 10.5001C14.6234 10.7487 14.5246 10.9872 14.3488 11.163C14.173 11.3388 13.9345 11.4376 13.6859 11.4376ZM15.7484 13.5001C15.5629 13.5001 15.3815 13.445 15.2273 13.3419C15.0731 13.2388 14.9529 13.0923 14.882 12.9208C14.8111 12.7494 14.7927 12.5608 14.8291 12.3788C14.8654 12.1969 14.955 12.0299 15.0863 11.8989C15.2177 11.7678 15.3849 11.6787 15.5669 11.6428C15.7489 11.6069 15.9375 11.6258 16.1088 11.6971C16.28 11.7684 16.4263 11.889 16.529 12.0435C16.6318 12.1979 16.6864 12.3794 16.6859 12.5649C16.6853 12.8132 16.5862 13.051 16.4105 13.2263C16.2347 13.4016 15.9966 13.5001 15.7484 13.5001ZM15.7484 9.37505C15.563 9.37505 15.3817 9.32007 15.2275 9.21706C15.0734 9.11404 14.9532 8.96762 14.8822 8.79632C14.8113 8.62501 14.7927 8.43651 14.8289 8.25466C14.8651 8.0728 14.9544 7.90575 15.0855 7.77464C15.2166 7.64353 15.3836 7.55424 15.5655 7.51807C15.7473 7.48189 15.9358 7.50046 16.1072 7.57142C16.2785 7.64237 16.4249 7.76254 16.5279 7.91671C16.6309 8.07088 16.6859 8.25213 16.6859 8.43755C16.6859 8.68619 16.5871 8.92465 16.4113 9.10047C16.2355 9.27628 15.997 9.37505 15.7484 9.37505ZM17.8109 11.4376C17.6255 11.4376 17.4442 11.3826 17.29 11.2796C17.1359 11.1766 17.0157 11.0302 16.9447 10.8589C16.8738 10.6876 16.8552 10.4991 16.8914 10.3172C16.9276 10.1353 17.0169 9.96825 17.148 9.83714C17.2791 9.70603 17.4461 9.61674 17.628 9.58057C17.8098 9.54439 17.9983 9.56296 18.1697 9.63392C18.341 9.70487 18.4874 9.82503 18.5904 9.97921C18.6934 10.1334 18.7484 10.3147 18.7484 10.5001C18.7484 10.7487 18.6496 10.9872 18.4738 11.163C18.298 11.3388 18.0595 11.4376 17.8109 11.4376Z" fill="#025BE8"/>
</svg>
