<svg width="20" height="20" viewBox="0 0 20 20" fill="none" xmlns="http://www.w3.org/2000/svg">
<path fill-rule="evenodd" clip-rule="evenodd" d="M17.3255 3.22982C17.68 3.22982 17.9163 3.57628 17.9163 3.92273V11.0828C17.9163 12.9306 16.9711 14.8938 15.0805 16.6261C13.4263 18.2429 11.4176 19.1668 9.99967 19.1668C8.58176 19.1668 6.57306 18.2429 4.91883 16.6261C3.14644 14.8938 2.08301 12.9306 2.08301 11.0828V4.03822C2.08301 3.69176 2.31933 3.3453 2.6738 3.3453H3.38276C3.50092 3.3453 4.91883 3.22982 6.4549 2.65239C8.10913 1.95948 9.17256 1.26656 9.17256 1.26656L9.52704 0.92011C9.76336 0.804625 10.1178 0.804625 10.3542 0.92011L10.8268 1.26656C10.8268 1.26656 11.8902 2.07496 13.5445 2.53691C15.0805 3.22982 16.6166 3.22982 16.6166 3.22982H17.3255ZM7.10838 9.55824C6.8643 9.31417 6.46857 9.31417 6.22449 9.55824C5.98042 9.80232 5.98042 10.198 6.22449 10.4421L8.72449 12.9421C8.96857 13.1862 9.3643 13.1862 9.60838 12.9421L14.6084 7.94213C14.8525 7.69805 14.8525 7.30232 14.6084 7.05825C14.3643 6.81417 13.9686 6.81417 13.7245 7.05825L9.16644 11.6163L7.10838 9.55824Z" fill="#025BE8"/>
</svg>
