<svg fill="none" height="24" viewBox="0 0 24 24" width="24" xmlns="http://www.w3.org/2000/svg" xmlns:xlink="http://www.w3.org/1999/xlink"><clipPath id="a"><path d="m0 0h24v24h-24z"/></clipPath><mask id="b" height="24" maskUnits="userSpaceOnUse" width="24" x="0" y="0"><path d="m24 0h-24v24h24z" fill="#fff"/></mask><g clip-path="url(#a)"><g fill="#025be8" mask="url(#b)"><path d="m12 1.872c2.7855 0 5.289.9615 6.975 2.691 1.3868.18213 2.6951.74846 3.777 1.635-1.8915-3.975-5.8095-6.198-10.752-6.198-4.87501 0-8.82001 2.22-10.73401 6.183.99185-.80773 2.1738-1.34836 3.4335-1.5705 1.6545-1.8045 4.2615-2.7405 7.30051-2.7405z"/><path d="m18 18c-1.5604-.0001-3.0594-.6081-4.179-1.695l-.003-.003c-.1292-.0972-.2679-.1812-.414-.2505-.4402-.2023-.9196-.3053-1.404-.3015-.621 0-1.0935.1545-1.4025.3015-.1466.0693-.2858.1532-.4155.2505l-.003.003c-.70529.6847-1.56798 1.1856-2.51224 1.4587-.94426.2732-1.94115.3101-2.90304.1076-.96188-.2024-1.85929-.6381-2.61331-1.2687-.75402-.6307-1.341564-1.4369-1.710967-2.3478-.3694021-.9109-.5093492-1.8986-.4075355-2.8763.1018135-.9776.4422695-1.91533.9914325-2.73059.54916-.81525 1.29021-1.48309 2.15799-1.94481.86777-.46171 1.83569-.70316 2.81866-.7031h12.00001c1.5913 0 3.1174.63214 4.2426 1.75736s1.7574 2.65134 1.7574 4.24264-.6322 3.1174-1.7574 4.2426c-1.1252 1.1253-2.6513 1.7574-4.2426 1.7574z"/></g></g></svg>