<svg width="448" height="27" viewBox="0 0 448 27" fill="none" xmlns="http://www.w3.org/2000/svg">
<g filter="url(#filter0_d_2_11897)">
<path d="M9.5 6.25C8.475 6.25 7.625 5.4 7.625 4.375C7.625 3.35 8.475 2.5 9.5 2.5C10.525 2.5 11.375 3.35 11.375 4.375C11.375 5.4 10.525 6.25 9.5 6.25ZM1.25 2.525L9.5 10.775L17.75 2.525L18.475 3.25L10.225 11.5L18.475 19.75L17.75 20.475L9.5 12.225L1.225 20.5L0.5 19.775L8.775 11.5L0.525 3.25L1.25 2.525ZM4.25 11.5C4.25 12.525 3.4 13.375 2.375 13.375C1.35 13.375 0.5 12.525 0.5 11.5C0.5 10.475 1.35 9.625 2.375 9.625C3.4 9.625 4.25 10.475 4.25 11.5ZM14.75 11.5C14.75 10.475 15.6 9.625 16.625 9.625C17.65 9.625 18.5 10.475 18.5 11.5C18.5 12.525 17.65 13.375 16.625 13.375C15.6 13.375 14.75 12.525 14.75 11.5ZM9.5 16.75C10.525 16.75 11.375 17.6 11.375 18.625C11.375 19.65 10.525 20.5 9.5 20.5C8.475 20.5 7.625 19.65 7.625 18.625C7.625 17.6 8.475 16.75 9.5 16.75ZM26.35 9.3C26.175 8.725 26.125 8.275 26.15 7.675L26.525 7.5C27.25 8.25 27.725 8.725 28.675 8.725C30.2 8.725 36.525 7.925 38.425 7.575C39.35 7.425 39.7 6.9 40.25 6.9C41.275 6.9 43.425 8.625 43.425 9.6C43.425 10.275 42.275 10.65 41.725 11.675C39.4 16.05 35.25 20.3 27.85 22.475L27.575 21.975C33.725 18.75 37.55 13.875 38.975 9.825C39.075 9.5 38.975 9.375 38.675 9.4C37.325 9.45 32.25 10.45 30.675 10.925C29.925 11.125 29.45 11.6 28.9 11.6C27.85 11.6 26.6 10.075 26.35 9.3ZM40.475 3.1C40.475 3.6 40.2 3.95 39.4 4.125C37.4 4.6 33.775 5.225 31.625 5.225C30.05 5.225 29.225 4.3 28.325 2.475L28.6 2.25C29.625 2.9 30.5 3 31.35 3C33.2 3 34.675 2.575 35.725 2.275C36.975 1.925 37.35 1.6 37.7 1.6C39.375 1.6 40.475 2.1 40.475 3.1ZM51.325 3.8L51.55 3.4C55 3.8 59.1 5.275 59.1 7.85C59.1 8.75 58.45 9.525 57.475 9.525C56.675 9.525 56.15 9.075 55.525 8.2C54.35 6.55 53.725 5.625 51.325 3.8ZM54.05 17.5C56.75 17.5 66.525 10.7 70.125 5.875L70.575 6.175C67.75 11.65 63.2 16.05 57.4 19.6C56.6 20.1 56.275 20.925 55.55 20.925C54.125 20.925 52.375 19.45 51.875 18.45C51.575 17.875 51.325 16.9 51.325 16.175L51.675 15.95C52.275 16.55 53.15 17.5 54.05 17.5ZM83.9117 5.625C84.7867 5.625 87.6617 5.225 88.3617 4.975C88.9867 4.775 89.4117 4.175 89.9617 4.175C90.7117 4.175 93.2617 5.5 93.2617 6.525C93.2617 7.225 92.2867 7.475 91.8367 8.225C88.1617 14.6 83.0117 19.675 74.8367 22.525L74.5367 22.05C80.8867 18.65 86.6867 12.325 88.7867 7.1C88.9117 6.75 88.7867 6.625 88.4867 6.625C87.9617 6.625 86.1617 7.025 85.4367 7.25C84.9117 7.425 84.5117 7.575 84.0367 7.575C83.7367 7.575 83.3367 7.325 82.8867 6.975C80.7117 9.625 77.8117 12.1 74.5867 13.5L74.2617 13.05C78.3117 9.725 81.5867 4.775 81.5867 3.175C81.5867 2.7 80.9867 2.1 80.1867 1.675L80.2617 1.325C80.7367 1.225 81.1867 1.125 82.0117 1.175C83.6617 1.25 85.5867 2.3 85.5867 2.925C85.5867 3.475 85.2617 3.575 84.8367 4.225C84.5617 4.7 84.2367 5.15 83.9117 5.625ZM104.637 11.55L105.187 11.8C104.687 13.15 103.812 15.325 103.587 16.25C103.387 17.25 103.262 17.775 103.262 18.175C103.262 19.075 103.812 19.925 103.812 20.675C103.812 21.575 103.362 22.1 102.537 22.1C101.937 22.1 101.337 21.65 100.837 20.975C99.9117 19.725 99.3117 17.775 99.3117 14.975C99.3117 12.675 100.012 10.05 100.412 8.55C100.712 7.35 100.962 6.325 100.987 5.225C100.987 4.075 100.337 3 99.6867 2.275L99.9367 2C100.762 2.2 101.312 2.425 101.912 2.825C102.687 3.325 104.037 4.7 104.037 6.075C104.037 6.775 103.687 7.275 103.087 8.425C102.137 10.075 101.187 12.375 101.187 14.5C101.187 15.275 101.312 15.775 101.462 16.075C101.612 16.45 101.837 16.475 102.087 16.1C102.712 15.2 103.987 12.8 104.637 11.55ZM107.087 13.75L107.512 13.7C107.662 14.3 107.862 15.05 108.162 15.575C109.137 17.3 110.312 17.95 113.437 17.95C115.962 17.95 116.987 17.475 117.512 17.475C118.587 17.475 119.712 17.95 119.712 18.9C119.712 20.45 117.187 20.775 114.162 20.775C109.437 20.775 107.487 18.75 107.112 15.85C107.012 15.1 107.037 14.35 107.087 13.75ZM107.887 7.05L107.712 6.625C109.612 4.9 112.287 4.275 114.162 4.275C115.837 4.275 116.862 4.475 117.712 4.925C118.487 5.35 118.687 5.85 118.687 6.3C118.687 6.925 118.362 7.225 117.737 7.35C116.987 7.475 116.087 7.5 115.062 7.8C113.937 8.175 112.287 8.95 110.937 9.775L110.612 9.4C111.712 8.475 112.962 7.425 113.387 6.95C113.637 6.65 113.762 6.4 111.937 6.4C111.187 6.4 109.987 6.475 107.887 7.05ZM129.487 20.025C132.062 20.025 133.212 19.125 133.287 16.95C132.537 16.8 131.687 16.7 130.787 16.7C128.412 16.7 127.037 17.625 127.037 18.575C127.037 19.475 128.037 20.025 129.487 20.025ZM135.262 7.2H135.412C136.112 7.2 137.537 6.925 138.512 6.55C139.387 6.25 139.862 5.9 140.062 5.9C141.012 5.9 142.337 6.2 142.337 7.3C142.337 7.8 142.087 8.175 141.362 8.475C140.762 8.7 138.937 9.2 137.312 9.2C136.637 9.2 135.812 8.8 135.137 8.425C135.087 9.175 135.062 9.875 135.062 10.35C135.062 11.5 135.137 13.475 135.337 15.225C136.787 15.525 138.037 16 138.962 16.425C140.837 17.3 142.737 18.675 142.737 20.3C142.737 21.125 142.287 21.5 141.587 21.5C140.362 21.5 139.437 19.8 137.012 18.4C136.587 18.15 136.137 17.925 135.662 17.725C135.687 17.95 135.712 18.2 135.712 18.45C135.712 20.45 134.612 22.275 130.662 22.275C127.862 22.275 125.787 21.075 125.787 18.9C125.787 16.175 128.812 14.95 132.387 14.95C132.687 14.95 132.987 14.95 133.262 14.975C133.212 13 133.087 11.15 133.037 9.725C132.987 8.35 132.862 4.575 132.812 3.9C132.762 3.4 132.587 3.2 132.162 3C131.587 2.7 130.762 2.55 130.287 2.475L130.237 2.15C130.912 1.75 131.787 1.3 132.687 1.3C134.387 1.3 136.287 2.525 136.287 3.425C136.287 4.05 135.837 4.3 135.612 4.975C135.487 5.4 135.362 6.275 135.262 7.2ZM150.587 11.925L150.837 11.825C151.062 12.1 151.562 12.525 152.087 12.525C152.337 12.525 152.612 12.45 153.087 12.25C155.512 11.275 158.362 9.35 161.562 9.35C165.037 9.35 167.337 11.775 167.337 14.35C167.337 16.95 165.812 18.45 163.912 19.475C161.762 20.675 158.187 20.875 155.437 20.625L155.387 20.2C160.312 19.65 164.662 17.675 164.662 13.975C164.662 12.2 163.537 10.575 161.487 10.575C158.912 10.575 156.362 13.25 155.337 14.025C154.262 14.9 153.812 15.35 153.162 15.35C152.262 15.35 150.987 14.375 150.662 13.475C150.487 12.95 150.562 12.375 150.587 11.925ZM173.262 4.75L173.562 4.65C174.012 5.275 174.562 5.9 175.212 5.9C176.712 5.9 180.362 4.95 184.762 3.9C187.412 3.25 190.037 2.625 190.812 2.625C191.562 2.625 192.287 2.725 192.937 3.025C193.612 3.325 194.112 3.775 194.112 4.45C194.112 5.075 193.587 5.575 192.787 5.575C192.112 5.575 191.287 5.475 190.587 5.475C189.437 5.475 187.912 5.575 186.587 6.525C185.687 7.15 183.587 9.2 183.587 13.45C183.587 16.35 184.862 17.3 185.737 17.775C187.162 18.525 189.187 18.4 189.912 18.4C190.762 18.4 191.837 19.2 191.837 20.15C191.837 21.3 190.587 21.575 189.437 21.575C187.512 21.575 185.687 21.35 184.112 20.325C182.387 19.25 181.262 17.525 181.262 14.35C181.262 10.775 182.912 7.65 185.762 5.725C185.962 5.575 185.937 5.425 185.687 5.5C182.737 6.175 179.287 7.4 177.787 8.3C177.262 8.6 176.737 9.15 176.037 9.15C174.862 9.15 173.137 7.525 173.062 6.3C173.037 5.7 173.162 5.125 173.262 4.75ZM209.437 2.275L209.412 1.9C210.162 1.5 210.887 1.175 211.512 1.175C212.837 1.175 214.737 2.325 214.737 3.175C214.737 3.8 214.162 3.675 214.087 5.1C214.062 5.925 214.037 6.725 214.037 7.45C216.162 7.225 216.462 6.95 216.962 6.95C218.437 6.95 220.112 7.625 220.112 8.825C220.112 9.65 219.687 9.8 218.987 9.8C218.087 9.8 216.762 9.375 214.262 9.375H214.037C213.912 12.85 213.687 15.7 212.312 17.625C210.662 20.025 207.962 21.575 204.587 22.475L204.362 22.05C206.437 20.975 208.637 19.475 210.037 17.075C211.037 15.4 211.387 12.425 211.437 9.5C209.862 9.625 208.162 9.8 206.862 9.95C206.862 12 206.887 13.825 206.887 14.975C206.887 15.975 206.512 16.45 205.687 16.45C204.762 16.45 204.062 14.975 204.062 13.95C204.062 13.325 204.462 12.55 204.512 10.3C203.487 10.475 202.637 10.675 202.037 10.875C201.387 11.1 200.812 11.5 200.262 11.5C199.287 11.5 198.312 10.05 198.062 9.5C197.887 9.125 197.837 8.4 197.887 7.725L198.212 7.625C198.887 8.4 199.312 8.825 200.012 8.825C200.862 8.825 202.987 8.575 204.512 8.425C204.487 6.975 204.437 5.6 204.337 5.05C204.212 4.4 203.662 4.15 202.512 3.825L202.487 3.475C203.087 3.125 203.837 2.85 204.462 2.85C205.437 2.85 207.412 3.725 207.412 4.725C207.412 5.3 206.987 5.35 206.912 6.25C206.887 6.675 206.862 7.425 206.862 8.175C208.237 8.05 210.012 7.85 211.437 7.7C211.462 5.85 211.437 4.475 211.262 3.4C211.187 2.725 210.662 2.55 209.437 2.275ZM223.637 9.625L224.062 9.475C224.812 10.475 225.237 11.15 226.562 11.15C229.237 11.15 236.787 10.65 238.312 10.525C239.987 10.375 241.112 10.175 241.712 10.175C243.212 10.175 244.512 10.95 244.512 12.025C244.512 12.75 243.912 13.1 242.862 13.1C241.862 13.1 240.987 13.025 239.237 13.025C237.337 13.025 231.737 13.375 229.812 13.6C228.012 13.775 227.637 14.375 226.687 14.375C225.712 14.375 224.162 12.75 223.712 11.525C223.487 10.95 223.562 10.225 223.637 9.625ZM261.937 5.625L262.187 5.4C263.062 5.525 263.637 5.725 264.312 6.2C265.387 6.975 266.012 8.05 266.012 8.675C266.012 9.3 265.312 9.4 264.337 9.85C262.087 10.875 258.762 12.125 254.612 13.325C254.587 14.575 254.562 15.675 254.587 16.375C254.612 18.45 254.937 18.75 257.662 18.75C261.312 18.75 263.662 17.825 264.162 17.825C266.037 17.825 267.037 18.275 267.037 19.25C267.037 20.125 266.537 20.5 265.812 20.725C264.512 21.175 261.687 21.45 258.337 21.45C252.862 21.45 252.262 20.475 252.187 16.675C252.112 13.075 252.437 5.5 252.162 4.7C251.987 4.125 251.287 3.85 250.187 3.55V3.25C250.787 2.975 251.787 2.5 252.512 2.5C253.987 2.525 255.812 3.95 255.812 4.825C255.812 5.475 255.262 5.7 255.112 6.475C254.937 7.625 254.787 9.925 254.687 12.1C257.612 10.775 260.537 9.15 262.012 7.775C262.387 7.425 262.512 7.175 262.387 6.65C262.287 6.25 262.062 5.825 261.937 5.625ZM263.812 3.075L264.062 2.725C265.437 3.1 266.612 3.575 267.387 4.3C267.912 4.8 268.112 5.225 268.087 5.7C268.087 6.225 267.687 6.625 267.162 6.625C266.737 6.6 266.437 6.25 266.037 5.65C265.562 4.975 264.962 4.075 263.812 3.075ZM266.087 1.25L266.312 0.924999C267.712 1.225 268.862 1.65 269.562 2.175C270.187 2.675 270.412 3.15 270.412 3.75C270.412 4.275 270.087 4.625 269.587 4.625C269.087 4.6 268.812 4.225 268.337 3.575C267.887 3 267.387 2.275 266.087 1.25ZM276.637 3.975L277.062 3.8C277.612 4.525 278.312 5.25 279.162 5.25C280.887 5.25 285.262 4.425 286.462 4.125C287.087 3.975 287.512 3.25 288.037 3.25C289.112 3.25 291.362 5.175 291.362 5.975C291.362 6.7 290.212 7.075 289.912 7.5C289.062 8.75 287.762 10.9 286.137 12.7C290.237 13.975 293.912 16.35 293.912 19.1C293.912 19.875 293.362 20.725 292.362 20.725C291.387 20.725 290.737 19.975 289.887 18.65C288.737 16.75 287.762 14.975 285.437 13.425C283.137 15.775 279.262 19.25 273.187 21.125L272.912 20.6C278.787 17.55 284.937 11.175 286.962 6.3C287.112 5.925 286.962 5.825 286.687 5.825C285.687 5.925 282.487 6.875 281.237 7.3C280.412 7.575 280.112 8.175 279.412 8.175C278.312 8.175 277.137 6.725 276.837 5.8C276.662 5.3 276.612 4.65 276.637 3.975ZM304.212 11.65L304.762 11.875C304.287 13.25 303.462 15.6 303.187 16.5C302.987 17.5 302.887 18.025 302.887 18.4C302.887 19.3 303.362 20.15 303.362 20.925C303.362 21.825 302.912 22.325 302.087 22.325C301.487 22.325 300.887 21.875 300.412 21.2C299.487 19.95 298.862 17.825 298.862 14.975C298.862 12.675 299.562 9.7 299.962 8.2C300.287 6.975 300.537 5.975 300.537 4.85C300.537 3.7 299.887 2.65 299.237 1.875L299.487 1.6C300.312 1.8 300.837 2 301.462 2.425C302.212 2.9 303.612 4.35 303.612 5.7C303.612 6.4 303.212 6.9 302.637 8.05C301.712 9.725 300.687 12.25 300.687 14.75C300.687 15.525 300.787 16.15 300.962 16.5C301.112 16.875 301.387 16.9 301.612 16.525C302.212 15.625 303.537 12.9 304.212 11.65ZM312.962 16.975V16.925C312.137 16.7 311.262 16.6 310.337 16.6C308.937 16.6 307.562 17.2 307.562 18.25C307.562 19.175 308.662 19.575 309.837 19.575C312.362 19.575 312.962 18.7 312.962 16.975ZM310.287 2.95L310.212 2.575C310.862 2.125 311.787 1.575 312.462 1.575C314.137 1.575 315.712 2.45 315.712 3.175C315.712 3.775 315.462 3.975 315.287 4.875C315.212 5.275 315.137 5.85 315.062 6.55C316.787 5.975 317.437 5.575 317.587 5.575C318.487 5.575 319.512 6 319.512 6.775C319.512 7.6 319.087 7.775 317.937 8.25C317.387 8.45 316.262 8.775 314.937 9.025C314.912 9.35 314.912 9.7 314.912 10.025C314.912 12.15 315.087 13.9 315.212 15.325C317.287 15.875 318.587 16.85 319.412 17.675C319.962 18.2 320.262 18.75 320.262 19.325C320.262 20.15 319.812 20.65 319.137 20.65C318.562 20.65 318.187 20.25 317.362 19.475C316.712 18.875 316.087 18.4 315.437 18V18.15C315.437 20.525 313.937 21.775 310.587 21.775C308.337 21.775 306.337 20.6 306.337 18.45C306.337 15.975 308.862 14.9 311.737 14.9C312.137 14.9 312.512 14.925 312.887 14.95C312.812 13.475 312.712 11.625 312.687 9.975V9.375C311.887 9.475 311.087 9.525 310.337 9.525C308.712 9.525 307.437 9.325 306.212 6.55L306.512 6.275C307.737 7.1 308.862 7.425 309.887 7.425C310.937 7.425 311.862 7.325 312.687 7.175L312.712 4.675C312.712 3.6 312.512 3.525 312.087 3.375C311.537 3.15 310.887 3.05 310.287 2.95ZM332.587 2.125H328.412V5.125H332.587V2.125ZM339.612 2.125H335.337V5.125H339.612V2.125ZM335.337 8.9H339.612V5.825H335.337V8.9ZM328.412 8.9H332.587V5.825H328.412V8.9ZM328.412 9.625V10.05C328.412 10.325 327.162 10.95 325.962 10.95H325.537V0.2L328.612 1.425H339.362L340.687 -8.34465e-07L343.387 2.05C343.287 2.225 342.962 2.45 342.512 2.55V9.7C342.487 9.925 341.087 10.525 340.112 10.525H339.612V9.625H328.412ZM322.587 23.2L322.462 22.9C325.362 21.7 328.337 19.55 329.712 17.85L333.087 19.95C332.862 20.225 332.412 20.325 331.612 20.175C329.587 21.5 326.112 22.675 322.587 23.2ZM336.062 18.975L336.187 18.65C349.337 19.5 344.487 24.85 342.012 22.725C340.987 21.55 339.037 20.05 336.062 18.975ZM332.162 13.3V16.85H335.712V13.3H332.162ZM340.937 16.85L342.587 14.8C342.587 14.8 344.437 16.2 345.562 17.175C345.487 17.45 345.212 17.575 344.862 17.575H322.737L322.537 16.85H329.287V13.3H324.362L324.162 12.575H329.287V10.175L333.087 10.5C333.037 10.85 332.837 11.1 332.162 11.175V12.575H335.712V10.15L339.512 10.475C339.462 10.825 339.237 11.075 338.587 11.175V12.575H340.162L341.712 10.65C341.712 10.65 343.462 11.95 344.562 12.9C344.487 13.175 344.212 13.3 343.862 13.3H338.587V16.85H340.937ZM353.162 1.6V1.25C353.637 1 354.512 0.749998 355.187 0.749998C356.162 0.749998 357.012 1.025 357.537 1.4C358.037 1.8 357.787 2.575 357.062 4.725C358.887 4.125 359.462 3.65 359.787 3.65C360.362 3.65 361.087 4.05 361.087 4.85C361.087 5.4 360.737 5.725 360.312 6C359.437 6.55 357.887 7.05 356.187 7.4C355.362 9.95 353.862 14.2 351.987 17.2C351.362 18.175 350.862 18.825 350.162 18.825C349.312 18.825 348.837 18 348.837 17.15C348.837 16.55 348.987 16.075 349.437 15.525C351.087 13.525 352.787 11 353.887 7.775C353.262 7.85 352.687 7.875 352.137 7.875C350.062 7.875 349.112 7.25 348.412 4.475L348.787 4.275C349.837 5.075 350.637 5.675 352.237 5.675C352.962 5.675 353.837 5.55 354.587 5.4C354.762 4.625 354.862 3.925 354.887 3.325C354.887 2.8 354.687 2.5 354.262 2.175C353.862 1.875 353.412 1.7 353.162 1.6ZM361.312 17.95C361.312 17.725 361.312 17.5 361.312 17.275C360.612 17.1 359.837 17.025 359.012 17.025C356.987 17.025 356.037 17.95 356.037 18.75C356.037 19.575 356.712 20.175 358.462 20.175C360.312 20.175 361.312 19.375 361.312 17.95ZM362.437 6.05L362.412 5.6C363.837 5.15 365.287 5.2 366.312 5.5C368.012 6.025 369.062 7.15 369.062 8.55C369.062 9.35 368.787 9.925 367.987 9.925C367.012 9.925 366.337 9.175 364.962 9.2C364.237 9.225 363.462 9.5 363.087 10.025C362.712 10.575 362.762 11.425 362.912 12.4C363.012 13.125 363.262 14.35 363.487 15.7C364.787 16.025 365.812 16.5 366.637 16.975C368.212 17.8 369.312 18.85 369.312 19.95C369.312 20.925 368.737 21.35 368.162 21.35C367.412 21.35 367.062 20.65 366.087 19.8C365.462 19.225 364.712 18.65 363.787 18.175C363.812 18.475 363.812 18.775 363.812 19.075C363.812 21.3 362.112 22.475 359.237 22.475C356.487 22.475 354.837 21.075 354.837 19.225C354.837 17.2 356.837 15.35 360.487 15.35C360.737 15.35 360.987 15.35 361.237 15.375C361.187 14.575 361.162 13.8 361.162 13.125C361.162 11.55 361.437 10.45 362.187 9.575C363.137 8.425 364.412 7.95 365.187 7.55C365.312 7.325 365.212 7.1 364.962 6.9C364.412 6.425 363.512 6.15 362.437 6.05ZM379.137 4.525C379.137 2.85 378.712 1.825 377.662 0.599999L377.812 0.374999C378.387 0.399998 379.137 0.55 379.637 0.775C380.887 1.35 382.012 2.65 382.012 3.5C382.012 4.175 381.787 4.65 381.562 5.225C381.287 6.025 381.112 6.775 381.062 7.275C381.037 7.75 381.212 7.775 381.437 7.35C382.737 5.025 384.287 3.675 385.987 3.675C388.837 3.675 390.737 6.3 390.737 11.7C390.737 17.375 387.787 21.775 380.187 23.05L379.987 22.6C386.562 19.975 387.637 15.4 387.637 11.25C387.637 6.85 386.712 4.975 385.237 4.975C384.287 4.975 383.062 5.875 382.212 7.6C381.437 9.125 381.062 10.625 381.062 12.2C381.062 13.375 381.237 14.225 381.237 15.35C381.237 16.1 380.712 16.575 379.987 16.575C379.262 16.575 378.787 16.225 378.462 15.5C378.162 14.775 378.037 13.75 378.037 12.775C378.037 10.35 379.137 6.175 379.137 4.525ZM408.562 17.3V17.275C407.787 17.125 406.962 17.05 406.087 17.05C404.037 17.05 402.612 17.875 402.612 18.775C402.612 19.6 403.562 20.15 404.887 20.15C407.337 20.15 408.562 19.575 408.562 17.3ZM405.987 2.175L405.962 1.825C406.537 1.45 407.287 1.1 408.212 1.1C409.812 1.1 411.512 1.85 411.512 2.8C411.512 3.3 411.162 3.6 410.987 4.225C410.912 4.475 410.837 4.825 410.787 5.225C411.912 5 412.837 4.75 413.412 4.575C414.437 4.225 414.812 3.975 415.012 3.975C415.712 3.975 417.137 4.25 417.137 5.2C417.137 5.925 416.687 6.175 415.937 6.425C415.037 6.75 413.062 7.275 410.537 7.625C410.462 8.45 410.437 9.375 410.412 10.3C411.337 10.125 412.187 9.925 413.012 9.675C414.087 9.35 414.462 9.1 414.637 9.1C415.662 9.1 416.637 9.375 416.637 10.2C416.637 10.875 416.187 11.225 415.612 11.45C414.837 11.775 412.837 12.225 410.437 12.5C410.512 13.775 410.637 14.85 410.762 15.85C413.587 16.4 415.437 17.525 416.237 18.125C417.062 18.725 417.612 19.4 417.612 20.25C417.612 21.075 417.137 21.5 416.512 21.5C415.887 21.5 415.612 21.225 415.012 20.725C413.787 19.6 412.487 18.65 410.962 18C410.987 18.325 410.987 18.625 410.987 18.95C410.987 20.975 409.212 22.3 406.262 22.3C403.387 22.3 401.412 21.125 401.412 18.925C401.412 16.825 403.962 15.525 407.312 15.525C407.737 15.525 408.137 15.55 408.537 15.575C408.512 14.7 408.462 13.725 408.437 12.7C407.512 12.775 406.562 12.825 405.637 12.825C402.237 12.825 400.262 10.725 403.362 8.3L403.737 8.55C402.662 10.2 403.362 10.75 405.412 10.75C406.437 10.75 407.412 10.7 408.362 10.6C408.362 10.2 408.362 9.8 408.362 9.425C408.362 8.925 408.362 8.4 408.362 7.85C407.412 7.925 406.412 7.975 405.387 7.975C402.937 7.975 401.212 7.325 400.012 4.675L400.312 4.45C401.587 5.325 402.562 5.875 404.637 5.875C405.912 5.875 407.212 5.775 408.412 5.625C408.412 4.7 408.437 3.975 408.437 3.625C408.437 3.125 408.262 2.925 407.837 2.725C407.312 2.5 406.787 2.35 405.987 2.175ZM433.312 15.3C434.487 15.3 434.912 14.575 434.912 13.125C434.912 11.9 434.437 10.9 433.387 10.9C432.212 10.9 431.387 11.875 431.387 13.2C431.387 14.325 432.162 15.3 433.312 15.3ZM431.912 2.175L431.862 1.825C432.462 1.4 433.287 0.924999 434.112 0.924999C435.537 0.924999 437.337 1.575 437.337 2.4C437.337 3.075 436.912 3.6 436.837 4.2C436.812 4.425 436.787 4.8 436.787 5.275C441.387 4.75 441.887 4.425 442.287 4.425C443.612 4.425 445.287 5.15 445.287 6.3C445.287 7.15 444.787 7.275 444.037 7.275C442.937 7.275 441.337 6.575 436.737 6.95C436.712 8.175 436.712 9.575 436.712 10.825C437.462 11.7 437.762 12.925 437.762 14.25C437.762 19.425 433.537 22.1 428.037 22.875L427.837 22.4C430.887 21.3 433.437 19.7 434.412 17.35C431.912 18.05 430.062 15.975 430.062 13.45C430.062 11.25 431.612 9.575 433.662 9.575C434.037 9.575 434.387 9.6 434.712 9.675C434.662 9.025 434.612 8.125 434.562 7.2C432.012 7.525 429.912 8.025 428.712 8.375C427.537 8.725 427.012 9.25 426.137 9.25C425.162 9.25 423.712 7.925 423.437 6.925C423.262 6.375 423.262 5.675 423.287 5.125L423.662 4.975C424.562 6 424.937 6.425 425.812 6.425C426.887 6.475 431.612 5.875 434.437 5.525C434.362 4.675 434.287 3.875 434.212 3.375C434.137 2.95 434.012 2.775 433.612 2.6C433.212 2.425 432.612 2.3 431.912 2.175Z" fill="white"/>
</g>
<defs>
<filter id="filter0_d_2_11897" x="0.234873" y="0" width="446.908" height="26.9711" filterUnits="userSpaceOnUse" color-interpolation-filters="sRGB">
<feFlood flood-opacity="0" result="BackgroundImageFix"/>
<feColorMatrix in="SourceAlpha" type="matrix" values="0 0 0 0 0 0 0 0 0 0 0 0 0 0 0 0 0 0 127 0" result="hardAlpha"/>
<feOffset dx="0.795381" dy="1.06051"/>
<feGaussianBlur stdDeviation="0.530254"/>
<feComposite in2="hardAlpha" operator="out"/>
<feColorMatrix type="matrix" values="0 0 0 0 0.154346 0 0 0 0 0.154346 0 0 0 0 0.154346 0 0 0 1 0"/>
<feBlend mode="normal" in2="BackgroundImageFix" result="effect1_dropShadow_2_11897"/>
<feBlend mode="normal" in="SourceGraphic" in2="effect1_dropShadow_2_11897" result="shape"/>
</filter>
</defs>
</svg>
