<svg width="18" height="20" viewBox="0 0 18 20" fill="none" xmlns="http://www.w3.org/2000/svg">
<path d="M15.9844 1.98438C16.5469 1.98438 17.0156 2.1875 17.3906 2.59375C17.7969 2.96875 18 3.4375 18 4V18.0156C18 18.5469 17.7969 19.0156 17.3906 19.4219C17.0156 19.7969 16.5469 19.9844 15.9844 19.9844H2.01562C1.45312 19.9844 0.96875 19.7969 0.5625 19.4219C0.1875 19.0156 0 18.5469 0 18.0156V4C0 3.4375 0.1875 2.96875 0.5625 2.59375C0.96875 2.1875 1.45312 1.98438 2.01562 1.98438H3V0.015625H5.01562V1.98438H12.9844V0.015625H15V1.98438H15.9844ZM15.9844 18.0156V7.98438H2.01562V18.0156H15.9844ZM6 12.0156V10H3.98438V12.0156H6ZM9.98438 12.0156V10H8.01562V12.0156H9.98438ZM14.0156 12.0156V10H12V12.0156H14.0156ZM6 16V13.9844H3.98438V16H6ZM9.98438 16V13.9844H8.01562V16H9.98438ZM14.0156 16V13.9844H12V16H14.0156Z" fill="black" fill-opacity="0.59"/>
</svg>
