<svg width="64" height="64" viewBox="0 0 64 64" fill="none" xmlns="http://www.w3.org/2000/svg">
<path d="M28.1707 10C18.0433 10 9.83325 18.21 9.83325 28.3374C9.83325 38.4648 18.0433 46.6707 28.1666 46.6707C38.2899 46.6707 46.4999 38.4607 46.4999 28.3374C46.4999 18.2141 38.2981 10 28.1707 10Z" fill="#025BE8"/>
<path d="M15.6333 35.6704C15.6333 25.7088 23.7089 17.633 33.6707 17.633C43.6321 17.633 51.6999 25.7126 51.6999 35.6704C51.6999 45.628 43.6242 53.7037 33.6666 53.7037C23.7089 53.7037 15.6333 45.6321 15.6333 35.6704Z" fill="#D6DDF4" fill-opacity="0.3" stroke="url(#paint0_linear_623_333)" stroke-width="0.6"/>
<path d="M27.0144 44.9848H33.8745C34.339 44.9848 34.7134 45.3602 34.7134 45.8258C34.7134 46.2915 34.3369 46.6669 33.8745 46.6669H27.0144C25.6273 46.6669 24.5 45.5366 24.5 44.1458V39.7914C24.5 36.5482 27.131 33.9082 30.3656 33.9102H35.3945C35.5436 33.9102 35.5635 34.1224 35.4236 34.1741C34.6834 34.4483 34.0182 34.8771 33.4674 35.4215C33.3607 35.5269 33.2185 35.5902 33.0686 35.5902H30.3656C28.0558 35.5902 26.1756 37.4754 26.1756 39.7914V44.1438C26.1756 44.6074 26.552 44.9848 27.0144 44.9848Z" fill="white"/>
<path fill-rule="evenodd" clip-rule="evenodd" d="M37.0699 28.8681C37.0699 31.1882 35.1939 33.0693 32.8799 33.0693C30.566 33.0693 28.6899 31.1882 28.6899 28.8681C28.6899 26.5481 30.566 24.667 32.8799 24.667C35.1939 24.667 37.0699 26.5481 37.0699 28.8681ZM35.3944 28.8681C35.3944 27.4773 34.2671 26.347 32.8799 26.347C31.4928 26.347 30.3655 27.4794 30.3655 28.8681C30.3655 30.2569 31.4928 31.3892 32.8799 31.3892C34.2671 31.3892 35.3944 30.2589 35.3944 28.8681Z" fill="white"/>
<path d="M27.0144 44.9848H33.8745C34.339 44.9848 34.7134 45.3602 34.7134 45.8258C34.7134 46.2915 34.3369 46.6669 33.8745 46.6669H27.0144C25.6273 46.6669 24.5 45.5366 24.5 44.1458V39.7914C24.5 36.5482 27.131 33.9082 30.3656 33.9102H35.3945C35.5436 33.9102 35.5635 34.1224 35.4236 34.1741C34.6834 34.4483 34.0182 34.8771 33.4674 35.4215C33.3607 35.5269 33.2185 35.5902 33.0686 35.5902H30.3656C28.0558 35.5902 26.1756 37.4754 26.1756 39.7914V44.1438C26.1756 44.6074 26.552 44.9848 27.0144 44.9848Z" stroke="white" stroke-width="0.366667"/>
<path fill-rule="evenodd" clip-rule="evenodd" d="M37.0699 28.8681C37.0699 31.1882 35.1939 33.0693 32.8799 33.0693C30.566 33.0693 28.6899 31.1882 28.6899 28.8681C28.6899 26.5481 30.566 24.667 32.8799 24.667C35.1939 24.667 37.0699 26.5481 37.0699 28.8681ZM35.3944 28.8681C35.3944 27.4773 34.2671 26.347 32.8799 26.347C31.4928 26.347 30.3655 27.4794 30.3655 28.8681C30.3655 30.2569 31.4928 31.3892 32.8799 31.3892C34.2671 31.3892 35.3944 30.2589 35.3944 28.8681Z" stroke="white" stroke-width="0.366667"/>
<path d="M40.0835 45.9331C43.2223 45.9331 45.7668 43.3886 45.7668 40.2497C45.7668 37.1109 43.2223 34.5664 40.0835 34.5664C36.9447 34.5664 34.4001 37.1109 34.4001 40.2497C34.4001 43.3886 36.9447 45.9331 40.0835 45.9331Z" stroke="white" stroke-width="1.46667"/>
<path d="M40.5197 38C41.0744 38 41.5082 38.1095 41.8212 38.3286C42.1342 38.5426 42.3402 38.8457 42.439 39.238H42.8756V39.7653H42.5131C42.5186 39.7959 42.5214 39.8264 42.5214 39.857C42.5214 39.8825 42.5214 39.9079 42.5214 39.9334C42.5214 39.9844 42.5186 40.0353 42.5131 40.0863C42.5131 40.1321 42.5104 40.1754 42.5049 40.2162H42.8756V40.7435H42.3896C42.3072 40.9829 42.1754 41.1969 41.9942 41.3854C41.813 41.5739 41.5741 41.7216 41.2776 41.8286C40.981 41.9356 40.6158 41.9891 40.182 41.9891H40.0255V43.4564H38.7981V40.7435H38.3286V40.2162H38.7981V39.7653H38.3286V39.238H38.7981V38H40.5197ZM41.1046 40.7435H40.0255V41.0721H40.1573C40.3824 41.0721 40.5746 41.0466 40.7339 40.9957C40.8932 40.9447 41.0167 40.8606 41.1046 40.7435ZM41.2858 39.7653H40.0255V40.2162H41.2858C41.2913 40.1754 41.294 40.1372 41.294 40.1015C41.294 40.0608 41.294 40.0175 41.294 39.9716C41.294 39.936 41.294 39.9029 41.294 39.8723C41.294 39.8366 41.2913 39.801 41.2858 39.7653ZM40.4621 38.917H40.0255V39.238H41.154C41.0936 39.1361 41.0057 39.0571 40.8904 39.0011C40.7806 38.9451 40.6378 38.917 40.4621 38.917Z" fill="white"/>
<defs>
<linearGradient id="paint0_linear_623_333" x1="20.4303" y1="19.7082" x2="45.4153" y2="49.4139" gradientUnits="userSpaceOnUse">
<stop stop-color="white" stop-opacity="0.97"/>
<stop offset="1" stop-color="#3C5BFF" stop-opacity="0.42"/>
</linearGradient>
</defs>
</svg>
