<svg width="64" height="64" viewBox="0 0 64 64" fill="none" xmlns="http://www.w3.org/2000/svg">
<path d="M28.3333 10C26.3473 10 24.418 10.6642 22.8503 11.8877L13.4485 19.2238C12.3747 20.0619 11.5058 21.135 10.9082 22.3612C10.3105 23.5875 9.99988 24.9346 10 26.2997V37.704C10 40.081 10.941 42.3607 12.616 44.0416C13.4454 44.8738 14.43 45.534 15.5136 45.9844C16.5973 46.4348 17.7587 46.6667 18.9316 46.6667H37.735C40.1039 46.6667 42.3757 45.7224 44.0507 44.0416C45.7257 42.3607 46.6667 40.081 46.6667 37.704V26.3015C46.6668 24.9365 46.3562 23.5894 45.7585 22.3631C45.1609 21.1368 44.292 20.0638 43.2181 19.2257L33.8164 11.8877C32.2487 10.6642 30.3193 10 28.3333 10Z" fill="#A0A8C2"/>
<g filter="url(#filter0_bi_9656_44896)">
<path d="M30.1835 19.2216C31.7512 17.9982 33.6806 17.334 35.6666 17.334C37.6526 17.334 39.5819 17.9982 41.1497 19.2216L50.5514 26.5597C51.6252 27.3977 52.4941 28.4708 53.0918 29.6971C53.6894 30.9234 54 32.2704 53.9999 33.6355V45.038C53.9999 47.415 53.0589 49.6947 51.3839 51.3755C49.7089 53.0564 47.4371 54.0007 45.0683 54.0007H26.2649C25.092 54.0007 23.9305 53.7688 22.8469 53.3184C21.7633 52.868 20.7786 52.2078 19.9493 51.3755C18.2743 49.6947 17.3333 47.415 17.3333 45.038V33.6336C17.3331 32.2686 17.6438 30.9215 18.2414 29.6952C18.8391 28.4689 19.708 27.3958 20.7818 26.5578L30.1835 19.2216Z" fill="#E1EAFF" fill-opacity="0.3"/>
<path d="M30.4296 19.537L30.4296 19.537C31.9271 18.3683 33.7699 17.734 35.6666 17.734C37.5633 17.734 39.406 18.3683 40.9036 19.537L50.3053 26.875L50.3053 26.8751C51.3311 27.6756 52.1612 28.7007 52.7322 29.8723C53.3032 31.044 53.6 32.3311 53.5999 33.6355V45.038C53.5999 47.3094 52.7007 49.4875 51.1006 51.0932C49.5005 52.6989 47.3306 53.6007 45.0683 53.6007H26.2649C25.1447 53.6007 24.0354 53.3792 23.0004 52.949C21.9654 52.5188 21.0249 51.8882 20.2326 51.0932C18.6325 49.4875 17.7333 47.3094 17.7333 45.038V33.6336V33.6336C17.7331 32.3292 18.03 31.0421 18.601 29.8705C19.172 28.6988 20.0021 27.6737 21.0279 26.8732C21.0279 26.8732 21.0279 26.8732 21.0279 26.8732L30.4296 19.537Z" stroke="url(#paint0_linear_9656_44896)" stroke-width="0.8"/>
</g>
<rect x="28" y="40" width="16" height="4" rx="2" fill="white"/>
<defs>
<filter id="filter0_bi_9656_44896" x="2.66658" y="2.66732" width="66" height="66.0001" filterUnits="userSpaceOnUse" color-interpolation-filters="sRGB">
<feFlood flood-opacity="0" result="BackgroundImageFix"/>
<feGaussianBlur in="BackgroundImageFix" stdDeviation="7.33333"/>
<feComposite in2="SourceAlpha" operator="in" result="effect1_backgroundBlur_9656_44896"/>
<feBlend mode="normal" in="SourceGraphic" in2="effect1_backgroundBlur_9656_44896" result="shape"/>
<feColorMatrix in="SourceAlpha" type="matrix" values="0 0 0 0 0 0 0 0 0 0 0 0 0 0 0 0 0 0 127 0" result="hardAlpha"/>
<feOffset/>
<feGaussianBlur stdDeviation="0.916667"/>
<feComposite in2="hardAlpha" operator="arithmetic" k2="-1" k3="1"/>
<feColorMatrix type="matrix" values="0 0 0 0 1 0 0 0 0 1 0 0 0 0 1 0 0 0 0.25 0"/>
<feBlend mode="normal" in2="shape" result="effect2_innerShadow_9656_44896"/>
</filter>
<linearGradient id="paint0_linear_9656_44896" x1="22.1159" y1="19.2983" x2="47.7488" y2="49.7192" gradientUnits="userSpaceOnUse">
<stop stop-color="white" stop-opacity="0.97"/>
<stop offset="1" stop-color="#9ABFFF" stop-opacity="0.42"/>
</linearGradient>
</defs>
</svg>
