<svg width="22" height="22" viewBox="0 0 22 22" fill="none" xmlns="http://www.w3.org/2000/svg">
<path d="M5.5 4.125C4.77065 4.125 4.07118 4.41473 3.55546 4.93046C3.03973 5.44618 2.75 6.14565 2.75 6.875V7.15138L11 11.594L19.25 7.15275V6.875C19.25 6.14565 18.9603 5.44618 18.4445 4.93046C17.9288 4.41473 17.2293 4.125 16.5 4.125H5.5ZM19.25 8.71338L11.3259 12.98C11.2257 13.0339 11.1137 13.0621 11 13.0621C10.8863 13.0621 10.7743 13.0339 10.6741 12.98L2.75 8.71338V15.125C2.75 15.8543 3.03973 16.5538 3.55546 17.0695C4.07118 17.5853 4.77065 17.875 5.5 17.875H16.5C17.2293 17.875 17.9288 17.5853 18.4445 17.0695C18.9603 16.5538 19.25 15.8543 19.25 15.125V8.71338Z" fill="#92A1C2"/>
</svg>
