<svg width="18" height="20" viewBox="0 0 18 20" fill="none" xmlns="http://www.w3.org/2000/svg">
<path fill-rule="evenodd" clip-rule="evenodd" d="M7.796 0.243806C9.653 -0.174194 11 1.42181 11 2.99981V16.9998C11 18.5778 9.653 20.1738 7.796 19.7559C3.334 18.7519 0 14.7659 0 9.99986C0 5.23381 3.334 1.24781 7.796 0.243806ZM13.293 6.29281C13.4805 6.10534 13.7348 6.00002 14 6.00002C14.2652 6.00002 14.5195 6.10534 14.707 6.29281L17.707 9.29286C17.8945 9.48036 17.9998 9.73466 17.9998 9.99986C17.9998 10.265 17.8945 10.5193 17.707 10.7069L14.707 13.7069C14.5184 13.889 14.2658 13.9898 14.0036 13.9875C13.7414 13.9852 13.4906 13.8801 13.3052 13.6947C13.1198 13.5093 13.0146 13.2584 13.0123 12.9963C13.01 12.7341 13.1108 12.4815 13.293 12.2929L14.586 10.9999H6C5.73478 10.9999 5.48043 10.8945 5.29289 10.707C5.10536 10.5194 5 10.2651 5 9.99986C5 9.73456 5.10536 9.48026 5.29289 9.29266C5.48043 9.10516 5.73478 8.99986 6 8.99986H14.586L13.293 7.70681C13.1055 7.51928 13.0002 7.26497 13.0002 6.99981C13.0002 6.73465 13.1055 6.48034 13.293 6.29281Z" fill="#9DABC6"/>
</svg>
