<svg width="21" height="20" viewBox="0 0 21 20" fill="none" xmlns="http://www.w3.org/2000/svg">
<path d="M15.6871 2.70829C15.8528 2.70829 16.0118 2.77414 16.129 2.89135C16.2462 3.00856 16.3121 3.16753 16.3121 3.33329V3.95829H16.9371C17.1028 3.95829 17.2618 4.02414 17.379 4.14135C17.4962 4.25856 17.5621 4.41753 17.5621 4.58329C17.5621 4.74905 17.4962 4.90802 17.379 5.02523C17.2618 5.14244 17.1028 5.20829 16.9371 5.20829H16.3121V5.83329C16.3121 5.99905 16.2462 6.15802 16.129 6.27523C16.0118 6.39244 15.8528 6.45829 15.6871 6.45829C15.5213 6.45829 15.3623 6.39244 15.2451 6.27523C15.1279 6.15802 15.0621 5.99905 15.0621 5.83329V5.20829H14.4371C14.2713 5.20829 14.1123 5.14244 13.9951 5.02523C13.8779 4.90802 13.8121 4.74905 13.8121 4.58329C13.8121 4.41753 13.8779 4.25856 13.9951 4.14135C14.1123 4.02414 14.2713 3.95829 14.4371 3.95829H15.0621V3.33329C15.0621 3.16753 15.1279 3.00856 15.2451 2.89135C15.3623 2.77414 15.5213 2.70829 15.6871 2.70829ZM10.0304 2.87496C10.103 2.77824 10.1459 2.66256 10.1541 2.54192C10.1622 2.42129 10.1352 2.30089 10.0762 2.19531C10.0173 2.08973 9.92904 2.0035 9.8221 1.94709C9.71516 1.89067 9.59415 1.86648 9.47374 1.87746C4.96208 2.28912 2.44374 5.83746 2.17041 9.46496C1.89708 13.0991 3.86791 16.9441 8.37958 17.9366C13.1179 18.9783 17.9396 15.5725 18.3929 10.7316C18.4042 10.6118 18.3806 10.4912 18.325 10.3844C18.2695 10.2777 18.1842 10.1892 18.0796 10.1297C17.9749 10.0702 17.8553 10.0422 17.7351 10.049C17.6149 10.0559 17.4993 10.0973 17.4021 10.1683C15.0379 11.8925 12.3354 11.265 10.6221 9.56496C8.91041 7.86579 8.28874 5.19912 10.0304 2.87496Z" fill="white"/>
</svg>
