<svg width="16" height="16" viewBox="0 0 16 16" fill="none" xmlns="http://www.w3.org/2000/svg">
<path d="M2 6.94532C2 4.81332 2 3.74732 2.252 3.38865C2.50333 3.03065 3.50533 2.68732 5.51 2.00132L5.892 1.87065C6.93667 1.51265 7.45867 1.33398 8 1.33398C8.54067 1.33398 9.06333 1.51265 10.108 1.87065L10.49 2.00132C12.4947 2.68732 13.4967 3.03065 13.748 3.38865C14 3.74732 14 4.81398 14 6.94532V7.99465C14 11.7533 11.174 13.578 9.40067 14.352C8.92 14.562 8.68 14.6673 8 14.6673C7.32 14.6673 7.08 14.562 6.59933 14.352C4.826 13.5773 2 11.754 2 7.99465V6.94532Z" stroke="#6D7693" stroke-width="1.3"/>
<path d="M10.6667 7.70052L8.40001 6.00052C8.28461 5.91397 8.14426 5.86719 8.00001 5.86719C7.85576 5.86719 7.71541 5.91397 7.60001 6.00052L5.33334 7.70052M9.33334 9.36719L8.00001 8.36719L6.66668 9.36719" stroke="#6D7693" stroke-width="1.3" stroke-linecap="round" stroke-linejoin="round"/>
</svg>
