<svg width="20" height="20" viewBox="0 0 20 20" fill="none" xmlns="http://www.w3.org/2000/svg">
<path d="M6.66667 10C6.66667 10.8841 7.01786 11.7319 7.64298 12.357C8.2681 12.9821 9.11594 13.3333 10 13.3333C10.8841 13.3333 11.7319 12.9821 12.357 12.357C12.9821 11.7319 13.3333 10.8841 13.3333 10C13.3333 9.11594 12.9821 8.2681 12.357 7.64298C11.7319 7.01786 10.8841 6.66667 10 6.66667C9.11594 6.66667 8.2681 7.01786 7.64298 7.64298C7.01786 8.2681 6.66667 9.11594 6.66667 10ZM2.5 10H3.33333H2.5ZM10 2.5V3.33333V2.5ZM16.6667 10H17.5H16.6667ZM10 16.6667V17.5V16.6667ZM4.66667 4.66667L5.25 5.25L4.66667 4.66667ZM15.3333 4.66667L14.75 5.25L15.3333 4.66667ZM14.75 14.75L15.3333 15.3333L14.75 14.75ZM5.25 14.75L4.66667 15.3333L5.25 14.75Z" fill="white"/>
<path d="M2.5 10H3.33333M10 2.5V3.33333M16.6667 10H17.5M10 16.6667V17.5M4.66667 4.66667L5.25 5.25M15.3333 4.66667L14.75 5.25M14.75 14.75L15.3333 15.3333M5.25 14.75L4.66667 15.3333M6.66667 10C6.66667 10.8841 7.01786 11.7319 7.64298 12.357C8.2681 12.9821 9.11594 13.3333 10 13.3333C10.8841 13.3333 11.7319 12.9821 12.357 12.357C12.9821 11.7319 13.3333 10.8841 13.3333 10C13.3333 9.11594 12.9821 8.2681 12.357 7.64298C11.7319 7.01786 10.8841 6.66667 10 6.66667C9.11594 6.66667 8.2681 7.01786 7.64298 7.64298C7.01786 8.2681 6.66667 9.11594 6.66667 10Z" stroke="white" stroke-width="2" stroke-linecap="round" stroke-linejoin="round"/>
</svg>
