<svg width="29" height="29" viewBox="0 0 29 29" fill="none" xmlns="http://www.w3.org/2000/svg">
<path d="M14.8188 2.61465C18.6056 2.61465 19.0537 2.62961 20.5494 2.69925C21.9319 2.76371 22.6829 2.99968 23.1827 3.19824C23.7995 3.4304 24.3573 3.80115 24.8152 4.28312C25.2866 4.75127 25.6493 5.32164 25.8763 5.95217C26.0705 6.46324 26.3013 7.23101 26.3644 8.64452C26.4325 10.1737 26.4471 10.6318 26.4471 14.5035C26.4471 18.3751 26.4325 18.8332 26.3644 20.3624C26.3013 21.7759 26.0705 22.5437 25.8763 23.0547C25.6402 23.6799 25.2787 24.2476 24.8152 24.7215C24.3517 25.1954 23.7964 25.5649 23.185 25.8064C22.6851 26.0049 21.9342 26.2409 20.5516 26.3053C19.0565 26.375 18.6079 26.39 14.8211 26.39C11.0343 26.39 10.5857 26.375 9.09054 26.3053C7.708 26.2409 6.95707 26.0049 6.45719 25.8064C5.84048 25.5742 5.28261 25.2035 4.82471 24.7215C4.3533 24.2533 3.99068 23.683 3.7636 23.0524C3.5694 22.5414 3.3386 21.7736 3.27555 20.3601C3.20744 18.8309 3.1928 18.3728 3.1928 14.5012C3.1928 10.6295 3.20744 10.1714 3.27555 8.64222C3.3386 7.22871 3.5694 6.46094 3.7636 5.94987C3.99068 5.31934 4.3533 4.74897 4.82471 4.28082C5.28261 3.79884 5.84048 3.4281 6.45719 3.19594C6.95707 2.99738 7.708 2.76141 9.09054 2.69695C10.5862 2.62731 11.0343 2.61235 14.8211 2.61235L14.8188 2.61465ZM14.8211 0C10.9696 0 10.4866 0.0166905 8.97402 0.0874811C7.46144 0.158272 6.4313 0.405176 5.53062 0.763158C4.58412 1.12744 3.72661 1.69817 3.01773 2.43566C2.29641 3.16041 1.73818 4.03714 1.38188 5.00484C1.03174 5.9257 0.791936 6.98123 0.72326 8.52423C0.654583 10.0672 0.637695 10.5633 0.637695 14.5012C0.637695 18.439 0.65402 18.9328 0.72326 20.4792C0.792499 22.0257 1.03174 23.0766 1.38188 23.9975C1.73832 24.9648 2.29654 25.8411 3.01773 26.5655C3.72637 27.3034 4.58394 27.8744 5.53062 28.2386C6.4313 28.5971 7.4637 28.8423 8.97289 28.9125C10.4821 28.9827 10.9685 29 14.82 29C18.6715 29 19.1545 28.9833 20.667 28.9125C22.1796 28.8417 23.2064 28.5971 24.1071 28.2386C25.0494 27.8663 25.9053 27.2967 26.6197 26.5663C27.334 25.836 27.8911 24.9609 28.2552 23.9975C28.6059 23.0766 28.8458 22.0211 28.9144 20.4781C28.9831 18.9351 29 18.4378 29 14.5C29 10.5622 28.9837 10.0684 28.9144 8.52193C28.8452 6.97547 28.6059 5.9257 28.2552 5.00484C27.8992 4.03747 27.3412 3.1611 26.62 2.43681C25.9112 1.69891 25.0537 1.12778 24.1071 0.763158C23.2064 0.405176 22.174 0.159998 20.6648 0.0897833C19.1556 0.0195681 18.6704 0.00230213 14.8188 0.00230213L14.8211 0ZM14.8211 7.05374C13.3809 7.05329 11.9728 7.48949 10.7751 8.30719C9.57731 9.12489 8.64361 10.2874 8.09204 11.6476C7.54048 13.0078 7.39582 14.5048 7.67636 15.9491C7.9569 17.3934 8.65004 18.7202 9.66812 19.7617C10.6862 20.8032 11.9835 21.5127 13.396 21.8004C14.8085 22.0882 16.2727 21.9412 17.6035 21.3781C18.9342 20.815 20.0718 19.8611 20.8723 18.637C21.6729 17.413 22.1004 15.9737 22.1008 14.5012C22.1009 13.5234 21.9126 12.5553 21.5467 11.6519C21.1807 10.7486 20.6443 9.92786 19.9681 9.2365C19.2919 8.54514 18.4891 7.99674 17.6056 7.62262C16.7221 7.24849 15.7751 7.05597 14.8188 7.05605L14.8211 7.05374ZM14.8188 19.3356C13.8836 19.3356 12.9694 19.0521 12.1918 18.5209C11.4142 17.9897 10.8081 17.2346 10.4502 16.3512C10.0923 15.4678 9.9987 14.4958 10.1812 13.558C10.3636 12.6202 10.814 11.7588 11.4753 11.0827C12.1366 10.4065 12.9791 9.9461 13.8963 9.75956C14.8136 9.57302 15.7644 9.66876 16.6284 10.0347C17.4924 10.4006 18.2309 11.0202 18.7505 11.8153C19.2701 12.6103 19.5474 13.545 19.5474 14.5012C19.5474 15.7833 19.0492 17.013 18.1624 17.9196C17.2757 18.8263 16.0729 19.3356 14.8188 19.3356ZM22.389 5.02153C22.0525 5.02153 21.7235 5.12357 21.4436 5.31475C21.1638 5.50592 20.9456 5.77765 20.8168 6.09556C20.688 6.41348 20.6544 6.7633 20.72 7.1008C20.7857 7.43829 20.9477 7.7483 21.1857 7.99162C21.4237 8.23495 21.7269 8.40065 22.057 8.46778C22.3871 8.53491 22.7293 8.50046 23.0402 8.36877C23.3512 8.23709 23.617 8.01409 23.804 7.72797C23.9909 7.44186 24.0907 7.10548 24.0907 6.76137C24.0907 6.29994 23.9115 5.8574 23.5923 5.53112C23.2732 5.20484 22.8404 5.02153 22.389 5.02153Z" fill="white"/>
</svg>
