<svg width="64" height="64" viewBox="0 0 64 64" fill="none" xmlns="http://www.w3.org/2000/svg">
<path d="M28.3333 10C26.3473 10 24.418 10.6642 22.8503 11.8877L13.4485 19.2238C12.3747 20.0619 11.5058 21.135 10.9082 22.3612C10.3105 23.5875 9.99988 24.9346 10 26.2997V37.704C10 40.081 10.941 42.3607 12.616 44.0416C13.4454 44.8738 14.43 45.534 15.5136 45.9844C16.5973 46.4348 17.7587 46.6667 18.9316 46.6667H37.735C40.1039 46.6667 42.3757 45.7224 44.0507 44.0416C45.7257 42.3607 46.6667 40.081 46.6667 37.704V26.3015C46.6668 24.9365 46.3562 23.5894 45.7585 22.3631C45.1609 21.1368 44.292 20.0638 43.2181 19.2257L33.8164 11.8877C32.2487 10.6642 30.3193 10 28.3333 10Z" fill="#025BE8"/>
<g filter="url(#filter0_i_623_314)">
<path d="M30.1835 19.2216C31.7512 17.9982 33.6806 17.334 35.6666 17.334C37.6526 17.334 39.5819 17.9982 41.1497 19.2216L50.5514 26.5597C51.6252 27.3977 52.4941 28.4708 53.0918 29.6971C53.6894 30.9234 54 32.2704 53.9999 33.6355V45.038C53.9999 47.415 53.0589 49.6947 51.3839 51.3755C49.7089 53.0564 47.4371 54.0007 45.0683 54.0007H26.2649C25.092 54.0007 23.9305 53.7688 22.8469 53.3184C21.7633 52.868 20.7786 52.2078 19.9493 51.3755C18.2743 49.6947 17.3333 47.415 17.3333 45.038V33.6336C17.3331 32.2686 17.6438 30.9215 18.2414 29.6952C18.8391 28.4689 19.708 27.3958 20.7818 26.5578L30.1835 19.2216Z" fill="#E1EAFF" fill-opacity="0.3"/>
<path d="M30.4295 19.5374C31.927 18.3687 33.7698 17.7344 35.6665 17.7344C37.5632 17.7344 39.4059 18.3687 40.9035 19.5374L50.3052 26.8754C51.331 27.6759 52.1611 28.7011 52.7321 29.8727C53.3031 31.0444 53.5999 32.3315 53.5998 33.6359V45.0384C53.5998 47.3098 52.7006 49.4879 51.1005 51.0936C49.5004 52.6993 47.3305 53.6011 45.0682 53.6011H26.2648C25.1446 53.6011 24.0353 53.3796 23.0003 52.9494C21.9653 52.5192 21.0248 51.8886 20.2325 51.0936C18.6324 49.4879 17.7332 47.3098 17.7332 45.0384V33.634C17.733 32.3296 18.0299 31.0425 18.6009 29.8709C19.1719 28.6992 20.002 27.6741 21.0278 26.8736L30.4295 19.5374Z" stroke="url(#paint0_linear_623_314)" stroke-width="0.8"/>
</g>
<path d="M42 40H30C28.8954 40 28 40.8954 28 42C28 43.1046 28.8954 44 30 44H42C43.1046 44 44 43.1046 44 42C44 40.8954 43.1046 40 42 40Z" fill="white"/>
<defs>
<filter id="filter0_i_623_314" x="17.3333" y="17.334" width="36.6665" height="36.667" filterUnits="userSpaceOnUse" color-interpolation-filters="sRGB">
<feFlood flood-opacity="0" result="BackgroundImageFix"/>
<feBlend mode="normal" in="SourceGraphic" in2="BackgroundImageFix" result="shape"/>
<feColorMatrix in="SourceAlpha" type="matrix" values="0 0 0 0 0 0 0 0 0 0 0 0 0 0 0 0 0 0 127 0" result="hardAlpha"/>
<feOffset/>
<feGaussianBlur stdDeviation="0.916667"/>
<feComposite in2="hardAlpha" operator="arithmetic" k2="-1" k3="1"/>
<feColorMatrix type="matrix" values="0 0 0 0 1 0 0 0 0 1 0 0 0 0 1 0 0 0 0.25 0"/>
<feBlend mode="normal" in2="shape" result="effect1_innerShadow_623_314"/>
</filter>
<linearGradient id="paint0_linear_623_314" x1="22.1158" y1="19.2987" x2="47.7487" y2="49.7196" gradientUnits="userSpaceOnUse">
<stop stop-color="white" stop-opacity="0.97"/>
<stop offset="1" stop-color="#9ABFFF" stop-opacity="0.42"/>
</linearGradient>
</defs>
</svg>
