<svg width="64" height="64" viewBox="0 0 64 64" fill="none" xmlns="http://www.w3.org/2000/svg">
<path d="M39.4773 11.6826C41.5807 11.6826 43.1954 13.2883 44.3917 15.016L44.7968 15.6274L45.1676 16.2369C45.2856 16.435 45.3978 16.6331 45.5062 16.8236C47.0029 19.5036 48.3057 23.0026 49.1673 26.4598C50.0231 29.8902 50.4967 33.4731 50.1943 36.2902C49.89 39.1188 48.435 42.1588 45.1829 42.1588C42.2654 42.1588 39.9661 40.5969 38.0984 39.0712L35.9874 37.2979C34.2319 35.8579 32.3111 34.5398 29.968 34.5398C27.6249 34.5398 25.7021 35.8579 23.9505 37.2979L21.8394 39.0693C19.968 40.5969 17.6686 42.1588 14.7531 42.1588C11.499 42.1588 10.0441 39.1188 9.74168 36.2902C9.44118 33.4712 9.91284 29.8902 10.7687 26.4579C11.6302 23.0026 12.933 19.5055 14.4298 16.8236L14.7683 16.235L15.1392 15.6274L15.5443 15.016C16.7405 13.2883 18.3552 11.6826 20.4587 11.6826C21.4286 11.6826 22.3929 11.9188 23.34 12.1969L24.4678 12.5436C24.6542 12.6007 24.8386 12.656 25.0231 12.7074C26.6682 13.1798 28.3514 13.5874 29.968 13.5874C31.5845 13.5874 33.2677 13.1798 34.9128 12.7074L36.596 12.1988C37.5431 11.9188 38.5073 11.6826 39.4773 11.6826Z" fill="#A0A8C2"/>
<g filter="url(#filter0_bi_265_5772)">
<path d="M43.5408 19.8096C45.6442 19.8096 47.2589 21.4153 48.4552 23.1429L48.8603 23.7543L49.2311 24.3639C49.349 24.562 49.4612 24.76 49.5697 24.9505C51.0664 27.6305 52.3692 31.1296 53.2307 34.5867C54.0866 38.0172 54.5601 41.6 54.2577 44.4172C53.9534 47.2458 52.4985 50.2858 49.2463 50.2858C46.3289 50.2858 44.0295 48.7239 42.1619 47.1981L40.0508 45.4248C38.2954 43.9848 36.3745 42.6667 34.0314 42.6667C31.6884 42.6667 29.7656 43.9848 28.014 45.4248L25.9029 47.1962C24.0315 48.7239 21.7321 50.2858 18.8166 50.2858C15.5625 50.2858 14.1075 47.2458 13.8052 44.4172C13.5047 41.5981 13.9763 38.0172 14.8322 34.5848C15.6937 31.1296 16.9965 27.6324 18.4932 24.9505L18.8318 24.362L19.2026 23.7543L19.6077 23.1429C20.804 21.4153 22.4187 19.8096 24.5221 19.8096C25.4921 19.8096 26.4563 20.0458 27.4035 20.3239L28.5313 20.6705C28.7176 20.7277 28.9021 20.7829 29.0866 20.8343C30.7317 21.3067 32.4149 21.7143 34.0314 21.7143C35.648 21.7143 37.3312 21.3067 38.9763 20.8343L40.6594 20.3258C41.6066 20.0458 42.5708 19.8096 43.5408 19.8096Z" fill="white" fill-opacity="0.3"/>
<path d="M53.0367 34.6351L53.0367 34.6351C53.89 38.0554 54.3577 41.6122 54.0589 44.3958C53.9091 45.788 53.4771 47.2181 52.6956 48.2947C51.9193 49.3643 50.7993 50.0858 49.2463 50.0858C46.4033 50.0858 44.1512 48.5649 42.2895 47.0441C42.2892 47.0438 42.2888 47.0436 42.2884 47.0433L40.1795 45.2717L40.1795 45.2717L40.1777 45.2702C38.4203 43.8286 36.451 42.4667 34.0314 42.4667C31.6119 42.4667 29.6408 43.8285 27.8869 45.2703L27.8854 45.2716L25.7764 47.0413C25.776 47.0416 25.7757 47.0419 25.7753 47.0422C23.9097 48.5649 21.6577 50.0858 18.8166 50.0858C17.2626 50.0858 16.1422 49.3642 15.3658 48.2947C14.5844 47.2182 14.1529 45.7881 14.004 44.396C13.7071 41.6102 14.173 38.0552 15.0262 34.6332C15.8844 31.1914 17.1813 27.7121 18.6673 25.0491L19.0038 24.4639L19.3714 23.8617L19.7733 23.2551C20.9647 21.535 22.5266 20.0096 24.5221 20.0096C25.4615 20.0096 26.4023 20.2384 27.3459 20.5154L28.4725 20.8617L28.4726 20.8617C28.6595 20.919 28.8456 20.9748 29.0322 21.0268C30.679 21.4996 32.385 21.9143 34.0314 21.9143C35.6781 21.9143 37.3844 21.4995 39.0315 21.0266L39.0315 21.0266L39.0341 21.0258L40.7161 20.5176C40.7163 20.5175 40.7165 20.5175 40.7166 20.5174C41.6602 20.2385 42.6012 20.0096 43.5408 20.0096C45.5363 20.0096 47.0982 21.535 48.2895 23.255C48.2899 23.2556 48.2903 23.2562 48.2907 23.2568L48.6914 23.8615L49.0593 24.4662C49.0594 24.4664 49.0596 24.4667 49.0597 24.467C49.1664 24.6462 49.2684 24.8255 49.3683 25.001L49.395 25.048C49.3952 25.0483 49.3953 25.0485 49.3954 25.0487C50.8815 27.7097 52.1784 31.1911 53.0367 34.6351Z" stroke="url(#paint0_linear_265_5772)" stroke-width="0.4"/>
</g>
<path d="M47.2381 30.9841H45.2063V28.9524C45.2063 28.683 45.0993 28.4246 44.9088 28.2341C44.7183 28.0436 44.4599 27.9365 44.1904 27.9365C43.921 27.9365 43.6626 28.0436 43.4721 28.2341C43.2816 28.4246 43.1746 28.683 43.1746 28.9524L43.2106 30.9841H41.1428C40.8734 30.9841 40.615 31.0912 40.4245 31.2817C40.234 31.4722 40.127 31.7306 40.127 32C40.127 32.2694 40.234 32.5278 40.4245 32.7183C40.615 32.9089 40.8734 33.0159 41.1428 33.0159L43.2106 32.9798L43.1746 35.0476C43.1746 35.3171 43.2816 35.5755 43.4721 35.766C43.6626 35.9565 43.921 36.0635 44.1904 36.0635C44.4599 36.0635 44.7183 35.9565 44.9088 35.766C45.0993 35.5755 45.2063 35.3171 45.2063 35.0476V32.9798L47.2381 33.0159C47.5075 33.0159 47.7659 32.9089 47.9564 32.7183C48.1469 32.5278 48.2539 32.2694 48.2539 32C48.2539 31.7306 48.1469 31.4722 47.9564 31.2817C47.7659 31.0912 47.5075 30.9841 47.2381 30.9841Z" fill="white"/>
<circle cx="23.8731" cy="32" r="3.04762" stroke="white" stroke-width="2.03175"/>
<defs>
<filter id="filter0_bi_265_5772" x="8.67266" y="14.7679" width="50.7181" height="40.5595" filterUnits="userSpaceOnUse" color-interpolation-filters="sRGB">
<feFlood flood-opacity="0" result="BackgroundImageFix"/>
<feGaussianBlur in="BackgroundImageFix" stdDeviation="2.52085"/>
<feComposite in2="SourceAlpha" operator="in" result="effect1_backgroundBlur_265_5772"/>
<feBlend mode="normal" in="SourceGraphic" in2="effect1_backgroundBlur_265_5772" result="shape"/>
<feColorMatrix in="SourceAlpha" type="matrix" values="0 0 0 0 0 0 0 0 0 0 0 0 0 0 0 0 0 0 127 0" result="hardAlpha"/>
<feOffset/>
<feGaussianBlur stdDeviation="0.420141"/>
<feComposite in2="hardAlpha" operator="arithmetic" k2="-1" k3="1"/>
<feColorMatrix type="matrix" values="0 0 0 0 1 0 0 0 0 1 0 0 0 0 1 0 0 0 0.25 0"/>
<feBlend mode="normal" in2="shape" result="effect2_innerShadow_265_5772"/>
</filter>
<linearGradient id="paint0_linear_265_5772" x1="19.0146" y1="21.4422" x2="38.5405" y2="52.3397" gradientUnits="userSpaceOnUse">
<stop stop-color="white" stop-opacity="0.97"/>
<stop offset="1" stop-color="#3C5BFF" stop-opacity="0.42"/>
</linearGradient>
</defs>
</svg>
