<svg width="64" height="64" viewBox="0 0 64 64" fill="none" xmlns="http://www.w3.org/2000/svg">
<path d="M27.9366 46.2228C38.0355 46.2228 46.2223 38.036 46.2223 27.9371C46.2223 17.8382 38.0355 9.65137 27.9366 9.65137C17.8377 9.65137 9.65088 17.8382 9.65088 27.9371C9.65088 38.036 17.8377 46.2228 27.9366 46.2228Z" fill="#025BE8"/>
<g filter="url(#filter0_i_623_349)">
<path d="M36.0635 54.3487C46.1624 54.3487 54.3492 46.162 54.3492 36.063C54.3492 25.9641 46.1624 17.7773 36.0635 17.7773C25.9646 17.7773 17.7778 25.9641 17.7778 36.063C17.7778 46.162 25.9646 54.3487 36.0635 54.3487Z" fill="white" fill-opacity="0.3"/>
<path d="M36.0635 54.1489C46.0519 54.1489 54.1492 46.0517 54.1492 36.0632C54.1492 26.0748 46.0519 17.9775 36.0635 17.9775C26.075 17.9775 17.9778 26.0748 17.9778 36.0632C17.9778 46.0517 26.075 54.1489 36.0635 54.1489Z" stroke="url(#paint0_linear_623_349)" stroke-width="0.4"/>
</g>
<path d="M36.0635 25.9053V46.2227" stroke="white" stroke-width="2.03175" stroke-linecap="round"/>
<path d="M44.1904 27.9365C41.124 30.5029 36.8311 37.3467 44.1904 44.1905" stroke="white" stroke-width="2.03175" stroke-linecap="round"/>
<path d="M27.9365 27.9365C31.0029 30.5029 35.2959 37.3467 27.9365 44.1905" stroke="white" stroke-width="2.03175" stroke-linecap="round"/>
<defs>
<filter id="filter0_i_623_349" x="17.7778" y="17.7773" width="36.5713" height="36.5713" filterUnits="userSpaceOnUse" color-interpolation-filters="sRGB">
<feFlood flood-opacity="0" result="BackgroundImageFix"/>
<feBlend mode="normal" in="SourceGraphic" in2="BackgroundImageFix" result="shape"/>
<feColorMatrix in="SourceAlpha" type="matrix" values="0 0 0 0 0 0 0 0 0 0 0 0 0 0 0 0 0 0 127 0" result="hardAlpha"/>
<feOffset/>
<feGaussianBlur stdDeviation="0.420141"/>
<feComposite in2="hardAlpha" operator="arithmetic" k2="-1" k3="1"/>
<feColorMatrix type="matrix" values="0 0 0 0 1 0 0 0 0 1 0 0 0 0 1 0 0 0 0.25 0"/>
<feBlend mode="normal" in2="shape" result="effect1_innerShadow_623_349"/>
</filter>
<linearGradient id="paint0_linear_623_349" x1="22.548" y1="19.7367" x2="48.1144" y2="50.0786" gradientUnits="userSpaceOnUse">
<stop stop-color="white" stop-opacity="0.97"/>
<stop offset="1" stop-color="#3C5BFF" stop-opacity="0.42"/>
</linearGradient>
</defs>
</svg>
