<svg width="24" height="24" viewBox="0 0 24 24" fill="none" xmlns="http://www.w3.org/2000/svg">
<path d="M12 0.75C5.79 0.75 0.75 5.79 0.75 12C0.75 18.21 5.79 23.25 12 23.25C18.21 23.25 23.25 18.21 23.25 12C23.25 5.79 18.21 0.75 12 0.75ZM12 5.25C14.1713 5.25 15.9375 7.01625 15.9375 9.1875C15.9375 11.3588 14.1713 13.125 12 13.125C9.82875 13.125 8.0625 11.3588 8.0625 9.1875C8.0625 7.01625 9.82875 5.25 12 5.25ZM12 21C9.71625 21 7.01625 20.0775 5.0925 17.76C7.06306 16.2139 9.49532 15.3737 12 15.3737C14.5047 15.3737 16.9369 16.2139 18.9075 17.76C16.9837 20.0775 14.2837 21 12 21Z" fill="#6288D2"/>
</svg>
