<svg width="30" height="30" viewBox="0 0 30 30" fill="none" xmlns="http://www.w3.org/2000/svg">
<g id="mingcute:chess-fill">
<g id="Group">
<path id="Vector" fill-rule="evenodd" clip-rule="evenodd" d="M8.74997 2.5H12.5C15.2775 2.5 19.6962 3.885 21.1862 8.355C21.8675 10.4 21.5887 12.1637 21.3062 13.9563C21.2812 14.1062 21.2575 14.2571 21.235 14.4088C20.9637 16.1763 20.6975 18.2563 21.0787 21.25H22.5C22.8315 21.25 23.1494 21.3817 23.3839 21.6161C23.6183 21.8505 23.75 22.1685 23.75 22.5V26.25C23.75 26.5815 23.6183 26.8995 23.3839 27.1339C23.1494 27.3683 22.8315 27.5 22.5 27.5H7.49997C7.16845 27.5 6.8505 27.3683 6.61608 27.1339C6.38166 26.8995 6.24997 26.5815 6.24997 26.25V22.5C6.24997 22.1685 6.38166 21.8505 6.61608 21.6161C6.8505 21.3817 7.16845 21.25 7.49997 21.25H8.88247C9.17247 19.82 10.0075 17.8525 12.0875 15.805C12.315 15.58 12.45 15.3212 12.5062 15.065C11.1852 15.8911 9.80428 16.6173 8.37497 17.2375C8.03322 17.3857 7.65469 17.4273 7.28892 17.3568C6.92316 17.2863 6.58718 17.1071 6.32497 16.8425L4.47872 14.9963C4.17201 14.6898 3.98098 14.2866 3.93814 13.8551C3.89529 13.4237 4.00328 12.9908 4.24372 12.63L8.55747 6.16L7.63247 4.31C7.53697 4.11943 7.4918 3.9076 7.50123 3.69465C7.51067 3.4817 7.57441 3.2747 7.68639 3.09332C7.79838 2.91195 7.95488 2.76222 8.14104 2.65837C8.32719 2.55452 8.53681 2.50001 8.74997 2.5ZM11.25 11.25C11.5815 11.25 11.8994 11.1183 12.1338 10.8839C12.3683 10.6495 12.5 10.3315 12.5 10C12.5 9.66848 12.3683 9.35054 12.1338 9.11612C11.8994 8.8817 11.5815 8.75 11.25 8.75C10.9184 8.75 10.6005 8.8817 10.3661 9.11612C10.1317 9.35054 9.99997 9.66848 9.99997 10C9.99997 10.3315 10.1317 10.6495 10.3661 10.8839C10.6005 11.1183 10.9184 11.25 11.25 11.25Z" fill="#6288D2"/>
</g>
</g>
</svg>
