<svg width="23" height="24" viewBox="0 0 23 24" fill="none" xmlns="http://www.w3.org/2000/svg">
<path d="M5.875 19.5C6.39583 19.5 6.83875 19.3179 7.20375 18.9538C7.56875 18.5896 7.75083 18.1467 7.75 17.625C7.75 17.1042 7.56792 16.6617 7.20375 16.2975C6.83958 15.9333 6.39667 15.7508 5.875 15.75C5.35417 15.75 4.91167 15.9325 4.5475 16.2975C4.18333 16.6625 4.00083 17.105 4 17.625C4 18.1458 4.1825 18.5888 4.5475 18.9538C4.9125 19.3188 5.355 19.5008 5.875 19.5ZM5.875 8.25C6.39583 8.25 6.83875 8.06792 7.20375 7.70375C7.56875 7.33958 7.75083 6.89667 7.75 6.375C7.75 5.85417 7.56792 5.41167 7.20375 5.0475C6.83958 4.68333 6.39667 4.50083 5.875 4.5C5.35417 4.5 4.91167 4.6825 4.5475 5.0475C4.18333 5.4125 4.00083 5.855 4 6.375C4 6.89583 4.1825 7.33875 4.5475 7.70375C4.9125 8.06875 5.355 8.25083 5.875 8.25ZM11.5 13.875C12.0208 13.875 12.4638 13.6929 12.8288 13.3288C13.1938 12.9646 13.3758 12.5217 13.375 12C13.375 11.4792 13.1929 11.0367 12.8288 10.6725C12.4646 10.3083 12.0217 10.1258 11.5 10.125C10.9792 10.125 10.5367 10.3075 10.1725 10.6725C9.80833 11.0375 9.62583 11.48 9.625 12C9.625 12.5208 9.8075 12.9638 10.1725 13.3288C10.5375 13.6938 10.98 13.8758 11.5 13.875ZM17.125 19.5C17.6458 19.5 18.0888 19.3179 18.4538 18.9538C18.8188 18.5896 19.0008 18.1467 19 17.625C19 17.1042 18.8179 16.6617 18.4538 16.2975C18.0896 15.9333 17.6467 15.7508 17.125 15.75C16.6042 15.75 16.1617 15.9325 15.7975 16.2975C15.4333 16.6625 15.2508 17.105 15.25 17.625C15.25 18.1458 15.4325 18.5888 15.7975 18.9538C16.1625 19.3188 16.605 19.5008 17.125 19.5ZM17.125 8.25C17.6458 8.25 18.0888 8.06792 18.4538 7.70375C18.8188 7.33958 19.0008 6.89667 19 6.375C19 5.85417 18.8179 5.41167 18.4538 5.0475C18.0896 4.68333 17.6467 4.50083 17.125 4.5C16.6042 4.5 16.1617 4.6825 15.7975 5.0475C15.4333 5.4125 15.2508 5.855 15.25 6.375C15.25 6.89583 15.4325 7.33875 15.7975 7.70375C16.1625 8.06875 16.605 8.25083 17.125 8.25ZM2.75 23.25C2.0625 23.25 1.47417 23.0054 0.985 22.5163C0.495833 22.0271 0.250833 21.4383 0.25 20.75V3.25C0.25 2.5625 0.495 1.97417 0.985 1.485C1.475 0.995833 2.06333 0.750833 2.75 0.75H20.25C20.9375 0.75 21.5263 0.995 22.0163 1.485C22.5063 1.975 22.7508 2.56333 22.75 3.25V20.75C22.75 21.4375 22.5054 22.0263 22.0163 22.5163C21.5271 23.0063 20.9383 23.2508 20.25 23.25H2.75Z" fill="#6288D2"/>
</svg>
