<svg width="24" height="29" viewBox="0 0 24 29" fill="none" xmlns="http://www.w3.org/2000/svg">
<g id="Frame" clip-path="url(#clip0_569_1447)">
<path id="Vector" fill-rule="evenodd" clip-rule="evenodd" d="M23.5001 16.6569C22.9253 13.8898 20.6259 12.0198 20.6259 12.0198C15.3089 7.83127 10.9976 9.70122 7.69244 13.4411C5.10584 16.4331 3.09399 20.6216 1.58521 23.9871C1.58521 23.9871 6.03987 28.849 12.0754 28.9982C14.8775 29.0729 16.1708 26.9786 16.8177 24.5103C8.05212 24.3607 15.9557 12.3187 23.5001 16.6569ZM16.0278 11.7204C16.6026 11.7204 17.1056 12.2441 17.1056 12.917C17.1056 13.5153 16.6026 14.039 16.0278 14.039C15.381 14.039 14.95 13.5153 14.95 12.917C14.95 12.2441 15.381 11.7204 16.0278 11.7204Z" fill="#6288D2"/>
<path id="Vector_2" fill-rule="evenodd" clip-rule="evenodd" d="M6.54317 12.0944C10.0638 8.35447 14.6623 6.55957 20.4823 10.673C20.4823 10.673 21.4884 1.62305 17.1772 0.201716C12.7942 -1.2192 15.4529 5.36254 12.8659 4.24057C10.2793 3.04396 7.90816 0.0524584 6.25559 2.29598C4.53132 4.61456 8.41123 6.18557 7.18962 6.93313C5.96801 7.60649 -0.570194 7.4568 0.651009 10.0747C1.65714 12.2441 5.32156 12.169 6.54317 12.0944Z" fill="#6288D2"/>
<path id="Vector_3" fill-rule="evenodd" clip-rule="evenodd" d="M20.1232 17.8537C20.0515 17.6293 19.9794 17.405 19.9794 17.1803C19.117 13.9641 11.1417 24.2857 19.9077 24.4354C20.4824 24.51 21.201 24.4354 21.9912 24.3608C24.434 24.0618 20.9134 20.5462 20.1232 17.8537Z" fill="#6288D2"/>
</g>
<defs>
<clipPath id="clip0_569_1447">
<rect width="23" height="29" fill="white" transform="translate(0.5)"/>
</clipPath>
</defs>
</svg>
