<svg width="16" height="16" viewBox="0 0 16 16" fill="none" xmlns="http://www.w3.org/2000/svg">
<g id="solar:dialog-2-bold">
<path id="Vector" fill-rule="evenodd" clip-rule="evenodd" d="M7.03265 14.352L7.19931 14.07C7.46598 13.6187 7.59931 13.3933 7.81265 13.2673C8.02598 13.1413 8.30331 13.1327 8.85798 13.1147C9.37865 13.098 9.72865 13.0527 10.028 12.9287C10.6576 12.6678 11.1578 12.1676 11.4186 11.538C11.6146 11.0653 11.6146 10.4667 11.6146 9.26933V8.75467C11.6146 7.072 11.6146 6.23067 11.236 5.61267C11.024 5.26676 10.7332 4.97594 10.3873 4.764C9.76931 4.38533 8.92731 4.38533 7.24531 4.38533H5.70265C4.01998 4.38533 3.17865 4.38533 2.56065 4.764C2.21467 4.97613 1.92384 5.26719 1.71198 5.61333C1.33331 6.23067 1.33331 7.07333 1.33331 8.75467V9.26867C1.33331 10.4667 1.33331 11.0653 1.52865 11.538C1.65788 11.8498 1.84726 12.1331 2.08599 12.3717C2.32472 12.6103 2.60811 12.7996 2.91998 12.9287C3.21931 13.0527 3.56865 13.098 4.08931 13.1153C4.64465 13.1327 4.92265 13.1413 5.13531 13.2673C5.34798 13.3933 5.48198 13.6187 5.74865 14.07L5.91531 14.352C5.97354 14.448 6.05554 14.5274 6.1534 14.5825C6.25126 14.6377 6.36167 14.6666 6.47398 14.6666C6.58629 14.6666 6.6967 14.6377 6.79456 14.5825C6.89242 14.5274 6.97442 14.448 7.03265 14.352ZM8.72265 9.526C8.89309 9.526 9.05656 9.45829 9.17708 9.33777C9.2976 9.21724 9.36531 9.05378 9.36531 8.88333C9.36531 8.71289 9.2976 8.54942 9.17708 8.4289C9.05656 8.30838 8.89309 8.24067 8.72265 8.24067C8.5522 8.24067 8.38874 8.30838 8.26821 8.4289C8.14769 8.54942 8.07998 8.71289 8.07998 8.88333C8.07998 9.05378 8.14769 9.21724 8.26821 9.33777C8.38874 9.45829 8.5522 9.526 8.72265 9.526ZM7.11598 8.88333C7.11875 8.96943 7.10419 9.0552 7.07316 9.13555C7.04213 9.21591 6.99526 9.2892 6.93534 9.35109C6.87542 9.41297 6.80367 9.46217 6.72436 9.49578C6.64504 9.52938 6.55978 9.5467 6.47365 9.5467C6.38751 9.5467 6.30225 9.52938 6.22294 9.49578C6.14362 9.46217 6.07187 9.41297 6.01195 9.35109C5.95203 9.2892 5.90516 9.21591 5.87413 9.13555C5.8431 9.0552 5.82854 8.96943 5.83131 8.88333C5.83131 8.71289 5.89902 8.54942 6.01955 8.4289C6.14007 8.30838 6.30353 8.24067 6.47398 8.24067C6.64443 8.24067 6.80789 8.30838 6.92841 8.4289C7.04894 8.54942 7.11665 8.71289 7.11665 8.88333M4.22531 9.526C4.39576 9.526 4.55922 9.45829 4.67975 9.33777C4.80027 9.21724 4.86798 9.05378 4.86798 8.88333C4.86798 8.71289 4.80027 8.54942 4.67975 8.4289C4.55922 8.30838 4.39576 8.24067 4.22531 8.24067C4.05487 8.24067 3.8914 8.30838 3.77088 8.4289C3.65036 8.54942 3.58265 8.71289 3.58265 8.88333C3.58265 9.05378 3.65036 9.21724 3.77088 9.33777C3.8914 9.45829 4.05487 9.526 4.22531 9.526Z" fill="#141414" fill-opacity="0.4"/>
<path id="Vector_2" d="M10.1134 1.33333C10.8807 1.33333 11.4914 1.33333 11.9814 1.38C12.4834 1.42733 12.908 1.528 13.286 1.76C13.6747 1.99813 14.0016 2.32479 14.24 2.71333C14.472 3.09133 14.572 3.516 14.62 4.018C14.6667 4.50867 14.6667 5.11867 14.6667 5.88667V6.41133C14.6667 6.958 14.6667 7.39267 14.6427 7.74467C14.618 8.10533 14.5667 8.41533 14.4467 8.70467C14.2977 9.06453 14.0775 9.39057 13.7993 9.66323C13.5212 9.93588 13.1908 10.1495 12.828 10.2913C12.7544 10.32 12.6801 10.3471 12.6054 10.3727C12.6147 10.06 12.6147 9.704 12.6147 9.30267V8.70733C12.6147 7.90667 12.6147 7.23533 12.5627 6.69C12.508 6.11867 12.39 5.58333 12.088 5.09C11.7937 4.60961 11.3898 4.20571 10.9094 3.91133C10.4174 3.61 9.88136 3.49133 9.30936 3.43733C8.76469 3.38533 8.09336 3.38533 7.29203 3.38533H5.65536C5.11136 3.38533 4.62736 3.38533 4.20203 3.40133C4.22203 3.33267 4.24869 3.25467 4.28069 3.16133C4.33387 3.0051 4.40431 2.85529 4.49069 2.71467C4.72885 2.3254 5.05576 1.99803 5.44469 1.75933C5.82336 1.528 6.24803 1.42733 6.75003 1.37933C7.23936 1.33333 7.85003 1.33333 8.61803 1.33333H10.1134Z" fill="#141414" fill-opacity="0.4"/>
</g>
</svg>
