<svg width="16" height="16" viewBox="0 0 16 16" fill="none" xmlns="http://www.w3.org/2000/svg">
<g id="mingcute:download-fill" clip-path="url(#clip0_274_4712)">
<g id="Group">
<path id="Vector" fill-rule="evenodd" clip-rule="evenodd" d="M8 1.33334C7.82319 1.33334 7.65362 1.40357 7.5286 1.5286C7.40357 1.65362 7.33333 1.82319 7.33333 2V3.33334H3.33333C2.97971 3.33334 2.64057 3.47381 2.39052 3.72386C2.14048 3.97391 2 4.31305 2 4.66667V13.3333C2 13.687 2.14048 14.0261 2.39052 14.2761C2.64057 14.5262 2.97971 14.6667 3.33333 14.6667H12.6667C13.0203 14.6667 13.3594 14.5262 13.6095 14.2761C13.8595 14.0261 14 13.687 14 13.3333V4.66667C14 4.31305 13.8595 3.97391 13.6095 3.72386C13.3594 3.47381 13.0203 3.33334 12.6667 3.33334H8.66667V2C8.66667 1.82319 8.59643 1.65362 8.4714 1.5286C8.34638 1.40357 8.17681 1.33334 8 1.33334ZM8.66667 3.33334V9.21867L9.88533 8C10.0103 7.87491 10.1799 7.8046 10.3568 7.80453C10.5336 7.80447 10.7032 7.87466 10.8283 7.99967C10.9534 8.12467 11.0237 8.29425 11.0238 8.4711C11.0239 8.64795 10.9537 8.81758 10.8287 8.94267L8.58867 11.182C8.43241 11.3381 8.22056 11.4258 7.99967 11.4258C7.77878 11.4258 7.56693 11.3381 7.41067 11.182L5.17133 8.94267C5.10944 8.88073 5.06035 8.8072 5.02687 8.72629C4.99338 8.64538 4.97617 8.55867 4.9762 8.4711C4.97623 8.38353 4.99351 8.29683 5.02705 8.21594C5.06058 8.13506 5.10973 8.06157 5.17167 7.99967C5.23361 7.93777 5.30713 7.88868 5.38804 7.8552C5.46896 7.82172 5.55567 7.8045 5.64324 7.80453C5.7308 7.80457 5.8175 7.82184 5.89839 7.85538C5.97928 7.88892 6.05277 7.93806 6.11467 8L7.33333 9.21867V3.33334H8.66667Z" fill="#141414" fill-opacity="0.4"/>
</g>
</g>
<defs>
<clipPath id="clip0_274_4712">
<rect width="16" height="16" fill="white"/>
</clipPath>
</defs>
</svg>
