<svg width="29" height="22" viewBox="0 0 29 22" fill="none" xmlns="http://www.w3.org/2000/svg">
<path d="M27.8083 10.3778C26.5656 4.75925 24.6952 1.76042 21.9208 0.941278C21.3376 0.770213 20.7327 0.684751 20.1249 0.687567C19.3216 0.687567 18.622 0.88327 17.882 1.09069C16.9902 1.34089 15.9771 1.62507 14.4999 1.62507C13.0228 1.62507 12.0091 1.34147 11.1156 1.09128C10.3749 0.883271 9.67591 0.687567 8.87494 0.687567C8.24647 0.685388 7.62076 0.770578 7.01576 0.940692C4.25599 1.75632 2.38685 4.75397 1.12591 10.3743C-0.229946 16.4223 0.437437 20.2409 2.9974 21.1268C3.3483 21.2505 3.71752 21.3143 4.08959 21.3155C5.8433 21.3155 7.24955 19.8548 8.21048 18.6589C9.29623 17.3053 10.5671 16.6186 14.4999 16.6186C18.0126 16.6186 19.4663 17.095 20.722 18.6589C21.5113 19.6421 22.2572 20.33 23.0013 20.763C23.991 21.3383 24.98 21.4661 25.9404 21.1362C27.4533 20.62 28.3204 19.2553 28.5185 17.0792C28.6691 15.4104 28.437 13.2184 27.8083 10.3778ZM11.6874 10.0626H9.81244V11.9376C9.81244 12.1862 9.71366 12.4247 9.53785 12.6005C9.36203 12.7763 9.12358 12.8751 8.87494 12.8751C8.6263 12.8751 8.38784 12.7763 8.21202 12.6005C8.03621 12.4247 7.93744 12.1862 7.93744 11.9376V10.0626H6.06244C5.8138 10.0626 5.57534 9.96379 5.39952 9.78798C5.22371 9.61216 5.12494 9.37371 5.12494 9.12507C5.12494 8.87643 5.22371 8.63797 5.39952 8.46215C5.57534 8.28634 5.8138 8.18757 6.06244 8.18757H7.93744V6.31257C7.93744 6.06393 8.03621 5.82547 8.21202 5.64965C8.38784 5.47384 8.6263 5.37507 8.87494 5.37507C9.12358 5.37507 9.36203 5.47384 9.53785 5.64965C9.71366 5.82547 9.81244 6.06393 9.81244 6.31257V8.18757H11.6874C11.9361 8.18757 12.1745 8.28634 12.3503 8.46215C12.5262 8.63797 12.6249 8.87643 12.6249 9.12507C12.6249 9.37371 12.5262 9.61216 12.3503 9.78798C12.1745 9.96379 11.9361 10.0626 11.6874 10.0626ZM16.6093 10.2969C16.3775 10.2969 16.151 10.2282 15.9583 10.0994C15.7655 9.97068 15.6153 9.78766 15.5266 9.57352C15.4379 9.35939 15.4147 9.12377 15.46 8.89645C15.5052 8.66912 15.6168 8.46032 15.7807 8.29643C15.9446 8.13254 16.1534 8.02093 16.3807 7.97571C16.608 7.93049 16.8436 7.9537 17.0578 8.0424C17.2719 8.13109 17.4549 8.28129 17.5837 8.47401C17.7125 8.66672 17.7812 8.89329 17.7812 9.12507C17.7812 9.43587 17.6577 9.73394 17.438 9.95371C17.2182 10.1735 16.9201 10.2969 16.6093 10.2969ZM19.1874 12.8751C18.9555 12.8751 18.7289 12.8063 18.5361 12.6774C18.3433 12.5485 18.1931 12.3653 18.1045 12.151C18.0159 11.9367 17.9928 11.7009 18.0383 11.4735C18.0838 11.2461 18.1957 11.0373 18.3598 10.8735C18.524 10.7097 18.7331 10.5984 18.9606 10.5535C19.1881 10.5086 19.4238 10.5322 19.6379 10.6214C19.852 10.7105 20.0348 10.8612 20.1632 11.0543C20.2917 11.2474 20.3599 11.4742 20.3593 11.7061C20.3585 12.0164 20.2347 12.3137 20.015 12.5329C19.7954 12.752 19.4977 12.8751 19.1874 12.8751ZM19.1874 7.71882C18.9557 7.71882 18.7291 7.65009 18.5364 7.52132C18.3437 7.39255 18.1935 7.20953 18.1048 6.9954C18.0161 6.78127 17.9929 6.54564 18.0381 6.31832C18.0833 6.091 18.1949 5.88219 18.3588 5.7183C18.5227 5.55441 18.7315 5.4428 18.9588 5.39758C19.1861 5.35237 19.4218 5.37558 19.6359 5.46427C19.85 5.55297 20.033 5.70317 20.1618 5.89588C20.2906 6.0886 20.3593 6.31517 20.3593 6.54694C20.3593 6.85774 20.2358 7.15581 20.0161 7.37558C19.7963 7.59535 19.4982 7.71882 19.1874 7.71882ZM21.7656 10.2969C21.5338 10.2969 21.3072 10.2282 21.1145 10.0994C20.9218 9.97068 20.7716 9.78766 20.6829 9.57352C20.5942 9.35939 20.571 9.12377 20.6162 8.89645C20.6614 8.66912 20.773 8.46032 20.9369 8.29643C21.1008 8.13254 21.3096 8.02093 21.5369 7.97571C21.7643 7.93049 21.9999 7.9537 22.214 8.0424C22.4282 8.13109 22.6112 8.28129 22.7399 8.47401C22.8687 8.66672 22.9374 8.89329 22.9374 9.12507C22.9374 9.43587 22.814 9.73394 22.5942 9.95371C22.3744 10.1735 22.0764 10.2969 21.7656 10.2969Z" fill="#6288D2"/>
</svg>
