<svg width="30" height="28" viewBox="0 0 30 28" fill="none" xmlns="http://www.w3.org/2000/svg">
<path d="M14.3332 1.25C13.7812 0.78125 13.0312 0.751953 12.4426 1.16211C11.8541 1.57227 11.5624 2.35742 11.6978 3.11914L12.203 5.9668C11.1926 6.49414 10.2812 7.13281 9.47386 7.8125C8.67699 8.48633 7.96345 9.21289 7.35407 9.93945L2.50511 6.75781C1.85407 6.33008 1.02595 6.44727 0.494698 7.04492C-0.0365522 7.64258 -0.156344 8.56836 0.218656 9.30664L2.60407 14L0.218656 18.6934C-0.156344 19.4316 -0.0417606 20.3574 0.494698 20.9551C1.03116 21.5527 1.85407 21.6699 2.50511 21.2422L7.35407 18.0605C7.96866 18.7812 8.67699 19.5137 9.47386 20.1875C10.2812 20.8672 11.1926 21.5059 12.203 22.0332L11.6978 24.8809C11.5624 25.6426 11.8593 26.4219 12.4426 26.832C13.0259 27.2422 13.776 27.2129 14.3332 26.7441L18.3749 23.334C21.2343 23.0996 23.6614 21.752 25.5207 20.1816C27.5624 18.459 29.0207 16.3906 29.7707 14.9375C30.0728 14.3574 30.0728 13.6367 29.7707 13.0566C29.0207 11.6035 27.5572 9.53516 25.5207 7.8125C23.6562 6.24219 21.2343 4.89453 18.3749 4.66016L14.3332 1.25ZM19.9999 14C19.9999 13.5027 20.1755 13.0258 20.4881 12.6742C20.8006 12.3225 21.2245 12.125 21.6666 12.125C22.1086 12.125 22.5325 12.3225 22.8451 12.6742C23.1576 13.0258 23.3332 13.5027 23.3332 14C23.3332 14.4973 23.1576 14.9742 22.8451 15.3258C22.5325 15.6775 22.1086 15.875 21.6666 15.875C21.2245 15.875 20.8006 15.6775 20.4881 15.3258C20.1755 14.9742 19.9999 14.4973 19.9999 14Z" fill="#6288D2"/>
</svg>
