<svg width="24" height="24" viewBox="0 0 24 24" fill="none" xmlns="http://www.w3.org/2000/svg">
<g id="Group">
<path id="Vector" d="M13.9863 18.308C14.755 18.308 15.1611 19.218 14.6483 19.7903C14.3152 20.1631 13.9071 20.4612 13.4507 20.6652C12.9943 20.8692 12.4999 20.9745 12 20.9741C11.5001 20.9745 11.0057 20.8692 10.5493 20.6652C10.0929 20.4612 9.68479 20.1631 9.35168 19.7903C8.86112 19.2429 9.21127 18.3871 9.91512 18.3142L10.0129 18.3088L13.9863 18.308ZM12 3.20001C13.2069 3.20001 14.2271 4.00251 14.555 5.10272L14.5959 5.25469L14.603 5.29291C15.5827 5.84559 16.4176 6.6225 17.0392 7.55999C17.6607 8.49748 18.0514 9.56888 18.1792 10.6864L18.2041 10.9415L18.2209 11.1983V13.8031L18.2396 13.924C18.3613 14.5788 18.7236 15.1644 19.2554 15.5654L19.4038 15.6694L19.5478 15.7574C20.3121 16.1902 20.0454 17.3268 19.2127 17.4139L19.1096 17.4193H4.89039C3.97681 17.4193 3.65776 16.2071 4.45226 15.7574C4.79088 15.5658 5.08346 15.3023 5.30945 14.9856C5.53544 14.6689 5.68937 14.3065 5.76043 13.924L5.77909 13.7969L5.77998 11.1575C5.83417 9.9967 6.17204 8.86692 6.76403 7.86701C7.35602 6.86709 8.18407 6.02751 9.17572 5.42177L9.39612 5.29202L9.405 5.2538C9.53071 4.72238 9.81642 4.24232 10.2236 3.87839C10.6307 3.51447 11.1397 3.2842 11.6819 3.21867L11.8436 3.20357L12 3.20001Z" fill="#141414" fill-opacity="0.4"/>
</g>
</svg>
