<svg width="20" height="23" viewBox="0 0 20 23" fill="none" xmlns="http://www.w3.org/2000/svg">
<path d="M12.2451 1.16991C11.9537 0.869004 11.6049 0.629745 11.2192 0.466348C10.8335 0.302951 10.4189 0.21875 10.0001 0.21875C9.58125 0.21875 9.16667 0.302951 8.78101 0.466348C8.39534 0.629745 8.04646 0.869004 7.7551 1.16991L1.75635 7.36491C1.4126 7.71991 1.18135 8.16991 1.09135 8.65741C0.362953 12.63 0.309285 16.697 0.932597 20.6874L1.1526 22.0999C1.2226 22.5462 1.6076 22.8749 2.05885 22.8749H6.2501C6.41586 22.8749 6.57483 22.8091 6.69204 22.6918C6.80925 22.5746 6.8751 22.4157 6.8751 22.2499V13.4999H13.1251V22.2499C13.1251 22.4157 13.1909 22.5746 13.3082 22.6918C13.4254 22.8091 13.5843 22.8749 13.7501 22.8749H17.9413C18.1598 22.8748 18.3711 22.7967 18.537 22.6546C18.703 22.5125 18.8127 22.3158 18.8463 22.0999L19.0676 20.6874C19.6908 16.697 19.6372 12.63 18.9088 8.65741C18.8192 8.17025 18.5874 7.72052 18.2426 7.36491L12.2451 1.16991Z" fill="#6288D2"/>
</svg>
