<svg width="16" height="16" viewBox="0 0 16 16" fill="none" xmlns="http://www.w3.org/2000/svg">
<g id="material-symbols:info">
<path id="Vector" d="M7.33331 11.3333H8.66665V7.33333H7.33331V11.3333ZM7.99998 6C8.18887 6 8.34731 5.936 8.47531 5.808C8.60331 5.68 8.66709 5.52178 8.66665 5.33333C8.66665 5.14444 8.60265 4.98622 8.47465 4.85867C8.34665 4.73111 8.18842 4.66711 7.99998 4.66667C7.81109 4.66667 7.65287 4.73067 7.52531 4.85867C7.39776 4.98667 7.33376 5.14489 7.33331 5.33333C7.33331 5.52222 7.39731 5.68067 7.52531 5.80867C7.65331 5.93667 7.81154 6.00044 7.99998 6ZM7.99998 14.6667C7.07776 14.6667 6.21109 14.4916 5.39998 14.1413C4.58887 13.7911 3.88331 13.3162 3.28331 12.7167C2.68331 12.1167 2.20842 11.4111 1.85865 10.6C1.50887 9.78889 1.33376 8.92222 1.33331 8C1.33331 7.07778 1.50842 6.21111 1.85865 5.4C2.20887 4.58889 2.68376 3.88333 3.28331 3.28333C3.88331 2.68333 4.58887 2.20844 5.39998 1.85867C6.21109 1.50889 7.07776 1.33378 7.99998 1.33333C8.9222 1.33333 9.78887 1.50844 10.6 1.85867C11.4111 2.20889 12.1166 2.68378 12.7166 3.28333C13.3166 3.88333 13.7918 4.58889 14.142 5.4C14.4922 6.21111 14.6671 7.07778 14.6666 8C14.6666 8.92222 14.4915 9.78889 14.1413 10.6C13.7911 11.4111 13.3162 12.1167 12.7166 12.7167C12.1166 13.3167 11.4111 13.7918 10.6 14.142C9.78887 14.4922 8.9222 14.6671 7.99998 14.6667Z" fill="#141414" fill-opacity="0.4"/>
</g>
</svg>
