<svg width="30" height="30" viewBox="0 0 30 30" fill="none" xmlns="http://www.w3.org/2000/svg">
<g id="noto-v1:pool-8-ball" clip-path="url(#clip0_569_1455)">
<path id="Subtract" fill-rule="evenodd" clip-rule="evenodd" d="M0.39138 15.15C0.407786 23.182 6.95622 29.7164 14.9906 29.7164H15.0164C23.0625 29.6977 29.5968 23.1398 29.5804 15.0938C29.5687 7.06172 23.0226 0.527344 14.9883 0.527344H14.9578C6.91169 0.541406 0.377318 7.10156 0.39138 15.15ZM17.5546 5.69773C18.5296 7.93835 17.6296 11.2219 14.4444 12.9071C9.61164 15.5087 4.76476 12.6212 5.84054 7.80007C6.55773 4.57507 9.8507 2.69773 12.6257 2.72116C14.8101 2.75398 16.7859 3.93991 17.5546 5.69773ZM12.7663 6.13834C12.8929 5.62272 12.7898 5.12115 12.4218 4.74615C11.6906 4.00553 10.289 4.14147 9.01868 5.0485C7.72024 5.97193 7.17649 7.24928 7.76711 8.1399C8.06243 8.58756 8.56399 8.81022 9.16164 8.82428C8.83586 9.58365 8.84289 10.411 9.27414 11.0719C10.1531 12.4126 12.1546 12.4383 13.9241 11.0368C15.6327 9.67506 15.9913 7.85631 14.9038 6.7899C14.3554 6.23678 13.5866 6.0399 12.7663 6.13834ZM10.5843 7.09225C10.0593 7.45084 9.48977 7.44381 9.21555 7.08287C8.94368 6.71256 9.12414 6.18521 9.64914 5.8149C10.1624 5.4399 10.7484 5.40943 11.046 5.75631C11.3413 6.09146 11.2054 6.6024 10.7273 6.98678C10.7128 7.00004 10.7002 7.00835 10.6878 7.01647L10.6878 7.01648C10.6762 7.02415 10.6648 7.03166 10.6523 7.04303C10.6375 7.05043 10.6236 7.06157 10.6095 7.0729C10.6013 7.07952 10.5929 7.0862 10.5843 7.09225ZM11.496 8.07193C12.1171 7.60787 12.846 7.58209 13.2562 8.05318C13.6781 8.51256 13.5234 9.23912 12.8695 9.74303C12.2085 10.2587 11.4398 10.2399 11.046 9.73131C10.6734 9.23209 10.8702 8.52428 11.496 8.07193Z" fill="#6288D2"/>
</g>
<defs>
<clipPath id="clip0_569_1455">
<rect width="30" height="30" fill="white"/>
</clipPath>
</defs>
</svg>
