<svg width="41" height="40" viewBox="0 0 41 40" fill="none" xmlns="http://www.w3.org/2000/svg">
<circle cx="20.5" cy="20" r="19.5" stroke="#2F80ED"/>
<path d="M29.1667 15.6667L20.5 21.0833L11.8334 15.6667V13.5L20.5 18.9167L29.1667 13.5M29.1667 11.3333H11.8334C10.6309 11.3333 9.66669 12.2975 9.66669 13.5V26.5C9.66669 27.0746 9.89496 27.6257 10.3013 28.0321C10.7076 28.4384 11.2587 28.6667 11.8334 28.6667H29.1667C29.7413 28.6667 30.2924 28.4384 30.6988 28.0321C31.1051 27.6257 31.3334 27.0746 31.3334 26.5V13.5C31.3334 12.9254 31.1051 12.3743 30.6988 11.9679C30.2924 11.5616 29.7413 11.3333 29.1667 11.3333Z" fill="#2F80ED"/>
</svg>
