<svg width="31" height="30" viewBox="0 0 31 30" fill="none" xmlns="http://www.w3.org/2000/svg">
<g id="fluent:lottery-20-filled">
<path id="Vector" d="M19.1556 4.875C17.6981 5.35631 16.4229 6.27238 15.5016 7.5C14.5798 6.27213 13.3041 5.35604 11.8461 4.875C12.2625 4.29438 12.8113 3.82142 13.447 3.49533C14.0828 3.16925 14.7871 2.99944 15.5016 3C17.0061 3 18.3396 3.7395 19.1556 4.875ZM5.94059 16.83C6.35829 14.7536 7.4404 12.8694 9.02345 11.4623C10.6065 10.0551 12.6045 9.20138 14.7156 9.03C14.2733 8.25369 13.6633 7.58594 12.93 7.07551C12.1967 6.56508 11.3587 6.22486 10.4771 6.07969C9.59556 5.93451 8.69269 5.98805 7.83445 6.23639C6.97621 6.48473 6.18427 6.9216 5.51644 7.51511C4.84862 8.10862 4.32177 8.84378 3.97436 9.66692C3.62696 10.4901 3.46776 11.3804 3.50841 12.2729C3.54906 13.1654 3.78851 14.0376 4.2093 14.8258C4.63009 15.6139 5.22158 16.2982 5.94059 16.8285M25.0611 16.8285C25.7801 16.2982 26.3716 15.6139 26.7924 14.8258C27.2132 14.0376 27.4526 13.1654 27.4933 12.2729C27.5339 11.3804 27.3747 10.4901 27.0273 9.66692C26.6799 8.84378 26.1531 8.10862 25.4852 7.51511C24.8174 6.9216 24.0255 6.48473 23.1672 6.23639C22.309 5.98805 21.4061 5.93451 20.5245 6.07969C19.643 6.22486 18.8049 6.56508 18.0717 7.07551C17.3384 7.58594 16.7283 8.25369 16.2861 9.03C18.397 9.2013 20.3948 10.0548 21.9778 11.4617C23.5609 12.8686 24.6431 14.7523 25.0611 16.8285ZM23.7501 18.75C23.7501 20.938 22.8809 23.0365 21.3337 24.5836C19.7865 26.1308 17.6881 27 15.5001 27C13.312 27 11.2136 26.1308 9.66646 24.5836C8.11928 23.0365 7.25009 20.938 7.25009 18.75C7.25009 16.562 8.11928 14.4635 9.66646 12.9164C11.2136 11.3692 13.312 10.5 15.5001 10.5C17.6881 10.5 19.7865 11.3692 21.3337 12.9164C22.8809 14.4635 23.7501 16.562 23.7501 18.75ZM12.5001 15.75C12.5001 15.9489 12.5791 16.1397 12.7198 16.2803C12.8604 16.421 13.0512 16.5 13.2501 16.5H16.6101C16.4571 16.719 16.2951 16.965 16.1301 17.2275C15.4056 18.3855 14.5881 19.9965 14.3811 21.657C14.3663 21.7559 14.3715 21.8567 14.3963 21.9536C14.4211 22.0505 14.465 22.1414 14.5255 22.221C14.5859 22.3007 14.6617 22.3674 14.7483 22.4174C14.8349 22.4673 14.9306 22.4994 15.0299 22.5118C15.1291 22.5242 15.2298 22.5167 15.326 22.4896C15.4223 22.4625 15.5121 22.4165 15.5903 22.3541C15.6685 22.2918 15.7334 22.2145 15.7813 22.1267C15.8292 22.0389 15.859 21.9425 15.8691 21.843C16.0371 20.5035 16.7196 19.1145 17.4021 18.0225C17.7852 17.4117 18.2076 16.8265 18.6666 16.2705L18.6846 16.2495L18.6906 16.2435C18.7854 16.135 18.847 16.0015 18.8679 15.8589C18.8888 15.7163 18.8682 15.5707 18.8085 15.4395C18.7489 15.3083 18.6527 15.1971 18.5315 15.1192C18.4103 15.0412 18.2692 14.9999 18.1251 15H13.2501C13.0512 15 12.8604 15.079 12.7198 15.2197C12.5791 15.3603 12.5001 15.5511 12.5001 15.75Z" fill="#6288D2"/>
</g>
</svg>
