<svg width="31" height="30" viewBox="0 0 31 30" fill="none" xmlns="http://www.w3.org/2000/svg">
<g id="mdi:gift">
<path id="Vector" d="M11.8252 2.41265C9.46274 2.40015 7.16274 4.67515 8.21274 7.50015H4.25024C3.5872 7.50015 2.95132 7.76354 2.48248 8.23238C2.01364 8.70122 1.75024 9.33711 1.75024 10.0001V12.5001C1.75024 12.8317 1.88194 13.1496 2.11636 13.384C2.35078 13.6185 2.66872 13.7501 3.00024 13.7501H14.2502V10.0001H16.7502V13.7501H28.0002C28.3318 13.7501 28.6497 13.6185 28.8841 13.384C29.1185 13.1496 29.2502 12.8317 29.2502 12.5001V10.0001C29.2502 9.33711 28.9869 8.70122 28.518 8.23238C28.0492 7.76354 27.4133 7.50015 26.7502 7.50015H22.7877C24.2502 3.41265 18.7502 0.525149 16.2127 4.05015L15.5002 5.00015L14.7877 4.02515C14.0002 2.91265 12.9127 2.42515 11.8252 2.41265ZM11.7502 5.00015C12.8627 5.00015 13.4252 6.35015 12.6377 7.13765C11.8502 7.92515 10.5002 7.36265 10.5002 6.25015C10.5002 5.91863 10.6319 5.60069 10.8664 5.36627C11.1008 5.13185 11.4187 5.00015 11.7502 5.00015ZM19.2502 5.00015C20.3627 5.00015 20.9252 6.35015 20.1377 7.13765C19.3502 7.92515 18.0002 7.36265 18.0002 6.25015C18.0002 5.91863 18.1319 5.60069 18.3664 5.36627C18.6008 5.13185 18.9187 5.00015 19.2502 5.00015ZM3.00024 15.0001V25.0001C3.00024 25.6632 3.26364 26.2991 3.73248 26.7679C4.20132 27.2368 4.8372 27.5001 5.50024 27.5001H25.5002C26.1633 27.5001 26.7992 27.2368 27.268 26.7679C27.7369 26.2991 28.0002 25.6632 28.0002 25.0001V15.0001H16.7502V25.0001H14.2502V15.0001H3.00024Z" fill="#6288D2"/>
</g>
</svg>
