<svg width="28" height="26" viewBox="0 0 28 26" fill="none" xmlns="http://www.w3.org/2000/svg">
<path d="M5.25024 12.9998L7.75024 7.99976V6.74976H4.00024V7.99976H6.50024L4.00024 12.9998M10.2502 12.9998L12.7502 7.99976V6.74976H9.00024V7.99976H11.5002L9.00024 12.9998M15.2502 12.9998L17.7502 7.99976V6.74976H14.0002V7.99976H16.5002L14.0002 12.9998M25.2502 0.499756C23.8752 0.499756 22.7502 1.62476 22.7502 2.99976C22.7502 3.87476 23.2502 4.74976 24.0002 5.12476V19.2498H20.2502V16.7498C21.0002 16.7498 21.5002 16.2498 21.5002 15.4998V4.24976C21.5002 3.49976 21.0002 2.99976 20.2502 2.99976H15.5002C14.5002 1.49976 12.7502 0.499756 10.8752 0.499756C9.00024 0.499756 7.25024 1.49976 6.25024 2.99976H1.50024C0.750244 2.99976 0.250244 3.49976 0.250244 4.24976V15.4998C0.250244 16.2498 0.750244 16.7498 1.50024 16.7498V25.4998H20.2502V21.7498H24.0002C25.3752 21.7498 26.5002 20.6248 26.5002 19.2498V5.12476C27.2502 4.74976 27.7502 3.87476 27.7502 2.99976C27.7502 1.62476 26.6252 0.499756 25.2502 0.499756ZM15.2502 21.7498H6.50024V19.2498H15.2502V21.7498ZM19.0002 14.2498H2.75024V5.49976H19.0002V14.2498Z" fill="#6288D2"/>
</svg>
