<svg width="26" height="26" viewBox="0 0 26 26" fill="none" xmlns="http://www.w3.org/2000/svg">
<path d="M10.9373 22.7498L11.3123 20.9998C11.3748 20.7289 11.5052 20.5052 11.7035 20.3285C11.9018 20.1518 12.1464 20.0423 12.4373 19.9998L16.3123 19.6873C16.5831 19.6456 16.8331 19.6977 17.0623 19.8435C17.2914 19.9893 17.4581 20.1873 17.5623 20.4373L18.0623 21.6248C18.8748 21.1456 19.6039 20.5677 20.2498 19.891C20.8956 19.2143 21.4373 18.4589 21.8748 17.6248L21.4998 17.4373C21.2706 17.2706 21.1039 17.0677 20.9998 16.8285C20.8956 16.5893 20.8748 16.3339 20.9373 16.0623L21.8123 12.2498C21.8748 11.9998 22.0052 11.7914 22.2035 11.6248C22.4018 11.4581 22.6256 11.3539 22.8748 11.3123C22.7706 10.7914 22.6406 10.286 22.4848 9.79601C22.3289 9.30601 22.1256 8.83226 21.8748 8.37476C21.6873 8.47892 21.4839 8.52601 21.2648 8.51601C21.0456 8.50601 20.8531 8.43809 20.6873 8.31226L17.3748 6.31226C17.1456 6.16642 16.9789 5.96851 16.8748 5.71851C16.7706 5.46851 16.7498 5.20809 16.8123 4.93726L17.0623 3.87476C16.4164 3.58309 15.7548 3.36434 15.0773 3.21851C14.3998 3.07267 13.7073 2.99976 12.9998 2.99976C12.7081 2.99976 12.406 3.01559 12.0935 3.04726C11.781 3.07892 11.4789 3.12559 11.1873 3.18726L12.1248 5.31226C12.2289 5.56226 12.2552 5.82267 12.2035 6.09351C12.1518 6.36434 12.0214 6.58309 11.8123 6.74976L8.87476 9.31226C8.66642 9.49976 8.42184 9.60392 8.14101 9.62476C7.86017 9.64559 7.60476 9.58309 7.37476 9.43726L4.49976 7.68726C4.02059 8.47892 3.65101 9.32809 3.39101 10.2348C3.13101 11.1414 3.00059 12.0631 2.99976 12.9998C2.99976 13.3331 3.04142 13.8748 3.12476 14.6248L5.87476 14.3748C6.16642 14.3331 6.43226 14.3802 6.67226 14.516C6.91226 14.6518 7.08392 14.8548 7.18726 15.1248L8.68726 18.6873C8.79142 18.9373 8.81767 19.1977 8.76601 19.4685C8.71434 19.7393 8.58392 19.9581 8.37476 20.1248L7.18726 21.1248C7.74976 21.5414 8.34892 21.8852 8.98476 22.156C9.62059 22.4268 10.2714 22.6248 10.9373 22.7498ZM13.1873 17.3748C12.9164 17.4164 12.6664 17.3643 12.4373 17.2185C12.2081 17.0727 12.0414 16.8748 11.9373 16.6248L10.2498 12.7498C10.1456 12.4998 10.1302 12.2393 10.2035 11.9685C10.2768 11.6977 10.4173 11.4789 10.6248 11.3123L13.8123 8.62476C13.9998 8.43726 14.2289 8.33309 14.4998 8.31226C14.7706 8.29142 15.0206 8.35392 15.2498 8.49976L18.7498 10.5623C18.9789 10.7081 19.156 10.906 19.281 11.156C19.406 11.406 19.4373 11.6664 19.3748 11.9373L18.3748 15.9998C18.3123 16.2706 18.1873 16.4948 17.9998 16.6723C17.8123 16.8498 17.5831 16.9589 17.3123 16.9998L13.1873 17.3748ZM12.9998 25.4998C11.2706 25.4998 9.64559 25.1714 8.12476 24.5148C6.60392 23.8581 5.28101 22.9677 4.15601 21.8435C3.03101 20.7185 2.14059 19.3956 1.48476 17.8748C0.828923 16.3539 0.500589 14.7289 0.499756 12.9998C0.499756 11.2706 0.828089 9.64559 1.48476 8.12476C2.14142 6.60392 3.03184 5.28101 4.15601 4.15601C5.28101 3.03101 6.60392 2.14059 8.12476 1.48476C9.64559 0.828923 11.2706 0.500589 12.9998 0.499756C14.7289 0.499756 16.3539 0.828089 17.8748 1.48476C19.3956 2.14142 20.7185 3.03184 21.8435 4.15601C22.9685 5.28101 23.8593 6.60392 24.516 8.12476C25.1727 9.64559 25.5006 11.2706 25.4998 12.9998C25.4998 14.7289 25.1714 16.3539 24.5148 17.8748C23.8581 19.3956 22.9677 20.7185 21.8435 21.8435C20.7185 22.9685 19.3956 23.8593 17.8748 24.516C16.3539 25.1727 14.7289 25.5006 12.9998 25.4998Z" fill="#6288D2"/>
</svg>
