<svg width="16" height="16" viewBox="0 0 16 16" fill="none" xmlns="http://www.w3.org/2000/svg">
<g id="mingcute:vip-1-fill" clip-path="url(#clip0_274_4683)">
<g id="Group">
<path id="Vector" fill-rule="evenodd" clip-rule="evenodd" d="M11.6133 2.00003C11.8298 2.00001 12.043 2.05268 12.2345 2.1535C12.426 2.25432 12.5901 2.40026 12.7126 2.5787L12.7706 2.67203L14.9933 6.56003C15.129 6.79734 15.1885 7.07063 15.1637 7.34287C15.1389 7.61511 15.031 7.87315 14.8546 8.08203L14.7786 8.16403L8.58998 14.3527C8.44482 14.4978 8.2512 14.5843 8.04625 14.5955C7.84129 14.6067 7.63941 14.5418 7.47931 14.4134L7.41131 14.3534L1.22264 8.16403C1.02933 7.9708 0.900067 7.72283 0.852369 7.45369C0.804671 7.18455 0.840839 6.90726 0.955976 6.65936L1.00798 6.55936L3.22998 2.67136C3.33737 2.48341 3.48891 2.32444 3.6715 2.20817C3.85409 2.0919 4.06224 2.02184 4.27798 2.00403L4.38664 2.00003H11.6133ZM4.86198 6.19536C4.737 6.32038 4.66679 6.48992 4.66679 6.6667C4.66679 6.84347 4.737 7.01301 4.86198 7.13803L7.41064 9.6867C7.48803 9.7641 7.5799 9.8255 7.68102 9.8674C7.78214 9.90929 7.89052 9.93085 7.99998 9.93085C8.10943 9.93085 8.21781 9.90929 8.31893 9.8674C8.42005 9.8255 8.51192 9.7641 8.58931 9.6867L11.138 7.13803C11.2016 7.07653 11.2524 7.00297 11.2874 6.92163C11.3223 6.8403 11.3407 6.75282 11.3415 6.6643C11.3422 6.57578 11.3254 6.48799 11.2919 6.40606C11.2583 6.32413 11.2088 6.2497 11.1462 6.1871C11.0836 6.12451 11.0092 6.075 10.9273 6.04148C10.8453 6.00796 10.7576 5.99109 10.669 5.99186C10.5805 5.99263 10.493 6.01102 10.4117 6.04596C10.3304 6.0809 10.2568 6.13169 10.1953 6.19536L7.99998 8.3907L5.80464 6.19536C5.67962 6.07038 5.51009 6.00017 5.33331 6.00017C5.15653 6.00017 4.98699 6.07038 4.86198 6.19536Z" fill="#93C78D"/>
</g>
</g>
<defs>
<clipPath id="clip0_274_4683">
<rect width="16" height="16" fill="white"/>
</clipPath>
</defs>
</svg>
