<svg width="31" height="30" viewBox="0 0 31 30" fill="none" xmlns="http://www.w3.org/2000/svg">
<g id="v-sport">
<path id="Vector" d="M27.6256 6.34724L27.1364 6.06537L26.3206 5.5951L18.4962 1.08596L18.4892 1.08193L18.4962 1.08559L17.2474 0.366447C17.1938 0.336757 17.1405 0.306701 17.0854 0.28031C17.0623 0.268581 17.0384 0.257585 17.0145 0.246589C17.0127 0.245856 17.0109 0.244756 17.009 0.244023C16.9954 0.237792 16.9818 0.23266 16.9682 0.226796C16.4129 -0.0140193 15.7966 -0.0631354 15.2163 0.0798142C15.2137 0.0805473 15.2115 0.0809139 15.2089 0.0816469C15.1865 0.087145 15.1645 0.0930096 15.1424 0.0992407C15.1388 0.10034 15.1351 0.10144 15.1314 0.102173C15.1097 0.108404 15.0881 0.114635 15.0664 0.121233C15.0649 0.1216 15.0635 0.122333 15.062 0.122699C15.0157 0.136994 14.9698 0.152389 14.9243 0.169249C14.9232 0.169616 14.9221 0.169982 14.921 0.170349C14.9063 0.175847 14.8916 0.181712 14.8773 0.18721C14.8655 0.191975 14.8534 0.196373 14.8416 0.201138C14.8288 0.20627 14.8163 0.211768 14.8034 0.217266C14.7898 0.22313 14.7759 0.228995 14.7623 0.23486C14.7509 0.239991 14.7391 0.245123 14.7278 0.250621C14.7127 0.257585 14.6976 0.264549 14.6826 0.27188C14.6723 0.276645 14.6624 0.281776 14.6521 0.286541C14.6348 0.295338 14.6176 0.304135 14.6003 0.312932C14.5926 0.316964 14.5845 0.320996 14.5768 0.325028C14.5518 0.33859 14.5269 0.352152 14.5022 0.366447L14.1754 0.554847L4.12331 6.34687C3.37954 6.77535 2.8859 7.52162 2.77424 8.3577C2.75845 8.47719 2.75 8.59814 2.75 8.72057V20.6803C2.75 21.6582 3.27302 22.5643 4.12294 23.0533L6.45561 24.397L14.5015 29.033C14.5999 29.0898 14.7006 29.14 14.8038 29.1833L14.7998 29.1807C15.5869 29.5161 16.4952 29.467 17.2478 29.0322L20.0605 27.4114L21.6703 26.4837L21.7423 26.443L22.7854 25.8049L26.5876 23.6518L27.6256 23.0533C27.7732 22.9686 27.9113 22.8715 28.037 22.7619C28.6419 22.2476 29 21.4889 29 20.6803V8.7202C29 7.74228 28.477 6.83657 27.6256 6.34724ZM15.8748 23.7427L13.7941 20.1463V20.1459L11.7134 16.5491L9.63269 12.9526V12.9522H9.63232L7.55161 9.35541H11.7134V9.35578L13.7941 12.9522V12.9526L15.8748 16.5491V16.5494L17.9555 20.1459L17.9559 20.1463L15.8748 23.7427ZM22.1173 12.9526H17.9559L20.0366 9.35614V9.35578H24.1984L22.1173 12.9526Z" fill="#6288D2"/>
</g>
</svg>
