<?xml version="1.0" encoding="utf-8"?>
<!-- Generator: Adobe Illustrator 25.1.0, SVG Export Plug-In . SVG Version: 6.00 Build 0)  -->
<svg version="1.1" id="Layer_1" xmlns="http://www.w3.org/2000/svg" xmlns:xlink="http://www.w3.org/1999/xlink" x="0px" y="0px"
	 viewBox="0 0 150 150" style="enable-background:new 0 0 150 150;" xml:space="preserve">
<style type="text/css">
	.st0{fill:#FFFFFF;}
</style>
<g>
	<path class="st0" d="M71.4,67.1c-1.1-4-4.2-7.1-8.2-8.2c-4-1.1-8.3,0-11.3,2.8l-3,3l-3-3c-3-2.9-7.3-4-11.3-2.9s-7.2,4.2-8.3,8.3
		c-1.1,4,0,8.3,2.9,11.3l0,0L47,96.2c1,1,2.5,1,3.5,0l17.8-17.8C71.5,75.4,72.5,71.1,71.4,67.1z"/>
	<path class="st0" d="M27,33.9c0.5,1.3,1.9,1.9,3.2,1.4c1.3-0.5,1.9-1.9,1.4-3.2l-7.4-19.7c-0.4-0.9-1.3-1.6-2.3-1.6
		s-1.9,0.6-2.3,1.6l-7.4,19.7c-0.5,1.3,0.2,2.7,1.4,3.2l0,0c0.6,0.2,1.3,0.2,1.9-0.1c0.6-0.3,1.1-0.8,1.3-1.4l1.3-3.4h7.7L27,33.9
		L27,33.9z M19.9,25.7l2-5.3l2,5.3H19.9z"/>
	<path class="st0" d="M133,77.8c-10.3-7.6-23.7-9.8-35.9-5.8V8.4c0-2-0.8-3.8-2.2-5.2C93.6,1.8,91.7,1,89.7,1H8.3
		c-2,0-3.8,0.8-5.2,2.2S0.9,6.4,0.9,8.4v133.2c0,2,0.8,3.8,2.2,5.2s3.3,2.2,5.2,2.2l0,0h81.4c2.2,0,4.2-1,5.6-2.6
		c12,4.6,25.5,3.1,36.1-4c10.7-7.1,17.2-19,17.5-31.9C149.3,97.6,143.3,85.5,133,77.8z M109.5,75c3.6,0,7.1,0.5,10.5,1.6l-3.8,6.6
		c-4.3-1.2-8.9-1.2-13.3,0L99,76.6C102.4,75.5,105.9,75,109.5,75z M89.7,144.1H8.3c-1.4,0-2.5-1.1-2.5-2.5V8.4C5.8,7,7,5.9,8.3,5.9
		h81.4c0.7,0,1.3,0.3,1.7,0.7c0.5,0.5,0.7,1.1,0.7,1.7V74C83.5,78.3,76.7,85.6,73,94.5s-4,18.9-0.8,28c3.2,9.1,9.6,16.8,18.1,21.5
		C90.1,144,89.9,144.1,89.7,144.1z M75.7,102.1c1.5-7,5.2-13.3,10.5-18.1l3.8,6.6c-3.1,3.2-5.4,7.2-6.6,11.5H75.7z M90,128.4
		l-3.8,6.6c-5.3-4.8-8.9-11.1-10.5-18.1h7.6C84.6,121.3,86.9,125.2,90,128.4z M109.5,144.1c-3.6,0-7.1-0.5-10.5-1.6l3.8-6.6
		c4.3,1.2,8.9,1.2,13.3,0l3.8,6.6C116.5,143.5,113,144.1,109.5,144.1z M109.5,131.7c-5.9,0-11.5-2.3-15.7-6.5
		c-4.2-4.2-6.5-9.8-6.5-15.7c0-5.9,2.4-11.5,6.5-15.7c4.2-4.2,9.8-6.5,15.7-6.5c5.9,0,11.5,2.3,15.7,6.5s6.5,9.8,6.5,15.7
		c0,5.9-2.3,11.5-6.5,15.7C121,129.4,115.3,131.7,109.5,131.7z M132.7,135l-3.8-6.6c3.1-3.2,5.4-7.2,6.6-11.5h7.6
		C141.6,123.9,138,130.2,132.7,135z M135.5,102.1c-1.2-4.3-3.5-8.3-6.6-11.5l3.8-6.6c5.3,4.8,8.9,11.1,10.5,18.1H135.5z"/>
	<path class="st0" d="M125.4,104.6c-0.8-2.9-3-5.1-5.9-5.9s-5.9,0.1-8,2.1l-1.2,1.2l-1.2-1.2c-1.5-1.6-3.7-2.5-5.9-2.5
		c-2.2,0-4.4,0.9-5.9,2.4c-1.6,1.6-2.4,3.7-2.4,5.9c0,2.2,0.9,4.3,2.5,5.9l11.2,11.2c1,1,2.5,1,3.5,0l11.2-11.2l0,0
		C125.3,110.5,126.2,107.4,125.4,104.6z"/>
	<path class="st0" d="M128.8,69.6l13.4-23.2c0.7-1.1,0.8-2.5,0.5-3.7c-0.3-1.3-1.2-2.3-2.3-3l-38.3-22.1v48.2
		C111.2,64.2,120.5,65.6,128.8,69.6z"/>
</g>
</svg>
