<?xml version="1.0" encoding="utf-8"?>
<!-- Generator: Adobe Illustrator 25.1.0, SVG Export Plug-In . SVG Version: 6.00 Build 0)  -->
<svg version="1.1" id="Layer_1" xmlns="http://www.w3.org/2000/svg" xmlns:xlink="http://www.w3.org/1999/xlink" x="0px" y="0px"
	 viewBox="0 0 486 482" style="enable-background:new 0 0 486 482;" xml:space="preserve">
<style type="text/css">
	.st0{fill-rule:evenodd;clip-rule:evenodd;}
</style>
<g>
	<path d="M261.2,234.9c-3.1-9.6-12.1-16.1-22.2-16.1s-19.1,6.5-22.2,16.1l-10.5,32.2h-33.9c-10.1,0-19.1,6.5-22.2,16.1
		c-3.1,9.6,0.3,20.1,8.5,26.1l27.4,19.9l-10.5,32.2c-3.1,9.6,0.3,20.1,8.5,26.1c8.2,5.9,19.2,5.9,27.4,0l27.4-19.9l27.4,19.9
		c8.2,5.9,19.3,5.9,27.4,0c8.2-5.9,11.6-16.5,8.5-26.1l-10.5-32.2l27.4-19.9c8.2-5.9,11.6-16.5,8.5-26.1
		c-3.1-9.6-12.1-16.1-22.2-16.1h-33.9L261.2,234.9z"/>
	<path class="st0" d="M122.3,8.8c12.9,0,23.3,10.4,23.3,23.3v23.3h186.7V32.1c0-12.9,10.4-23.3,23.3-23.3S379,19.2,379,32.1v23.3
		h23.3c38.7,0,70,31.3,70,70v280c0,38.7-31.3,70-70,70H75.7c-38.7,0-70-31.3-70-70v-280c0-38.7,31.3-70,70-70H99V32.1
		C99,19.2,109.4,8.8,122.3,8.8L122.3,8.8z M52.3,195.4h373.3v210c0,12.9-10.4,23.3-23.3,23.3H75.7c-12.9,0-23.3-10.4-23.3-23.3
		L52.3,195.4z"/>
</g>
</svg>
