<svg width="61" height="78" xmlns="http://www.w3.org/2000/svg" xmlns:xlink="http://www.w3.org/1999/xlink"><defs><path d="M25.2570302,5.60139282 L67.6892964,15.3976533 L51.1643045,86.9714096 C51.0698398,87.3805593 50.6615796,87.6356618 50.25243,87.5411971 C50.1821982,87.524982 50.1146291,87.4988624 50.0517515,87.4636226 L31.481278,77.055806 L31.481278,77.055806 L9.5082238,78.1148927 C9.08879758,78.1351088 8.73239709,77.811485 8.71218102,77.3920588 C8.70881964,77.3223198 8.71508025,77.2524501 8.73078633,77.1844196 L25.2570302,5.60139282 L25.2570302,5.60139282 Z" id="b"/><path d="M30.9930087,0.448680735 L55.6062767,14.6584539 C56.0872292,14.9361182 56.3835107,15.4492802 56.3835107,16.0046294 L56.3835107,44.4240424 C56.3835107,44.9793917 56.0872292,45.4925537 55.6062767,45.770218 L30.9930087,59.9799911 C30.5120871,60.2576376 29.9195776,60.2576376 29.438656,59.9799911 L4.82538799,45.770218 C4.34443548,45.4925537 4.04815394,44.9793917 4.04815394,44.4240424 L4.04815394,16.0046294 C4.04815394,15.4492802 4.34443548,14.9361182 4.82538799,14.6584539 L29.438656,0.448680735 C29.9195776,0.171034288 30.5120871,0.171034288 30.9930087,0.448680735 Z" id="c"/><path d="M24.8446111,0.161516624 L45.7586237,12.2356295 C45.8548142,12.2911623 45.9140705,12.3937947 45.9140705,12.5048646 L45.9140705,36.6530636 C45.9140705,36.7641334 45.8548142,36.8667658 45.7586237,36.9222987 L24.8446111,48.9964115 C24.7484268,49.0519408 24.6299249,49.0519408 24.5337406,48.9964115 L3.61972793,36.9222987 C3.52353743,36.8667658 3.46428112,36.7641334 3.46428112,36.6530636 L3.46428112,12.5048646 C3.46428112,12.3937947 3.52353743,12.2911623 3.61972793,12.2356295 L24.5337406,0.161516624 C24.6299249,0.105987334 24.7484268,0.105987334 24.8446111,0.161516624 Z" id="e"/><linearGradient x1="75.549%" y1="14.66%" x2="21.94%" y2="83.458%" id="d"><stop stop-color="#A4A9B9" offset="0%"/><stop stop-color="#DBE0EE" offset="48.976%"/><stop stop-color="#979DB3" offset="100%"/></linearGradient><linearGradient x1="77.997%" y1="16.697%" x2="23.856%" y2="85.317%" id="g"><stop stop-color="#DADDE6" offset="0%"/><stop stop-color="#F9FAFF" offset="46.038%"/><stop stop-color="#DADDE6" offset="100%"/></linearGradient><filter x="-11.5%" y="-6.1%" width="123.3%" height="116.5%" filterUnits="objectBoundingBox" id="a"><feOffset dy="2" in="SourceAlpha" result="shadowOffsetOuter1"/><feGaussianBlur stdDeviation="2" in="shadowOffsetOuter1" result="shadowBlurOuter1"/><feColorMatrix values="0 0 0 0 0 0 0 0 0 0 0 0 0 0 0 0 0 0 0.252239948 0" in="shadowBlurOuter1"/></filter></defs><g fill="none" fill-rule="evenodd"><g transform="scale(-1 1) rotate(-13 -39.24 341.577)"><use fill="#000" filter="url(#a)" xlink:href="#b"/><use fill="#697484" xlink:href="#b"/></g><g transform="translate(-.56 4.024)"><use fill="#9196A8" xlink:href="#c"/><use fill="url(#d)" xlink:href="#c"/></g><g transform="translate(4.967 9.66)"><mask id="f" fill="#fff"><use xlink:href="#e"/></mask><use fill="#616778" xlink:href="#e"/><path fill="#F5F6F7" opacity=".05" mask="url(#f)" d="M-1.49787887 39.5836871L50.8568542 9.4717961 11.94196 -12.7571641 -2.35012029 -2.08113431z"/></g><path d="M30.0356656,6.89898865 L50.2726047,18.4129487 L50.4192087,41.6946599 L30.3288528,53.4625403 L10.0919137,41.9485802 L9.94530967,18.666869 L30.0356656,6.89898865 Z" stroke="url(#g)" stroke-width="2.432" transform="translate(-.56 4.024)"/><text font-family="Montserrat-SemiBold, Montserrat" font-size="7.603" font-weight="500" fill="#DADDE6" transform="translate(-.56 4.024)"><tspan x="23.871" y="23.862">ViP</tspan></text><path fill="#DADDE6" d="M41.2487436 22.4859404L40.0008184 23.1301757 40.2391509 21.7656635 39.2295582 20.7993106 40.624781 20.6002309 41.2487436 19.3587567 41.8727061 20.6002309 43.2679289 20.7993106 42.2583362 21.7656635 42.4966687 23.1301757zM19.714473 22.4859404L18.4665479 23.1301757 18.7048804 21.7656635 17.6952877 20.7993106 19.0905104 20.6002309 19.714473 19.3587567 20.3384356 20.6002309 21.7336584 20.7993106 20.7240657 21.7656635 20.9623982 23.1301757z" transform="translate(-.56 4.024)"/></g></svg>