<svg xmlns="http://www.w3.org/2000/svg" width="49" height="49" fill="none" viewBox="0 0 49 49">
    <path fill="#fff" d="M30.384 12.716c0-4.38-1.034-9.31-7.93-9.31-6.897 0-7.931 4.93-7.931 9.31 0 4.379 2.068 9.655 7.93 9.655 5.863 0 7.931-5.276 7.931-9.655zM15.902 23.06S4.867 24.44 4.867 36.51c0 0 4.483 2.414 21.724 2.414 0 0-2.758-10.345 8.966-12.759 0 0-3.104-2.414-7.242-3.104 0 0-.69 2.414-5.862 2.414-5.172 0-6.551-2.413-6.551-2.413z"/>
    <path fill="#fff" d="M36.591 28.232c-4.586 0-8.276 3.69-8.276 8.276s3.69 8.276 8.276 8.276c4.587 0 8.276-3.69 8.276-8.276s-3.69-8.276-8.276-8.276zm5.517 10h-3.793v3.794h-3.448v-3.794h-3.793v-3.448h3.793v-3.793h3.448v3.793h3.794v3.448z"/>
</svg>
