<svg width="22" height="22" viewBox="0 0 22 22" fill="none" xmlns="http://www.w3.org/2000/svg">
<g id="fa6-solid:arrow-up">
<path id="Vector" d="M2.02832 10.0296C1.49121 10.5667 1.49121 11.439 2.02832 11.9761L8.90332 18.8511C9.44043 19.3882 10.3127 19.3882 10.8498 18.8511C11.3869 18.314 11.3869 17.4417 10.8498 16.9046L6.3166 12.3757L19.4994 12.3757C20.26 12.3757 20.8744 11.7612 20.8744 11.0007C20.8744 10.2401 20.26 9.62568 19.4994 9.62568L6.3166 9.62568L10.8455 5.09678C11.3826 4.55967 11.3826 3.6874 10.8455 3.15029C10.3084 2.61318 9.43613 2.61318 8.89902 3.15029L2.02402 10.0253L2.02832 10.0296Z" fill="white" fill-opacity="0.7"/>
</g>
</svg>
