<svg width="24" height="24" viewBox="0 0 24 24" fill="none" xmlns="http://www.w3.org/2000/svg">
<g id="material-symbols:sports-and-outdoors">
<path id="Vector" d="M10.35 19.8L10.65 18.4C10.7 18.1833 10.8043 18.0043 10.963 17.863C11.1217 17.7217 11.3173 17.634 11.55 17.6L14.65 17.35C14.8667 17.3167 15.0667 17.3583 15.25 17.475C15.4333 17.5917 15.5667 17.75 15.65 17.95L16.05 18.9C16.7 18.5167 17.2833 18.0543 17.8 17.513C18.3167 16.9717 18.75 16.3673 19.1 15.7L18.8 15.55C18.6167 15.4167 18.4833 15.2543 18.4 15.063C18.3167 14.8717 18.3 14.6673 18.35 14.45L19.05 11.4C19.1 11.2 19.2043 11.0333 19.363 10.9C19.5217 10.7667 19.7007 10.6833 19.9 10.65C19.8167 10.2333 19.7127 9.829 19.588 9.437C19.4633 9.045 19.3007 8.666 19.1 8.3C18.95 8.38333 18.7873 8.421 18.612 8.413C18.4367 8.405 18.2827 8.35067 18.15 8.25L15.5 6.65C15.3167 6.53333 15.1833 6.375 15.1 6.175C15.0167 5.975 15 5.76667 15.05 5.55L15.25 4.7C14.7333 4.46667 14.204 4.29167 13.662 4.175C13.12 4.05833 12.566 4 12 4C11.7667 4 11.525 4.01267 11.275 4.038C11.025 4.06333 10.7833 4.10067 10.55 4.15L11.3 5.85C11.3833 6.05 11.4043 6.25833 11.363 6.475C11.3217 6.69167 11.2173 6.86667 11.05 7L8.7 9.05C8.53333 9.2 8.33767 9.28333 8.113 9.3C7.88833 9.31667 7.684 9.26667 7.5 9.15L5.2 7.75C4.81667 8.38333 4.521 9.06267 4.313 9.788C4.105 10.5133 4.00067 11.2507 4 12C4 12.2667 4.03333 12.7 4.1 13.3L6.3 13.1C6.53333 13.0667 6.746 13.1043 6.938 13.213C7.13 13.3217 7.26733 13.484 7.35 13.7L8.55 16.55C8.63333 16.75 8.65433 16.9583 8.613 17.175C8.57167 17.3917 8.46733 17.5667 8.3 17.7L7.35 18.5C7.8 18.8333 8.27933 19.1083 8.788 19.325C9.29667 19.5417 9.81733 19.7 10.35 19.8ZM12.15 15.5C11.9333 15.5333 11.7333 15.4917 11.55 15.375C11.3667 15.2583 11.2333 15.1 11.15 14.9L9.8 11.8C9.71667 11.6 9.70433 11.3917 9.763 11.175C9.82167 10.9583 9.934 10.7833 10.1 10.65L12.65 8.5C12.8 8.35 12.9833 8.26667 13.2 8.25C13.4167 8.23333 13.6167 8.28333 13.8 8.4L16.6 10.05C16.7833 10.1667 16.925 10.325 17.025 10.525C17.125 10.725 17.15 10.9333 17.1 11.15L16.3 14.4C16.25 14.6167 16.15 14.796 16 14.938C15.85 15.08 15.6667 15.1673 15.45 15.2L12.15 15.5ZM12 22C10.6167 22 9.31667 21.7373 8.1 21.212C6.88333 20.6867 5.825 19.9743 4.925 19.075C4.025 18.175 3.31267 17.1167 2.788 15.9C2.26333 14.6833 2.00067 13.3833 2 12C2 10.6167 2.26267 9.31667 2.788 8.1C3.31333 6.88333 4.02567 5.825 4.925 4.925C5.825 4.025 6.88333 3.31267 8.1 2.788C9.31667 2.26333 10.6167 2.00067 12 2C13.3833 2 14.6833 2.26267 15.9 2.788C17.1167 3.31333 18.175 4.02567 19.075 4.925C19.975 5.825 20.6877 6.88333 21.213 8.1C21.7383 9.31667 22.0007 10.6167 22 12C22 13.3833 21.7373 14.6833 21.212 15.9C20.6867 17.1167 19.9743 18.175 19.075 19.075C18.175 19.975 17.1167 20.6877 15.9 21.213C14.6833 21.7383 13.3833 22.0007 12 22Z" fill="white" fill-opacity="0.7"/>
</g>
</svg>
