<svg width="18" height="20" viewBox="0 0 18 20" fill="none" xmlns="http://www.w3.org/2000/svg">
<path fill-rule="evenodd" clip-rule="evenodd" d="M13.0841 4.2656C14.5251 5.09806 15.6774 6.35102 16.3865 7.85663C17.0956 9.36224 17.3276 11.0486 17.0516 12.6898C16.7755 14.3309 16.0045 15.8485 14.8418 17.0393C13.6792 18.2301 12.1804 19.0371 10.5463 19.3522C8.91217 19.6674 7.22077 19.4757 5.69866 18.8028C4.17655 18.1298 2.89644 17.0078 2.02981 15.587C1.16318 14.1662 0.751422 12.5146 0.849702 10.8532C0.947983 9.1919 1.55161 7.60028 2.57971 6.29159C2.81531 5.99184 3.26787 6.03732 3.50464 6.33708C3.82967 6.7492 4.1963 7.12011 4.60453 7.4498C4.99176 7.76356 5.5213 7.39265 5.50613 6.89461L5.50264 6.67066C5.50264 5.59877 5.74291 4.58402 6.1733 3.67658C6.79609 2.36618 7.80889 1.28045 9.0729 0.568201C9.361 0.404908 9.71441 0.549539 9.86254 0.845797C10.5764 2.27795 11.6971 3.46757 13.0841 4.2656ZM13.6672 12.5025C13.6672 13.7399 13.1757 14.9266 12.3008 15.8015C11.4258 16.6765 10.2391 17.168 9.00175 17.168C6.77048 17.168 4.89612 15.5374 4.44124 13.4566C4.33276 12.9562 4.95444 12.7066 5.39066 12.9749C5.95889 13.3253 6.59568 13.5496 7.25803 13.6327C7.61144 13.6771 7.87737 13.3528 7.85288 12.9982C7.72523 11.2329 8.27353 9.48497 9.38666 8.1088C9.44594 8.03538 9.52391 7.97929 9.61238 7.94645C9.70085 7.91361 9.79653 7.90522 9.88936 7.92218C10.9529 8.12829 11.9116 8.6981 12.6009 9.53384C13.2903 10.3696 13.6673 11.4192 13.6672 12.5025Z" fill="#F2F2F2"/>
</svg>
