<svg width="19" height="18" viewBox="0 0 19 18" fill="none" xmlns="http://www.w3.org/2000/svg">
<rect x="8" y="3" width="9.75" height="1.5" rx="0.75" fill="#10257D"/>
<rect x="8" y="13.5" width="9.75" height="1.5" rx="0.75" fill="#10257D"/>
<path fill-rule="evenodd" clip-rule="evenodd" d="M6.08211 11.4748C6.47263 11.8654 6.47263 12.4985 6.08211 12.8891C5.69158 13.2796 5.05842 13.2796 4.66789 12.8891L1.48591 9.70708C1.09539 9.31656 1.09539 8.68339 1.48591 8.29287L4.66789 5.11089C5.05842 4.72036 5.69158 4.72036 6.08211 5.11089C6.47263 5.50141 6.47263 6.13458 6.08211 6.5251L4.35723 8.24998H17C17.4142 8.24998 17.75 8.58576 17.75 8.99998C17.75 9.41419 17.4142 9.74998 17 9.74998H4.35723L6.08211 11.4748Z" fill="#10257D" fill-opacity="0.6"/>
</svg>
