<svg width="17" height="17" viewBox="0 0 17 17" fill="none" xmlns="http://www.w3.org/2000/svg">
<path d="M14.5314 6.88865V6.59961C14.5314 5.00004 13.8959 3.46598 12.7648 2.33488C12.7648 2.33488 12.7648 2.33487 12.7648 2.33487M14.5314 6.88865L12.7648 2.33487M14.5314 6.88865L14.7818 7.03289M14.5314 6.88865L14.7818 7.03289M12.7648 2.33487C11.6337 1.20378 10.0996 0.568359 8.50006 0.568359C6.90048 0.568359 5.36641 1.20379 4.23532 2.33487C3.10424 3.46595 2.46881 5.00002 2.46881 6.59961V6.88871L2.21826 7.03294C1.63343 7.36959 1.17618 7.88995 0.917519 8.51321L0.917514 8.51322C0.658867 9.13639 0.613285 9.82763 0.787873 10.4795L12.7648 2.33487ZM14.7818 7.03289C15.2968 7.32949 15.7145 7.76956 15.9837 8.29941L15.9837 8.29947M14.7818 7.03289L15.9837 8.29947M15.9837 8.29947C16.253 8.82931 16.3623 9.42606 16.2982 10.017L16.2982 10.017M15.9837 8.29947L16.2982 10.017M16.2982 10.017C16.2341 10.6079 15.9995 11.1674 15.6229 11.6272L15.6229 11.6272M16.2982 10.017L15.6229 11.6272M15.6229 11.6272C15.2464 12.087 14.7441 12.4274 14.1775 12.6067L13.9022 12.6938M15.6229 11.6272L13.9022 12.6938M13.9022 12.6938L13.8401 12.9758M13.9022 12.6938L13.8401 12.9758M13.8401 12.9758C13.6316 13.9217 13.1063 14.7682 12.3512 15.3749C11.596 15.9817 10.6563 16.3123 9.68765 16.3121H9.68756M13.8401 12.9758L9.68756 16.3121M9.68756 16.3121H7.90631C7.88134 16.3121 7.85758 16.3022 7.8401 16.2847L7.83994 16.2846M9.68756 16.3121L7.83994 16.2846M7.83994 16.2846C7.82247 16.2671 7.81256 16.2432 7.81256 16.2184C7.81256 16.1936 7.82236 16.1698 7.83995 16.1521C7.85762 16.1345 7.88154 16.1246 7.90631 16.1246L9.68742 16.1246C9.68747 16.1246 9.68752 16.1246 9.68756 16.1246C10.5279 16.1248 11.3476 15.8646 12.0339 15.3795M7.83994 16.2846L13.7554 12.7496M13.7554 12.7496L13.5195 13.4164C13.2392 14.2086 12.7202 14.8945 12.0339 15.3795M13.7554 12.7496H13.0482M13.7554 12.7496H13.0482M12.0339 15.3795L11.7454 14.9712L12.0339 15.3795ZM13.0482 12.7496H12.6564C12.6314 12.7496 12.6076 12.7397 12.59 12.7221C12.5725 12.7046 12.5626 12.6807 12.5626 12.6559V6.71836C12.5626 6.69358 12.5724 6.66967 12.5901 6.65199L12.2365 6.29852L12.5899 6.65215C12.6076 6.63447 12.6315 6.62461 12.6564 6.62461H13.2501C13.4156 6.62461 13.5779 6.63788 13.7373 6.66344L14.3795 6.76639M13.0482 12.7496L14.3795 6.76639M14.3795 6.76639L14.3139 6.11928M14.3795 6.76639L14.3139 6.11928M14.3139 6.11928C14.1678 4.67895 13.4922 3.34418 12.4181 2.37357L12.4181 2.37355M14.3139 6.11928L12.4181 2.37355M12.4181 2.37355C11.3439 1.40294 9.94773 0.865569 8.50006 0.865569C7.05236 0.865569 5.6562 1.40293 4.58208 2.37356C3.50796 3.34418 2.83236 4.67895 2.68618 6.11925L2.62049 6.7664M12.4181 2.37355L2.62049 6.7664M2.62049 6.7664L3.26277 6.66344M2.62049 6.7664L3.26277 6.66344M3.26277 6.66344C3.42391 6.6376 3.58686 6.62462 3.75006 6.62461C3.75007 6.62461 3.75008 6.62461 3.75009 6.62461H4.34381C4.36866 6.62461 4.39251 6.63448 4.41009 6.65206C4.42769 6.66965 4.43756 6.69351 4.43756 6.71836V12.6559C4.43756 12.6807 4.42765 12.7046 4.41017 12.7221L4.41003 12.7222M3.26277 6.66344L4.41003 12.7222M4.41003 12.7222C4.39256 12.7397 4.36878 12.7496 4.34381 12.7496H3.75006H3.74949M4.41003 12.7222L3.74949 12.7496M3.74949 12.7496C3.07471 12.7504 2.41858 12.5282 1.88303 12.1177L1.883 12.1177M3.74949 12.7496L1.883 12.1177M1.883 12.1177C1.34745 11.7072 0.962474 11.1313 0.787879 10.4795L1.883 12.1177ZM4.25006 7.31211V6.81211H3.75006C2.98756 6.81211 2.2563 7.11501 1.71713 7.65418C1.17796 8.19334 0.875061 8.92459 0.875061 9.6871C0.875061 10.4496 1.17796 11.1809 1.71713 11.7201C2.2563 12.2592 2.98757 12.5621 3.75006 12.5621H4.25006V12.0621V7.31211ZM13.2501 6.81211H12.7501V7.31211V12.0621V12.5621H13.2501C14.0126 12.5621 14.7438 12.2592 15.283 11.7201C15.8222 11.1809 16.1251 10.4496 16.1251 9.6871C16.1251 8.9246 15.8222 8.19335 15.283 7.65418C14.7438 7.115 14.0126 6.81211 13.2501 6.81211Z" fill="#D5D514" stroke="#D5D514"/>
</svg>
