<svg width="64" height="64" viewBox="0 0 64 64" fill="none" xmlns="http://www.w3.org/2000/svg">
<mask id="mask0_623_320" style="mask-type:luminance" maskUnits="userSpaceOnUse" x="9" y="10" width="45" height="45">
<path d="M53.7 10H9V54.7H53.7V10Z" fill="white"/>
</mask>
<g mask="url(#mask0_623_320)">
<path fill-rule="evenodd" clip-rule="evenodd" d="M11.1599 25.2411C11.6006 25.6819 12.1587 25.9816 12.7633 26.1075C12.6867 28.404 12.7038 32.7733 12.8146 34.1444L12.9704 36.0943C13.0987 37.6972 13.7936 39.2019 14.9306 40.3389C16.0676 41.4759 17.5723 42.1708 19.1751 42.2991L20.9575 42.4427C22.7193 42.5833 25.207 42.6535 26.9732 42.6531C28.7289 42.6531 31.2075 42.5828 32.957 42.4427L34.7398 42.3004C36.3428 42.1721 37.8478 41.477 38.9848 40.3397C40.1218 39.2025 40.8166 37.6974 40.9446 36.0943L41.0886 34.3116C41.2138 33.4878 41.2276 28.6755 41.1461 26.1084C41.7519 25.9831 42.3112 25.6834 42.7528 25.2421C43.2879 24.7075 43.6154 24 43.6767 23.2461L43.7439 22.4066C43.8135 21.9493 43.8099 21.9051 43.746 21.1039L43.7439 21.0774L43.6767 20.238C43.616 19.4836 43.2888 18.7754 42.7536 18.2403C42.2185 17.7051 41.5103 17.3779 40.7559 17.3172L39.9169 17.25C39.0897 17.1841 27.7864 17.1509 26.957 17.1509C26.1276 17.1509 14.8238 17.1841 13.997 17.25L13.1576 17.3172C12.4032 17.3779 11.6951 17.7051 11.1599 18.2403C10.6247 18.7754 10.2975 19.4836 10.2368 20.238L10.1635 21.1547C10.1514 21.3053 10.1417 21.4124 10.1344 21.4932C10.1232 21.617 10.1177 21.6788 10.1177 21.7407C10.1177 21.8026 10.1232 21.8645 10.1344 21.9882C10.1417 22.069 10.1514 22.1761 10.1635 22.3267L10.2368 23.2434C10.2975 23.9978 10.6247 24.706 11.1599 25.2411ZM38.1839 13.6709C37.478 12.7647 36.5045 12.1038 35.4017 11.7822C34.2989 11.4605 33.1228 11.4944 32.0403 11.879L28.7192 13.3117C28.1625 13.5517 27.5626 13.6755 26.9563 13.6755C26.3501 13.6755 25.7502 13.5517 25.1934 13.3117L21.8724 11.879C20.7899 11.4944 19.6138 11.4605 18.511 11.7822C17.4082 12.1038 16.4347 12.7647 15.7287 13.6709C15.6175 13.8439 15.5549 14.0437 15.5475 14.2493C15.5402 14.4549 15.5883 14.6586 15.6868 14.8392C15.7854 15.0197 15.9308 15.1704 16.1076 15.2754C16.2845 15.3804 16.4864 15.4358 16.6921 15.4358H37.2205C37.4262 15.4358 37.6281 15.3804 37.805 15.2754C37.9819 15.1704 38.1273 15.0197 38.2258 14.8392C38.3244 14.6586 38.3725 14.4549 38.3651 14.2493C38.3578 14.0437 38.2952 13.8439 38.1839 13.6709Z" fill="#025BE8"/>
<g filter="url(#filter0_i_623_320)">
<path fill-rule="evenodd" clip-rule="evenodd" d="M22.5591 39.4294C22.5712 38.3611 21.7491 37.4712 20.9937 36.7158C20.4585 36.1806 20.1313 35.4724 20.0706 34.7181L19.9973 33.8014C19.9667 33.4198 19.9514 33.3176 19.9514 33.2153C19.9514 33.1131 19.9667 33.0108 19.9973 32.6293L20.0706 31.7126C20.1313 30.9582 20.4585 30.25 20.9937 29.7149C21.5288 29.1797 22.237 28.8525 22.9914 28.7918L23.8308 28.7246C24.6576 28.6587 35.9614 28.6255 36.7907 28.6255C37.6201 28.6255 48.9235 28.6587 49.7507 28.7246L50.5897 28.7918C51.3441 28.8525 52.0522 29.1797 52.5874 29.7149C53.1225 30.25 53.4498 30.9582 53.5105 31.7126L53.5777 32.552L53.5798 32.5784C53.6437 33.3797 53.6472 33.4239 53.5777 33.8812L53.5105 34.7207C53.4492 35.4746 53.1217 36.1821 52.5866 36.7168C51.8296 37.4731 51.0048 38.3633 51.0183 39.4333C51.0507 41.9902 51.0214 45.1349 50.9224 45.7862L50.7783 47.569C50.6503 49.172 49.9556 50.6771 48.8185 51.8143C47.6815 52.9516 46.1766 53.6467 44.5736 53.775L42.7908 53.9173C41.0412 54.0574 38.5626 54.1277 36.807 54.1277C35.0408 54.1282 32.553 54.0579 30.7912 53.9173L29.0089 53.7737C27.4061 53.6454 25.9013 52.9505 24.7643 51.8135C23.6273 50.6765 22.9324 49.1718 22.8042 47.569L22.6483 45.619C22.563 44.5626 22.5333 41.7261 22.5591 39.4294ZM45.2354 23.2568C46.3382 23.5785 47.3117 24.2393 48.0177 25.1455C48.1289 25.3186 48.1915 25.5183 48.1989 25.7239C48.2063 25.9295 48.1581 26.1332 48.0596 26.3138C47.961 26.4943 47.8157 26.645 47.6388 26.75C47.4619 26.855 47.26 26.9104 47.0543 26.9104H26.5259C26.3202 26.9104 26.1183 26.855 25.9414 26.75C25.7645 26.645 25.6192 26.4943 25.5206 26.3138C25.422 26.1332 25.3739 25.9295 25.3813 25.7239C25.3887 25.5183 25.4513 25.3186 25.5625 25.1455C26.2685 24.2393 27.2419 23.5785 28.3447 23.2568C29.4475 22.9351 30.6237 22.969 31.7061 23.3536L35.0272 24.7863C35.5839 25.0263 36.1838 25.1501 36.7901 25.1501C37.3964 25.1501 37.9963 25.0263 38.553 24.7863L41.8741 23.3536C42.9565 22.969 44.1326 22.9351 45.2354 23.2568Z" fill="white" fill-opacity="0.3"/>
<mask id="mask1_623_320" style="mask-type:luminance" maskUnits="userSpaceOnUse" x="19" y="23" width="35" height="32">
<path fill-rule="evenodd" clip-rule="evenodd" d="M22.5591 39.4294C22.5712 38.3611 21.7491 37.4712 20.9937 36.7158C20.4585 36.1806 20.1313 35.4724 20.0706 34.7181L19.9973 33.8014C19.9667 33.4198 19.9514 33.3176 19.9514 33.2153C19.9514 33.1131 19.9667 33.0108 19.9973 32.6293L20.0706 31.7126C20.1313 30.9582 20.4585 30.25 20.9937 29.7149C21.5288 29.1797 22.237 28.8525 22.9914 28.7918L23.8308 28.7246C24.6576 28.6587 35.9614 28.6255 36.7907 28.6255C37.6201 28.6255 48.9235 28.6587 49.7507 28.7246L50.5897 28.7918C51.3441 28.8525 52.0522 29.1797 52.5874 29.7149C53.1225 30.25 53.4498 30.9582 53.5105 31.7126L53.5777 32.552L53.5798 32.5784C53.6437 33.3797 53.6472 33.4239 53.5777 33.8812L53.5105 34.7207C53.4492 35.4746 53.1217 36.1821 52.5866 36.7168C51.8296 37.4731 51.0048 38.3633 51.0183 39.4333C51.0507 41.9902 51.0214 45.1349 50.9224 45.7862L50.7783 47.569C50.6503 49.172 49.9556 50.6771 48.8185 51.8143C47.6815 52.9516 46.1766 53.6467 44.5736 53.775L42.7908 53.9173C41.0412 54.0574 38.5626 54.1277 36.807 54.1277C35.0408 54.1282 32.553 54.0579 30.7912 53.9173L29.0089 53.7737C27.4061 53.6454 25.9013 52.9505 24.7643 51.8135C23.6273 50.6765 22.9324 49.1718 22.8042 47.569L22.6483 45.619C22.563 44.5626 22.5333 41.7261 22.5591 39.4294ZM45.2354 23.2568C46.3382 23.5785 47.3117 24.2393 48.0177 25.1455C48.1289 25.3186 48.1915 25.5183 48.1989 25.7239C48.2063 25.9295 48.1581 26.1332 48.0596 26.3138C47.961 26.4943 47.8157 26.645 47.6388 26.75C47.4619 26.855 47.26 26.9104 47.0543 26.9104H26.5259C26.3202 26.9104 26.1183 26.855 25.9414 26.75C25.7645 26.645 25.6192 26.4943 25.5206 26.3138C25.422 26.1332 25.3739 25.9295 25.3813 25.7239C25.3887 25.5183 25.4513 25.3186 25.5625 25.1455C26.2685 24.2393 27.2419 23.5785 28.3447 23.2568C29.4475 22.9351 30.6237 22.969 31.7061 23.3536L35.0272 24.7863C35.5839 25.0263 36.1838 25.1501 36.7901 25.1501C37.3964 25.1501 37.9963 25.0263 38.553 24.7863L41.8741 23.3536C42.9565 22.969 44.1326 22.9351 45.2354 23.2568Z" fill="white"/>
</mask>
<g mask="url(#mask1_623_320)">
<path d="M53.5778 33.8808L53.1823 33.8207L53.1802 33.8348L53.1791 33.8489L53.5778 33.8808ZM50.9225 45.7858L50.527 45.7257L50.5249 45.7396L50.5238 45.7536L50.9225 45.7858ZM48.0178 25.1451L48.3543 24.9288L48.3445 24.9136L48.3333 24.8993L48.0178 25.1451ZM25.5626 25.1451L25.247 24.8993L25.2359 24.9136L25.2261 24.9288L25.5626 25.1451ZM31.7062 23.3532L31.8647 22.9859L31.8526 22.9807L31.8401 22.9763L31.7062 23.3532ZM41.8742 23.3532L41.7402 22.9763L41.7278 22.9807L41.7157 22.9859L41.8742 23.3532ZM21.2766 36.4325C20.8086 35.9645 20.5225 35.3453 20.4694 34.6856L19.672 34.7496C19.7403 35.5987 20.1086 36.3959 20.7109 36.9982L21.2766 36.4325ZM20.4694 34.6856L20.3961 33.7691L19.5986 33.8329L19.672 34.7496L20.4694 34.6856ZM20.3961 33.7691C20.363 33.3567 20.3515 33.2964 20.3515 33.2149H19.5515C19.5515 33.338 19.5705 33.4823 19.5986 33.8329L20.3961 33.7691ZM20.3515 33.2149C20.3515 33.1335 20.363 33.0733 20.3961 32.6608L19.5986 32.597C19.5705 32.9475 19.5515 33.0918 19.5515 33.2149H20.3515ZM20.3961 32.6608L20.4694 31.7441L19.672 31.6801L19.5986 32.597L20.3961 32.6608ZM20.4694 31.7441C20.5225 31.0844 20.8086 30.4653 21.2766 29.9973L20.7109 29.4316C20.1086 30.034 19.7403 30.831 19.672 31.6801L20.4694 31.7441ZM21.2766 29.9973C21.7446 29.5293 22.3639 29.2432 23.0235 29.1901L22.9595 28.3927C22.1104 28.461 21.3133 28.8293 20.7109 29.4316L21.2766 29.9973ZM23.0235 29.1901L23.8628 29.1229L23.7991 28.3255L22.9595 28.3927L23.0235 29.1901ZM23.8628 29.1229C24.2566 29.0915 27.2644 29.0665 30.3121 29.0499C33.3448 29.0334 36.3772 29.0251 36.7908 29.0251V28.2251C36.3751 28.2251 33.3409 28.2334 30.3077 28.2499C27.2894 28.2664 24.232 28.2909 23.7991 28.3255L23.8628 29.1229ZM36.7908 29.0251C37.2045 29.0251 40.2368 29.0334 43.2695 29.0499C46.317 29.0665 49.3249 29.0915 49.719 29.1229L49.7827 28.3255C49.3495 28.2909 46.2921 28.2664 43.2738 28.2499C40.2406 28.2334 37.2066 28.2251 36.7908 28.2251V29.0251ZM49.719 29.1229L50.5578 29.1901L50.6219 28.3927L49.7827 28.3255L49.719 29.1229ZM50.5578 29.1901C51.2175 29.2432 51.8367 29.5293 52.3047 29.9973L52.8703 29.4316C52.268 28.8293 51.471 28.461 50.6219 28.3927L50.5578 29.1901ZM52.3047 29.9973C52.7726 30.4653 53.0588 31.0846 53.1119 31.7443L53.9093 31.6803C53.841 30.8312 53.4727 30.034 52.8703 29.4316L52.3047 29.9973ZM53.1119 31.7443L53.1791 32.5836L53.9765 32.5199L53.9093 31.6803L53.1119 31.7443ZM53.1791 32.5836L53.1812 32.6097L53.9786 32.5462L53.9765 32.5199L53.1791 32.5836ZM53.1812 32.6097C53.2137 33.0183 53.2287 33.2102 53.2289 33.3588C53.229 33.4944 53.2168 33.5938 53.1823 33.8207L53.9732 33.941C54.0083 33.7105 54.0291 33.5592 54.0289 33.358C54.0287 33.1699 54.0099 32.9389 53.9786 32.5462L53.1812 32.6097ZM53.1791 33.8489L53.1118 34.6883L53.9092 34.7527L53.9765 33.9128L53.1791 33.8489ZM53.1118 34.6883C53.0582 35.3475 52.7719 35.9659 52.304 36.4334L52.8694 36.9993C53.4717 36.3976 53.8403 35.6012 53.9092 34.7527L53.1118 34.6883ZM51.3179 45.8459C51.3726 45.4862 51.4042 44.5036 51.4197 43.3292C51.4354 42.1382 51.4346 40.7094 51.4184 39.4279L50.6185 39.438C50.6346 40.7133 50.6354 42.1353 50.6197 43.3187C50.6039 44.5186 50.5713 45.434 50.527 45.7257L51.3179 45.8459ZM51.1771 47.6008L51.3212 45.818L50.5238 45.7536L50.3797 47.5363L51.1771 47.6008ZM49.1015 52.0967C50.3057 50.8923 51.0415 49.2986 51.1771 47.6008L50.3797 47.5363C50.2593 49.0446 49.6056 50.4611 48.5358 51.5311L49.1015 52.0967ZM44.6055 54.1733C46.3033 54.0374 47.8973 53.3012 49.1015 52.0967L48.5358 51.5311C47.466 52.6011 46.05 53.2551 44.5418 53.3759L44.6055 54.1733ZM42.8227 54.3156L44.6055 54.1733L44.5418 53.3759L42.7591 53.5182L42.8227 54.3156ZM36.8071 54.5273C38.5695 54.5273 41.0592 54.4569 42.8227 54.3156L42.7591 53.5182C41.0234 53.6572 38.556 53.7273 36.8071 53.7273V54.5273ZM30.7592 54.3156C32.5349 54.4572 35.0342 54.5278 36.8071 54.5273V53.7273C35.0477 53.7278 32.5711 53.6576 30.8231 53.5182L30.7592 54.3156ZM28.9769 54.172L30.7592 54.3156L30.8231 53.5182L29.0411 53.3746L28.9769 54.172ZM24.4816 52.096C25.6858 53.3002 27.2793 54.0362 28.9769 54.172L29.0411 53.3746C27.533 53.2539 26.1171 52.6 25.0473 51.5303L24.4816 52.096ZM22.4055 47.6004C22.5414 49.2979 23.2774 50.8918 24.4816 52.096L25.0473 51.5303C23.9775 50.4605 23.3237 49.0447 23.203 47.5366L22.4055 47.6004ZM22.2497 45.6505L22.4055 47.6004L23.203 47.5366L23.0471 45.5867L22.2497 45.6505ZM22.1593 39.4245C22.1334 41.7193 22.1627 44.5731 22.2497 45.6505L23.0471 45.5867C22.9635 44.5513 22.9333 41.7321 22.9592 39.4335L22.1593 39.4245ZM48.3333 24.8993C47.5757 23.9268 46.531 23.2176 45.3475 22.8724L45.1235 23.6404C46.1457 23.9385 47.0479 24.551 47.7022 25.391L48.3333 24.8993ZM48.5987 25.7092C48.5888 25.4318 48.5043 25.1623 48.3543 24.9288L47.6813 25.3614C47.7537 25.474 47.7945 25.6041 47.7992 25.7378L48.5987 25.7092ZM48.4108 26.505C48.5438 26.2614 48.6087 25.9865 48.5987 25.7092L47.7992 25.7378C47.804 25.8716 47.7727 26.0042 47.7086 26.1217L48.4108 26.505ZM47.843 27.0936C48.0817 26.9519 48.2778 26.7486 48.4108 26.505L47.7086 26.1217C47.6444 26.2392 47.5498 26.3373 47.4347 26.4056L47.843 27.0936ZM47.0544 27.31C47.3319 27.31 47.6043 27.2352 47.843 27.0936L47.4347 26.4056C47.3196 26.4739 47.1882 26.51 47.0544 26.51V27.31ZM26.526 27.31H47.0544V26.51H26.526V27.31ZM25.7374 27.0936C25.976 27.2352 26.2484 27.31 26.526 27.31V26.51C26.3922 26.51 26.2608 26.4739 26.1457 26.4056L25.7374 27.0936ZM25.1696 26.505C25.3026 26.7486 25.4987 26.9519 25.7374 27.0936L26.1457 26.4056C26.0305 26.3373 25.9359 26.2392 25.8718 26.1217L25.1696 26.505ZM24.9816 25.7092C24.9717 25.9865 25.0366 26.2614 25.1696 26.505L25.8718 26.1217C25.8077 26.0042 25.7763 25.8716 25.7811 25.7378L24.9816 25.7092ZM25.2261 24.9288C25.076 25.1623 24.9916 25.4318 24.9816 25.7092L25.7811 25.7378C25.7859 25.6041 25.8267 25.474 25.8991 25.3614L25.2261 24.9288ZM28.2328 22.8724C27.0493 23.2176 26.0047 23.9268 25.247 24.8993L25.8781 25.391C26.5325 24.551 27.4347 23.9385 28.4568 23.6404L28.2328 22.8724ZM31.8401 22.9763C30.6785 22.5636 29.4163 22.5272 28.2328 22.8724L28.4568 23.6404C29.479 23.3423 30.569 23.3737 31.5723 23.7301L31.8401 22.9763ZM35.1857 24.4186L31.8647 22.9859L31.5478 23.7205L34.8688 25.1532L35.1857 24.4186ZM36.7902 24.7497C36.2384 24.7497 35.6924 24.637 35.1857 24.4186L34.8688 25.1532C35.4756 25.4148 36.1294 25.5497 36.7902 25.5497V24.7497ZM38.3947 24.4186C37.888 24.637 37.342 24.7497 36.7902 24.7497V25.5497C37.4509 25.5497 38.1047 25.4148 38.7115 25.1532L38.3947 24.4186ZM41.7157 22.9859L38.3947 24.4186L38.7115 25.1532L42.0326 23.7205L41.7157 22.9859ZM45.3475 22.8724C44.1641 22.5272 42.9019 22.5636 41.7402 22.9763L42.0081 23.7301C43.0113 23.3737 44.1014 23.3423 45.1235 23.6404L45.3475 22.8724ZM52.304 36.4334C51.9252 36.8118 51.5038 37.2483 51.1803 37.7359C50.855 38.2261 50.6103 38.7948 50.6185 39.438L51.4184 39.4279C51.413 39.001 51.5739 38.5896 51.8469 38.1781C52.1217 37.7641 52.4912 37.3772 52.8694 36.9993L52.304 36.4334ZM20.7109 36.9982C21.0882 37.3755 21.4567 37.7621 21.7308 38.1758C22.0032 38.5869 22.1641 38.9981 22.1593 39.4245L22.9592 39.4335C22.9664 38.7916 22.7222 38.2237 22.3977 37.7339C22.075 37.2467 21.6548 36.8107 21.2766 36.4325L20.7109 36.9982Z" fill="url(#paint0_linear_623_320)"/>
</g>
</g>
<path d="M38.7914 47.7721C38.7913 47.9575 38.7217 48.1362 38.5964 48.2729C38.4711 48.4096 38.2991 48.4944 38.1144 48.5107C37.801 48.5386 37.3649 48.5613 36.7795 48.5613C36.219 48.5613 35.769 48.5338 35.4376 48.5028C35.2542 48.4849 35.0841 48.3994 34.9602 48.263C34.8363 48.1266 34.7677 47.9489 34.7676 47.7646V38.9032C34.7676 38.7064 34.8458 38.5177 34.9849 38.3785C35.1241 38.2393 35.3129 38.1611 35.5097 38.1611H38.0511C38.2479 38.1611 38.4367 38.2393 38.5758 38.3785C38.715 38.5177 38.7932 38.7064 38.7932 38.9032L38.7914 47.7721Z" fill="white"/>
</g>
<defs>
<filter id="filter0_i_623_320" x="19.9514" y="23.0381" width="33.6775" height="31.0898" filterUnits="userSpaceOnUse" color-interpolation-filters="sRGB">
<feFlood flood-opacity="0" result="BackgroundImageFix"/>
<feBlend mode="normal" in="SourceGraphic" in2="BackgroundImageFix" result="shape"/>
<feColorMatrix in="SourceAlpha" type="matrix" values="0 0 0 0 0 0 0 0 0 0 0 0 0 0 0 0 0 0 127 0" result="hardAlpha"/>
<feOffset/>
<feGaussianBlur stdDeviation="0.420141"/>
<feComposite in2="hardAlpha" operator="arithmetic" k2="-1" k3="1"/>
<feColorMatrix type="matrix" values="0 0 0 0 1 0 0 0 0 1 0 0 0 0 1 0 0 0 0.25 0"/>
<feBlend mode="normal" in2="shape" result="effect1_innerShadow_623_320"/>
</filter>
<linearGradient id="paint0_linear_623_320" x1="24.3442" y1="24.7032" x2="45.7199" y2="52.1831" gradientUnits="userSpaceOnUse">
<stop stop-color="white" stop-opacity="0.97"/>
<stop offset="1" stop-color="#3C5BFF" stop-opacity="0.42"/>
</linearGradient>
</defs>
</svg>
