<svg width="50" height="51" viewBox="0 0 50 51" fill="none" xmlns="http://www.w3.org/2000/svg">
<path d="M25 0.5C11.2 0.5 0 11.7 0 25.5C0 39.3 11.2 50.5 25 50.5C38.8 50.5 50 39.3 50 25.5C50 11.7 38.8 0.5 25 0.5ZM25 10.5C29.825 10.5 33.75 14.425 33.75 19.25C33.75 24.075 29.825 28 25 28C20.175 28 16.25 24.075 16.25 19.25C16.25 14.425 20.175 10.5 25 10.5ZM25 45.5C19.925 45.5 13.925 43.45 9.65 38.3C14.0296 34.8655 19.4344 32.999 25 32.999C30.5656 32.999 35.9704 34.8655 40.35 38.3C36.075 43.45 30.075 45.5 25 45.5Z" fill="#FAFAFA"/>
</svg>
