<svg width="24" height="24" viewBox="0 0 24 24" fill="none" xmlns="http://www.w3.org/2000/svg">
<g id="material-symbols:casino">
<path id="Vector" d="M7.5 18C7.91667 18 8.271 17.8543 8.563 17.563C8.855 17.2717 9.00067 16.9173 9 16.5C9 16.0833 8.85433 15.7293 8.563 15.438C8.27167 15.1467 7.91733 15.0007 7.5 15C7.08333 15 6.72933 15.146 6.438 15.438C6.14667 15.73 6.00067 16.084 6 16.5C6 16.9167 6.146 17.271 6.438 17.563C6.73 17.855 7.084 18.0007 7.5 18ZM7.5 9C7.91667 9 8.271 8.85433 8.563 8.563C8.855 8.27167 9.00067 7.91733 9 7.5C9 7.08333 8.85433 6.72933 8.563 6.438C8.27167 6.14667 7.91733 6.00067 7.5 6C7.08333 6 6.72933 6.146 6.438 6.438C6.14667 6.73 6.00067 7.084 6 7.5C6 7.91667 6.146 8.271 6.438 8.563C6.73 8.855 7.084 9.00067 7.5 9ZM12 13.5C12.4167 13.5 12.771 13.3543 13.063 13.063C13.355 12.7717 13.5007 12.4173 13.5 12C13.5 11.5833 13.3543 11.2293 13.063 10.938C12.7717 10.6467 12.4173 10.5007 12 10.5C11.5833 10.5 11.2293 10.646 10.938 10.938C10.6467 11.23 10.5007 11.584 10.5 12C10.5 12.4167 10.646 12.771 10.938 13.063C11.23 13.355 11.584 13.5007 12 13.5ZM16.5 18C16.9167 18 17.271 17.8543 17.563 17.563C17.855 17.2717 18.0007 16.9173 18 16.5C18 16.0833 17.8543 15.7293 17.563 15.438C17.2717 15.1467 16.9173 15.0007 16.5 15C16.0833 15 15.7293 15.146 15.438 15.438C15.1467 15.73 15.0007 16.084 15 16.5C15 16.9167 15.146 17.271 15.438 17.563C15.73 17.855 16.084 18.0007 16.5 18ZM16.5 9C16.9167 9 17.271 8.85433 17.563 8.563C17.855 8.27167 18.0007 7.91733 18 7.5C18 7.08333 17.8543 6.72933 17.563 6.438C17.2717 6.14667 16.9173 6.00067 16.5 6C16.0833 6 15.7293 6.146 15.438 6.438C15.1467 6.73 15.0007 7.084 15 7.5C15 7.91667 15.146 8.271 15.438 8.563C15.73 8.855 16.084 9.00067 16.5 9ZM5 21C4.45 21 3.97933 20.8043 3.588 20.413C3.19667 20.0217 3.00067 19.5507 3 19V5C3 4.45 3.196 3.97933 3.588 3.588C3.98 3.19667 4.45067 3.00067 5 3H19C19.55 3 20.021 3.196 20.413 3.588C20.805 3.98 21.0007 4.45067 21 5V19C21 19.55 20.8043 20.021 20.413 20.413C20.0217 20.805 19.5507 21.0007 19 21H5Z" fill="white" fill-opacity="0.7"/>
</g>
</svg>
