<svg width="49" height="46" viewBox="0 0 49 46" fill="none" xmlns="http://www.w3.org/2000/svg">
<path fill-rule="evenodd" clip-rule="evenodd" d="M4.61564 0.5C2.43405 0.5 0.665527 2.17893 0.665527 4.25V41.75C0.665527 43.821 2.43405 45.5 4.61564 45.5H44.1168C46.2983 45.5 48.0669 43.821 48.0669 41.75V4.25C48.0669 2.17893 46.2983 0.5 44.1168 0.5H4.61564ZM17.7827 9.25C20.6794 9.25 23.0495 11.5 23.0495 14.25C23.0495 17 20.6794 19.25 17.7827 19.25C14.8859 19.25 12.5159 17 12.5159 14.25C12.5159 11.5 14.8859 9.25 17.7827 9.25ZM41.4808 40.5H7.24115C6.16146 40.5 5.55577 39.35 6.18779 38.525L15.5443 28.3975C16.0446 27.8725 16.9137 27.8725 17.4404 28.3725L21.7328 33L29.791 21.0475C30.3441 20.2975 31.5028 20.3225 32.0031 21.0975L42.6395 38.625C43.1135 39.475 42.4815 40.5 41.4808 40.5Z" fill="#D2D2D2"/>
</svg>
