<svg width="336" height="68" viewBox="0 0 336 68" fill="none" xmlns="http://www.w3.org/2000/svg">
<g filter="url(#filter0_d_2_174)">
<path d="M54.2508 13.3821H12.3248C12.594 18.6313 10.5751 22.3326 8.28699 24.015C6.13348 25.5628 3.23971 25.4283 2.23026 23.342C1.42269 21.4577 2.49944 19.6407 4.24917 18.4967C7.21023 16.8142 10.104 12.1707 10.0367 6.92158H11.0462C11.5845 8.53671 11.921 10.0172 12.1229 11.4305H29.2164V1.20134L38.3014 1.9416C38.1668 2.88376 37.5612 3.55673 35.8115 3.82592V11.4305H54.1162L57.8176 7.66185L64.2781 13.9205C63.7397 14.4588 62.9994 14.5934 61.6535 14.6607C59.2308 16.8142 54.9911 19.9099 51.8281 21.7269L51.2225 21.2558C52.0973 19.1696 53.376 15.9394 54.2508 13.3821ZM41.9355 22.5345L45.5695 18.0929C45.5695 18.0929 49.7419 21.1212 52.2992 23.4093C52.0973 24.1496 51.4917 24.4861 50.4822 24.4861H13.738L13.267 22.5345H41.9355ZM61.7208 46.8287L61.99 55.51C63.8743 56.183 64.3454 56.9905 64.3454 58.2692C64.3454 61.0284 61.7881 62.1724 50.6168 62.1724H43.416C37.0901 62.1724 35.7442 60.8938 35.7442 56.3176V35.5228H27.7358C26.5245 48.1073 23.4961 57.9327 1.82647 63.6529L1.1535 62.7108C17.7759 55.4427 20.064 46.0884 20.8042 35.5228H2.76863L2.16296 33.6385H52.5684L56.4043 28.995C56.4043 28.995 60.7113 32.2253 63.3359 34.4461C63.134 35.1863 62.3938 35.5228 61.4516 35.5228H42.1374V36.3977V54.837C42.1374 55.9138 42.4066 56.183 44.6947 56.183H51.2225C53.6452 56.183 55.7987 56.183 56.8081 56.1157C57.683 56.0484 58.0195 55.8465 58.4232 55.1735C59.0289 54.0968 59.9711 50.7992 61.0478 46.8287H61.7208ZM118.991 59.3459L123.028 54.2314C123.028 54.2314 127.605 57.7308 130.364 60.2208C130.162 60.9611 129.422 61.2976 128.547 61.2976H71.277L70.6713 59.3459H96.3787V44.8098H79.2853L78.7469 42.9255H96.3787V30.139H80.8331L80.3621 28.1874H110.107L113.741 23.8131C113.741 23.8131 117.914 26.8415 120.336 29.0623C120.202 29.8026 119.462 30.139 118.587 30.139H103.108V42.9255H112.934L116.77 38.2147C116.77 38.2147 121.077 41.4449 123.769 43.733C123.567 44.4733 122.894 44.8098 121.952 44.8098H103.108V59.3459H118.991ZM95.9077 0.93215L106.473 3.69133C106.271 4.56619 105.329 4.90267 103.378 5.10457C109.434 13.7186 121.413 19.7753 132.315 23.7458L132.248 24.688C129.287 25.4283 127.268 28.2547 126.73 30.7447C116.299 25.0918 106.675 16.5451 102.166 5.84483C95.6385 16.2759 81.6407 27.5145 68.6524 33.3693L68.1813 32.4944C79.5545 25.2937 92.6774 10.8248 95.9077 0.93215ZM160.244 27.2453L160.513 28.1201C158.09 29.668 154.927 31.5523 151.158 33.7731V55.8465C151.158 60.4227 150.284 62.98 143.15 63.7202C142.948 61.8359 142.679 60.2881 141.804 59.2786C140.929 58.2692 139.583 57.5962 136.892 57.1924V56.183C136.892 56.183 142.544 56.5868 143.756 56.5868C144.833 56.5868 145.169 56.2503 145.169 55.3754V37.2052C143.352 38.2147 141.4 39.2914 139.314 40.3682C139.045 41.243 138.507 41.9833 137.766 42.2525L135.007 34.4461C137.026 34.0423 140.727 33.0328 145.169 31.7542V18.8332H136.488L135.949 16.8815H145.169V1.20134L153.648 2.0762C153.514 3.01836 152.841 3.69133 151.158 3.96052V16.8815H152.235L155.398 12.3053C155.398 12.3053 158.965 15.4683 160.984 17.7564C160.782 18.4967 160.109 18.8332 159.167 18.8332H151.158V30.0045C154.12 29.1296 157.148 28.1874 160.244 27.2453ZM168.79 56.5868H187.903V39.0222H168.79V56.5868ZM187.23 37.0706L190.325 33.7058L196.92 38.7531C196.449 39.2914 195.507 39.8298 194.161 40.099V61.7686C194.094 62.1724 190.998 63.3838 188.912 63.3838H187.903V58.5384H168.79V61.8359C168.79 62.4416 166.166 63.7875 163.608 63.7875H162.666V34.3788L169.127 37.0706H187.23ZM192.344 2.27809L198.401 7.25807C197.93 7.79644 197.122 8.13293 195.844 8.33482C195.373 21.3904 194.363 27.7836 191.537 30.0717C189.72 31.5523 187.297 32.2253 184.269 32.2253C184.336 30.4082 184.067 28.8604 183.125 27.9855C182.182 27.1107 180.029 26.3031 177.674 25.8993V24.8899C180.029 25.0918 183.932 25.361 185.211 25.361C186.288 25.361 186.759 25.2264 187.23 24.7553C188.576 23.6112 189.249 17.7564 189.652 7.39266H178.75C176.933 19.9099 171.348 28.7258 158.628 34.1769L158.157 33.3693C167.444 26.7742 170.809 18.0929 171.751 7.39266H160.849L160.244 5.44105H189.047L192.344 2.27809ZM226.195 13.0456L225.656 11.094H239.519V1.26863L248.268 2.0089C248.201 2.88376 247.662 3.48943 246.115 3.75862V11.094H252.373L255.94 6.5178C255.94 6.5178 260.045 9.68076 262.535 11.9689C262.4 12.7091 261.66 13.0456 260.718 13.0456H246.115V23.6112H255.132L258.901 18.8332C258.901 18.8332 263.141 22.1307 265.698 24.4861C265.496 25.1591 264.823 25.4956 263.814 25.4956H223.57L223.032 23.6112H239.519V13.0456H226.195ZM216.235 1.06675L224.31 5.37375C223.974 5.97942 223.368 6.38321 221.753 6.11402C217.648 10.6229 210.649 16.6124 203.717 20.5829L202.977 19.8426C208.159 14.5261 213.677 6.31591 216.235 1.06675ZM217.85 14.4588L226.06 18.6313C225.724 19.3715 225.118 19.708 223.503 19.5061C222.022 21.7269 220.138 24.2169 217.984 26.7742L220.542 27.7164C220.34 28.322 219.667 28.7931 218.523 28.995V61.7013C218.455 62.1724 215.898 63.7202 213.475 63.7202H212.264V32.8982C209.572 35.5228 206.611 38.0128 203.516 40.099L202.775 39.3587C209.034 32.3598 215.091 21.5923 217.85 14.4588ZM228.617 39.2241L229.29 38.8204C245.442 43.1274 239.789 54.5006 234.001 50.059C233.53 46.3576 230.905 42.0506 228.617 39.2241ZM256.276 35.1863L259.91 30.2736C259.91 30.2736 263.948 33.7731 266.371 36.0612C266.236 36.8014 265.563 37.1379 264.554 37.1379H254.392V55.3081C254.392 60.1535 253.383 62.98 244.701 63.7875C244.432 61.634 244.028 60.0862 242.817 59.0095C241.538 57.9327 239.587 57.1251 235.751 56.5195V55.5773C235.751 55.5773 244.567 56.183 246.249 56.183C247.528 56.183 247.932 55.7119 247.932 54.7697V37.1379H222.964L222.426 35.1863H247.932V26.5723L256.747 27.4472C256.613 28.3893 255.94 28.9277 254.392 29.1969V35.1863H256.276ZM300.221 23.7458L303.721 19.1696C303.721 19.1696 307.759 22.3326 310.249 24.5534C310.047 25.2937 309.374 25.6301 308.432 25.6301H292.549V33.6385H299.279L302.038 30.3409L308.701 35.1863C308.297 35.7247 307.288 36.3304 305.874 36.5996V51.2703C305.874 55.4427 305.134 57.8654 299.01 58.4711C298.943 56.7214 298.808 55.2408 298.202 54.2987C297.731 53.4911 296.856 52.8854 295.039 52.5489V51.5395C295.039 51.5395 298.068 51.7414 298.943 51.7414C299.75 51.7414 299.952 51.4722 299.952 50.6646V35.5228H292.549V61.4321C292.549 62.2397 290.059 63.6529 287.771 63.6529H286.627V35.5228H279.359V56.9232C279.359 57.4616 276.869 58.8076 274.447 58.8076H273.504V31.0139L279.763 33.6385H286.627V25.6301H270.611L270.072 23.7458H286.627V14.8626H278.552C276.667 17.7564 274.514 20.381 272.293 22.3999L271.284 21.7942C273.504 17.1507 275.658 10.0845 276.869 3.35484L285.214 5.71024C284.945 6.5178 284.137 7.12347 282.724 7.12347C281.849 9.14238 280.84 11.094 279.763 12.911H286.627V1.60512L295.039 2.47998C294.838 3.42214 294.366 4.09511 292.549 4.3643V12.911H298.539L301.971 8.33482C301.971 8.33482 305.942 11.4978 308.364 13.7859C308.23 14.5261 307.489 14.8626 306.547 14.8626H292.549V23.7458H300.221ZM317.719 9.20968V47.5017C317.719 48.1746 315.296 49.3187 313.142 49.3187H312.066V6.5851L320.074 7.39266C319.939 8.33482 319.401 8.94049 317.719 9.20968ZM324.179 2.41268L332.591 3.28755C332.389 4.2297 331.716 4.90267 330.168 5.10457V55.8465C330.168 60.4227 329.226 62.98 321.824 63.7202C321.689 61.8359 321.353 60.3554 320.41 59.3459C319.468 58.4038 317.92 57.6635 314.892 57.2597V56.2503C314.892 56.2503 321.353 56.7214 322.766 56.7214C323.843 56.7214 324.179 56.3176 324.179 55.3754V2.41268Z" fill="url(#paint0_linear_2_174)"/>
</g>
<defs>
<filter id="filter0_d_2_174" x="0.671933" y="0.932129" width="335.289" height="66.7065" filterUnits="userSpaceOnUse" color-interpolation-filters="sRGB">
<feFlood flood-opacity="0" result="BackgroundImageFix"/>
<feColorMatrix in="SourceAlpha" type="matrix" values="0 0 0 0 0 0 0 0 0 0 0 0 0 0 0 0 0 0 127 0" result="hardAlpha"/>
<feOffset dx="1.44416" dy="1.92555"/>
<feGaussianBlur stdDeviation="0.962774"/>
<feComposite in2="hardAlpha" operator="out"/>
<feColorMatrix type="matrix" values="0 0 0 0 0.154346 0 0 0 0 0.154346 0 0 0 0 0.154346 0 0 0 1 0"/>
<feBlend mode="normal" in2="BackgroundImageFix" result="effect1_dropShadow_2_174"/>
<feBlend mode="normal" in="SourceGraphic" in2="effect1_dropShadow_2_174" result="shape"/>
</filter>
<linearGradient id="paint0_linear_2_174" x1="-1" y1="28.5012" x2="336" y2="28.5012" gradientUnits="userSpaceOnUse">
<stop stop-color="#F0C48F"/>
<stop offset="0.36" stop-color="#835120"/>
<stop offset="1" stop-color="#EAD69C"/>
</linearGradient>
</defs>
</svg>
