<svg width="329" height="61" viewBox="0 0 329 61" fill="none" xmlns="http://www.w3.org/2000/svg">
<g filter="url(#filter0_d_2_173)">
<path d="M27.6296 2.93104V1.78699C28.9755 1.11402 31.3309 0.171862 33.4171 0.171862C36.9839 0.171862 41.1563 2.86374 41.1563 4.20968C41.1563 5.75751 40.0795 6.0267 39.743 8.38209C39.4066 10.401 39.272 12.9583 39.2047 15.1118C48.4917 13.9677 49.0973 12.7564 50.1741 12.7564C52.9333 12.7564 57.4422 15.3137 57.4422 17.3326C57.4422 18.6112 56.5673 19.5534 55.1541 19.5534C52.3276 19.5534 47.4822 18.8804 39.1374 19.4861C39.0701 25.2736 39.2047 34.8971 39.4066 39.9444C39.5412 43.3765 39.9449 45.53 39.9449 47.8854C39.9449 51.5195 37.2531 55.0189 34.8977 55.0189C32.6769 55.0189 32.6096 52.4616 30.7925 50.8465C28.9755 49.0968 26.2164 47.8854 23.5245 46.4722L23.9283 45.3281C26.9566 45.8665 30.2542 46.5395 32.3404 46.6741C33.2152 46.7414 33.7536 46.3376 33.8209 45.4627C34.0228 43.04 33.9555 34.8971 33.8882 27.0907C27.2931 36.0412 14.9105 45.6646 2.25862 50.51L1.38376 49.2314C13.4972 41.7614 25.005 30.4555 30.5234 20.361C26.1491 20.9666 22.3131 21.7069 19.3521 22.3126C16.2564 22.9855 14.4394 24.1296 12.4878 24.1296C10.3343 24.1296 6.96941 20.4956 6.22914 18.6785C5.75806 17.5345 5.69077 16.1212 5.69077 14.6407L6.76752 14.1696C8.44994 16.4577 9.93048 17.8037 12.084 17.7364C16.7948 17.7364 26.5528 16.4577 33.7536 15.6502C33.7536 12.7564 33.6863 8.85317 33.5517 6.56507C33.5517 5.21913 33.1479 4.68076 32.0039 4.07508C30.7252 3.33482 29.1101 3.13293 27.6296 2.93104ZM75.6123 7.50723L76.3526 6.22859C84.8993 7.77642 95.1958 11.9488 95.1958 18.2075C95.1958 20.2264 93.7825 21.8415 91.6963 21.8415C89.9466 21.8415 88.8025 20.832 87.0528 18.5439C83.8226 14.3715 81.8037 11.9488 75.6123 7.50723ZM82.6785 44.386C89.0044 44.386 114.645 26.2831 124.268 12.7564L125.614 13.6313C117.808 28.2347 105.425 39.6079 90.2158 49.0968C88.3988 50.2408 87.5912 52.1924 85.8415 52.1924C82.4766 52.1924 78.1023 48.5584 76.6891 46.1357C75.9488 44.7898 75.3432 42.3671 75.2759 40.7519L76.2853 40.1463C78.035 42.0306 80.3231 44.386 82.6785 44.386ZM142.842 21.6396C142.371 20.2937 142.169 19.0823 142.102 17.5345L143.246 16.9961C144.928 19.0823 146.14 20.4956 148.495 20.4956C152.533 20.4956 170.636 18.1402 175.548 17.3326C177.836 16.9961 178.577 15.7175 179.923 15.7175C182.413 15.7175 187.46 19.8226 187.46 22.1107C187.46 23.6585 184.566 24.6007 183.355 26.8888C176.894 39.2714 166.261 50.3754 147.351 56.5667L146.543 55.1535C162.425 46.9433 172.924 34.426 177.365 22.5145C177.635 21.7069 177.365 21.3704 176.558 21.4377C172.184 21.7742 158.051 24.1969 153.677 25.3409C151.658 25.8793 150.514 27.0907 149.033 27.0907C146.678 27.0907 143.515 23.5912 142.842 21.6396ZM179.855 5.08454C179.855 6.29589 179.115 7.10345 176.962 7.57453C171.78 8.71858 162.56 10.3337 156.638 10.3337C152.802 10.3337 150.716 8.1129 148.36 3.8059L149.168 3.06563C151.86 4.88265 154.013 5.35373 156.234 5.35373C160.878 5.35373 164.579 4.34427 167.607 3.53671C171.309 2.66185 172.184 1.6524 173.395 1.6524C177.231 1.6524 179.855 2.86374 179.855 5.08454ZM233.876 1.6524L234.28 0.508346C235.963 0.44105 237.847 0.44105 239.597 1.04672C242.827 2.05618 246.394 5.48832 246.394 7.57453C246.394 9.32425 244.98 9.25695 243.096 11.2086C240.673 13.6986 237.309 17.3326 233.203 21.2358C235.29 22.6491 236.905 23.9277 236.905 25.0717C236.905 26.1485 236.366 27.2253 236.232 29.0423C235.895 38.3966 236.366 48.3565 236.366 52.0578C236.366 54.7497 235.357 56.163 233.338 56.163C230.377 56.163 228.964 52.7981 228.964 49.9043C228.964 48.6257 229.435 47.2125 229.704 44.9917C230.377 39.2041 230.579 30.119 230.444 27.0907C230.377 25.9466 230.242 25.139 229.771 24.3315C225.33 28.1001 215.437 35.6374 203.526 39.9444L202.718 38.5311C218.196 29.7825 231.185 16.3231 236.03 9.05506C237.241 7.23805 237.847 5.9594 237.847 5.21913C237.847 4.00779 236.299 2.86374 233.876 1.6524ZM275.466 7.50723L276.206 6.22859C284.753 7.77642 295.049 11.9488 295.049 18.2075C295.049 20.2264 293.636 21.8415 291.55 21.8415C289.8 21.8415 288.656 20.832 286.906 18.5439C283.676 14.3715 281.657 11.9488 275.466 7.50723ZM282.532 44.386C288.858 44.386 314.498 26.2831 324.122 12.7564L325.468 13.6313C317.661 28.2347 305.279 39.6079 290.069 49.0968C288.252 50.2408 287.445 52.1924 285.695 52.1924C282.33 52.1924 277.956 48.5584 276.543 46.1357C275.802 44.7898 275.197 42.3671 275.129 40.7519L276.139 40.1463C277.889 42.0306 280.177 44.386 282.532 44.386Z" fill="url(#paint0_linear_2_173)"/>
</g>
<defs>
<filter id="filter0_d_2_173" x="0.902402" y="0.17186" width="327.935" height="60.246" filterUnits="userSpaceOnUse" color-interpolation-filters="sRGB">
<feFlood flood-opacity="0" result="BackgroundImageFix"/>
<feColorMatrix in="SourceAlpha" type="matrix" values="0 0 0 0 0 0 0 0 0 0 0 0 0 0 0 0 0 0 127 0" result="hardAlpha"/>
<feOffset dx="1.44416" dy="1.92555"/>
<feGaussianBlur stdDeviation="0.962774"/>
<feComposite in2="hardAlpha" operator="out"/>
<feColorMatrix type="matrix" values="0 0 0 0 0.154346 0 0 0 0 0.154346 0 0 0 0 0.154346 0 0 0 1 0"/>
<feBlend mode="normal" in2="BackgroundImageFix" result="effect1_dropShadow_2_173"/>
<feBlend mode="normal" in="SourceGraphic" in2="effect1_dropShadow_2_173" result="shape"/>
</filter>
<linearGradient id="paint0_linear_2_173" x1="-4" y1="23.5012" x2="331" y2="23.5012" gradientUnits="userSpaceOnUse">
<stop stop-color="#F0C48F"/>
<stop offset="0.36" stop-color="#835120"/>
<stop offset="1" stop-color="#EAD69C"/>
</linearGradient>
</defs>
</svg>
