<svg width="491" height="110" viewBox="0 0 491 110" fill="none" xmlns="http://www.w3.org/2000/svg">
<g filter="url(#filter0_d_2_6070)">
<path d="M81.0186 68.3842L80.8788 70.7608C80.8788 71.2268 80.6458 74.1625 80.1798 79.5681C79.807 83.6688 79.6206 86.8376 79.6206 89.0743C79.6206 91.8703 79.6672 94.2003 79.7604 96.0642C79.8536 96.7166 79.9002 97.5088 79.9002 98.4408C79.9002 99.466 79.6672 99.9786 79.2012 99.9786C78.7353 99.9786 78.2227 99.5126 77.6635 98.5806C75.6131 95.2255 73.4229 93.0353 71.093 92.0101C64.1031 97.9748 56.6006 100.957 48.5855 100.957C36.3764 100.957 25.612 96.3904 16.2921 87.257C6.41307 77.5643 1.47354 65.3553 1.47354 50.6299C1.47354 36.3705 5.90048 24.4876 14.7544 14.9814C23.7014 5.38191 34.8387 0.582176 48.1661 0.582176C54.3172 0.582176 59.8159 1.98016 64.6623 4.77612C67.4582 6.3605 69.5086 7.15269 70.8134 7.15269C72.7705 7.15269 74.5879 6.2673 76.2655 4.49652C77.4771 3.19174 78.2227 2.53935 78.5023 2.53935C78.8751 2.53935 79.0614 2.86554 79.0614 3.51794C79.0614 3.79754 79.0148 4.21693 78.9217 4.77612C78.3625 7.94487 78.0829 11.8592 78.0829 16.5192C78.0829 16.9851 78.1295 18.8957 78.2227 22.2509C78.2227 25.5128 78.2227 27.703 78.2227 28.8214V31.8969C78.2227 33.5745 77.7567 34.4133 76.8247 34.4133C76.0791 34.4133 75.3335 32.5959 74.5879 28.9612C71.2328 12.1854 63.5439 3.79753 51.5212 3.79753C42.015 3.79753 35.1183 9.94865 30.8311 22.2509C27.8488 30.6388 26.3576 40.7042 26.3576 52.4473C26.3576 69.8754 29.8991 82.6436 36.9822 90.7519C40.7102 95.0391 45.6031 97.1826 51.661 97.1826C64.802 97.1826 73.4229 88.4219 77.5237 70.9006C78.1761 68.0114 78.9216 66.5669 79.7604 66.5669C80.6924 66.5669 81.1118 67.1726 81.0186 68.3842ZM181.637 97.602C181.637 98.3476 181.264 98.8136 180.519 99C179.866 99.0932 178.096 99.1398 175.206 99.1398C174.461 99.1398 172.364 99.0932 168.916 99C162.019 98.8136 157.266 98.7204 154.656 98.7204C151.581 98.7204 148.878 98.767 146.548 98.8602C141.888 99.0466 138.719 99.1398 137.042 99.1398C134.525 99.1398 133.267 98.6738 133.267 97.7418C133.267 96.8098 135.923 96.2972 141.236 96.204C142.54 96.204 143.519 96.1108 144.171 95.9244C145.662 95.738 146.408 95.1789 146.408 94.2469C146.408 93.7809 145.849 91.8237 144.73 88.3753L141.795 79.2885C141.236 77.2381 140.024 73.4636 138.16 67.9648H135.644L124.739 67.825C120.825 67.7318 116.678 67.7784 112.297 67.9648C111.459 69.8288 109.874 74.0228 107.544 80.5467L104.469 89.6335C104.003 91.0315 103.77 92.1499 103.77 92.9887C103.77 94.5731 104.795 95.5982 106.845 96.0642C107.311 96.1574 109.595 96.3438 113.695 96.6234C115 96.7166 115.652 97.136 115.652 97.8816C115.652 98.7204 114.814 99.1398 113.136 99.1398L90.0695 99C89.5103 99.0932 88.9045 99.1398 88.2521 99.1398C86.9473 99.1398 86.2949 98.6738 86.2949 97.7418C86.2949 97.1826 87.7395 96.8098 90.6286 96.6234C94.3566 96.437 96.7332 95.738 97.7583 94.5265C98.7835 93.3149 100.461 89.4005 102.791 82.7834C104.562 78.1235 107.125 71.2268 110.48 62.0933L127.396 15.5406C128.234 13.4902 129.399 10.2748 130.89 5.89451C131.916 2.72575 132.708 1.14137 133.267 1.14137C133.826 1.14137 134.851 3.28494 136.343 7.57208C138.207 13.0708 146.408 34.7861 160.947 72.718C162.811 77.5643 164.675 82.5038 166.539 87.5366C168.123 91.8237 169.708 94.4333 171.292 95.3653C172.504 96.1108 175.393 96.437 179.96 96.3438C181.078 96.3438 181.637 96.7632 181.637 97.602ZM137.181 64.8893C137.088 64.6097 136.762 63.7243 136.203 62.2331C132.475 51.4221 129.772 43.8264 128.095 39.446C127.629 38.2345 126.976 36.4637 126.137 34.1337L125.299 31.6173C123.621 35.6249 121.571 41.1702 119.147 48.2533C116.445 56.1752 114.488 61.7205 113.276 64.8893C114.115 64.8893 115.14 64.8427 116.351 64.7495C117.47 64.7495 118.495 64.7495 119.427 64.7495H127.256C129.399 64.7495 132.708 64.7961 137.181 64.8893ZM246.466 71.4598C246.466 79.9409 243.437 86.9774 237.379 92.5693C231.415 98.068 223.772 100.817 214.453 100.817C208.767 100.817 200.939 98.9068 190.966 95.0857C190.221 94.8061 189.569 94.6663 189.009 94.6663C187.425 94.6663 186.213 96.3438 185.375 99.699C185.095 100.724 184.722 101.237 184.256 101.237C183.511 101.237 183.138 100.584 183.138 99.2796C183.138 98.068 183.371 95.9244 183.837 92.8489C184.21 90.3325 184.396 87.3968 184.396 84.0416C184.396 81.3388 184.349 79.1953 184.256 77.6109C184.07 74.4421 183.977 72.5782 183.977 72.019C183.977 70.5278 184.443 69.7822 185.375 69.7822C186.307 69.7822 187.145 71.786 187.891 75.7935C189.196 82.6902 192.131 88.0492 196.698 91.8703C201.638 95.971 206.95 98.0214 212.635 98.0214C217.668 98.0214 221.908 96.437 225.357 93.2683C228.805 90.0995 230.529 86.2318 230.529 81.665C230.529 77.7507 229.411 74.6285 227.174 72.2986C225.497 70.621 220.091 67.3124 210.958 62.3729C200.799 56.9674 193.902 51.5619 190.268 46.1563C186.912 41.2168 185.235 35.3453 185.235 28.5418C185.235 20.5267 188.077 13.9096 193.762 8.69047C199.448 3.37814 206.624 0.72198 215.291 0.72198C219.951 0.72198 224.937 1.84036 230.25 4.07713C232.021 4.82272 233.279 5.19552 234.024 5.19552C235.422 5.19552 236.354 3.98393 236.82 1.56077C237.007 0.721978 237.426 0.302583 238.078 0.302583C239.01 0.302583 239.476 0.908375 239.476 2.11996C239.476 2.58595 239.383 3.89073 239.197 6.0343C239.01 8.17787 238.917 9.94865 238.917 11.3466C238.917 16.193 239.104 20.2937 239.476 23.6489C239.57 23.9285 239.616 24.3012 239.616 24.7672C239.616 25.606 239.243 26.0254 238.498 26.0254C237.659 26.0254 236.82 24.5342 235.981 21.5519C235.143 18.5695 233.652 15.6338 231.508 12.7446C229.458 9.76225 227.361 7.61868 225.217 6.3139C222.421 4.63632 219.159 3.79753 215.431 3.79753C210.212 3.79753 206.065 5.05571 202.989 7.57208C199.914 10.0884 198.376 13.5368 198.376 17.9171C198.376 21.7383 199.82 25.14 202.71 28.1224C205.599 31.0116 211.144 34.7395 219.346 39.3062C229.411 44.8982 236.075 49.3717 239.337 52.7268C244.09 57.6664 246.466 63.9107 246.466 71.4598ZM295.549 98.0214C295.549 98.767 294.943 99.1398 293.731 99.1398C293.079 99.1398 292.473 99.0932 291.914 99C286.322 98.7204 281.522 98.5806 277.515 98.5806C273.321 98.5806 267.17 98.7204 259.061 99C256.358 99.0932 254.355 99.1398 253.05 99.1398C251.652 99.1398 250.953 98.7204 250.953 97.8816C250.953 97.4156 251.186 97.136 251.652 97.0428C252.211 96.9496 254.029 96.8564 257.104 96.7632C259.993 96.204 261.671 95.3653 262.137 94.2469C262.603 93.0353 262.836 89.2607 262.836 82.9232V15.6804C262.836 13.9096 262.836 12.1854 262.836 10.5078C262.743 8.83026 262.696 8.03807 262.696 8.13127C262.696 5.80131 260.366 4.63632 255.706 4.63632C253.097 4.63632 251.792 4.31013 251.792 3.65773C251.792 3.00535 251.978 2.63255 252.351 2.53935C252.724 2.44615 253.935 2.39955 255.986 2.39955C255.054 2.39955 256.731 2.44615 261.018 2.53935C265.306 2.63255 268.987 2.67915 272.062 2.67915H279.192C280.683 2.67915 282.78 2.63255 285.483 2.53935C288.279 2.35295 290.236 2.25976 291.355 2.25976H292.753C293.964 2.25976 294.57 2.63255 294.57 3.37814C294.57 3.93733 294.337 4.31013 293.871 4.49652C293.498 4.58972 292.1 4.68292 289.677 4.77612C286.788 4.96252 285.017 5.56831 284.365 6.5935L283.945 9.24966V88.2356C283.945 92.2431 284.365 94.6197 285.203 95.3653C286.135 96.1108 289.164 96.6234 294.29 96.903C295.129 96.9962 295.549 97.369 295.549 98.0214ZM390.183 3.79753C390.183 4.26352 389.81 4.54312 389.065 4.63632C388.412 4.72952 385.943 4.86932 381.655 5.05571C379.139 5.14892 377.694 5.66151 377.322 6.5935C376.949 7.15269 376.809 10.135 376.902 15.5406L377.042 31.7571C377.135 42.5682 377.182 56.6878 377.182 74.1159V97.8816C377.182 99.466 376.856 100.258 376.203 100.258C375.178 100.258 368.375 92.5693 355.793 77.1915C343.304 61.7205 329.557 44.0594 314.552 24.208V34.5531C314.552 38.0947 314.599 41.1702 314.692 43.7798C314.692 46.3893 314.692 47.9737 314.692 48.5329V92.0101C314.692 93.9673 315.298 95.1789 316.509 95.6448C318.467 96.3904 320.75 96.7632 323.36 96.7632C326.435 96.7632 328.159 96.9962 328.532 97.4622C328.625 97.5554 328.672 97.7418 328.672 98.0214C328.672 98.767 327.973 99.1398 326.575 99.1398C325.736 99.1398 325.037 99.0932 324.478 99C318.886 98.8136 315.391 98.7204 313.993 98.7204C310.731 98.7204 306.444 98.8136 301.132 99C298.522 99.0932 297.404 99.1398 297.777 99.1398C296.379 99.1398 295.68 98.767 295.68 98.0214C295.68 97.369 297.73 96.903 301.831 96.6234C306.584 96.2506 309.333 95.505 310.079 94.3867C310.545 93.6411 310.778 90.2859 310.778 84.3212V26.8642C310.778 20.9927 310.685 17.4511 310.498 16.2396C309.939 12.1388 308.308 9.15646 305.605 7.29249C303.555 5.89451 299.734 5.10232 294.142 4.91592C292.651 4.82272 291.905 4.40333 291.905 3.65773C291.905 2.81895 292.557 2.39955 293.862 2.39955C294.421 2.39955 296.425 2.49275 299.874 2.67915C301.551 2.77235 304.067 2.81895 307.423 2.81895C314.319 2.81895 319.911 2.72575 324.198 2.53935L373.268 65.5883V10.2282C373.268 7.99147 372.895 6.59349 372.149 6.0343C371.404 5.38191 369.819 5.00911 367.396 4.91592L361.385 4.63632C360.266 4.54312 359.707 4.21693 359.707 3.65773C359.707 2.91214 360.546 2.53935 362.223 2.53935H365.299C365.858 2.53935 366.79 2.49275 368.095 2.39955C369.307 2.39955 370.378 2.39955 371.31 2.39955C380.723 2.39955 386.222 2.44615 387.807 2.53935C389.391 2.63255 390.183 3.05195 390.183 3.79753ZM484.009 50.7697C484.009 64.7495 479.629 76.5857 470.868 86.2784C462.201 95.8778 451.53 100.678 438.855 100.678C426.459 100.678 415.835 95.7846 406.981 85.9988C398.127 76.2129 393.7 64.4233 393.7 50.6299C393.7 36.4637 398.08 24.6274 406.841 15.1212C415.695 5.61491 426.646 0.861777 439.693 0.861777C452.275 0.861777 462.807 5.66151 471.288 15.261C479.769 24.7672 484.009 36.6035 484.009 50.7697ZM459.405 53.0064C459.405 34.4599 457.215 20.7597 452.834 11.9058C449.945 6.1275 445.379 3.23834 439.134 3.23834C432.797 3.23834 427.717 7.29248 423.896 15.4008C420.168 23.5091 418.304 34.3667 418.304 47.9737C418.304 67.7318 421.659 82.5038 428.37 92.2897C431.166 96.3904 435.22 98.4408 440.532 98.4408C446.683 98.4408 451.017 95.505 453.533 89.6335C457.448 80.5001 459.405 68.291 459.405 53.0064Z" fill="url(#paint0_linear_2_6070)"/>
</g>
<defs>
<filter id="filter0_d_2_6070" x="0.473633" y="0.30249" width="490.536" height="108.934" filterUnits="userSpaceOnUse" color-interpolation-filters="sRGB">
<feFlood flood-opacity="0" result="BackgroundImageFix"/>
<feColorMatrix in="SourceAlpha" type="matrix" values="0 0 0 0 0 0 0 0 0 0 0 0 0 0 0 0 0 0 127 0" result="hardAlpha"/>
<feOffset dx="3" dy="4"/>
<feGaussianBlur stdDeviation="2"/>
<feComposite in2="hardAlpha" operator="out"/>
<feColorMatrix type="matrix" values="0 0 0 0 0.154346 0 0 0 0 0.154346 0 0 0 0 0.154346 0 0 0 1 0"/>
<feBlend mode="normal" in2="BackgroundImageFix" result="effect1_dropShadow_2_6070"/>
<feBlend mode="normal" in="SourceGraphic" in2="effect1_dropShadow_2_6070" result="shape"/>
</filter>
<linearGradient id="paint0_linear_2_6070" x1="-3" y1="53.502" x2="489" y2="53.502" gradientUnits="userSpaceOnUse">
<stop stop-color="#F0C48F"/>
<stop offset="0.36" stop-color="#835120"/>
<stop offset="1" stop-color="#EAD69C"/>
</linearGradient>
</defs>
</svg>
