<svg width="586" height="142" viewBox="0 0 586 142" fill="none" xmlns="http://www.w3.org/2000/svg">
<g filter="url(#filter0_d_2_171)">
<path d="M24.4299 0.550916L26.8435 4.32211C18.2452 9.90346 13.5689 14.8814 10.0994 23.4797L16.2842 28.3068C21.2622 32.3797 22.6198 35.8492 22.6198 39.7712C22.6198 45.956 18.5469 49.4255 12.9655 49.4255C9.49606 49.4255 6.62996 48.3695 4.36725 46.2577C2.55708 42.6373 1.50115 38.2628 1.50115 34.039C1.50115 20.1611 11.3062 7.4899 24.4299 0.550916ZM42.9842 23.4797L49.1689 28.3068C54.1469 32.3797 55.5045 35.8492 55.5045 39.7712C55.5045 45.956 51.2808 49.4255 45.8503 49.4255C42.3808 49.4255 39.5147 48.3695 37.1011 46.2577C35.291 42.6373 34.3859 38.2628 34.3859 34.039C34.3859 20.1611 44.191 7.4899 57.3147 0.550916L59.7282 4.32211C50.9791 9.90346 46.3028 14.8814 42.9842 23.4797ZM127.93 70.2424C127.93 77.6339 128.986 83.2153 130.495 87.8915C139.395 78.3882 148.445 65.717 152.217 56.5153C144.222 56.817 136.528 58.778 128.232 62.5492C128.081 65.2644 127.93 67.8288 127.93 70.2424ZM96.403 108.407C103.191 108.407 112.544 103.429 120.539 97.0932C118.879 90.0034 117.974 81.556 117.974 73.7119C117.974 71.9017 117.974 70.0916 118.125 67.9797C102.286 78.3882 92.0284 93.6237 92.0284 103.429C92.0284 106.898 93.3861 108.407 96.403 108.407ZM147.088 42.6373L148.295 40.6763C154.027 41.7322 158.703 43.3916 161.72 46.5594C163.078 48.2187 163.681 49.878 163.379 51.839C186.459 54.7051 200.035 71.2983 200.035 88.9475C200.035 118.966 170.017 131.939 128.684 132.542L128.081 129.375C166.547 123.039 186.157 107.049 186.157 85.3271C186.157 71.1475 176.955 59.8339 161.569 57.1187C156.591 69.3373 146.032 84.7238 134.417 97.2441C136.227 101.166 137.735 104.485 137.735 107.954C137.735 111.876 135.171 113.536 131.701 113.536C128.533 113.536 125.969 111.122 124.008 107.2C113.147 116.1 101.834 120.927 92.6318 120.927C85.3911 120.927 80.8657 116.703 80.8657 108.256C80.8657 88.3441 99.5708 70.0916 118.728 60.2865C119.483 53.8 120.388 46.8611 121.444 40.3746C116.767 40.978 111.94 41.2797 107.415 41.2797C96.1013 41.2797 90.8216 36.1509 86.1454 25.2899L88.1064 23.4797C95.9505 29.0611 101.23 30.8712 109.376 30.8712C114.052 30.8712 118.578 30.5695 123.103 29.9662C124.008 23.9323 124.611 18.9543 124.611 16.0882C124.611 13.3729 124.008 12.6187 121.595 11.7136C119.181 10.8085 116.013 10.2051 112.996 9.60176V7.03735C115.862 5.83058 119.784 4.47295 122.349 4.47295C131.098 4.47295 140.45 9.45091 140.45 12.9204C140.45 16.5407 136.981 17.7475 135.623 23.3289L134.417 28.0051C152.971 23.9323 163.078 17.295 165.34 17.295C172.128 17.295 175.749 19.4068 175.749 23.0272C175.749 25.7424 174.391 27.5526 170.922 28.9102C164.133 31.7763 147.993 36.3017 132.003 38.8661C130.796 44.4475 129.74 50.3305 128.986 55.9119C136.378 53.3475 144.825 51.6882 153.725 51.3865C153.876 48.0678 151.764 45.6543 147.088 42.6373ZM256 8.99837V6.73566C258.715 5.52888 263.24 4.17125 266.861 4.17125C271.838 4.17125 276.666 5.52888 279.532 7.64074C282.549 9.60176 281.191 13.5238 276.364 29.2119C288.733 25.139 292.203 21.9712 294.616 21.9712C297.935 21.9712 301.405 24.234 301.405 28.0051C301.405 31.0221 298.689 32.9831 296.577 34.4916C291.599 37.3577 282.247 40.5255 272.14 42.6373C267.162 58.1746 257.357 84.7238 245.44 102.825C242.272 107.653 239.859 110.82 236.239 110.82C232.015 110.82 229.752 106.747 229.752 102.524C229.752 99.3559 230.657 96.9424 233.071 93.7746C242.725 81.556 253.888 64.9627 260.676 44.4475C256.754 44.9 252.983 45.2017 249.513 45.2017C237.445 45.2017 232.015 41.2797 227.64 27.1001L229.903 25.4407C236.389 30.5695 240.613 34.039 250.569 34.039C254.944 34.039 259.922 33.2848 264.145 32.3797C265.352 27.1001 266.106 21.9712 266.257 18.3509C266.408 15.1831 265.352 13.5238 262.788 12.0153C260.374 10.5068 257.81 9.60176 256 8.99837ZM305.025 106.597C305.025 105.39 305.025 104.032 305.025 102.825C300.952 101.92 296.577 101.468 291.75 101.468C278.777 101.468 272.442 107.2 272.442 112.178C272.442 117.307 276.967 121.229 287.677 121.229C300.198 121.229 305.025 115.346 305.025 106.597ZM311.059 36V32.8323C319.054 30.8712 327.501 31.3238 333.384 33.2848C343.189 36.4526 348.921 42.939 348.921 50.3305C348.921 54.7051 347.262 57.5712 343.34 57.5712C338.362 57.5712 335.044 53.8 327.501 54.1017C322.674 54.4034 317.696 56.2136 314.981 59.5322C312.266 62.8509 312.266 67.8288 312.718 73.561C313.171 77.9356 314.679 86.2322 316.037 94.6797C324.635 96.7915 331.574 100.412 336.854 103.58C345.452 108.558 350.581 113.837 350.581 119.419C350.581 124.095 348.016 126.207 344.999 126.207C341.228 126.207 339.116 122.737 334.44 118.514C329.764 114.139 324.333 110.066 317.394 106.898C317.545 109.01 317.696 110.971 317.696 112.781C317.696 125.754 307.74 132.995 291.298 132.995C275.006 132.995 265.805 124.849 265.805 114.592C265.805 102.825 277.872 92.7187 298.991 92.7187C300.952 92.7187 302.762 92.7187 304.572 92.8695C304.271 87.439 303.818 81.8577 303.818 77.0305C303.818 67.9797 305.779 61.6441 310.455 56.6661C315.735 50.6322 322.976 47.917 327.954 45.3526C329.764 44.1458 329.16 42.4865 327.199 40.8272C323.428 37.9611 317.696 36.3017 311.059 36ZM444.408 61.3424L443.503 58.6272C451.045 54.2526 462.359 50.6322 473.672 50.6322C483.628 50.6322 490.265 52.7441 493.584 54.5543C497.657 56.9678 499.618 59.9848 499.618 62.8509C499.618 66.3204 496.903 67.9797 491.472 68.2814C488.757 68.2814 486.042 68.7339 482.12 69.9407C476.388 71.1475 469.599 73.8627 464.32 75.9746L462.66 73.7119C467.488 70.6949 475.332 64.9627 476.991 63.1526C478.047 62.2475 477.594 61.4933 476.388 61.0407C472.918 59.8339 467.638 59.2305 463.264 59.2305C457.682 59.2305 451.196 60.1356 444.408 61.3424ZM431.133 28.7594L429.474 34.6424C436.715 32.2289 442.145 29.6645 446.52 27.4018C449.235 25.7424 451.196 24.5357 452.554 24.5357C455.872 24.5357 461.755 26.3458 461.755 30.8712C461.755 34.4916 459.191 36.6034 450.442 39.7712C446.52 41.4306 435.96 44.9 425.854 47.3136C423.893 54.1017 421.63 61.6441 419.216 68.5831C413.032 86.9865 403.528 112.932 397.344 123.642C394.93 128.017 392.969 130.581 388.444 130.581C384.672 130.581 381.957 126.358 381.957 121.531C381.957 116.553 384.672 114.592 387.991 108.859C394.477 98.7526 402.321 84.4221 409.26 64.5102C410.769 60.1356 412.428 55.0068 413.786 49.878C408.959 50.6322 403.679 51.2356 399.455 51.2356C389.047 51.2356 381.957 48.2187 377.13 33.7373L379.242 32.2289C386.482 37.8102 390.857 39.9221 397.645 40.0729C404.282 40.2238 411.071 39.1678 416.652 38.1119C418.462 30.5695 419.669 23.7814 419.971 19.5577C420.121 15.9373 419.518 14.7306 416.954 13.0712C414.389 11.5628 411.221 10.5068 407.903 9.45091L408.054 6.73566C411.674 5.37803 415.143 4.6238 419.216 4.77464C426.759 4.92549 436.413 9.14922 436.413 13.0712C436.413 16.3899 433.849 19.7085 431.133 28.7594ZM433.698 90.7576L436.715 90.456C437.318 94.5288 438.525 99.9593 441.542 104.334C447.123 112.781 456.023 115.798 468.543 115.798C482.723 115.798 488.003 112.932 491.623 112.932C496.45 112.932 502.182 115.195 502.182 120.324C502.182 123.944 498.411 126.207 492.981 127.414C488.304 128.469 481.667 129.375 472.013 129.375C451.347 129.375 437.771 121.832 434.905 106.446C433.245 101.166 433.396 95.4339 433.698 90.7576ZM536.877 26.4967L530.693 21.6695C525.715 17.5967 524.357 14.1272 524.357 10.2051C524.357 4.02041 528.581 0.550916 534.011 0.550916C537.481 0.550916 540.347 1.60685 542.76 3.71871C544.571 7.33905 545.476 11.7136 545.476 15.9373C545.476 29.8153 535.671 42.4865 522.547 49.4255L520.284 45.6543C528.882 40.0729 533.559 35.095 536.877 26.4967ZM569.762 26.4967L563.577 21.6695C558.599 17.5967 557.242 14.1272 557.242 10.2051C557.242 4.02041 561.315 0.550916 566.896 0.550916C570.365 0.550916 573.232 1.60685 575.494 3.71871C577.455 7.33905 578.36 11.7136 578.36 15.9373C578.36 29.8153 568.555 42.4865 555.432 49.4255L553.018 45.6543C561.767 40.0729 566.293 35.095 569.762 26.4967Z" fill="url(#paint0_linear_2_171)"/>
</g>
<defs>
<filter id="filter0_d_2_171" x="0.421939" y="0.550903" width="585.492" height="141.076" filterUnits="userSpaceOnUse" color-interpolation-filters="sRGB">
<feFlood flood-opacity="0" result="BackgroundImageFix"/>
<feColorMatrix in="SourceAlpha" type="matrix" values="0 0 0 0 0 0 0 0 0 0 0 0 0 0 0 0 0 0 127 0" result="hardAlpha"/>
<feOffset dx="3.23711" dy="4.31615"/>
<feGaussianBlur stdDeviation="2.15808"/>
<feComposite in2="hardAlpha" operator="out"/>
<feColorMatrix type="matrix" values="0 0 0 0 0.154346 0 0 0 0 0.154346 0 0 0 0 0.154346 0 0 0 1 0"/>
<feBlend mode="normal" in2="BackgroundImageFix" result="effect1_dropShadow_2_171"/>
<feBlend mode="normal" in="SourceGraphic" in2="effect1_dropShadow_2_171" result="shape"/>
</filter>
<linearGradient id="paint0_linear_2_171" x1="-4.68359" y1="59.5026" x2="585.316" y2="59.5026" gradientUnits="userSpaceOnUse">
<stop stop-color="#F0C48F"/>
<stop offset="0.36" stop-color="#835120"/>
<stop offset="1" stop-color="#EAD69C"/>
</linearGradient>
</defs>
</svg>
