<svg xmlns="http://www.w3.org/2000/svg" viewBox="0 0 40 40"><defs><style>.a{fill:none;}.b{fill:#fff;}</style></defs><title>KenoLotto</title><rect class="a" width="40" height="40"/><rect class="a" width="40" height="40"/><path class="b" d="M18.61,10a13.6,13.6,0,1,0,.05,0Zm1.94,24.1c-2.18-1.7-2.14-5.38.07-8.22s5.79-3.77,8-2.07,2.15,5.38-.07,8.23-5.76,3.76-7.93,2.06Z"/><path class="b" d="M24.41,29.3a.91.91,0,0,1-.37-.45A1.49,1.49,0,0,1,24,28a2.24,2.24,0,0,1,.79-1.34A2.27,2.27,0,0,1,26,26.18a1.46,1.46,0,0,1,1.36.32,1.39,1.39,0,0,1,.26,1.18,2.58,2.58,0,0,1-.33.83,2.87,2.87,0,0,1-.53.57,1.06,1.06,0,0,1,.46.6,1.91,1.91,0,0,1,0,.89,2.91,2.91,0,0,1-.35.9,2.65,2.65,0,0,1-.54.66,2.2,2.2,0,0,1-.67.37,3.12,3.12,0,0,1-.8.14,2,2,0,0,1-1.07-.16,1,1,0,0,1-.47-.64,2.31,2.31,0,0,1,0-1,2.46,2.46,0,0,1,.39-.93A2,2,0,0,1,24.41,29.3Zm.23,1.4a1,1,0,0,0,.06.66.41.41,0,0,0,.4.23.75.75,0,0,0,.48-.3,1.44,1.44,0,0,0,.33-.68,1,1,0,0,0-.06-.67.39.39,0,0,0-.39-.23A.74.74,0,0,0,25,30,1.51,1.51,0,0,0,24.64,30.7ZM25.27,28a.67.67,0,0,0,.06.5.36.36,0,0,0,.38.16.61.61,0,0,0,.41-.23,1,1,0,0,0,.24-.53.7.7,0,0,0-.07-.51.34.34,0,0,0-.35-.17.62.62,0,0,0-.43.25A1,1,0,0,0,25.27,28Z"/><path class="b" d="M18.61,8.29A15.35,15.35,0,0,1,33.19,18.77,9.72,9.72,0,0,0,17.71,7a9.53,9.53,0,0,0-.89,1.41A15.23,15.23,0,0,1,18.61,8.29Z"/></svg>