<?xml version="1.0" encoding="utf-8"?>
<!-- Generator: Adobe Illustrator 19.2.1, SVG Export Plug-In . SVG Version: 6.00 Build 0)  -->
<svg version="1.1" id="Layer_1" xmlns="http://www.w3.org/2000/svg" xmlns:xlink="http://www.w3.org/1999/xlink" x="0px" y="0px"
	 viewBox="0 0 150 150" style="enable-background:new 0 0 150 150;" xml:space="preserve">
<style type="text/css">
	.st0{fill:#FFFFFF;}
</style>
<title>about_pt_2</title>
<polygon class="st0" points="74.8,0 83.7,18.3 103.9,21.2 89.4,35.4 92.8,55.6 74.8,46.1 56.7,55.6 60.1,35.4 45.6,21.2 65.8,18.3 
	"/>
<polygon class="st0" points="25.1,19.1 31.4,32 45.6,34.1 35.4,44.1 37.8,58.2 25.1,51.6 12.3,58.2 14.7,44.1 4.5,34.1 18.8,32 "/>
<polygon class="st0" points="124.8,19.1 131.1,32 145.3,34.1 135.1,44.1 137.6,58.2 124.8,51.6 112,58.2 114.4,44.1 104.3,34.1 
	118.5,32 "/>
<path class="st0" d="M136.5,68H13.5C6.3,68,0.2,73.3,0,80.3v57.5c0.2,6.8,6.3,12.3,13.5,12.3h122.9c7.3,0,13.4-5.3,13.5-12.3V80.3
	C149.8,73.3,143.7,68,136.5,68z M39.8,94.3l-10.7,32.3c0,0.2,0,0.2,0,0.2c-1,2.9-3.9,4.4-6.8,3.4c-2.9-1-4.4-4-3.4-6.8l8.4-25.2
	h-8.7c0,2.9-2.4,5.3-5.3,5.3S8,101.1,8,98v-5.3c0-2.9,2.4-5.3,5.3-5.3h21.5c0.5,0,1.1,0,1.6,0.2C39.3,88.5,40.8,91.5,39.8,94.3z
	 M51.9,142.3h-5V75.4h5V142.3z M90.6,94.3l-10.8,32.3c0,0.2,0,0.2,0,0.2c-1,2.9-3.9,4.4-6.8,3.4s-4.4-4-3.4-6.8L78,98.2h-8.7
	c0,2.9-2.4,5.3-5.3,5.3c-3.1,0-5.3-2.4-5.3-5.5v-5.5c0-2.9,2.4-5.3,5.3-5.3h21.5c0.6,0,1.3,0.2,1.8,0.3C90,88.5,91.6,91.5,90.6,94.3
	z M102.7,142.3h-5V75.4h5V142.3z M141.4,94.3l-10.8,32.3c0,0.2,0,0.2,0,0.2c-1,2.9-3.9,4.4-6.8,3.4s-4.4-4-3.4-6.8l8.4-25.2H120
	c0,2.9-2.4,5.3-5.3,5.3s-5.3-2.4-5.3-5.5v-5.3c0-3.1,2.4-5.5,5.3-5.5h21.5c0.6,0,1.3,0.2,1.8,0.3C140.7,88.5,142.4,91.5,141.4,94.3z
	"/>
</svg>
