<svg width="16" height="16" viewBox="0 0 16 16" fill="none" xmlns="http://www.w3.org/2000/svg">
<path d="M8 3.25V5M8 3.25C8 2.90388 8.10264 2.56554 8.29493 2.27775C8.48722 1.98997 8.76053 1.76566 9.08031 1.63321C9.40008 1.50076 9.75194 1.4661 10.0914 1.53363C10.4309 1.60115 10.7427 1.76782 10.9874 2.01256C11.2322 2.25731 11.3989 2.56913 11.4664 2.90859C11.5339 3.24806 11.4992 3.59993 11.3668 3.9197C11.2343 4.23947 11.01 4.51278 10.7222 4.70507C10.4345 4.89737 10.0961 5 9.75 5H8M8 3.25C8 2.90388 7.89737 2.56554 7.70507 2.27775C7.51278 1.98997 7.23947 1.76566 6.9197 1.63321C6.59993 1.50076 6.24806 1.4661 5.90859 1.53363C5.56913 1.60115 5.25731 1.76782 5.01256 2.01256C4.76782 2.25731 4.60115 2.56913 4.53363 2.90859C4.4661 3.24806 4.50076 3.59993 4.63321 3.9197C4.76566 4.23947 4.98997 4.51278 5.27775 4.70507C5.56554 4.89737 5.90388 5 6.25 5H8" stroke="#6D7693" stroke-width="1.3" stroke-miterlimit="10" stroke-linecap="round"/>
<path d="M13 5H3C2.44772 5 2 5.44772 2 6V7.5C2 8.05228 2.44772 8.5 3 8.5H13C13.5523 8.5 14 8.05228 14 7.5V6C14 5.44772 13.5523 5 13 5Z" stroke="#6D7693" stroke-width="1.3" stroke-linecap="round" stroke-linejoin="round"/>
<path d="M13 8.5V13C13 13.3978 12.842 13.7794 12.5607 14.0607C12.2794 14.342 11.8978 14.5 11.5 14.5H4.5C4.10218 14.5 3.72064 14.342 3.43934 14.0607C3.15804 13.7794 3 13.3978 3 13V8.5M8 5V14.5" stroke="#6D7693" stroke-width="1.3" stroke-linecap="round" stroke-linejoin="round"/>
</svg>
