<svg width="24" height="24" viewBox="0 0 24 24" fill="none" xmlns="http://www.w3.org/2000/svg">
<path d="M2.63998 12.4799L7.43998 15.4799C7.67998 15.5999 8.03998 15.5999 8.27998 15.2399C8.27998 15.1199 8.39998 14.9999 8.39998 14.8799V8.8799C8.39998 8.7599 8.15998 8.3999 7.79998 8.3999C7.67998 8.3999 7.55998 8.3999 7.43998 8.5199L2.63998 11.5199C2.39998 11.6399 2.27998 12.1199 2.39998 12.3599C2.51998 12.3599 2.63998 12.4799 2.63998 12.4799ZM3.59998 4.7999H20.4C21.12 4.7999 21.6 4.3199 21.6 3.5999C21.6 2.8799 21.12 2.3999 20.4 2.3999H3.59998C2.87998 2.3999 2.39998 2.8799 2.39998 3.5999C2.39998 4.3199 2.99998 4.7999 3.59998 4.7999ZM12 13.1999H20.4C21.12 13.1999 21.6 12.7199 21.6 11.9999C21.6 11.2799 21.12 10.7999 20.4 10.7999H12C11.28 10.7999 10.8 11.2799 10.8 11.9999C10.8 12.7199 11.4 13.1999 12 13.1999ZM3.59998 21.5999H20.4C21.12 21.5999 21.6 21.1199 21.6 20.3999C21.6 19.6799 21.12 19.1999 20.4 19.1999H3.59998C2.87998 19.1999 2.39998 19.6799 2.39998 20.3999C2.39998 21.1199 2.99998 21.5999 3.59998 21.5999Z" fill="#025BE8"/>
</svg>
