<svg width="40" height="40" viewBox="0 0 40 40" fill="none" xmlns="http://www.w3.org/2000/svg">
<path d="M20 19.3333C20.3667 19.3333 20.6807 19.2029 20.942 18.942C21.2033 18.6811 21.3338 18.3671 21.3333 18C21.3333 17.6333 21.2029 17.3196 20.942 17.0587C20.6811 16.7978 20.3671 16.6671 20 16.6667C19.6333 16.6667 19.3196 16.7973 19.0587 17.0587C18.7978 17.32 18.6671 17.6338 18.6667 18C18.6667 18.3667 18.7973 18.6807 19.0587 18.942C19.32 19.2033 19.6338 19.3338 20 19.3333ZM16.6667 19.2V16.6667H15.3333V17.3333C15.3333 17.7556 15.4556 18.1362 15.7 18.4753C15.9444 18.8144 16.2667 19.056 16.6667 19.2ZM23.3333 19.2C23.7333 19.0556 24.0556 18.8138 24.3 18.4747C24.5444 18.1356 24.6667 17.7551 24.6667 17.3333V16.6667H23.3333V19.2ZM19.3333 24.6667V22.6C18.7889 22.4778 18.3029 22.2473 17.8753 21.9087C17.4478 21.57 17.1338 21.1449 16.9333 20.6333C16.1 20.5333 15.4029 20.1696 14.842 19.542C14.2811 18.9144 14.0004 18.1782 14 17.3333V16.6667C14 16.3 14.1307 15.9862 14.392 15.7253C14.6533 15.4644 14.9671 15.3338 15.3333 15.3333H16.6667C16.6667 14.9667 16.7973 14.6529 17.0587 14.392C17.32 14.1311 17.6338 14.0004 18 14H22C22.3667 14 22.6807 14.1307 22.942 14.392C23.2033 14.6533 23.3338 14.9671 23.3333 15.3333H24.6667C25.0333 15.3333 25.3473 15.464 25.6087 15.7253C25.87 15.9867 26.0004 16.3004 26 16.6667V17.3333C26 18.1778 25.7193 18.914 25.158 19.542C24.5967 20.17 23.8996 20.5338 23.0667 20.6333C22.8667 21.1444 22.5529 21.5696 22.1253 21.9087C21.6978 22.2478 21.2116 22.4782 20.6667 22.6V24.6667H22.6667C22.8556 24.6667 23.014 24.7307 23.142 24.8587C23.27 24.9867 23.3338 25.1449 23.3333 25.3333C23.3333 25.5222 23.2693 25.6807 23.1413 25.8087C23.0133 25.9367 22.8551 26.0004 22.6667 26H17.3333C17.1444 26 16.9862 25.936 16.8587 25.808C16.7311 25.68 16.6671 25.5218 16.6667 25.3333C16.6667 25.1444 16.7307 24.9862 16.8587 24.8587C16.9867 24.7311 17.1449 24.6671 17.3333 24.6667H19.3333Z" fill="black"/>
<circle cx="20" cy="20" r="20" fill="#6FCF97"/>
<path d="M30.1555 22.2319L32.8186 26.8456C32.9282 27.0355 32.99 27.2493 32.9989 27.4684C33.0078 27.6875 32.9633 27.9055 32.8694 28.1037C32.7755 28.3019 32.635 28.4744 32.4598 28.6063C32.2846 28.7382 32.08 28.8257 31.8636 28.8612L31.7105 28.8761L31.5588 28.8747L27.5858 28.6174L25.8208 32.188C25.725 32.3814 25.5844 32.5491 25.4108 32.6771C25.2371 32.8052 25.0354 32.89 24.8223 32.9245C24.6093 32.9589 24.3912 32.942 24.186 32.8752C23.9808 32.8083 23.7945 32.6935 23.6427 32.5402L23.5316 32.4129L23.4341 32.2639L20.7683 27.6488C22.6449 27.5315 24.4688 26.9815 26.0974 26.0417C27.726 25.1019 29.1149 23.798 30.1555 22.2319ZM19.2295 27.6488L16.5664 32.2652C16.4584 32.4523 16.3074 32.6108 16.1259 32.7277C15.9443 32.8446 15.7375 32.9164 15.5225 32.9372C15.3076 32.958 15.0908 32.9272 14.8902 32.8473C14.6896 32.7674 14.511 32.6408 14.3692 32.4779L14.2663 32.3425L14.1796 32.188L12.4132 28.6187L8.44296 28.8761C8.22427 28.8902 8.00542 28.851 7.80516 28.762C7.6049 28.673 7.42921 28.5367 7.29312 28.365C7.15703 28.1932 7.06461 27.991 7.02376 27.7757C6.98291 27.5604 6.99486 27.3384 7.05859 27.1287L7.11277 26.9837L7.1805 26.8483L9.84631 22.2305C10.8862 23.7966 12.2743 25.1008 13.9022 26.041C15.53 26.9812 17.3533 27.5306 19.2295 27.6488ZM20.0016 6L20.3267 6.00542C22.7837 6.08971 25.112 7.12506 26.8204 8.89307C28.5288 10.6611 29.4836 13.0235 29.4836 15.482L29.4795 15.7435L29.4701 16.0035L29.4457 16.3354L29.4105 16.6632L29.3779 16.9043C29.2888 17.489 29.145 18.0641 28.9485 18.6219L28.7914 19.0392L28.5842 19.5105C27.8173 21.1441 26.6003 22.525 25.0759 23.491C23.5516 24.457 21.7833 24.9681 19.9787 24.9641C18.174 24.9601 16.408 24.4413 14.8879 23.4686C13.3679 22.4958 12.1569 21.1096 11.3973 19.4726L11.2212 19.0703L11.1508 18.8902L11.0424 18.5962L10.9137 18.198C10.8678 18.0437 10.8257 17.8884 10.7877 17.732L10.7065 17.3649L10.6401 16.9978L10.613 16.8095L10.5602 16.372L10.5277 15.8776L10.5195 15.482C10.5195 13.0235 11.4744 10.6611 13.1827 8.89307C14.8911 7.12506 17.2194 6.08971 19.6765 6.00542L20.0016 6Z" fill="white"/>
</svg>
