<?xml version="1.0" encoding="utf-8"?>
<!-- Generator: Adobe Illustrator 19.2.1, SVG Export Plug-In . SVG Version: 6.00 Build 0)  -->
<svg version="1.1" id="Layer_1" xmlns="http://www.w3.org/2000/svg" xmlns:xlink="http://www.w3.org/1999/xlink" x="0px" y="0px"
	 viewBox="0 0 150 150" style="enable-background:new 0 0 150 150;" xml:space="preserve">
<style type="text/css">
	.st0{fill:#FFFFFF;stroke:#FFFFFF;stroke-width:6;stroke-linecap:round;stroke-linejoin:round;stroke-miterlimit:10;}
	.st1{fill:#FFFFFF;}
	.st2{fill:#FFFFFF;stroke:#FFFFFF;stroke-width:3;stroke-linecap:round;stroke-linejoin:round;stroke-miterlimit:10;}
</style>
<g>
	<g>
		<path class="st0" d="M143.3,93.9c-2,0-3.7,1.6-3.7,3.5v27.2c0,7.8-6.6,14.2-14.7,14.2H25c-8.1,0-14.7-6.4-14.7-14.2V97.4
			c0-2-1.6-3.5-3.7-3.5S3,95.5,3,97.4v27.2c0,11.7,9.9,21.3,22,21.3h100c12.1,0,22-9.5,22-21.3V97.4C147,95.5,145.4,93.9,143.3,93.9
			z"/>
	</g>
</g>
<path class="st1" d="M9.9,108.3v19.1c0,6.8,5.5,12.4,12.4,12.4h105.5c6.8,0,12.4-5.5,12.4-12.4l0.2-19.1H9.9z M123.6,130H28
	c-2.9,0-5.2-2.7-5.2-6s2.3-6,5.2-6h95.6c2.9,0,5.2,2.7,5.2,6C128.8,127.3,126.5,130,123.6,130z"/>
<g>
	<g>
		<g>
			<path class="st2" d="M75,90.3c-2.6,0-5.1-1-7-2.7L35.4,58.5c-1.9-1.7-2.1-4.6-0.4-6.5c0.9-1,2.2-1.6,3.5-1.6
				c1.1,0,2.2,0.4,3.1,1.2l28.8,25.7V7.4c0-2.6,2.1-4.6,4.6-4.6c2.5,0,4.6,2.1,4.6,4.6v69.8l28.8-25.7c0.9-0.7,1.9-1.2,3.1-1.2
				c1.3,0,2.6,0.6,3.5,1.6c0.8,0.9,1.3,2.1,1.2,3.3c-0.1,1.2-0.6,2.4-1.6,3.2L81.9,87.6C80.1,89.3,77.6,90.3,75,90.3z"/>
			<path class="st2" d="M75,3.5c2.2,0,3.9,1.7,3.9,3.9v71.5l30-26.8c0.7-0.7,1.7-1,2.6-1c1.1,0,2.2,0.4,2.9,1.3
				c1.4,1.6,1.3,4.1-0.3,5.5L81.5,87c-1.9,1.6-4.2,2.5-6.5,2.5c-2.3,0-4.6-0.8-6.5-2.5L35.9,57.9c-1.6-1.4-1.7-3.9-0.3-5.5
				c0.8-0.9,1.8-1.3,2.9-1.3c0.9,0,1.9,0.3,2.6,1l30,26.9V7.4C71.1,5.2,72.8,3.5,75,3.5 M75,2c-3,0-5.4,2.4-5.4,5.4v68.2L42.1,50.9
				c-1-0.9-2.3-1.4-3.6-1.4c-1.5,0-3,0.7-4,1.8c-2,2.2-1.8,5.6,0.4,7.6l32.7,29.2C69.6,90,72.2,91,75,91c2.8,0,5.4-1,7.5-2.9
				L115.1,59c2.2-2,2.4-5.4,0.4-7.6c-1-1.1-2.5-1.8-4-1.8c-1.3,0-2.6,0.5-3.6,1.4L80.4,75.6V7.4C80.4,4.4,78,2,75,2L75,2z"/>
		</g>
	</g>
</g>
</svg>
