<svg xmlns="http://www.w3.org/2000/svg" width="56" height="56" fill="none" viewBox="0 0 56 56">
    <path fill="#314060" fill-rule="evenodd" d="M33.177 54.578C30.158 55.533 26.395 56 21.534 56 12.337 56 0 54.458 0 41.114c0-7.856 4.35-15.347 10.748-19.484-.444-.563-.75-1.244-.75-2.018 0-1.827 1.475-3.308 3.296-3.308h16.48c1.82 0 3.296 1.48 3.296 3.308 0 .776-.307 1.459-.753 2.023 1.099.71 2.146 1.517 3.126 2.418-1.431 1.054-2.373 2.742-2.373 4.656 0 1.62.671 3.083 1.744 4.135-1.073 1.052-1.744 2.514-1.744 4.135 0 1.62.671 3.083 1.744 4.135-1.073 1.052-1.744 2.514-1.744 4.135 0 1.62.671 3.083 1.744 4.135-1.073 1.052-1.744 2.514-1.744 4.135 0 .363.043.715.107 1.06zM16.572 34.983c0 2.736 2.218 4.962 4.945 4.962.909 0 1.648.74 1.648 1.654 0 .912-.74 1.654-1.648 1.654-.91 0-1.648-.742-1.648-1.654 0-.914-.738-1.654-1.649-1.654-.91 0-1.648.74-1.648 1.654 0 2.16 1.39 3.983 3.314 4.662v1.47c0 .913.737 1.653 1.648 1.653.91 0 1.648-.74 1.648-1.654v-1.48c1.905-.69 3.279-2.505 3.279-4.651 0-2.736-2.218-4.962-4.944-4.962-.91 0-1.648-.742-1.648-1.654 0-.913.738-1.654 1.648-1.654.909 0 1.648.74 1.648 1.654 0 .914.736 1.654 1.648 1.654.91 0 1.648-.74 1.648-1.654 0-2.147-1.374-3.962-3.279-4.652v-2.449c0-.914-.737-1.654-1.648-1.654-.91 0-1.648.74-1.648 1.654v2.438c-1.923.68-3.314 2.502-3.314 4.663z" clip-rule="evenodd"/>
    <path fill="#314060" d="M53.533 51.038H38.619c-1.362 0-2.467 1.11-2.467 2.481 0 1.37 1.105 2.481 2.467 2.481h14.914C54.895 56 56 54.89 56 53.52c0-1.371-1.105-2.482-2.467-2.482zM53.533 42.532H38.619c-1.362 0-2.467 1.11-2.467 2.48 0 1.37 1.105 2.482 2.467 2.482h14.914c1.362 0 2.467-1.111 2.467-2.481 0-1.37-1.105-2.481-2.467-2.481zM53.533 34.734H38.619c-1.362 0-2.467 1.111-2.467 2.481 0 1.37 1.105 2.481 2.467 2.481h14.914c1.362 0 2.467-1.11 2.467-2.48 0-1.371-1.105-2.482-2.467-2.482zM53.533 26.228H38.619c-1.362 0-2.467 1.11-2.467 2.48 0 1.371 1.105 2.482 2.467 2.482h14.914c1.362 0 2.467-1.111 2.467-2.481 0-1.37-1.105-2.481-2.467-2.481zM25.828 3.312C25.157 1.389 23.375 0 21.266 0c-2.112 0-3.914 1.384-4.584 3.312h-5.138c-.52 0-1.01.255-1.314.687-.304.432-.388.988-.222 1.493l2.53 7.976h17.456l2.53-7.976c.166-.505.082-1.061-.222-1.493-.305-.432-.794-.687-1.315-.687h-5.159z"/>
</svg>
