<svg width="51" height="51" viewBox="0 0 51 51" fill="none" xmlns="http://www.w3.org/2000/svg">
<path d="M44.4131 40.4236L40.2719 22.794C40.23 22.615 40.3441 22.4288 40.5206 22.3874L45.1689 21.2978C45.1956 21.2915 45.2209 21.2888 45.2448 21.2888C45.3179 21.2888 45.3772 21.3143 45.4177 21.3393C45.4623 21.3669 45.5411 21.4306 45.5683 21.547L49.7098 39.1775C49.7374 39.2954 49.6947 39.3889 49.6668 39.4341C49.6393 39.4786 49.576 39.5572 49.4603 39.5843L44.8199 40.6758C44.7032 40.7029 44.6101 40.6601 44.565 40.6321C44.52 40.6043 44.4406 40.5402 44.4131 40.4235V40.4236ZM12.67 17.5977L14.053 18.451L14.9886 20.7066L14.6119 22.2855C14.5661 22.4776 14.5712 22.6743 14.6203 22.8591H21.9395C22.4508 22.3197 23.0324 21.8848 23.658 21.5572C20.8111 20.7519 18.7182 18.132 18.7182 15.0307C18.7182 11.2906 21.7611 8.24774 25.5012 8.24774C29.2414 8.24774 32.2842 11.2906 32.2842 15.0307C32.2842 17.6968 30.7376 20.0075 28.4949 21.1154C28.8495 21.2238 29.2001 21.3628 29.5429 21.5347L34.8356 24.1978C34.9342 24.2472 35.033 24.2911 35.1315 24.3324L36.0771 23.3856C36.3642 23.0981 36.482 22.6824 36.3882 22.287L36.0134 20.7068L36.947 18.451L38.3319 17.5981C38.6783 17.3848 38.8892 17.0071 38.8892 16.6003V13.4611C38.8892 13.0543 38.6783 12.6766 38.3319 12.4633L36.947 11.6104L36.0134 9.35468L36.3882 7.7744C36.4821 7.3788 36.3642 6.96278 36.0767 6.67528L33.8567 4.45516C33.5693 4.16776 33.1531 4.0495 32.7576 4.14364L31.1773 4.51844L28.9215 3.58485L28.0687 2.20009C27.8553 1.8537 27.4777 1.64276 27.0709 1.64276H23.9289C23.5215 1.64276 23.1435 1.85428 22.9303 2.20126L22.0802 3.58514L19.8251 4.51844L18.2449 4.14364C17.8501 4.04969 17.4338 4.16747 17.1463 4.45468L14.9234 6.67479C14.6351 6.96268 14.5171 7.37967 14.6117 7.77596L14.9884 9.35497L14.0528 11.6105L12.6698 12.4638C12.3238 12.6771 12.1131 13.0546 12.1131 13.4611V16.6003C12.1131 17.0068 12.3238 17.3843 12.6698 17.5976L12.67 17.5977ZM35.4081 43.0245C35.9226 43.5374 36.7594 43.5359 37.273 43.0208C37.7863 42.5059 37.7847 41.6691 37.2696 41.1556L36.2204 40.1094C36.2204 40.1094 36.2201 40.109 36.2199 40.1089L29.0169 32.9273C28.2661 32.1765 27.1239 32.0643 26.2384 32.6526L23.628 34.3878C21.3485 35.904 18.4447 36.0578 16.0504 34.7889C15.2546 34.3654 14.7305 33.6464 14.5733 32.7634C14.4152 31.8811 14.6574 31.0258 15.2556 30.356L19.846 25.2027H12.57L9.49791 38.2903L19.9883 48.7486C20.2349 48.9945 20.5653 49.1298 20.9187 49.1298H20.9212C21.2756 49.1292 21.6068 48.9926 21.8534 48.7451C22.3658 48.231 22.3642 47.3957 21.85 46.883L21.8502 46.8828L18.7819 43.8241C18.3235 43.3672 18.3223 42.6252 18.7793 42.1668C19.2363 41.7084 19.9782 41.7072 20.4366 42.1642L26.3105 48.0197C26.5572 48.2656 26.8876 48.401 27.2409 48.401H27.2433C27.5978 48.4004 27.929 48.2638 28.1755 48.0163C28.6888 47.5015 28.6886 46.666 28.1752 46.1542C28.1745 46.1535 28.1738 46.1526 28.1731 46.1519L22.722 40.7164C22.2638 40.2594 22.2628 39.5174 22.7198 39.0591C23.1767 38.6008 23.9186 38.5997 24.3771 39.0567L31.8917 46.55C32.1391 46.7967 32.4707 46.9326 32.825 46.9326H32.8258C33.1799 46.9324 33.5106 46.7963 33.7566 46.5494C34.2685 46.0343 34.2675 45.197 33.7532 44.6843L26.6623 37.6116C26.2041 37.1546 26.2031 36.4126 26.6602 35.9544C27.1173 35.4962 27.8592 35.4952 28.3175 35.9522L35.408 43.0243L35.4083 43.0246L35.4081 43.0245ZM33.785 26.2929L28.4911 23.6291C26.7949 22.7786 24.807 23.1574 23.5463 24.5725L17.0047 31.9162C16.8864 32.0486 16.8496 32.1783 16.8806 32.3511C16.9121 32.5276 16.99 32.6338 17.1498 32.7188C18.7818 33.5836 20.7674 33.4757 22.3304 32.436L24.9413 30.7005C26.7678 29.4869 29.1248 29.7206 30.6729 31.2686L38.851 39.4225C39.5104 40.08 40.4485 40.254 41.2996 39.8765L41.8226 39.6451L38.7671 26.6375C37.097 27.2059 35.3775 27.089 33.7849 26.2928L33.785 26.2929ZM29.9406 15.0307C29.9406 12.583 27.9491 10.5915 25.5013 10.5915C23.0536 10.5915 21.0621 12.583 21.0621 15.0307C21.0621 17.4785 23.0536 19.4701 25.5013 19.4701C27.9491 19.4701 29.9406 17.4786 29.9406 15.0307ZM1.33365 39.4325C1.36158 39.4775 1.42555 39.557 1.54127 39.5841L6.18443 40.6763C6.3607 40.7175 6.54771 40.6006 6.59049 40.4206L10.7282 22.7933C10.7563 22.675 10.7141 22.583 10.6866 22.5384C10.6589 22.4936 10.5953 22.4146 10.4798 22.3877L5.83746 21.2988C5.80982 21.2923 5.78365 21.2894 5.75914 21.2894C5.67867 21.2894 5.61656 21.3192 5.58228 21.3403C5.53756 21.368 5.45846 21.4316 5.4315 21.5472L5.43121 21.5481L1.2898 39.1785C1.26285 39.2941 1.30572 39.3873 1.33365 39.4325Z" fill="url(#paint0_linear_1_344)"/>
<defs>
<linearGradient id="paint0_linear_1_344" x1="25.5" y1="1.64276" x2="25.5" y2="49.1298" gradientUnits="userSpaceOnUse">
<stop stop-color="white"/>
<stop offset="1" stop-color="#987859"/>
</linearGradient>
</defs>
</svg>
