<svg width="51" height="50" viewBox="0 0 51 50" fill="none" xmlns="http://www.w3.org/2000/svg">
<mask id="mask0_1049_1554" style="mask-type:luminance" maskUnits="userSpaceOnUse" x="4" y="4" width="43" height="42">
<path d="M4.37988 4H46.6199V46H4.37988V4Z" fill="white"/>
</mask>
<g mask="url(#mask0_1049_1554)">
<path d="M25.4999 36.375C25.4999 32.5618 27.4095 29.0215 30.611 26.9023C30.7236 26.827 30.8187 26.7273 30.8873 26.61C31.4012 25.721 31.6599 24.8845 31.6599 24.1268C31.6599 23.5072 31.8447 23.2518 31.8729 23.2255C32.1474 23.1572 32.3727 22.963 32.4766 22.7023C32.5734 22.4608 33.4199 20.3153 33.4199 18.875C33.4199 18.8033 33.4111 18.7315 33.3935 18.6632C33.2967 18.28 33.0275 17.7183 32.5399 17.3892V12.75C32.5399 9.93075 31.674 8.774 30.7623 8.10375C30.5881 6.74575 29.1255 4 23.7399 4C18.2874 4 14.9399 9.096 14.9399 12.75V17.3892C14.4524 17.7183 14.1831 18.28 14.0863 18.6632C14.0687 18.7315 14.0599 18.8033 14.0599 18.875C14.0599 20.3153 14.9064 22.4608 15.0032 22.7005C15.1088 22.9613 15.2637 23.1345 15.5383 23.2027C15.6351 23.25 15.8199 23.5055 15.8199 24.125C15.8199 25.7875 17.0748 27.6355 18.4212 28.864C18.2364 30.0103 17.3775 33.0325 15.5418 33.7955L7.73092 36.3837C5.58548 37.0942 4.86564 38.8828 4.40628 40.708C4.38868 40.778 4.37988 40.8498 4.37988 40.9215V45.125C4.37988 45.608 4.77412 46 5.25988 46H28.3247C28.682 46 29.0041 45.7847 29.1396 45.4557C29.2751 45.1267 29.1959 44.7487 28.9407 44.5002C26.7214 42.339 25.4999 39.455 25.4999 36.375Z" fill="url(#paint0_linear_1049_1554)"/>
<path d="M36.9401 27.375C31.9486 27.375 27.8887 31.4119 27.8887 36.375C27.8887 41.3381 31.9486 45.375 36.9401 45.375C41.9316 45.375 45.9915 41.3381 45.9915 36.375C45.9915 31.4119 41.9316 27.375 36.9401 27.375ZM42.4598 33.6815L35.877 40.227C35.7157 40.3857 35.505 40.4659 35.2944 40.4659C35.0837 40.4659 34.8731 40.3857 34.7118 40.227L31.4204 36.9543C31.0995 36.6352 31.0995 36.1165 31.4204 35.7974C31.7413 35.4783 32.263 35.4783 32.5839 35.7974L35.2927 38.4908L41.293 32.5246C41.6139 32.2055 42.1356 32.2055 42.4565 32.5246C42.7775 32.8437 42.7807 33.3608 42.4598 33.6815Z" fill="url(#paint1_linear_1049_1554)"/>
</g>
<defs>
<linearGradient id="paint0_linear_1049_1554" x1="18.8999" y1="4" x2="18.8999" y2="46" gradientUnits="userSpaceOnUse">
<stop stop-color="white"/>
<stop offset="1" stop-color="#987859"/>
</linearGradient>
<linearGradient id="paint1_linear_1049_1554" x1="36.9401" y1="27.375" x2="36.9401" y2="45.375" gradientUnits="userSpaceOnUse">
<stop stop-color="white"/>
<stop offset="1" stop-color="#987859"/>
</linearGradient>
</defs>
</svg>
