<svg width="50" height="50" viewBox="0 0 50 50" fill="none" xmlns="http://www.w3.org/2000/svg">
<path d="M16.2904 38.5463C16.5639 37.7028 17.3289 37.1113 18.3384 36.9638L21.4639 36.5098L22.6864 34.0333V33.9178L22.9209 33.5643C23.3804 32.7188 24.1499 32.2178 24.9994 32.2178C25.8494 32.2178 26.6184 32.7188 27.0779 33.5648L27.3129 33.9178V34.0333L28.5349 36.5098L31.6619 36.9643C32.6704 37.1113 33.4354 37.7033 33.7094 38.5463C33.8659 39.0298 33.8379 39.5393 33.6529 40.0213C38.2834 39.2388 41.9324 37.7798 41.9324 35.6113C41.9324 23.0543 37.3339 29.2303 30.4694 23.9268C30.4389 25.0553 28.0029 25.9663 24.9994 25.9663C21.9959 25.9663 19.5599 25.0548 19.5299 23.9258C12.6659 29.2303 8.06738 23.0543 8.06738 35.6113C8.06738 37.7798 11.7169 39.2388 16.3464 40.0213C16.1614 39.5393 16.1334 39.0298 16.2904 38.5463Z" fill="url(#paint0_linear_442_616)"/>
<path d="M17.6037 16.724C18.4062 18.9105 19.7652 21.018 21.4427 22.3405C22.5282 23.196 23.7447 23.727 25.0332 23.727C26.3137 23.727 27.5227 23.204 28.6027 22.3575C30.2927 21.033 31.6622 18.91 32.4682 16.711C32.9782 16.5585 33.5127 15.592 33.7307 14.3565C33.9672 13.014 33.7427 11.842 33.2297 11.651C33.2057 11.215 33.1652 10.774 33.1047 10.3335C32.8982 6.537 31.7387 4.84 30.0247 4.083C28.8107 3.1075 27.1872 2.5 25.0332 2.5C22.8847 2.5 21.2672 3.093 20.0582 4.0455C18.1712 4.8375 16.9357 6.726 16.8652 11.205C16.8537 11.347 16.8442 11.488 16.8362 11.63C16.2767 11.74 16.0222 12.955 16.2692 14.3565C16.4972 15.6515 17.0732 16.6485 17.6037 16.724Z" fill="url(#paint1_linear_442_616)"/>
<path d="M31.5653 39.8435C32.0938 39.3296 31.9291 38.8204 31.1997 38.7137L27.3256 38.1514L25.5939 34.6421L25.5929 34.6411C25.4302 34.3107 25.2147 34.1455 24.9998 34.1455C24.7848 34.1455 24.5694 34.3107 24.4061 34.6411L24.4056 34.6421L22.6739 38.1514L18.8003 38.7137C18.0709 38.8204 17.9062 39.3291 18.4347 39.844L21.2368 42.5751L20.5751 46.4318V46.4332C20.4852 46.9598 20.6871 47.2699 21.0538 47.2699C21.1934 47.2699 21.3561 47.2249 21.5363 47.1308L24.9998 45.3097L28.4637 47.1308C28.6434 47.2249 28.8062 47.2699 28.9458 47.2699C29.3119 47.2699 29.5143 46.9607 29.4245 46.4347C29.4245 46.4332 29.4245 46.4318 29.4245 46.4318L28.7627 42.5751" fill="url(#paint2_linear_442_616)"/>
<defs>
<linearGradient id="paint0_linear_442_616" x1="24.9999" y1="23.9258" x2="24.9999" y2="40.0213" gradientUnits="userSpaceOnUse">
<stop stop-color="white"/>
<stop offset="1" stop-color="#987859"/>
</linearGradient>
<linearGradient id="paint1_linear_442_616" x1="24.9998" y1="2.5" x2="24.9998" y2="23.727" gradientUnits="userSpaceOnUse">
<stop stop-color="white"/>
<stop offset="1" stop-color="#987859"/>
</linearGradient>
<linearGradient id="paint2_linear_442_616" x1="25" y1="34.1455" x2="25" y2="47.2699" gradientUnits="userSpaceOnUse">
<stop stop-color="white"/>
<stop offset="1" stop-color="#987859"/>
</linearGradient>
</defs>
</svg>
