<svg width="50" height="50" viewBox="0 0 50 50" fill="none" xmlns="http://www.w3.org/2000/svg">
<path d="M33.2864 28.1814C32.9226 28.6826 32.4303 29.0871 31.8468 29.35C28.6567 30.7863 25.3095 31.6058 23.2269 31.9524C22.4197 32.7597 21.5863 33.593 20.7278 34.4516C19.2922 35.8837 16.9788 35.8775 15.5512 34.4516C15.5495 34.4507 15.5487 34.4499 15.5479 34.4483C14.123 33.0217 14.123 30.6992 15.5495 29.271L18.0561 26.7646C18.8552 21.824 20.8396 16.6197 23.9879 12.494C24.3997 11.9544 24.9563 11.5476 25.5805 11.3107C25.7474 10.663 26.0908 10.0624 26.5872 9.59204C28.096 8.15897 29.7293 6.99037 31.3504 6.03906H8.36523C7.61816 6.03906 7.0127 6.64452 7.0127 7.39157V37.8053H29.9091C31.2576 37.8053 32.3505 38.8982 32.3505 40.2467V43.0396C32.3505 44.6012 33.6306 45.8634 35.2013 45.8317C36.7296 45.8007 37.9365 44.5174 37.9365 42.9883V25.6757C37.0437 26.3878 36.0867 27.0526 35.0743 27.6638C34.5332 27.9901 33.9172 28.1683 33.2864 28.1814Z" fill="url(#paint0_linear_442_628)"/>
<path d="M29.9093 40.248H6.95996C5.4178 40.248 4.16699 41.4988 4.16699 43.0409C4.16699 44.584 5.41707 45.8339 6.95996 45.8339H30.719C29.7248 44.2652 29.9093 43.1002 29.9093 40.248Z" fill="url(#paint1_linear_442_628)"/>
<path d="M44.5702 4.17156C40.8899 4.47567 33.3969 6.4932 28.2681 11.3622C27.9751 11.6405 27.8473 12.0515 27.932 12.447L28.1826 13.6335L26.9586 13.5228C26.5599 13.4862 26.1717 13.6579 25.9292 13.9753C21.7121 19.5001 20.5988 26.0267 20.3555 27.9179C22.228 26.0454 25.2407 23.0336 33.1094 15.165C33.5855 14.6882 34.3586 14.6882 34.8355 15.165C35.3124 15.6419 35.3124 16.415 34.8355 16.8911C34.654 17.0725 29.6051 22.1213 22.0701 29.6561C23.583 29.4673 27.2403 28.7463 30.8454 27.1245C31.1669 26.9796 31.4053 26.6964 31.494 26.3546L31.7821 25.243L32.7685 25.6515C33.1094 25.7939 33.4976 25.7638 33.8142 25.5734C37.002 23.6489 39.5312 21.2099 41.5763 17.8879C41.844 17.4542 41.7977 16.8959 41.4616 16.5118L40.7055 15.6492C41.2483 15.5451 41.8489 15.4295 42.4389 15.3164C42.8125 15.2448 43.1274 14.9958 43.282 14.6483C45.4272 9.84777 45.8138 5.60789 45.8292 5.43048C45.8926 4.71362 45.2924 4.10817 44.5702 4.17156Z" fill="url(#paint2_linear_442_628)"/>
<path d="M20.296 28.4463C20.3001 28.4015 20.3164 28.2184 20.3554 27.9189C19.1868 29.0884 18.4617 29.8126 17.276 30.9983C16.7999 31.4752 16.7999 32.2483 17.276 32.7251C17.7529 33.2012 18.526 33.2012 19.0029 32.7251C20.0641 31.664 21.0887 30.6394 22.0701 29.6572C21.782 29.693 21.5721 29.7101 21.4549 29.7101C20.7771 29.7102 20.236 29.1294 20.296 28.4463Z" fill="url(#paint3_linear_442_628)"/>
<defs>
<linearGradient id="paint0_linear_442_628" x1="22.4746" y1="6.03906" x2="22.4746" y2="45.8322" gradientUnits="userSpaceOnUse">
<stop stop-color="white"/>
<stop offset="1" stop-color="#987859"/>
</linearGradient>
<linearGradient id="paint1_linear_442_628" x1="17.443" y1="40.248" x2="17.443" y2="45.8339" gradientUnits="userSpaceOnUse">
<stop stop-color="white"/>
<stop offset="1" stop-color="#987859"/>
</linearGradient>
<linearGradient id="paint2_linear_442_628" x1="33.0946" y1="4.16699" x2="33.0946" y2="29.6561" gradientUnits="userSpaceOnUse">
<stop stop-color="white"/>
<stop offset="1" stop-color="#987859"/>
</linearGradient>
<linearGradient id="paint3_linear_442_628" x1="19.4945" y1="27.9189" x2="19.4945" y2="33.0822" gradientUnits="userSpaceOnUse">
<stop stop-color="white"/>
<stop offset="1" stop-color="#987859"/>
</linearGradient>
</defs>
</svg>
