<?xml version="1.0" encoding="utf-8"?>
<!-- Generator: Adobe Illustrator 19.2.1, SVG Export Plug-In . SVG Version: 6.00 Build 0)  -->
<svg version="1.1" id="Layer_1" xmlns="http://www.w3.org/2000/svg" xmlns:xlink="http://www.w3.org/1999/xlink" x="0px" y="0px"
	 viewBox="0 0 150 150" style="enable-background:new 0 0 150 150;" xml:space="preserve">
<style type="text/css">
	.st0{fill:#FFFFFF;}
	.st1{fill:#FFCD00;}
</style>
<path class="st0" d="M136.4,0.1c-0.2,0-0.3-0.1-0.4-0.1H68.8C58.4,0,50,8.4,50,18.8V25c0,3.5,2.8,6.3,6.2,6.3s6.2-2.8,6.2-6.3v-6.2
	c0-3.4,2.8-6.2,6.3-6.2h29.1L96,13.1c-5.1,1.7-8.5,6.5-8.5,11.9v93.8H68.8c-3.4,0-6.3-2.8-6.3-6.2V100c0-3.4-2.8-6.2-6.2-6.2
	S50,96.6,50,100v12.5c0,10.3,8.4,18.8,18.8,18.8h18.8v6.2c0,6.9,5.6,12.5,12.5,12.5c1.3,0,2.6-0.2,4-0.6l37.6-12.5
	c5.1-1.7,8.5-6.5,8.5-11.9V12.5C150,5.2,143.7-0.5,136.4,0.1z"/>
<path class="st1" d="M66.9,58.1l-25-25c-1.8-1.8-4.5-2.3-6.8-1.4c-2.3,1-3.9,3.3-3.9,5.8v18.8h-25c-3.4,0-6.2,2.8-6.2,6.2
	c0,3.5,2.8,6.3,6.2,6.3h25v18.8c0,2.5,1.5,4.8,3.9,5.8c2.3,1,5,0.4,6.8-1.4l25-25C69.4,64.5,69.4,60.5,66.9,58.1z"/>
</svg>
