<?xml version="1.0" encoding="utf-8"?>
<!-- Generator: Adobe Illustrator 19.2.1, SVG Export Plug-In . SVG Version: 6.00 Build 0)  -->
<svg version="1.1" id="Layer_1" xmlns="http://www.w3.org/2000/svg" xmlns:xlink="http://www.w3.org/1999/xlink" x="0px" y="0px"
	 viewBox="0 0 150 150" style="enable-background:new 0 0 150 150;" xml:space="preserve">
<style type="text/css">
	.st0{fill:#FFFFFF;}
</style>
<g>
	<g>
		<path class="st0" d="M138.4,115.3l-9.8-9.8c-5.5,9.6-13.5,17.5-23,23l9.8,9.8C124.6,132.4,132.5,124.5,138.4,115.3z"/>
		<path class="st0" d="M21.4,105.5l-9.8,9.8c5.9,9.2,13.8,17.1,23,23l9.8-9.8C34.9,123.1,26.9,115.1,21.4,105.5z"/>
		<path class="st0" d="M99.6,131.5c-11,4.8-23.5,6.2-35.4,4.1c-4.8-0.8-9.4-2.2-13.8-4.1c-0.3-0.1-0.6-0.3-1-0.4l-10,10
			c0.6,0.3,1.1,0.6,1.7,0.9c10.6,5.3,22.4,8.1,34.2,8.1c11.6-0.1,23.1-2.9,33.5-8.1c0.6-0.3,1.1-0.6,1.7-0.9l-10-10
			C100.3,131.3,99.9,131.4,99.6,131.5z"/>
		<path class="st0" d="M6.3,105.3c0.5,1.2,1.1,2.4,1.7,3.6c0.3,0.6,0.6,1.1,0.9,1.7l10-10c-0.1-0.3-0.3-0.6-0.4-1
			c-0.2-0.4-0.3-0.8-0.5-1.1c-4.6-11.2-5.7-23.9-3.4-35.8c0.9-4.5,2.3-9,4.3-13.2l-10-10c0.2,0.2-3.3,6.9-3.5,7.6
			c-1.1,2.7-2,5.5-2.7,8.3c-1.5,5.7-2.3,11.5-2.5,17.4C-0.3,83.9,1.8,95.1,6.3,105.3z"/>
		<path class="st0" d="M50.4,18.5c0.4-0.2,0.8-0.3,1.2-0.5c7.4-3.1,15.5-4.6,23.5-4.6c8.1,0,16.2,1.6,23.7,4.7
			c0.6,0.3,1.2,0.5,1.8,0.8l10-10c-6.9-3.7-14.4-6.3-22.1-7.6c-7.7-1.4-15.7-1.6-23.4-0.6c-7.7,1-15.2,3.1-22.2,6.5
			c-0.6,0.3-1.2,0.6-1.8,0.9c-0.6,0.3-1.1,0.6-1.7,0.9l10,10C49.8,18.7,50.1,18.6,50.4,18.5z"/>
		<path class="st0" d="M128.6,44.5l9.8-9.8c-5.9-9.2-13.8-17.1-23-23l-9.8,9.8C115.2,26.9,123.1,34.9,128.6,44.5z"/>
		<path class="st0" d="M146.6,97.6c2.3-7.3,3.4-15,3.4-22.6c0-11.7-2.7-23.3-8-33.8c-0.3-0.6-0.6-1.1-0.9-1.7l-10,10
			c0.1,0.3,0.3,0.6,0.4,1c0.2,0.4,0.3,0.8,0.5,1.1c4.7,11.3,5.8,24,3.3,36c-0.6,3.1-1.5,6.1-2.6,9c-0.2,0.6-0.5,1.2-0.7,1.8
			c-0.2,0.4-0.3,0.8-0.5,1.1c-0.1,0.3-0.3,0.6-0.4,1l10,10c0.3-0.6,0.6-1.1,0.9-1.7C143.9,105.2,145.4,101.4,146.6,97.6z"/>
		<path class="st0" d="M11.7,34.7l9.8,9.8c5.5-9.6,13.5-17.5,23-23l-9.8-9.8C25.5,17.6,17.6,25.5,11.7,34.7z"/>
		<path class="st0" d="M75,44.2c-4.8,5.3-16.6,18.4-19.7,21.7c-6.4,6.9-5.1,16-1.6,20c3.1,3.5,6.1,5.2,9.4,5.2c4,0,7-3.8,8.5-7.1
			c0.8-1.5,1.2-3.7,3.4-3.6c2.2,0.1,2.6,2.5,3.5,4.1c0.9,1.8,2.2,3.5,3.7,4.8c1.3,1,2.8,1.8,4.5,1.8c3.2,0,6.3-1.7,9.4-5.2
			c3.5-3.9,4.8-13-1.6-19.9C91.6,62.6,79.8,49.5,75,44.2z"/>
		<path class="st0" d="M131,69.1c-0.8-7.6-3.1-15.1-6.9-21.8c-5.1-8.9-12.6-16.4-21.5-21.4c-13.6-7.7-30.4-9.3-45.3-4.3
			c-9.4,3.1-17.9,8.8-24.5,16.2c-7.2,8.1-11.9,18.2-13.5,28.9c-1.8,12.3,0.5,25,6.6,35.9c3.1,5.5,7.2,10.6,12,14.8
			c8.2,7.2,18.5,11.9,29.3,13.4c12.3,1.7,25-0.7,35.7-6.8c5.5-3.2,10.5-7.2,14.7-12c7.3-8.4,12-18.9,13.3-29.9
			C131.4,77.7,131.5,73.3,131,69.1z M100.3,89.4c-4.2,4.7-8.6,7-13.4,7c-2.5,0-5-0.9-7.2-2.5c2.8,7.7,7.9,13.2,11.5,13.2
			c1.5,0,2.7,1.2,2.7,2.7s-1.2,2.7-2.7,2.7H58.9c-1.5,0-2.7-1.2-2.7-2.7s1.2-2.7,2.7-2.7c3.5,0,8.7-5.5,11.4-13.2
			c-2.1,1.5-4.5,2.5-7.2,2.5c-4.9,0-9.4-2.4-13.5-7.1c-4.6-5.3-7.2-17.6,1.7-27.1c3.8-4.1,21.4-23.7,21.6-23.9
			c0.5-0.6,1.2-0.9,2-0.9l0,0c0.8,0,1.5,0.3,2,0.9c0.2,0.2,17.8,19.8,21.6,23.9C107.2,71.5,105.1,84,100.3,89.4z"/>
	</g>
</g>
</svg>
