<svg width="38" height="38" viewBox="0 0 38 38" fill="none" xmlns="http://www.w3.org/2000/svg">
<g clip-path="url(#clip0_5011_81076)">
<path d="M19 0C15.2422 0 11.5687 1.11433 8.44417 3.20208C5.31964 5.28982 2.88436 8.25722 1.4463 11.729C0.00823247 15.2008 -0.368031 19.0211 0.365088 22.7067C1.09821 26.3924 2.90778 29.7778 5.56498 32.435C8.22218 35.0922 11.6077 36.9018 15.2933 37.6349C18.9789 38.368 22.7992 37.9918 26.271 36.5537C29.7428 35.1156 32.7102 32.6804 34.7979 29.5558C36.8857 26.4313 38 22.7578 38 19C38 13.9609 35.9982 9.12816 32.435 5.56497C28.8718 2.00178 24.0391 0 19 0ZM27.3917 24.2725C27.6149 24.473 27.7949 24.7168 27.9207 24.9892C28.0466 25.2615 28.1156 25.5566 28.1236 25.8565C28.1317 26.1565 28.0785 26.4548 27.9674 26.7335C27.8563 27.0122 27.6896 27.2654 27.4775 27.4775C27.2654 27.6896 27.0122 27.8563 26.7335 27.9674C26.4549 28.0785 26.1565 28.1317 25.8566 28.1236C25.5566 28.1156 25.2615 28.0466 24.9892 27.9207C24.7168 27.7949 24.473 27.6149 24.2725 27.3917L19 22.1192L13.7275 27.3917C13.527 27.6149 13.2832 27.7949 13.0108 27.9207C12.7385 28.0466 12.4434 28.1156 12.1435 28.1236C11.8436 28.1317 11.5452 28.0785 11.2665 27.9674C10.9878 27.8563 10.7346 27.6896 10.5225 27.4775C10.3104 27.2654 10.1437 27.0122 10.0326 26.7335C9.92149 26.4548 9.86834 26.1565 9.87637 25.8565C9.8844 25.5566 9.95345 25.2615 10.0793 24.9892C10.2051 24.7168 10.3851 24.473 10.6083 24.2725L15.8808 19L10.6083 13.7275C10.2306 13.3069 10.0284 12.7575 10.0436 12.1924C10.0587 11.6273 10.2899 11.0894 10.6897 10.6897C11.0894 10.2899 11.6273 10.0587 12.1924 10.0436C12.7575 10.0284 13.3069 10.2306 13.7275 10.6083L19 15.8808L24.2725 10.6083C24.473 10.3851 24.7168 10.2051 24.9892 10.0793C25.2615 9.95344 25.5566 9.8844 25.8566 9.87636C26.1565 9.86833 26.4549 9.92148 26.7335 10.0326C27.0122 10.1437 27.2654 10.3104 27.4775 10.5225C27.6896 10.7346 27.8563 10.9878 27.9674 11.2665C28.0785 11.5452 28.1317 11.8435 28.1236 12.1435C28.1156 12.4434 28.0466 12.7385 27.9207 13.0108C27.7949 13.2832 27.6149 13.527 27.3917 13.7275L22.1192 19L27.3917 24.2725Z" fill="white"/>
</g>
<defs>
<clipPath id="clip0_5011_81076">
<rect width="38" height="38" fill="white"/>
</clipPath>
</defs>
</svg>
