<svg width="16" height="16" viewBox="0 0 16 16" fill="none" xmlns="http://www.w3.org/2000/svg">
<path d="M14.9715 1.03809C14.075 0.140739 12.8087 0 11.3143 0H4.66804C3.1913 0 1.92536 0.140739 1.02851 1.03772C0.131658 1.9347 0 3.19272 0 4.66204V11.3117C0 12.8159 0.132033 14.0649 1.02851 14.9623C1.92498 15.8596 3.1913 16 4.69467 16H11.3143C12.8087 16 14.075 15.8593 14.9715 14.9623C15.868 14.0653 16 12.8159 16 11.3117V4.68831C16 3.18409 15.8683 1.92644 14.9715 1.03809ZM8 13.1586C7.81592 13.1583 7.63945 13.085 7.50925 12.9548C7.37905 12.8246 7.30572 12.6481 7.30533 12.4639V8.69056H3.54314C3.15604 8.69056 2.84846 8.3738 2.84846 8.0045C2.84846 7.6352 3.15604 7.30081 3.54276 7.30081H7.30533V3.53575C7.30533 3.14018 7.6129 2.83205 8 2.83205C8.39572 2.83205 8.69467 3.1398 8.69467 3.53575V7.30081H12.4659C12.853 7.30081 13.1605 7.63483 13.1605 8.0045C13.1605 8.3738 12.853 8.69056 12.4659 8.69056H8.69467V12.4643C8.69522 12.5557 8.67763 12.6463 8.6429 12.7308C8.60818 12.8154 8.55703 12.8922 8.49241 12.9568C8.42779 13.0215 8.35099 13.0726 8.26646 13.1073C8.18193 13.142 8.09136 13.1592 8 13.1586Z" fill="white"/>
</svg>
