<svg width="64" height="64" viewBox="0 0 64 64" fill="none" xmlns="http://www.w3.org/2000/svg">
<g clip-path="url(#clip0_7312_88581)">
<path fill-rule="evenodd" clip-rule="evenodd" d="M11.1598 25.2411C11.6005 25.6819 12.1586 25.9816 12.7632 26.1075C12.6866 28.404 12.7037 32.7733 12.8145 34.1444L12.9703 36.0943C13.0986 37.6972 13.7935 39.2019 14.9305 40.3389C16.0675 41.4759 17.5722 42.1708 19.175 42.2991L20.9574 42.4427C22.7192 42.5833 25.2069 42.6535 26.9731 42.6531C28.7288 42.6531 31.2074 42.5828 32.9569 42.4427L34.7397 42.3004C36.3427 42.1721 37.8477 41.477 38.9847 40.3397C40.1217 39.2025 40.8165 37.6974 40.9445 36.0943L41.0885 34.3116C41.2137 33.4878 41.2275 28.6755 41.146 26.1084C41.7518 25.9831 42.3111 25.6834 42.7527 25.2421C43.2878 24.7075 43.6153 24 43.6766 23.2461L43.7438 22.4066C43.8134 21.9493 43.8098 21.9051 43.7459 21.1039V21.1038L43.7438 21.0774L43.6766 20.238C43.6159 19.4836 43.2887 18.7754 42.7535 18.2403C42.2184 17.7051 41.5102 17.3779 40.7558 17.3172L39.9168 17.25C39.0896 17.1841 27.7863 17.1509 26.9569 17.1509C26.1275 17.1509 14.8237 17.1841 13.9969 17.25L13.1575 17.3172C12.4031 17.3779 11.695 17.7051 11.1598 18.2403C10.6246 18.7754 10.2974 19.4836 10.2367 20.238L10.1634 21.1547C10.1513 21.3053 10.1416 21.4124 10.1343 21.4932C10.1231 21.617 10.1176 21.6788 10.1176 21.7407C10.1176 21.8026 10.1231 21.8645 10.1343 21.9882C10.1416 22.069 10.1513 22.1761 10.1634 22.3267L10.2367 23.2434C10.2974 23.9978 10.6246 24.706 11.1598 25.2411ZM38.1838 13.6709C37.4779 12.7647 36.5044 12.1038 35.4016 11.7822C34.2988 11.4605 33.1227 11.4944 32.0402 11.879L28.7191 13.3117C28.1624 13.5517 27.5625 13.6755 26.9562 13.6755C26.35 13.6755 25.7501 13.5517 25.1933 13.3117L21.8723 11.879C20.7898 11.4944 19.6137 11.4605 18.5109 11.7822C17.4081 12.1038 16.4346 12.7647 15.7286 13.6709C15.6174 13.8439 15.5548 14.0437 15.5474 14.2493C15.5401 14.4549 15.5882 14.6586 15.6867 14.8392C15.7853 15.0197 15.9307 15.1704 16.1075 15.2754C16.2844 15.3804 16.4863 15.4358 16.692 15.4358H37.2204C37.4261 15.4358 37.628 15.3804 37.8049 15.2754C37.9818 15.1704 38.1272 15.0197 38.2257 14.8392C38.3243 14.6586 38.3724 14.4549 38.365 14.2493C38.3577 14.0437 38.2951 13.8439 38.1838 13.6709Z" fill="#A0A8C2"/>
<g filter="url(#filter0_bi_7312_88581)">
<mask id="path-2-inside-1_7312_88581" fill="white">
<path fill-rule="evenodd" clip-rule="evenodd" d="M22.5591 39.4294C22.5712 38.3611 21.7491 37.4712 20.9937 36.7158V36.7158C20.4585 36.1806 20.1313 35.4724 20.0706 34.7181L19.9973 33.8014C19.9667 33.4198 19.9514 33.3176 19.9514 33.2153C19.9514 33.1131 19.9667 33.0108 19.9973 32.6293L20.0706 31.7126C20.1313 30.9582 20.4585 30.25 20.9937 29.7149C21.5288 29.1797 22.237 28.8525 22.9914 28.7918L23.8308 28.7246C24.6576 28.6587 35.9614 28.6255 36.7907 28.6255C37.6201 28.6255 48.9235 28.6587 49.7507 28.7246L50.5897 28.7918C51.3441 28.8525 52.0522 29.1797 52.5874 29.7149C53.1225 30.25 53.4498 30.9582 53.5105 31.7126L53.5777 32.552L53.5798 32.5784C53.6437 33.3797 53.6472 33.4239 53.5777 33.8812L53.5105 34.7207C53.4492 35.4746 53.1217 36.1821 52.5866 36.7168V36.7168C51.8296 37.4731 51.0048 38.3633 51.0183 39.4333C51.0507 41.9902 51.0214 45.1349 50.9224 45.7862L50.7783 47.569C50.6503 49.172 49.9556 50.6771 48.8185 51.8143C47.6815 52.9516 46.1766 53.6467 44.5736 53.775L42.7908 53.9173C41.0412 54.0574 38.5626 54.1277 36.807 54.1277C35.0408 54.1282 32.553 54.0579 30.7912 53.9173L29.0089 53.7737C27.4061 53.6454 25.9013 52.9505 24.7643 51.8135C23.6273 50.6765 22.9324 49.1718 22.8042 47.569L22.6483 45.619C22.563 44.5626 22.5333 41.7261 22.5591 39.4294ZM45.2354 23.2568C46.3382 23.5785 47.3117 24.2393 48.0177 25.1455C48.1289 25.3186 48.1915 25.5183 48.1989 25.7239C48.2063 25.9295 48.1581 26.1332 48.0596 26.3138C47.961 26.4943 47.8157 26.645 47.6388 26.75C47.4619 26.855 47.26 26.9104 47.0543 26.9104H26.5259C26.3202 26.9104 26.1183 26.855 25.9414 26.75C25.7645 26.645 25.6192 26.4943 25.5206 26.3138C25.422 26.1332 25.3739 25.9295 25.3813 25.7239C25.3887 25.5183 25.4513 25.3186 25.5625 25.1455C26.2685 24.2393 27.2419 23.5785 28.3447 23.2568C29.4475 22.9351 30.6237 22.969 31.7061 23.3536L35.0272 24.7863C35.5839 25.0263 36.1838 25.1501 36.7901 25.1501C37.3964 25.1501 37.9963 25.0263 38.553 24.7863L41.8741 23.3536C42.9565 22.969 44.1326 22.9351 45.2354 23.2568Z"/>
</mask>
<path fill-rule="evenodd" clip-rule="evenodd" d="M22.5591 39.4294C22.5712 38.3611 21.7491 37.4712 20.9937 36.7158V36.7158C20.4585 36.1806 20.1313 35.4724 20.0706 34.7181L19.9973 33.8014C19.9667 33.4198 19.9514 33.3176 19.9514 33.2153C19.9514 33.1131 19.9667 33.0108 19.9973 32.6293L20.0706 31.7126C20.1313 30.9582 20.4585 30.25 20.9937 29.7149C21.5288 29.1797 22.237 28.8525 22.9914 28.7918L23.8308 28.7246C24.6576 28.6587 35.9614 28.6255 36.7907 28.6255C37.6201 28.6255 48.9235 28.6587 49.7507 28.7246L50.5897 28.7918C51.3441 28.8525 52.0522 29.1797 52.5874 29.7149C53.1225 30.25 53.4498 30.9582 53.5105 31.7126L53.5777 32.552L53.5798 32.5784C53.6437 33.3797 53.6472 33.4239 53.5777 33.8812L53.5105 34.7207C53.4492 35.4746 53.1217 36.1821 52.5866 36.7168V36.7168C51.8296 37.4731 51.0048 38.3633 51.0183 39.4333C51.0507 41.9902 51.0214 45.1349 50.9224 45.7862L50.7783 47.569C50.6503 49.172 49.9556 50.6771 48.8185 51.8143C47.6815 52.9516 46.1766 53.6467 44.5736 53.775L42.7908 53.9173C41.0412 54.0574 38.5626 54.1277 36.807 54.1277C35.0408 54.1282 32.553 54.0579 30.7912 53.9173L29.0089 53.7737C27.4061 53.6454 25.9013 52.9505 24.7643 51.8135C23.6273 50.6765 22.9324 49.1718 22.8042 47.569L22.6483 45.619C22.563 44.5626 22.5333 41.7261 22.5591 39.4294ZM45.2354 23.2568C46.3382 23.5785 47.3117 24.2393 48.0177 25.1455C48.1289 25.3186 48.1915 25.5183 48.1989 25.7239C48.2063 25.9295 48.1581 26.1332 48.0596 26.3138C47.961 26.4943 47.8157 26.645 47.6388 26.75C47.4619 26.855 47.26 26.9104 47.0543 26.9104H26.5259C26.3202 26.9104 26.1183 26.855 25.9414 26.75C25.7645 26.645 25.6192 26.4943 25.5206 26.3138C25.422 26.1332 25.3739 25.9295 25.3813 25.7239C25.3887 25.5183 25.4513 25.3186 25.5625 25.1455C26.2685 24.2393 27.2419 23.5785 28.3447 23.2568C29.4475 22.9351 30.6237 22.969 31.7061 23.3536L35.0272 24.7863C35.5839 25.0263 36.1838 25.1501 36.7901 25.1501C37.3964 25.1501 37.9963 25.0263 38.553 24.7863L41.8741 23.3536C42.9565 22.969 44.1326 22.9351 45.2354 23.2568Z" fill="white" fill-opacity="0.3"/>
<path d="M20.0706 34.7181L19.6719 34.75L19.6719 34.7501L20.0706 34.7181ZM19.9973 33.8014L20.396 33.7695L20.396 33.7694L19.9973 33.8014ZM19.9514 33.2153L19.5514 33.2153L19.9514 33.2153ZM19.9973 32.6293L20.396 32.6612L20.396 32.6612L19.9973 32.6293ZM20.0706 31.7126L19.6719 31.6805L19.6719 31.6807L20.0706 31.7126ZM20.9937 29.7149L20.7108 29.432L20.7108 29.432L20.9937 29.7149ZM22.9914 28.7918L22.9594 28.3931L22.9593 28.3931L22.9914 28.7918ZM23.8308 28.7246L23.799 28.3259L23.7989 28.3259L23.8308 28.7246ZM49.7507 28.7246L49.7826 28.3259L49.7825 28.3259L49.7507 28.7246ZM50.5897 28.7918L50.6218 28.3931L50.6216 28.3931L50.5897 28.7918ZM52.5874 29.7149L52.8702 29.432L52.8702 29.432L52.5874 29.7149ZM53.5105 31.7126L53.9092 31.6807L53.9092 31.6805L53.5105 31.7126ZM53.5777 32.552L53.9764 32.5203L53.9764 32.5201L53.5777 32.552ZM53.5798 32.5784L53.1811 32.6101L53.1811 32.6102L53.5798 32.5784ZM53.5777 33.8812L53.1822 33.8211L53.1801 33.8352L53.179 33.8493L53.5777 33.8812ZM53.5105 34.7207L53.9091 34.7531L53.9092 34.7526L53.5105 34.7207ZM50.9224 45.7862L50.5269 45.7261L50.5248 45.74L50.5237 45.754L50.9224 45.7862ZM50.7783 47.569L50.3796 47.5367L50.3796 47.5371L50.7783 47.569ZM48.8185 51.8143L49.1014 52.0971L49.1014 52.0971L48.8185 51.8143ZM44.5736 53.775L44.6054 54.1737L44.6055 54.1737L44.5736 53.775ZM42.7908 53.9173L42.759 53.5186L42.7589 53.5186L42.7908 53.9173ZM36.807 54.1277L36.807 53.7277L36.8069 53.7277L36.807 54.1277ZM30.7912 53.9173L30.7591 54.316L30.7594 54.3161L30.7912 53.9173ZM29.0089 53.7737L29.041 53.375L29.0408 53.375L29.0089 53.7737ZM24.7643 51.8135L24.4815 52.0964L24.4815 52.0964L24.7643 51.8135ZM22.8042 47.569L22.4054 47.6008L22.4054 47.6009L22.8042 47.569ZM22.6483 45.619L23.047 45.5871L23.047 45.5868L22.6483 45.619ZM48.0177 25.1455L48.3542 24.9292L48.3444 24.914L48.3332 24.8997L48.0177 25.1455ZM45.2354 23.2568L45.1234 23.6408L45.1234 23.6408L45.2354 23.2568ZM48.1989 25.7239L47.7991 25.7382L47.7991 25.7382L48.1989 25.7239ZM47.6388 26.75L47.4346 26.406L47.4346 26.406L47.6388 26.75ZM47.0543 26.9104L47.0543 27.3104L47.0543 27.3104L47.0543 26.9104ZM26.5259 26.9104L26.5259 27.3104H26.5259V26.9104ZM25.3813 25.7239L24.9815 25.7096L24.9815 25.7096L25.3813 25.7239ZM25.5625 25.1455L25.2469 24.8997L25.2358 24.914L25.226 24.9292L25.5625 25.1455ZM28.3447 23.2568L28.2327 22.8728L28.2327 22.8728L28.3447 23.2568ZM31.7061 23.3536L31.8646 22.9863L31.8525 22.9811L31.84 22.9767L31.7061 23.3536ZM35.0272 24.7863L34.8687 25.1536L34.8688 25.1536L35.0272 24.7863ZM38.553 24.7863L38.7114 25.1536L38.7114 25.1536L38.553 24.7863ZM41.8741 23.3536L41.7401 22.9767L41.7277 22.9811L41.7156 22.9863L41.8741 23.3536ZM51.0183 39.4333L51.4183 39.4283L51.0183 39.4333ZM21.2765 36.4329C20.8085 35.9649 20.5224 35.3457 20.4693 34.686L19.6719 34.7501C19.7402 35.5992 20.1085 36.3963 20.7108 36.9986L21.2765 36.4329ZM20.4693 34.6862L20.396 33.7695L19.5985 33.8333L19.6719 34.75L20.4693 34.6862ZM20.396 33.7694C20.3629 33.357 20.3514 33.2968 20.3514 33.2153L19.5514 33.2153C19.5514 33.3384 19.5704 33.4827 19.5985 33.8333L20.396 33.7694ZM20.3514 33.2153C20.3514 33.1339 20.3629 33.0737 20.396 32.6612L19.5985 32.5974C19.5704 32.9479 19.5514 33.0922 19.5514 33.2153L20.3514 33.2153ZM20.396 32.6612L20.4693 31.7445L19.6719 31.6807L19.5985 32.5974L20.396 32.6612ZM20.4693 31.7447C20.5224 31.085 20.8085 30.4657 21.2765 29.9977L20.7108 29.432C20.1085 30.0344 19.7402 30.8314 19.6719 31.6805L20.4693 31.7447ZM21.2765 29.9977C21.7445 29.5297 22.3638 29.2436 23.0234 29.1905L22.9593 28.3931C22.1102 28.4614 21.3132 28.8297 20.7108 29.432L21.2765 29.9977ZM23.0233 29.1905L23.8627 29.1233L23.7989 28.3259L22.9594 28.3931L23.0233 29.1905ZM23.8626 29.1233C24.2564 29.0919 27.2643 29.0669 30.312 29.0503C33.3447 29.0338 36.3771 29.0255 36.7907 29.0255V28.2255C36.375 28.2255 33.3408 28.2338 30.3076 28.2503C27.2893 28.2668 24.2319 28.2913 23.799 28.3259L23.8626 29.1233ZM36.7907 29.0255C37.2044 29.0255 40.2367 29.0338 43.2694 29.0503C46.3169 29.0669 49.3248 29.0919 49.7189 29.1233L49.7825 28.3259C49.3493 28.2913 46.292 28.2668 43.2737 28.2503C40.2405 28.2338 37.2065 28.2255 36.7907 28.2255V29.0255ZM49.7187 29.1233L50.5577 29.1905L50.6216 28.3931L49.7826 28.3259L49.7187 29.1233ZM50.5576 29.1905C51.2173 29.2436 51.8366 29.5297 52.3046 29.9977L52.8702 29.432C52.2679 28.8297 51.4709 28.4614 50.6218 28.3931L50.5576 29.1905ZM52.3046 29.9977C52.7725 30.4657 53.0587 31.085 53.1118 31.7447L53.9092 31.6805C53.8409 30.8314 53.4726 30.0344 52.8702 29.432L52.3046 29.9977ZM53.1117 31.7445L53.179 32.584L53.9764 32.5201L53.9092 31.6807L53.1117 31.7445ZM53.179 32.5838L53.1811 32.6101L53.9785 32.5466L53.9764 32.5203L53.179 32.5838ZM53.1811 32.6102C53.2136 33.0188 53.2286 33.2106 53.2288 33.3592C53.2289 33.4948 53.2167 33.5942 53.1822 33.8211L53.9731 33.9414C54.0082 33.7109 54.029 33.5596 54.0288 33.3584C54.0286 33.1703 54.0098 32.9393 53.9785 32.5466L53.1811 32.6102ZM53.179 33.8493L53.1117 34.6887L53.9092 34.7526L53.9764 33.9132L53.179 33.8493ZM53.1118 34.6883C53.0582 35.3475 52.7718 35.9663 52.3039 36.4338L52.8693 36.9997C53.4716 36.398 53.8402 35.6016 53.9091 34.7531L53.1118 34.6883ZM51.3178 45.8463C51.3725 45.4866 51.4041 44.504 51.4196 43.3296C51.4353 42.1386 51.4345 40.7098 51.4183 39.4283L50.6184 39.4384C50.6345 40.7137 50.6353 42.1357 50.6196 43.3191C50.6038 44.519 50.5712 45.4344 50.5269 45.7261L51.3178 45.8463ZM51.177 47.6012L51.3211 45.8184L50.5237 45.754L50.3796 47.5367L51.177 47.6012ZM49.1014 52.0971C50.3056 50.8927 51.0415 49.2986 51.1771 47.6008L50.3796 47.5371C50.2592 49.0454 49.6055 50.4615 48.5357 51.5315L49.1014 52.0971ZM44.6055 54.1737C46.3033 54.0378 47.8972 53.3016 49.1014 52.0971L48.5357 51.5315C47.4659 52.6015 46.0499 53.2555 44.5417 53.3763L44.6055 54.1737ZM42.8226 54.316L44.6054 54.1737L44.5417 53.3763L42.759 53.5186L42.8226 54.316ZM36.807 54.5277C38.5694 54.5277 41.0592 54.4573 42.8227 54.316L42.7589 53.5186C41.0232 53.6576 38.5559 53.7277 36.807 53.7277V54.5277ZM30.7594 54.3161C32.5351 54.4577 35.0341 54.5282 36.807 54.5277L36.8069 53.7277C35.0475 53.7282 32.571 53.658 30.823 53.5186L30.7594 54.3161ZM28.9768 54.1724L30.7591 54.316L30.8233 53.5186L29.041 53.375L28.9768 54.1724ZM24.4815 52.0964C25.6857 53.3006 27.2794 54.0366 28.977 54.1724L29.0408 53.375C27.5327 53.2543 26.117 52.6004 25.0472 51.5307L24.4815 52.0964ZM22.4054 47.6009C22.5413 49.2984 23.2773 50.8922 24.4815 52.0964L25.0472 51.5307C23.9774 50.4609 23.3236 49.0451 23.2029 47.537L22.4054 47.6009ZM22.2496 45.6509L22.4054 47.6008L23.2029 47.5371L23.047 45.5871L22.2496 45.6509ZM22.1592 39.4249C22.1333 41.7197 22.1626 44.5738 22.2496 45.6512L23.047 45.5868C22.9634 44.5514 22.9332 41.7325 22.9591 39.4339L22.1592 39.4249ZM48.3332 24.8997C47.5756 23.9272 46.5309 23.218 45.3474 22.8728L45.1234 23.6408C46.1456 23.9389 47.0478 24.5514 47.7021 25.3914L48.3332 24.8997ZM48.5986 25.7096C48.5887 25.4322 48.5042 25.1627 48.3542 24.9292L47.6812 25.3618C47.7536 25.4744 47.7944 25.6045 47.7991 25.7382L48.5986 25.7096ZM48.4107 26.5054C48.5437 26.2618 48.6086 25.9869 48.5986 25.7096L47.7991 25.7382C47.8039 25.872 47.7726 26.0046 47.7085 26.1221L48.4107 26.5054ZM47.8429 27.094C48.0816 26.9523 48.2777 26.749 48.4107 26.5054L47.7085 26.1221C47.6443 26.2396 47.5497 26.3377 47.4346 26.406L47.8429 27.094ZM47.0543 27.3104C47.3318 27.3104 47.6042 27.2356 47.8429 27.094L47.4346 26.406C47.3195 26.4743 47.1881 26.5104 47.0543 26.5104L47.0543 27.3104ZM26.5259 27.3104H47.0543V26.5104H26.5259V27.3104ZM25.7373 27.094C25.9759 27.2356 26.2483 27.3104 26.5259 27.3104L26.5259 26.5104C26.3921 26.5104 26.2607 26.4743 26.1456 26.406L25.7373 27.094ZM25.1695 26.5054C25.3025 26.749 25.4986 26.9523 25.7373 27.094L26.1456 26.406C26.0304 26.3377 25.9358 26.2396 25.8717 26.1221L25.1695 26.5054ZM24.9815 25.7096C24.9716 25.9869 25.0365 26.2618 25.1695 26.5054L25.8717 26.1221C25.8076 26.0046 25.7762 25.872 25.781 25.7382L24.9815 25.7096ZM25.226 24.9292C25.0759 25.1627 24.9915 25.4322 24.9815 25.7096L25.781 25.7382C25.7858 25.6045 25.8266 25.4744 25.899 25.3618L25.226 24.9292ZM28.2327 22.8728C27.0492 23.218 26.0046 23.9272 25.2469 24.8997L25.878 25.3914C26.5324 24.5514 27.4346 23.9389 28.4567 23.6408L28.2327 22.8728ZM31.84 22.9767C30.6784 22.564 29.4162 22.5276 28.2327 22.8728L28.4567 23.6408C29.4789 23.3427 30.5689 23.3741 31.5722 23.7305L31.84 22.9767ZM35.1856 24.419L31.8646 22.9863L31.5477 23.7209L34.8687 25.1536L35.1856 24.419ZM36.7901 24.7501C36.2383 24.7501 35.6923 24.6374 35.1856 24.419L34.8688 25.1536C35.4756 25.4152 36.1293 25.5501 36.7901 25.5501V24.7501ZM38.3946 24.419C37.8879 24.6374 37.3419 24.7501 36.7901 24.7501V25.5501C37.4508 25.5501 38.1046 25.4152 38.7114 25.1536L38.3946 24.419ZM41.7156 22.9863L38.3945 24.419L38.7114 25.1536L42.0325 23.7209L41.7156 22.9863ZM45.3474 22.8728C44.164 22.5276 42.9018 22.564 41.7401 22.9767L42.008 23.7305C43.0112 23.3741 44.1013 23.3427 45.1234 23.6408L45.3474 22.8728ZM52.3039 36.4338C51.9251 36.8122 51.5037 37.2487 51.1802 37.7363C50.8549 38.2265 50.6102 38.7952 50.6184 39.4384L51.4183 39.4283C51.4129 39.0014 51.5738 38.59 51.8468 38.1785C52.1216 37.7645 52.4911 37.3776 52.8693 36.9997L52.3039 36.4338ZM20.7108 36.9986C21.0881 37.3759 21.4566 37.7625 21.7307 38.1762C22.0031 38.5873 22.164 38.9985 22.1592 39.4249L22.9591 39.4339C22.9663 38.792 22.7221 38.2241 22.3976 37.7343C22.0749 37.2471 21.6547 36.8111 21.2765 36.4329L20.7108 36.9986Z" fill="url(#paint0_linear_7312_88581)" mask="url(#path-2-inside-1_7312_88581)"/>
</g>
<path d="M38.7914 47.7721C38.7913 47.9575 38.7217 48.1362 38.5964 48.2729C38.4711 48.4096 38.2991 48.4944 38.1144 48.5107C37.801 48.5386 37.3649 48.5613 36.7795 48.5613C36.219 48.5613 35.769 48.5338 35.4376 48.5028C35.2542 48.4849 35.0841 48.3994 34.9602 48.263C34.8363 48.1266 34.7677 47.9489 34.7676 47.7646V38.9032C34.7676 38.7064 34.8458 38.5177 34.9849 38.3785C35.1241 38.2393 35.3129 38.1611 35.5097 38.1611H38.0511C38.2479 38.1611 38.4367 38.2393 38.5758 38.3785C38.715 38.5177 38.7932 38.7064 38.7932 38.9032L38.7914 47.7721Z" fill="white"/>
</g>
<defs>
<filter id="filter0_bi_7312_88581" x="14.9097" y="17.9964" width="43.7607" height="41.1732" filterUnits="userSpaceOnUse" color-interpolation-filters="sRGB">
<feFlood flood-opacity="0" result="BackgroundImageFix"/>
<feGaussianBlur in="BackgroundImageFix" stdDeviation="2.52085"/>
<feComposite in2="SourceAlpha" operator="in" result="effect1_backgroundBlur_7312_88581"/>
<feBlend mode="normal" in="SourceGraphic" in2="effect1_backgroundBlur_7312_88581" result="shape"/>
<feColorMatrix in="SourceAlpha" type="matrix" values="0 0 0 0 0 0 0 0 0 0 0 0 0 0 0 0 0 0 127 0" result="hardAlpha"/>
<feOffset/>
<feGaussianBlur stdDeviation="0.420141"/>
<feComposite in2="hardAlpha" operator="arithmetic" k2="-1" k3="1"/>
<feColorMatrix type="matrix" values="0 0 0 0 1 0 0 0 0 1 0 0 0 0 1 0 0 0 0.25 0"/>
<feBlend mode="normal" in2="shape" result="effect2_innerShadow_7312_88581"/>
</filter>
<linearGradient id="paint0_linear_7312_88581" x1="24.3441" y1="24.7036" x2="45.7198" y2="52.1835" gradientUnits="userSpaceOnUse">
<stop stop-color="white" stop-opacity="0.97"/>
<stop offset="1" stop-color="#3C5BFF" stop-opacity="0.42"/>
</linearGradient>
<clipPath id="clip0_7312_88581">
<rect width="44.7" height="44.7" fill="white" transform="translate(9 10)"/>
</clipPath>
</defs>
</svg>
