<svg width="64" height="64" viewBox="0 0 64 64" fill="none" xmlns="http://www.w3.org/2000/svg">
<path d="M39.4773 11.6826C41.5807 11.6826 43.1954 13.2883 44.3917 15.016L44.7968 15.6274L45.1676 16.2369C45.2856 16.435 45.3978 16.6331 45.5062 16.8236C47.0029 19.5036 48.3057 23.0026 49.1673 26.4598C50.0231 29.8902 50.4967 33.4731 50.1943 36.2902C49.89 39.1188 48.435 42.1588 45.1829 42.1588C42.2654 42.1588 39.9661 40.5969 38.0984 39.0712L35.9874 37.2979C34.2319 35.8579 32.3111 34.5398 29.968 34.5398C27.6249 34.5398 25.7021 35.8579 23.9505 37.2979L21.8394 39.0693C19.968 40.5969 17.6686 42.1588 14.7531 42.1588C11.499 42.1588 10.0441 39.1188 9.74168 36.2902C9.44118 33.4712 9.91284 29.8902 10.7687 26.4579C11.6302 23.0026 12.933 19.5055 14.4298 16.8236L14.7683 16.235L15.1392 15.6274L15.5443 15.016C16.7405 13.2883 18.3552 11.6826 20.4587 11.6826C21.4286 11.6826 22.3929 11.9188 23.34 12.1969L24.4678 12.5436C24.6542 12.6007 24.8386 12.656 25.0231 12.7074C26.6682 13.1798 28.3514 13.5874 29.968 13.5874C31.5845 13.5874 33.2677 13.1798 34.9128 12.7074L36.596 12.1988C37.5431 11.9188 38.5073 11.6826 39.4773 11.6826Z" fill="#025BE8"/>
<g filter="url(#filter0_i_623_342)">
<path d="M43.5408 19.8096C45.6442 19.8096 47.2589 21.4153 48.4552 23.1429L48.8603 23.7543L49.2311 24.3639C49.349 24.562 49.4612 24.76 49.5697 24.9505C51.0664 27.6305 52.3692 31.1296 53.2307 34.5867C54.0866 38.0172 54.5601 41.6 54.2577 44.4172C53.9534 47.2458 52.4985 50.2858 49.2463 50.2858C46.3289 50.2858 44.0295 48.7239 42.1619 47.1981L40.0508 45.4248C38.2954 43.9848 36.3745 42.6667 34.0314 42.6667C31.6884 42.6667 29.7656 43.9848 28.014 45.4248L25.9029 47.1962C24.0315 48.7239 21.7321 50.2858 18.8166 50.2858C15.5625 50.2858 14.1075 47.2458 13.8052 44.4172C13.5047 41.5981 13.9763 38.0172 14.8322 34.5848C15.6937 31.1296 16.9965 27.6324 18.4932 24.9505L18.8318 24.362L19.2026 23.7543L19.6077 23.1429C20.804 21.4153 22.4187 19.8096 24.5221 19.8096C25.4921 19.8096 26.4563 20.0458 27.4035 20.3239L28.5313 20.6705C28.7176 20.7277 28.9021 20.7829 29.0866 20.8343C30.7317 21.3067 32.4149 21.7143 34.0314 21.7143C35.648 21.7143 37.3312 21.3067 38.9763 20.8343L40.6594 20.3258C41.6066 20.0458 42.5708 19.8096 43.5408 19.8096Z" fill="white" fill-opacity="0.3"/>
<path d="M40.7161 20.5178L39.0341 21.026L39.0315 21.0268C37.3844 21.4997 35.6781 21.9145 34.0314 21.9145C32.385 21.9145 30.679 21.4998 29.0322 21.027C28.8456 20.975 28.6594 20.9192 28.4725 20.8619L27.3459 20.5156C26.4023 20.2386 25.4615 20.0098 24.5221 20.0098C22.5266 20.0098 20.9647 21.5352 19.7733 23.2553L19.3714 23.8619L19.0038 24.4641L18.6673 25.0493C17.1813 27.7123 15.8844 31.1916 15.0262 34.6334C14.173 38.0554 13.7071 41.6104 14.004 44.3962C14.1529 45.7883 14.5844 47.2184 15.3658 48.2949C16.1422 49.3644 17.2626 50.086 18.8166 50.086C21.6577 50.086 23.9097 48.5651 25.7753 47.0424C25.7757 47.0421 25.776 47.0418 25.7764 47.0415L27.8854 45.2718L27.8869 45.2705C29.6408 43.8287 31.6119 42.4669 34.0314 42.4669C36.451 42.4669 38.4203 43.8288 40.1777 45.2704L40.1795 45.2719L42.2884 47.0435C42.2888 47.0438 42.2892 47.044 42.2895 47.0443C44.1512 48.5651 46.4033 50.086 49.2463 50.086C50.7993 50.086 51.9193 49.3645 52.6956 48.2949C53.4771 47.2183 53.9091 45.7882 54.0589 44.396C54.3577 41.6124 53.89 38.0556 53.0367 34.6353C52.1784 31.1913 50.8811 27.7092 49.395 25.0482M40.7161 20.5178C40.7163 20.5177 40.716 20.5179 40.7161 20.5178ZM40.7161 20.5178C41.6597 20.2389 42.6012 20.0098 43.5408 20.0098C45.5363 20.0098 47.0982 21.5352 48.2895 23.2552C48.2899 23.2558 48.2903 23.2564 48.2907 23.257L48.6914 23.8617L49.0593 24.4664M49.0593 24.4664C49.0594 24.4666 49.0592 24.4661 49.0593 24.4664ZM49.0593 24.4664C49.166 24.6456 49.2684 24.8257 49.3683 25.0012L49.395 25.0482M49.395 25.0482C49.3952 25.0485 49.3949 25.048 49.395 25.0482Z" stroke="url(#paint0_linear_623_342)" stroke-width="0.4"/>
</g>
<path d="M47.2381 30.9841H45.2063V28.9524C45.2063 28.683 45.0993 28.4246 44.9088 28.2341C44.7183 28.0436 44.4599 27.9365 44.1904 27.9365C43.921 27.9365 43.6626 28.0436 43.4721 28.2341C43.2816 28.4246 43.1746 28.683 43.1746 28.9524L43.2106 30.9841H41.1428C40.8734 30.9841 40.615 31.0912 40.4245 31.2817C40.234 31.4722 40.127 31.7306 40.127 32C40.127 32.2694 40.234 32.5278 40.4245 32.7183C40.615 32.9089 40.8734 33.0159 41.1428 33.0159L43.2106 32.9798L43.1746 35.0476C43.1746 35.3171 43.2816 35.5755 43.4721 35.766C43.6626 35.9565 43.921 36.0635 44.1904 36.0635C44.4599 36.0635 44.7183 35.9565 44.9088 35.766C45.0993 35.5755 45.2063 35.3171 45.2063 35.0476V32.9798L47.2381 33.0159C47.5075 33.0159 47.7659 32.9089 47.9564 32.7183C48.1469 32.5278 48.2539 32.2694 48.2539 32C48.2539 31.7306 48.1469 31.4722 47.9564 31.2817C47.7659 31.0912 47.5075 30.9841 47.2381 30.9841Z" fill="white"/>
<path d="M23.8731 35.0474C25.5562 35.0474 26.9207 33.6829 26.9207 31.9998C26.9207 30.3166 25.5562 28.9521 23.8731 28.9521C22.1899 28.9521 20.8254 30.3166 20.8254 31.9998C20.8254 33.6829 22.1899 35.0474 23.8731 35.0474Z" stroke="white" stroke-width="2.03175"/>
<defs>
<filter id="filter0_i_623_342" x="13.7144" y="19.8096" width="40.635" height="30.4766" filterUnits="userSpaceOnUse" color-interpolation-filters="sRGB">
<feFlood flood-opacity="0" result="BackgroundImageFix"/>
<feBlend mode="normal" in="SourceGraphic" in2="BackgroundImageFix" result="shape"/>
<feColorMatrix in="SourceAlpha" type="matrix" values="0 0 0 0 0 0 0 0 0 0 0 0 0 0 0 0 0 0 127 0" result="hardAlpha"/>
<feOffset/>
<feGaussianBlur stdDeviation="0.420141"/>
<feComposite in2="hardAlpha" operator="arithmetic" k2="-1" k3="1"/>
<feColorMatrix type="matrix" values="0 0 0 0 1 0 0 0 0 1 0 0 0 0 1 0 0 0 0.25 0"/>
<feBlend mode="normal" in2="shape" result="effect1_innerShadow_623_342"/>
</filter>
<linearGradient id="paint0_linear_623_342" x1="19.0146" y1="21.4424" x2="38.5405" y2="52.3399" gradientUnits="userSpaceOnUse">
<stop stop-color="white" stop-opacity="0.97"/>
<stop offset="1" stop-color="#3C5BFF" stop-opacity="0.42"/>
</linearGradient>
</defs>
</svg>
