<svg width="543" height="110" viewBox="0 0 543 110" fill="none" xmlns="http://www.w3.org/2000/svg">
<g filter="url(#filter0_d_2_6072)">
<path d="M64.8449 71.4598C64.8449 79.9409 61.8159 86.9774 55.758 92.5693C49.7933 98.068 42.151 100.817 32.8311 100.817C27.146 100.817 19.3173 98.9068 9.34505 95.0857C8.59947 94.8061 7.94707 94.6663 7.38788 94.6663C5.8035 94.6663 4.59192 96.3438 3.75313 99.699C3.47354 100.724 3.10074 101.237 2.63475 101.237C1.88916 101.237 1.51636 100.584 1.51636 99.2796C1.51636 98.068 1.74936 95.9244 2.21536 92.8489C2.58815 90.3325 2.77455 87.3968 2.77455 84.0416C2.77455 81.3388 2.72795 79.1953 2.63475 77.6109C2.44835 74.4421 2.35515 72.5782 2.35515 72.019C2.35515 70.5278 2.82115 69.7822 3.75313 69.7822C4.68512 69.7822 5.52391 71.786 6.2695 75.7935C7.57428 82.6902 10.51 88.0492 15.0768 91.8703C20.0163 95.971 25.3286 98.0214 31.0138 98.0214C36.0465 98.0214 40.287 96.437 43.7354 93.2683C47.1837 90.0995 48.9079 86.2318 48.9079 81.665C48.9079 77.7507 47.7895 74.6285 45.5527 72.2986C43.8752 70.621 38.4696 67.3124 29.3362 62.3729C19.1775 56.9674 12.2808 51.5619 8.64607 46.1563C5.29091 41.2168 3.61334 35.3453 3.61334 28.5418C3.61334 20.5267 6.4559 13.9096 12.141 8.69047C17.8261 3.37814 25.0024 0.72198 33.6699 0.72198C38.3298 0.72198 43.316 1.84036 48.6283 4.07713C50.3991 4.82272 51.6573 5.19552 52.4029 5.19552C53.8008 5.19552 54.7328 3.98393 55.1988 1.56077C55.3852 0.721978 55.8046 0.302583 56.457 0.302583C57.389 0.302583 57.855 0.908375 57.855 2.11996C57.855 2.58595 57.7618 3.89073 57.5754 6.0343C57.389 8.17787 57.2958 9.94865 57.2958 11.3466C57.2958 16.193 57.4822 20.2937 57.855 23.6489C57.9482 23.9285 57.9948 24.3012 57.9948 24.7672C57.9948 25.606 57.622 26.0254 56.8764 26.0254C56.0376 26.0254 55.1988 24.5342 54.36 21.5519C53.5212 18.5695 52.0301 15.6338 49.8865 12.7446C47.8361 9.76225 45.7391 7.61868 43.5956 6.3139C40.7996 4.63632 37.5377 3.79753 33.8097 3.79753C28.5906 3.79753 24.4432 5.05571 21.3677 7.57208C18.2921 10.0884 16.7544 13.5368 16.7544 17.9171C16.7544 21.7383 18.1989 25.14 21.0881 28.1224C23.9773 31.0116 29.5226 34.7395 37.7241 39.3062C47.7895 44.8982 54.4532 49.3717 57.7152 52.7268C62.4683 57.6664 64.8449 63.9107 64.8449 71.4598ZM148.178 74.5353C148.178 74.7217 148.131 79.0555 148.038 87.5366C147.945 92.0101 147.851 95.2255 147.758 97.1826C147.758 99.1398 147.758 100.072 147.758 99.9786C123.154 98.8602 101.625 98.534 83.1715 99L71.4285 99.2796C69.7509 99.2796 68.9121 98.9068 68.9121 98.1612C68.9121 97.602 69.0985 97.2758 69.4713 97.1826C69.9373 97.0894 71.3819 96.9496 73.8051 96.7632C78.1854 96.4836 80.562 95.2255 80.9348 92.9887C81.1211 91.7771 81.2143 90.4257 81.2143 88.9345V18.0569C81.2143 12.465 81.1677 9.38945 81.0746 8.83026C80.9814 7.33909 80.5154 6.3139 79.6766 5.7547C78.8378 5.19551 77.1136 4.91592 74.504 4.91592C71.6149 4.91592 70.1703 4.49652 70.1703 3.65773C70.1703 2.72575 71.4285 2.25976 73.9448 2.25976C76.5544 2.25976 80.1426 2.21316 84.7093 2.11996C101.858 1.74716 115.884 1.65396 126.789 1.84036L136.295 1.98016C138.345 1.98016 140.862 1.79377 143.844 1.42097L145.102 16.659C145.568 21.5053 145.801 24.4876 145.801 25.606C145.801 26.538 145.335 27.004 144.403 27.004C143.471 27.004 142.865 25.7924 142.586 23.3693C141.747 16.9386 139.137 12.2786 134.757 9.38946C130.47 6.4071 124.086 4.91592 115.605 4.91592C112.995 4.91592 108.522 5.05572 102.184 5.33531V46.5757C112.436 46.6689 118.867 45.9699 121.476 44.4788C124.179 42.8944 125.996 38.8868 126.928 32.4561C127.394 29.0078 128.093 27.2836 129.025 27.2836C129.864 27.2836 130.283 28.1224 130.283 29.8C130.283 31.4775 130.144 34.9259 129.864 40.145C129.771 41.9158 129.724 44.2924 129.724 47.2747C129.724 55.2898 129.817 61.3477 130.004 65.4485C130.097 66.0077 130.144 66.7067 130.144 67.5454C130.144 68.6638 129.724 69.223 128.885 69.223C128.233 69.223 127.814 69.0366 127.627 68.6638C127.441 68.1978 127.161 66.6601 126.789 64.0505C125.857 57.4334 124.552 53.3326 122.874 51.7483C121.29 50.0707 117.562 49.2319 111.69 49.2319H102.184V96.3438L111.131 96.204C121.383 96.0176 127.627 95.7846 129.864 95.505C132.66 95.1323 135.363 94.1071 137.972 92.4295C140.302 90.5655 141.887 88.5617 142.725 86.4182C143.657 84.2746 144.636 80.3137 145.661 74.5353C145.941 73.1374 146.407 72.4384 147.059 72.4384C147.805 72.4384 148.178 73.1374 148.178 74.5353ZM241.804 93.5479C241.804 98.767 238.402 101.377 231.599 101.377C223.025 101.377 216.174 98.6738 211.049 93.2683C207.041 89.0743 204.758 84.6008 204.198 79.8477L202.8 68.3842C201.868 61.1147 200.144 56.0354 197.628 53.1462C195.205 50.2571 191.244 48.8591 185.745 48.9523V80.6865C185.745 88.0492 185.792 92.0101 185.885 92.5693C185.885 94.1537 186.537 95.2721 187.842 95.9244C189.147 96.4836 191.617 96.7632 195.251 96.7632C197.488 96.7632 198.606 97.1826 198.606 98.0214C198.606 98.767 198.047 99.1398 196.929 99.1398L183.368 99C183.368 99 182.623 99 181.132 99C179.454 99.0932 177.87 99.1398 176.379 99.1398H166.313C165.381 99.1398 164.309 99.0932 163.098 99C162.073 99 161.42 99 161.141 99L154.71 99.1398C153.405 99.1398 152.753 98.767 152.753 98.0214C152.753 97.1826 154.663 96.67 158.484 96.4836C161.653 96.2972 163.517 95.5516 164.076 94.2469C164.356 93.5945 164.496 91.6373 164.496 88.3753V16.3794C164.496 11.533 164.403 8.69047 164.216 7.85168C164.03 6.91969 163.424 6.2207 162.399 5.7547C161.094 5.19551 158.997 4.91592 156.108 4.91592C154.058 4.91592 153.032 4.49652 153.032 3.65773C153.032 3.00535 153.452 2.63255 154.29 2.53935C155.129 2.35295 157.366 2.25976 161.001 2.25976C161.001 2.25976 161.84 2.25976 163.517 2.25976C165.195 2.35295 166.826 2.39955 168.41 2.39955H173.023C173.117 2.39955 174.095 2.35295 175.959 2.25976C177.73 2.25976 179.408 2.25976 180.992 2.25976H189.1C202.148 2.25976 211.049 3.28494 215.802 5.33531C219.53 6.91969 222.512 9.34285 224.749 12.6048C226.985 15.8668 228.104 19.4549 228.104 23.3693C228.104 32.3163 223.444 38.9334 214.124 43.2206C210.023 45.0846 203.965 46.4825 195.95 47.4145L195.811 48.2533C205.969 48.9057 213.332 51.6085 217.899 56.3616C222.465 61.0215 225.215 68.6172 226.147 79.1487C226.892 87.5366 228.057 92.8023 229.642 94.9459C231.226 96.9962 232.857 98.0214 234.535 98.0214C235.933 98.0214 236.632 97.6486 236.632 96.903C236.632 96.5302 236.072 96.0176 234.954 95.3653C233.929 94.7129 233.416 93.7809 233.416 92.5693C233.416 90.0529 234.814 88.7947 237.61 88.7947C240.406 88.7947 241.804 90.3791 241.804 93.5479ZM206.435 22.9499C206.435 10.9272 201.682 4.91592 192.176 4.91592C189.1 4.91592 187.19 5.9411 186.444 7.99148C185.978 9.29626 185.745 14.3756 185.745 23.2295V46.4359C193.015 46.5291 198.28 44.7118 201.542 40.9838C204.804 37.2559 206.435 31.2445 206.435 22.9499ZM326.622 3.51794C326.622 4.17033 326.156 4.54312 325.224 4.63632C320.285 4.82272 317.162 5.38191 315.858 6.3139C314.646 7.24588 313.295 9.90205 311.804 14.2824C311.058 16.3328 309.94 19.4549 308.448 23.6489C303.509 37.3491 295.54 60.4623 284.543 92.9887C283.052 97.6486 281.98 99.9786 281.328 99.9786C280.489 99.9786 279.79 99.1398 279.231 97.4622C278.019 93.6411 276.481 89.3073 274.617 84.461C271.821 76.9119 268.047 66.8931 263.294 54.4044C261.243 48.9057 258.075 40.7508 253.787 29.9398C251.457 24.0682 249.127 17.5443 246.797 10.368C245.586 6.4537 243.07 4.54312 239.248 4.63632L234.635 4.77612C233.517 4.77612 232.957 4.35673 232.957 3.51794C232.957 2.67915 234.635 2.25976 237.99 2.25976L261.616 2.39955C262.641 2.39955 263.899 2.39955 265.391 2.39955C266.975 2.30635 268.746 2.25976 270.703 2.25976H278.532C280.302 2.25976 281.188 2.67915 281.188 3.51794C281.188 4.26353 279.557 4.68292 276.295 4.77612C270.983 4.86932 268.326 5.70811 268.326 7.29249C268.326 7.47888 269.119 9.94865 270.703 14.7018C277.786 35.9511 284.03 53.3326 289.436 66.8465C290.647 63.8641 292.884 57.6664 296.146 48.2533C296.985 45.7369 298.942 40.0518 302.018 31.198C306.398 18.4297 308.588 10.6476 308.588 7.85168C308.588 6.1741 307.889 5.19552 306.491 4.91592C305.932 4.82272 303.788 4.72952 300.061 4.63632C298.197 4.63632 297.265 4.17033 297.265 3.23834C297.265 2.39955 297.917 1.98016 299.222 1.98016H305.792L310.685 2.11996H314.32C315.252 2.11996 316.324 2.07336 317.535 1.98016C318.84 1.98016 320.331 1.98016 322.009 1.98016H324.525C325.923 1.98016 326.622 2.49275 326.622 3.51794ZM365.4 98.0214C365.4 98.767 364.794 99.1398 363.582 99.1398C362.93 99.1398 362.324 99.0932 361.765 99C356.173 98.7204 351.373 98.5806 347.366 98.5806C343.172 98.5806 337.021 98.7204 328.912 99C326.21 99.0932 324.206 99.1398 322.901 99.1398C321.503 99.1398 320.804 98.7204 320.804 97.8816C320.804 97.4156 321.037 97.136 321.503 97.0428C322.062 96.9496 323.88 96.8564 326.955 96.7632C329.844 96.204 331.522 95.3653 331.988 94.2469C332.454 93.0353 332.687 89.2607 332.687 82.9232V15.6804C332.687 13.9096 332.687 12.1854 332.687 10.5078C332.594 8.83026 332.547 8.03807 332.547 8.13127C332.547 5.80131 330.217 4.63632 325.557 4.63632C322.948 4.63632 321.643 4.31013 321.643 3.65773C321.643 3.00535 321.829 2.63255 322.202 2.53935C322.575 2.44615 323.787 2.39955 325.837 2.39955C324.905 2.39955 326.582 2.44615 330.87 2.53935C335.157 2.63255 338.838 2.67915 341.914 2.67915H349.043C350.535 2.67915 352.632 2.63255 355.334 2.53935C358.13 2.35295 360.087 2.25976 361.206 2.25976H362.604C363.815 2.25976 364.421 2.63255 364.421 3.37814C364.421 3.93733 364.188 4.31013 363.722 4.49652C363.349 4.58972 361.951 4.68292 359.528 4.77612C356.639 4.96252 354.868 5.56831 354.216 6.5935L353.796 9.24966V88.2356C353.796 92.2431 354.216 94.6197 355.055 95.3653C355.987 96.1108 359.016 96.6234 364.142 96.903C364.98 96.9962 365.4 97.369 365.4 98.0214ZM450.808 68.3842L450.668 70.7608C450.668 71.2268 450.435 74.1625 449.969 79.5681C449.596 83.6688 449.41 86.8376 449.41 89.0743C449.41 91.8703 449.456 94.2003 449.549 96.0642C449.643 96.7166 449.689 97.5088 449.689 98.4408C449.689 99.466 449.456 99.9786 448.99 99.9786C448.524 99.9786 448.012 99.5126 447.452 98.5806C445.402 95.2255 443.212 93.0353 440.882 92.0101C433.892 97.9748 426.39 100.957 418.374 100.957C406.165 100.957 395.401 96.3904 386.081 87.257C376.202 77.5643 371.263 65.3553 371.263 50.6299C371.263 36.3705 375.689 24.4876 384.543 14.9814C393.49 5.38191 404.628 0.582176 417.955 0.582176C424.106 0.582176 429.605 1.98016 434.451 4.77612C437.247 6.3605 439.298 7.15269 440.602 7.15269C442.56 7.15269 444.377 6.2673 446.054 4.49652C447.266 3.19174 448.012 2.53935 448.291 2.53935C448.664 2.53935 448.85 2.86554 448.85 3.51794C448.85 3.79754 448.804 4.21693 448.711 4.77612C448.151 7.94487 447.872 11.8592 447.872 16.5192C447.872 16.9851 447.918 18.8957 448.012 22.2509C448.012 25.5128 448.012 27.703 448.012 28.8214V31.8969C448.012 33.5745 447.546 34.4133 446.614 34.4133C445.868 34.4133 445.122 32.5959 444.377 28.9612C441.022 12.1854 433.333 3.79753 421.31 3.79753C411.804 3.79753 404.907 9.94865 400.62 22.2509C397.638 30.6388 396.147 40.7042 396.147 52.4473C396.147 69.8754 399.688 82.6436 406.771 90.7519C410.499 95.0391 415.392 97.1826 421.45 97.1826C434.591 97.1826 443.212 88.4219 447.313 70.9006C447.965 68.0114 448.711 66.5669 449.549 66.5669C450.481 66.5669 450.901 67.1726 450.808 68.3842ZM535.489 74.5353C535.489 74.7217 535.443 79.0555 535.349 87.5366C535.256 92.0101 535.163 95.2255 535.07 97.1826C535.07 99.1398 535.07 100.072 535.07 99.9786C510.465 98.8602 488.936 98.534 470.483 99L458.74 99.2796C457.062 99.2796 456.224 98.9068 456.224 98.1612C456.224 97.602 456.41 97.2758 456.783 97.1826C457.249 97.0894 458.693 96.9496 461.117 96.7632C465.497 96.4836 467.874 95.2255 468.246 92.9887C468.433 91.7771 468.526 90.4257 468.526 88.9345V18.0569C468.526 12.465 468.479 9.38945 468.386 8.83026C468.293 7.33909 467.827 6.3139 466.988 5.7547C466.149 5.19551 464.425 4.91592 461.816 4.91592C458.926 4.91592 457.482 4.49652 457.482 3.65773C457.482 2.72575 458.74 2.25976 461.256 2.25976C463.866 2.25976 467.454 2.21316 472.021 2.11996C489.169 1.74716 503.196 1.65396 514.1 1.84036L523.606 1.98016C525.657 1.98016 528.173 1.79377 531.155 1.42097L532.414 16.659C532.88 21.5053 533.113 24.4876 533.113 25.606C533.113 26.538 532.647 27.004 531.715 27.004C530.783 27.004 530.177 25.7924 529.897 23.3693C529.058 16.9386 526.449 12.2786 522.069 9.38946C517.781 6.4071 511.397 4.91592 502.916 4.91592C500.307 4.91592 495.833 5.05572 489.496 5.33531V46.5757C499.747 46.6689 506.178 45.9699 508.788 44.4788C511.491 42.8944 513.308 38.8868 514.24 32.4561C514.706 29.0078 515.405 27.2836 516.337 27.2836C517.176 27.2836 517.595 28.1224 517.595 29.8C517.595 31.4775 517.455 34.9259 517.176 40.145C517.082 41.9158 517.036 44.2924 517.036 47.2747C517.036 55.2898 517.129 61.3477 517.315 65.4485C517.409 66.0077 517.455 66.7067 517.455 67.5454C517.455 68.6638 517.036 69.223 516.197 69.223C515.545 69.223 515.125 69.0366 514.939 68.6638C514.752 68.1978 514.473 66.6601 514.1 64.0505C513.168 57.4334 511.863 53.3326 510.186 51.7483C508.601 50.0707 504.873 49.2319 499.002 49.2319H489.496V96.3438L498.443 96.204C508.695 96.0176 514.939 95.7846 517.176 95.505C519.972 95.1323 522.674 94.1071 525.284 92.4295C527.614 90.5655 529.198 88.5617 530.037 86.4182C530.969 84.2746 531.948 80.3137 532.973 74.5353C533.252 73.1374 533.718 72.4384 534.371 72.4384C535.116 72.4384 535.489 73.1374 535.489 74.5353Z" fill="url(#paint0_linear_2_6072)"/>
</g>
<defs>
<filter id="filter0_d_2_6072" x="0.516602" y="0.302582" width="541.973" height="109.074" filterUnits="userSpaceOnUse" color-interpolation-filters="sRGB">
<feFlood flood-opacity="0" result="BackgroundImageFix"/>
<feColorMatrix in="SourceAlpha" type="matrix" values="0 0 0 0 0 0 0 0 0 0 0 0 0 0 0 0 0 0 127 0" result="hardAlpha"/>
<feOffset dx="3" dy="4"/>
<feGaussianBlur stdDeviation="2"/>
<feComposite in2="hardAlpha" operator="out"/>
<feColorMatrix type="matrix" values="0 0 0 0 0.154346 0 0 0 0 0.154346 0 0 0 0 0.154346 0 0 0 1 0"/>
<feBlend mode="normal" in2="BackgroundImageFix" result="effect1_dropShadow_2_6072"/>
<feBlend mode="normal" in="SourceGraphic" in2="effect1_dropShadow_2_6072" result="shape"/>
</filter>
<linearGradient id="paint0_linear_2_6072" x1="-1" y1="53.502" x2="539" y2="53.502" gradientUnits="userSpaceOnUse">
<stop stop-color="#F0C48F"/>
<stop offset="0.36" stop-color="#835120"/>
<stop offset="1" stop-color="#EAD69C"/>
</linearGradient>
</defs>
</svg>
