<svg width="737" height="110" viewBox="0 0 737 110" fill="none" xmlns="http://www.w3.org/2000/svg">
<g filter="url(#filter0_d_2_6071)">
<path d="M80.8247 74.5353C80.8247 74.7217 80.7781 79.0555 80.6849 87.5366C80.5917 92.0101 80.4985 95.2255 80.4053 97.1826C80.4053 99.1398 80.4053 100.072 80.4053 99.9786C55.8008 98.8602 34.2719 98.534 15.8186 99L4.07556 99.2796C2.39798 99.2796 1.55919 98.9068 1.55919 98.1612C1.55919 97.602 1.74559 97.2758 2.11838 97.1826C2.58438 97.0894 4.02896 96.9496 6.45212 96.7632C10.8325 96.4836 13.209 95.2255 13.5818 92.9887C13.7682 91.7771 13.8614 90.4257 13.8614 88.9345V18.0569C13.8614 12.465 13.8148 9.38945 13.7216 8.83026C13.6284 7.33909 13.1624 6.3139 12.3236 5.7547C11.4849 5.19551 9.76068 4.91592 7.15111 4.91592C4.26195 4.91592 2.81737 4.49652 2.81737 3.65773C2.81737 2.72575 4.07556 2.25976 6.59192 2.25976C9.20149 2.25976 12.7896 2.21316 17.3564 2.11996C34.5049 1.74716 48.5313 1.65396 59.4356 1.84036L68.9418 1.98016C70.9922 1.98016 73.5086 1.79377 76.4909 1.42097L77.7491 16.659C78.2151 21.5053 78.4481 24.4876 78.4481 25.606C78.4481 26.538 77.9821 27.004 77.0501 27.004C76.1181 27.004 75.5124 25.7924 75.2328 23.3693C74.394 16.9386 71.7844 12.2786 67.4041 9.38946C63.1169 6.4071 56.7328 4.91592 48.2517 4.91592C45.6422 4.91592 41.1686 5.05572 34.8311 5.33531V46.5757C45.083 46.6689 51.5137 45.9699 54.1233 44.4788C56.826 42.8944 58.6434 38.8868 59.5754 32.4561C60.0414 29.0078 60.7404 27.2836 61.6723 27.2836C62.5111 27.2836 62.9305 28.1224 62.9305 29.8C62.9305 31.4775 62.7907 34.9259 62.5111 40.145C62.4179 41.9158 62.3713 44.2924 62.3713 47.2747C62.3713 55.2898 62.4645 61.3477 62.6509 65.4485C62.7441 66.0077 62.7907 66.7067 62.7907 67.5454C62.7907 68.6638 62.3713 69.223 61.5326 69.223C60.8802 69.223 60.4608 69.0366 60.2744 68.6638C60.088 68.1978 59.8084 66.6601 59.4356 64.0505C58.5036 57.4334 57.1988 53.3326 55.5212 51.7483C53.9369 50.0707 50.2089 49.2319 44.3374 49.2319H34.8311V96.3438L43.7782 96.204C54.0301 96.0176 60.2744 95.7846 62.5111 95.505C65.3071 95.1323 68.0099 94.1071 70.6194 92.4295C72.9494 90.5655 74.5338 88.5617 75.3726 86.4182C76.3045 84.2746 77.2831 80.3137 78.3083 74.5353C78.5879 73.1374 79.0539 72.4384 79.7063 72.4384C80.4519 72.4384 80.8247 73.1374 80.8247 74.5353ZM183.398 97.602C183.398 98.534 182.093 99 179.484 99C179.111 99 178.459 98.9534 177.527 98.8602C176.595 98.8602 175.616 98.8602 174.591 98.8602H151.524C147.051 98.8602 143.509 98.9068 140.9 99C138.29 99.0932 136.007 99.1398 134.05 99.1398C132.745 99.1398 132.092 98.6738 132.092 97.7418C132.092 96.9962 132.558 96.5768 133.49 96.4836C134.422 96.2972 137.638 96.204 143.136 96.204C145.653 96.204 146.911 95.505 146.911 94.1071C146.911 92.8023 145.094 89.0277 141.459 82.7834C138.57 77.5643 134.236 69.7822 128.458 59.4372C128.085 58.7848 127.479 57.7596 126.64 56.3616C123.378 61.3011 118.812 68.4308 112.94 77.7507C107.162 87.0706 104.273 92.3829 104.273 93.6877C104.273 95.1789 105.158 95.971 106.929 96.0642C108.047 96.1574 110.983 96.2506 115.736 96.3438C117.227 96.3438 117.973 96.7632 117.973 97.602C117.973 98.7204 116.761 99.2796 114.338 99.2796L98.6806 99C98.6806 99 98.2146 99 97.2826 99C96.3506 99.0932 95.4652 99.1398 94.6265 99.1398L86.3784 99.2796C84.5144 99.2796 83.5824 98.8602 83.5824 98.0214C83.5824 97.2758 84.4678 96.8564 86.2386 96.7632C91.0849 96.4836 94.7663 95.4119 97.2826 93.5479C99.8922 91.5907 102.781 87.7696 105.95 82.0844C106.975 80.3137 108.606 77.6575 110.843 74.1159C117.553 63.6777 122.073 56.5014 124.403 52.5871C123.005 49.7911 119.79 43.7798 114.757 34.5531L106.649 19.4549C103.48 13.397 101.383 9.71565 100.358 8.41087C99.333 7.01289 97.9816 5.9877 96.304 5.33531C95.9312 5.24212 93.1353 5.05572 87.9161 4.77612C86.5182 4.77612 85.8192 4.40333 85.8192 3.65773C85.8192 2.72575 86.9376 2.25976 89.1743 2.25976C89.4539 2.25976 90.2461 2.30635 91.5509 2.39955C92.8557 2.49275 94.0207 2.53935 95.0458 2.53935L116.435 2.81895C119.883 2.81895 123.751 2.72575 128.038 2.53935C129.809 2.44615 131.347 2.39955 132.652 2.39955H133.91C135.401 2.39955 136.146 2.81895 136.146 3.65773C136.146 4.31013 135.82 4.72952 135.168 4.91592C134.515 5.10232 132.885 5.19552 130.275 5.19552C125.708 5.19552 123.425 6.2673 123.425 8.41087C123.425 9.80885 125.755 14.8416 130.415 23.5091C131.906 26.305 134.422 30.8252 137.964 37.0695C150.173 20.1073 156.277 10.2282 156.277 7.43228C156.277 5.66151 154.553 4.77612 151.105 4.77612H147.61C146.398 4.77612 145.793 4.40333 145.793 3.65773C145.793 3.19174 145.979 2.86555 146.352 2.67915C146.725 2.39955 147.657 2.25976 149.148 2.25976C150.546 2.25976 152.643 2.35295 155.439 2.53935C158.235 2.63255 160.332 2.67915 161.73 2.67915C164.991 2.67915 167.834 2.58595 170.257 2.39955C171.469 2.30635 172.587 2.25976 173.612 2.25976C175.383 2.25976 176.269 2.72575 176.269 3.65773C176.269 4.31013 174.824 4.68292 171.935 4.77612C167.741 4.86932 164.898 5.47511 163.407 6.5935C162.009 7.61868 159.679 10.834 156.417 16.2396C153.435 21.1791 150.779 25.3264 148.449 28.6816L139.921 40.9838C146.725 53.1928 155.159 68.9434 165.224 88.2356C167.182 92.0567 168.906 94.3867 170.397 95.2255C171.981 95.971 175.243 96.2972 180.183 96.204C182.326 96.204 183.398 96.67 183.398 97.602ZM261.716 74.5353C261.716 74.7217 261.669 79.0555 261.576 87.5366C261.483 92.0101 261.389 95.2255 261.296 97.1826C261.296 99.1398 261.296 100.072 261.296 99.9786C236.692 98.8602 215.163 98.534 196.71 99L184.967 99.2796C183.289 99.2796 182.45 98.9068 182.45 98.1612C182.45 97.602 182.637 97.2758 183.009 97.1826C183.475 97.0894 184.92 96.9496 187.343 96.7632C191.723 96.4836 194.1 95.2255 194.473 92.9887C194.659 91.7771 194.752 90.4257 194.752 88.9345V18.0569C194.752 12.465 194.706 9.38945 194.613 8.83026C194.519 7.33909 194.053 6.3139 193.215 5.7547C192.376 5.19551 190.652 4.91592 188.042 4.91592C185.153 4.91592 183.708 4.49652 183.708 3.65773C183.708 2.72575 184.967 2.25976 187.483 2.25976C190.092 2.25976 193.681 2.21316 198.247 2.11996C215.396 1.74716 229.422 1.65396 240.327 1.84036L249.833 1.98016C251.883 1.98016 254.4 1.79377 257.382 1.42097L258.64 16.659C259.106 21.5053 259.339 24.4876 259.339 25.606C259.339 26.538 258.873 27.004 257.941 27.004C257.009 27.004 256.403 25.7924 256.124 23.3693C255.285 16.9386 252.675 12.2786 248.295 9.38946C244.008 6.4071 237.624 4.91592 229.143 4.91592C226.533 4.91592 222.06 5.05572 215.722 5.33531V46.5757C225.974 46.6689 232.405 45.9699 235.014 44.4788C237.717 42.8944 239.534 38.8868 240.466 32.4561C240.932 29.0078 241.631 27.2836 242.563 27.2836C243.402 27.2836 243.822 28.1224 243.822 29.8C243.822 31.4775 243.682 34.9259 243.402 40.145C243.309 41.9158 243.262 44.2924 243.262 47.2747C243.262 55.2898 243.356 61.3477 243.542 65.4485C243.635 66.0077 243.682 66.7067 243.682 67.5454C243.682 68.6638 243.262 69.223 242.424 69.223C241.771 69.223 241.352 69.0366 241.165 68.6638C240.979 68.1978 240.699 66.6601 240.327 64.0505C239.395 57.4334 238.09 53.3326 236.412 51.7483C234.828 50.0707 231.1 49.2319 225.228 49.2319H215.722V96.3438L224.669 96.204C234.921 96.0176 241.165 95.7846 243.402 95.505C246.198 95.1323 248.901 94.1071 251.51 92.4295C253.84 90.5655 255.425 88.5617 256.264 86.4182C257.196 84.2746 258.174 80.3137 259.199 74.5353C259.479 73.1374 259.945 72.4384 260.597 72.4384C261.343 72.4384 261.716 73.1374 261.716 74.5353ZM349.051 68.3842L348.911 70.7608C348.911 71.2268 348.678 74.1625 348.212 79.5681C347.84 83.6688 347.653 86.8376 347.653 89.0743C347.653 91.8703 347.7 94.2003 347.793 96.0642C347.886 96.7166 347.933 97.5088 347.933 98.4408C347.933 99.466 347.7 99.9786 347.234 99.9786C346.768 99.9786 346.255 99.5126 345.696 98.5806C343.646 95.2255 341.456 93.0353 339.126 92.0101C332.136 97.9748 324.633 100.957 316.618 100.957C304.409 100.957 293.645 96.3904 284.325 87.257C274.446 77.5643 269.506 65.3553 269.506 50.6299C269.506 36.3705 273.933 24.4876 282.787 14.9814C291.734 5.38191 302.871 0.582176 316.199 0.582176C322.35 0.582176 327.849 1.98016 332.695 4.77612C335.491 6.3605 337.541 7.15269 338.846 7.15269C340.803 7.15269 342.621 6.2673 344.298 4.49652C345.51 3.19174 346.255 2.53935 346.535 2.53935C346.908 2.53935 347.094 2.86554 347.094 3.51794C347.094 3.79754 347.047 4.21693 346.954 4.77612C346.395 7.94487 346.115 11.8592 346.115 16.5192C346.115 16.9851 346.162 18.8957 346.255 22.2509C346.255 25.5128 346.255 27.703 346.255 28.8214V31.8969C346.255 33.5745 345.789 34.4133 344.857 34.4133C344.112 34.4133 343.366 32.5959 342.621 28.9612C339.265 12.1854 331.576 3.79753 319.554 3.79753C310.048 3.79753 303.151 9.94865 298.864 22.2509C295.881 30.6388 294.39 40.7042 294.39 52.4473C294.39 69.8754 297.932 82.6436 305.015 90.7519C308.743 95.0391 313.636 97.1826 319.694 97.1826C332.835 97.1826 341.456 88.4219 345.556 70.9006C346.209 68.0114 346.954 66.5669 347.793 66.5669C348.725 66.5669 349.144 67.1726 349.051 68.3842ZM442.121 3.65773C442.121 4.40333 440.536 4.82272 437.368 4.91592C433.453 5.00911 431.077 5.66151 430.238 6.87309C429.958 7.24589 429.772 8.03807 429.679 9.24966V68.3842C429.679 90.3791 419.147 101.377 398.084 101.377C387.273 101.377 378.885 98.068 372.921 91.4509C368.447 86.5114 366.21 77.7507 366.21 65.1689V11.4864C366.21 8.50407 365.744 6.68669 364.812 6.0343C363.88 5.38191 360.945 4.86932 356.005 4.49652C354.98 4.40332 354.467 4.03053 354.467 3.37814C354.467 2.53935 355.306 2.11996 356.984 2.11996C356.984 2.11996 357.356 2.11996 358.102 2.11996C358.941 2.21316 359.64 2.25976 360.199 2.25976L368.867 2.39955C377.068 2.49275 383.126 2.49275 387.04 2.39955C392.259 2.30635 394.31 2.25976 393.191 2.25976H396.127C397.711 2.25976 398.504 2.72575 398.504 3.65773C398.504 4.49652 397.059 4.91592 394.17 4.91592C390.069 4.91592 387.879 5.66151 387.599 7.15269C387.413 8.17787 387.32 9.15646 387.32 10.0884V62.3729C387.32 69.922 387.46 74.7217 387.739 76.7721C388.392 82.83 390.116 87.2104 392.912 89.9131C396.36 93.2683 400.88 94.9459 406.472 94.9459C412.81 94.9459 417.47 92.8955 420.452 88.7947C424.087 83.8552 425.904 75.0013 425.904 62.2331V16.0998C425.904 15.261 425.951 14.1892 426.044 12.8844C426.044 11.5796 426.044 10.7874 426.044 10.5078C426.044 8.08467 425.345 6.50029 423.947 5.7547C423.015 5.19551 421.198 4.91592 418.495 4.91592C415.14 4.82272 413.462 4.26353 413.462 3.23834C413.462 2.49275 414.114 2.11996 415.419 2.11996C416.817 2.11996 418.868 2.21316 421.57 2.39955C424.273 2.49275 426.323 2.53935 427.721 2.53935C427.815 2.53935 428.607 2.49275 430.098 2.39955C431.682 2.39955 433.127 2.39955 434.432 2.39955H437.787C440.676 2.39955 442.121 2.81895 442.121 3.65773ZM523.906 28.2622C523.906 29.0078 523.58 29.3806 522.927 29.3806C521.902 29.3806 520.97 27.5632 520.131 23.9285C518.454 16.7522 516.124 11.8592 513.141 9.24966C510.159 6.6401 505.406 5.33531 498.882 5.33531C496.366 5.33531 494.175 5.42851 492.311 5.61491L492.451 90.6121C492.544 92.9421 493.197 94.4333 494.408 95.0857C495.62 95.738 498.882 96.2972 504.194 96.7632C505.219 96.8564 505.732 97.2758 505.732 98.0214C505.732 98.9534 504.986 99.4194 503.495 99.4194C503.216 99.4194 502.517 99.3728 501.398 99.2796C500 99.1864 498.835 99.1398 497.903 99.1398L483.504 98.7204L459.739 99.1398C458.434 99.1398 457.781 98.767 457.781 98.0214C457.781 97.4622 457.968 97.136 458.341 97.0428C458.713 96.9496 460.251 96.8564 462.954 96.7632C468.08 96.5768 470.829 95.3653 471.202 93.1285C471.388 91.9169 471.482 82.4572 471.482 64.7495V5.61491C470.456 5.52171 469.245 5.47511 467.847 5.47511C460.391 5.47511 454.939 6.87309 451.49 9.66905C448.135 12.3718 445.945 17.2181 444.92 24.208C444.268 28.3088 443.429 30.3592 442.404 30.3592C441.565 30.3592 441.145 29.8 441.145 28.6816C441.145 27.936 441.332 25.373 441.705 20.9927C442.45 11.8592 442.916 5.61491 443.103 2.25976H445.2L455.405 2.11996C455.684 2.11996 458.9 2.21316 465.051 2.39955C471.295 2.58595 479.217 2.67915 488.817 2.67915C494.129 2.67915 498.882 2.63255 503.076 2.53935C507.27 2.44615 511.091 2.39955 514.539 2.39955C517.615 2.39955 519.945 2.30635 521.529 2.11996C521.809 8.17787 522.508 15.9134 523.626 25.3264C523.813 26.9108 523.906 27.8894 523.906 28.2622ZM568.632 98.0214C568.632 98.767 568.027 99.1398 566.815 99.1398C566.163 99.1398 565.557 99.0932 564.998 99C559.406 98.7204 554.606 98.5806 550.599 98.5806C546.405 98.5806 540.253 98.7204 532.145 99C529.442 99.0932 527.439 99.1398 526.134 99.1398C524.736 99.1398 524.037 98.7204 524.037 97.8816C524.037 97.4156 524.27 97.136 524.736 97.0428C525.295 96.9496 527.112 96.8564 530.188 96.7632C533.077 96.204 534.755 95.3653 535.221 94.2469C535.687 93.0353 535.92 89.2607 535.92 82.9232V15.6804C535.92 13.9096 535.92 12.1854 535.92 10.5078C535.827 8.83026 535.78 8.03807 535.78 8.13127C535.78 5.80131 533.45 4.63632 528.79 4.63632C526.18 4.63632 524.876 4.31013 524.876 3.65773C524.876 3.00535 525.062 2.63255 525.435 2.53935C525.808 2.44615 527.019 2.39955 529.07 2.39955C528.138 2.39955 529.815 2.44615 534.102 2.53935C538.389 2.63255 542.071 2.67915 545.146 2.67915H552.276C553.767 2.67915 555.864 2.63255 558.567 2.53935C561.363 2.35295 563.32 2.25976 564.439 2.25976H565.836C567.048 2.25976 567.654 2.63255 567.654 3.37814C567.654 3.93733 567.421 4.31013 566.955 4.49652C566.582 4.58972 565.184 4.68292 562.761 4.77612C559.872 4.96252 558.101 5.56831 557.449 6.5935L557.029 9.24966V88.2356C557.029 92.2431 557.449 94.6197 558.287 95.3653C559.219 96.1108 562.248 96.6234 567.374 96.903C568.213 96.9962 568.632 97.369 568.632 98.0214ZM656.137 3.51794C656.137 4.17033 655.671 4.54312 654.739 4.63632C649.8 4.82272 646.678 5.38191 645.373 6.3139C644.161 7.24588 642.81 9.90205 641.319 14.2824C640.573 16.3328 639.455 19.4549 637.964 23.6489C633.024 37.3491 625.055 60.4623 614.058 92.9887C612.567 97.6486 611.495 99.9786 610.843 99.9786C610.004 99.9786 609.305 99.1398 608.746 97.4622C607.534 93.6411 605.996 89.3073 604.132 84.461C601.336 76.9119 597.562 66.8931 592.809 54.4044C590.758 48.9057 587.59 40.7508 583.302 29.9398C580.973 24.0682 578.643 17.5443 576.313 10.368C575.101 6.4537 572.585 4.54312 568.763 4.63632L564.15 4.77612C563.032 4.77612 562.473 4.35673 562.473 3.51794C562.473 2.67915 564.15 2.25976 567.505 2.25976L591.131 2.39955C592.156 2.39955 593.415 2.39955 594.906 2.39955C596.49 2.30635 598.261 2.25976 600.218 2.25976H608.047C609.818 2.25976 610.703 2.67915 610.703 3.51794C610.703 4.26353 609.072 4.68292 605.81 4.77612C600.498 4.86932 597.841 5.70811 597.841 7.29249C597.841 7.47888 598.634 9.94865 600.218 14.7018C607.301 35.9511 613.545 53.3326 618.951 66.8465C620.163 63.8641 622.399 57.6664 625.661 48.2533C626.5 45.7369 628.457 40.0518 631.533 31.198C635.913 18.4297 638.103 10.6476 638.103 7.85168C638.103 6.1741 637.404 5.19552 636.006 4.91592C635.447 4.82272 633.304 4.72952 629.576 4.63632C627.712 4.63632 626.78 4.17033 626.78 3.23834C626.78 2.39955 627.432 1.98016 628.737 1.98016H635.307L640.2 2.11996H643.835C644.767 2.11996 645.839 2.07336 647.05 1.98016C648.355 1.98016 649.846 1.98016 651.524 1.98016H654.04C655.438 1.98016 656.137 2.49275 656.137 3.51794ZM729.165 74.5353C729.165 74.7217 729.119 79.0555 729.026 87.5366C728.932 92.0101 728.839 95.2255 728.746 97.1826C728.746 99.1398 728.746 100.072 728.746 99.9786C704.142 98.8602 682.613 98.534 664.159 99L652.416 99.2796C650.739 99.2796 649.9 98.9068 649.9 98.1612C649.9 97.602 650.086 97.2758 650.459 97.1826C650.925 97.0894 652.37 96.9496 654.793 96.7632C659.173 96.4836 661.55 95.2255 661.923 92.9887C662.109 91.7771 662.202 90.4257 662.202 88.9345V18.0569C662.202 12.465 662.156 9.38945 662.062 8.83026C661.969 7.33909 661.503 6.3139 660.664 5.7547C659.826 5.19551 658.101 4.91592 655.492 4.91592C652.603 4.91592 651.158 4.49652 651.158 3.65773C651.158 2.72575 652.416 2.25976 654.933 2.25976C657.542 2.25976 661.13 2.21316 665.697 2.11996C682.846 1.74716 696.872 1.65396 707.776 1.84036L717.283 1.98016C719.333 1.98016 721.849 1.79377 724.832 1.42097L726.09 16.659C726.556 21.5053 726.789 24.4876 726.789 25.606C726.789 26.538 726.323 27.004 725.391 27.004C724.459 27.004 723.853 25.7924 723.573 23.3693C722.735 16.9386 720.125 12.2786 715.745 9.38946C711.458 6.4071 705.074 4.91592 696.592 4.91592C693.983 4.91592 689.509 5.05572 683.172 5.33531V46.5757C693.424 46.6689 699.854 45.9699 702.464 44.4788C705.167 42.8944 706.984 38.8868 707.916 32.4561C708.382 29.0078 709.081 27.2836 710.013 27.2836C710.852 27.2836 711.271 28.1224 711.271 29.8C711.271 31.4775 711.131 34.9259 710.852 40.145C710.759 41.9158 710.712 44.2924 710.712 47.2747C710.712 55.2898 710.805 61.3477 710.992 65.4485C711.085 66.0077 711.131 66.7067 711.131 67.5454C711.131 68.6638 710.712 69.223 709.873 69.223C709.221 69.223 708.801 69.0366 708.615 68.6638C708.429 68.1978 708.149 66.6601 707.776 64.0505C706.844 57.4334 705.54 53.3326 703.862 51.7483C702.278 50.0707 698.55 49.2319 692.678 49.2319H683.172V96.3438L692.119 96.204C702.371 96.0176 708.615 95.7846 710.852 95.505C713.648 95.1323 716.351 94.1071 718.96 92.4295C721.29 90.5655 722.874 88.5617 723.713 86.4182C724.645 84.2746 725.624 80.3137 726.649 74.5353C726.929 73.1374 727.395 72.4384 728.047 72.4384C728.793 72.4384 729.165 73.1374 729.165 74.5353Z" fill="url(#paint0_linear_2_6071)"/>
</g>
<defs>
<filter id="filter0_d_2_6071" x="0.559082" y="0.582153" width="735.606" height="108.794" filterUnits="userSpaceOnUse" color-interpolation-filters="sRGB">
<feFlood flood-opacity="0" result="BackgroundImageFix"/>
<feColorMatrix in="SourceAlpha" type="matrix" values="0 0 0 0 0 0 0 0 0 0 0 0 0 0 0 0 0 0 127 0" result="hardAlpha"/>
<feOffset dx="3" dy="4"/>
<feGaussianBlur stdDeviation="2"/>
<feComposite in2="hardAlpha" operator="out"/>
<feColorMatrix type="matrix" values="0 0 0 0 0.154346 0 0 0 0 0.154346 0 0 0 0 0.154346 0 0 0 1 0"/>
<feBlend mode="normal" in2="BackgroundImageFix" result="effect1_dropShadow_2_6071"/>
<feBlend mode="normal" in="SourceGraphic" in2="effect1_dropShadow_2_6071" result="shape"/>
</filter>
<linearGradient id="paint0_linear_2_6071" x1="1" y1="53.502" x2="733" y2="53.502" gradientUnits="userSpaceOnUse">
<stop stop-color="#F0C48F"/>
<stop offset="0.36" stop-color="#835120"/>
<stop offset="1" stop-color="#EAD69C"/>
</linearGradient>
</defs>
</svg>
