<svg width="25" height="20" viewBox="0 0 25 20" fill="none" xmlns="http://www.w3.org/2000/svg">
<path d="M20.75 0C21.413 0 22.0489 0.263392 22.5178 0.732233C22.9866 1.20107 23.25 1.83696 23.25 2.5V3.75H15.75C14.0924 3.75 12.5027 4.40848 11.3306 5.58058C10.1585 6.75269 9.5 8.3424 9.5 10C9.5 11.6576 10.1585 13.2473 11.3306 14.4194C12.5027 15.5915 14.0924 16.25 15.75 16.25H23.25V17.5C23.25 18.163 22.9866 18.7989 22.5178 19.2678C22.0489 19.7366 21.413 20 20.75 20H3.25C2.58696 20 1.95107 19.7366 1.48223 19.2678C1.01339 18.7989 0.75 18.163 0.75 17.5V2.5C0.75 1.83696 1.01339 1.20107 1.48223 0.732233C1.95107 0.263392 2.58696 0 3.25 0H20.75ZM22 6.25C22.663 6.25 23.2989 6.51339 23.7678 6.98223C24.2366 7.45107 24.5 8.08696 24.5 8.75V11.25C24.5 11.913 24.2366 12.5489 23.7678 13.0178C23.2989 13.4866 22.663 13.75 22 13.75H15.75C14.7554 13.75 13.8016 13.3549 13.0983 12.6517C12.3951 11.9484 12 10.9946 12 10C12 9.00544 12.3951 8.05161 13.0983 7.34835C13.8016 6.64509 14.7554 6.25 15.75 6.25H22ZM15.75 8.75C15.4185 8.75 15.1005 8.8817 14.8661 9.11612C14.6317 9.35054 14.5 9.66848 14.5 10C14.5 10.3315 14.6317 10.6495 14.8661 10.8839C15.1005 11.1183 15.4185 11.25 15.75 11.25C16.0815 11.25 16.3995 11.1183 16.6339 10.8839C16.8683 10.6495 17 10.3315 17 10C17 9.66848 16.8683 9.35054 16.6339 9.11612C16.3995 8.8817 16.0815 8.75 15.75 8.75Z" fill="#10257D"/>
</svg>
