<svg width="44" height="44" viewBox="0 0 44 44" fill="none" xmlns="http://www.w3.org/2000/svg">
<circle cx="22" cy="22" r="22" fill="#257AE7"/>
<path d="M33.4629 19.4527H32.1893C32.1893 16.7502 31.1157 14.1585 29.2048 12.2476C27.2939 10.3367 24.7022 9.26318 21.9998 9.26318C19.2974 9.26318 16.7056 10.3367 14.7947 12.2476C12.8838 14.1585 11.8103 16.7502 11.8103 19.4527H10.5366C10.1988 19.4527 9.87486 19.5868 9.63599 19.8257C9.39713 20.0646 9.26294 20.3885 9.26294 20.7263V25.8211C9.26294 26.1589 9.39713 26.4828 9.63599 26.7217C9.87486 26.9606 10.1988 27.0948 10.5366 27.0948H14.3577V19.4527C14.3577 17.4258 15.1628 15.482 16.596 14.0489C18.0292 12.6157 19.973 11.8106 21.9998 11.8106C24.0266 11.8106 25.9704 12.6157 27.4036 14.0489C28.8367 15.482 29.6419 17.4258 29.6419 19.4527V29.0053C29.6419 29.8498 29.3064 30.6597 28.7093 31.2569C28.1121 31.854 27.3022 32.1895 26.4577 32.1895H21.9998V34.7369H26.4577C27.9778 34.7369 29.4356 34.133 30.5105 33.0581C31.5854 31.9832 32.1893 30.5254 32.1893 29.0053V27.0948H33.4629C33.6302 27.0948 33.7958 27.0618 33.9504 26.9978C34.1049 26.9338 34.2453 26.84 34.3636 26.7217C34.4818 26.6034 34.5757 26.463 34.6397 26.3085C34.7037 26.154 34.7366 25.9883 34.7366 25.8211V20.7263C34.7366 20.3885 34.6024 20.0646 34.3636 19.8257C34.1247 19.5868 33.8007 19.4527 33.4629 19.4527Z" fill="white"/>
<path d="M27.095 23.2729H24.5476C24.5476 23.9486 24.2792 24.5965 23.8015 25.0742C23.3238 25.5519 22.6759 25.8203 22.0003 25.8203C21.3246 25.8203 20.6767 25.5519 20.199 25.0742C19.7213 24.5965 19.4529 23.9486 19.4529 23.2729H16.9055C16.9055 24.6242 17.4423 25.92 18.3977 26.8755C19.3532 27.8309 20.649 28.3677 22.0003 28.3677C23.3515 28.3677 24.6473 27.8309 25.6028 26.8755C26.5582 25.92 27.095 24.6242 27.095 23.2729Z" fill="white"/>
</svg>
