<svg width="551" height="74" viewBox="0 0 551 74" fill="none" xmlns="http://www.w3.org/2000/svg">
<g filter="url(#filter0_d_2_11916)">
<path d="M59.36 15.28C57.76 13.12 55.76 10.4 52.16 7.52L53.04 6.32C57.36 7.76 60.8 9.36 63.04 11.52C64.96 13.2 65.6 14.56 65.6 16.16C65.6 17.68 64.48 18.64 62.96 18.64C61.68 18.64 60.72 17.2 59.36 15.28ZM66.56 9.44C65.04 7.52 63.28 5.36 59.36 2.48L60.16 1.28C64.56 2.48 67.92 3.84 70 5.52C72.08 7.12 72.88 8.64 72.88 10.48C72.88 12 71.92 12.96 70.48 12.96C69.12 12.96 68.24 11.36 66.56 9.44ZM16.96 3.52L17.04 2.08C18.96 1.36 20.8 0.959996 22.96 1.04C26.96 1.12 32.08 3.36 32.16 5.44C32.16 7.2 30.72 8.96 29.28 13.76C28.16 17.76 25.68 27.04 22.96 34.88C19.68 44.64 14.64 58.4 11.36 64.08C10.08 66.4 9.04 67.76 6.64 67.76C4.64 67.76 3.2 65.52 3.2 62.96C3.2 60.32 4.64 59.28 6.4 56.24C9.84 50.88 14 43.28 17.68 32.72C20.32 25.28 22.96 13.84 23.36 8.88C23.52 6.96 23.2 6.32 21.76 5.44C20.4 4.64 18.72 4.08 16.96 3.52ZM1.76 15.6C5.6 18.56 7.92 19.68 11.52 19.76C16.32 19.84 21.2 18.8 24.48 18C30.32 16.48 34.4 14.64 37.44 13.04C38.88 12.16 39.92 11.52 40.64 11.52C42.4 11.52 45.52 12.48 45.52 14.88C45.52 16.8 44.16 17.92 39.52 19.6C37.04 20.64 29.76 23.04 23.76 24.24C20.56 24.96 15.92 25.68 12.48 25.68C6.96 25.68 3.2 24.08 0.64 16.4L1.76 15.6ZM36.32 31.04L35.84 29.6C39.84 27.28 45.92 25.36 51.84 25.36C57.12 25.36 60.64 26.48 62.4 27.44C64.56 28.72 65.6 30.32 65.6 31.84C65.6 33.68 64.16 34.56 61.28 34.64C59.92 34.72 58.4 34.96 56.32 35.6C53.28 36.24 49.68 37.6 46.88 38.8L46 37.6C48.56 36 52.72 32.96 53.6 32C54.16 31.52 53.92 31.12 53.28 30.88C51.44 30.24 48.64 29.92 46.32 29.92C43.36 29.92 39.92 30.4 36.32 31.04ZM32.24 46.48L30.64 46.64C30.48 49.12 30.48 52.16 31.28 54.96C32.8 63.12 40 67.12 50.96 67.12C56.08 67.12 59.6 66.64 62.08 66.08C64.96 65.44 66.96 64.24 66.96 62.32C66.96 59.52 64 58.4 61.36 58.4C59.44 58.4 56.64 59.92 49.2 59.92C42.56 59.92 37.76 58.32 34.8 53.84C33.28 51.52 32.56 48.64 32.24 46.48ZM87.2 3.6L88.08 2.56C90.48 3.27999 91.92 4 93.52 5.04C95.68 6.56 99.84 10.8 99.84 14.88C99.84 16.88 98.64 18.96 97.2 21.68C94.48 27.04 91.68 34 91.68 40.56C91.68 43.92 92.32 46.56 93.12 48.16C93.68 49.28 94.4 49.36 95.12 48.24C96.8 45.44 100.16 37.6 102.32 32.4L104.08 33.2C102.32 38.4 100 45.6 99.2 48.8C98.8 50.64 98.48 52.16 98.48 54.24C98.48 56.88 99.84 58.88 99.84 61.68C99.84 63.84 98.48 65.04 96.4 65.04C94.4 65.04 92.72 63.44 91.28 61.04C89.12 57.44 86.72 51.44 86.72 41.84C86.72 31.04 91.6 20 91.6 12.72C91.6 9.36 89.68 6.32 87.2 3.6ZM108.24 19.12L109.12 18C113.52 20.88 117.12 22.16 121.36 22.16C127.28 22.16 136.16 19.84 140.64 17.92C143.52 16.72 144.32 16.08 144.88 16.08C147.28 16.08 150.16 17.44 150.16 19.52C150.16 21.04 149.44 22.08 147.28 23.12C142.8 25.2 131.76 28.24 122.32 28.24C117.36 28.24 112.08 26.64 108.24 19.12ZM122.32 5.84L122.16 4.48C124.24 3.27999 127.12 2.24 128.96 2.24C132.48 2.24 138.08 4.64 138.08 7.2C138.08 8.56 137.04 9.92 136.88 12.72C136.72 15.52 136.96 20.48 137.12 24.24C137.52 32.88 138.72 46.16 135.44 53.68C131.76 62.88 124 66.88 114.16 69.68L113.36 68.24C121.12 64.08 126.32 59.36 129.04 50.4C131.44 43.52 130.8 33.36 130.48 25.44C130.32 20.48 129.92 13.36 129.52 10.24C129.36 8.48 128.88 7.84 127.76 7.36C126.32 6.64 124.32 6.32 122.32 5.84ZM194 10C196.4 12.64 199.12 16.32 199.12 20.16C199.12 24.16 198.32 29.04 196.56 33.84C193.04 43.76 184 58.72 174.88 58.72C168.96 58.72 163.12 49.52 163.12 39.28C163.12 31.6 166.88 22.56 174.48 16.08C180.96 10.4 189.12 7.52 198.32 7.52C215.92 7.52 228.8 19.44 228.8 36.08C228.8 50.4 219.2 63.6 192.64 65.04L192.32 63.36C212.24 59.12 220.64 48.48 220.64 34.32C220.64 19.84 210.8 10.48 197.68 10.48C190.32 10.48 182.32 13.84 176.8 19.6C171.92 24.64 169.2 30.48 169.2 37.28C169.2 44.16 172.16 50 175.52 50C180.32 50 187.52 38.32 190.4 31.92C192.24 27.6 193.68 22.4 193.68 18.4C193.68 15.36 192.4 12.88 190.8 10.64L194 10ZM278 4.72L277.92 3.27999C280 2.32 282 1.43999 283.84 1.43999C287.84 1.43999 293.2 4.96 293.2 7.28C293.2 9.12 291.52 8.8 291.36 12.8C291.2 17.28 291.12 22.64 291.04 26.16C290.72 37.04 290.24 46.8 285.44 53.44C280.88 60 272.88 65.12 262.56 68.32L261.68 66.72C268.08 63.44 275.12 58.88 279.52 51.52C283.2 45.6 284.16 35.68 284.24 25.92C284.24 17.52 284.32 11.76 283.76 7.76C283.52 5.84 281.68 5.36 278 4.72ZM256.08 8.4C257.76 7.52 259.84 6.88 261.6 6.88C264.48 6.88 270.16 9.44 270.16 12.16C270.16 13.92 268.96 14.08 268.8 16.8C268.64 18.72 268.56 23.2 268.56 26.72C268.56 34 268.64 40.96 268.64 44.4C268.64 47.6 267.68 48.96 265.44 48.96C262.88 48.96 261.04 44.8 261.04 42C261.04 39.52 262.4 36.88 262.4 27.92C262.4 22.96 262.32 15.36 261.84 13.04C261.44 11.12 259.68 10.48 256.08 9.68V8.4ZM240.96 21.92L242.16 21.52C244 23.92 245.36 25.76 247.52 25.76C251.04 25.76 261.04 24.56 265.2 24.16C271.76 23.52 284.48 22.16 290.08 21.68C298.96 20.88 299.84 20.08 301.52 20.08C305.68 20.08 310.56 22 310.56 25.2C310.56 27.36 309.6 27.84 307.68 27.84C305.2 27.84 301.52 26.72 294.32 26.72C286.56 26.72 272.96 28.08 265.6 29.04C260.56 29.68 256.4 30.48 253.68 31.28C251.6 31.92 249.84 33.04 248.08 33.04C245.44 33.04 242.32 28.8 241.52 27.12C240.96 26 240.8 23.76 240.96 21.92ZM324.8 28.48C326.88 31.44 328.24 33.76 332.08 33.76C340 33.76 365.84 32 370.16 31.68C375.52 31.28 378.56 30.72 380.56 30.72C384.64 30.72 388.56 32.72 388.56 35.6C388.56 37.6 387.04 38.56 384 38.56C381.04 38.56 378.24 38.4 372.88 38.4C367.28 38.4 347.44 39.6 341.36 40.24C336.08 40.8 334.96 42.4 332.24 42.4C329.44 42.4 325.04 37.76 323.76 34.32C323.12 32.64 323.2 30.72 323.28 28.96L324.8 28.48ZM458.48 15.44C456.88 13.28 454.88 10.56 451.28 7.6L452.24 6.4C456.56 7.84 459.92 9.52 462.16 11.68C464 13.36 464.72 14.72 464.64 16.32C464.64 17.84 463.52 18.96 462 18.88C460.72 18.88 459.84 17.44 458.48 15.44ZM465.6 8.88C464 6.88 462.32 4.72 458.48 1.76L459.36 0.559997C463.6 1.76 466.96 3.27999 469.12 4.96C471.12 6.64 471.84 8.16 471.84 9.92C471.84 11.52 470.96 12.48 469.52 12.48C468.08 12.4 467.2 10.88 465.6 8.88ZM408.64 7.68C410.56 6.96 413.28 5.76 415.36 5.84C419.44 6 424.8 9.92 424.8 12.32C424.8 14.16 423.12 14.72 422.72 17.2C421.84 23.6 421.04 43.6 421.12 49.84C421.2 56.96 422.56 57.68 431.68 57.68C443.76 57.68 450.4 54.96 452.48 54.96C457.52 54.96 460.4 56.16 460.4 58.72C460.4 61.04 458.96 62 456.96 62.64C453.2 63.92 444.56 64.8 433.12 64.8C417.04 64.8 414.96 62 414.8 50.16C414.64 40.56 415.68 15.44 414.96 12.4C414.48 10.4 412.48 9.68 408.64 8.88V7.68ZM445.76 15.92L446.72 15.04C448.96 15.44 450.56 16 452.24 17.2C455.2 19.2 457.28 22.48 457.28 24.32C457.28 26.16 455.12 26.56 452.08 28.08C445.12 31.28 433.28 36.16 419.04 40.08L418.24 37.12C429.36 32.96 440.88 27.04 446.32 22.32C447.6 21.28 447.92 20.56 447.44 19.04C447.04 17.76 446.32 16.64 445.76 15.92ZM492.88 10.16L494.32 9.6C495.92 11.68 497.84 14.24 500.48 14.24C505.6 14.24 520.32 11.52 524.4 10.48C526.24 10.08 527.44 8.08 528.88 8.08C531.92 8.08 538.32 13.36 538.32 15.6C538.32 17.6 535.12 18.56 534.16 20C531.2 24.4 526.48 32.08 520.56 38.4C513.2 46.08 500.96 57.36 482.48 63.68L481.44 61.92C500.24 52.16 519.6 32.4 526.48 16.48C526.96 15.36 526.48 15.04 525.6 15.12C521.36 15.68 510.72 18.56 506.56 19.84C503.92 20.64 503.28 22.32 501.2 22.32C498.16 22.32 494.64 18.16 493.68 15.6C493.2 14.24 492.88 12.4 492.88 10.16ZM517.12 38L518.56 36.32C532.64 40.88 546.88 49.6 546.88 58.16C546.88 60.24 545.52 62.4 542.88 62.4C540.16 62.4 538.48 59.92 535.12 55.52C530.32 48.8 526 43.04 517.12 38Z" fill="url(#paint0_linear_2_11916)"/>
</g>
<defs>
<filter id="filter0_d_2_11916" x="0.15875" y="0.560059" width="550.091" height="72.9712" filterUnits="userSpaceOnUse" color-interpolation-filters="sRGB">
<feFlood flood-opacity="0" result="BackgroundImageFix"/>
<feColorMatrix in="SourceAlpha" type="matrix" values="0 0 0 0 0 0 0 0 0 0 0 0 0 0 0 0 0 0 127 0" result="hardAlpha"/>
<feOffset dx="1.44416" dy="1.92555"/>
<feGaussianBlur stdDeviation="0.962774"/>
<feComposite in2="hardAlpha" operator="out"/>
<feColorMatrix type="matrix" values="0 0 0 0 0.154346 0 0 0 0 0.154346 0 0 0 0 0.154346 0 0 0 1 0"/>
<feBlend mode="normal" in2="BackgroundImageFix" result="effect1_dropShadow_2_11916"/>
<feBlend mode="normal" in="SourceGraphic" in2="effect1_dropShadow_2_11916" result="shape"/>
</filter>
<linearGradient id="paint0_linear_2_11916" x1="-4" y1="29.5014" x2="556" y2="29.5014" gradientUnits="userSpaceOnUse">
<stop stop-color="#F0C48F"/>
<stop offset="0.36" stop-color="#835120"/>
<stop offset="1" stop-color="#EAD69C"/>
</linearGradient>
</defs>
</svg>
