<svg width="690" height="116" viewBox="0 0 690 116" fill="none" xmlns="http://www.w3.org/2000/svg">
<g filter="url(#filter0_d_2_11917)">
<path d="M9.75513 37.9256C7.1687 37.9256 5.05252 36.7499 3.28904 35.3391C1.7607 32.6351 1.0553 29.4609 1.0553 26.5217C1.0553 16.4111 7.87409 8.53426 18.5725 4.53704L19.7482 7.59374C12.1064 11.0031 7.75652 15.7057 5.87548 23.2299L5.28765 18.2922L12.8118 23.2299C16.1037 25.5812 17.1617 27.815 17.1617 30.7541C17.1617 34.8689 13.9875 37.9256 9.75513 37.9256ZM34.2087 37.9256C31.5047 37.9256 29.5061 36.7499 27.8602 35.3391C26.2143 32.6351 25.5089 29.4609 25.5089 26.5217C25.5089 16.4111 32.4452 8.53426 43.0261 4.53704L44.3193 7.59374C36.56 11.0031 32.2101 15.7057 30.329 23.2299L29.7412 18.2922L37.2654 23.2299C40.6748 25.5812 41.6153 27.815 41.6153 30.7541C41.6153 34.8689 38.441 37.9256 34.2087 37.9256ZM113.594 35.927L114.652 34.281C119.119 35.104 122.646 36.5148 124.998 38.9836C126.526 40.512 126.643 42.1579 125.938 44.3917C122.294 55.6779 110.89 71.7843 99.2507 82.8355C89.728 92.0056 79.4998 96.9433 71.1526 96.9433C65.5095 96.9433 62.1001 93.6515 62.1001 86.9503C62.1001 70.4911 78.6768 55.3252 94.7833 48.1537C102.072 44.8619 111.125 42.6282 120.648 42.6282C142.044 42.6282 154.977 56.736 154.977 72.0195C154.977 95.415 131.581 105.526 99.3683 105.878L98.898 103.527C128.76 98.5892 144.043 86.1273 144.043 69.1979C144.043 56.5009 134.638 46.6254 119.354 46.6254C111.007 46.6254 103.483 48.7416 94.5481 53.5617C80.0876 61.5562 70.8 74.841 70.8 83.3057C70.8 86.0097 71.7405 87.0678 74.2093 87.0678C80.3227 87.0678 89.6104 81.6598 96.4292 75.4289C104.894 67.9047 115.004 54.1496 118.179 45.4497C119.825 41.0998 118.414 38.8661 113.594 35.927ZM87.024 10.1802V8.18156C89.2577 7.24104 92.3144 6.06539 94.313 6.06539C101.132 6.06539 108.421 10.0626 108.421 12.7666C108.421 15.5882 105.717 16.5287 104.776 20.8786C102.072 30.7541 98.7805 46.5078 98.7805 57.4414C98.7805 74.2532 106.422 79.8963 106.422 86.7151C106.422 89.8894 104.424 91.065 101.72 91.065C94.4306 91.065 90.9036 74.2532 90.9036 60.0278C90.9036 45.6849 96.0765 22.1718 96.0765 15.1179C96.0765 13.0017 95.6062 12.4139 93.8427 11.7085C91.8441 11.0031 89.4928 10.5329 87.024 10.1802ZM66.0973 22.407L67.7433 20.8786C73.7391 25.2285 77.9714 26.6393 84.2024 26.6393C89.3753 26.6393 94.6657 26.169 99.3683 25.3461C116.65 22.2894 125.938 16.0584 127.937 16.0584C133.227 16.0584 136.049 17.7043 136.049 20.6435C136.049 22.7597 134.873 24.0529 132.287 25.111C126.526 27.4623 112.418 31.4595 98.898 33.4581C93.7252 34.1635 87.9645 34.7513 82.674 34.7513C73.9742 34.7513 69.8594 30.7541 66.0973 22.407ZM241.387 30.7541V28.2852C247.736 26.6393 254.202 26.992 258.904 28.5203C266.428 31.1068 270.896 36.1621 270.896 41.9228C270.896 45.2146 269.603 47.4483 266.546 47.4483C262.666 47.4483 260.08 44.5092 254.202 44.7443C250.557 45.097 246.56 46.3903 244.444 48.9767C242.445 51.5631 242.328 55.4428 242.798 59.9103C243.386 65.9061 246.56 81.072 246.56 90.4772C246.56 100.588 238.918 106.231 226.104 106.231C213.407 106.231 206.235 99.8824 206.235 92.0056C206.235 82.7179 215.64 74.9586 232.099 74.9586C245.267 74.9586 255.025 79.3085 261.608 83.4233C268.31 87.1854 272.307 91.4177 272.307 95.6501C272.307 99.2946 270.308 101.058 267.957 101.058C264.9 101.058 263.372 98.3541 259.61 95.0623C252.321 88.1259 241.975 81.7774 226.339 81.7774C216.228 81.7774 211.29 86.1273 211.29 90.1245C211.29 94.1217 214.817 97.1784 223.164 97.1784C232.922 97.1784 236.802 92.5934 236.802 85.657C236.802 78.8383 235.862 69.6682 235.862 62.6143C235.862 55.5603 237.39 50.7402 240.917 46.743C245.149 42.0403 250.792 39.9242 254.672 38.0431C255.965 36.985 255.495 35.6918 253.967 34.5162C251.145 32.1649 246.678 30.9892 241.387 30.7541ZM178.255 22.5245C183.192 26.4042 186.484 29.2257 194.243 29.2257C199.769 29.2257 206.47 27.5798 209.88 26.6393C223.4 22.9948 226.456 19.703 228.572 19.703C231.276 19.703 233.863 21.4664 233.863 24.4056C233.863 26.8744 231.864 28.4028 230.101 29.4609C223.282 33.4581 206.118 37.9256 193.538 37.9256C184.133 37.9256 179.783 34.7513 176.374 23.7002L178.255 22.5245ZM198.476 9.70991V7.82887C200.592 6.88834 204.119 5.94783 207.058 5.94783C210.938 5.94783 214.7 7.00591 216.934 8.53426C219.402 10.2977 217.992 13.8247 213.171 29.4609C210.232 38.9836 201.415 65.671 190.364 82.8355C187.895 86.48 186.014 89.0664 183.192 89.0664C179.783 89.0664 178.137 85.7746 178.137 82.6003C178.137 80.1315 178.725 78.1329 180.606 75.7816C188.6 65.671 198.123 51.4456 203.178 34.0459C205.059 27.815 206.47 21.2313 206.588 16.8814C206.588 14.4125 205.882 13.1193 203.884 11.9437C202.003 10.768 199.887 10.0626 198.476 9.70991ZM316.864 10.0626L316.982 7.82887C319.921 6.88834 322.507 6.18295 325.681 6.30052C331.56 6.41808 339.084 9.82748 339.201 12.7666C339.201 15.4706 337.085 17.9395 334.969 24.9934C333.323 30.8717 329.679 44.6268 325.681 56.0306C320.861 70.4911 313.455 90.5948 308.634 99.0595C306.753 102.469 305.225 104.35 301.816 104.35C298.876 104.35 296.643 101.176 296.643 97.296C296.643 93.4163 298.759 92.0056 301.463 87.4205C306.401 79.6612 312.514 68.4925 318.04 52.8563C321.802 42.0403 325.799 25.111 326.269 17.9395C326.504 15.1179 326.034 14.1774 324.035 12.7666C322.037 11.7085 319.568 10.768 316.864 10.0626ZM294.644 27.6974C300.17 32.1649 303.697 33.8108 308.987 33.9283C315.923 34.0459 323.095 32.5176 328.033 31.2243C336.497 28.9906 342.493 26.4042 346.961 23.9353C349.194 22.7597 350.723 21.7016 351.781 21.7016C354.25 21.7016 358.835 23.1123 358.835 26.6393C358.835 29.5784 356.836 31.1068 350.017 33.6932C346.373 35.104 335.792 38.631 326.857 40.512C322.154 41.4525 315.336 42.5106 310.28 42.5106C302.168 42.5106 296.76 40.1593 292.881 28.9906L294.644 27.6974ZM345.432 50.505L344.727 48.2713C350.605 44.9795 359.423 42.0403 368.24 42.0403C375.999 42.0403 381.055 43.8038 383.759 45.2146C386.933 46.9781 388.344 49.3294 388.344 51.5631C388.344 54.3847 386.227 55.6779 382.113 55.7955C379.996 55.913 377.763 56.1482 374.706 57.0887C370.239 58.1468 364.948 60.1454 360.833 61.7913L359.658 60.1454C363.302 57.6765 369.416 53.209 370.826 51.7983C371.532 51.0929 371.297 50.505 370.239 50.1523C367.652 49.2118 363.537 48.8591 360.01 48.8591C355.778 48.8591 350.605 49.447 345.432 50.505ZM339.319 73.1951L336.968 73.4303C336.85 76.9572 336.732 81.5423 337.908 85.657C340.259 97.5311 350.723 103.527 366.829 103.527C374.353 103.527 379.644 102.704 383.288 101.881C387.403 100.941 390.46 99.2946 390.46 96.473C390.46 92.3583 385.992 90.5948 382.113 90.5948C379.409 90.5948 375.176 92.8285 364.243 92.8285C354.485 92.8285 347.548 90.4772 343.081 84.0111C340.847 80.4842 339.789 76.2518 339.319 73.1951ZM457.237 20.6435C460.764 24.5231 464.761 29.9311 464.761 35.5743C464.761 41.4525 463.585 48.624 460.999 55.6779C455.826 70.256 442.541 92.2407 429.139 92.2407C420.439 92.2407 411.857 78.7207 411.857 63.6723C411.857 52.3861 417.382 39.1012 428.551 29.5784C438.074 21.2313 450.065 16.999 463.585 16.999C489.45 16.999 508.378 34.5162 508.378 58.9697C508.378 80.0139 494.27 99.4122 455.238 101.528L454.768 99.0595C484.042 92.8285 496.386 77.1923 496.386 56.3833C496.386 35.104 481.926 21.3489 462.645 21.3489C451.829 21.3489 440.072 26.2866 431.96 34.7513C424.789 42.1579 420.792 50.7402 420.792 60.7332C420.792 70.8438 425.142 79.4261 430.079 79.4261C437.133 79.4261 447.714 62.2616 451.946 52.8563C454.65 46.5078 456.767 38.8661 456.767 32.9878C456.767 28.5203 454.886 24.8758 452.534 21.584L457.237 20.6435ZM540.708 1.59791C569.747 8.06399 560.106 29.2257 549.643 21.3489C548.703 14.7652 544 7.12348 539.65 2.3033L540.708 1.59791ZM618.771 65.9061H617.478L623.239 60.3805L633.702 69.0803C632.879 70.0209 631.468 70.6087 629 70.9614C627.236 90.7123 623.592 102.234 617.831 106.466C614.422 108.935 609.836 110.111 604.546 110.111C604.546 107.171 604.076 104.467 602.547 102.939C600.902 101.293 597.375 100.118 593.142 99.2946V97.5311C597.257 98.0014 604.428 98.4717 606.78 98.4717C608.778 98.4717 609.836 98.2365 611.012 97.4136C614.186 94.8271 617.243 83.4233 618.771 65.9061ZM543.882 77.545L545.646 77.4275C550.701 92.0056 545.528 101.528 540.003 104.938C536.241 107.171 531.303 106.701 529.892 103.057C528.716 99.7649 530.715 96.9433 533.889 95.2974C538.945 92.711 544 85.7746 543.882 77.545ZM558.46 77.0748C577.976 92.5934 564.809 109.64 557.285 99.6473C559.048 92.3583 558.46 83.6584 556.932 77.4275L558.46 77.0748ZM573.274 75.8991C597.727 84.599 587.734 102.939 578.917 95.0623C578.682 88.8313 575.39 81.3071 571.98 76.6045L573.274 75.8991ZM589.615 73.9005C614.892 76.2518 608.308 94.592 598.903 88.9489C597.61 84.0111 592.79 78.0153 588.557 74.7235L589.615 73.9005ZM544.705 65.9061H622.063V69.3155H541.414L544.705 65.9061ZM561.517 46.0376H610.777V49.447H559.048L561.517 46.0376ZM530.245 26.6393H603.018V30.0487H531.303L530.245 26.6393ZM596.434 26.6393H595.258L599.726 21.9367L609.484 29.8136C608.661 30.7541 607.603 31.1068 605.604 31.2243L601.96 47.3308H591.614L596.434 26.6393ZM607.132 46.0376H606.074L610.424 41.335L620.065 49.0943C619.124 50.0348 618.184 50.2699 616.185 50.505L613.246 67.0817H603.37L607.132 46.0376ZM572.803 0.0695635L588.322 4.53704C587.852 6.06539 586.794 6.77078 583.502 6.77078C574.449 34.9864 556.697 68.375 523.191 87.8908L522.015 86.7151C549.761 64.7304 565.985 29.3433 572.803 0.0695635ZM651.337 5.94783C654.041 5.94783 656.04 7.00591 657.685 8.53426C659.331 11.1207 660.037 14.4125 660.037 17.3517C660.037 27.3447 653.218 35.2216 642.52 39.3363L641.226 36.2796C648.986 32.7527 653.336 28.1677 655.217 20.6435L655.804 25.5812L648.28 20.5259C644.871 18.2922 643.93 15.9409 643.93 13.1193C643.93 9.00452 647.105 5.94783 651.337 5.94783ZM675.673 5.94783C678.259 5.94783 680.376 7.00591 682.021 8.53426C683.667 11.1207 684.373 14.4125 684.373 17.3517C684.373 27.3447 677.554 35.2216 666.738 39.3363L665.562 36.2796C673.322 32.7527 677.672 28.1677 679.553 20.6435L680.14 25.5812L672.616 20.5259C669.207 18.2922 668.266 15.9409 668.266 13.1193C668.266 9.00452 671.441 5.94783 675.673 5.94783Z" fill="url(#paint0_linear_2_11917)"/>
</g>
<defs>
<filter id="filter0_d_2_11917" x="0.347746" y="0.0693359" width="688.977" height="115.701" filterUnits="userSpaceOnUse" color-interpolation-filters="sRGB">
<feFlood flood-opacity="0" result="BackgroundImageFix"/>
<feColorMatrix in="SourceAlpha" type="matrix" values="0 0 0 0 0 0 0 0 0 0 0 0 0 0 0 0 0 0 127 0" result="hardAlpha"/>
<feOffset dx="2.12229" dy="2.82972"/>
<feGaussianBlur stdDeviation="1.41486"/>
<feComposite in2="hardAlpha" operator="out"/>
<feColorMatrix type="matrix" values="0 0 0 0 0.154346 0 0 0 0 0.154346 0 0 0 0 0.154346 0 0 0 1 0"/>
<feBlend mode="normal" in2="BackgroundImageFix" result="effect1_dropShadow_2_11917"/>
<feBlend mode="normal" in="SourceGraphic" in2="effect1_dropShadow_2_11917" result="shape"/>
</filter>
<linearGradient id="paint0_linear_2_11917" x1="-4" y1="49.502" x2="689" y2="49.502" gradientUnits="userSpaceOnUse">
<stop stop-color="#F0C48F"/>
<stop offset="0.36" stop-color="#835120"/>
<stop offset="1" stop-color="#EAD69C"/>
</linearGradient>
</defs>
</svg>
