<svg width="399" height="79" viewBox="0 0 399 79" fill="none" xmlns="http://www.w3.org/2000/svg">
<g filter="url(#filter0_d_2_11915)">
<path d="M1 50H60.92L65.32 44.32C65.32 44.32 70.36 48.24 73.32 51.04C73.08 51.92 72.36 52.32 71.16 52.32H1.64L1 50ZM54.76 18.48H53.96L57.56 14.56L65.32 20.4C64.84 21.04 63.72 21.68 62.2 22V42.24C62.12 42.8 58.44 44.4 55.96 44.4H54.76V18.48ZM12.04 18.48V15.2L19.88 18.48H59.8V20.8H19.32V43.68C19.32 44.4 16.12 46.08 13.08 46.08H12.04V18.48ZM46.2 43.6L56.36 44.56C56.12 45.68 55.4 46.24 53.64 46.56V65.36C53.64 70.8 52.44 74 42.84 74.8C42.6 72.48 42.12 70.72 40.84 69.6C39.48 68.48 37.4 67.6 33.24 66.96V65.84C33.24 65.84 42.6 66.4 44.44 66.4C45.8 66.4 46.2 66 46.2 64.96V43.6ZM16.04 54.48C38.6 56.72 33.8 73.04 25.72 68.4C24.28 63.6 19.64 58.16 15.4 55.2L16.04 54.48ZM14.84 28.72H58.76V31.04H14.84V28.72ZM14.84 39.12H58.76V41.44H14.84V39.12ZM32.92 0.879996L43.24 1.84C43.08 2.96 42.44 3.76 40.36 4.08V40.32H32.92V0.879996ZM3 9.2H59.32L63.72 3.44C63.72 3.44 68.6 7.44 71.64 10.24C71.4 11.12 70.6 11.52 69.48 11.52H3.64L3 9.2ZM93 5.2H142.92V7.44H93V5.2ZM93.08 16.64H143.32V18.88H93.08V16.64ZM140.6 5.2H139.8L143.4 1.35999L151.16 7.04C150.68 7.68 149.56 8.32 148.04 8.64V20.16C147.96 20.72 144.28 22.24 141.88 22.24H140.6V5.2ZM88.68 5.2V4.4V1.84L97.4 5.2H96.2V25.44C96.2 40.56 95.08 60.96 79.72 74.4L78.68 73.68C87.64 59.44 88.68 41.68 88.68 25.52V5.2ZM130.52 55.04C144.92 59.36 139.56 69.04 134.76 65.04C134.36 61.84 131.88 57.92 129.64 55.6L130.52 55.04ZM97.32 51.12V48L104.76 51.12H144.6V53.44H104.2V72.48C104.2 73.2 101.16 74.64 98.28 74.64H97.32V51.12ZM118.84 24.72H125.96V60.96H118.84V24.72ZM137.08 32.88H136.36L139.72 29.28L147 34.72C146.52 35.2 145.56 35.76 144.2 36.08V45.6C144.12 46.08 140.52 47.44 138.28 47.44H137.08V32.88ZM105.32 42.48H139.96V44.72H105.32V42.48ZM101.16 32.88V29.76L108.6 32.88H139.48V35.12H108.12V46.4C108.12 47.04 105 48.56 102.12 48.56H101.16V32.88ZM105.96 59.76C111.24 59.76 123.08 59.44 135.16 58.96L135.24 60.24C129.8 61.68 122.12 63.52 111.4 65.84C110.92 66.8 110.12 67.28 109.32 67.44L105.96 59.76ZM135.56 20.16L142.12 26.16C141.32 26.8 139.8 26.88 137.88 26.08C128.2 27.36 113.08 28.08 100.6 27.68L100.36 26.24C112.36 25.12 127.48 22.4 135.56 20.16ZM141.56 51.12H140.76L143.96 47.28L151.88 53.12C151.4 53.68 150.2 54.48 148.6 54.72V67.28C148.6 71.68 147.56 74.32 139.56 75.04C139.4 73.2 139.16 71.68 138.36 70.8C137.48 70 136.12 69.2 133.24 68.8V67.68C133.24 67.68 138.6 68.08 140.04 68.08C141.24 68.08 141.56 67.6 141.56 66.64V51.12ZM222.52 29.12V31.44H194.92V29.12H222.52ZM222.52 50.32V52.64H194.76V50.32H222.52ZM218.52 8.16L222.28 4L230.12 10.08C229.64 10.72 228.44 11.36 226.84 11.68V55.6C226.68 56.24 223.16 57.92 220.52 57.92H219.32V8.16H218.52ZM226.44 61.04C226.44 61.04 231.8 65.28 235 68.32C234.76 69.2 233.96 69.6 232.84 69.6H183.48L182.84 67.28H221.72L226.44 61.04ZM198.68 57.2C198.68 58.08 195.88 59.84 192.6 59.84H191.4V4.8L199.08 8.16H223V10.48H198.68V57.2ZM159.08 40.96C164.04 39.76 176.84 35.68 189.4 31.44L189.72 32.48C184.12 36.08 175.64 41.36 164.28 47.68C163.96 48.64 163.24 49.52 162.36 49.84L159.08 40.96ZM181.48 1.52C181.24 2.64 180.44 3.44 178.52 3.68V64.8C178.52 70.4 177.4 73.76 168.6 74.64C168.36 72.16 167.88 70.24 166.84 68.96C165.72 67.6 163.88 66.8 160.36 66.24V64.96C160.36 64.96 167.88 65.52 169.48 65.52C170.84 65.52 171.24 65.04 171.24 64V0.479997L181.48 1.52ZM183.24 13.6C183.24 13.6 187.4 17.36 189.8 20C189.56 20.88 188.76 21.28 187.64 21.28H160.68L160.04 18.96H179.64L183.24 13.6ZM307.88 9.68C307.48 10.64 306.44 11.2 304.68 11.04C299.88 17.68 293.96 24.08 288.44 28.32L287.4 27.6C290.36 22.16 294.28 13.28 297.08 5.28L307.88 9.68ZM248.92 6C272.52 15.44 266.52 31.92 258.68 25.92C257.24 19.52 252.2 11.76 248.04 6.56L248.92 6ZM296.92 30.32L300.84 26L309 32.4C308.44 33.04 307.24 33.76 305.48 34.08V72.16C305.4 72.8 301.8 74.8 299 74.8H297.72V30.32H296.92ZM301 66.64V68.96H244.68L243.96 66.64H301ZM301.4 48.08V50.4H249.8L249.08 48.08H301.4ZM301.56 30.32V32.64H245.64L244.92 30.32H301.56ZM283.72 1.52C283.56 2.72 282.84 3.44 280.76 3.76V31.52H273V0.559996L283.72 1.52ZM381 19.2C379.4 17.12 377.4 14.4 373.72 11.52L374.6 10.32C378.92 11.68 382.36 13.28 384.68 15.44C386.52 17.12 387.16 18.48 387.16 20C387.16 21.52 386.2 22.56 384.68 22.56C383.4 22.56 382.36 21.12 381 19.2ZM388.44 13.12C386.84 11.2 385.08 9.12 381.08 6.16L381.88 4.96C386.28 6.16 389.72 7.52 391.8 9.2C393.88 10.8 394.68 12.4 394.68 14.16C394.68 15.76 393.88 16.64 392.36 16.64C390.92 16.64 390.04 15.12 388.44 13.12ZM339.16 58.24C343.24 60.56 346.6 62.24 348.6 62.24C351.08 62.24 352.68 61.44 354.36 58.88C357.72 54.48 360.28 43.76 360.28 35.28C360.28 30.32 358.92 28 354.84 28C350.04 28 339.56 31.92 334.76 34C331.8 35.2 330.44 36.08 328.36 36.08C326.12 36.08 322.68 32.48 322.12 29.44C321.8 27.68 322.12 25.92 322.68 24.32L324.04 24.08C325.24 26.48 326.04 28.56 328.2 28.56C331.4 28.56 339.8 26.32 346.92 25.04C349.4 24.56 353.64 23.92 356.36 23.92C362.6 23.92 366.44 27.52 366.44 37.68C366.44 47.68 363.8 59.04 358.44 65.28C355.96 68.16 352.44 70.08 348.36 70.08C345.4 70.08 344.52 68.88 343.48 65.6C343 64.24 342.44 63.36 338.36 59.36L339.16 58.24ZM339.64 9.52V8.08C341.24 7.36 343.24 6.48 346.04 6.48C349.56 6.48 356.36 9.52 356.36 11.92C356.36 14 354.36 15.04 353.32 17.44C351.24 22.56 345.72 36 341.48 45.12C337.48 53.52 332.84 62.8 329.8 67.68C328.28 70.24 327.08 70.96 325.4 70.96C323.8 70.96 322.12 69.36 322.12 66.8C322.12 64.88 322.44 63.92 323.72 62.24C327.8 57.04 331.8 50.88 336.04 42.64C341.56 31.36 346.92 16.32 346.92 13.36C346.92 12.32 346.6 11.6 345.64 11.04C344.36 10.32 341.8 9.84 339.64 9.52ZM370.52 25.36L371.24 23.76C377 24.24 381.8 26.16 385.48 29.84C389.32 33.6 391.32 39.12 391.32 45.28C391.32 49.44 389.88 52.48 386.84 52.56C384.28 52.56 384.28 50.16 381.72 49.36C380.04 48.88 375.48 48.72 372.68 48.88L372.36 47.2C375.56 46.48 379.24 45.6 381.24 44.88C383 44.16 383.56 43.36 383.48 41.2C383.4 39.04 382.68 35.36 380.44 32C378.28 28.72 375.24 26.4 370.52 25.36Z" fill="url(#paint0_linear_2_11915)"/>
</g>
<defs>
<filter id="filter0_d_2_11915" x="0.518613" y="0.47998" width="397.531" height="78.4112" filterUnits="userSpaceOnUse" color-interpolation-filters="sRGB">
<feFlood flood-opacity="0" result="BackgroundImageFix"/>
<feColorMatrix in="SourceAlpha" type="matrix" values="0 0 0 0 0 0 0 0 0 0 0 0 0 0 0 0 0 0 127 0" result="hardAlpha"/>
<feOffset dx="1.44416" dy="1.92555"/>
<feGaussianBlur stdDeviation="0.962774"/>
<feComposite in2="hardAlpha" operator="out"/>
<feColorMatrix type="matrix" values="0 0 0 0 0.154346 0 0 0 0 0.154346 0 0 0 0 0.154346 0 0 0 1 0"/>
<feBlend mode="normal" in2="BackgroundImageFix" result="effect1_dropShadow_2_11915"/>
<feBlend mode="normal" in="SourceGraphic" in2="effect1_dropShadow_2_11915" result="shape"/>
</filter>
<linearGradient id="paint0_linear_2_11915" x1="-3" y1="33.5014" x2="397" y2="33.5014" gradientUnits="userSpaceOnUse">
<stop stop-color="#F0C48F"/>
<stop offset="0.36" stop-color="#835120"/>
<stop offset="1" stop-color="#EAD69C"/>
</linearGradient>
</defs>
</svg>
