<?xml version="1.0" encoding="utf-8"?>
<!-- Generator: Adobe Illustrator 19.2.1, SVG Export Plug-In . SVG Version: 6.00 Build 0)  -->
<svg version="1.1" id="Layer_1" xmlns="http://www.w3.org/2000/svg" xmlns:xlink="http://www.w3.org/1999/xlink" x="0px" y="0px"
	 viewBox="0 0 150 150" style="enable-background:new 0 0 150 150;" xml:space="preserve">
<style type="text/css">
	.st0{fill:#FFFFFF;}
</style>
<path class="st0" d="M19.4,127.3c-1.2-4.8-1.7-9.8-1.4-14.8c2,1.9,4.2,3.7,6.4,5.4c0.5,0.4,1,0.7,1.6,1.1
	C23.6,121.6,21.4,124.3,19.4,127.3z"/>
<path class="st0" d="M107.3,87.7c-2.2-4.5-5.8-8.2-10.2-10.6c0.3-0.8,0.6-1.6,0.9-2.4c3,0.1,6.1,0,9.1-0.2h0.2
	C108,78.9,108,83.3,107.3,87.7z"/>
<path class="st0" d="M51.5,12.3c-9.5,3.7-18.1,9.5-24.9,17c-0.7,0.8-1.4,1.6-2.1,2.4C20.8,19.9,14.4,9.1,6,0
	C34.4,2.5,46.7,8.7,51.5,12.3L51.5,12.3z"/>
<path class="st0" d="M73.2,13.3C57,13.9,41.6,21,30.6,33c-1.6,1.8-3.1,3.6-4.5,5.6c-0.1,0.8-0.6,1.5-1.3,1.9
	c-1.2,1.7-2.2,3.5-3.2,5.2c-5.1,9.4-16.1,33.5-6.7,54c2.7,5.8,6.7,10.9,11.7,14.8c1.1,0.8,2.3,1.6,3.5,2.2c7.9,4.4,17.3,5.7,26.4,7
	l0.4,0.1c0.1,0,0.3,0,0.6,0.1l0.4,0.1c0,0,0,0,0,0c0.4,0.1,0.7,0.2,1,0.4c0.3,0.2,0.5,0.5,0.8,0.7c0.2,0.3,0.3,0.6,0.5,1
	c0,0,0,0,0,0.1c1.9,8.9,6.1,17.2,12.3,23.9c-0.2-17.8,11.5-29.3,19.5-35.2c-10.1-0.7-20.3,0.2-30.1,2.7h0c-0.2,0.1-0.5,0.1-0.7,0.1
	c-0.1,0-0.1,0-0.2,0c-0.1,0-0.2,0-0.3,0c-0.2,0-0.4-0.1-0.6-0.2c-0.1,0-0.2-0.1-0.3-0.1c0,0-0.1,0-0.1-0.1c-0.8-0.5-1.6-1-2.3-1.5
	c-1.6-1-3.2-2-4.7-3.2c0,0-0.1-0.1-0.1-0.1c-2.4-0.9-14.8-6.3-18.9-17.9c-2.7-7.4-1.3-15.7,4-24.6c17.2-28.7,53.5-26.3,55-26.2
	c1.5,0.1,2.7,1.5,2.6,3c-0.1,1.5-1.5,2.7-3,2.6c-0.4,0-34.4-2.3-49.9,23.5c-4.4,7.4-5.6,14.1-3.6,19.9c1.4,3.7,3.9,7,7,9.4
	c-0.6-2.6-0.8-5.2-0.6-7.8c0.9-8.7,6.1-16.3,13.8-20.5c4.4-2.1,9.2-3.4,14-3.8c-0.5-0.8-1.1-1.6-1.8-2.3c-1-1.1-1-2.8,0-3.9
	s2.8-1.1,3.9,0c7.8,7.8,7.2,20,5.6,28.1C97,77.8,95.3,63.5,95.2,63.4c-0.2-1.5,0.8-2.9,2.3-3.1c1.5-0.2,2.9,0.8,3.1,2.3
	c0.3,2.6,0.1,5.2-0.4,7.7c1.8,0,3.7,0,5.6-0.2c10.8-0.8,18.7-3.2,24.8-7.4c5.1-3.6,9-8.7,11.2-14.6c-3.5-1.2-7.1-1.7-10.7-1.7
	c-1.5,0-2.8-1.2-2.8-2.8s1.2-2.8,2.8-2.8c4.2,0,8.4,0.7,12.4,2c0.4-1.7,0.8-3.2,1-4.7c0.1-0.7,0.2-1.4,0.3-2.1
	C141.7,31.9,123.4,10.9,73.2,13.3z M117.3,27.1c1.5,0,2.8,1.2,2.8,2.8s-1.2,2.8-2.8,2.8c-1.5,0-2.8-1.2-2.8-2.8
	C114.5,28.3,115.7,27.1,117.3,27.1z M114,62.2c-0.7,1.4-2.4,1.9-3.7,1.1c-2.1-1.2-4-2.8-5.5-4.9c-3.2-4.3-3.4-10.1-0.6-14.7
	c0.7-1.4,2.4-1.9,3.7-1.2c1.4,0.7,1.9,2.4,1.2,3.7c-1.2,2.1-1.5,4.6-0.7,6.9c0.7,2.3,2.4,4.2,4.5,5.2
	C114.2,59.2,114.7,60.9,114,62.2z M124.8,58.3c-0.3,1.2-1.4,2.1-2.7,2.1c-0.5,0-0.9-0.1-1.3-0.3c-2.1-1.2-4-2.9-5.5-4.9
	c-3.2-4.3-3.4-10.1-0.6-14.7c0.5-0.9,1.4-1.4,2.3-1.5c1,0,1.9,0.5,2.5,1.3c0.5,0.8,0.6,1.9,0.1,2.8c-1.2,2.1-1.5,4.6-0.8,6.9
	c0.7,2.3,2.4,4.2,4.5,5.2C124.6,55.8,125.1,57.1,124.8,58.3z"/>
</svg>
