<?xml version="1.0" encoding="utf-8"?>
<!-- Generator: Adobe Illustrator 19.2.1, SVG Export Plug-In . SVG Version: 6.00 Build 0)  -->
<svg version="1.1" id="Layer_1" xmlns="http://www.w3.org/2000/svg" xmlns:xlink="http://www.w3.org/1999/xlink" x="0px" y="0px"
	 viewBox="0 0 150 150" style="enable-background:new 0 0 150 150;" xml:space="preserve">
<style type="text/css">
	.st0{fill:#FFFFFF;}
	.st1{fill:#FFCD00;stroke:#FFCD00;stroke-miterlimit:10;}
	.st2{clip-path:url(#SVGID_2_);fill:#FFFFFF;}
</style>
<path class="st0" d="M65.6,70c9.6,0,17.9-3.4,24.7-10.3c6.8-6.8,10.3-15.1,10.3-24.7c0-9.6-3.4-17.9-10.3-24.7
	C83.6,3.5,75.2,0,65.6,0C56,0,47.7,3.5,40.9,10.3S30.6,25.4,30.6,35c0,9.6,3.5,17.9,10.3,24.7C47.7,66.6,56,70,65.6,70z"/>
<polygon class="st1" points="118.5,150.5 118.5,124.5 96.5,124.5 96.5,115.5 118.5,115.5 118.5,91.5 128.5,91.5 128.5,115.5 
	150.5,115.5 150.5,124.5 128.5,124.5 128.5,150.5 "/>
<g>
	<defs>
		<path id="SVGID_1_" d="M146,89.7c0-7.5-6.5-13.7-14.5-13.7h-15.1c-8,0-14.5,6.1-14.5,13.7V98h-8c-7.7,0-14,6.4-14,14.2v15.2
			c0,7.6,6.1,13.6,14,13.6h8v9L0,150L0,19h146V89.7z"/>
	</defs>
	<clipPath id="SVGID_2_">
		<use xlink:href="#SVGID_1_"  style="overflow:visible;"/>
	</clipPath>
	<path class="st2" d="M131.8,116c-0.2-2.9-0.6-6-1.3-9.3c-0.6-3.3-1.5-6.5-2.4-9.3c-1-3-2.4-5.9-4.1-8.7c-1.8-2.9-3.9-5.5-6.2-7.5
		c-2.4-2.2-5.4-3.9-8.9-5.2c-3.4-1.3-7.3-1.9-11.3-1.9c-1.6,0-3.2,0.6-6.1,2.4c-1.8,1.1-4,2.4-6.4,3.9c-2.1,1.2-4.8,2.4-8.3,3.4
		c-3.4,1-6.8,1.5-10.1,1.5c-3.4,0-6.8-0.5-10.1-1.5c-3.4-1-6.2-2.2-8.3-3.4c-2.4-1.4-4.5-2.7-6.4-3.9c-3-1.8-4.5-2.4-6.1-2.4
		c-4.1,0-7.9,0.6-11.3,1.9c-3.5,1.3-6.4,3-8.9,5.2c-2.3,2.1-4.4,4.6-6.2,7.5c-1.7,2.8-3.1,5.7-4.1,8.7c-1,2.9-1.8,6-2.4,9.3
		c-0.6,3.3-1.1,6.4-1.3,9.3c-0.2,2.8-0.3,5.7-0.3,8.7c0,7.7,2.6,13.9,7.7,18.5c5.1,4.5,11.8,6.8,20,6.8h75.6c8.2,0,14.9-2.3,20-6.8
		c5.1-4.6,7.7-10.8,7.7-18.5C132.1,121.8,132,118.8,131.8,116z"/>
</g>
</svg>
