<svg width="286" height="110" viewBox="0 0 286 110" fill="none" xmlns="http://www.w3.org/2000/svg">
<g filter="url(#filter0_d_2_11161)">
<path d="M78.8675 75.3741C78.8675 77.1449 78.8209 78.6361 78.7277 79.8477C78.3549 83.9484 78.2151 87.257 78.3083 89.7733L78.4481 99.699C66.5187 99.233 44.9432 99 13.7216 99H7.8501C3.74936 99 1.69899 98.6272 1.69899 97.8816C1.69899 97.136 2.35138 96.7632 3.65616 96.7632C8.3161 96.67 11.2985 96.0176 12.6032 94.8061C13.442 94.0605 13.8614 91.8237 13.8614 88.0958L13.7216 12.3252C13.7216 9.15646 13.442 7.19928 12.8828 6.45369C11.7644 5.05571 10.0403 4.40332 7.71031 4.49652L4.21536 4.63632C3.19017 4.63632 2.67758 4.26353 2.67758 3.51794C2.67758 2.77235 3.32997 2.39955 4.63475 2.39955C5.38034 2.39955 6.12593 2.44615 6.87152 2.53935H42.3802C42.8462 2.44615 43.3588 2.39955 43.918 2.39955C44.85 2.39955 45.316 2.77235 45.316 3.51794C45.316 4.35673 44.1044 4.77612 41.6812 4.77612C38.2329 4.77612 36.1825 5.19552 35.5301 6.0343C34.9709 6.87309 34.6913 10.5544 34.6913 17.0783V50.3503C34.6913 57.1538 34.8777 72.3918 35.2505 96.0642C37.0213 96.1574 39.0251 96.204 41.2618 96.204C51.0477 96.204 57.8046 95.8312 61.5326 95.0857C67.4041 93.8741 71.4116 90.8917 73.5552 86.1386C74.6736 83.7154 75.6988 79.8477 76.6307 74.5353C76.9103 73.0442 77.3297 72.2986 77.8889 72.2986C78.5413 72.2986 78.8675 73.3238 78.8675 75.3741ZM125.484 98.0214C125.484 98.767 124.878 99.1398 123.666 99.1398C123.014 99.1398 122.408 99.0932 121.849 99C116.257 98.7204 111.457 98.5806 107.45 98.5806C103.256 98.5806 97.1046 98.7204 88.9963 99C86.2935 99.0932 84.2898 99.1398 82.985 99.1398C81.587 99.1398 80.888 98.7204 80.888 97.8816C80.888 97.4156 81.121 97.136 81.587 97.0428C82.1462 96.9496 83.9636 96.8564 87.0391 96.7632C89.9283 96.204 91.6059 95.3653 92.0719 94.2469C92.5379 93.0353 92.7709 89.2607 92.7709 82.9232V15.6804C92.7709 13.9096 92.7709 12.1854 92.7709 10.5078C92.6777 8.83026 92.6311 8.03807 92.6311 8.13127C92.6311 5.80131 90.3011 4.63632 85.6412 4.63632C83.0316 4.63632 81.7268 4.31013 81.7268 3.65773C81.7268 3.00535 81.9132 2.63255 82.286 2.53935C82.6588 2.44615 83.8704 2.39955 85.9208 2.39955C84.9888 2.39955 86.6663 2.44615 90.9535 2.53935C95.2406 2.63255 98.922 2.67915 101.998 2.67915H109.127C110.618 2.67915 112.715 2.63255 115.418 2.53935C118.214 2.35295 120.171 2.25976 121.29 2.25976H122.688C123.899 2.25976 124.505 2.63255 124.505 3.37814C124.505 3.93733 124.272 4.31013 123.806 4.49652C123.433 4.58972 122.035 4.68292 119.612 4.77612C116.723 4.96252 114.952 5.56831 114.3 6.5935L113.88 9.24966V88.2356C113.88 92.2431 114.3 94.6197 115.139 95.3653C116.071 96.1108 119.099 96.6234 124.225 96.903C125.064 96.9962 125.484 97.369 125.484 98.0214ZM192.718 71.4598C192.718 79.9409 189.689 86.9774 183.631 92.5693C177.666 98.068 170.024 100.817 160.704 100.817C155.019 100.817 147.19 98.9068 137.218 95.0857C136.472 94.8061 135.82 94.6663 135.261 94.6663C133.676 94.6663 132.465 96.3438 131.626 99.699C131.346 100.724 130.974 101.237 130.508 101.237C129.762 101.237 129.389 100.584 129.389 99.2796C129.389 98.068 129.622 95.9244 130.088 92.8489C130.461 90.3325 130.647 87.3968 130.647 84.0416C130.647 81.3388 130.601 79.1953 130.508 77.6109C130.321 74.4421 130.228 72.5782 130.228 72.019C130.228 70.5278 130.694 69.7822 131.626 69.7822C132.558 69.7822 133.397 71.786 134.142 75.7935C135.447 82.6902 138.383 88.0492 142.95 91.8703C147.889 95.971 153.201 98.0214 158.887 98.0214C163.919 98.0214 168.16 96.437 171.608 93.2683C175.057 90.0995 176.781 86.2318 176.781 81.665C176.781 77.7507 175.662 74.6285 173.426 72.2986C171.748 70.621 166.342 67.3124 157.209 62.3729C147.05 56.9674 140.154 51.5619 136.519 46.1563C133.164 41.2168 131.486 35.3453 131.486 28.5418C131.486 20.5267 134.329 13.9096 140.014 8.69047C145.699 3.37814 152.875 0.72198 161.543 0.72198C166.203 0.72198 171.189 1.84036 176.501 4.07713C178.272 4.82272 179.53 5.19552 180.276 5.19552C181.674 5.19552 182.606 3.98393 183.072 1.56077C183.258 0.721978 183.677 0.302583 184.33 0.302583C185.262 0.302583 185.728 0.908375 185.728 2.11996C185.728 2.58595 185.635 3.89073 185.448 6.0343C185.262 8.17787 185.169 9.94865 185.169 11.3466C185.169 16.193 185.355 20.2937 185.728 23.6489C185.821 23.9285 185.868 24.3012 185.868 24.7672C185.868 25.606 185.495 26.0254 184.749 26.0254C183.91 26.0254 183.072 24.5342 182.233 21.5519C181.394 18.5695 179.903 15.6338 177.759 12.7446C175.709 9.76225 173.612 7.61868 171.468 6.3139C168.672 4.63632 165.411 3.79753 161.683 3.79753C156.463 3.79753 152.316 5.05571 149.241 7.57208C146.165 10.0884 144.627 13.5368 144.627 17.9171C144.627 21.7383 146.072 25.14 148.961 28.1224C151.85 31.0116 157.395 34.7395 165.597 39.3062C175.662 44.8982 182.326 49.3717 185.588 52.7268C190.341 57.6664 192.718 63.9107 192.718 71.4598ZM278.986 28.2622C278.986 29.0078 278.66 29.3806 278.008 29.3806C276.982 29.3806 276.05 27.5632 275.212 23.9285C273.534 16.7522 271.204 11.8592 268.222 9.24966C265.239 6.6401 260.486 5.33531 253.962 5.33531C251.446 5.33531 249.256 5.42851 247.392 5.61491L247.532 90.6121C247.625 92.9421 248.277 94.4333 249.489 95.0857C250.7 95.738 253.962 96.2972 259.275 96.7632C260.3 96.8564 260.812 97.2758 260.812 98.0214C260.812 98.9534 260.067 99.4194 258.576 99.4194C258.296 99.4194 257.597 99.3728 256.479 99.2796C255.081 99.1864 253.916 99.1398 252.984 99.1398L238.585 98.7204L214.819 99.1398C213.514 99.1398 212.862 98.767 212.862 98.0214C212.862 97.4622 213.048 97.136 213.421 97.0428C213.794 96.9496 215.332 96.8564 218.034 96.7632C223.16 96.5768 225.91 95.3653 226.282 93.1285C226.469 91.9169 226.562 82.4572 226.562 64.7495V5.61491C225.537 5.52171 224.325 5.47511 222.927 5.47511C215.471 5.47511 210.019 6.87309 206.571 9.66905C203.216 12.3718 201.026 17.2181 200 24.208C199.348 28.3088 198.509 30.3592 197.484 30.3592C196.645 30.3592 196.226 29.8 196.226 28.6816C196.226 27.936 196.412 25.373 196.785 20.9927C197.531 11.8592 197.997 5.61491 198.183 2.25976H200.28L210.485 2.11996C210.765 2.11996 213.98 2.21316 220.131 2.39955C226.376 2.58595 234.297 2.67915 243.897 2.67915C249.209 2.67915 253.962 2.63255 258.156 2.53935C262.35 2.44615 266.171 2.39955 269.62 2.39955C272.695 2.39955 275.025 2.30635 276.61 2.11996C276.889 8.17787 277.588 15.9134 278.707 25.3264C278.893 26.9108 278.986 27.8894 278.986 28.2622Z" fill="url(#paint0_linear_2_11161)"/>
</g>
<defs>
<filter id="filter0_d_2_11161" x="0.699219" y="0.302612" width="285.287" height="108.934" filterUnits="userSpaceOnUse" color-interpolation-filters="sRGB">
<feFlood flood-opacity="0" result="BackgroundImageFix"/>
<feColorMatrix in="SourceAlpha" type="matrix" values="0 0 0 0 0 0 0 0 0 0 0 0 0 0 0 0 0 0 127 0" result="hardAlpha"/>
<feOffset dx="3" dy="4"/>
<feGaussianBlur stdDeviation="2"/>
<feComposite in2="hardAlpha" operator="out"/>
<feColorMatrix type="matrix" values="0 0 0 0 0.154346 0 0 0 0 0.154346 0 0 0 0 0.154346 0 0 0 1 0"/>
<feBlend mode="normal" in2="BackgroundImageFix" result="effect1_dropShadow_2_11161"/>
<feBlend mode="normal" in="SourceGraphic" in2="effect1_dropShadow_2_11161" result="shape"/>
</filter>
<linearGradient id="paint0_linear_2_11161" x1="1" y1="53.502" x2="279" y2="53.502" gradientUnits="userSpaceOnUse">
<stop stop-color="#F0C48F"/>
<stop offset="0.36" stop-color="#835120"/>
<stop offset="1" stop-color="#EAD69C"/>
</linearGradient>
</defs>
</svg>
