<?xml version="1.0" encoding="utf-8"?>
<!-- Generator: Adobe Illustrator 24.0.0, SVG Export Plug-In . SVG Version: 6.00 Build 0)  -->
<svg version="1.1" id="Layer_1" xmlns="http://www.w3.org/2000/svg" xmlns:xlink="http://www.w3.org/1999/xlink" x="0px" y="0px"
	 viewBox="0 0 23 23.8" style="enable-background:new 0 0 23 23.8;" xml:space="preserve">
<style type="text/css">
	.st0{fill:#172335;}
	.st1{clip-path:url(#SVGID_2_);}
	.st2{fill:#EA2127;}
</style>
<title>icon-deposit</title>
<g>
	<path class="st0" d="M17.4,4.6c0,0.4-0.3,0.7-0.7,0.7C16.4,5.3,16,5,16,4.6V4.1H0v4c1.8,0.3,3.2,1.9,3.2,3.9S1.8,15.4,0,15.7v4h16
		v-0.5c0-0.4,0.3-0.7,0.7-0.7c0.4,0,0.7,0.3,0.7,0.7v0.5H23v-3.9c-1.9-0.3-3.3-1.9-3.3-3.9c0-2,1.5-3.6,3.3-3.9V4.1h-5.6V4.6z
		 M12.2,16.2l-3-1.6l-2.9,1.6l0.6-3.3l-2.4-2.3L7.8,10l1.5-3.1l1.5,3.1l3.3,0.5l-2.4,2.3L12.2,16.2z M17.4,15.9
		c0,0.4-0.3,0.7-0.7,0.7c-0.4,0-0.7-0.3-0.7-0.7v-2.3c0-0.4,0.3-0.7,0.7-0.7c0.4,0,0.7,0.3,0.7,0.7V15.9z M17.4,10.2
		c0,0.4-0.3,0.7-0.7,0.7c-0.4,0-0.7-0.3-0.7-0.7V7.9c0-0.4,0.3-0.7,0.7-0.7c0.4,0,0.7,0.3,0.7,0.7V10.2z"/>
</g>
<g>
	<defs>
		<rect id="SVGID_1_" x="16.7" y="2.3" width="8.9" height="18.2"/>
	</defs>
	<clipPath id="SVGID_2_">
		<use xlink:href="#SVGID_1_"  style="overflow:visible;"/>
	</clipPath>
	<g class="st1">
		<path class="st2" d="M17.4,4.6c0,0.4-0.3,0.7-0.7,0.7C16.4,5.3,16,5,16,4.6V4.1H0v4c1.8,0.3,3.2,1.9,3.2,3.9S1.8,15.4,0,15.7v4h16
			v-0.5c0-0.4,0.3-0.7,0.7-0.7c0.4,0,0.7,0.3,0.7,0.7v0.5H23v-3.9c-1.9-0.3-3.3-1.9-3.3-3.9c0-2,1.5-3.6,3.3-3.9V4.1h-5.6V4.6z
			 M12.2,16.2l-3-1.6l-2.9,1.6l0.6-3.3l-2.4-2.3L7.8,10l1.5-3.1l1.5,3.1l3.3,0.5l-2.4,2.3L12.2,16.2z M17.4,15.9
			c0,0.4-0.3,0.7-0.7,0.7c-0.4,0-0.7-0.3-0.7-0.7v-2.3c0-0.4,0.3-0.7,0.7-0.7c0.4,0,0.7,0.3,0.7,0.7V15.9z M17.4,10.2
			c0,0.4-0.3,0.7-0.7,0.7c-0.4,0-0.7-0.3-0.7-0.7V7.9c0-0.4,0.3-0.7,0.7-0.7c0.4,0,0.7,0.3,0.7,0.7V10.2z"/>
	</g>
</g>
</svg>
