<svg xmlns="http://www.w3.org/2000/svg" width="25" height="25" fill="none" viewBox="0 0 25 25">
    <g clip-path="url(#prefix__clip0)">
        <path fill="#E62703" d="M.003.198v24h24v-24h-24zm20.24 16.16c-.24.64-.8 1.28-1.52 1.44-1.36.4-6.72.4-6.72.4s-5.36 0-6.72-.4c-.72-.16-1.28-.72-1.52-1.52-.32-1.28-.32-4.08-.32-4.08s0-2.8.4-4.16c.16-.64.72-1.28 1.44-1.44 1.36-.4 6.72-.4 6.72-.4s5.36 0 6.72.4c.72.16 1.28.72 1.52 1.52.4 1.36.4 4.16.4 4.16s-.08 2.72-.4 4.08z"/>
        <path fill="#fff" d="M20.243 16.358c-.24.64-.8 1.28-1.52 1.44-1.36.4-6.72.4-6.72.4s-5.36 0-6.72-.4c-.72-.16-1.28-.72-1.52-1.52-.32-1.28-.32-4.08-.32-4.08s0-2.8.4-4.16c.16-.64.72-1.28 1.44-1.44 1.36-.4 6.72-.4 6.72-.4s5.36 0 6.72.4c.72.16 1.28.72 1.52 1.52.4 1.36.4 4.16.4 4.16s-.08 2.72-.4 4.08z"/>
        <path fill="#E62703" d="M10.323 14.918l4.48-2.56-4.48-2.64v5.2z"/>
    </g>
    <defs>
        <clipPath id="prefix__clip0">
            <path fill="#fff" d="M.003.198h24v24h-24v-24z"/>
        </clipPath>
    </defs>
</svg>
