<?xml version="1.0" encoding="utf-8"?>
<!-- Generator: Adobe Illustrator 25.1.0, SVG Export Plug-In . SVG Version: 6.00 Build 0)  -->
<svg version="1.1" id="Layer_1" xmlns="http://www.w3.org/2000/svg" xmlns:xlink="http://www.w3.org/1999/xlink" x="0px" y="0px"
	 viewBox="0 0 25 25" style="enable-background:new 0 0 25 25;" xml:space="preserve">
<style type="text/css">
	.st0{fill:#FFFFFF;}
</style>
<g>
	<path class="st0" d="M8.3,15.2l4,2.3c0.1,0,0.1,0.1,0.2,0.1c0.1,0,0.2,0,0.2-0.1l4-2.3c0.1-0.1,0.2-0.2,0.2-0.4l0-4.7
		c0-0.2-0.1-0.3-0.2-0.4l-4-2.3c-0.1-0.1-0.3-0.1-0.4,0l-4,2.3C8.1,9.9,8,10,8,10.2v4.7C8,15,8.1,15.1,8.3,15.2z M12.5,13l3.1,1.8
		l-3.1,1.8l-3.1-1.8L12.5,13z M8.9,10.4l3.1-1.8v3.6l-3.1,1.8V10.4z"/>
	<path class="st0" d="M18.8,6.3C18.8,6.3,18.7,6.3,18.8,6.3c-0.2-0.5-0.4-0.9-0.7-1.3c0,0,0-0.1-0.1-0.1c-0.1-0.2-0.2-0.3-0.3-0.5
		c-0.1-0.1-0.1-0.2-0.2-0.3c-0.1-0.2-0.2-0.3-0.3-0.4c-0.5-0.6-1-1.1-1.6-1.6c-0.1,0-0.1-0.1-0.2-0.1c-0.8-0.5-1.8-0.8-2.9-0.8
		c0,0-0.1,0-0.1,0c0,0,0,0,0,0c0,0-0.1,0-0.1,0c0,0,0,0,0,0c0,0-0.1,0-0.1,0c0,0,0,0,0,0c0,0-0.1,0-0.1,0c0,0,0,0,0,0
		c0,0-0.1,0-0.1,0c0,0,0,0,0,0c0,0-0.1,0-0.1,0c0,0,0,0,0,0c0,0-0.1,0-0.1,0c0,0,0,0,0,0c0,0-0.1,0-0.1,0c0,0,0,0,0,0
		c0,0-0.1,0-0.1,0c0,0,0,0,0,0c0,0-0.1,0-0.1,0c0,0,0,0,0,0c-0.2,0.1-0.4,0.1-0.5,0.2c0,0,0,0-0.1,0c0,0,0,0-0.1,0c0,0-0.1,0-0.1,0
		c0,0,0,0,0,0c0,0,0,0,0,0c0,0,0,0,0,0C9,2.1,8,3.2,7.2,4.5c0,0,0,0,0,0C7.1,4.6,7.1,4.7,7,4.7c0,0,0,0.1-0.1,0.1c0,0,0,0.1-0.1,0.1
		C6.7,5.4,6.5,5.8,6.3,6.3c-2.8,1.1-5.2,3.2-5.2,6.2c0,3,2.4,5.1,5.2,6.2c1.1,2.8,3.2,5.2,6.2,5.2c0,0,0.1,0,0.1,0c0,0,0,0,0,0
		c0,0,0.1,0,0.1,0c0,0,0,0,0,0c0,0,0.1,0,0.1,0c0,0,0,0,0,0c0,0,0.1,0,0.1,0c0,0,0,0,0,0c0,0,0.1,0,0.1,0c0,0,0,0,0,0
		c0,0,0.1,0,0.1,0c0,0,0,0,0,0c0,0,0.1,0,0.1,0c0,0,0,0,0,0c0,0,0.1,0,0.1,0c0,0,0,0,0,0c0,0,0.1,0,0.1,0c0,0,0,0,0,0
		c0,0,0.1,0,0.1,0c0,0,0,0,0,0c0.2-0.1,0.4-0.1,0.5-0.2c0,0,0,0,0.1,0c0,0,0,0,0.1,0c0,0,0.1,0,0.1,0c0,0,0,0,0,0c0,0,0,0,0,0
		c0,0,0,0,0,0c1.2-0.6,2.2-1.6,3-2.9c0,0,0,0,0,0c0.3-0.5,0.6-1.2,0.9-1.8c2.6-1.1,4.9-2.9,5.2-5.7c0-0.2,0-0.4,0-0.6
		C23.9,9.5,21.6,7.5,18.8,6.3z M19.1,17.6c0.5-1.6,0.8-3.4,0.8-5.1c0-1.7-0.3-3.4-0.8-5.1c1.8,0.9,3.9,2.4,3.9,5.1
		C23,15.1,20.9,16.7,19.1,17.6z M10.6,2.4C10.6,2.4,10.6,2.4,10.6,2.4c0.3-0.1,0.5-0.2,0.8-0.3c0,0,0,0,0.1,0c0,0,0,0,0,0
		C11.8,2,12.1,2,12.5,2c2.6,0,4.2,2.1,5,3.9c-1.5-0.5-3.1-0.7-4.7-0.8c-0.1,0-0.2,0-0.3,0c-1.7,0-3.4,0.3-5.1,0.8
		c0-0.1,0.1-0.1,0.1-0.2c0,0,0-0.1,0.1-0.1c0-0.1,0.1-0.1,0.1-0.2c0,0,0,0,0,0C7.8,5.2,7.9,5.1,8,4.9c0,0,0,0,0,0
		C8.6,3.9,9.5,2.9,10.6,2.4z M5.9,7.4c-0.5,1.6-0.8,3.4-0.8,5.1c0,1.7,0.3,3.4,0.8,5.1C4.1,16.7,2,15.1,2,12.5
		C2,9.9,4.1,8.3,5.9,7.4z M6,12.5C6,10.6,6.3,8.7,7,7c1.7-0.6,3.7-1,5.5-1c0.2,0,0.5,0,0.7,0c0.1,0,0.2,0,0.4,0
		c0.4,0,0.7,0.1,1.1,0.1c0.5,0.1,0.9,0.1,1.4,0.2c0.2,0.1,0.5,0.1,0.7,0.2c0.1,0,0.2,0.1,0.3,0.1c0.3,0.1,0.7,0.2,1,0.3
		c0.2,0.6,0.4,1.3,0.6,2c0,0.1,0.1,0.2,0.1,0.3c0.1,0.5,0.2,0.9,0.2,1.4c0.1,0.6,0.1,1.2,0.1,1.8c0,0.7,0,1.4-0.1,2.1
		c-0.1,0.9-0.3,1.9-0.6,2.8c-0.1,0.2-0.1,0.4-0.2,0.7c-0.3,0.1-0.6,0.2-1,0.3C15.6,18.8,14,19,12.5,19c-0.8,0-1.6-0.1-2.5-0.2
		c-0.5-0.1-0.9-0.2-1.4-0.3c-0.2-0.1-0.5-0.1-0.7-0.2c-0.3-0.1-0.7-0.2-1-0.3C6.3,16.3,6,14.3,6,12.5z M14.4,22.6
		C14.4,22.6,14.4,22.6,14.4,22.6c-0.3,0.1-0.5,0.2-0.8,0.3c0,0,0,0-0.1,0c0,0,0,0,0,0c-0.3,0.1-0.7,0.1-1,0.1c-2.6,0-4.2-2.1-5-3.9
		c1.6,0.5,3.4,0.8,5,0.8c1.7,0,3.4-0.3,5-0.8c-0.1,0.2-0.2,0.5-0.4,0.7c0,0.1-0.1,0.1-0.1,0.2c0,0,0,0,0,0
		C16.4,21.1,15.6,22.1,14.4,22.6z"/>
</g>
</svg>
