<?xml version="1.0" encoding="utf-8"?>
<!-- Generator: Adobe Illustrator 26.0.3, SVG Export Plug-In . SVG Version: 6.00 Build 0)  -->
<svg version="1.1" id="Layer_1" xmlns="http://www.w3.org/2000/svg" xmlns:xlink="http://www.w3.org/1999/xlink" x="0px" y="0px"
	 viewBox="0 0 150 150" style="enable-background:new 0 0 150 150;" xml:space="preserve">
<style type="text/css">
	.st0{fill:#FFFFFF;}
	.st1{fill:#FFCD00;}
</style>
<path class="st0" d="M5.1,12.5V125c0,5.4,3.4,10.2,8.5,11.9l37.6,12.5c1.4,0.4,2.7,0.6,4,0.6c6.9,0,12.5-5.6,12.5-12.5v-6.2h18.8
	c10.4,0,18.8-8.5,18.8-18.8V100c0-3.4-2.9-6.2-6.3-6.2s-6.2,2.8-6.2,6.2v12.6c0,3.4-2.9,6.2-6.3,6.2H67.8V25
	c0-5.4-3.4-10.2-8.5-11.9l-1.8-0.5h29.1c3.5,0,6.3,2.8,6.3,6.2V25c0,3.5,2.8,6.3,6.2,6.3s6.2-2.8,6.2-6.3v-6.2
	C105.3,8.4,96.9,0,86.5,0L19.3,0c-0.1,0-0.2,0.1-0.4,0.1C11.6-0.5,5.3,5.2,5.1,12.5z"/>
<path class="st1" d="M143.8,58.1l-25-25c-1.8-1.8-4.5-2.3-6.8-1.4c-2.3,1-3.9,3.3-3.9,5.8v18.8h-25c-3.4,0-6.2,2.8-6.2,6.2
	c0,3.5,2.8,6.3,6.2,6.3h25v18.8c0,2.5,1.5,4.8,3.9,5.8c2.3,1,5,0.4,6.8-1.4l25-25C146.3,64.5,146.3,60.5,143.8,58.1z"/>
</svg>
