<?xml version="1.0" encoding="utf-8"?>
<!-- Generator: Adobe Illustrator 25.1.0, SVG Export Plug-In . SVG Version: 6.00 Build 0)  -->
<svg version="1.1" id="Layer_1" xmlns="http://www.w3.org/2000/svg" xmlns:xlink="http://www.w3.org/1999/xlink" x="0px" y="0px"
	 viewBox="0 0 25 25" style="enable-background:new 0 0 25 25;" xml:space="preserve">
<style type="text/css">
	.st0{fill:#FFFFFF;}
</style>
<g>
	<path class="st0" d="M24.1,15.5l-1.7-1.7c-0.3-0.3-0.8-0.3-1.1,0l-1,1c-0.7-0.3-1.5-0.5-2.3-0.5c-2.8,0-5.1,2.3-5.1,5.1
		c0,2.8,2.3,5.1,5.1,5.1c2.8,0,5.1-2.3,5.1-5.1c0-0.6-0.1-1.1-0.3-1.6l1.2-1.2C24.4,16.3,24.4,15.8,24.1,15.5z M18,23.8
		c-2.4,0-4.3-1.9-4.3-4.3c0-2.4,1.9-4.3,4.3-4.3c1.1,0,2.2,0.4,3,1.2l0.4,0.5c0.6,0.7,1,1.7,1,2.7C22.4,21.8,20.4,23.8,18,23.8z
		 M22.7,16.9L22,16.2c-0.1-0.2-0.3-0.3-0.5-0.5l-0.5-0.5l0.8-0.8l1.7,1.7L22.7,16.9z"/>
	<path class="st0" d="M18.2,16.3C18.2,16.3,18.2,16.2,18.2,16.3C18.2,16.2,18.2,16.2,18.2,16.3c-0.1-0.1-0.1-0.1-0.1-0.1
		c0,0,0,0,0,0c0,0,0,0,0,0c0,0-0.1,0-0.1,0c0,0,0,0,0,0c0,0,0,0,0,0c0,0,0,0,0,0c0,0,0,0,0,0c0,0,0,0,0,0c0,0,0,0,0,0c0,0,0,0,0,0
		c0,0,0,0,0,0c0,0,0,0,0,0c0,0,0,0,0,0c0,0,0,0,0,0c0,0,0,0,0,0c0,0,0,0,0,0c0,0,0,0,0,0c0,0,0,0,0,0c0,0,0,0,0,0c0,0,0,0,0,0
		c0,0,0,0,0,0c0,0,0,0,0,0c0,0,0,0,0,0c0,0,0,0,0,0c0,0,0,0,0,0C18.2,16.4,18.2,16.4,18.2,16.3C18.2,16.4,18.2,16.3,18.2,16.3
		C18.2,16.3,18.2,16.3,18.2,16.3z"/>
	<path class="st0" d="M17,16.3c-0.5,0.2-0.9,0.4-1.2,0.8c-0.6,0.6-0.9,1.4-0.9,2.2c0,0.9,0.3,1.6,0.9,2.2c0,0,0.1,0.1,0.2,0.1
		c0.1,0,0.1,0,0.2-0.1c0.1-0.1,0.1-0.2,0-0.3c-0.5-0.5-0.8-1.2-0.8-1.9c0-0.7,0.3-1.4,0.8-1.9c0.3-0.3,0.7-0.5,1.1-0.7
		c0.1,0,0.2-0.2,0.2-0.3C17.3,16.3,17.1,16.2,17,16.3z"/>
	<path class="st0" d="M14,7.7c0,0,0.1,0.1,0.1,0.2l-0.5,2.8c-0.1,0.8,0.7,1.4,1.4,1l2.5-1.3c0.1,0,0.1,0,0.2,0l2.5,1.3
		c0.7,0.4,1.6-0.2,1.4-1l-0.5-2.8c0-0.1,0-0.1,0.1-0.2l2-2c0.6-0.6,0.3-1.6-0.5-1.7l-2.8-0.4c-0.1,0-0.1-0.1-0.2-0.1L18.5,1
		c-0.4-0.7-1.4-0.7-1.8,0l-1.2,2.5c0,0.1-0.1,0.1-0.2,0.1L12.6,4c-0.8,0.1-1.1,1.1-0.5,1.7L14,7.7z M12.7,4.8l2.8-0.4
		c0.3,0,0.6-0.2,0.7-0.5l1.2-2.5c0.1-0.1,0.3-0.1,0.4,0l1.2,2.5c0.1,0.3,0.4,0.5,0.7,0.5l2.8,0.4c0.2,0,0.2,0.2,0.1,0.3l-2,2
		c-0.2,0.2-0.3,0.6-0.3,0.9l0.5,2.8c0,0.2-0.1,0.3-0.3,0.2l-2.5-1.3c-0.3-0.2-0.6-0.2-0.9,0L14.7,11c-0.1,0.1-0.3,0-0.3-0.2L14.9,8
		c0.1-0.3-0.1-0.6-0.3-0.9l-2-2C12.4,5.1,12.5,4.9,12.7,4.8z"/>
	<path class="st0" d="M11.7,11.2l-2.8-0.4c-0.1,0-0.1-0.1-0.2-0.1L7.5,8.1c-0.4-0.7-1.4-0.7-1.8,0l-1.2,2.5c0,0.1-0.1,0.1-0.2,0.1
		l-2.8,0.4c-0.8,0.1-1.1,1.1-0.5,1.7l2,2C3,14.9,3,14.9,3,15l-0.5,2.8c-0.1,0.8,0.7,1.4,1.4,1l2.5-1.3c0.1,0,0.1,0,0.2,0l2.5,1.3
		c0.7,0.4,1.6-0.2,1.4-1L10.1,15c0-0.1,0-0.1,0.1-0.2l2-2C12.8,12.3,12.5,11.3,11.7,11.2z"/>
</g>
</svg>
