<?xml version="1.0" encoding="utf-8"?>
<!-- Generator: Adobe Illustrator 23.0.0, SVG Export Plug-In . SVG Version: 6.00 Build 0)  -->
<svg version="1.1" id="Capa_1" xmlns="http://www.w3.org/2000/svg" xmlns:xlink="http://www.w3.org/1999/xlink" x="0px" y="0px"
	 viewBox="0 0 150 150" style="enable-background:new 0 0 150 150;" xml:space="preserve">
<style type="text/css">
	.st0{fill:#FFFFFF;}
</style>
<g>
	<path class="st0" d="M211.2,32.4c-0.6,1-0.7,2.2-0.4,3.4l20.6,71.1V25.5l-17.6,4.8C212.7,30.6,211.7,31.3,211.2,32.4z"/>
	<path class="st0" d="M360,32.4c-0.6-1-1.5-1.8-2.7-2.1l-17.6-4.8v81.4l20.6-71.1C360.8,34.6,360.6,33.4,360,32.4L360,32.4z"/>
	<path class="st0" d="M293.5,62.6c-1.8,0-3.4,0.7-4.6,2c-0.8,0.9-2,1.4-3.3,1.4c-1.2,0-2.4-0.5-3.3-1.4c-1.2-1.3-2.8-2-4.6-2
		c-3.4,0-6.2,2.8-6.2,6.2c0,6.2,8.8,13.9,14.1,17.7c6.2-4.5,14.1-12,14.1-17.7C299.7,65.4,296.9,62.6,293.5,62.6L293.5,62.6z"/>
	<path class="st0" d="M326.6,9.1h-82c-2.4,0-4.4,2-4.4,4.4v123c0,2.4,2,4.4,4.4,4.4h82c2.4,0,4.4-2,4.4-4.4v-123
		C331,11,329,9.1,326.6,9.1z M253.4,26.7c-2.4,0-4.4-2-4.4-4.4s2-4.4,4.4-4.4c2.4,0,4.4,2,4.4,4.4S255.8,26.7,253.4,26.7z M288,95.5
		c-0.7,0.5-1.5,0.7-2.4,0.7c-0.9,0-1.6-0.2-2.4-0.7c-2.1-1.3-20.5-13.4-20.5-26.8c0-8.3,6.7-15,15-15c2.8,0,5.5,0.8,7.9,2.2
		c2.3-1.4,5.1-2.2,7.9-2.2c8.3,0,15,6.7,15,15C308.5,82.1,290.1,94.2,288,95.5z M317.8,132.1c-2.4,0-4.4-2-4.4-4.4s2-4.4,4.4-4.4
		s4.4,2,4.4,4.4C322.2,130.2,320.3,132.1,317.8,132.1z"/>
</g>
<g>
	<polygon class="st0" points="99.9,114.1 50.1,114.1 50.1,145.3 50.1,145.3 46.6,145.3 46.6,150 103.4,150 103.4,145.3 99.9,145.3 	
		"/>
	<path class="st0" d="M133,6.8c-2-3.9-6.1-6.4-10.5-6.6c-0.1,0-0.1,0-0.2,0h-0.2c-0.1,0-0.1,0-0.2,0c-5.2,0.2-9.6,3.7-11.2,8.4
		c0.2-2.9,0.3-5.7,0.3-8.6H39c0,2.9,0.1,5.8,0.3,8.6c-1.5-4.8-5.9-8.3-11.2-8.4c-0.1,0-0.1,0-0.2,0h-0.2c-0.1,0-0.1,0-0.2,0
		C23.2,0.3,19.1,2.9,17,6.8c-4.8,9.1,0.9,20.5,8.7,27.8l23.5,22.1c0.1,0.1,0.3,0.3,0.6,0.5c1,0.9,1.6,2.1,2,3.4
		c0,0.2,0.1,0.4,0.1,0.5c0,1.3-1,2.3-2.3,2.3c-0.7,0-1.2-0.3-1.5-0.6c-1.1-1-2.8-0.8-3.8,0.3c-1,1.1-0.8,2.8,0.3,3.8
		c1.4,1.2,3.2,1.9,5,1.9c4.2,0,7.7-3.5,7.7-7.7c0-0.3,0-0.6,0-0.8c3.1,3.6,6.6,6.8,10.5,9.4l0,0c2.2,1.7,3.3,4.1,3.3,6.4l0,0
		c0.2,0.1,0.4,0.1,0.6,0.2h0c0,2.2-1,4-2.5,5.3h0c-0.5,0.5-0.9,1.2-0.9,1.9c0,1.3,0.9,2.4,2.1,2.6c0.3,1.8,0.5,3.6,0.5,5.5
		c0,4.5-0.9,8.9-2.6,12.8v2.8c-4.7,0.8-9.1,2.5-13,4.9v1.9h39.4v-1.9c-3.9-2.4-8.3-4.1-13-4.9v-2.8c-1.7-3.9-2.6-8.3-2.6-12.8
		c0-1.9,0.2-3.7,0.5-5.5c1.2-0.2,2.1-1.3,2.1-2.6c0-0.8-0.3-1.5-0.9-1.9h0c-1.5-1.3-2.5-3.2-2.5-5.3h0c0.2-0.1,0.4-0.1,0.6-0.2l0,0
		c0-2.3,1.1-4.7,3.3-6.4l0,0c3.9-2.6,7.5-5.8,10.5-9.4c0,0.3,0,0.6,0,0.8c0,4.2,3.5,7.7,7.7,7.7c1.8,0,3.6-0.7,5-1.9
		c1.1-1,1.3-2.7,0.3-3.8c-1-1.1-2.7-1.3-3.8-0.3c-0.3,0.3-0.8,0.6-1.5,0.6c-1.3,0-2.3-1-2.3-2.3c0-0.2,0-0.4,0.1-0.5
		c0.4-1.3,1.1-2.5,2-3.4c0.3-0.2,0.4-0.4,0.6-0.5l23.5-22.1C132.1,27.3,137.8,15.8,133,6.8z M29.4,30.7C23.3,25,18.3,15.8,21.8,9.3
		c1.2-2.2,3.5-3.7,6.1-3.7c3.7,0.1,6.6,3.1,6.6,6.8c0,1.7-0.6,3.3-1.8,4.6c-1,1.1-0.9,2.8,0.2,3.8c1.1,1,2.8,0.9,3.8-0.2
		c1.7-1.9,2.8-4.3,3.1-6.8c1.5,12.4,4.9,24.2,10,35l0,0c0.3,0.7,0.6,1.3,1,2L29.4,30.7z M120.6,30.7l-21.4,20c0.3-0.7,0.7-1.3,1-2
		l0,0c5.1-10.9,8.5-22.6,10-35c0.3,2.5,1.4,4.9,3.1,6.8c1,1.1,2.7,1.2,3.8,0.2c1.1-1,1.2-2.7,0.2-3.8c-1.1-1.2-1.8-2.9-1.8-4.6
		c0-3.7,3-6.7,6.6-6.8c2.5,0,4.9,1.5,6.1,3.7C131.7,15.8,126.7,25,120.6,30.7z"/>
</g>
</svg>
