<svg xmlns="http://www.w3.org/2000/svg" width="33" height="32" fill="none" viewBox="0 0 33 32">
    <path fill="#26324D" d="M17.657.931V11.22c0 .074.03.146.083.199.052.052.124.082.199.082h10.287c.028 0 .055-.008.078-.024.023-.015.041-.037.052-.063.01-.025.013-.053.008-.08-.005-.028-.019-.053-.038-.073L17.897.831c-.02-.02-.045-.032-.072-.038-.027-.005-.056-.002-.081.008-.026.011-.048.03-.063.052-.016.023-.024.05-.024.078z"/>
    <path fill="#26324D" d="M15.97 13.75c-.15 0-.293-.06-.398-.165-.105-.105-.165-.248-.165-.398V.25H5.001c-.224 0-.438.089-.597.247-.158.158-.247.373-.247.597v29.812c0 .224.09.439.247.597.159.158.373.247.597.247h23.063c.223 0 .438-.089.596-.247.158-.158.247-.373.247-.597V13.75H15.97zM23.282 25h-13.5v-2.25h13.5V25zm0-5.625h-13.5v-2.25h13.5v2.25z"/>
</svg>
