<svg id="Layer_1" data-name="Layer 1" xmlns="http://www.w3.org/2000/svg" viewBox="0 0 23 23.78"><defs><style>.cls-1{fill:#172335;}.cls-2{fill:#ea2127;}.cls-3{fill:#fff;}</style></defs><title>icon-deposit</title><path class="cls-1" d="M19.06,5.68H2.39A1.89,1.89,0,0,0,.5,7.57V21.76a1.89,1.89,0,0,0,1.89,1.89H20.7a1.89,1.89,0,0,0,1.89-1.89V19.1l-7.27.07a1,1,0,0,1-1.06-1V15.18a1,1,0,0,1,1-1l7.29,0v-2.6a1.68,1.68,0,0,0-1.7-1.68L4,9.94S2.63,9.88,2.63,8.7,4,7.51,4,7.51l17,.06A1.89,1.89,0,0,0,19.06,5.68Z" transform="translate(-0.5 0.14)"/><path class="cls-1" d="M22.69,14.42H15.44a.81.81,0,0,0-.81.81V18a.81.81,0,0,0,.81.81h7.25A.81.81,0,0,0,23.5,18V15.23A.81.81,0,0,0,22.69,14.42Zm-6,3.28a1.08,1.08,0,1,1,1.07-1.08A1.08,1.08,0,0,1,16.72,17.7Z" transform="translate(-0.5 0.14)"/><polygon class="cls-2" points="4.18 3.01 7.09 3.01 7.09 0.24 15 0.24 15 3.01 17.91 3.01 11.04 9.92 4.18 3.01"/><path class="cls-3" d="M15.25.35V3.12h2.57L11.54,9.44,5.27,3.12H7.83V.35h7.42m.49-.49H7.35V2.63H4.09l.83.84L11.2,9.78l.34.35.35-.35,6.28-6.31L19,2.63H15.74V-.14Z" transform="translate(-0.5 0.14)"/><polygon class="cls-2" points="14.75 3.26 14.75 0.49 7.33 0.49 7.33 3.26 4.77 3.26 11.04 9.57 17.32 3.26 14.75 3.26"/></svg>