<svg width="32" height="33" viewBox="0 0 32 33" fill="none" xmlns="http://www.w3.org/2000/svg">
<path opacity="0.6" d="M26.6666 24.0833C26.6666 21.1367 21.8933 18.75 15.9999 18.75C10.1066 18.75 5.33325 21.1367 5.33325 24.0833V26.75H26.6666V24.0833Z" fill="white" fill-opacity="0.9"/>
<path opacity="0.5" d="M19.771 6.97909C18.7709 5.9789 17.4144 5.41699 15.9998 5.41699C14.5853 5.41699 13.2288 5.9789 12.2286 6.97909C11.2284 7.97929 10.6665 9.33583 10.6665 10.7503C10.6665 12.1648 11.2284 13.5214 12.2286 14.5215C13.2288 15.5218 14.5853 16.0837 15.9998 16.0837C17.4144 16.0837 18.7709 15.5218 19.771 14.5215C20.7713 13.5214 21.3332 12.1648 21.3332 10.7503C21.3332 9.33583 20.7713 7.97929 19.771 6.97909Z" fill="white" fill-opacity="0.9"/>
</svg>
