<svg width="12" height="8" viewBox="0 0 12 8" fill="none" xmlns="http://www.w3.org/2000/svg">
<path d="M6.71567 7.29392L11.7157 2.29392C11.8089 2.20068 11.8829 2.09 11.9333 1.96817C11.9838 1.84635 12.0098 1.71578 12.0098 1.58392C12.0098 1.31762 11.904 1.06223 11.7157 0.873923C11.6224 0.780685 11.5117 0.706724 11.3899 0.656263C11.2681 0.605803 11.1375 0.579832 11.0057 0.579832C10.7394 0.579832 10.484 0.68562 10.2957 0.873923L6.00567 5.17392L1.71567 0.873923C1.62271 0.780194 1.51211 0.7058 1.39025 0.655032C1.26839 0.604263 1.13769 0.578125 1.00567 0.578125C0.873663 0.578125 0.742957 0.604263 0.621098 0.655032C0.499238 0.7058 0.388638 0.780194 0.295675 0.873923C0.201947 0.966886 0.127551 1.07749 0.0767822 1.19935C0.0260133 1.32121 -0.000124016 1.45191 -0.000124022 1.58392C-0.000124027 1.71593 0.0260133 1.84664 0.0767822 1.9685C0.127551 2.09036 0.201947 2.20096 0.295675 2.29392L5.29567 7.29392C5.38864 7.38765 5.49924 7.46205 5.6211 7.51282C5.74296 7.56358 5.87366 7.58972 6.00567 7.58972C6.13769 7.58972 6.26839 7.56358 6.39025 7.51282C6.51211 7.46205 6.62271 7.38765 6.71567 7.29392Z" fill="#B0ACD3"/>
</svg>
