<svg width="40" height="40" viewBox="0 0 40 40" fill="none" xmlns="http://www.w3.org/2000/svg">
<rect width="40" height="40" rx="20" fill="url(#paint0_linear_160_9682)"/>
<path d="M23.4721 11.12C24.1903 10.4021 25.1643 9.99884 26.1798 9.99902C27.1953 9.99921 28.1691 10.4028 28.8871 11.121C29.605 11.8392 30.0083 12.8132 30.0081 13.8287C30.0079 14.8442 29.6043 15.8181 28.8861 16.536L28.4181 17.004L23.0041 11.59L23.4721 11.12ZM21.5901 13.004L11.3001 23.292C11.1612 23.4315 11.0666 23.6089 11.0281 23.802L10.0201 28.802C9.9872 28.9636 9.99479 29.1308 10.0422 29.2888C10.0896 29.4467 10.1753 29.5905 10.2917 29.7073C10.4081 29.8241 10.5516 29.9103 10.7094 29.9583C10.8672 30.0062 11.0344 30.0143 11.1961 29.982L16.2041 28.982C16.3974 28.943 16.5748 28.8476 16.7141 28.708L27.0041 18.418L21.5901 13.004Z" fill="white" fill-opacity="0.9"/>
<defs>
<linearGradient id="paint0_linear_160_9682" x1="20" y1="0" x2="20" y2="40" gradientUnits="userSpaceOnUse">
<stop stop-color="#F7D99D"/>
<stop offset="1" stop-color="#A48155"/>
</linearGradient>
</defs>
</svg>
