<svg width="24" height="24" viewBox="0 0 24 24" fill="currentColor" xmlns="http://www.w3.org/2000/svg">
<g clip-path="url(#clip0_1257_88)">
<path fill-rule="evenodd" clip-rule="evenodd" d="M12.96 0.565715C12.7495 0.509661 12.5254 0.539358 12.3367 0.648296C12.1481 0.757234 12.0104 0.936523 11.9537 1.14686L7.95427 16.0749C7.89828 16.2856 7.92821 16.5099 8.03749 16.6986C8.14678 16.8873 8.32648 17.0249 8.53713 17.0811L18.9651 19.8754C19.1759 19.9314 19.4002 19.9015 19.5889 19.7922C19.7775 19.6829 19.9151 19.5032 19.9714 19.2926L23.9743 4.36629C24.0023 4.26183 24.0094 4.15288 23.9952 4.04567C23.9811 3.93846 23.9459 3.83509 23.8918 3.74147C23.8376 3.64785 23.7656 3.56583 23.6797 3.50008C23.5939 3.43433 23.4959 3.38614 23.3914 3.35829L12.96 0.565715ZM5.88513 15.5194L8.62113 5.31086L0.61027 7.45543C0.505779 7.48329 0.407804 7.53147 0.321947 7.59722C0.23609 7.66297 0.164036 7.745 0.109904 7.83862C0.0557713 7.93223 0.020623 8.0356 0.00646864 8.14281C-0.00768576 8.25002 -0.000568682 8.35897 0.0274129 8.46343L4.03027 23.3897C4.08655 23.6004 4.22414 23.7801 4.41282 23.8894C4.60149 23.9986 4.82583 24.0286 5.03656 23.9726L15.4663 21.1783C15.4795 21.1746 15.4927 21.1706 15.5057 21.1663L7.97998 19.152C7.60362 19.0512 7.25081 18.8771 6.94172 18.6399C6.63264 18.4026 6.37333 18.1068 6.17863 17.7693C5.98392 17.4318 5.85764 17.0592 5.80698 16.6729C5.75633 16.2865 5.7823 15.894 5.88341 15.5177L5.88513 15.5194Z" fill-opacity="0.7"/>
</g>
<defs>
<clipPath id="clip0_1257_88">
<rect width="24" height="24" />
</clipPath>
</defs>
</svg>
