<svg width="24" height="24" viewBox="0 0 24 24" fill="none" xmlns="http://www.w3.org/2000/svg">
<path d="M2.63986 12.4799L7.43986 15.4799C7.67986 15.5999 8.03986 15.5999 8.27986 15.2399C8.27986 15.1199 8.39986 14.9999 8.39986 14.8799V8.8799C8.39986 8.7599 8.15986 8.3999 7.79986 8.3999C7.67986 8.3999 7.55986 8.3999 7.43986 8.5199L2.63986 11.5199C2.39986 11.6399 2.27986 12.1199 2.39986 12.3599C2.51986 12.3599 2.63986 12.4799 2.63986 12.4799ZM3.59986 4.7999H20.3999C21.1199 4.7999 21.5999 4.3199 21.5999 3.5999C21.5999 2.8799 21.1199 2.3999 20.3999 2.3999H3.59986C2.87986 2.3999 2.39986 2.8799 2.39986 3.5999C2.39986 4.3199 2.99986 4.7999 3.59986 4.7999ZM11.9999 13.1999H20.3999C21.1199 13.1999 21.5999 12.7199 21.5999 11.9999C21.5999 11.2799 21.1199 10.7999 20.3999 10.7999H11.9999C11.2799 10.7999 10.7999 11.2799 10.7999 11.9999C10.7999 12.7199 11.3999 13.1999 11.9999 13.1999ZM3.59986 21.5999H20.3999C21.1199 21.5999 21.5999 21.1199 21.5999 20.3999C21.5999 19.6799 21.1199 19.1999 20.3999 19.1999H3.59986C2.87986 19.1999 2.39986 19.6799 2.39986 20.3999C2.39986 21.1199 2.99986 21.5999 3.59986 21.5999Z" fill="url(#paint0_linear_143_7857)"/>
<defs>
<linearGradient id="paint0_linear_143_7857" x1="11.9763" y1="2.3999" x2="11.9763" y2="21.5999" gradientUnits="userSpaceOnUse">
<stop stop-color="#F7D99D"/>
<stop offset="1" stop-color="#A48155"/>
</linearGradient>
</defs>
</svg>
