<svg width="20" height="21" viewBox="0 0 20 21" fill="none" xmlns="http://www.w3.org/2000/svg">
<g clip-path="url(#clip0_143_833)">
<g opacity="0.6">
<path d="M0 1.91992C0 1.433 0.141076 0.966023 0.392193 0.621718C0.64331 0.277413 0.983898 0.0839844 1.33903 0.0839844L4.66097 0.0839844C5.0161 0.0839844 5.35669 0.277413 5.60781 0.621718C5.85892 0.966023 6 1.433 6 1.91992C6 2.40684 5.85892 2.87382 5.60781 3.21813C5.35669 3.56243 5.0161 3.75586 4.66097 3.75586H2.67806V16.4121H4.66097C5.0161 16.4121 5.35669 16.6055 5.60781 16.9498C5.85892 17.2941 6 17.7611 6 18.248C6 18.735 5.85892 19.2019 5.60781 19.5462C5.35669 19.8906 5.0161 20.084 4.66097 20.084H1.33903C0.983898 20.084 0.64331 19.8906 0.392193 19.5462C0.141076 19.2019 0 18.735 0 18.248V1.91992Z" fill="white" fill-opacity="0.9"/>
</g>
<g opacity="0.4">
<path d="M13.7896 4.53251C13.6393 4.39048 13.461 4.27777 13.2646 4.20081C13.0683 4.12385 12.8578 4.08415 12.6452 4.08398C12.4326 4.08382 12.222 4.12318 12.0255 4.19982C11.8291 4.27647 11.6505 4.38889 11.5 4.53068C11.3496 4.67247 11.2302 4.84085 11.1486 5.0262C11.0671 5.21155 11.0251 5.41024 11.0249 5.61093C11.0247 5.81162 11.0664 6.01038 11.1476 6.19585C11.2288 6.38133 11.3479 6.5499 11.4981 6.69193L11.5 6.69375L13.4726 8.55579H6.61894C6.18957 8.55579 5.77779 8.7168 5.47418 9.0034C5.17057 9.29 5 9.67871 5 10.084C5 10.4893 5.17057 10.878 5.47418 11.1646C5.77779 11.4512 6.18957 11.6123 6.61894 11.6123H13.4726L11.5 13.4743C11.1962 13.7607 11.0253 14.1493 11.025 14.5546C11.0246 14.9599 11.1949 15.3487 11.4983 15.6355C11.8016 15.9224 12.2133 16.0837 12.6427 16.084C13.072 16.0843 13.4839 15.9236 13.7878 15.6372L13.7896 15.6355L18.5258 11.1646C18.8294 10.878 19 10.4893 19 10.084C19 9.67871 18.8294 9.29 18.5258 9.0034L13.7896 4.53251Z" fill="white" fill-opacity="0.9"/>
</g>
</g>
<defs>
<clipPath id="clip0_143_833">
<rect width="20" height="20" fill="white" transform="translate(0 0.0839844)"/>
</clipPath>
</defs>
</svg>
