<svg width="40" height="40" viewBox="0 0 40 40" fill="none" xmlns="http://www.w3.org/2000/svg">
<path d="M20 19.3333C20.3667 19.3333 20.6807 19.2029 20.942 18.942C21.2033 18.6811 21.3338 18.3671 21.3333 18C21.3333 17.6333 21.2029 17.3196 20.942 17.0587C20.6811 16.7978 20.3671 16.6671 20 16.6667C19.6333 16.6667 19.3196 16.7973 19.0587 17.0587C18.7978 17.32 18.6671 17.6338 18.6667 18C18.6667 18.3667 18.7973 18.6807 19.0587 18.942C19.32 19.2033 19.6338 19.3338 20 19.3333ZM16.6667 19.2V16.6667H15.3333V17.3333C15.3333 17.7556 15.4556 18.1362 15.7 18.4753C15.9444 18.8144 16.2667 19.056 16.6667 19.2ZM23.3333 19.2C23.7333 19.0556 24.0556 18.8138 24.3 18.4747C24.5444 18.1356 24.6667 17.7551 24.6667 17.3333V16.6667H23.3333V19.2ZM19.3333 24.6667V22.6C18.7889 22.4778 18.3029 22.2473 17.8753 21.9087C17.4478 21.57 17.1338 21.1449 16.9333 20.6333C16.1 20.5333 15.4029 20.1696 14.842 19.542C14.2811 18.9144 14.0004 18.1782 14 17.3333V16.6667C14 16.3 14.1307 15.9862 14.392 15.7253C14.6533 15.4644 14.9671 15.3338 15.3333 15.3333H16.6667C16.6667 14.9667 16.7973 14.6529 17.0587 14.392C17.32 14.1311 17.6338 14.0004 18 14H22C22.3667 14 22.6807 14.1307 22.942 14.392C23.2033 14.6533 23.3338 14.9671 23.3333 15.3333H24.6667C25.0333 15.3333 25.3473 15.464 25.6087 15.7253C25.87 15.9867 26.0004 16.3004 26 16.6667V17.3333C26 18.1778 25.7193 18.914 25.158 19.542C24.5967 20.17 23.8996 20.5338 23.0667 20.6333C22.8667 21.1444 22.5529 21.5696 22.1253 21.9087C21.6978 22.2478 21.2116 22.4782 20.6667 22.6V24.6667H22.6667C22.8556 24.6667 23.014 24.7307 23.142 24.8587C23.27 24.9867 23.3338 25.1449 23.3333 25.3333C23.3333 25.5222 23.2693 25.6807 23.1413 25.8087C23.0133 25.9367 22.8551 26.0004 22.6667 26H17.3333C17.1444 26 16.9862 25.936 16.8587 25.808C16.7311 25.68 16.6671 25.5218 16.6667 25.3333C16.6667 25.1444 16.7307 24.9862 16.8587 24.8587C16.9867 24.7311 17.1449 24.6671 17.3333 24.6667H19.3333Z" fill="black"/>
<circle cx="20" cy="20" r="20" fill="#2F80ED"/>
<path d="M28.6667 15.6666L20 21.0833L11.3333 15.6666V13.5L20 18.9166L28.6667 13.5M28.6667 11.3333H11.3333C10.1308 11.3333 9.16666 12.2975 9.16666 13.5V26.5C9.16666 27.0746 9.39493 27.6257 9.80126 28.032C10.2076 28.4384 10.7587 28.6666 11.3333 28.6666H28.6667C29.2413 28.6666 29.7924 28.4384 30.1987 28.032C30.6051 27.6257 30.8333 27.0746 30.8333 26.5V13.5C30.8333 12.9253 30.6051 12.3742 30.1987 11.9679C29.7924 11.5616 29.2413 11.3333 28.6667 11.3333Z" fill="white"/>
</svg>
