<svg width="19" height="18" viewBox="0 0 19 18" fill="none" xmlns="http://www.w3.org/2000/svg">
<path d="M17 3H8.75C8.33579 3 8 3.33579 8 3.75C8 4.16421 8.33579 4.5 8.75 4.5H17C17.4142 4.5 17.75 4.16421 17.75 3.75C17.75 3.33579 17.4142 3 17 3Z" fill="#0A0A0A"/>
<path d="M17 13.5H8.75C8.33579 13.5 8 13.8358 8 14.25C8 14.6642 8.33579 15 8.75 15H17C17.4142 15 17.75 14.6642 17.75 14.25C17.75 13.8358 17.4142 13.5 17 13.5Z" fill="#0A0A0A"/>
<path opacity="0.7" fill-rule="evenodd" clip-rule="evenodd" d="M6.08221 11.4747C6.47273 11.8653 6.47273 12.4984 6.08221 12.889C5.69168 13.2795 5.05852 13.2795 4.66799 12.889L1.48601 9.70696C1.09549 9.31644 1.09549 8.68327 1.48601 8.29275L4.66799 5.11077C5.05852 4.72024 5.69168 4.72024 6.08221 5.11077C6.47273 5.50129 6.47273 6.13446 6.08221 6.52498L4.35733 8.24986H17.0001C17.4143 8.24986 17.7501 8.58564 17.7501 8.99986C17.7501 9.41407 17.4143 9.74986 17.0001 9.74986H4.35733L6.08221 11.4747Z" fill="#0A0A0A"/>
</svg>
