<svg width="87" height="87" viewBox="0 0 87 87" fill="none" xmlns="http://www.w3.org/2000/svg">
<path d="M43.5002 0.583008C19.8102 0.583008 0.583496 19.8097 0.583496 43.4997C0.583496 67.1897 19.8102 86.4164 43.5002 86.4164C67.1902 86.4164 86.4168 67.1897 86.4168 43.4997C86.4168 19.8097 67.1902 0.583008 43.5002 0.583008ZM43.5002 17.7497C51.7831 17.7497 58.521 24.4876 58.521 32.7705C58.521 41.0534 51.7831 47.7913 43.5002 47.7913C35.2172 47.7913 28.4793 41.0534 28.4793 32.7705C28.4793 24.4876 35.2172 17.7497 43.5002 17.7497ZM43.5002 77.833C34.7881 77.833 24.4881 74.3139 17.1493 65.473C24.6676 59.5772 33.9459 56.373 43.5002 56.373C53.0545 56.373 62.3328 59.5772 69.851 65.473C62.5122 74.3139 52.2122 77.833 43.5002 77.833Z" fill="white" fill-opacity="0.9"/>
</svg>
