<svg width="24" height="24" viewBox="0 0 24 24" fill="rgb(109, 118, 147)" xmlns="http://www.w3.org/2000/svg">
<g id="mingcute:vip-1-fill" clip-path="url(#clip0_89_190)">
<g id="Group">
<path id="Vector" fill-rule="evenodd" clip-rule="evenodd" d="M17.4221 3C17.7468 2.99997 18.0666 3.07898 18.3539 3.23021C18.6412 3.38144 18.8873 3.60034 19.0711 3.868L19.1581 4.008L22.4921 9.84C22.6957 10.196 22.7849 10.6059 22.7477 11.0143C22.7105 11.4226 22.5486 11.8097 22.2841 12.123L22.1701 12.246L12.8871 21.529C12.6694 21.7467 12.3789 21.8764 12.0715 21.8931C11.7641 21.9099 11.4613 21.8127 11.2211 21.62L11.1191 21.53L1.8361 12.246C1.54613 11.9562 1.35224 11.5842 1.28069 11.1805C1.20914 10.7768 1.2634 10.3608 1.4361 9.989L1.5141 9.839L4.8471 4.007C5.00819 3.72508 5.23549 3.48661 5.50938 3.31221C5.78327 3.13781 6.0955 3.03271 6.4191 3.006L6.5821 3H17.4221ZM7.2951 9.293C7.10763 9.48053 7.00231 9.73484 7.00231 10C7.00231 10.2652 7.10763 10.5195 7.2951 10.707L11.1181 14.53C11.2342 14.6461 11.372 14.7382 11.5237 14.8011C11.6753 14.8639 11.8379 14.8962 12.0021 14.8962C12.1663 14.8962 12.3289 14.8639 12.4805 14.8011C12.6322 14.7382 12.77 14.6461 12.8861 14.53L16.7091 10.707C16.8046 10.6148 16.8808 10.5044 16.9332 10.3824C16.9856 10.2604 17.0132 10.1292 17.0144 9.9964C17.0155 9.86362 16.9902 9.73194 16.9399 9.60905C16.8896 9.48615 16.8154 9.3745 16.7215 9.28061C16.6276 9.18671 16.5159 9.11246 16.3931 9.06218C16.2702 9.0119 16.1385 8.9866 16.0057 8.98775C15.8729 8.9889 15.7417 9.01649 15.6197 9.0689C15.4977 9.12131 15.3873 9.19749 15.2951 9.293L12.0021 12.586L8.7091 9.293C8.52157 9.10553 8.26726 9.00021 8.0021 9.00021C7.73694 9.00021 7.48263 9.10553 7.2951 9.293Z" fill-opacity="0.7"/>
</g>
</g>
<defs>
<clipPath id="clip0_89_190">
<rect width="24" height="24" />
</clipPath>
</defs>
</svg>
