<svg width="34" height="35" viewBox="0 0 34 35" fill="none" xmlns="http://www.w3.org/2000/svg">
<g clip-path="url(#clip0_10695_4748)">
<path d="M17 34.9736C26.3888 34.9736 34 27.3625 34 17.9736C34 8.58479 26.3888 0.973633 17 0.973633C7.61116 0.973633 0 8.58479 0 17.9736C0 27.3625 7.61116 34.9736 17 34.9736Z" fill="url(#paint0_linear_10695_4748)"/>
<path d="M17 34.9736C26.3888 34.9736 34 27.3625 34 17.9736C34 8.58479 26.3888 0.973633 17 0.973633C7.61116 0.973633 0 8.58479 0 17.9736C0 27.3625 7.61116 34.9736 17 34.9736Z" fill="url(#paint1_radial_10695_4748)"/>
<path d="M28.1847 19.5509C27.5068 19.5615 26.8289 19.5712 26.1511 19.5799C26.1149 21.5938 26.0528 23.6078 25.9648 25.6218C26.6289 25.6006 27.293 25.5771 27.957 25.5513C28.5066 25.5295 28.9793 25.0643 29.0089 24.5147C29.0795 23.1866 29.1347 21.8585 29.1745 20.5303C29.1913 19.9807 28.7464 19.5425 28.1847 19.5509Z" fill="url(#paint2_linear_10695_4748)"/>
<path d="M27.0075 24.5849C27.0663 23.2466 27.1123 21.9084 27.1455 20.5701C27.1595 20.0162 26.7129 19.5734 26.1512 19.5802C25.1344 19.5932 24.1176 19.6041 23.1008 19.6127C22.072 20.6361 21.0448 21.6637 20.0259 22.6906C21.0242 23.7025 22.0099 24.7076 22.9766 25.7013C23.9727 25.6802 24.9688 25.6538 25.9649 25.6221C26.5145 25.6043 26.9827 25.1388 27.0075 24.5849Z" fill="url(#paint3_linear_10695_4748)"/>
<path d="M5.81544 19.5509C5.25371 19.5426 4.80886 19.9807 4.82566 20.5304C4.8655 21.8585 4.92068 23.1866 4.99127 24.5148C5.02096 25.0643 5.49357 25.5296 6.04315 25.5514C11.6877 25.7709 17.3322 25.8208 22.9767 25.701C23.0354 23.6715 23.0768 21.642 23.1009 19.6124C17.3391 19.6616 11.5773 19.6411 5.81544 19.5509Z" fill="url(#paint4_linear_10695_4748)"/>
<path d="M17 4.96973C15.0841 4.97039 13.491 6.59303 13.4641 8.55739C13.4491 9.91586 13.4386 11.2744 13.4326 12.6329C14.1122 12.6308 14.7916 12.6292 15.4712 12.6282C15.4737 11.2674 15.4783 9.90663 15.4846 8.54577C15.4895 7.70048 16.1684 7.01165 17 7.01165C17.8316 7.01165 18.5106 7.70048 18.5154 8.54577C18.5062 6.57702 18.4919 4.97165 17 4.96973Z" fill="url(#paint5_linear_10695_4748)"/>
<path d="M17 4.96973C17.8211 4.96986 18.5039 6.57649 18.5154 8.54584C18.5218 9.90663 18.5263 11.2675 18.5289 12.6283C19.2084 12.6292 19.8879 12.6308 20.5674 12.6329C20.5614 11.2745 20.5509 9.91593 20.5359 8.55746C20.509 6.59296 18.9159 4.97032 17 4.96973Z" fill="url(#paint6_linear_10695_4748)"/>
<path d="M6.9142 22.5773C6.93359 23.1312 7.40148 23.5936 7.95598 23.6079C8.5106 23.6223 8.94616 23.18 8.93135 22.622C8.91641 22.064 8.45303 21.6043 7.89389 21.5939C7.33481 21.5836 6.89474 22.0233 6.9142 22.5773Z" fill="url(#paint7_linear_10695_4748)"/>
<path d="M13.4447 10.595C12.884 10.5983 12.4246 11.0573 12.4199 11.619C12.407 13.2696 12.4027 14.9202 12.4068 16.5708C12.4082 17.1326 12.8672 17.5898 13.4303 17.5913C14.1102 17.593 14.7901 17.5943 15.47 17.5951C15.4664 15.2591 15.4685 12.923 15.4762 10.5869C14.799 10.5885 14.1219 10.5912 13.4447 10.595Z" fill="url(#paint8_linear_10695_4748)"/>
<path d="M10.9485 22.6564C10.9602 23.2166 11.421 23.6788 11.9755 23.6868C12.5301 23.6948 12.9729 23.2438 12.9657 22.6813C12.9584 22.1187 12.5002 21.6592 11.941 21.6534C11.3819 21.6479 10.9367 22.0961 10.9485 22.6564Z" fill="url(#paint9_linear_10695_4748)"/>
<path d="M14.9829 22.6968C14.9871 23.2602 15.4406 23.7197 15.9952 23.7213C16.5498 23.7229 16.9998 23.2655 17.0002 22.7017C17.0005 22.1378 16.5475 21.6809 15.9883 21.6797C15.4293 21.6786 14.9788 22.1332 14.9829 22.6968Z" fill="url(#paint10_linear_10695_4748)"/>
<path d="M19.0171 22.6966C19.0137 23.2602 19.46 23.7146 20.0147 23.7098C20.5692 23.7049 21.0264 23.2439 21.0343 22.6817C21.0423 22.1194 20.5945 21.6676 20.0354 21.6709C19.4762 21.6743 19.0206 22.1329 19.0171 22.6966Z" fill="url(#paint11_linear_10695_4748)"/>
<path d="M17.0249 10.5859C16.5086 10.5859 15.9924 10.5865 15.4761 10.5877C14.9154 10.5892 14.4581 11.0477 14.4554 11.6109C14.4482 13.2654 14.4458 14.9199 14.4481 16.5745C14.449 17.1376 14.9069 17.5951 15.47 17.5958C17.1697 17.5977 18.8695 17.5964 20.5692 17.5921C21.1324 17.5904 21.5912 17.1333 21.5928 16.5715C21.5935 16.2683 21.594 15.965 21.5942 15.6618C20.0721 13.976 18.5402 12.2783 17.0249 10.5859Z" fill="url(#paint12_linear_10695_4748)"/>
<path d="M21.5942 15.6618C21.595 14.3145 21.5901 12.9671 21.5796 11.6198C21.5751 11.0581 21.1156 10.5992 20.5549 10.5958C19.3782 10.5893 18.2016 10.586 17.0249 10.5859C17.0232 13.2262 19.0254 15.3973 21.5942 15.6618Z" fill="url(#paint13_linear_10695_4748)"/>
</g>
<defs>
<linearGradient id="paint0_linear_10695_4748" x1="4.97921" y1="29.9944" x2="29.0209" y2="5.95277" gradientUnits="userSpaceOnUse">
<stop stop-color="#364AFF"/>
<stop offset="1" stop-color="#FC54FF"/>
</linearGradient>
<radialGradient id="paint1_radial_10695_4748" cx="0" cy="0" r="1" gradientUnits="userSpaceOnUse" gradientTransform="translate(16.7446 14.2884) scale(20.8474)">
<stop stop-color="#8D00DB" stop-opacity="0.66"/>
<stop offset="0.0401" stop-color="#9606DE" stop-opacity="0.634"/>
<stop offset="0.2345" stop-color="#BA22EA" stop-opacity="0.505"/>
<stop offset="0.4294" stop-color="#D738F3" stop-opacity="0.377"/>
<stop offset="0.6228" stop-color="#EC48FA" stop-opacity="0.249"/>
<stop offset="0.8138" stop-color="#F851FE" stop-opacity="0.123"/>
<stop offset="1" stop-color="#FC54FF" stop-opacity="0"/>
</radialGradient>
<linearGradient id="paint2_linear_10695_4748" x1="16.4068" y1="33.4132" x2="29.0789" y2="20.741" gradientUnits="userSpaceOnUse">
<stop stop-color="#B31DE7"/>
<stop offset="1" stop-color="#FDA0FF"/>
</linearGradient>
<linearGradient id="paint3_linear_10695_4748" x1="14.3473" y1="33.0015" x2="29.4906" y2="17.8581" gradientUnits="userSpaceOnUse">
<stop stop-color="#B31DE7"/>
<stop offset="1" stop-color="#FDA0FF"/>
</linearGradient>
<linearGradient id="paint4_linear_10695_4748" x1="-8.53528" y1="45.3417" x2="22.7651" y2="14.0413" gradientUnits="userSpaceOnUse">
<stop stop-color="#FDA0FF"/>
<stop offset="1" stop-color="white"/>
</linearGradient>
<linearGradient id="paint5_linear_10695_4748" x1="8.62388" y1="15.6328" x2="21.6776" y2="2.71889" gradientUnits="userSpaceOnUse">
<stop stop-color="#FDA0FF"/>
<stop offset="1" stop-color="white"/>
</linearGradient>
<linearGradient id="paint6_linear_10695_4748" x1="9.12229" y1="18.4627" x2="20.4205" y2="7.16459" gradientUnits="userSpaceOnUse">
<stop stop-color="#FDA0FF"/>
<stop offset="1" stop-color="white"/>
</linearGradient>
<linearGradient id="paint7_linear_10695_4748" x1="6.78258" y1="23.7414" x2="10.4072" y2="20.1168" gradientUnits="userSpaceOnUse">
<stop stop-color="#FC54FF"/>
<stop offset="0.4062" stop-color="#FD9BFF"/>
<stop offset="1" stop-color="white"/>
</linearGradient>
<linearGradient id="paint8_linear_10695_4748" x1="10.8173" y1="17.5259" x2="26.2881" y2="2.05504" gradientUnits="userSpaceOnUse">
<stop stop-color="#FC54FF"/>
<stop offset="0.4062" stop-color="#FD9BFF"/>
<stop offset="1" stop-color="white"/>
</linearGradient>
<linearGradient id="paint9_linear_10695_4748" x1="10.7962" y1="23.8302" x2="14.4825" y2="20.1438" gradientUnits="userSpaceOnUse">
<stop stop-color="#FC54FF"/>
<stop offset="0.4062" stop-color="#FD9BFF"/>
<stop offset="1" stop-color="white"/>
</linearGradient>
<linearGradient id="paint10_linear_10695_4748" x1="14.8133" y1="23.8767" x2="18.5512" y2="20.1388" gradientUnits="userSpaceOnUse">
<stop stop-color="#FC54FF"/>
<stop offset="0.4062" stop-color="#FD9BFF"/>
<stop offset="1" stop-color="white"/>
</linearGradient>
<linearGradient id="paint11_linear_10695_4748" x1="18.8332" y1="23.8797" x2="22.6125" y2="20.1004" gradientUnits="userSpaceOnUse">
<stop stop-color="#FC54FF"/>
<stop offset="0.4062" stop-color="#FD9BFF"/>
<stop offset="1" stop-color="white"/>
</linearGradient>
<linearGradient id="paint12_linear_10695_4748" x1="11.6533" y1="20.4611" x2="26.3747" y2="5.73967" gradientUnits="userSpaceOnUse">
<stop stop-color="#FC54FF"/>
<stop offset="0.4062" stop-color="#FD9BFF"/>
<stop offset="1" stop-color="white"/>
</linearGradient>
<linearGradient id="paint13_linear_10695_4748" x1="11.379" y1="21.0545" x2="24.7266" y2="7.70682" gradientUnits="userSpaceOnUse">
<stop stop-color="#FC54FF"/>
<stop offset="0.4062" stop-color="#FD9BFF"/>
<stop offset="1" stop-color="white"/>
</linearGradient>
<clipPath id="clip0_10695_4748">
<rect width="34" height="34" fill="white" transform="translate(0 0.973633)"/>
</clipPath>
</defs>
</svg>
