<svg width="19" height="18" viewBox="0 0 19 18" fill="none" xmlns="http://www.w3.org/2000/svg">
<path d="M17 3H8.75C8.33579 3 8 3.33579 8 3.75C8 4.16421 8.33579 4.5 8.75 4.5H17C17.4142 4.5 17.75 4.16421 17.75 3.75C17.75 3.33579 17.4142 3 17 3Z" fill="white"/>
<path d="M17 13.5H8.75C8.33579 13.5 8 13.8358 8 14.25C8 14.6642 8.33579 15 8.75 15H17C17.4142 15 17.75 14.6642 17.75 14.25C17.75 13.8358 17.4142 13.5 17 13.5Z" fill="white"/>
<path fill-rule="evenodd" clip-rule="evenodd" d="M6.08208 11.4752C6.4726 11.8658 6.4726 12.4989 6.08208 12.8895C5.69155 13.28 5.05839 13.28 4.66786 12.8895L1.48588 9.70745C1.09536 9.31693 1.09536 8.68376 1.48588 8.29324L4.66786 5.11126C5.05839 4.72073 5.69155 4.72073 6.08208 5.11126C6.4726 5.50178 6.4726 6.13495 6.08208 6.52547L4.3572 8.25035H17C17.4142 8.25035 17.75 8.58613 17.75 9.00035C17.75 9.41456 17.4142 9.75035 17 9.75035H4.3572L6.08208 11.4752Z" fill="white"/>
</svg>
