<svg width="34" height="35" viewBox="0 0 34 35" fill="none" xmlns="http://www.w3.org/2000/svg">
<g clip-path="url(#clip0_10695_4766)">
<path d="M29.5104 0.572266H10.5798C8.11061 0.572266 6.09033 2.59254 6.09033 5.06173V6.58934H23.2146C25.6838 6.58934 27.704 8.60962 27.704 11.0788V22.2714H29.5104C31.9795 22.2714 33.9998 20.2511 33.9998 17.7819V5.06173C33.9998 2.59248 31.9795 0.572266 29.5104 0.572266Z" fill="#6C7ED6"/>
<path d="M26.3273 6.38379H7.39674C6.94279 6.38379 6.50418 6.45259 6.09033 6.57942V6.58905H23.2146C25.6838 6.58905 27.704 8.60933 27.704 11.0785V22.2711H29.5103C29.9642 22.2711 30.4029 22.2023 30.8167 22.0755V10.8732C30.8168 8.40407 28.7965 6.38379 26.3273 6.38379Z" fill="#4F67D2"/>
<path d="M23.42 6.38379H4.48946C2.02028 6.38379 0 8.40407 0 10.8732V23.5934C0 26.0625 2.02028 28.0828 4.48946 28.0828H15.8513C16.3384 28.0828 16.702 28.5361 16.5906 29.0103C16.2893 30.293 15.8283 31.6496 15.1467 33.0402C14.8406 33.6647 15.5369 34.2996 16.1283 33.9336C17.8383 32.8753 20.2713 31.104 22.3203 28.6001C22.5896 28.2709 22.9947 28.0828 23.42 28.0828C25.8892 28.0828 27.9095 26.0625 27.9095 23.5933V10.8732C27.9095 8.40407 25.8892 6.38379 23.42 6.38379Z" fill="#60B8FE"/>
<path d="M19.4983 29.0104C19.6097 28.5362 19.2461 28.083 18.759 28.083H15.8515C16.3386 28.083 16.7022 28.5362 16.5908 29.0104C16.2896 30.2932 15.8285 31.6498 15.1469 33.0404C14.8408 33.6649 15.5371 34.2998 16.1285 33.9338C16.7846 33.5277 17.5473 33.0163 18.3537 32.3993C18.8738 31.233 19.2435 30.0953 19.4983 29.0104Z" fill="#23A8FE"/>
<path d="M2.90747 23.5934V10.8733C2.90747 8.40407 4.92774 6.38379 7.39693 6.38379H4.48946C2.02028 6.38379 0 8.40407 0 10.8733V23.5934C0 26.0626 2.02028 28.0828 4.48946 28.0828H7.39693C4.92768 28.0828 2.90747 26.0626 2.90747 23.5934Z" fill="#23A8FE"/>
<path d="M6.22316 19.0879C7.04593 19.0879 7.71291 18.4209 7.71291 17.5982C7.71291 16.7754 7.04593 16.1084 6.22316 16.1084C5.40039 16.1084 4.7334 16.7754 4.7334 17.5982C4.7334 18.4209 5.40039 19.0879 6.22316 19.0879Z" fill="#DFEBFA"/>
<path d="M11.0352 19.0879C11.8579 19.0879 12.5249 18.4209 12.5249 17.5982C12.5249 16.7754 11.8579 16.1084 11.0352 16.1084C10.2124 16.1084 9.54541 16.7754 9.54541 17.5982C9.54541 18.4209 10.2124 19.0879 11.0352 19.0879Z" fill="#DFEBFA"/>
<path d="M15.8467 19.0879C16.6695 19.0879 17.3364 18.4209 17.3364 17.5982C17.3364 16.7754 16.6695 16.1084 15.8467 16.1084C15.0239 16.1084 14.3569 16.7754 14.3569 17.5982C14.3569 18.4209 15.0239 19.0879 15.8467 19.0879Z" fill="#DFEBFA"/>
<path d="M20.6587 19.0879C21.4815 19.0879 22.1485 18.4209 22.1485 17.5982C22.1485 16.7754 21.4815 16.1084 20.6587 16.1084C19.8359 16.1084 19.1689 16.7754 19.1689 17.5982C19.1689 18.4209 19.8359 19.0879 20.6587 19.0879Z" fill="#DFEBFA"/>
<path d="M6.22316 17.5982C6.22316 17.0469 6.52291 16.5658 6.96803 16.3082C6.74883 16.1814 6.49462 16.1084 6.22316 16.1084C5.40038 16.1084 4.7334 16.7754 4.7334 17.5982C4.7334 18.4209 5.40038 19.0879 6.22316 19.0879C6.49462 19.0879 6.74889 19.0149 6.96803 18.8881C6.52285 18.6305 6.22316 18.1495 6.22316 17.5982Z" fill="#B1DBFC"/>
<path d="M11.0352 17.5982C11.0352 17.0469 11.3349 16.5658 11.78 16.3082C11.5608 16.1814 11.3066 16.1084 11.0352 16.1084C10.2124 16.1084 9.54541 16.7754 9.54541 17.5982C9.54541 18.4209 10.2124 19.0879 11.0352 19.0879C11.3066 19.0879 11.5608 19.0149 11.78 18.8881C11.3349 18.6305 11.0352 18.1495 11.0352 17.5982Z" fill="#B1DBFC"/>
<path d="M15.8467 17.5982C15.8467 17.0469 16.1464 16.5658 16.5916 16.3082C16.3724 16.1814 16.1181 16.1084 15.8467 16.1084C15.0239 16.1084 14.3569 16.7754 14.3569 17.5982C14.3569 18.4209 15.0239 19.0879 15.8467 19.0879C16.1182 19.0879 16.3724 19.0149 16.5916 18.8881C16.1464 18.6305 15.8467 18.1495 15.8467 17.5982Z" fill="#B1DBFC"/>
<path d="M20.6587 17.5982C20.6587 17.0469 20.9584 16.5658 21.4036 16.3082C21.1844 16.1814 20.9301 16.1084 20.6587 16.1084C19.8359 16.1084 19.1689 16.7754 19.1689 17.5982C19.1689 18.4209 19.8359 19.0879 20.6587 19.0879C20.9302 19.0879 21.1844 19.0149 21.4036 18.8881C20.9584 18.6305 20.6587 18.1495 20.6587 17.5982Z" fill="#B1DBFC"/>
</g>
<defs>
<clipPath id="clip0_10695_4766">
<rect width="34" height="34" fill="white" transform="translate(0 0.306641)"/>
</clipPath>
</defs>
</svg>
