<svg width="34" height="34" viewBox="0 0 34 34" fill="none" xmlns="http://www.w3.org/2000/svg">
<path d="M32.8549 24.4965L20.6756 12.0594C20.2757 11.6541 19.7383 11.4137 19.1697 11.3856C18.601 11.3575 18.0425 11.5438 17.6047 11.9077L14.0553 14.886C13.6207 15.2534 13.3399 15.7707 13.2685 16.3353C13.197 16.8999 13.3402 17.4708 13.6695 17.9349L23.8054 32.0915C24.0132 32.3837 24.2878 32.6219 24.6064 32.7862C24.925 32.9505 25.2784 33.0361 25.6368 33.0359C25.7666 33.0358 25.8961 33.0247 26.024 33.0028C26.4424 32.9329 26.8325 32.7461 27.1493 32.464C27.466 32.1819 27.6965 31.8159 27.8142 31.4084L28.6224 28.6429L31.4858 28.3263H31.4873C31.9087 28.2796 32.3086 28.1154 32.6412 27.8524C32.9738 27.5894 33.2257 27.2382 33.3683 26.8389C33.5109 26.4395 33.5384 26.0082 33.4476 25.594C33.3568 25.1798 33.1514 24.7995 32.8549 24.4965Z" fill="#F44336"/>
<path d="M18.903 14.0844L15.1092 11.4271C14.6417 11.1019 14.0691 10.9643 13.505 11.0415C12.9408 11.1186 12.4262 11.405 12.0632 11.8437L1.01464 25.2966C0.745285 25.6241 0.573479 26.0208 0.518844 26.4413C0.464208 26.8618 0.528948 27.2892 0.705667 27.6747C0.882386 28.0602 1.16396 28.3881 1.51822 28.6212C1.87248 28.8542 2.28514 28.9829 2.70907 28.9926L5.59015 29.0589L6.63834 31.7435C6.79083 32.1397 7.05254 32.4846 7.3931 32.7381C7.73366 32.9917 8.13912 33.1435 8.56245 33.1759C8.62577 33.1811 8.68758 33.1833 8.74938 33.1833C9.14165 33.1842 9.52729 33.0822 9.86778 32.8874C10.2083 32.6926 10.4917 32.4119 10.6897 32.0732L19.5522 17.0876C19.8399 16.5967 19.9328 16.0157 19.8126 15.4595C19.6924 14.9034 19.3677 14.4126 18.903 14.0844Z" fill="#F44336"/>
<path d="M28.2927 10.4099C28.0821 10.2473 27.918 10.0321 27.8169 9.7859C27.7159 9.53974 27.6814 9.27132 27.717 9.00762C28.013 6.60205 27.7907 5.17623 27.0001 4.38492C26.1963 3.58111 24.8139 3.36765 22.3775 3.66583C22.1139 3.70193 21.8455 3.66777 21.5994 3.56682C21.3533 3.46587 21.1383 3.30171 20.976 3.09094C19.3787 1.02169 18.1435 0.0986328 16.9672 0.0986328C15.791 0.0986328 14.5558 1.02169 12.96 3.09014C12.7967 3.30011 12.5812 3.4637 12.3351 3.56467C12.089 3.66565 11.8208 3.7005 11.557 3.66576C9.12057 3.36911 7.7368 3.58111 6.93586 4.38419C6.14384 5.17623 5.92154 6.60205 6.21745 9.00982C6.25284 9.27318 6.21828 9.54122 6.11724 9.78698C6.01619 10.0327 5.85223 10.2476 5.64182 10.4099C3.57342 12.0079 2.65186 13.2446 2.65186 14.4201C2.65186 15.5957 3.57342 16.8323 5.64182 18.4304C5.85244 18.593 6.01652 18.8082 6.11756 19.0544C6.21861 19.3005 6.25306 19.569 6.21745 19.8327C5.92154 22.2382 6.14384 23.6641 6.9344 24.4554C7.73673 25.2584 9.11911 25.4697 11.557 25.1745C11.8205 25.1386 12.0889 25.1728 12.335 25.2737C12.5811 25.3747 12.7961 25.5388 12.9585 25.7494C14.5558 27.8186 15.791 28.7417 16.9672 28.7417C18.1435 28.7417 19.3787 27.8186 20.9745 25.7502C21.137 25.5392 21.3523 25.3748 21.5986 25.2738C21.845 25.1727 22.1137 25.1385 22.3775 25.1745C24.8154 25.4712 26.1978 25.2584 26.9986 24.4561C27.7907 23.6641 28.013 22.2382 27.717 19.8327V19.8305C27.6817 19.5671 27.7162 19.2991 27.8173 19.0533C27.9183 18.8075 28.0823 18.5927 28.2927 18.4304C30.3611 16.8323 31.2826 15.5957 31.2826 14.4201C31.2826 13.2446 30.3611 12.0079 28.2927 10.4099Z" fill="#FFC107"/>
<path d="M13.3474 20.4503C13.0635 20.4501 12.7854 20.3697 12.5452 20.2184C12.3049 20.0671 12.1123 19.851 11.9894 19.5951C11.8665 19.3392 11.8184 19.0537 11.8505 18.7717C11.8827 18.4896 11.9938 18.2223 12.1711 18.0006L19.4083 8.95541C19.6585 8.64392 20.022 8.44441 20.4191 8.40067C20.8162 8.35693 21.2145 8.47254 21.5264 8.72211C21.8384 8.97169 22.0386 9.33485 22.0831 9.73188C22.1276 10.1289 22.0128 10.5274 21.7638 10.8398L14.5266 19.885C14.3851 20.0617 14.2056 20.2043 14.0014 20.3021C13.7973 20.4 13.5738 20.4506 13.3474 20.4503Z" fill="#F44336"/>
<path d="M13.5753 12.9124C14.616 12.9124 15.4597 12.0687 15.4597 11.028C15.4597 9.98723 14.616 9.14355 13.5753 9.14355C12.5346 9.14355 11.6909 9.98723 11.6909 11.028C11.6909 12.0687 12.5346 12.9124 13.5753 12.9124Z" fill="#F44336"/>
<path d="M20.3595 19.6966C21.4002 19.6966 22.2439 18.8529 22.2439 17.8121C22.2439 16.7714 21.4002 15.9277 20.3595 15.9277C19.3188 15.9277 18.4751 16.7714 18.4751 17.8121C18.4751 18.8529 19.3188 19.6966 20.3595 19.6966Z" fill="#F44336"/>
</svg>
