<svg width="16" height="16" viewBox="0 0 16 16" fill="none" xmlns="http://www.w3.org/2000/svg">
<path fill-rule="evenodd" clip-rule="evenodd" d="M10.2866 1.30453L7.99941 0L5.71216 1.30453L3.05559 1.52817L2.01054 3.86164L0 5.5276L0.597343 8L0 10.4724L2.01054 12.1384L3.05559 14.4718L5.71216 14.6955L7.99941 16L10.2866 14.6955L12.9432 14.4718L13.9883 12.1384L16 10.4724L15.4003 8L15.9988 5.5276L13.9871 3.86164L12.942 1.52817L10.2866 1.30453ZM5.84042 4.61161C5.36798 4.61161 4.91489 4.7901 4.58082 5.10782C4.24676 5.42555 4.05908 5.85647 4.05908 6.3058C4.05908 6.75513 4.24676 7.18606 4.58082 7.50378C4.91489 7.8215 5.36798 8 5.84042 8C6.31286 8 6.76595 7.8215 7.10002 7.50378C7.43409 7.18606 7.62176 6.75513 7.62176 6.3058C7.62176 5.85647 7.43409 5.42555 7.10002 5.10782C6.76595 4.7901 6.31286 4.61161 5.84042 4.61161ZM5.66704 11.2235L11.6048 5.57617L10.764 4.77651L4.82624 10.4238L5.66704 11.2235ZM10.5907 8.56473C10.1182 8.56473 9.66513 8.74323 9.33106 9.06095C8.997 9.37868 8.80932 9.8096 8.80932 10.2589C8.80932 10.7083 8.997 11.1392 9.33106 11.4569C9.66513 11.7746 10.1182 11.9531 10.5907 11.9531C11.0631 11.9531 11.5162 11.7746 11.8503 11.4569C12.1843 11.1392 12.372 10.7083 12.372 10.2589C12.372 9.8096 12.1843 9.37868 11.8503 9.06095C11.5162 8.74323 11.0631 8.56473 10.5907 8.56473Z" fill="black" fill-opacity="0.8"/>
<path d="M5.42098 5.90662C5.30963 6.01253 5.24707 6.15617 5.24707 6.30594C5.24707 6.45572 5.30963 6.59936 5.42098 6.70527C5.53234 6.81118 5.68337 6.87068 5.84085 6.87068C5.99833 6.87068 6.14936 6.81118 6.26072 6.70527C6.37207 6.59936 6.43463 6.45572 6.43463 6.30594C6.43463 6.15617 6.37207 6.01253 6.26072 5.90662C6.14936 5.80071 5.99833 5.74121 5.84085 5.74121C5.68337 5.74121 5.53234 5.80071 5.42098 5.90662Z" fill="black" fill-opacity="0.8"/>
<path d="M10.171 9.85877C10.0596 9.96467 9.99707 10.1083 9.99707 10.2581C9.99707 10.4079 10.0596 10.5515 10.171 10.6574C10.2823 10.7633 10.4334 10.8228 10.5909 10.8228C10.7483 10.8228 10.8994 10.7633 11.0107 10.6574C11.1221 10.5515 11.1846 10.4079 11.1846 10.2581C11.1846 10.1083 11.1221 9.96467 11.0107 9.85877C10.8994 9.75286 10.7483 9.69336 10.5909 9.69336C10.4334 9.69336 10.2823 9.75286 10.171 9.85877Z" fill="black" fill-opacity="0.8"/>
</svg>
