<svg width="24" height="24" viewBox="0 0 24 24" fill="none" xmlns="http://www.w3.org/2000/svg">
<rect width="24" height="24" rx="12" fill="#252525"/>
<path d="M12 13.0646L8.27376 16.7909C8.13435 16.9303 7.95691 17 7.74144 17C7.52598 17 7.34854 16.9303 7.20913 16.7909C7.06971 16.6515 7 16.474 7 16.2586C7 16.0431 7.06971 15.8657 7.20913 15.7262L10.9354 12L7.20913 8.27376C7.06971 8.13435 7 7.95691 7 7.74144C7 7.52598 7.06971 7.34854 7.20913 7.20913C7.34854 7.06971 7.52598 7 7.74144 7C7.95691 7 8.13435 7.06971 8.27376 7.20913L12 10.9354L15.7262 7.20913C15.8657 7.06971 16.0431 7 16.2586 7C16.474 7 16.6515 7.06971 16.7909 7.20913C16.9303 7.34854 17 7.52598 17 7.74144C17 7.95691 16.9303 8.13435 16.7909 8.27376L13.0646 12L16.7909 15.7262C16.9303 15.8657 17 16.0431 17 16.2586C17 16.474 16.9303 16.6515 16.7909 16.7909C16.6515 16.9303 16.474 17 16.2586 17C16.0431 17 15.8657 16.9303 15.7262 16.7909L12 13.0646Z" fill="white"/>
</svg>
