<?xml version="1.0" encoding="utf-8"?>
<!-- Generator: Adobe Illustrator 19.2.1, SVG Export Plug-In . SVG Version: 6.00 Build 0)  -->
<svg version="1.1" id="Capa_1" xmlns="http://www.w3.org/2000/svg" xmlns:xlink="http://www.w3.org/1999/xlink" x="0px" y="0px"
	 viewBox="0 0 150 150" style="enable-background:new 0 0 150 150;" xml:space="preserve">
<style type="text/css">
	.st0{fill:#FFFFFF;}
</style>
<g id="XMLID_670_">
	<path id="XMLID_672_" class="st0" d="M149.8,107.6L149.8,107.6c0-0.2,0-0.2-0.1-0.3L145.4,83c-5.7,8.3-15.2,13.7-25.9,13.7
		c-1.8,0-3.6-0.2-5.3-0.4c-0.1,1.7-0.5,3.3-1,4.8l6.5,15.2c0,0.1,0.1,0.1,0.1,0.2l0,0.1c0,0.1,0.1,0.2,0.1,0.2
		c2.4,5.2,7.9,8.4,13.8,8.4c1.6,0,3.2-0.2,4.8-0.7c7.6-2.3,12.4-9.4,11.4-16.6C149.8,107.8,149.8,107.7,149.8,107.6z"/>
	<path id="XMLID_679_" class="st0" d="M90,76.2c-1.3-3.4-1.9-7-1.9-10.9C88.1,48,102.2,34,119.5,34c6.5,0,12.5,2,17.5,5.3v-1.2
		c0-7.3-5.9-13.3-13.3-13.3h-7.8c-6.9,0-12.6,5.3-13.2,12.1H47.3c-0.6-6.8-6.3-12.1-13.2-12.1h-7.8C19,24.8,13,30.8,13,38.1v1.2
		c5-3.4,11-5.3,17.5-5.3C47.8,34,61.9,48,61.9,65.4c0,3.8-0.7,7.5-2,10.9c8,2.3,13.9,9.7,13.9,18.4c0,0.9-0.1,1.8-0.2,2.7h2.6
		c-0.1-0.9-0.2-1.8-0.2-2.7C76.1,85.9,82,78.5,90,76.2z M83.7,63.6L83.7,63.6c-2.5,0-4.5-2-4.5-4.4c0-2.4,2-4.4,4.4-4.4h0.1
		c2.4,0,4.4,2,4.4,4.4C88.1,61.6,86.2,63.6,83.7,63.6z M66.5,63.6L66.5,63.6c-2.5,0-4.5-2-4.5-4.4c0-2.4,2-4.4,4.4-4.4h0.1
		c2.4,0,4.4,2,4.4,4.4C70.9,61.6,68.9,63.6,66.5,63.6z M69.2,69.9c0-2.4,2-4.4,4.4-4.4h3.1c2.4,0,4.4,2,4.4,4.4c0,2.4-2,4.4-4.4,4.4
		h-3.1C71.1,74.3,69.2,72.3,69.2,69.9z"/>
	<path id="XMLID_682_" class="st0" d="M35.7,96.3c-1.7,0.3-3.4,0.4-5.2,0.4c-10.8,0-20.3-5.4-25.9-13.7l-4.3,24.2c0,0.1,0,0.1,0,0.2
		l0,0.1c0,0.1,0,0.2,0,0.3c-1,7.2,3.8,14.3,11.4,16.6c1.6,0.5,3.2,0.7,4.8,0.7c5.9,0,11.4-3.1,13.8-8.4c0-0.1,0.1-0.2,0.1-0.3l0-0.1
		c0-0.1,0.1-0.1,0.1-0.2l6.4-15C36.2,99.7,35.8,98,35.7,96.3z"/>
	<path id="XMLID_685_" class="st0" d="M30.5,87.9c2.4,0,4.6-0.4,6.8-1c2.4-5.4,7.3-9.5,13.1-10.8c1.7-3.2,2.7-6.8,2.7-10.7
		c0-12.5-10.1-22.6-22.6-22.6S7.9,52.9,7.9,65.4S18.1,87.9,30.5,87.9z M36.5,69.8h-1.5v1.5c0,2.4-2,4.4-4.4,4.4s-4.4-2-4.4-4.4v-1.5
		h-1.5c-2.4,0-4.4-2-4.4-4.4c0-2.4,2-4.4,4.4-4.4h1.5v-1.5c0-2.4,2-4.4,4.4-4.4s4.4,2,4.4,4.4V61h1.5c2.4,0,4.4,2,4.4,4.4
		C40.9,67.8,38.9,69.8,36.5,69.8z"/>
	<path id="XMLID_688_" class="st0" d="M99.6,76c5.9,1.4,10.7,5.5,13.1,10.9c2.2,0.7,4.5,1.1,6.8,1.1c12.5,0,22.6-10.1,22.6-22.6
		s-10.1-22.6-22.6-22.6S96.9,52.9,96.9,65.4C96.9,69.2,97.9,72.8,99.6,76z M119.4,51L119.4,51c2.5,0,4.5,2,4.5,4.4
		c0,2.4-2,4.4-4.4,4.4h-0.1c-2.4,0-4.4-2-4.4-4.4C115,53,117,51,119.4,51z M125,65.3c0-2.4,2-4.4,4.4-4.4c2.4,0,4.4,2,4.4,4.4v0.1
		c0,2.4-2,4.4-4.4,4.4C127,69.8,125,67.8,125,65.3L125,65.3z M119.4,70.9L119.4,70.9c2.5,0,4.5,2,4.5,4.4c0,2.4-2,4.4-4.4,4.4h-0.1
		c-2.4,0-4.4-2-4.4-4.4C115,72.9,117,70.9,119.4,70.9z M105.1,65.3c0-2.4,2-4.4,4.4-4.4c2.4,0,4.4,2,4.4,4.4v0.1
		c0,2.4-2,4.4-4.4,4.4C107.1,69.8,105.1,67.8,105.1,65.3L105.1,65.3z"/>
	<path id="XMLID_692_" class="st0" d="M65,94.7c0-5.7-4.6-10.3-10.3-10.3S44.4,89,44.4,94.7c0,5.7,4.6,10.3,10.3,10.3
		S65,100.4,65,94.7z"/>
	<path id="XMLID_697_" class="st0" d="M105.5,94.6c0-5.7-4.6-10.3-10.3-10.3c-5.7,0-10.3,4.6-10.3,10.3s4.6,10.3,10.3,10.3
		C100.9,104.9,105.5,100.3,105.5,94.6z"/>
</g>
</svg>
