<?xml version="1.0" encoding="utf-8"?>
<!-- Generator: Adobe Illustrator 25.1.0, SVG Export Plug-In . SVG Version: 6.00 Build 0)  -->
<svg version="1.1" id="Layer_1" xmlns="http://www.w3.org/2000/svg" xmlns:xlink="http://www.w3.org/1999/xlink" x="0px" y="0px"
	 viewBox="0 0 25 25" style="enable-background:new 0 0 25 25;" xml:space="preserve">
<style type="text/css">
	.st0{fill:#FFFFFF;}
</style>
<g>
	<path class="st0" d="M12.5,0.7C6,0.7,0.7,6,0.7,12.5S6,24.3,12.5,24.3S24.3,19,24.3,12.5S19,0.7,12.5,0.7z M11.6,1.6h1.8v1.8h-1.8
		V1.6z M20.7,12.5c0,4.5-3.7,8.2-8.2,8.2S4.3,17,4.3,12.5S8,4.3,12.5,4.3S20.7,8,20.7,12.5z M5.5,4.2l1.3,1.3L5.5,6.7L4.2,5.5
		L5.5,4.2z M3.4,13.4H1.6v-1.8h1.8V13.4z M5.5,20.8l-1.3-1.3l1.3-1.3l1.3,1.3L5.5,20.8z M13.4,23.4h-1.8v-1.8h1.8V23.4z M19.5,20.8
		l-1.3-1.3l1.3-1.3l1.3,1.3L19.5,20.8z M19.5,6.7l-1.3-1.3l1.3-1.3l1.3,1.3L19.5,6.7z M21.5,13.4v-1.8h1.8v1.8H21.5z"/>
	<path class="st0" d="M5.8,12.5c0,3.7,3,6.7,6.7,6.7s6.7-3,6.7-6.7s-3-6.7-6.7-6.7S5.8,8.8,5.8,12.5z M15.7,11.9
		c0.3,0.5,0.4,1,0.4,1.5c0,1.3-0.9,2.1-2,2.1c-0.7,0-1.2-0.3-1.4-0.6l0.4,1.4h-1.2l0.4-1.4c-0.2,0.3-0.6,0.6-1.4,0.6
		c-1.1,0-2-0.7-2-2.1c0-0.5,0.1-1,0.4-1.5c0.5-0.8,3.2-3.1,3.2-3.1S15.2,11.1,15.7,11.9z"/>
</g>
</svg>
