<?xml version="1.0" encoding="utf-8"?>
<!-- Generator: Adobe Illustrator 25.1.0, SVG Export Plug-In . SVG Version: 6.00 Build 0)  -->
<svg version="1.1" id="Layer_1" xmlns="http://www.w3.org/2000/svg" xmlns:xlink="http://www.w3.org/1999/xlink" x="0px" y="0px"
	 viewBox="0 0 25 25" style="enable-background:new 0 0 25 25;" xml:space="preserve">
<style type="text/css">
	.st0{fill:#FFFFFF;}
</style>
<g>
	<path class="st0" d="M16.1,15c-0.1,0-1.4,0.4-2-0.7l-0.2-0.4c-0.2-0.4-0.7-0.5-1.2-0.3c-0.2,0.1-0.5,0.3-1,0.3
		c-0.7,0-1.3-0.4-1.5-1c-0.3-0.7-1.3-0.4-1.3-0.4c-0.8,0.2-1.7-0.3-1.9-1l-0.1-0.3c-2.2,2.5-3.5,5.3-4.2,6.8c-0.1,0.3-0.1,0.7,0.1,1
		c0.2,0.3,0.6,0.5,1,0.4l0.5-0.1c0.4-0.1,0.8,0.2,0.9,0.6l0.1,0.5c0.2,0.7,0.8,1.1,1.5,1.1c0.3,0,0.5-0.1,0.7-0.2
		c0.1-0.1,0.3-0.1,0.4-0.1c0.4,0,0.7,0.3,0.8,0.6L9.2,23c0.2,0.7,0.8,1.1,1.5,1.1c0.6,0,1.1-0.3,1.4-0.8l0.1-0.2
		c0.1-0.3,0.4-0.4,0.7-0.4c0.3,0,0.6,0.1,0.7,0.4c0.4,0.6,1.1,1,1.8,1c0.4,0,0.9-0.1,1.2-0.4l0.1-0.1c0,0,0.1,0,0.1,0
		c0.1,0,0.2,0,0.2,0.1l0.1,0.3c0.2,0.3,0.5,0.5,0.8,0.5c0.3,0,0.5-0.1,0.7-0.3c0.2-0.2,0.3-0.4,0.3-0.7C19,17.9,16.7,16.4,16.1,15z"
		/>
	<path class="st0" d="M22.3,10.3c0,0-0.4-0.9-1.3-1.6c0.4-1.1,0.6-2.1,0.3-3.1C21.1,5.2,20.9,5,20.5,5c-0.2,0-0.4,0.1-0.5,0.2
		l-0.4,0.4l-0.2-2.4c0-0.4-0.3-0.7-0.7-0.7c-0.3,0-0.5,0.1-0.6,0.3l-0.5,0.7l-0.1-1.8c0-0.4-0.3-0.7-0.7-0.7c-0.3,0-0.6,0.1-0.7,0.4
		l-0.9,2c-0.3-0.7-0.7-1-1.1-1c-0.3,0-0.6,0.1-0.8,0.5c-0.1,0.1-0.2,0.1-0.3,0.1c-0.4,0-1.2-1-1.7-2.2c-0.1-0.3-0.4-0.5-0.7-0.5
		c-0.3,0-0.5,0.1-0.6,0.3c-1.7,2.3-1.4,4.8,1.4,6.7c-1.4,0.8-2.7,1.8-3.7,2.9l0.2,0.8C7.9,12,9,11.7,9.1,11.7c0.8-0.1,1.6,0.3,1.9,1
		c0.1,0.3,0.4,0.5,0.8,0.5c0.3,0,0.5-0.1,0.7-0.2c0.8-0.3,1.7,0,2.1,0.7l0.2,0.4c0.1,0.3,0.6,0.4,1,0.4l0.2,0
		c-0.1-1.4,1.4-1.4,2.5-2.6c1.5,0.1,2,1.3,2.4,1.3c0.8,0,0.1-1.8-0.4-2.5c0.6-0.1,1.2,0.1,1.3,0.1C22.1,10.8,22.4,10.6,22.3,10.3z
		 M14.9,10.8c-0.5,0-1-0.4-1-1c0-1.2,1.9-1.2,1.9,0C15.9,10.4,15.5,10.8,14.9,10.8z"/>
	<path class="st0" d="M18.6,12.4c-1,1-1.9,1.1-2,1.6c-0.1,0.8,1.1,1.8,1.9,3.4c1.1-1,1.7-2.5,1.6-4C19.8,13.2,19.4,12.6,18.6,12.4z"
		/>
</g>
</svg>
