<svg width="24" height="24" viewBox="0 0 24 24" fill="none" xmlns="http://www.w3.org/2000/svg">
<g id="ion:game-controller">
<path id="Vector" d="M22.6451 11.5022C21.6509 7.00734 20.1546 4.60827 17.9351 3.95296C17.4686 3.81611 16.9846 3.74774 16.4984 3.74999C15.8557 3.74999 15.296 3.90656 14.704 4.07249C13.9906 4.27265 13.1801 4.49999 11.9984 4.49999C10.8167 4.49999 10.0057 4.27312 9.29089 4.07296C8.69839 3.90656 8.13917 3.74999 7.49839 3.74999C6.99562 3.74825 6.49505 3.8164 6.01104 3.95249C3.80323 4.60499 2.30792 7.00312 1.29917 11.4994C0.214481 16.3378 0.748387 19.3926 2.79636 20.1014C3.07708 20.2004 3.37245 20.2514 3.67011 20.2523C5.07307 20.2523 6.19807 19.0837 6.96682 18.127C7.83542 17.0442 8.85214 16.4948 11.9984 16.4948C14.8085 16.4948 15.9715 16.8759 16.976 18.127C17.6075 18.9136 18.2042 19.4639 18.7995 19.8103C19.5912 20.2706 20.3825 20.3728 21.1507 20.1089C22.361 19.6959 23.0548 18.6042 23.2132 16.8633C23.3337 15.5283 23.1481 13.7747 22.6451 11.5022ZM9.74839 11.25H8.24839V12.75C8.24839 12.9489 8.16937 13.1397 8.02872 13.2803C7.88806 13.421 7.6973 13.5 7.49839 13.5C7.29947 13.5 7.10871 13.421 6.96806 13.2803C6.8274 13.1397 6.74839 12.9489 6.74839 12.75V11.25H5.24839C5.04948 11.25 4.85871 11.171 4.71806 11.0303C4.57741 10.8897 4.49839 10.6989 4.49839 10.5C4.49839 10.3011 4.57741 10.1103 4.71806 9.96966C4.85871 9.82901 5.04948 9.74999 5.24839 9.74999H6.74839V8.24999C6.74839 8.05108 6.8274 7.86032 6.96806 7.71966C7.10871 7.57901 7.29947 7.49999 7.49839 7.49999C7.6973 7.49999 7.88806 7.57901 8.02872 7.71966C8.16937 7.86032 8.24839 8.05108 8.24839 8.24999V9.74999H9.74839C9.9473 9.74999 10.1381 9.82901 10.2787 9.96966C10.4194 10.1103 10.4984 10.3011 10.4984 10.5C10.4984 10.6989 10.4194 10.8897 10.2787 11.0303C10.1381 11.171 9.9473 11.25 9.74839 11.25ZM13.6859 11.4375C13.5005 11.4375 13.3192 11.3825 13.165 11.2795C13.0109 11.1765 12.8907 11.0301 12.8197 10.8588C12.7488 10.6875 12.7302 10.499 12.7664 10.3171C12.8026 10.1352 12.8919 9.96819 13.023 9.83708C13.1541 9.70597 13.3211 9.61668 13.503 9.58051C13.6848 9.54433 13.8733 9.5629 14.0447 9.63386C14.216 9.70481 14.3624 9.82497 14.4654 9.97915C14.5684 10.1333 14.6234 10.3146 14.6234 10.5C14.6234 10.7486 14.5246 10.9871 14.3488 11.1629C14.173 11.3387 13.9345 11.4375 13.6859 11.4375ZM15.7484 13.5C15.5629 13.5 15.3815 13.4449 15.2273 13.3418C15.0731 13.2387 14.9529 13.0922 14.882 12.9207C14.8111 12.7493 14.7927 12.5607 14.8291 12.3787C14.8654 12.1968 14.955 12.0298 15.0863 11.8988C15.2177 11.7677 15.3849 11.6786 15.5669 11.6427C15.7489 11.6068 15.9375 11.6257 16.1088 11.697C16.28 11.7683 16.4263 11.8889 16.529 12.0434C16.6318 12.1978 16.6864 12.3793 16.6859 12.5648C16.6853 12.8131 16.5862 13.0509 16.4105 13.2262C16.2347 13.4015 15.9966 13.5 15.7484 13.5ZM15.7484 9.37499C15.563 9.37499 15.3817 9.32001 15.2275 9.217C15.0734 9.11398 14.9532 8.96756 14.8822 8.79626C14.8113 8.62495 14.7927 8.43645 14.8289 8.2546C14.8651 8.07274 14.9544 7.90569 15.0855 7.77458C15.2166 7.64347 15.3836 7.55418 15.5655 7.51801C15.7473 7.48183 15.9358 7.5004 16.1072 7.57136C16.2785 7.64231 16.4249 7.76248 16.5279 7.91665C16.6309 8.07082 16.6859 8.25207 16.6859 8.43749C16.6859 8.68613 16.5871 8.92459 16.4113 9.10041C16.2355 9.27622 15.997 9.37499 15.7484 9.37499ZM17.8109 11.4375C17.6255 11.4375 17.4442 11.3825 17.29 11.2795C17.1359 11.1765 17.0157 11.0301 16.9447 10.8588C16.8738 10.6875 16.8552 10.499 16.8914 10.3171C16.9276 10.1352 17.0169 9.96819 17.148 9.83708C17.2791 9.70597 17.4461 9.61668 17.628 9.58051C17.8098 9.54433 17.9983 9.5629 18.1697 9.63386C18.341 9.70481 18.4874 9.82497 18.5904 9.97915C18.6934 10.1333 18.7484 10.3146 18.7484 10.5C18.7484 10.7486 18.6496 10.9871 18.4738 11.1629C18.298 11.3387 18.0595 11.4375 17.8109 11.4375Z" fill="white" fill-opacity="0.7"/>
</g>
</svg>
