<svg width="30" height="30" viewBox="0 0 30 30" fill="none" xmlns="http://www.w3.org/2000/svg">
<g id="material-symbols:language">
<path id="Vector" d="M15 27.5C13.2917 27.5 11.6771 27.1717 10.1562 26.515C8.63542 25.8583 7.3075 24.9625 6.1725 23.8275C5.03667 22.6925 4.14083 21.3646 3.485 19.8438C2.82917 18.3229 2.50083 16.7083 2.5 15C2.5 13.2708 2.82833 11.6512 3.485 10.1412C4.14167 8.63125 5.0375 7.30833 6.1725 6.1725C7.3075 5.03667 8.635 4.14083 10.155 3.485C11.675 2.82917 13.29 2.50083 15 2.5C16.7292 2.5 18.3492 2.82833 19.86 3.485C21.3708 4.14167 22.6933 5.0375 23.8275 6.1725C24.9633 7.3075 25.8592 8.63042 26.515 10.1412C27.1708 11.6521 27.4992 13.2717 27.5 15C27.5 16.7083 27.1717 18.3229 26.515 19.8438C25.8583 21.3646 24.9625 22.6929 23.8275 23.8287C22.6925 24.9637 21.3696 25.8596 19.8587 26.5162C18.3479 27.1729 16.7283 27.5008 15 27.5ZM15 24.9375C15.5417 24.1875 16.0104 23.4062 16.4062 22.5938C16.8021 21.7813 17.125 20.9167 17.375 20H12.625C12.875 20.9167 13.1979 21.7813 13.5938 22.5938C13.9896 23.4062 14.4583 24.1875 15 24.9375ZM11.75 24.4375C11.375 23.75 11.0471 23.0362 10.7662 22.2962C10.4854 21.5562 10.2508 20.7908 10.0625 20H6.375C6.97917 21.0417 7.73458 21.9479 8.64125 22.7188C9.54792 23.4896 10.5842 24.0625 11.75 24.4375ZM18.25 24.4375C19.4167 24.0625 20.4533 23.4896 21.36 22.7188C22.2667 21.9479 23.0217 21.0417 23.625 20H19.9375C19.75 20.7917 19.5158 21.5575 19.235 22.2975C18.9542 23.0375 18.6258 23.7508 18.25 24.4375ZM5.3125 17.5H9.5625C9.5 17.0833 9.45333 16.6721 9.4225 16.2662C9.39167 15.8604 9.37583 15.4383 9.375 15C9.375 14.5625 9.39083 14.1408 9.4225 13.735C9.45417 13.3292 9.50083 12.9175 9.5625 12.5H5.3125C5.20833 12.9167 5.13042 13.3283 5.07875 13.735C5.02708 14.1417 5.00083 14.5633 5 15C5 15.4375 5.02625 15.8596 5.07875 16.2662C5.13125 16.6729 5.20917 17.0842 5.3125 17.5ZM12.0625 17.5H17.9375C18 17.0833 18.0471 16.6721 18.0788 16.2662C18.1104 15.8604 18.1258 15.4383 18.125 15C18.125 14.5625 18.1092 14.1408 18.0775 13.735C18.0458 13.3292 17.9992 12.9175 17.9375 12.5H12.0625C12 12.9167 11.9533 13.3283 11.9225 13.735C11.8917 14.1417 11.8758 14.5633 11.875 15C11.875 15.4375 11.8908 15.8596 11.9225 16.2662C11.9542 16.6729 12.0008 17.0842 12.0625 17.5ZM20.4375 17.5H24.6875C24.7917 17.0833 24.87 16.6721 24.9225 16.2662C24.975 15.8604 25.0008 15.4383 25 15C25 14.5625 24.9742 14.1408 24.9225 13.735C24.8708 13.3292 24.7925 12.9175 24.6875 12.5H20.4375C20.5 12.9167 20.5471 13.3283 20.5787 13.735C20.6104 14.1417 20.6258 14.5633 20.625 15C20.625 15.4375 20.6092 15.8596 20.5775 16.2662C20.5458 16.6729 20.4992 17.0842 20.4375 17.5ZM19.9375 10H23.625C23.0208 8.95833 22.2658 8.05208 21.36 7.28125C20.4542 6.51042 19.4175 5.9375 18.25 5.5625C18.625 6.25 18.9533 6.96375 19.235 7.70375C19.5167 8.44375 19.7508 9.20917 19.9375 10ZM12.625 10H17.375C17.125 9.08333 16.8021 8.21875 16.4062 7.40625C16.0104 6.59375 15.5417 5.8125 15 5.0625C14.4583 5.8125 13.9896 6.59375 13.5938 7.40625C13.1979 8.21875 12.875 9.08333 12.625 10ZM6.375 10H10.0625C10.25 9.20833 10.4846 8.4425 10.7662 7.7025C11.0479 6.9625 11.3758 6.24917 11.75 5.5625C10.5833 5.9375 9.54667 6.51042 8.64 7.28125C7.73333 8.05208 6.97833 8.95833 6.375 10Z" fill="white" fill-opacity="0.7"/>
</g>
</svg>
