<svg width="30" height="30" viewBox="0 0 30 30" fill="none" xmlns="http://www.w3.org/2000/svg">
<g id="tabler:bell-filled" clip-path="url(#clip0_89_42)">
<g id="Group">
<path id="Vector" d="M17.4828 22.8849C18.4437 22.8849 18.9514 24.0225 18.3104 24.7379C17.894 25.2038 17.3839 25.5765 16.8134 25.8315C16.2429 26.0865 15.6249 26.2181 15 26.2176C14.3751 26.2181 13.7572 26.0865 13.1867 25.8315C12.6162 25.5765 12.106 25.2038 11.6896 24.7379C11.0764 24.0536 11.5141 22.9838 12.3939 22.8927L12.5161 22.886L17.4828 22.8849ZM15 4C16.5086 4 17.7839 5.00312 18.1938 6.37839L18.2449 6.56835L18.2538 6.61612C19.4784 7.30698 20.5219 8.27811 21.2989 9.44997C22.0759 10.6218 22.5643 11.9611 22.724 13.358L22.7551 13.6769L22.7762 13.9979V17.2539L22.7995 17.405C22.9516 18.2235 23.4046 18.9554 24.0692 19.4568L24.2547 19.5867L24.4347 19.6967C25.3901 20.2377 25.0568 21.6585 24.0159 21.7674L23.887 21.7741H6.11299C4.97101 21.7741 4.5722 20.2588 5.56533 19.6967C5.9886 19.4572 6.35432 19.1279 6.63681 18.732C6.9193 18.3361 7.11171 17.8831 7.20054 17.405L7.22387 17.2461L7.22498 13.9468C7.29271 12.4959 7.71505 11.0836 8.45504 9.83374C9.19502 8.58385 10.2301 7.53438 11.4696 6.7772L11.7451 6.61501L11.7563 6.56724C11.9134 5.90296 12.2705 5.30288 12.7795 4.84797C13.2884 4.39307 13.9246 4.10524 14.6023 4.02333L14.8045 4.00444L15 4Z" fill="white" fill-opacity="0.7"/>
</g>
</g>
<defs>
<clipPath id="clip0_89_42">
<rect width="30" height="30" fill="white"/>
</clipPath>
</defs>
</svg>
