<?xml version="1.0" encoding="utf-8"?>
<!-- Generator: Adobe Illustrator 23.0.0, SVG Export Plug-In . SVG Version: 6.00 Build 0)  -->
<svg version="1.1" id="Layer_1" xmlns="http://www.w3.org/2000/svg" xmlns:xlink="http://www.w3.org/1999/xlink" x="0px" y="0px"
	 viewBox="0 0 23 15.4" style="enable-background:new 0 0 23 15.4;" xml:space="preserve">
<style type="text/css">
	.st0{fill:#0C103D;}
</style>
<title>icon-hamburger</title>
<path class="st0" d="M21.7,2.7H1.3C0.6,2.8,0,2.2-0.1,1.5S0.4,0.1,1.1,0c0.1,0,0.2,0,0.2,0h20.3C22.4,0,23,0.5,23.1,1.3
	c0.1,0.7-0.5,1.4-1.2,1.5C21.8,2.7,21.7,2.7,21.7,2.7"/>
<path class="st0" d="M21.7,9.1H1.3C0.6,9.1,0,8.5,0,7.7s0.6-1.3,1.3-1.3h20.3C22.4,6.4,23,7,23,7.7S22.4,9.1,21.7,9.1"/>
<path class="st0" d="M21.7,15.4H1.3C0.6,15.5,0,15-0.1,14.2c-0.1-0.7,0.5-1.4,1.2-1.5c0.1,0,0.2,0,0.2,0h20.3
	c0.7-0.1,1.4,0.5,1.5,1.2c0.1,0.7-0.5,1.4-1.2,1.5C21.8,15.4,21.7,15.4,21.7,15.4"/>
</svg>
