<?xml version="1.0" encoding="utf-8"?>
<!-- Generator: Adobe Illustrator 19.2.1, SVG Export Plug-In . SVG Version: 6.00 Build 0)  -->
<svg version="1.1" id="Layer_1" xmlns="http://www.w3.org/2000/svg" xmlns:xlink="http://www.w3.org/1999/xlink" x="0px" y="0px"
	 viewBox="0 0 512 512" style="enable-background:new 0 0 512 512;" xml:space="preserve">
<style type="text/css">
	.st0{fill:#FDFEFE;}
	.st1{fill:#FFFFFF;}
	.st2{fill:none;}
	.st3{fill:none;stroke:#FFFFFF;stroke-width:9;stroke-linecap:round;stroke-linejoin:round;stroke-miterlimit:10;}
</style>
<title>logo-zalo-vector</title>
<path class="st0" d="M95.9,433.5c-2-0.9-3.4-1.8-1.1-3.8c1.4-1.1,2.9-2.1,4.5-3c14.2-9.2,27.6-19.3,36.4-34.2
	c7.4-12.4,6.2-19.7-3-28.8c-51.5-51.5-74.1-113-62.8-185.8c6.4-41,25.2-76.6,52.6-107.4c16.5-18.7,36.2-33.8,57.7-46.4
	c1.3-0.8,3.1-1,3.4-2.9c-0.4-1.1-1.2-0.8-1.8-0.8c-36.6,0-73.2-0.8-109.7,0.2c-35,1.1-65.2,28.1-65,66.9c0.2,113.3,0,226.5,0,339.9
	c0,35.2,26.8,64.6,61.9,65.9c29.6,1.2,59.3,0.2,89,0.1c2.2,0.1,4.3,0.2,6.5,0.2h156.8c39.1,0,78.2,0.2,117.3,0
	c36.3,0,65.7-29.3,65.7-65.5v-0.7V364c0-1.5,0.5-3.1-0.4-4.8c-2,0.1-2.7,1.7-3.8,2.8c-21.1,21.2-45.9,38.2-73.2,50.3
	c-66.8,29.4-134.8,31.5-203.7,7.8c-6-2.2-12.5-2.4-18.7-0.9c-9.1,2.3-18.1,5-27.1,7.7C150.6,435.2,123.6,438.9,95.9,433.5
	L95.9,433.5z"/>
<path class="st0" d="M174.6,250.5c1.8-2.4,2.8-3.8,3.9-5.2c14.2-18,28.5-36.1,42.7-54.2c4.1-5.2,8.3-10.5,10.9-16.8
	c3-7.2-0.2-13.9-7.6-16.5c-3.3-1-6.7-1.4-10.2-1.2c-19.3-0.1-38.8-0.1-58.1,0c-2.7,0-5.4,0.3-8,1c-6.1,1.5-9.8,7.7-8.3,13.9
	c1.1,4.1,4.3,7.4,8.5,8.4c2.6,0.7,5.3,1,8,0.9c11.7,0.1,23.6,0,35.3,0.1c1.3,0,2.9-0.9,3.9,1.1c-1,1.3-2,2.6-2.9,3.8
	c-16.8,21.3-33.6,42.7-50.4,64c-4.1,5.3-6.3,11.2-3.3,17.7s9.2,7.7,15.5,8.1c5,0.3,10.1,0.1,15.2,0.1c17.6,0,35.1,0.1,52.7-0.1
	c9.3-0.1,14.3-5.8,13.4-14.4c-0.8-6.8-5.4-10.4-14.1-10.5C206.3,250.4,191,250.5,174.6,250.5L174.6,250.5z"/>
<path class="st0" d="M366.3,212c0-17,0.1-34,0-51c0-8.7-5.5-14.1-13.8-14c-8,0.1-13.4,5.5-13.5,13.9c-0.1,5.1,0,10.1,0,15.2v86.3
	c0,6.7,4.1,12.6,9.6,14c7.5,2.1,15.2-2.4,17.2-9.9c0.3-1.3,0.5-2.6,0.4-4C366.4,245.7,366.3,228.9,366.3,212L366.3,212z"/>
<path class="st1" d="M157.7,493.5c-29.6,0-59.4,1-89-0.1C33.5,492,6.7,462.6,6.7,427.5c0-113.3,0.2-226.5,0-339.9
	c0-38.8,30.3-65.8,65.2-66.8c36.5-1,73.1-0.2,109.7-0.2c0.7,0,1.5-0.3,1.8,0.8c-0.2,2-2.2,2.2-3.4,2.9
	c-21.5,12.6-41.2,27.7-57.7,46.4c-27.3,30.8-46.2,66.2-52.6,107.4c-11.3,72.6,11.4,134.3,62.8,185.8c9.1,9.2,10.3,16.4,3,28.8
	c-8.8,14.9-22.2,25-36.4,34.2c-1.5,0.9-3,2-4.6,2.9c-2.3,2-0.9,2.9,1.1,3.8c0.4,1,1,1.8,1.6,2.7c12.5,11.1,24.3,22.9,36.6,34.2
	c5.8,5.3,11.5,10.9,17,16.4C153.3,489,157.1,489.6,157.7,493.5z"/>
<path class="st1" d="M157.7,493.5c-0.5-3.8-4.3-4.5-6.6-6.7c-5.5-5.6-11.3-11.1-17-16.4c-12.3-11.3-24.1-23.1-36.6-34.2
	c-0.7-0.9-1.2-1.7-1.6-2.7c27.7,5.4,54.7,1.7,81.3-6.4c9-2.7,18-5.4,27.1-7.7c6.2-1.6,12.7-1.3,18.7,0.9
	c68.8,23.7,136.8,21.5,203.7-7.8c27.3-12.1,52.1-29,73.2-50.2c1.1-1.1,1.8-2.7,3.8-2.8c1,1.5,0.4,3.1,0.4,4.8v63.5
	c0.2,36.3-28.9,65.8-65.2,66.1h-0.5c-39.1,0.2-78.2,0-117.3,0H164.2C162,493.6,159.8,493.5,157.7,493.5L157.7,493.5z"/>
<path class="st1" d="M174.6,250.5c16.4,0,31.8-0.1,47.1,0c8.6,0.1,13.2,3.7,14.1,10.5c1,8.6-4,14.3-13.4,14.4
	c-17.6,0.2-35.1,0.1-52.7,0.1c-5.1,0-10.1,0.2-15.2-0.1c-6.3-0.3-12.5-1.6-15.5-8.1c-3-6.5-0.9-12.4,3.3-17.7
	c16.7-21.3,33.6-42.7,50.4-64c1-1.3,2-2.6,2.9-3.8c-1.1-1.8-2.6-1-3.9-1.1c-11.7-0.1-23.6,0-35.3-0.1c-2.7,0-5.4-0.3-8-0.9
	c-6.2-1.4-10-7.6-8.6-13.7c1-4.1,4.2-7.5,8.4-8.5c2.6-0.7,5.3-1,8-1c19.3-0.1,38.8-0.1,58.1,0c3.5-0.1,6.8,0.3,10.2,1.2
	c7.4,2.5,10.5,9.3,7.6,16.5c-2.6,6.2-6.7,11.5-10.9,16.8c-14.2,18.1-28.5,36.2-42.7,54.1C177.4,246.7,176.3,248.1,174.6,250.5
	L174.6,250.5z"/>
<path class="st1" d="M366.3,212c0,16.8,0.1,33.7,0,50.5c0.1,7.7-6,14.1-13.7,14.3c-1.3,0-2.7-0.1-4-0.4c-5.4-1.4-9.6-7.2-9.6-14
	v-86.3c0-5.1-0.1-10.1,0-15.2c0.1-8.4,5.4-13.8,13.5-13.8c8.3-0.1,13.8,5.3,13.8,14C366.4,178.1,366.3,195.1,366.3,212z"/>
<g>
	<polygon class="st2" points="262.1,233 262.1,233 262.1,233 	"/>
	<path class="st1" d="M327.1,198.5c-0.1-8.7-8.1-14.2-16.7-12.5c-4.5,0.9-7.2,4-9.8,7.4v0c-13.6-11.8-28.6-12.6-43.3-3.8
		c-17.8,10.4-24.4,27.4-22.2,47.2c2.2,18.4,10.1,33.4,29.4,39.7c12.1,3.9,23.2,2.5,33.1-5.5c2.6-2.1,3.4-1.6,5.2,0.7
		c3.6,4.7,9.8,6.3,15.2,4.2c5.3-1.6,9-6.6,9-12.3C327.3,241.9,327.4,220.2,327.1,198.5z M295.1,246.1c-5.9,7.8-17,9.4-25,3.6
		c-1.3-1-2.5-2.2-3.6-3.6c-2.7-3.8-4.2-8.4-4.5-13.1l0,0l0,0l0,0c-0.1-15.3,8.3-24.5,20.1-23.9c5.1,0.2,9.9,2.7,12.9,6.9
		C301.2,224.2,301.2,237.9,295.1,246.1z"/>
</g>
<g>
	<polygon class="st1" points="375.8,233.7 375.8,233.7 375.8,233.7 	"/>
	<path class="st1" d="M468.1,229c-0.9-27.1-21.1-45.7-48.8-44.8c-26.1,0.8-44.4,21.6-43.5,49.5l0,0l0,0l0,0
		c-0.4,27.1,22,47.7,50.4,44.8C452.2,275.9,469,256.5,468.1,229z M435.9,246.5c-6.1,7.7-17.4,9-25.1,2.9c-1.2-0.9-2.2-2-3-3.1
		c-3.3-4.5-4.8-9.8-4.7-15.2c0-13.5,8.3-22.5,20-21.8c5.1,0.1,9.9,2.7,12.9,6.8C442.2,224.3,442.2,238.3,435.9,246.5z"/>
</g>
<path class="st3" d="M77.8,20.9h356.3c39,0,70.6,31.6,70.6,70.6v329c0,39-31.6,70.6-70.6,70.6H77.8c-39,0-70.6-31.6-70.6-70.6v-329
	C7.3,52.5,38.9,20.9,77.8,20.9z"/>
</svg>
