<svg xmlns="http://www.w3.org/2000/svg" width="49" height="49" fill="none" viewBox="0 0 49 49">
    <path fill="#fff" d="M24.867 7.095c.424 0 .847.108 1.165.306l15.882 9c.572.324.953.864.953 1.494v5.4c0 .99-.953 1.8-2.117 1.8-.424 0-.848-.108-1.165-.306l-14.718-8.334-14.718 8.334c-.317.198-.74.306-1.164.306-1.165 0-2.118-.81-2.118-1.8v-5.4c0-.63.381-1.17.953-1.494l15.883-9c.317-.198.74-.306 1.164-.306z"/>
    <path fill="#fff" d="M24.867 23.095c.424 0 .847.108 1.165.306l15.882 9c.572.324.953.864.953 1.494v5.4c0 .99-.953 1.8-2.117 1.8-.424 0-.848-.108-1.165-.306l-14.718-8.334-14.718 8.334c-.317.198-.74.306-1.164.306-1.165 0-2.118-.81-2.118-1.8v-5.4c0-.63.381-1.17.953-1.494l15.883-9c.317-.198.74-.306 1.164-.306z"/>
</svg>
