<svg width="25" height="25" viewBox="0 0 25 25" fill="none" xmlns="http://www.w3.org/2000/svg">
<path d="M4.96337 13.052H3V12.0308H4.96337V10.2122H6.0754V12.0308H8.03877V13.052H6.0754V14.8475H4.96337V13.052ZM12.7839 15.9061H11.2164V11.9608L11.2311 11.3129L11.2571 10.6045C10.9955 10.8433 10.8154 11.0001 10.7132 11.0749L9.86184 11.7045L9.10576 10.837L11.4961 9.08835H12.7848V15.9061H12.7839ZM17.4018 9C18.112 9 18.6836 9.14883 19.1166 9.4473C19.5531 9.74258 19.7714 10.1421 19.7714 10.6459C19.7714 10.9937 19.6674 11.3049 19.457 11.5787C19.2474 11.8493 18.9088 12.0913 18.4419 12.3062C18.9962 12.58 19.3946 12.8657 19.6345 13.1642C19.8779 13.4595 20 13.785 20 14.1392C20 14.6987 19.761 15.15 19.2846 15.4914C18.8074 15.8305 18.1795 16 17.4018 16C16.5894 16 15.952 15.8408 15.4878 15.524C15.0253 15.2065 14.7932 14.7576 14.7932 14.1758C14.7932 13.7874 14.9049 13.4428 15.1284 13.1411C15.3544 12.8387 15.7173 12.5736 16.2144 12.3436C15.7909 12.0977 15.4869 11.835 15.3007 11.5557C15.1145 11.2755 15.0219 10.9691 15.0219 10.6364C15.0219 10.1485 15.2418 9.75293 15.6818 9.45207C16.1209 9.15043 16.6951 9 17.4018 9ZM16.2447 14.0922C16.2447 14.3596 16.3461 14.5682 16.5487 14.717C16.7523 14.8666 17.0294 14.9406 17.381 14.9406C17.7707 14.9406 18.0609 14.865 18.254 14.7122C18.4471 14.557 18.5433 14.3541 18.5433 14.1018C18.5433 13.8932 18.4471 13.699 18.254 13.5184C18.0643 13.3353 17.7552 13.1411 17.3256 12.9358C16.605 13.2406 16.2447 13.6258 16.2447 14.0922ZM17.3914 10.0538C17.1238 10.0538 16.9073 10.1175 16.7419 10.2448C16.5799 10.369 16.4985 10.5369 16.4985 10.7486C16.4985 10.9348 16.5626 11.1028 16.6916 11.2524C16.8233 11.3981 17.0597 11.5493 17.4018 11.7045C17.7335 11.5612 17.9647 11.4156 18.0973 11.2667C18.2289 11.1171 18.2947 10.9444 18.2947 10.7486C18.2947 10.5337 18.2098 10.3642 18.041 10.24C17.8721 10.1159 17.6556 10.0538 17.3914 10.0538Z" fill="#B5B5B5"/>
<path d="M12.5 24C18.8509 24 24 18.8518 24 12.5C24 6.14913 18.8509 1 12.5 1C6.14913 1 1 6.14913 1 12.5C1 18.8518 6.14913 24 12.5 24Z" stroke="#B5B5B5" stroke-width="1.197" stroke-miterlimit="10"/>
</svg>
