<svg id="Layer_1" data-name="Layer 1" xmlns="http://www.w3.org/2000/svg" viewBox="0 0 40 40"><defs><style>.cls-1{fill:#fff;}.cls-2{fill:none;}</style></defs><title>_</title><path class="cls-1" d="M29.58,3.42H5.72A3.5,3.5,0,0,0,2.23,6.9V33.1a3.5,3.5,0,0,0,3.49,3.48H32.59a3.5,3.5,0,0,0,3.49-3.48V28.2l-13.42.12a1.94,1.94,0,0,1-1.95-1.93V21A1.94,1.94,0,0,1,22.63,19l13.45-.08v-4.8A3.1,3.1,0,0,0,33,11l-24.29.26s-2.5-.12-2.5-2.3,2.5-2.2,2.5-2.2l24.39.11A3.49,3.49,0,0,0,29.58,3.42Z"/><path class="cls-1" d="M36.27,19.54H22.88A1.5,1.5,0,0,0,21.39,21V26.2a1.49,1.49,0,0,0,1.49,1.49H36.27a1.5,1.5,0,0,0,1.5-1.49V21A1.51,1.51,0,0,0,36.27,19.54Zm-11,6.06a2,2,0,1,1,2-2A2,2,0,0,1,25.24,25.6Z"/><rect class="cls-2" width="40" height="40"/><rect class="cls-2" width="40" height="40"/></svg>