<svg width="308" height="306" viewBox="0 0 308 306" fill="none" xmlns="http://www.w3.org/2000/svg">
<g clip-path="url(#clip0_5442_296125)">
<path d="M259.079 258.797C317.267 200.609 317.267 106.266 259.079 48.0779C200.89 -10.1105 106.548 -10.1105 48.3596 48.0779C-9.82891 106.266 -9.82891 200.609 48.3596 258.797C106.548 316.986 200.89 316.986 259.079 258.797Z" fill="url(#paint0_linear_5442_296125)"/>
<path d="M257.4 257.118C314.661 199.857 314.661 107.018 257.4 49.7566C200.139 -7.50476 107.3 -7.50476 50.0383 49.7566C-7.22306 107.018 -7.22306 199.857 50.0383 257.118C107.3 314.38 200.139 314.38 257.4 257.118Z" fill="url(#paint1_linear_5442_296125)"/>
<path d="M154.34 298.972L154.295 286.61L154.821 286.606L154.912 298.969L154.342 298.972H154.34ZM152.62 298.969L152.053 298.963L152.182 286.601L152.71 286.606L152.618 298.969H152.62ZM156.628 298.943L156.4 286.582L156.926 286.571L157.199 298.931L156.628 298.943ZM150.332 298.933L149.737 298.918L150.097 286.562L150.602 286.575L150.33 298.935L150.332 298.933ZM158.912 298.881L158.504 286.524L159.006 286.506L159.505 298.857L158.912 298.879V298.881ZM148.02 298.862L147.449 298.838L147.99 286.487L148.517 286.507L148.02 298.861V298.862ZM161.249 298.78L160.587 286.435L161.115 286.407L161.794 298.75L161.251 298.778L161.249 298.78ZM145.731 298.758L145.161 298.726L145.884 286.384L146.412 286.414L145.733 298.758H145.731ZM163.507 298.648L162.691 286.312L163.218 286.276L164.076 298.609L163.507 298.648ZM143.447 298.616L142.874 298.575L143.781 286.246L144.305 286.284L143.447 298.616ZM165.79 298.478L164.798 286.155L165.32 286.112L166.363 298.43L165.79 298.476V298.478ZM141.16 298.437L140.569 298.385L141.696 286.073L142.201 286.118L141.159 298.435L141.16 298.437ZM168.076 298.273L166.896 285.967L167.399 285.916L168.666 298.215L168.076 298.273ZM138.857 298.223L138.289 298.163L139.6 285.87L140.125 285.924L138.859 298.223H138.857ZM170.424 298.023L168.97 285.747L169.492 285.687L170.943 297.964L170.424 298.023ZM136.582 297.975L135.991 297.904L137.524 285.637L138.026 285.696L136.58 297.975H136.582ZM172.651 297.753L171.062 285.493L171.588 285.424L173.216 297.68L172.651 297.755V297.753ZM134.307 297.689L133.74 297.613L135.413 285.364L135.935 285.435L134.307 297.691V297.689ZM174.911 297.439L173.156 285.202L173.651 285.129L175.506 297.352L174.911 297.439ZM132.037 297.369L131.45 297.279L133.35 285.064L133.85 285.139L132.037 297.369ZM177.179 297.091L175.236 284.883L175.736 284.801L177.768 296.996L177.181 297.091H177.179ZM129.755 297.009L129.184 296.912L131.275 284.728L131.788 284.814L129.755 297.009ZM179.441 296.705L177.313 284.527L177.809 284.437L180.025 296.6L179.439 296.705H179.441ZM127.495 296.615L126.907 296.507L129.218 284.361L129.71 284.452L127.495 296.615ZM181.713 296.281L179.366 284.143L179.879 284.042L182.278 296.169L181.711 296.28L181.713 296.281ZM125.244 296.186L124.66 296.069L127.146 283.958L127.642 284.059L125.244 296.186ZM183.96 295.824L181.431 283.723L181.921 283.619L184.545 295.7L183.96 295.824ZM122.998 295.724L122.418 295.597L125.087 283.526L125.581 283.634L123 295.724H122.998ZM186.214 295.33L183.471 283.276L183.976 283.16L186.783 295.2L186.214 295.33ZM120.738 295.218L120.18 295.088L123.03 283.057L123.543 283.179L120.736 295.218H120.738ZM188.424 294.806L185.543 282.785L186.024 282.666L189.012 294.663L188.424 294.806ZM118.508 294.683L117.931 294.538L121.005 282.563L121.495 282.686L118.508 294.683ZM190.675 294.237L187.561 282.272L188.066 282.14L191.235 294.09L190.675 294.237ZM116.287 294.113L115.735 293.965L118.944 282.026L119.455 282.162L116.287 294.113ZM192.889 293.639L189.594 281.722L190.097 281.582L193.445 293.482L192.889 293.639ZM114.075 293.506L113.499 293.342L116.943 281.469L117.422 281.605L114.075 293.506ZM195.099 293.005L191.613 281.144L192.098 280.999L195.667 292.835L195.099 293.005ZM111.854 292.859L111.3 292.691L114.923 280.872L115.423 281.023L111.854 292.859ZM197.312 292.33L193.607 280.536L194.103 280.379L197.862 292.156L197.31 292.33H197.312ZM109.663 292.182L109.103 292.003L112.904 280.24L113.396 280.396L109.663 292.182ZM199.515 291.621L195.593 279.896L196.108 279.725L200.044 291.444L199.515 291.621ZM107.468 291.468L106.904 291.278L110.908 279.581L111.391 279.744L107.469 291.468H107.468ZM201.672 290.886L197.601 279.214L198.101 279.039L202.213 290.696L201.674 290.886H201.672ZM105.291 290.718L104.743 290.524L108.894 278.88L109.388 279.055L105.291 290.718ZM203.823 290.116L199.591 278.501L200.074 278.324L204.375 289.915L203.825 290.118L203.823 290.116ZM103.12 289.933L102.583 289.734L106.91 278.153L107.406 278.337L103.12 289.933ZM206.003 289.297L201.529 277.772L202.042 277.573L206.516 289.098L206.003 289.297ZM100.95 289.109L100.428 288.906L104.941 277.396L105.446 277.593L100.948 289.109H100.95ZM208.136 288.456L203.491 277L203.992 276.797L208.655 288.247L208.136 288.458V288.456ZM98.807 288.255L98.2886 288.042L102.988 276.609L103.49 276.814L98.8051 288.255H98.807ZM210.236 287.589L205.443 276.193L205.911 275.993L210.775 287.36L210.234 287.589H210.236ZM96.6773 287.367L96.1701 287.149L101.039 275.786L101.547 276.004L96.6773 287.367ZM212.349 286.679L207.353 275.37L207.836 275.156L212.869 286.448L212.349 286.679ZM94.57 286.448L94.0571 286.218L99.111 274.936L99.6052 275.158L94.5681 286.448H94.57ZM214.432 285.743L209.268 274.511L209.738 274.292L214.956 285.5L214.43 285.743H214.432ZM92.4701 285.493L91.961 285.256L97.1995 274.057L97.6899 274.287L92.4682 285.493H92.4701ZM216.508 284.769L211.161 273.623L211.627 273.397L217.028 284.518L216.508 284.769ZM90.4057 284.514L89.8816 284.26L95.3029 273.149L95.771 273.377L90.4057 284.514ZM218.559 283.764L213.048 272.698L213.52 272.461L219.066 283.509L218.557 283.764H218.559ZM88.3356 283.492L87.8172 283.229L93.4175 272.208L93.8818 272.442L88.3356 283.49V283.492ZM220.612 282.722L214.904 271.756L215.381 271.508L221.108 282.464L220.612 282.722ZM86.2861 282.438L85.7901 282.177L91.5358 271.23L92.0132 271.482L86.2861 282.438ZM222.623 281.661L216.771 270.772L217.226 270.525L223.134 281.386L222.624 281.663L222.623 281.661ZM84.2515 281.353L83.7406 281.073L89.697 270.242L90.1539 270.492L84.2497 281.353H84.2515ZM224.652 280.545L218.587 269.772L219.055 269.509L225.14 280.271L224.652 280.545ZM82.2356 280.236L81.747 279.958L87.847 269.205L88.317 269.472L82.2356 280.236ZM226.619 279.425L220.433 268.722L220.871 268.467L227.132 279.126L226.621 279.425H226.619ZM80.2458 279.091L79.7534 278.802L86.0269 268.15L86.4857 268.418L80.2458 279.091ZM228.605 278.252L222.225 267.663L222.684 267.385L229.084 277.963L228.605 278.252ZM78.2652 277.908L77.7673 277.605L84.2348 267.068L84.6786 267.338L78.2652 277.907V277.908ZM230.547 277.066L224.027 266.562L224.465 266.288L231.039 276.76L230.547 277.067V277.066ZM76.3071 276.698L75.8316 276.398L82.437 265.949L82.892 266.236L76.3071 276.7V276.698ZM232.495 275.829L225.785 265.447L226.229 265.158L232.971 275.521L232.493 275.829H232.495ZM74.3714 275.458L73.8939 275.147L80.6691 264.806L81.1129 265.097L74.3714 275.46V275.458ZM234.414 274.57L227.535 264.298L227.98 264L234.879 274.259L234.412 274.572L234.414 274.57ZM72.4524 274.186L71.9694 273.86L78.931 263.644L79.3618 263.935L72.4524 274.186ZM236.419 273.207L229.269 263.12L229.709 262.814L236.775 272.959L236.419 273.207ZM70.5427 272.877L70.0914 272.562L77.1873 262.437L77.6386 262.753L70.5427 272.877ZM238.189 271.965L230.99 261.913L231.425 261.602L238.644 271.637L238.187 271.965H238.189ZM68.6797 271.557L68.2079 271.215L75.4884 261.223L75.908 261.527L68.6797 271.557ZM240.138 270.548L232.687 260.683L233.118 260.364L240.499 270.281L240.138 270.55V270.548ZM66.813 270.188L66.3728 269.858L73.7821 259.963L74.2222 260.293L66.813 270.188ZM241.879 269.242L234.37 259.424L234.795 259.099L242.329 268.901L241.881 269.244L241.879 269.242ZM64.9947 268.81L64.5341 268.453L72.1242 258.695L72.5344 259.012L64.9947 268.81ZM243.692 267.836L236.029 258.133L236.445 257.803L244.134 267.482L243.69 267.834L243.692 267.836ZM63.1858 267.392L62.7307 267.029L70.47 257.387L70.8747 257.712L63.1858 267.391V267.392ZM245.471 266.413L237.683 256.813L238.084 256.485L245.923 266.046L245.473 266.413H245.471ZM61.388 265.938L60.9628 265.587L68.827 256.05L69.2522 256.401L61.388 265.938ZM247.252 264.94L239.289 255.485L239.698 255.14L247.683 264.576L247.252 264.94ZM59.635 264.476L59.1912 264.099L67.2288 254.706L67.6242 255.041L59.635 264.476ZM248.998 263.454L240.889 254.122L241.29 253.773L249.425 263.083L248.998 263.456V263.454ZM57.8951 262.976L57.4568 262.592L65.6399 253.324L66.0297 253.665L57.8951 262.974V262.976ZM250.758 261.902L242.465 252.734L242.862 252.376L251.14 261.559L250.758 261.902ZM56.1794 261.451L55.7486 261.059L64.0734 251.919L64.4576 252.268L56.1794 261.451ZM252.405 260.405L244.033 251.308L244.414 250.955L252.832 260.009L252.405 260.405ZM54.4879 259.899L54.0627 259.502L62.5293 250.493L62.9079 250.847L54.4898 259.901L54.4879 259.899ZM254.091 258.823L245.555 249.881L245.941 249.512L254.499 258.432L254.091 258.823ZM52.8226 258.32L52.403 257.915L61.0076 249.038L61.3805 249.398L52.8226 258.318V258.32ZM255.741 257.227L247.068 248.417L247.448 248.042L256.144 256.828L255.741 257.225V257.227ZM51.1703 256.705L50.7693 256.306L59.5119 247.563L59.8905 247.94L51.1721 256.705H51.1703ZM257.364 255.606L248.554 246.933L248.927 246.552L257.759 255.203L257.362 255.608L257.364 255.606ZM49.5534 255.075L49.1599 254.668L58.0368 246.064L58.4079 246.446L49.5553 255.075H49.5534ZM258.962 253.958L250.02 245.422L250.387 245.036L259.352 253.549L258.962 253.96V253.958ZM47.9757 253.43L47.5766 253.007L56.5859 244.54L56.9402 244.917L47.9757 253.43ZM260.534 252.287L251.461 243.891L251.823 243.499L260.92 251.871L260.536 252.287H260.534ZM46.4111 251.752L46.0194 251.323L55.1593 242.998L55.508 243.38L46.4111 251.752ZM262.093 250.577L252.867 242.347L253.233 241.937L262.459 250.166L262.093 250.577ZM44.8613 250.034L44.4865 249.611L53.755 241.428L54.1093 241.828L44.8613 250.032V250.034ZM263.602 248.867L254.27 240.758L254.62 240.353L263.971 248.439L263.602 248.867ZM43.3527 248.309L42.9741 247.867L52.3899 239.855L52.7274 240.249L43.3527 248.309ZM265.095 247.123L255.64 239.16L255.972 238.763L265.47 246.677L265.095 247.123ZM41.8701 246.558L41.5083 246.121L51.0285 238.233L51.3679 238.641L41.8701 246.556V246.558ZM266.561 245.355L256.983 237.539L257.31 237.136L266.927 244.904L266.559 245.355H266.561ZM40.4155 244.782L40.0611 244.344L49.7026 236.605L50.0383 237.021L40.4155 244.782ZM268.01 243.55L258.29 235.909L258.63 235.477L268.35 243.115L268.01 243.548V243.55ZM38.9888 242.987L38.6326 242.528L48.414 234.966L48.731 235.374L38.9888 242.985V242.987ZM269.409 241.746L259.59 234.236L259.905 233.822L269.761 241.284L269.409 241.746ZM37.592 241.17L37.2507 240.717L47.1309 233.285L47.4498 233.709L37.5939 241.17H37.592ZM270.791 239.911L260.857 232.553L261.164 232.135L271.136 239.445L270.791 239.913V239.911ZM36.2213 239.33L35.8894 238.874L45.8814 231.594L46.1966 232.027L36.2213 239.328V239.33ZM272.145 238.048L262.093 230.85L262.393 230.427L272.48 237.573L272.143 238.046L272.145 238.048ZM34.8805 237.47L34.5522 237.006L44.6618 229.889L44.9676 230.322L34.8805 237.47ZM273.467 236.172L263.307 229.129L263.602 228.702L273.797 235.695L273.467 236.174V236.172ZM33.5694 235.587L33.2412 235.107L43.4795 228.176L43.7704 228.603L33.5694 235.585V235.587ZM274.761 234.268L264.487 227.389L264.775 226.956L275.082 233.783L274.759 234.268H274.761ZM32.2976 233.698L31.9768 233.213L42.3046 226.419L42.5899 226.852L32.2976 233.698ZM276.035 232.334L265.638 225.645L265.929 225.192L276.339 231.861L276.035 232.334ZM31.0388 231.762L30.7441 231.299L41.1595 224.642L41.4542 225.104L31.0388 231.762ZM277.269 230.389L266.766 223.87L267.05 223.411L277.566 229.91L277.269 230.387V230.389ZM29.8173 229.819L29.5226 229.341L40.0593 222.874L40.3409 223.331L29.8173 229.819ZM278.465 228.44L267.876 222.061L268.143 221.615L278.763 227.943L278.465 228.44ZM28.6349 227.874L28.3384 227.376L38.9795 221.082L39.2443 221.525L28.6349 227.874ZM279.643 226.447L268.941 220.259L269.217 219.782L279.919 225.968L279.643 226.445V226.447ZM27.475 225.893L27.1971 225.406L37.9184 219.254L38.185 219.72L27.4731 225.893H27.475ZM280.775 224.463L269.991 218.417L270.244 217.962L281.057 223.953L280.774 224.463H280.775ZM26.3467 223.894L26.067 223.387L36.9076 217.443L37.1575 217.896L26.3467 223.892V223.894ZM281.896 222.424L270.998 216.591L271.253 216.115L282.163 221.93L281.898 222.424H281.896ZM25.2502 221.88L24.9872 221.386L35.9043 215.586L36.1579 216.061L25.2502 221.88ZM282.965 220.405L271.99 214.715L272.229 214.252L283.232 219.89L282.965 220.406V220.405ZM24.1853 219.847L23.9261 219.34L34.9476 213.74L35.1882 214.209L24.1853 219.847ZM284.011 218.35L272.945 212.839L273.176 212.373L284.27 217.829L284.013 218.35H284.011ZM23.1615 217.816L22.906 217.298L34.0096 211.86L34.2389 212.324L23.1634 217.816H23.1615ZM285.026 216.278L273.87 210.948L274.103 210.459L285.266 215.77L285.026 216.276V216.278ZM22.1638 215.752L21.9176 215.23L33.107 209.974L33.3289 210.442L22.1638 215.752ZM286.006 214.191L274.765 209.046L274.991 208.551L286.238 213.682L286.005 214.191H286.006ZM21.1978 213.672L20.9628 213.154L32.2286 208.067L32.4468 208.546L21.1978 213.672ZM286.954 212.085L275.63 207.123L275.852 206.617L287.176 211.58L286.954 212.085ZM20.2672 211.587L20.0378 211.058L31.3857 206.155L31.5927 206.631L20.2672 211.589V211.587ZM287.864 209.974L276.468 205.182L276.678 204.682L288.08 209.458L287.864 209.974ZM19.3683 209.48L19.1464 208.947L30.5744 204.23L30.7721 204.708L19.3664 209.48H19.3683ZM288.744 207.841L277.271 203.235L277.473 202.729L288.951 207.321L288.742 207.841H288.744ZM18.4955 207.343L18.2904 206.824L29.7837 202.272L29.9851 202.776L18.4974 207.343H18.4955ZM289.589 205.694L278.043 201.275L278.237 200.765L289.788 205.17L289.589 205.693V205.694ZM17.6619 205.208L17.4643 204.685L29.0247 200.305L29.2168 200.812L17.6619 205.208ZM290.4 203.54L278.789 199.294L278.968 198.804L290.598 202.996L290.398 203.542L290.4 203.54ZM16.8619 203.052L16.6717 202.526L28.3011 198.334L28.4858 198.845L16.86 203.052H16.8619ZM291.176 201.368L279.498 197.31L279.67 196.816L291.366 200.82L291.176 201.368ZM16.0973 200.889L15.9089 200.342L27.6149 196.364L27.7846 196.859L16.0973 200.89V200.889ZM291.911 199.208L280.186 195.286L280.343 194.809L292.097 198.638L291.909 199.208H291.911ZM15.3663 198.708L15.1966 198.184L26.9472 194.343L27.1169 194.865L15.3663 198.707V198.708ZM292.625 196.989L280.828 193.297L280.984 192.789L292.797 196.441L292.625 196.989ZM14.6688 196.525L14.4935 195.95L26.3299 192.381L26.4754 192.858L14.6688 196.523V196.525ZM293.291 194.802L281.441 191.273L281.59 190.766L293.451 194.251L293.289 194.8L293.291 194.802ZM14.0086 194.328L13.8426 193.752L25.7313 190.361L25.8693 190.842L14.0086 194.328ZM293.925 192.597L282.025 189.25L282.159 188.767L294.085 192.019L293.925 192.597ZM13.3783 192.101L13.2272 191.544L25.1663 188.332L25.3024 188.836L13.3783 192.099V192.101ZM294.527 190.367L282.569 187.23L282.698 186.73L294.673 189.804L294.525 190.367H294.527ZM12.7853 189.88L12.6435 189.326L24.6292 186.296L24.7597 186.807L12.7853 189.88ZM295.085 188.164L283.092 185.166L283.209 184.685L295.228 187.577L295.085 188.164ZM12.2314 187.655L12.0934 187.077L24.1331 184.271L24.2506 184.763L12.2314 187.655ZM295.618 185.906L283.569 183.142L283.685 182.631L295.747 185.343L295.62 185.906H295.618ZM11.7111 185.421L11.5824 184.841L23.6632 182.217L23.7732 182.711L11.7111 185.423V185.421ZM296.109 183.672L284.02 181.082L284.121 180.597L296.232 183.083L296.107 183.672H296.109ZM11.2281 183.18L11.1087 182.596L23.2268 180.155L23.3293 180.651L11.2281 183.18ZM296.565 181.419L284.438 179.021L284.533 178.529L296.679 180.832L296.565 181.419ZM10.7749 180.914L10.6686 180.347L22.824 178.088L22.9209 178.603L10.7749 180.914ZM296.987 179.164L284.824 176.949L284.912 176.453L297.09 178.581L296.987 179.166V179.164ZM10.3628 178.659L10.2602 178.07L22.4547 176.037L22.5386 176.531L10.3609 178.659H10.3628ZM297.375 176.887L285.175 174.892L285.259 174.375L297.466 176.319L297.375 176.887ZM9.98605 176.397L9.89467 175.806L22.1172 173.956L22.1936 174.452L9.98605 176.395V176.397ZM297.724 174.623L285.495 172.805L285.566 172.311L297.809 174.029L297.724 174.623ZM9.64478 174.131L9.56272 173.542L21.8113 171.869L21.8822 172.371L9.64478 174.131ZM298.048 172.262L285.779 170.746L285.846 170.22L298.111 171.759L298.048 172.262ZM9.33707 171.839L9.26621 171.272L21.5372 169.778L21.6024 170.302L9.33707 171.841V171.839ZM298.317 170.054L286.034 168.65L286.092 168.128L298.38 169.482L298.317 170.053V170.054ZM9.06853 169.562L9.01258 169.047L21.3003 167.679L21.3563 168.206L9.06853 169.562ZM298.557 167.774L286.254 166.558L286.305 166.03L298.611 167.207L298.557 167.776V167.774ZM8.83542 167.285L8.78133 166.692L21.0952 165.605L21.1418 166.106L8.83542 167.283V167.285ZM298.762 165.493L286.445 164.454L286.486 163.951L298.813 164.9L298.764 165.493H298.762ZM8.63587 164.98L8.59298 164.409L20.9218 163.503L20.9628 164.029L8.63587 164.98ZM298.934 163.186L286.598 162.373L286.631 161.845L298.969 162.614L298.932 163.184L298.934 163.186ZM8.47363 162.694L8.4382 162.101L20.7819 161.42L20.8117 161.924L8.47363 162.692V162.694ZM299.066 160.9L286.721 160.268L286.747 159.742L299.096 160.329L299.068 160.902L299.066 160.9ZM8.34868 160.407L8.32257 159.837L20.6737 159.294L20.698 159.822L8.34868 160.409V160.407ZM299.165 158.611L286.81 158.16L286.827 157.655L299.184 158.017L299.165 158.611ZM8.25917 158.127L8.24238 157.532L20.601 157.215L20.6159 157.716L8.25917 158.125V158.127ZM299.227 156.323L286.866 156.053L286.875 155.547L299.236 155.728L299.225 156.323H299.227ZM8.20322 155.818L8.19576 155.247L20.5562 155.111L20.5637 155.637L8.20322 155.818ZM299.253 154.009L286.89 153.964V153.259H299.255V154.009H299.253ZM8.18457 153.528V152.952L20.5469 153.006V153.438L8.18457 153.528ZM286.881 151.676L286.874 151.172L299.234 150.945L299.243 151.538L286.883 151.674L286.881 151.676ZM20.5618 151.419L8.20135 151.238L8.21068 150.676L20.5712 150.891L20.5618 151.419ZM286.836 149.571L286.821 149.069L299.178 148.66L299.195 149.255L286.836 149.572V149.571ZM20.6103 149.309L8.25357 148.948L8.27222 148.353L20.6271 148.804L20.6103 149.309ZM286.762 147.471L286.739 146.967L299.089 146.38L299.115 146.975L286.762 147.473V147.471ZM20.6887 147.224L8.33936 146.637L8.36733 146.065L20.7148 146.697L20.6887 147.223V147.224ZM286.654 145.388L286.622 144.86L298.96 144.091L298.995 144.662L286.654 145.388ZM20.8024 145.119L8.4643 144.351L8.49974 143.78L20.836 144.593L20.8024 145.121V145.119ZM286.512 143.282L286.473 142.779L298.796 141.783L298.842 142.376L286.514 143.282H286.512ZM20.9479 143.014L8.62095 142.064L8.66385 141.531L20.9889 142.486L20.9479 143.012V143.014ZM286.338 141.203L286.29 140.679L298.596 139.502L298.649 140.073L286.338 141.203ZM21.1269 140.912L8.81677 139.782L8.87271 139.191L21.1754 140.406L21.1269 140.912ZM286.128 139.084L286.074 138.581L298.361 137.227L298.425 137.816L286.128 139.086V139.084ZM21.3376 138.836L9.04988 137.482L9.11329 136.912L21.3954 138.316L21.3376 138.838V138.836ZM285.889 137.01L285.824 136.486L298.089 134.948L298.16 135.515L285.889 137.009V137.01ZM21.5819 136.744L9.31656 135.205L9.39115 134.618L21.6472 136.24L21.5819 136.744ZM285.617 134.918L285.548 134.422L297.783 132.654L297.867 133.247L285.619 134.92L285.617 134.918ZM21.8617 134.651L9.61867 132.934L9.70446 132.339L21.9325 134.157L21.8617 134.65V134.651ZM285.311 132.852L285.229 132.333L297.436 130.388L297.526 130.957L285.309 132.85L285.311 132.852ZM22.1712 132.568L9.95622 130.668L10.0495 130.079L22.2496 132.074L22.1712 132.568ZM284.973 130.772L284.884 130.256L297.062 128.128L297.16 128.695L284.973 130.771V130.772ZM22.5106 130.511L10.3329 128.384L10.4318 127.82L22.602 129.993L22.5106 130.511ZM284.598 128.699L284.501 128.184L296.648 125.873L296.754 126.44L284.598 128.699ZM22.8892 128.434L10.7432 126.131L10.8532 125.566L22.9899 127.919L22.8911 128.434H22.8892ZM284.194 126.632L284.091 126.136L296.192 123.608L296.312 124.191L284.194 126.632ZM23.2995 126.368L11.1889 123.882L11.3139 123.292L23.4021 125.883L23.3014 126.368H23.2995ZM283.761 124.594L283.646 124.077L295.708 121.366L295.833 121.925L283.761 124.594ZM23.7359 124.329L11.6738 121.618L11.8006 121.054L23.8515 123.818L23.7359 124.329ZM283.291 122.539L283.168 122.026L295.187 119.134L295.322 119.691L283.291 122.541V122.539ZM24.2114 122.276L12.1922 119.384L12.3284 118.822L24.3364 121.767L24.2133 122.276H24.2114ZM282.788 120.493L282.657 119.982L294.632 116.909L294.773 117.463L282.788 120.493ZM24.7187 120.232L12.7442 117.159L12.8971 116.573L24.8436 119.753L24.7187 120.232ZM282.252 118.457L282.122 117.974L294.033 114.667L294.191 115.245L282.252 118.455V118.457ZM25.2576 118.196L13.3317 114.943L13.4939 114.36L25.39 117.72L25.2576 118.196ZM281.682 116.422L281.544 115.947L293.404 112.461L293.572 113.043L281.68 116.422H281.682ZM25.8302 116.168L13.9527 112.737L14.1224 112.161L25.9719 115.689L25.832 116.17L25.8302 116.168ZM281.091 114.429L280.938 113.931L292.744 110.266L292.914 110.82L281.091 114.43V114.429ZM26.4306 114.164L14.6147 110.525L14.7937 109.951L26.5798 113.684L26.4306 114.166V114.164ZM280.46 112.426L280.296 111.924L292.047 108.082L292.224 108.627L280.46 112.428V112.426ZM27.0684 112.152L15.314 108.323L15.4949 107.771L27.2325 111.654L27.0684 112.152ZM279.804 110.447L279.627 109.934L291.314 105.902L291.495 106.43L279.804 110.447ZM27.7398 110.145L16.0432 106.141L16.2409 105.572L27.9039 109.669L27.7379 110.145H27.7398ZM279.108 108.457L278.924 107.946L290.547 103.739L290.738 104.265L279.108 108.457ZM28.441 108.157L16.8115 103.965L17.0092 103.418L28.62 107.665L28.441 108.155V108.157ZM278.383 106.486L278.191 105.979L289.746 101.583L289.943 102.105L278.383 106.486ZM29.1758 106.173L17.6097 101.807L17.8167 101.264L29.3623 105.684L29.1758 106.173ZM277.626 104.528L277.422 104.017L288.91 99.4498L289.113 99.9607L277.626 104.528ZM29.9385 104.209L18.4452 99.6568L18.6597 99.1178L30.1306 103.724L29.9366 104.209H29.9385ZM276.841 102.583L276.634 102.085L288.039 97.3126L288.254 97.8254L276.842 102.581L276.841 102.583ZM30.7348 102.258L19.3161 97.5196L19.5361 96.9918L30.9381 101.77L30.7329 102.26L30.7348 102.258ZM276.026 100.658L275.811 100.164L287.137 95.2053L287.358 95.7162L276.026 100.656V100.658ZM31.5591 100.321L20.2206 95.3955L20.4499 94.8715L31.7736 99.8339L31.561 100.321H31.5591ZM275.181 98.7467L274.953 98.2469L286.202 93.1203L286.43 93.6201L275.181 98.7467ZM32.4207 98.3886L21.1549 93.2975L21.3954 92.7697L32.637 97.915L32.4207 98.3905V98.3886ZM274.295 96.8221L274.073 96.354L285.238 91.0447L285.484 91.5669L274.295 96.8221ZM33.3065 96.4771L22.1265 91.2032L22.3764 90.6773L33.5321 96.0072L33.3084 96.4771H33.3065ZM273.389 94.9367L273.159 94.4724L284.235 88.9803L284.49 89.4987L273.387 94.9367H273.389ZM34.2222 94.5843L23.1279 89.1276L23.3909 88.598L34.4478 94.1274L34.2203 94.5843H34.2222ZM272.456 93.0662L272.219 92.6056L283.204 86.9326L283.468 87.4473L272.456 93.0662ZM35.1695 92.7045L24.1667 87.0669L24.4278 86.5596L35.412 92.2326L35.1695 92.7045ZM271.486 91.2014L271.238 90.7351L282.146 84.9167L282.413 85.4202L271.485 91.1995L271.486 91.2014ZM36.1449 90.8396L25.2353 85.0248L25.5094 84.512L36.3892 90.3808L36.143 90.8396H36.1449ZM270.492 89.3588L270.237 88.8982L281.048 82.9026L281.324 83.4024L270.492 89.3607V89.3588ZM37.15 88.9915L26.3374 82.9996L26.6097 82.5091L37.413 88.5196L37.15 88.9915ZM269.467 87.5275L269.209 87.0781L279.921 80.9053L280.21 81.407L269.469 87.5257L269.467 87.5275ZM38.1794 87.1695L27.4768 80.9836L27.7529 80.5062L38.4555 86.6921L38.1794 87.1695ZM268.415 85.7167L268.15 85.2729L278.759 78.9248L279.056 79.4227L268.415 85.7167ZM39.2499 85.3381L28.6294 79.0106L28.9221 78.5201L39.524 84.8812L39.2499 85.3381ZM267.339 83.9339L267.052 83.4677L277.575 76.9797L277.862 77.4459L267.339 83.9339ZM40.3427 83.5404L29.8266 77.0413L30.1343 76.5471L40.6169 83.0984L40.3427 83.5404ZM266.222 82.1417L265.938 81.6941L276.354 75.0365L276.66 75.5158L266.222 82.1417ZM41.4617 81.7594L31.0518 75.0906L31.3558 74.6169L41.7526 81.3063L41.4617 81.7594ZM265.084 80.3831L264.799 79.9505L275.091 73.1045L275.412 73.5893L265.084 80.3831ZM42.6123 79.9915L32.305 73.1641L32.609 72.7054L42.9163 79.5327L42.6123 79.9915ZM263.921 78.6413L263.618 78.1975L273.819 71.2153L274.136 71.6797L263.921 78.6413ZM43.7872 78.2478L33.5918 71.2545L33.9107 70.7901L44.0911 77.8021L43.7872 78.246V78.2478ZM262.725 76.9126L262.419 76.4799L272.507 69.3337L272.833 69.798L262.723 76.9144L262.725 76.9126ZM44.9938 76.5191L34.9066 69.3728L35.2367 68.9085L45.3033 76.0846L44.9956 76.5191H44.9938ZM261.506 75.2081L261.19 74.7754L271.166 67.4744L271.498 67.9294L261.506 75.2099V75.2081ZM46.2209 74.8146L36.2493 67.5042L36.5831 67.0492L46.5379 74.3801L46.219 74.8127L46.2209 74.8146ZM260.256 73.5185L259.937 73.0951L269.793 65.6337L270.134 66.0869L260.254 73.5185H260.256ZM47.4796 73.125L37.6237 65.6636L37.8997 65.298L47.8041 72.6961L47.4796 73.1231V73.125ZM258.982 71.8513L258.652 71.4279L268.394 63.8173L268.741 64.2612L258.982 71.8513ZM48.7552 71.469L39.0354 63.8304L39.3748 63.3977L49.0946 71.0363L48.7552 71.469ZM257.681 70.2008L257.356 69.798L266.957 62.0102L267.322 62.4615L257.681 70.2008ZM50.0737 69.8092L40.4565 62.042L40.8239 61.5906L50.4019 69.4064L50.0756 69.8092H50.0737ZM256.355 68.5728L256.015 68.1644L265.513 60.2498L265.875 60.6862L256.355 68.5747V68.5728ZM51.409 68.1812L41.9111 60.2666L42.2859 59.8209L51.7409 67.7839L51.409 68.1812ZM255.003 66.9653L254.654 66.5587L264.029 58.4987L264.396 58.9276L255.003 66.9653ZM52.7703 66.5755L43.3974 58.5154L43.7685 58.0865L53.1191 66.1727L52.7703 66.5755ZM253.625 65.3782L253.27 64.9791L262.518 56.7736L262.893 57.1951L253.625 65.3782ZM54.1448 65.0053L44.9192 56.7755L45.2847 56.3652L54.5103 64.595L54.1448 65.0053ZM252.222 63.8117L251.873 63.4294L260.97 55.0579L261.362 55.4869L252.222 63.8117ZM55.5546 63.4425L46.4577 55.071L46.8307 54.6663L55.9276 63.0378L55.5546 63.4425ZM250.794 62.2676L250.439 61.8909L259.404 53.3777L259.803 53.801L250.794 62.2676ZM56.9887 61.9039L48.0242 53.3907L48.414 52.9804L57.3561 61.516L56.9887 61.9039ZM249.343 60.7477L248.981 60.3766L257.813 51.7254L258.22 52.1412L249.343 60.7458V60.7477ZM58.4471 60.3878L49.615 51.7366L50.0122 51.3337L58.8219 60.0074L58.4489 60.3878H58.4471ZM247.866 59.2483L247.498 58.8828L256.194 50.0973L256.606 50.5076L247.864 59.2502L247.866 59.2483ZM59.9297 58.8959L51.2337 50.1104L51.6365 49.7132L60.3101 58.5229L59.9297 58.8977V58.8959ZM246.366 57.7751L245.993 57.4152L254.551 48.4954L254.971 48.8982L246.366 57.7751ZM61.4328 57.4245L52.8748 48.5047L53.2832 48.1131L61.8188 57.0552L61.4328 57.4245ZM244.845 56.3223L244.466 55.968L252.884 46.914L253.309 47.3112L244.843 56.3205L244.845 56.3223ZM62.9601 55.9811L54.542 46.927L54.956 46.5429L63.3517 55.6155L62.9601 55.9792V55.9811ZM243.312 54.905L242.916 54.547L251.195 45.3642L251.579 45.7111L243.314 54.905H243.312ZM64.5098 54.5581L56.2316 45.3754L56.653 44.9969L64.9052 54.202L64.5098 54.5581ZM241.732 53.4914L241.342 53.1502L249.477 43.8406L249.915 44.2248L241.732 53.4933V53.4914ZM66.0819 53.1632L57.9473 43.8537L58.3743 43.4807L66.4829 52.8126L66.0819 53.1613V53.1632ZM240.154 52.1226L239.746 51.7757L247.735 42.3413L248.166 42.7068L240.154 52.1226ZM67.6857 51.7813L59.6742 42.3655L60.118 41.9907L68.0811 51.4456L67.6857 51.7795V51.7813ZM238.543 50.7668L238.133 50.4293L245.971 40.868L246.409 41.2298L238.545 50.7668H238.543ZM69.2877 50.4461L61.4495 40.8866L61.8859 40.5304L69.7017 50.1085L69.2877 50.4479V50.4461ZM236.913 49.4409L236.495 49.1071L244.184 39.4264L244.554 39.7211L236.913 49.4409ZM70.9213 49.1257L63.2324 39.4451L63.6762 39.0926L71.3391 48.7956L70.9213 49.1257ZM235.259 48.1373L234.834 47.8091L242.374 38.011L242.819 38.356L235.257 48.1355L235.259 48.1373ZM72.5755 47.8334L65.0413 38.0315L65.4889 37.6884L73.0007 47.507L72.5755 47.8315V47.8334ZM233.584 46.8599L233.157 46.541L240.539 36.6235L240.994 36.9629L233.584 46.858V46.8599ZM74.2501 46.5652L66.8689 36.6477L67.3239 36.3102L74.6772 46.2482L74.252 46.5652H74.2501ZM231.878 45.6011L231.458 45.2971L238.687 35.2677L239.159 35.609L231.878 45.6011ZM75.9565 45.3158L68.7058 35.3013L69.1776 34.9619L76.3761 45.0118L75.9565 45.3139V45.3158ZM230.177 44.3852L229.752 44.0887L236.796 33.9287L237.273 34.2626L230.177 44.387V44.3852ZM77.6554 44.111L70.5894 33.966L71.0556 33.6415L78.0899 43.8089L77.6554 44.111ZM228.434 43.1805L228.003 42.8895L234.912 32.6382L235.395 32.9646L228.434 43.1805ZM79.3823 42.9268L72.4841 32.6681L72.9503 32.3548L79.8299 42.6266L79.3842 42.925L79.3823 42.9268ZM226.694 42.0205L226.25 41.7296L232.991 31.3664L233.469 31.6778L226.696 42.0186L226.694 42.0205ZM81.1446 41.7594L74.3807 31.4111L74.8674 31.096L81.5773 41.4778L81.1446 41.7594ZM224.916 40.8736L224.471 40.592L231.056 30.1281L231.54 30.4339L224.915 40.8717L224.916 40.8736ZM82.8976 40.6367L76.3239 30.1654L76.7883 29.8745L83.362 40.3458L82.8976 40.6367ZM223.126 39.7584L222.682 39.488L229.096 28.9196L229.592 29.2218L223.124 39.7584H223.126ZM84.6786 39.5365L78.2783 28.9588L78.7576 28.6698L85.1374 39.2586L84.6786 39.5365ZM221.334 38.6805L220.875 38.4119L227.115 27.7392L227.607 28.0282L221.334 38.6805ZM86.4931 38.453L80.2327 27.7933L80.7325 27.5023L86.9389 38.1937L86.4913 38.4548L86.4931 38.453ZM219.516 37.625L219.046 37.3583L225.127 26.5941L225.616 26.8701L219.516 37.6231V37.625ZM88.3058 37.4086L82.2207 26.6482L82.7354 26.3592L88.7459 37.1625L88.3039 37.4105L88.3058 37.4086ZM217.679 36.5993L217.205 36.3419L223.109 25.4808L223.602 25.7493L217.679 36.5993ZM90.1353 36.3941L84.2273 25.533L84.7196 25.2663L90.6071 36.1368L90.1353 36.3923V36.3941ZM215.801 35.5885L215.35 35.3516L221.077 24.3954L221.601 24.6714L215.801 35.5885ZM91.9796 35.4095L86.2526 24.4532L86.7579 24.1903L92.4477 35.1652L91.9796 35.4095ZM213.96 34.6337L213.477 34.3894L219.023 23.3418L219.525 23.5935L213.96 34.6337ZM93.8576 34.4434L88.2741 23.4126L88.7907 23.1534L94.3201 34.2103L93.8576 34.4434ZM212.049 33.6826L211.59 33.4588L216.955 22.3217L217.487 22.579L212.049 33.6826ZM95.7318 33.5166L90.3311 22.3963L90.8514 22.1445L96.198 33.2909L95.7318 33.5166ZM210.158 32.7781L209.686 32.558L214.868 21.3351L215.396 21.5813L210.158 32.78V32.7781ZM97.6209 32.6196L92.403 21.4116L92.9195 21.1729L98.1002 32.3977L97.6228 32.6196H97.6209ZM208.244 31.9016L207.769 31.689L212.769 20.3822L213.3 20.619L208.246 31.9016H208.244ZM99.5306 31.7505L94.4805 20.4661L94.9896 20.2404L100.023 31.5324L99.5306 31.7505ZM206.318 31.0531L205.829 30.8442L210.661 19.4647L211.187 19.6884L206.318 31.0512V31.0531ZM101.444 30.9151L96.5803 19.5486L97.0913 19.3304L101.94 30.7025L101.444 30.9132V30.9151ZM204.367 30.2325L203.884 30.0348L208.53 18.577L209.067 18.797L204.367 30.2307V30.2325ZM103.365 30.1113L98.7026 18.6609L99.221 18.4502L103.866 29.908L103.365 30.1113ZM202.407 29.4418L201.928 29.2553L206.387 17.7247L206.935 17.9392L202.407 29.4418ZM105.314 29.3337L100.84 17.8086L101.353 17.6091L105.826 29.1341L105.314 29.3337ZM200.447 28.6903L199.951 28.5056L204.237 16.9098L204.774 17.1093L200.447 28.6903ZM107.283 28.5821L102.982 16.9918L103.507 16.7979L107.792 28.3937L107.283 28.5821ZM198.459 27.9648L197.965 27.7895L202.062 16.1265L202.61 16.3205L198.459 27.9648ZM109.256 27.866L105.144 16.2086L105.662 16.0258L109.774 27.6832L109.256 27.866ZM196.468 27.2729L195.966 27.1032L199.888 15.3787L200.432 15.5614L196.468 27.2711V27.2729ZM111.248 27.1797L107.311 15.4607L107.861 15.2761L111.744 27.0137L111.25 27.1778L111.248 27.1797ZM194.437 26.6035L193.957 26.4505L197.691 14.6644L198.265 14.8491L194.437 26.6035ZM113.251 26.5233L109.491 14.7465L110.022 14.5786L113.769 26.361L113.251 26.5251V26.5233ZM192.432 25.9769L191.953 25.8333L195.481 13.9837L196.055 14.1572L192.432 25.9769ZM115.255 25.9023L111.686 14.0658L112.255 13.8961L115.74 25.7568L115.255 25.9023ZM190.416 25.3838L189.929 25.2439L193.277 13.3441L193.847 13.5063L190.416 25.3838ZM117.277 25.3111L113.886 13.4224L114.465 13.2602L117.76 25.1768L117.277 25.313V25.3111ZM188.387 24.8206L187.898 24.6901L191.067 12.7399L191.641 12.8928L188.389 24.8188L188.387 24.8206ZM119.287 24.7572L116.119 12.807L116.678 12.6597L119.793 24.6229L119.287 24.7553V24.7572ZM186.367 24.2947L185.856 24.166L188.844 12.1692L189.398 12.3072L186.367 24.2929V24.2947ZM121.327 24.2313L118.34 12.2345L118.899 12.0965L121.835 24.1064L121.327 24.2313ZM184.321 23.7968L183.809 23.6756L186.615 11.6359L187.173 11.7664L184.323 23.7968H184.321ZM123.375 23.7353L120.568 11.6955L121.13 11.5669L123.884 23.6196L123.375 23.7371V23.7353ZM182.266 23.3306L181.772 23.2224L184.353 11.1323L184.933 11.2591L182.265 23.3306H182.266ZM125.43 23.2746L122.806 11.1939L123.392 11.0689L125.921 23.1702L125.43 23.2746ZM180.228 22.9016L179.71 22.7991L182.108 10.6717L182.669 10.7836L180.228 22.9016ZM127.493 22.8438L125.052 10.7258L125.639 10.6083L127.985 22.7469L127.493 22.8438ZM178.154 22.5007L177.64 22.4056L179.855 10.2428L180.422 10.3472L178.154 22.5007ZM129.54 22.4541L127.325 10.2913L127.888 10.1887L130.061 22.359L129.542 22.4522L129.54 22.4541ZM176.077 22.1333L175.564 22.0475L177.597 9.85302L178.167 9.94999L176.077 22.1352V22.1333ZM131.616 22.0904L129.583 9.89591L130.148 9.80267L132.136 22.0046L131.616 22.0904ZM173.999 21.7995L173.5 21.723L175.312 9.49496L175.9 9.58261L173.999 21.7995ZM133.701 21.7585L131.844 9.53599L132.438 9.44834L134.193 21.6857L133.699 21.7585H133.701ZM171.916 21.4974L171.415 21.4303L173.043 9.1742L173.632 9.25439L171.914 21.4974H171.916ZM135.765 21.4638L134.137 9.20777L134.701 9.13317L136.289 21.393L135.764 21.462L135.765 21.4638ZM169.848 21.2307L169.324 21.1692L170.769 8.89073L171.338 8.95787L169.85 21.2307H169.848ZM137.858 21.199L136.407 8.92244L136.978 8.8553L138.378 21.1393L137.858 21.199ZM167.75 20.9939L167.248 20.9416L168.47 8.63898L169.063 8.70052L167.752 20.9939H167.75ZM139.952 20.9678L138.686 8.66881L139.204 8.6166L140.48 20.9137L139.954 20.9659L139.952 20.9678ZM165.674 20.7943L165.147 20.7477L166.189 8.43011L166.713 8.47486L165.674 20.7943ZM142.052 20.7682L140.965 8.45435L141.56 8.404L142.552 20.7272L142.05 20.7701L142.052 20.7682ZM163.548 20.6228L163.047 20.5873L163.905 8.25481L164.5 8.2977L163.548 20.6246V20.6228ZM144.131 20.6041L143.273 8.27159L143.842 8.23243L144.659 20.5687L144.131 20.6041ZM161.467 20.4866L160.94 20.4568L161.618 8.11308L162.189 8.14478L161.465 20.4866H161.467ZM146.237 20.4717L145.558 8.128L146.151 8.09629L146.74 20.4437L146.237 20.4698V20.4717ZM159.362 20.3822L158.856 20.3617L159.308 8.00678L159.903 8.03102L159.362 20.3822ZM148.344 20.371L147.844 8.01983L148.437 7.99745L148.846 20.3542L148.344 20.3729V20.371ZM157.275 20.3113L156.747 20.2983L157.02 7.93778L157.577 7.9527L157.275 20.3113ZM150.446 20.3039L150.129 7.94524L150.722 7.93218L150.949 20.2927L150.446 20.3039ZM155.143 20.2722L154.638 20.2666L154.729 7.90421L155.324 7.9098L155.143 20.2703V20.2722ZM152.529 20.2684L152.437 7.90607L153.01 7.90234L153.055 20.2647L152.527 20.2684H152.529Z" fill="url(#paint2_linear_5442_296125)"/>
<path d="M247.134 246.853C298.725 195.261 298.725 111.614 247.134 60.0225C195.542 8.43081 111.895 8.43083 60.3037 60.0225C8.71198 111.614 8.71198 195.261 60.3037 246.852C111.895 298.444 195.542 298.444 247.134 246.853Z" fill="url(#paint3_linear_5442_296125)"/>
</g>
<defs>
<linearGradient id="paint0_linear_5442_296125" x1="4.71799" y1="153.44" x2="302.718" y2="153.44" gradientUnits="userSpaceOnUse">
<stop stop-color="#FFFB90"/>
<stop offset="0.14" stop-color="#FBE978"/>
<stop offset="0.24" stop-color="#F8DC65"/>
<stop offset="0.27" stop-color="#E6C758"/>
<stop offset="0.34" stop-color="#C49F40"/>
<stop offset="0.4" stop-color="#AC832F"/>
<stop offset="0.45" stop-color="#9E7225"/>
<stop offset="0.49" stop-color="#996C22"/>
<stop offset="0.52" stop-color="#9D7125"/>
<stop offset="0.56" stop-color="#A98030"/>
<stop offset="0.6" stop-color="#BD9A42"/>
<stop offset="0.64" stop-color="#D9BE5A"/>
<stop offset="0.69" stop-color="#FBE878"/>
<stop offset="0.77" stop-color="#FFFFAA"/>
<stop offset="0.83" stop-color="#FBE878"/>
<stop offset="1" stop-color="#A4631B"/>
</linearGradient>
<linearGradient id="paint1_linear_5442_296125" x1="50.5999" y1="50.3209" x2="241.982" y2="241.703" gradientUnits="userSpaceOnUse">
<stop stop-color="#FFFB90"/>
<stop offset="0.14" stop-color="#FBE978"/>
<stop offset="0.24" stop-color="#F8DC65"/>
<stop offset="0.27" stop-color="#E6C758"/>
<stop offset="0.34" stop-color="#C49F40"/>
<stop offset="0.4" stop-color="#AC832F"/>
<stop offset="0.45" stop-color="#9E7225"/>
<stop offset="0.49" stop-color="#996C22"/>
<stop offset="0.52" stop-color="#9D7125"/>
<stop offset="0.56" stop-color="#A98030"/>
<stop offset="0.6" stop-color="#BD9A42"/>
<stop offset="0.64" stop-color="#D9BE5A"/>
<stop offset="0.69" stop-color="#FBE878"/>
<stop offset="0.77" stop-color="#FFFFAA"/>
<stop offset="0.83" stop-color="#FBE878"/>
<stop offset="1" stop-color="#A4631B"/>
</linearGradient>
<linearGradient id="paint2_linear_5442_296125" x1="153.719" y1="298.972" x2="153.719" y2="7.90422" gradientUnits="userSpaceOnUse">
<stop stop-color="#FFFB90"/>
<stop offset="0.14" stop-color="#FBE978"/>
<stop offset="0.24" stop-color="#F8DC65"/>
<stop offset="0.27" stop-color="#E6C758"/>
<stop offset="0.34" stop-color="#C49F40"/>
<stop offset="0.4" stop-color="#AC832F"/>
<stop offset="0.45" stop-color="#9E7225"/>
<stop offset="0.49" stop-color="#996C22"/>
<stop offset="0.52" stop-color="#9D7125"/>
<stop offset="0.56" stop-color="#A98030"/>
<stop offset="0.6" stop-color="#BD9A42"/>
<stop offset="0.64" stop-color="#D9BE5A"/>
<stop offset="0.69" stop-color="#FBE878"/>
<stop offset="0.77" stop-color="#FFFFAA"/>
<stop offset="0.83" stop-color="#FBE878"/>
<stop offset="1" stop-color="#A4631B"/>
</linearGradient>
<linearGradient id="paint3_linear_5442_296125" x1="21.611" y1="153.439" x2="285.827" y2="153.439" gradientUnits="userSpaceOnUse">
<stop stop-color="#FFFB90"/>
<stop offset="0.14" stop-color="#FBE978"/>
<stop offset="0.24" stop-color="#F8DC65"/>
<stop offset="0.27" stop-color="#E6C758"/>
<stop offset="0.34" stop-color="#C49F40"/>
<stop offset="0.4" stop-color="#AC832F"/>
<stop offset="0.45" stop-color="#9E7225"/>
<stop offset="0.49" stop-color="#996C22"/>
<stop offset="0.52" stop-color="#9D7125"/>
<stop offset="0.56" stop-color="#A98030"/>
<stop offset="0.6" stop-color="#BD9A42"/>
<stop offset="0.64" stop-color="#D9BE5A"/>
<stop offset="0.69" stop-color="#FBE878"/>
<stop offset="0.77" stop-color="#FFFFAA"/>
<stop offset="0.83" stop-color="#FBE878"/>
<stop offset="1" stop-color="#A4631B"/>
</linearGradient>
<clipPath id="clip0_5442_296125">
<rect width="308" height="306" fill="white"/>
</clipPath>
</defs>
</svg>
