<svg width="100" height="100" viewBox="0 0 100 100" fill="none" xmlns="http://www.w3.org/2000/svg">
<path d="M89.8549 30.6341L94.5286 38.7289C97.6514 44.1385 88.398 55.3285 73.8589 63.7228C59.3205 72.1166 45.0026 74.5355 41.8792 69.1259L37.2052 61.0311C34.0825 55.6215 43.3358 44.4315 57.8751 36.0376C72.4133 27.6437 86.7314 25.2244 89.8549 30.6341Z" fill="#FD7D00"/>
<path d="M57.8743 36.0376C72.4125 27.6437 86.7306 25.2244 89.8541 30.6341C92.9775 36.0441 83.7231 47.2341 69.1849 55.628C54.6457 64.0218 40.3278 66.4411 37.2044 61.0311C34.0817 55.6215 43.335 44.4315 57.8743 36.0376Z" fill="#F7E388"/>
<path d="M59.6119 39.0478C71.6717 32.0854 83.2018 29.4785 85.3649 33.2258C87.5278 36.9728 79.5061 45.6548 67.4465 52.6173C55.3867 59.5797 43.8572 62.1862 41.6935 58.4392C39.5304 54.6923 47.5529 46.0103 59.6119 39.0478Z" fill="#FD7D00"/>
<path d="M85.6846 35.128C85.1397 39.4334 77.774 46.6554 67.4473 52.6175C57.1213 58.5795 47.184 61.3467 43.1824 59.6667C43.7281 55.3612 51.0929 48.1389 61.4197 42.1768C71.7457 36.2152 81.683 33.4476 85.6846 35.128Z" fill="#FBCC00"/>
<path d="M77.6256 76.8634L72.924 87.2532C69.7822 94.1971 52.1066 92.98 33.4457 84.5353C14.7846 76.0907 2.20431 63.6161 5.34628 56.6722L10.0479 46.2824C13.1906 39.3389 30.8653 40.556 49.5262 49.0007C68.1873 57.445 80.7676 69.9199 77.6256 76.8634Z" fill="#FD7D00"/>
<path d="M49.5254 48.9995C68.1865 57.4442 80.7667 69.9187 77.6247 76.8626C74.4827 83.8061 56.8071 82.5894 38.1462 74.1447C19.4851 65.7 6.90496 53.2255 10.0469 46.2816C13.1897 39.3381 30.8645 40.5548 49.5254 48.9995Z" fill="#F7E388"/>
<path d="M47.7764 52.8638C63.2559 59.8682 74.0394 69.4457 71.8628 74.2552C69.6861 79.0647 55.3737 77.2851 39.8952 70.2802C24.4167 63.2758 13.6329 53.6983 15.8089 48.8889C17.9855 44.0793 32.2979 45.8589 47.7764 52.8638Z" fill="#FD7D00"/>
<path d="M70.2034 75.9241C65.5472 78.4451 53.1494 76.2788 39.8952 70.2809C26.6411 64.2829 16.8299 56.3991 15.6505 51.2369C20.3068 48.7159 32.7047 50.8818 45.9598 56.8801C59.214 62.8777 69.0243 70.7619 70.2034 75.9241Z" fill="#FBCC00"/>
<path d="M65.1161 13.4588L66.8595 21.1384C68.025 26.2703 57.7885 32.9701 43.9953 36.102C30.2027 39.234 18.076 37.6126 16.9106 32.4805L15.1673 24.801C14.0019 19.6686 24.2382 12.9688 38.0316 9.83698C51.8242 6.70501 63.9507 8.32646 65.1161 13.4588Z" fill="#FD7D00"/>
<path d="M38.0291 9.83698C51.8217 6.70501 63.9484 8.32646 65.1138 13.4588C66.2792 18.5911 56.0421 25.2905 42.2495 28.4225C28.4561 31.5548 16.3303 29.9329 15.1648 24.801C13.9994 19.6686 24.2359 12.9688 38.0291 9.83698Z" fill="#F7E388"/>
<path d="M38.6772 12.6931C50.1186 10.095 60.0477 10.8707 60.8547 14.4255C61.6619 17.9804 53.042 22.9683 41.6006 25.5663C30.1599 28.1644 20.2309 27.3884 19.4231 23.8335C18.6161 20.2786 27.2365 15.2908 38.6772 12.6931Z" fill="#FD7D00"/>
<path d="M60.6384 16.0359C59.1259 19.3652 51.3988 23.3422 41.6014 25.5665C31.8048 27.7914 23.117 27.542 20.3157 25.192C21.8283 21.8627 29.5555 17.8862 39.3528 15.6614C49.1493 13.437 57.8361 13.6864 60.6384 16.0359Z" fill="#FBCC00"/>
<path opacity="0.5" d="M11.302 57.9654C11.302 57.9654 21.7159 70.6107 39.3818 77.6769C57.0477 84.7435 42.3569 85.7354 29.9599 79.6607C17.5627 73.5857 11.1164 66.7673 9.13239 62.7382C7.14873 58.7092 9.31893 55.2378 11.302 57.9654ZM32.8735 55.5478C32.8735 55.5478 49.6708 58.9574 58.2874 66.7056C66.9033 74.4537 56.0558 69.4327 46.3238 65.2797C36.5925 61.1269 26.7982 54.5562 32.8735 55.5478Z" fill="url(#paint0_linear_5442_295514)"/>
<path opacity="0.5" d="M78.7102 52.4797C78.8652 52.4175 84.1339 48.6673 87.8532 42.8098C91.5722 36.9519 94.2381 40.7953 88.5658 47.7997C82.8943 54.8041 74.8362 55.8578 78.7102 52.4797ZM59.4633 45.8469C59.4633 45.8469 67.6456 39.648 74.7742 37.5717C81.9023 35.4954 80.3211 37.6028 72.6353 42.1278C64.9492 46.6529 56.3641 48.7291 59.4633 45.8469Z" fill="url(#paint1_linear_5442_295514)"/>
<path opacity="0.5" d="M23.7896 31.2186C23.7896 31.2186 34.6369 32.3655 45.0501 29.2969C55.4642 26.2287 52.1172 30.7537 41.9201 33.7601C31.7234 36.7666 24.223 34.4422 21.9605 33.512C19.6983 32.5822 19.8839 30.9087 23.7896 31.2186ZM31.9405 19.5342C31.9405 19.5342 42.7258 15.1334 50.4738 15.5984C58.222 16.0629 53.3253 17.5201 46.8475 18.5117C40.3706 19.5036 28.624 21.146 31.9405 19.5342Z" fill="url(#paint2_linear_5442_295514)"/>
<defs>
<linearGradient id="paint0_linear_5442_295514" x1="8.34785" y1="69.5536" x2="61.4231" y2="69.5536" gradientUnits="userSpaceOnUse">
<stop stop-color="white"/>
<stop offset="1" stop-color="white"/>
</linearGradient>
<linearGradient id="paint1_linear_5442_295514" x1="58.8137" y1="45.5517" x2="91.8404" y2="45.5517" gradientUnits="userSpaceOnUse">
<stop stop-color="white"/>
<stop offset="1" stop-color="white"/>
</linearGradient>
<linearGradient id="paint2_linear_5442_295514" x1="20.4996" y1="25.4062" x2="54.4422" y2="25.4062" gradientUnits="userSpaceOnUse">
<stop stop-color="white"/>
<stop offset="1" stop-color="white"/>
</linearGradient>
</defs>
</svg>
