<svg width="100" height="100" viewBox="0 0 100 100" fill="none" xmlns="http://www.w3.org/2000/svg">
<g clip-path="url(#clip0_5442_295513)">
<path d="M50 100C77.6142 100 100 77.6142 100 50C100 22.3858 77.6142 0 50 0C22.3858 0 0 22.3858 0 50C0 77.6142 22.3858 100 50 100Z" fill="#FFD664"/>
<path opacity="0.06" d="M100 50C100 44.375 99.0625 38.9453 97.3438 33.9062C94.2969 57.6562 80.2344 101.445 17.2266 87.7734C26.0156 95.3906 37.4609 100 50 100C77.6172 100 100 77.6172 100 50Z" fill="black"/>
<path opacity="0.35" d="M18.5547 24.7658C17.7734 24.7658 16.9531 24.4924 16.2891 23.9455C14.8047 22.6955 14.6094 20.4689 15.8594 18.9846C24.4922 8.7502 34.6484 6.83614 35.0781 6.75801C36.9922 6.40645 38.8281 7.69551 39.1406 9.60958C39.4922 11.5236 38.2031 13.3205 36.3281 13.6721C36.1328 13.7111 28.0859 15.3518 21.2109 23.4768C20.5469 24.3361 19.5312 24.7658 18.5547 24.7658Z" fill="white"/>
<path d="M68.6719 56.7578C77.215 56.7578 84.1406 49.8322 84.1406 41.2891C84.1406 32.7459 77.215 25.8203 68.6719 25.8203C60.1287 25.8203 53.2031 32.7459 53.2031 41.2891C53.2031 49.8322 60.1287 56.7578 68.6719 56.7578Z" fill="#F7F7F7"/>
<path d="M64.9609 53.2422C69.6208 53.2422 73.3984 49.4646 73.3984 44.8047C73.3984 40.1448 69.6208 36.3672 64.9609 36.3672C60.301 36.3672 56.5234 40.1448 56.5234 44.8047C56.5234 49.4646 60.301 53.2422 64.9609 53.2422Z" fill="#232323"/>
<path d="M31.3281 56.7578C39.8713 56.7578 46.7969 49.8322 46.7969 41.2891C46.7969 32.7459 39.8713 25.8203 31.3281 25.8203C22.785 25.8203 15.8594 32.7459 15.8594 41.2891C15.8594 49.8322 22.785 56.7578 31.3281 56.7578Z" fill="#F7F7F7"/>
<path d="M35.0391 53.2422C39.699 53.2422 43.4766 49.4646 43.4766 44.8047C43.4766 40.1448 39.699 36.3672 35.0391 36.3672C30.3792 36.3672 26.6016 40.1448 26.6016 44.8047C26.6016 49.4646 30.3792 53.2422 35.0391 53.2422Z" fill="#232323"/>
<path d="M17.9297 25.0005C16.9141 25.0005 15.8984 24.9614 14.8437 24.8052C13.2812 24.6099 12.1875 23.2036 12.3828 21.6411C12.5781 20.0786 13.9844 18.9849 15.5469 19.1802C26.4844 20.4692 34.7656 12.3833 34.8828 12.3052C35.9766 11.2114 37.7734 11.2114 38.9062 12.3052C40 13.3989 40 15.1958 38.9062 16.3286C38.4375 16.6802 29.9609 25.0005 17.9297 25.0005Z" fill="#191919"/>
<path d="M82.0703 25.0001C70.0391 25.0001 61.5625 16.7188 61.1719 16.3282C60.0781 15.2344 60.0391 13.4376 61.1719 12.3048C62.2656 11.211 64.0625 11.1719 65.1563 12.3048C65.2734 12.4219 73.6328 20.5079 84.4922 19.1798C86.0547 18.9844 87.4609 20.1173 87.6562 21.6407C87.8516 23.2032 86.7188 24.6094 85.1953 24.8048C84.1016 24.9219 83.0469 25.0001 82.0703 25.0001Z" fill="#191919"/>
</g>
<defs>
<clipPath id="clip0_5442_295513">
<rect width="100" height="100" fill="white"/>
</clipPath>
</defs>
</svg>
