<svg width="40" height="40" viewBox="0 0 40 40" fill="none" xmlns="http://www.w3.org/2000/svg">
<path d="M20 19.3333C20.3667 19.3333 20.6807 19.2029 20.942 18.942C21.2033 18.6811 21.3338 18.3671 21.3333 18C21.3333 17.6333 21.2029 17.3196 20.942 17.0587C20.6811 16.7978 20.3671 16.6671 20 16.6667C19.6333 16.6667 19.3196 16.7973 19.0587 17.0587C18.7978 17.32 18.6671 17.6338 18.6667 18C18.6667 18.3667 18.7973 18.6807 19.0587 18.942C19.32 19.2033 19.6338 19.3338 20 19.3333ZM16.6667 19.2V16.6667H15.3333V17.3333C15.3333 17.7556 15.4556 18.1362 15.7 18.4753C15.9444 18.8144 16.2667 19.056 16.6667 19.2ZM23.3333 19.2C23.7333 19.0556 24.0556 18.8138 24.3 18.4747C24.5444 18.1356 24.6667 17.7551 24.6667 17.3333V16.6667H23.3333V19.2ZM19.3333 24.6667V22.6C18.7889 22.4778 18.3029 22.2473 17.8753 21.9087C17.4478 21.57 17.1338 21.1449 16.9333 20.6333C16.1 20.5333 15.4029 20.1696 14.842 19.542C14.2811 18.9144 14.0004 18.1782 14 17.3333V16.6667C14 16.3 14.1307 15.9862 14.392 15.7253C14.6533 15.4644 14.9671 15.3338 15.3333 15.3333H16.6667C16.6667 14.9667 16.7973 14.6529 17.0587 14.392C17.32 14.1311 17.6338 14.0004 18 14H22C22.3667 14 22.6807 14.1307 22.942 14.392C23.2033 14.6533 23.3338 14.9671 23.3333 15.3333H24.6667C25.0333 15.3333 25.3473 15.464 25.6087 15.7253C25.87 15.9867 26.0004 16.3004 26 16.6667V17.3333C26 18.1778 25.7193 18.914 25.158 19.542C24.5967 20.17 23.8996 20.5338 23.0667 20.6333C22.8667 21.1444 22.5529 21.5696 22.1253 21.9087C21.6978 22.2478 21.2116 22.4782 20.6667 22.6V24.6667H22.6667C22.8556 24.6667 23.014 24.7307 23.142 24.8587C23.27 24.9867 23.3338 25.1449 23.3333 25.3333C23.3333 25.5222 23.2693 25.6807 23.1413 25.8087C23.0133 25.9367 22.8551 26.0004 22.6667 26H17.3333C17.1444 26 16.9862 25.936 16.8587 25.808C16.7311 25.68 16.6671 25.5218 16.6667 25.3333C16.6667 25.1444 16.7307 24.9862 16.8587 24.8587C16.9867 24.7311 17.1449 24.6671 17.3333 24.6667H19.3333Z" fill="black"/>
<circle cx="20" cy="20" r="20" fill="#652DCC"/>
<path d="M20 18.8333C20.6417 18.8333 21.1912 18.6051 21.6485 18.1485C22.1058 17.6919 22.3341 17.1424 22.3333 16.5C22.3333 15.8583 22.1051 15.3092 21.6485 14.8527C21.1919 14.3961 20.6424 14.1674 20 14.1667C19.3583 14.1667 18.8092 14.3953 18.3527 14.8527C17.8961 15.31 17.6674 15.8591 17.6667 16.5C17.6667 17.1417 17.8953 17.6912 18.3527 18.1485C18.81 18.6058 19.3591 18.8341 20 18.8333ZM14.1667 18.6V14.1667H11.8333V15.3333C11.8333 16.0722 12.0472 16.7384 12.475 17.3318C12.9028 17.9253 13.4667 18.348 14.1667 18.6ZM25.8333 18.6C26.5333 18.3472 27.0972 17.9241 27.525 17.3307C27.9528 16.7372 28.1667 16.0714 28.1667 15.3333V14.1667H25.8333V18.6ZM18.8333 28.1667V24.55C17.8806 24.3361 17.0301 23.9328 16.2818 23.3402C15.5336 22.7475 14.9841 22.0036 14.6333 21.1083C13.175 20.9333 11.9551 20.2967 10.9735 19.1985C9.99194 18.1003 9.50078 16.8119 9.5 15.3333V14.1667C9.5 13.525 9.72867 12.9759 10.186 12.5193C10.6433 12.0628 11.1924 11.8341 11.8333 11.8333H14.1667C14.1667 11.1917 14.3953 10.6426 14.8527 10.186C15.31 9.72944 15.8591 9.50078 16.5 9.5H23.5C24.1417 9.5 24.6912 9.72867 25.1485 10.186C25.6058 10.6433 25.8341 11.1924 25.8333 11.8333H28.1667C28.8083 11.8333 29.3578 12.062 29.8152 12.5193C30.2725 12.9767 30.5008 13.5258 30.5 14.1667V15.3333C30.5 16.8111 30.0088 18.0995 29.0265 19.1985C28.0442 20.2975 26.8242 20.9341 25.3667 21.1083C25.0167 22.0028 24.4676 22.7467 23.7193 23.3402C22.9711 23.9336 22.1202 24.3369 21.1667 24.55V28.1667H24.6667C24.9972 28.1667 25.2745 28.2787 25.4985 28.5027C25.7225 28.7267 25.8341 29.0036 25.8333 29.3333C25.8333 29.6639 25.7213 29.9412 25.4973 30.1652C25.2733 30.3892 24.9964 30.5008 24.6667 30.5H15.3333C15.0028 30.5 14.7259 30.388 14.5027 30.164C14.2794 29.94 14.1674 29.6631 14.1667 29.3333C14.1667 29.0028 14.2787 28.7259 14.5027 28.5027C14.7267 28.2794 15.0036 28.1674 15.3333 28.1667H18.8333Z" fill="white"/>
</svg>
