<svg width="50" height="50" viewBox="0 0 50 50" fill="none" xmlns="http://www.w3.org/2000/svg">
<path d="M42.1875 3.125H7.8125C6.57044 3.12871 5.38031 3.62376 4.50203 4.50203C3.62376 5.38031 3.12871 6.57044 3.125 7.8125V31.25C3.12871 32.4921 3.62376 33.6822 4.50203 34.5605C5.38031 35.4387 6.57044 35.9338 7.8125 35.9375H25.0937C25.3929 33.5491 26.3757 31.2979 27.9241 29.455C29.4725 27.612 31.5204 26.2556 33.8215 25.5491C36.1225 24.8426 38.5787 24.8161 40.8945 25.4726C43.2104 26.1292 45.2871 27.4409 46.875 29.25V7.8125C46.8713 6.57044 46.3762 5.38031 45.498 4.50203C44.6197 3.62376 43.4296 3.12871 42.1875 3.125ZM9.375 11.7188C9.375 11.3043 9.53962 10.9069 9.83265 10.6139C10.1257 10.3209 10.5231 10.1562 10.9375 10.1562H18.75C19.1644 10.1562 19.5618 10.3209 19.8549 10.6139C20.1479 10.9069 20.3125 11.3043 20.3125 11.7188V17.9688C20.3125 18.3832 20.1479 18.7806 19.8549 19.0736C19.5618 19.3666 19.1644 19.5312 18.75 19.5312H10.9375C10.5231 19.5312 10.1257 19.3666 9.83265 19.0736C9.53962 18.7806 9.375 18.3832 9.375 17.9688V11.7188ZM14.0625 28.9062H10.9375C10.5231 28.9062 10.1257 28.7416 9.83265 28.4486C9.53962 28.1556 9.375 27.7582 9.375 27.3438C9.375 26.9293 9.53962 26.5319 9.83265 26.2389C10.1257 25.9459 10.5231 25.7812 10.9375 25.7812H14.0625C14.4769 25.7812 14.8743 25.9459 15.1674 26.2389C15.4604 26.5319 15.625 26.9293 15.625 27.3438C15.625 27.7582 15.4604 28.1556 15.1674 28.4486C14.8743 28.7416 14.4769 28.9062 14.0625 28.9062ZM21.875 28.9062H18.75C18.3356 28.9062 17.9382 28.7416 17.6451 28.4486C17.3521 28.1556 17.1875 27.7582 17.1875 27.3438C17.1875 26.9293 17.3521 26.5319 17.6451 26.2389C17.9382 25.9459 18.3356 25.7812 18.75 25.7812H21.875C22.2894 25.7812 22.6868 25.9459 22.9799 26.2389C23.2729 26.5319 23.4375 26.9293 23.4375 27.3438C23.4375 27.7582 23.2729 28.1556 22.9799 28.4486C22.6868 28.7416 22.2894 28.9062 21.875 28.9062ZM39.0625 14.8438H25C24.5856 14.8438 24.1882 14.6791 23.8951 14.3861C23.6021 14.0931 23.4375 13.6957 23.4375 13.2812C23.4375 12.8668 23.6021 12.4694 23.8951 12.1764C24.1882 11.8834 24.5856 11.7188 25 11.7188H39.0625C39.4769 11.7188 39.8743 11.8834 40.1674 12.1764C40.4604 12.4694 40.625 12.8668 40.625 13.2812C40.625 13.6957 40.4604 14.0931 40.1674 14.3861C39.8743 14.6791 39.4769 14.8438 39.0625 14.8438Z" fill="url(#paint0_linear_442_621)"/>
<path d="M12.5 13.2812H17.1875V16.4062H12.5V13.2812Z" fill="url(#paint1_linear_442_621)"/>
<path fill-rule="evenodd" clip-rule="evenodd" d="M37.4997 47.9163C43.2526 47.9163 47.9163 43.2526 47.9163 37.4997C47.9163 31.7467 43.2526 27.083 37.4997 27.083C31.7467 27.083 27.083 31.7467 27.083 37.4997C27.083 43.2526 31.7467 47.9163 37.4997 47.9163ZM38.7876 29.6867H36.6379L36.7113 31.43C36.2946 31.4978 35.9092 31.6126 35.5553 31.7746C34.9573 32.053 34.4882 32.419 34.148 32.8726C33.8077 33.3263 33.6376 33.8212 33.6376 34.3573C33.6376 34.8935 33.7407 35.3574 33.9469 35.7492C34.1531 36.141 34.4109 36.471 34.7202 36.739C35.0398 37.0071 35.3697 37.2288 35.71 37.4041C36.0502 37.5793 36.3544 37.7185 36.6225 37.8216C37.0555 37.9866 37.4318 38.1361 37.7514 38.2701C38.0711 38.4042 38.3185 38.5485 38.4938 38.7032C38.6794 38.8475 38.7722 39.0382 38.7722 39.2754C38.7722 39.4713 38.7309 39.6362 38.6484 39.7703C38.566 39.894 38.4371 39.992 38.2618 40.0641C38.0968 40.126 37.8803 40.1569 37.6122 40.1569C37.2514 40.1569 36.9266 40.0951 36.6379 39.9713C36.3492 39.8373 36.076 39.6362 35.8182 39.3682C35.5605 39.1001 35.3027 38.7599 35.045 38.3475L32.988 39.8167C33.2149 40.291 33.5551 40.7291 34.0088 41.1313C34.4727 41.5334 35.0089 41.8633 35.6172 42.121C35.9715 42.2652 36.3364 42.3673 36.7117 42.4275L36.6379 44.0697H38.7722L38.6977 42.4121C39.1159 42.3505 39.5015 42.2535 39.8548 42.121C40.5146 41.8736 41.025 41.5127 41.3858 41.0385C41.757 40.5539 41.9426 39.9662 41.9426 39.2754C41.9426 38.8114 41.8704 38.399 41.7261 38.0381C41.5921 37.6773 41.3962 37.3628 41.1384 37.0947C40.8909 36.8164 40.6023 36.5792 40.2723 36.3833C39.9424 36.1771 39.5764 36.0018 39.1743 35.8575C38.7412 35.6925 38.334 35.5482 37.9525 35.4245C37.5813 35.3007 37.2823 35.1564 37.0555 34.9914C36.8287 34.8265 36.7152 34.6048 36.7152 34.3264C36.7152 34.1717 36.7513 34.0326 36.8235 33.9088C36.8957 33.7851 37.0091 33.6872 37.1637 33.615C37.3184 33.5325 37.5195 33.4913 37.7669 33.4913C38.004 33.4913 38.2257 33.5428 38.4319 33.6459C38.6484 33.749 38.8495 33.9088 39.0351 34.1254C39.2207 34.3316 39.3908 34.5842 39.5454 34.8832L41.7879 33.6305C41.5508 33.2284 41.2621 32.8572 40.9219 32.5169C40.5816 32.1664 40.1538 31.888 39.6382 31.6818C39.3695 31.5689 39.0614 31.4854 38.7142 31.4314L38.7876 29.6867Z" fill="url(#paint2_linear_442_621)"/>
<defs>
<linearGradient id="paint0_linear_442_621" x1="25" y1="3.125" x2="25" y2="35.9375" gradientUnits="userSpaceOnUse">
<stop stop-color="white"/>
<stop offset="1" stop-color="#987859"/>
</linearGradient>
<linearGradient id="paint1_linear_442_621" x1="14.8438" y1="13.2812" x2="14.8438" y2="16.4062" gradientUnits="userSpaceOnUse">
<stop stop-color="white"/>
<stop offset="1" stop-color="#987859"/>
</linearGradient>
<linearGradient id="paint2_linear_442_621" x1="37.4997" y1="27.083" x2="37.4997" y2="47.9163" gradientUnits="userSpaceOnUse">
<stop stop-color="white"/>
<stop offset="1" stop-color="#987859"/>
</linearGradient>
</defs>
</svg>
