<svg width="32" height="32" viewBox="0 0 32 32" fill="none" xmlns="http://www.w3.org/2000/svg">
<rect x="1" y="1" width="30" height="30" rx="15" fill="#EA2E2E"/>
<path fill-rule="evenodd" clip-rule="evenodd" d="M17.1313 9.49407H14.8684C14.7184 9.49407 14.5745 9.55368 14.4684 9.65977C14.3623 9.76587 14.3027 9.90976 14.3027 10.0598V10.6255H17.6971V10.0598C17.6971 9.90976 17.6375 9.76587 17.5314 9.65977C17.4253 9.55368 17.2814 9.49407 17.1313 9.49407ZM19.3943 10.6255V10.0598C19.3943 9.45964 19.1558 8.88405 18.7315 8.45967C18.3071 8.03529 17.7315 7.79688 17.1313 7.79688H14.8684C14.2682 7.79688 13.6927 8.03529 13.2683 8.45967C12.8439 8.88405 12.6055 9.45964 12.6055 10.0598V10.6255H9.49508C9.27002 10.6255 9.05418 10.7149 8.89503 10.8741C8.73589 11.0332 8.64648 11.2491 8.64648 11.4741C8.64648 11.6992 8.73589 11.915 8.89503 12.0742C9.05418 12.2333 9.27002 12.3227 9.49508 12.3227H9.8481L10.2068 20.9501C10.2433 21.8253 10.6166 22.6524 11.2488 23.2586C11.881 23.8649 12.723 24.2033 13.5989 24.2031H18.402C19.2777 24.203 20.1194 23.8645 20.7513 23.2583C21.3833 22.652 21.7565 21.8251 21.793 20.9501L22.1528 12.3227H22.5058C22.7309 12.3227 22.9467 12.2333 23.1058 12.0742C23.265 11.915 23.3544 11.6992 23.3544 11.4741C23.3544 11.2491 23.265 11.0332 23.1058 10.8741C22.9467 10.7149 22.7309 10.6255 22.5058 10.6255H19.3943ZM20.4533 12.3227H11.5464L11.9028 20.8789C11.9209 21.3165 12.1076 21.7302 12.4237 22.0335C12.7398 22.3367 13.1609 22.506 13.5989 22.5059H18.402C18.8398 22.5057 19.2606 22.3363 19.5765 22.0331C19.8923 21.7299 20.0788 21.3163 20.0969 20.8789L20.4533 12.3227ZM13.4541 14.5857V20.243C13.4541 20.468 13.5435 20.6839 13.7026 20.843C13.8618 21.0022 14.0776 21.0916 14.3027 21.0916C14.5277 21.0916 14.7436 21.0022 14.9027 20.843C15.0619 20.6839 15.1513 20.468 15.1513 20.243V14.5857C15.1513 14.3606 15.0619 14.1448 14.9027 13.9856C14.7436 13.8265 14.5277 13.7371 14.3027 13.7371C14.0776 13.7371 13.8618 13.8265 13.7026 13.9856C13.5435 14.1448 13.4541 14.3606 13.4541 14.5857ZM17.6971 13.7371C17.9221 13.7371 18.138 13.8265 18.2971 13.9856C18.4563 14.1448 18.5457 14.3606 18.5457 14.5857V20.243C18.5457 20.468 18.4563 20.6839 18.2971 20.843C18.138 21.0022 17.9221 21.0916 17.6971 21.0916C17.472 21.0916 17.2562 21.0022 17.097 20.843C16.9379 20.6839 16.8485 20.468 16.8485 20.243V14.5857C16.8485 14.3606 16.9379 14.1448 17.097 13.9856C17.2562 13.8265 17.472 13.7371 17.6971 13.7371Z" fill="white"/>
</svg>
