<svg width="32" height="32" viewBox="0 0 49 49" fill="none" xmlns="http://www.w3.org/2000/svg">
<path d="M24.5029 48.6841C11.2576 48.6841 0.50293 37.9294 0.50293 24.5709C0.50293 11.2124 11.2576 0.684082 24.5029 0.684082C37.7482 0.684082 48.5029 11.4388 48.5029 24.6841C48.5029 37.9294 37.7482 48.6841 24.5029 48.6841ZM24.5029 6.00484C14.201 6.00484 5.82369 14.3822 5.93689 24.6841C6.0501 34.986 14.3143 43.3633 24.5029 43.3633C34.8048 43.3633 43.069 34.986 43.069 24.6841C43.1822 14.3822 34.8048 6.00484 24.5029 6.00484Z" fill="#314060"/>
<path d="M24.164 26.9481C28.1654 26.9481 31.4093 23.7043 31.4093 19.7028C31.4093 15.7013 28.1654 12.4575 24.164 12.4575C20.1625 12.4575 16.9187 15.7013 16.9187 19.7028C16.9187 23.7043 20.1625 26.9481 24.164 26.9481Z" fill="#314060"/>
<path d="M24.5028 42.0048C29.8236 42.0048 34.4651 39.6275 37.6349 35.8916C35.8236 31.5897 30.3896 28.4199 24.05 28.4199C18.05 28.4199 12.9556 31.1369 10.8047 35.0992C13.8613 39.2879 18.8424 42.0048 24.5028 42.0048Z" fill="#314060"/>
</svg>
