<svg width="800" height="146" viewBox="0 0 800 146" fill="none" xmlns="http://www.w3.org/2000/svg">
<g filter="url(#filter0_d_2_11904)">
<path d="M362.613 115.646C362.036 114.244 361.624 113.666 360.882 113.419C360.223 113.254 359.646 113.171 358.739 113.089V112.841H373.66V113.089C371.022 113.336 370.115 113.501 370.033 113.996C370.033 114.326 370.033 114.656 370.198 114.986C371.435 118.615 374.815 127.524 376.299 131.153C377.37 128.844 380.75 119.688 381.41 118.038C381.822 116.801 382.317 115.398 382.317 114.491C382.317 113.501 380.091 113.254 378.195 113.171V112.841H387.098V113.171C386.274 113.171 385.697 113.171 385.037 113.501C383.883 113.996 383.388 115.316 382.894 116.636L376.958 131.566L374.485 138H371.352C369.209 132.308 364.097 119.275 362.696 115.646H362.613Z" fill="url(#paint0_linear_2_11904)"/>
<path d="M396.002 137.093C396.908 136.763 397.073 136.186 397.073 135.443V115.234C397.073 114.409 396.826 113.749 396.002 113.419C395.425 113.254 394.023 113.089 393.116 113.089V112.842H408.615V113.089C408.038 113.089 406.389 113.254 405.73 113.419C404.823 113.667 404.658 114.409 404.658 115.234V135.443C404.658 136.268 404.905 136.928 405.73 137.175C406.142 137.34 407.791 137.423 408.615 137.505V137.753H393.116V137.505C394.105 137.505 395.589 137.34 396.002 137.175V137.093Z" fill="url(#paint1_linear_2_11904)"/>
<path d="M419.085 137.093C419.992 136.763 420.156 136.103 420.156 135.278V115.151C420.156 114.326 419.992 113.749 419.085 113.337C418.425 113.089 416.859 113.007 416.199 113.007V112.759H431.615C438.293 112.759 441.591 114.904 441.591 119.111C441.591 124.555 436.644 126.699 430.379 126.699H427.658V135.196C427.658 136.021 427.988 136.598 428.73 137.01C429.142 137.175 430.461 137.34 431.78 137.34V137.588H416.199V137.34C416.859 137.34 418.672 137.175 419.085 137.01V137.093ZM433.676 119.936C433.676 116.224 432.44 113.337 428.895 113.337H427.741V126.287H428.4C432.357 126.287 433.676 123.235 433.676 119.936Z" fill="url(#paint2_linear_2_11904)"/>
<path d="M79.0204 80.2595C81.9882 78.3623 84.1317 74.7329 85.7805 70.691C89.4902 61.535 108.946 10.9708 112.986 0.742432H123.785C129.309 14.6827 149.671 69.2063 151.815 74.3205C152.722 76.7126 153.958 78.8572 156.679 80.507C158.822 81.8267 161.048 81.9092 163.109 82.1567V82.9816H114.964V82.1567C119.004 81.8267 127.248 81.0019 127.248 78.0323C127.248 77.125 127 76.1351 126.753 75.5577L119.333 54.2762H94.684L89.3254 69.7837C88.2537 72.8357 87.759 75.5577 88.0064 77.125C88.5834 81.2493 97.9816 81.8267 101.939 82.2391V83.064H72.3428V82.2391C74.4862 81.9916 76.9594 81.7442 78.9379 80.4244L79.0204 80.2595ZM118.509 51.8841L106.885 21.694L95.5084 51.8841H118.427H118.509Z" fill="url(#paint3_linear_2_11904)"/>
<path d="M208.368 79.7647C211.089 77.785 212.161 72.6707 212.161 63.6797V15.5075C212.161 10.6408 211.007 7.42392 208.616 5.52673C205.895 3.29959 201.361 3.05211 198.311 2.80465V1.97974H235.491L257.255 55.1836L274.073 12.0431C275.722 7.91878 276.464 3.29952 276.546 1.97974H314.551V2.80465C312.573 3.05211 307.461 3.13451 305.318 3.87689C302.515 4.78425 301.773 7.09397 301.773 9.65106V75.1453C301.773 77.7849 302.762 79.6822 305.318 80.9195C306.637 81.6619 312.655 81.7443 314.634 81.9917V82.8166H264.18V81.9917C266.159 81.7443 272.012 81.9918 273.661 81.1669C276.381 79.7647 277.453 77.8674 277.453 75.1453V9.40361L249.011 81.4968H241.097C240.355 79.0222 236.81 68.3815 235.574 64.9995L214.304 11.4658V63.4322C214.304 72.6707 214.881 77.2901 217.602 79.5172C220.24 81.6619 227.577 81.6618 229.638 81.9093V82.7342H197.651V81.9093C199.63 81.6618 205.566 81.6618 208.286 79.6821L208.368 79.7647Z" fill="url(#paint4_linear_2_11904)"/>
<path d="M367.148 55.8436V9.81602C367.148 7.17645 366.406 4.94933 363.603 4.04198C361.707 3.46457 357.667 3.13463 354.699 2.88717V2.06226H403.586V2.88717C401.608 3.13463 397.321 3.38213 395.26 3.95954C392.457 4.7844 391.715 7.17649 391.715 9.73358V53.5339C391.715 69.7838 397.733 76.5478 410.429 76.5478C423.124 76.5478 433.264 70.1138 433.264 52.9566V21.3642C433.264 12.1257 432.687 7.50649 429.967 5.27935C427.329 3.1347 418.837 3.13463 416.694 2.88717V2.06226H449.835V2.88717C447.856 3.13463 441.921 3.13467 439.2 5.11435C436.48 7.09402 435.408 12.2082 435.408 21.1992V54.6888C435.408 75.1454 421.228 84.7964 404.41 84.7964C382.481 84.7964 367.148 76.8777 367.148 55.9261V55.8436Z" fill="url(#paint5_linear_2_11904)"/>
<path d="M494.518 78.4448L489.571 83.8064H488.747L488.005 53.9463H489.324C498.063 71.351 506.389 82.9816 518.92 82.9816C531.451 82.9816 534.996 75.7228 534.996 68.6289C534.996 61.5351 531.533 57.4107 519.579 53.1214C514.386 51.2242 509.274 49.9045 505.647 48.4197C495.589 44.1304 489.901 36.1292 489.901 25.076C489.901 8.24873 504.658 0 522.465 0C531.203 0 540.849 2.80462 544.806 5.36171L549.34 0.989925H550.33L550.824 29.0353H549.505C542.992 14.2702 536.809 1.64983 524.196 1.64983C514.633 1.64983 509.192 8.7436 509.192 16.0024C509.192 24.4161 515.705 28.293 524.608 31.5099C529.307 33.3246 535.243 34.7269 539.035 36.3766C548.268 40.2535 555.029 46.1926 555.029 58.7306C555.029 73.1657 540.437 84.6313 519.909 84.6313C507.461 84.6313 498.969 80.837 494.683 78.4448H494.518Z" fill="url(#paint6_linear_2_11904)"/>
<path d="M607.048 81.002C609.851 80.0122 610.593 78.1974 610.593 75.5579V9.81602C610.593 7.17645 609.851 4.94933 607.048 4.04198C605.152 3.46457 600.618 3.13463 597.732 2.88717V2.06226H670.032V23.2614H668.713C664.674 15.6726 657.336 5.36177 651.071 4.04198C648.268 3.46457 645.712 3.46464 642.085 3.46464H635.078V40.2536H639.2C645.712 40.2536 648.103 38.3564 649.587 36.7892C652.06 34.3146 655.275 28.8705 656.594 24.3337H657.913V58.0707H656.594C655.275 53.4515 651.648 47.1825 649.587 45.0378C647.938 43.2231 645.465 41.5734 639.2 41.5734H635.078V72.5059C635.078 80.4246 636.232 81.4145 644.064 81.4145C650.576 81.4145 655.77 81.4145 658.655 78.6099C663.519 73.9082 669.29 66.1544 674.896 58.1532H676.05L674.484 82.8992H597.65V82.0744C600.947 81.8269 605.564 81.4969 606.966 81.002H607.048Z" fill="url(#paint7_linear_2_11904)"/>
<path fill-rule="evenodd" clip-rule="evenodd" d="M4 123.07L171.518 121.008L339.036 119.028V123.07V127.029L171.518 125.049L4 123.07Z" fill="url(#paint8_linear_2_11904)"/>
<path fill-rule="evenodd" clip-rule="evenodd" d="M796 123.07L628.4 125.049L460.882 127.029V123.07V119.028L628.4 121.008L796 123.07Z" fill="url(#paint9_linear_2_11904)"/>
</g>
<defs>
<filter id="filter0_d_2_11904" x="0" y="0" width="800" height="146" filterUnits="userSpaceOnUse" color-interpolation-filters="sRGB">
<feFlood flood-opacity="0" result="BackgroundImageFix"/>
<feColorMatrix in="SourceAlpha" type="matrix" values="0 0 0 0 0 0 0 0 0 0 0 0 0 0 0 0 0 0 127 0" result="hardAlpha"/>
<feOffset dy="4"/>
<feGaussianBlur stdDeviation="2"/>
<feComposite in2="hardAlpha" operator="out"/>
<feColorMatrix type="matrix" values="0 0 0 0 0 0 0 0 0 0 0 0 0 0 0 0 0 0 0.25 0"/>
<feBlend mode="normal" in2="BackgroundImageFix" result="effect1_dropShadow_2_11904"/>
<feBlend mode="normal" in="SourceGraphic" in2="effect1_dropShadow_2_11904" result="shape"/>
</filter>
<linearGradient id="paint0_linear_2_11904" x1="358.656" y1="125.462" x2="387.098" y2="125.462" gradientUnits="userSpaceOnUse">
<stop stop-color="#F0C48F"/>
<stop offset="0.36" stop-color="#835120"/>
<stop offset="1" stop-color="#EAD69C"/>
</linearGradient>
<linearGradient id="paint1_linear_2_11904" x1="393.116" y1="125.297" x2="408.615" y2="125.297" gradientUnits="userSpaceOnUse">
<stop stop-color="#F0C48F"/>
<stop offset="0.36" stop-color="#835120"/>
<stop offset="1" stop-color="#EAD69C"/>
</linearGradient>
<linearGradient id="paint2_linear_2_11904" x1="416.199" y1="125.297" x2="441.673" y2="125.297" gradientUnits="userSpaceOnUse">
<stop stop-color="#F0C48F"/>
<stop offset="0.36" stop-color="#835120"/>
<stop offset="1" stop-color="#EAD69C"/>
</linearGradient>
<linearGradient id="paint3_linear_2_11904" x1="72.4252" y1="41.7383" x2="163.027" y2="41.7383" gradientUnits="userSpaceOnUse">
<stop stop-color="#F0C48F"/>
<stop offset="0.36" stop-color="#835120"/>
<stop offset="1" stop-color="#EAD69C"/>
</linearGradient>
<linearGradient id="paint4_linear_2_11904" x1="197.734" y1="42.3982" x2="314.633" y2="42.3982" gradientUnits="userSpaceOnUse">
<stop stop-color="#F0C48F"/>
<stop offset="0.36" stop-color="#835120"/>
<stop offset="1" stop-color="#EAD69C"/>
</linearGradient>
<linearGradient id="paint5_linear_2_11904" x1="354.699" y1="43.3881" x2="449.917" y2="43.3881" gradientUnits="userSpaceOnUse">
<stop stop-color="#F0C48F"/>
<stop offset="0.36" stop-color="#835120"/>
<stop offset="1" stop-color="#EAD69C"/>
</linearGradient>
<linearGradient id="paint6_linear_2_11904" x1="488.005" y1="42.3157" x2="554.864" y2="42.3157" gradientUnits="userSpaceOnUse">
<stop stop-color="#F0C48F"/>
<stop offset="0.36" stop-color="#835120"/>
<stop offset="1" stop-color="#EAD69C"/>
</linearGradient>
<linearGradient id="paint7_linear_2_11904" x1="597.65" y1="42.3982" x2="676.05" y2="42.3982" gradientUnits="userSpaceOnUse">
<stop stop-color="#F0C48F"/>
<stop offset="0.36" stop-color="#835120"/>
<stop offset="1" stop-color="#EAD69C"/>
</linearGradient>
<linearGradient id="paint8_linear_2_11904" x1="4" y1="123.07" x2="339.036" y2="123.07" gradientUnits="userSpaceOnUse">
<stop stop-color="#F0C48F"/>
<stop offset="0.36" stop-color="#835120"/>
<stop offset="1" stop-color="#EAD69C"/>
</linearGradient>
<linearGradient id="paint9_linear_2_11904" x1="460.882" y1="123.07" x2="796" y2="123.07" gradientUnits="userSpaceOnUse">
<stop stop-color="#F0C48F"/>
<stop offset="0.36" stop-color="#835120"/>
<stop offset="1" stop-color="#EAD69C"/>
</linearGradient>
</defs>
</svg>
