<svg width="454" height="107" viewBox="0 0 454 107" fill="none" xmlns="http://www.w3.org/2000/svg">
<g filter="url(#filter0_d_2_11903)">
<path d="M38.0828 52.3238C38.0828 58.0845 38.9057 62.4344 40.0814 66.079C47.0177 58.6723 54.0717 48.7969 57.0108 41.6254C50.7798 41.8605 44.784 43.3889 38.3179 46.328C38.2003 48.4442 38.0828 50.4428 38.0828 52.3238ZM13.5117 82.0678C18.8021 82.0678 26.0911 78.1882 32.3221 73.2504C31.0289 67.7249 30.3235 61.1412 30.3235 55.0278C30.3235 53.617 30.3235 52.2063 30.441 50.5603C18.0967 58.6723 10.1023 70.5464 10.1023 78.1882C10.1023 80.8922 11.1603 82.0678 13.5117 82.0678ZM53.0136 30.8094L53.9541 29.281C58.4216 30.104 62.0661 31.3972 64.4174 33.8661C65.4755 35.1593 65.9457 36.4525 65.7106 37.9809C83.6981 40.2146 94.279 53.1468 94.279 66.9019C94.279 90.2974 70.8835 100.408 38.6706 100.878L38.2003 98.4094C68.1795 93.4717 83.463 81.0097 83.463 64.0803C83.463 53.0292 76.2915 44.2118 64.2998 42.0957C60.4202 51.6184 52.1906 63.6101 43.1381 73.368C44.5489 76.4247 45.7245 79.0111 45.7245 81.7151C45.7245 84.7718 43.7259 86.065 41.0219 86.065C38.553 86.065 36.5544 84.184 35.0261 81.1273C26.5614 88.0637 17.744 91.8257 10.5725 91.8257C4.92939 91.8257 1.40244 88.5339 1.40244 81.9503C1.40244 66.4317 15.9805 52.2063 30.9113 44.5645C31.4991 39.5092 32.2045 34.1012 33.0275 29.0459C29.383 29.5162 25.6209 29.7513 22.0939 29.7513C13.2765 29.7513 9.16174 25.7541 5.51722 17.2894L7.04557 15.8786C13.159 20.2285 17.2737 21.6393 23.6223 21.6393C27.2668 21.6393 30.7937 21.4042 34.3207 20.9339C35.0261 16.2313 35.4963 12.3517 35.4963 10.1179C35.4963 8.00174 35.0261 7.41391 33.145 6.70852C31.264 6.00313 28.7951 5.53287 26.4438 5.0626V3.06399C28.6776 2.12348 31.7343 1.06539 33.7329 1.06539C40.5517 1.06539 47.8407 4.94504 47.8407 7.64904C47.8407 10.4706 45.1367 11.4111 44.0786 15.761L43.1381 19.4056C57.5986 16.2313 65.4755 11.0584 67.239 11.0584C72.5294 11.0584 75.351 12.7043 75.351 15.5259C75.351 17.6421 74.2929 19.0529 71.5889 20.111C66.2984 22.3447 53.719 25.8717 41.257 27.8703C40.3165 32.2202 39.4936 36.8052 38.9057 41.1551C44.6664 39.1565 51.2501 37.8633 58.1864 37.6282C58.304 35.0417 56.6581 33.1607 53.0136 30.8094ZM137.896 4.59234V2.82887C140.012 1.88834 143.539 0.830255 146.36 0.830255C150.24 0.830255 154.002 1.88834 156.236 3.53426C158.587 5.0626 157.529 8.1193 153.767 20.3461C163.407 17.1718 166.111 14.703 167.992 14.703C170.579 14.703 173.283 16.4664 173.283 19.4056C173.283 21.7569 171.167 23.2852 169.521 24.4609C165.641 26.6946 158.352 29.1635 150.475 30.8094C146.595 42.9186 138.954 63.6101 129.666 77.7179C127.197 81.48 125.316 83.9489 122.495 83.9489C119.203 83.9489 117.439 80.7746 117.439 77.4828C117.439 75.0139 118.145 73.1329 120.026 70.664C127.55 61.1412 136.25 48.209 141.54 32.2202C138.483 32.5729 135.544 32.808 132.84 32.808C123.435 32.808 119.203 29.7513 115.793 18.7002L117.557 17.407C122.612 21.4042 125.904 24.1082 133.663 24.1082C137.073 24.1082 140.952 23.5203 144.244 22.815C145.185 18.7002 145.773 14.703 145.89 11.8814C146.008 9.41252 145.185 8.1193 143.186 6.94365C141.305 5.76799 139.306 5.0626 137.896 4.59234ZM176.104 80.657C176.104 79.7165 176.104 78.6584 176.104 77.7179C172.93 77.0125 169.521 76.6598 165.759 76.6598C155.648 76.6598 150.71 81.1273 150.71 85.007C150.71 89.0042 154.237 92.0609 162.584 92.0609C172.342 92.0609 176.104 87.4758 176.104 80.657ZM180.807 25.6365V23.1677C187.038 21.6393 193.622 21.992 198.207 23.5203C205.848 25.9892 210.316 31.0445 210.316 36.8052C210.316 40.2146 209.023 42.4483 205.966 42.4483C202.086 42.4483 199.5 39.5092 193.622 39.7443C189.859 39.9795 185.98 41.3903 183.864 43.9767C181.747 46.5631 181.747 50.4428 182.1 54.9103C182.453 58.3197 183.629 64.7857 184.687 71.3694C191.388 73.0153 196.796 75.8369 200.911 78.3057C207.612 82.1854 211.609 86.3002 211.609 90.6501C211.609 94.2946 209.61 95.9405 207.259 95.9405C204.32 95.9405 202.674 93.2365 199.03 89.9447C195.385 86.5353 191.153 83.361 185.745 80.8922C185.862 82.5381 185.98 84.0664 185.98 85.4772C185.98 95.5878 178.221 101.231 165.406 101.231C152.709 101.231 145.537 94.8824 145.537 86.888C145.537 77.7179 154.943 69.841 171.402 69.841C172.93 69.841 174.341 69.841 175.752 69.9586C175.517 65.7263 175.164 61.3763 175.164 57.6143C175.164 50.5603 176.692 45.6226 180.337 41.743C184.451 37.0403 190.095 34.9242 193.974 32.9256C195.385 31.985 194.915 30.6918 193.386 29.3986C190.447 27.1649 185.98 25.8717 180.807 25.6365ZM284.735 45.3875L284.029 43.2713C289.907 39.8619 298.725 37.0403 307.542 37.0403C315.302 37.0403 320.474 38.6863 323.061 40.097C326.235 41.9781 327.763 44.3294 327.763 46.5631C327.763 49.2671 325.647 50.5603 321.415 50.7955C319.299 50.7955 317.183 51.1482 314.126 52.0887C309.658 53.0292 304.368 55.1454 300.253 56.7913L298.96 55.0278C302.722 52.6765 308.835 48.209 310.129 46.7983C310.952 46.0929 310.599 45.505 309.658 45.1523C306.954 44.2118 302.84 43.7416 299.43 43.7416C295.08 43.7416 290.025 44.447 284.735 45.3875ZM274.389 19.9934L273.096 24.5784C278.739 22.6974 282.971 20.6988 286.381 18.9353C288.497 17.6421 290.025 16.7016 291.083 16.7016C293.67 16.7016 298.255 18.1123 298.255 21.6393C298.255 24.4609 296.256 26.1068 289.437 28.5757C286.381 29.8689 278.151 32.5729 270.274 34.4539C268.746 39.7443 266.982 45.6226 265.101 51.0306C260.281 65.3736 252.874 85.5948 248.054 93.9419C246.173 97.3513 244.645 99.3499 241.118 99.3499C238.179 99.3499 236.063 96.0581 236.063 92.296C236.063 88.4163 238.179 86.888 240.765 82.4205C245.821 74.5437 251.934 63.375 257.342 47.8563C258.518 44.447 259.811 40.4497 260.869 36.4525C257.107 37.0403 252.992 37.5106 249.7 37.5106C241.588 37.5106 236.063 35.1593 232.301 23.873L233.946 22.6974C239.59 27.0473 242.999 28.6932 248.289 28.8108C253.462 28.9283 258.753 28.1054 263.103 27.2824C264.513 21.4042 265.454 16.1137 265.689 12.8219C265.807 10.0003 265.336 9.05983 263.338 7.7666C261.339 6.59095 258.87 5.76799 256.284 4.94504L256.401 2.82887C259.223 1.77078 261.927 1.18295 265.101 1.30052C270.979 1.41808 278.504 4.70991 278.504 7.7666C278.504 10.353 276.505 12.9395 274.389 19.9934ZM276.387 68.3127L278.739 68.0776C279.209 71.2518 280.15 75.4842 282.501 78.8936C286.851 85.4772 293.787 87.8285 303.545 87.8285C314.596 87.8285 318.711 85.5948 321.533 85.5948C325.295 85.5948 329.762 87.3583 329.762 91.3555C329.762 94.177 326.823 95.9405 322.591 96.881C318.946 97.704 313.773 98.4094 306.249 98.4094C290.143 98.4094 279.562 92.5311 277.328 80.5395C276.035 76.4247 276.152 71.9572 276.387 68.3127ZM378.787 50.6779L381.373 51.8536C379.022 58.2021 374.319 69.7235 373.144 74.0734C372.086 78.3057 371.498 81.0097 371.498 82.8908C371.498 86.7704 373.849 90.6501 373.849 93.9419C373.849 97.3513 372.203 99.2323 369.029 99.2323C366.442 99.2323 364.091 97.2337 362.093 94.4122C358.213 89.0042 355.039 79.1287 355.039 66.9019C355.039 54.7927 358.448 43.5064 360.329 36.4525C361.857 30.8094 363.151 26.2243 363.151 21.6393C363.268 16.7016 360.329 12.1165 356.92 8.35443L358.448 6.94365C361.622 7.88417 363.856 8.94226 366.207 10.7057C369.382 12.9395 375.26 18.9353 375.26 24.8136C375.26 27.7527 373.614 30.104 370.792 36.0998C367.03 43.5064 362.563 54.2049 362.563 64.7857C362.563 69.4883 363.268 71.9572 363.974 73.368C364.679 75.0139 365.737 75.1315 366.795 73.4856C369.617 69.2532 375.848 56.5562 378.787 50.6779ZM390.426 61.729L392.659 61.3763C393.365 64.1979 394.423 68.1951 395.834 70.7816C400.184 78.4233 406.062 81.9503 420.64 81.9503C432.867 81.9503 437.569 79.7165 440.156 79.7165C444.388 79.7165 448.738 81.48 448.738 85.1245C448.738 91.3555 437.217 92.8838 423.697 92.8838C403.123 92.8838 393.6 84.7718 391.131 71.8397C390.308 68.3127 390.191 64.6682 390.426 61.729ZM394.658 28.9283L393.718 26.577C402.888 19.7583 414.644 17.1718 423.109 17.1718C431.103 17.1718 435.806 17.9948 439.686 19.9934C442.86 21.5217 443.8 23.6379 443.8 25.4014C443.8 27.7527 442.625 28.9283 439.921 29.3986C436.629 29.9864 432.984 30.2216 428.634 31.6323C423.344 33.631 415.35 37.8633 409.236 41.5078L407.473 39.6268C412.646 35.512 419.699 30.104 421.816 27.9878C423.109 26.577 423.462 25.519 415.114 25.519C411.117 25.519 404.534 26.1068 394.658 28.9283Z" fill="url(#paint0_linear_2_11903)"/>
</g>
<defs>
<filter id="filter0_d_2_11903" x="0.694914" y="0.830078" width="452.995" height="106.06" filterUnits="userSpaceOnUse" color-interpolation-filters="sRGB">
<feFlood flood-opacity="0" result="BackgroundImageFix"/>
<feColorMatrix in="SourceAlpha" type="matrix" values="0 0 0 0 0 0 0 0 0 0 0 0 0 0 0 0 0 0 127 0" result="hardAlpha"/>
<feOffset dx="2.12229" dy="2.82972"/>
<feGaussianBlur stdDeviation="1.41486"/>
<feComposite in2="hardAlpha" operator="out"/>
<feColorMatrix type="matrix" values="0 0 0 0 0.154346 0 0 0 0 0.154346 0 0 0 0 0.154346 0 0 0 1 0"/>
<feBlend mode="normal" in2="BackgroundImageFix" result="effect1_dropShadow_2_11903"/>
<feBlend mode="normal" in="SourceGraphic" in2="effect1_dropShadow_2_11903" result="shape"/>
</filter>
<linearGradient id="paint0_linear_2_11903" x1="-12" y1="44.502" x2="459" y2="44.502" gradientUnits="userSpaceOnUse">
<stop stop-color="#F0C48F"/>
<stop offset="0.36" stop-color="#835120"/>
<stop offset="1" stop-color="#EAD69C"/>
</linearGradient>
</defs>
</svg>
