<svg width="469" height="75" viewBox="0 0 469 75" fill="none" xmlns="http://www.w3.org/2000/svg">
<g filter="url(#filter0_d_2_11901)">
<path d="M26.08 35.96C26.08 39.88 26.64 42.84 27.44 45.32C32.16 40.28 36.96 33.56 38.96 28.68C34.72 28.84 30.64 29.88 26.24 31.88C26.16 33.32 26.08 34.68 26.08 35.96ZM9.36 56.2C12.96 56.2 17.92 53.56 22.16 50.2C21.28 46.44 20.8 41.96 20.8 37.8C20.8 36.84 20.8 35.88 20.88 34.76C12.48 40.28 7.04 48.36 7.04 53.56C7.04 55.4 7.76 56.2 9.36 56.2ZM36.24 21.32L36.88 20.28C39.92 20.84 42.4 21.72 44 23.4C44.72 24.28 45.04 25.16 44.88 26.2C57.12 27.72 64.32 36.52 64.32 45.88C64.32 61.8 48.4 68.68 26.48 69L26.16 67.32C46.56 63.96 56.96 55.48 56.96 43.96C56.96 36.44 52.08 30.44 43.92 29C41.28 35.48 35.68 43.64 29.52 50.28C30.48 52.36 31.28 54.12 31.28 55.96C31.28 58.04 29.92 58.92 28.08 58.92C26.4 58.92 25.04 57.64 24 55.56C18.24 60.28 12.24 62.84 7.36 62.84C3.52 62.84 1.12 60.6 1.12 56.12C1.12 45.56 11.04 35.88 21.2 30.68C21.6 27.24 22.08 23.56 22.64 20.12C20.16 20.44 17.6 20.6 15.2 20.6C9.2 20.6 6.4 17.88 3.92 12.12L4.96 11.16C9.12 14.12 11.92 15.08 16.24 15.08C18.72 15.08 21.12 14.92 23.52 14.6C24 11.4 24.32 8.76 24.32 7.24C24.32 5.8 24 5.39999 22.72 4.92C21.44 4.44 19.76 4.12 18.16 3.8V2.43999C19.68 1.8 21.76 1.08 23.12 1.08C27.76 1.08 32.72 3.72 32.72 5.56C32.72 7.48 30.88 8.12 30.16 11.08L29.52 13.56C39.36 11.4 44.72 7.88 45.92 7.88C49.52 7.88 51.44 9 51.44 10.92C51.44 12.36 50.72 13.32 48.88 14.04C45.28 15.56 36.72 17.96 28.24 19.32C27.6 22.28 27.04 25.4 26.64 28.36C30.56 27 35.04 26.12 39.76 25.96C39.84 24.2 38.72 22.92 36.24 21.32ZM94 3.48V2.28C95.44 1.64 97.84 0.919995 99.76 0.919995C102.4 0.919995 104.96 1.64 106.48 2.76C108.08 3.8 107.36 5.88 104.8 14.2C111.36 12.04 113.2 10.36 114.48 10.36C116.24 10.36 118.08 11.56 118.08 13.56C118.08 15.16 116.64 16.2 115.52 17C112.88 18.52 107.92 20.2 102.56 21.32C99.92 29.56 94.72 43.64 88.4 53.24C86.72 55.8 85.44 57.48 83.52 57.48C81.28 57.48 80.08 55.32 80.08 53.08C80.08 51.4 80.56 50.12 81.84 48.44C86.96 41.96 92.88 33.16 96.48 22.28C94.4 22.52 92.4 22.68 90.56 22.68C84.16 22.68 81.28 20.6 78.96 13.08L80.16 12.2C83.6 14.92 85.84 16.76 91.12 16.76C93.44 16.76 96.08 16.36 98.32 15.88C98.96 13.08 99.36 10.36 99.44 8.44C99.52 6.76 98.96 5.88 97.6 5.08C96.32 4.27999 94.96 3.8 94 3.48ZM120 55.24C120 54.6 120 53.88 120 53.24C117.84 52.76 115.52 52.52 112.96 52.52C106.08 52.52 102.72 55.56 102.72 58.2C102.72 60.92 105.12 63 110.8 63C117.44 63 120 59.88 120 55.24ZM123.2 17.8V16.12C127.44 15.08 131.92 15.32 135.04 16.36C140.24 18.04 143.28 21.48 143.28 25.4C143.28 27.72 142.4 29.24 140.32 29.24C137.68 29.24 135.92 27.24 131.92 27.4C129.36 27.56 126.72 28.52 125.28 30.28C123.84 32.04 123.84 34.68 124.08 37.72C124.32 40.04 125.12 44.44 125.84 48.92C130.4 50.04 134.08 51.96 136.88 53.64C141.44 56.28 144.16 59.08 144.16 62.04C144.16 64.52 142.8 65.64 141.2 65.64C139.2 65.64 138.08 63.8 135.6 61.56C133.12 59.24 130.24 57.08 126.56 55.4C126.64 56.52 126.72 57.56 126.72 58.52C126.72 65.4 121.44 69.24 112.72 69.24C104.08 69.24 99.2 64.92 99.2 59.48C99.2 53.24 105.6 47.88 116.8 47.88C117.84 47.88 118.8 47.88 119.76 47.96C119.6 45.08 119.36 42.12 119.36 39.56C119.36 34.76 120.4 31.4 122.88 28.76C125.68 25.56 129.52 24.12 132.16 22.76C133.12 22.12 132.8 21.24 131.76 20.36C129.76 18.84 126.72 17.96 123.2 17.8ZM193.92 31.24L193.44 29.8C197.44 27.48 203.44 25.56 209.44 25.56C214.72 25.56 218.24 26.68 220 27.64C222.16 28.92 223.2 30.52 223.2 32.04C223.2 33.88 221.76 34.76 218.88 34.92C217.44 34.92 216 35.16 213.92 35.8C210.88 36.44 207.28 37.88 204.48 39L203.6 37.8C206.16 36.2 210.32 33.16 211.2 32.2C211.76 31.72 211.52 31.32 210.88 31.08C209.04 30.44 206.24 30.12 203.92 30.12C200.96 30.12 197.52 30.6 193.92 31.24ZM186.88 13.96L186 17.08C189.84 15.8 192.72 14.44 195.04 13.24C196.48 12.36 197.52 11.72 198.24 11.72C200 11.72 203.12 12.68 203.12 15.08C203.12 17 201.76 18.12 197.12 19.8C195.04 20.68 189.44 22.52 184.08 23.8C183.04 27.4 181.84 31.4 180.56 35.08C177.28 44.84 172.24 58.6 168.96 64.28C167.68 66.6 166.64 67.96 164.24 67.96C162.24 67.96 160.8 65.72 160.8 63.16C160.8 60.52 162.24 59.48 164 56.44C167.44 51.08 171.6 43.48 175.28 32.92C176.08 30.6 176.96 27.88 177.68 25.16C175.12 25.56 172.32 25.88 170.08 25.88C164.56 25.88 160.8 24.28 158.24 16.6L159.36 15.8C163.2 18.76 165.52 19.88 169.12 19.96C172.64 20.04 176.24 19.48 179.2 18.92C180.16 14.92 180.8 11.32 180.96 9.08C181.04 7.16 180.72 6.52 179.36 5.64C178 4.84 176.32 4.27999 174.56 3.72L174.64 2.28C176.56 1.56 178.4 1.16 180.56 1.24C184.56 1.31999 189.68 3.56 189.68 5.64C189.68 7.4 188.32 9.16 186.88 13.96ZM188.24 46.84L189.84 46.68C190.16 48.84 190.8 51.72 192.4 54.04C195.36 58.52 200.08 60.12 206.72 60.12C214.24 60.12 217.04 58.6 218.96 58.6C221.52 58.6 224.56 59.8 224.56 62.52C224.56 64.44 222.56 65.64 219.68 66.28C217.2 66.84 213.68 67.32 208.56 67.32C197.6 67.32 190.4 63.32 188.88 55.16C188 52.36 188.08 49.32 188.24 46.84ZM288.24 8.44L289.12 7.24C293.44 8.68 296.88 10.36 299.12 12.44C300.96 14.12 301.68 15.56 301.6 17.08C301.6 18.6 300.56 19.64 298.96 19.64C297.68 19.56 296.72 18.12 295.36 16.2C293.84 14.12 291.76 11.32 288.24 8.44ZM272.4 31.96L271.92 30.52C275.92 28.2 281.92 26.28 287.92 26.28C293.2 26.28 296.72 27.4 298.48 28.36C300.64 29.64 301.68 31.24 301.68 32.76C301.68 34.6 300.24 35.48 297.36 35.64C295.92 35.64 294.48 35.88 292.4 36.52C289.36 37.16 285.76 38.6 282.96 39.72L282.08 38.52C284.64 36.92 288.8 33.88 289.68 32.92C290.24 32.44 290 32.04 289.36 31.8C287.52 31.16 284.72 30.84 282.4 30.84C279.44 30.84 276 31.32 272.4 31.96ZM265.36 14.68L264.48 17.8C268.32 16.52 271.2 15.16 273.52 13.96C274.96 13.08 276 12.44 276.72 12.44C278.48 12.44 281.6 13.4 281.6 15.8C281.6 17.72 280.24 18.84 275.6 20.52C273.52 21.4 267.92 23.24 262.56 24.52C261.52 28.12 260.32 32.12 259.04 35.8C255.76 45.56 250.72 59.32 247.44 65C246.16 67.32 245.12 68.68 242.72 68.68C240.72 68.68 239.28 66.44 239.28 63.88C239.28 61.24 240.72 60.2 242.48 57.16C245.92 51.8 250.08 44.2 253.76 33.64C254.56 31.32 255.44 28.6 256.16 25.88C253.6 26.28 250.8 26.6 248.56 26.6C243.04 26.6 239.28 25 236.72 17.32L237.84 16.52C241.68 19.48 244 20.6 247.6 20.68C251.12 20.76 254.72 20.2 257.68 19.64C258.64 15.64 259.28 12.04 259.44 9.8C259.52 7.88 259.2 7.24 257.84 6.36C256.48 5.56 254.8 5 253.04 4.44L253.12 3C255.04 2.28 256.88 1.88 259.04 1.96C263.04 2.04 268.16 4.27999 268.16 6.36C268.16 8.12 266.8 9.88 265.36 14.68ZM266.72 47.56L268.32 47.4C268.64 49.56 269.28 52.44 270.88 54.76C273.84 59.24 278.56 60.84 285.2 60.84C292.72 60.84 295.52 59.32 297.44 59.32C300 59.32 303.04 60.52 303.04 63.24C303.04 65.16 301.04 66.36 298.16 67C295.68 67.56 292.16 68.04 287.04 68.04C276.08 68.04 268.88 64.04 267.36 55.88C266.48 53.08 266.56 50.04 266.72 47.56ZM295.36 3.4L296.16 2.2C300.56 3.4 303.92 4.84 306.08 6.44C308.08 8.04 308.88 9.64 308.88 11.4C308.88 13 308 13.88 306.56 13.88C305.12 13.88 304.24 12.36 302.64 10.36C301.04 8.44 299.28 6.36 295.36 3.4ZM338.32 33.4L340.08 34.12C338.32 39.4 336.08 46.6 335.28 49.8C334.8 51.56 334.48 53.16 334.48 55.16C334.48 57.88 335.84 59.8 335.84 62.68C335.84 64.76 334.56 65.96 332.4 65.96C330.4 65.96 328.72 64.44 327.36 62.04C325.2 58.44 322.72 52.36 322.72 42.76C322.72 32.04 327.68 21 327.68 13.72C327.68 10.28 325.68 7.32 323.2 4.6L324.16 3.56C326.48 4.27999 327.92 5 329.6 6.04C331.76 7.48 335.92 11.72 335.92 15.8C335.92 17.88 334.72 19.96 333.28 22.68C330.56 28.04 327.76 35 327.76 41.56C327.76 44.92 328.32 47.48 329.12 49.08C329.76 50.28 330.48 50.28 331.12 49.16C332.88 46.44 336.24 38.52 338.32 33.4ZM358.32 6.84L358.16 5.39999C360.32 4.2 363.2 3.16 365.04 3.16C368.56 3.16 374.16 5.64 374.16 8.2C374.16 9.48 373.04 10.84 372.96 13.64C372.88 15.32 372.88 17.72 372.96 20.28C374.32 19.8 375.6 19.4 376.64 18.92C379.52 17.72 380.32 17 380.88 17C383.36 17 386.16 18.36 386.16 20.52C386.16 22.04 385.44 23.08 383.28 24.04C381.12 25 377.52 26.2 373.28 27.24C373.76 35.72 374.48 47.64 371.52 54.68C367.84 63.8 360.08 67.8 350.16 70.68L349.44 69.24C357.2 65 362.4 60.28 365.04 51.32C367.2 45 366.96 35.96 366.64 28.52C363.84 28.92 361.04 29.16 358.32 29.16C353.44 29.16 348.16 27.64 344.24 20.04L345.2 19C349.6 21.8 353.2 23.16 357.44 23.16C360.08 23.16 363.2 22.68 366.32 22.04C366.08 17.88 365.84 13.48 365.6 11.16C365.36 9.4 364.88 8.76 363.84 8.36C362.32 7.56 360.32 7.24 358.32 6.84ZM429.68 19.4C429.68 16.68 428.64 14.36 427.36 12.28C422 13.56 416.72 16.44 412.8 20.52C408 25.56 405.2 31.48 405.2 38.2C405.2 45.16 408.24 51 411.52 51C416.4 51 423.6 39.32 426.4 32.92C428.32 28.6 429.68 23.32 429.68 19.4ZM428.72 65.96L428.4 64.28C448.32 60.12 456.72 49.4 456.72 35.24C456.72 20.76 446.8 11.48 433.68 11.48C432.72 11.48 431.68 11.56 430.64 11.64C432.88 14.2 435.2 17.64 435.2 21.16C435.2 25.08 434.32 30.04 432.56 34.76C429.12 44.68 420 59.64 410.96 59.64C404.96 59.64 399.2 50.44 399.2 40.2C399.2 32.52 402.88 23.48 410.48 17C416.96 11.32 425.12 8.52 434.4 8.52C451.92 8.52 464.88 20.44 464.88 37.08C464.88 51.4 455.2 64.6 428.72 65.96Z" fill="url(#paint0_linear_2_11901)"/>
</g>
<defs>
<filter id="filter0_d_2_11901" x="0.63873" y="0.919922" width="467.611" height="73.6111" filterUnits="userSpaceOnUse" color-interpolation-filters="sRGB">
<feFlood flood-opacity="0" result="BackgroundImageFix"/>
<feColorMatrix in="SourceAlpha" type="matrix" values="0 0 0 0 0 0 0 0 0 0 0 0 0 0 0 0 0 0 127 0" result="hardAlpha"/>
<feOffset dx="1.44416" dy="1.92555"/>
<feGaussianBlur stdDeviation="0.962774"/>
<feComposite in2="hardAlpha" operator="out"/>
<feColorMatrix type="matrix" values="0 0 0 0 0.154346 0 0 0 0 0.154346 0 0 0 0 0.154346 0 0 0 1 0"/>
<feBlend mode="normal" in2="BackgroundImageFix" result="effect1_dropShadow_2_11901"/>
<feBlend mode="normal" in="SourceGraphic" in2="effect1_dropShadow_2_11901" result="shape"/>
</filter>
<linearGradient id="paint0_linear_2_11901" x1="-8" y1="30.5014" x2="472" y2="30.5014" gradientUnits="userSpaceOnUse">
<stop stop-color="#F0C48F"/>
<stop offset="0.36" stop-color="#835120"/>
<stop offset="1" stop-color="#EAD69C"/>
</linearGradient>
</defs>
</svg>
