<svg width="474" height="85" viewBox="0 0 474 85" fill="none" xmlns="http://www.w3.org/2000/svg">
<g filter="url(#filter0_d_2_11902)">
<path d="M32.81 16.76H12.89C12.33 17.32 11.69 17.88 11.05 18.36L14.41 19.72H20.01L22.81 17L28.65 21.32C28.33 21.72 27.53 22.2 26.65 22.44V27.24C27.61 27.32 28.65 27.32 29.29 27.32C30.25 27.32 30.65 27.24 31.05 26.92C31.85 26.12 32.41 23.24 32.81 16.76ZM14.09 26.28H20.57V22.04H14.09V26.28ZM10.17 10.12L11.85 10.52V9.32H2.49L2.01 7H11.85V1.48L20.73 2.28C20.65 3.32 20.09 4.2 18.41 4.44V7H25.29V1.48L34.33 2.28C34.25 3.32 33.61 4.2 31.85 4.44V7H35.05L38.17 3.16C38.17 3.16 41.93 5.96 44.17 8.04C43.93 8.92 43.21 9.32 42.17 9.32H31.85V10.36C31.85 10.84 30.41 11.96 26.57 11.96H25.29V9.32H18.41V10.6C18.41 10.84 17.85 11.32 16.73 11.72L18.81 12.2C18.49 13 17.93 13.4 16.01 13.16C15.69 13.56 15.37 14.04 14.97 14.44H32.09L35.29 11.24L41.61 16.36C41.13 16.92 40.17 17.24 38.73 17.48C38.33 26.76 37.45 30.2 35.05 31.96C33.37 33.08 31.37 33.56 28.73 33.56C28.73 32.04 28.57 30.68 27.85 29.88C27.53 29.56 27.13 29.24 26.65 29C26.49 29.4 23.45 30.44 21.53 30.44H20.57V28.6H14.09V30.2C14.09 30.76 11.37 32.04 8.97 32.04H8.09V20.68C6.17 21.96 4.17 23.08 2.09 23.96L1.29 23.08C4.89 20.04 8.41 14.76 10.17 10.12ZM21.21 61.16L22.25 60.92C34.57 68.92 25.93 78.2 21.45 72.28C22.25 68.6 22.01 64.2 21.21 61.16ZM32.89 60.92L33.77 60.44C48.73 65.96 41.85 76.84 36.49 71.8C36.49 68.12 34.65 63.64 32.89 60.92ZM19.93 51.4V56.36H34.57V51.4H19.93ZM34.57 37H19.93V41.8H34.57V37ZM34.57 49.08V44.12H19.93V49.08H34.57ZM62.81 56.36L66.65 52.76L73.69 58.44C73.13 59.08 72.25 59.48 70.73 59.72C70.01 68.04 68.57 72.2 65.53 74.12C63.61 75.16 61.21 75.8 58.49 75.8C58.49 73.96 58.25 72.04 57.45 71.16C56.97 70.6 56.49 70.12 55.69 69.8C54.73 71.4 52.57 71.96 50.41 70.28C50.17 67 48.17 63.16 45.93 60.92L46.73 60.36C54.01 61.96 56.41 65.4 56.25 68.04C57.37 68.04 58.41 68.12 59.05 68.12C60.09 68.12 60.65 68.04 61.05 67.64C62.01 66.92 62.89 64.04 63.45 58.68H19.93V59.08C19.93 59.64 17.53 61.32 13.85 61.32H13.61C15.13 68.6 11.85 73.4 8.33 74.92C5.85 76.04 2.81 75.48 1.93 73.08C1.29 70.76 2.89 69 4.89 68.04C8.01 67 11.69 63.96 12.09 60.28H12.49V31.4L20.97 34.68H54.09L58.09 30.28C58.09 30.28 62.49 33.32 65.37 35.72C65.13 36.6 64.33 37 63.21 37H41.85V41.8H53.37L57.13 37.56C57.13 37.56 61.45 40.52 64.17 42.84C63.93 43.72 63.21 44.12 62.09 44.12H41.85V49.08H53.37L57.21 44.68C57.21 44.68 61.53 47.72 64.25 50.12C64.01 51 63.29 51.4 62.17 51.4H41.85V56.36H62.81ZM60.01 11.88H50.49C50.09 12.36 49.69 12.84 49.29 13.32C50.97 15.96 52.89 18.28 55.37 20.2C57.45 17.72 58.97 14.92 60.01 11.88ZM72.81 11.88H67.77C66.01 16.36 63.37 20.04 59.85 23C63.93 25.08 68.89 26.6 75.05 27.48L74.89 28.28C72.41 29.16 71.05 30.92 70.65 34.12C64.09 32.28 59.29 29.64 55.61 26.12C51.05 29 45.37 31.08 38.81 32.6L38.33 31.48C44.33 29.24 49.13 26.36 52.81 23C50.89 20.52 49.37 17.8 48.09 14.76C45.85 17.08 43.37 19.24 40.57 20.84L39.69 20.12C43.77 15.64 47.05 7.72 48.49 1.24L57.93 3.8C57.69 4.59999 57.05 5 55.13 4.76C54.33 6.36 53.29 7.96 52.25 9.56H63.77L67.77 4.76C67.77 4.76 72.09 7.88 74.97 10.6C74.73 11.48 74.01 11.88 72.81 11.88ZM105.69 8.92L105.45 7.64C107.77 5.88 110.17 4.76 113.05 4.76C116.81 4.76 119.93 5.48 120.33 8.2C120.73 10.2 121.13 13.24 121.77 16.04C129.13 13.8 131.85 11.08 132.97 11.08C135.53 11.08 138.49 11.56 138.49 13.88C138.49 14.84 137.93 15.88 136.41 16.84C134.41 18.2 129.45 20.2 123.61 21.88C124.65 24.76 125.77 27.56 127.37 30.6C128.49 30.2 129.61 29.8 130.73 29.4C137.77 26.92 139.29 25.32 140.25 25.32C142.89 25.08 145.77 25.64 145.77 28.12C145.77 29.16 145.37 30.28 143.69 31.32C140.73 33.08 136.25 35 130.73 36.6C136.81 46.28 141.61 48.36 141.61 51.08C141.61 54.36 139.69 57.88 137.37 57.88C135.05 57.88 133.85 56.2 129.85 54.04C126.89 52.44 120.89 50.36 114.41 50.36C106.17 50.36 100.65 53.88 100.65 58.76C100.65 65.24 109.45 66.44 116.49 66.44C123.21 66.44 124.33 65.48 128.33 65.48C131.37 65.48 133.77 66.6 133.77 69C133.77 72.36 126.97 73.56 117.53 73.56C106.09 73.56 95.45 69.4 95.45 60.36C95.45 53.48 102.41 47.16 116.49 47.16C122.81 47.16 128.57 48.28 131.93 49.08C132.97 49.4 132.97 49.08 132.57 48.36C131.21 46.36 128.49 42.84 125.69 37.88C119.61 39.24 112.73 40.2 105.77 40.2C94.73 40.2 90.65 32.6 100.09 26.12L101.29 27.16C97.13 31.56 98.33 34.44 106.09 34.44C111.53 34.44 117.21 33.48 122.57 32.04C121.29 29.32 119.85 26.28 118.57 23.08C114.41 23.96 110.01 24.6 106.09 24.6C99.37 24.6 95.37 23.16 91.61 15.8L92.65 15.08C96.81 17.96 99.21 19.16 105.05 19.16C107.93 19.16 112.33 18.44 116.25 17.56C115.61 15.8 114.97 14.12 114.41 12.52C113.61 10.52 112.97 9.72 110.49 9.32C109.13 9.08 107.29 8.92 105.69 8.92ZM207.77 19.16L208.33 18.12C210.89 18.28 213.29 18.52 215.05 19.4C218.09 21 220.81 24.44 220.81 26.68C220.81 28.44 219.13 29.24 215.53 30.52C209.93 32.28 200.81 36.28 194.65 39.88C187.85 43.88 180.57 49.96 180.57 56.52C180.57 61.32 185.13 64.28 196.01 64.28C207.21 64.28 213.37 61.96 215.29 61.96C219.29 61.96 222.73 62.84 222.73 66.12C222.73 67.56 221.29 69 219.37 69.72C216.17 70.76 208.89 71.8 198.89 71.8C184.97 71.8 175.69 67.16 175.69 58.12C175.69 49.08 184.41 41.16 190.17 36.84C187.93 35.4 186.49 33.24 185.45 30.84C183.77 26.92 182.65 19.64 181.93 14.36C181.69 12.76 181.13 11.88 179.53 11C178.25 10.36 176.41 9.8 174.97 9.39999L174.89 7.96C177.05 7.24 178.89 6.68 180.89 6.68C185.53 6.68 190.17 9.96 190.17 12.28C190.25 13.8 189.61 15.16 189.69 17.16C189.69 20.28 190.25 25.24 191.21 28.12C192.09 30.52 193.37 32.28 195.29 33.56C201.05 30.04 208.17 26.28 210.49 24.92C211.53 24.28 211.77 23.64 211.37 22.6C210.73 21.16 209.21 20.04 207.77 19.16ZM241.37 75.72L240.97 74.68C250.09 70.52 259.77 63 264.17 57.24L274.49 62.76C273.93 63.56 272.49 63.96 270.17 63.64C263.69 68.36 252.57 73.32 241.37 75.72ZM286.09 60.28L286.57 59.16C325.93 64.52 312.73 80.84 305.69 74.2C302.41 69.88 296.01 64.44 286.09 60.28ZM276.17 40.52H279.93V27.4H276.17V40.52ZM279.45 25.08L281.69 22.92L286.25 26.52C285.93 26.84 285.13 27.32 284.17 27.48V44.76C284.17 45.32 282.01 46.36 280.57 46.36H279.93V42.76H276.17V46.44C276.17 46.84 274.41 47.8 272.65 47.8H272.01V23L276.49 25.08H279.45ZM271.13 18.68L270.49 16.44H278.73L281.69 12.6C281.69 12.6 284.97 15.4 286.97 17.48C286.81 18.28 286.09 18.68 284.97 18.68H271.13ZM254.89 40.2L255.21 53.56H263.29V39.32C262.97 39.96 262.33 40.2 261.45 40.2H254.89ZM263.29 23.08V7.56C263.05 7.56 262.81 7.48 262.49 7.32C261.05 7.96 258.73 8.84 256.25 9.64C255.85 9.96 255.21 10.12 254.41 10.28H254.25L254.49 22.28H255.85L258.57 17.96C258.57 17.96 261.61 21 263.29 23.08ZM254.57 24.6L254.81 37.88H255.85L258.57 33.48C258.57 33.48 261.53 36.6 263.29 38.76V23.72C262.97 24.36 262.41 24.6 261.45 24.6H254.57ZM287.13 9H269.13V53.56H287.13V9ZM295.53 9.24L295.29 8.52C294.81 8.92 294.01 9.32 293.05 9.56V53.56H300.81L301.13 40.2H295.13L294.41 37.88H301.13L301.45 24.6H295.45L294.73 22.28H301.45L301.69 9.24H295.53ZM307.45 53.56L310.89 48.44C310.89 48.44 314.81 52.04 316.97 54.6C316.81 55.48 316.01 55.88 314.97 55.88H241.21L240.57 53.56H248.57L247.53 5.72L253.29 7.72C255.45 5.4 257.61 2.75999 258.65 1.32L263.29 5.72V3.96L269.77 6.68H286.49L289.53 3.56L295.13 7.96L294.81 6.92H300.97L304.17 3.08L311.29 9C310.65 9.64 309.93 9.96 308.33 10.2L307.37 53.56H307.45ZM355.21 30.92V26.04H343.45V30.92H355.21ZM355.21 38.28V33.24H343.45V38.28H355.21ZM355.21 45.56V40.52H343.45V45.56H355.21ZM354.49 54.76H338.65V60.84H354.49V54.76ZM378.17 54.76H361.85V60.84H378.17V54.76ZM361.85 69.32H378.17V63.16H361.85V69.32ZM338.65 63.16V69.32H354.49V63.16H338.65ZM392.01 12.44H369.53C376.25 16.44 387.53 18.76 395.69 19.4L395.53 20.52C392.25 21.96 390.01 24.12 389.61 27C380.41 24.28 371.77 18.76 366.09 12.44H351.13C349.61 13.8 347.93 15.08 346.09 16.36L352.25 18.28C351.93 19.08 351.29 19.4 349.21 19.16C348.01 20.68 346.65 22.2 345.13 23.72H354.73C355.69 21.08 356.65 17.72 357.21 15.16L367.13 17.96C366.81 18.92 365.85 19.56 364.17 19.4C362.49 20.76 360.25 22.36 357.93 23.72H370.73L374.25 19.8C374.25 19.8 378.17 22.52 380.81 24.76C380.57 25.64 379.77 26.04 378.73 26.04H362.41V30.92H371.29L374.81 26.92C374.81 26.92 378.89 29.72 381.37 31.96C381.21 32.84 380.49 33.24 379.37 33.24H362.41V38.28H371.77L375.37 34.12C375.37 34.12 379.53 37.08 382.09 39.32C381.85 40.2 381.13 40.52 380.09 40.52H362.41V45.56H376.17L380.25 40.52C380.25 40.52 384.81 43.96 387.69 46.6C387.45 47.48 386.65 47.88 385.53 47.88H343.45V49.08C343.45 49.64 341.05 51.4 337.37 51.4H336.73L339.29 52.44H377.37L381.05 48.28L389.37 54.44C388.81 55.08 387.61 55.72 386.01 56.12V73.4C385.93 73.96 381.93 75.32 379.45 75.32H378.17V71.64H338.65V73.56C338.65 74.28 335.45 75.8 332.49 75.8H331.45V49.24L336.09 51.16V31.24C332.89 33.48 329.53 35.4 326.09 36.84L325.37 35.96C330.65 32.12 336.09 26.04 339.93 20.12C334.65 22.84 328.41 25.32 321.05 27.16L320.49 26.2C329.37 22.52 336.25 17.64 341.37 12.44H322.89L322.25 10.12H343.53C346.33 7 348.41 3.8 350.01 0.759996L360.41 4.52C359.93 5.56 358.81 6.04 357.21 5.8C356.17 7.24 354.97 8.68 353.53 10.12H380.89L385.53 4.36C385.53 4.36 390.97 8.27999 394.17 11.16C393.93 12.04 393.13 12.44 392.01 12.44ZM456.65 25.4L457.45 24.04C460.97 24.44 462.89 24.92 464.57 25.96C467.05 27.48 470.01 30.84 470.01 33.56C470.01 35.56 468.33 35.64 464.73 36.68C458.97 38.36 450.33 41.4 443.45 44.44C443.77 49 443.85 54.04 443.85 56.84C443.85 59.24 442.65 60.92 440.41 60.92C438.41 60.92 436.65 59.8 436.65 57.08C436.65 55 436.97 51.48 437.05 47.64C429.93 51.64 424.41 56.36 424.41 60.92C424.41 64.6 428.33 66.84 436.09 66.84C448.01 66.84 452.65 64.2 456.09 64.2C459.53 64.2 462.17 65.16 462.17 67.72C462.17 69.56 461.45 70.76 458.65 71.56C455.45 72.52 447.45 73.72 440.65 73.72C425.37 73.72 420.49 68.52 420.49 61.88C420.49 55.16 428.49 48.36 437.13 42.92C436.89 36.52 435.77 34.04 431.77 34.04C427.61 34.04 422.49 39.24 419.45 42.76C416.57 46.12 414.17 50.6 411.61 50.68C409.37 50.76 408.25 48.84 408.17 46.2C408.17 43.64 410.97 41.96 414.25 38.44C418.57 34.12 422.33 29 425.05 24.2C423.05 24.36 421.05 24.52 419.05 24.52C412.57 24.52 411.13 21.4 408.49 15.08L409.85 14.28C412.81 17.08 414.97 19 420.65 18.92C422.97 18.84 425.61 18.52 428.33 18.04C429.45 15.56 430.17 13.48 430.49 11.96C430.81 10.6 430.73 9.72 429.29 8.92C428.17 8.27999 426.49 7.8 424.57 7.24V5.96C426.33 5.31999 428.49 4.68 429.93 4.68C432.89 4.68 438.81 5.88 438.81 8.36C438.81 9.48 438.17 10.04 437.37 11.72C436.73 13 435.85 14.68 434.97 16.44C438.33 15.48 441.37 14.44 443.37 13.64C446.33 12.36 447.05 11.4 448.17 11.4C450.57 11.4 452.65 12.2 452.65 14.44C452.65 15.56 451.93 16.6 450.09 17.48C447.21 19 439.69 21.64 431.29 23.24C429.77 26.04 427.61 29.4 424.49 33.56C424.17 34.04 424.41 34.44 425.05 34.04C427.69 32.44 430.57 31.08 433.77 31.08C438.73 31.08 441.85 34.28 442.81 39.64C448.81 36.52 456.01 33.4 460.09 31.08C461.45 30.36 461.69 29.48 460.57 28.28C459.77 27.24 458.17 26.2 456.65 25.4Z" fill="url(#paint0_linear_2_11902)"/>
</g>
<defs>
<filter id="filter0_d_2_11902" x="0.808652" y="0.759766" width="472.571" height="83.9312" filterUnits="userSpaceOnUse" color-interpolation-filters="sRGB">
<feFlood flood-opacity="0" result="BackgroundImageFix"/>
<feColorMatrix in="SourceAlpha" type="matrix" values="0 0 0 0 0 0 0 0 0 0 0 0 0 0 0 0 0 0 127 0" result="hardAlpha"/>
<feOffset dx="1.44416" dy="1.92555"/>
<feGaussianBlur stdDeviation="0.962774"/>
<feComposite in2="hardAlpha" operator="out"/>
<feColorMatrix type="matrix" values="0 0 0 0 0.154346 0 0 0 0 0.154346 0 0 0 0 0.154346 0 0 0 1 0"/>
<feBlend mode="normal" in2="BackgroundImageFix" result="effect1_dropShadow_2_11902"/>
<feBlend mode="normal" in="SourceGraphic" in2="effect1_dropShadow_2_11902" result="shape"/>
</filter>
<linearGradient id="paint0_linear_2_11902" x1="-1.75" y1="34.5014" x2="478.25" y2="34.5014" gradientUnits="userSpaceOnUse">
<stop stop-color="#F0C48F"/>
<stop offset="0.36" stop-color="#835120"/>
<stop offset="1" stop-color="#EAD69C"/>
</linearGradient>
</defs>
</svg>
