<svg width="24" height="24" viewBox="0 0 24 24" fill="none" xmlns="http://www.w3.org/2000/svg">
<g clip-path="url(#clip0_103_249)">
<mask id="mask0_103_249" style="mask-type:luminance" maskUnits="userSpaceOnUse" x="0" y="0" width="24" height="24">
<path d="M24 0H0V24H24V0Z" fill="white"/>
</mask>
<g mask="url(#mask0_103_249)">
<path d="M9.59978 16.2527C9.0357 15.4124 8.71046 14.5589 8.56915 13.6194C8.42959 12.6887 8.50667 11.7725 8.74783 10.8029C7.47487 11.5529 6.71693 12.6454 6.33095 14.1278C5.7552 13.1701 5.59871 12.1879 5.81301 11.1318C6.02089 10.1088 6.53182 9.25727 7.14203 8.45335C6.04249 8.86441 5.08485 9.49825 4.43202 10.5475C3.78269 11.5911 3.74123 12.8187 3.70561 14.0562C3.04461 13.6665 2.71994 11.3219 3.07322 9.89299C3.40489 8.54874 3.92225 7.84775 5.50002 6.60141C5.49243 6.57568 5.48542 6.55058 5.47783 6.52484C5.06558 6.67483 4.64223 6.79595 4.24341 6.97983C3.09424 7.51012 2.36083 8.48913 1.81486 9.65891C1.23093 10.9096 0.956484 12.2488 0.820429 13.6295C0.801159 13.8272 0.746854 14.0211 0.708899 14.2169C0.672695 14.2238 0.636492 14.23 0.599704 14.237C0.515619 14.0719 0.407592 13.9156 0.352119 13.7399C-0.197357 12.0003 -0.0794032 10.2745 0.530801 8.59079C1.41078 6.16399 3.05337 4.65031 5.46207 4.31079C7.41822 4.03466 9.17877 4.64654 10.4751 6.33155C11.0088 7.02501 11.4549 7.81763 11.5746 8.75208C11.6283 9.17004 11.5647 9.57105 11.3311 9.91621C10.0891 11.7493 9.51511 13.7958 9.60912 16.06C9.61146 16.0964 9.6062 16.1328 9.59978 16.2527Z" fill="#025BE8"/>
<path d="M11.9414 21.9644C12.1095 21.9518 12.2018 21.943 12.2935 21.9387C12.4097 21.933 12.5282 21.943 12.6426 21.9242C13.1816 21.8364 13.3037 21.6475 13.1127 21.1009C13.0018 20.7839 12.8453 20.4727 12.6555 20.2022C12.3016 19.6989 11.953 19.2018 11.8374 18.5554C11.0094 18.4808 10.182 18.4714 9.39368 18.0917C9.50637 18.0754 9.61849 18.049 9.73177 18.0434C10.5755 18.0007 11.4246 18.0082 12.2631 17.9128C13.7282 17.7459 14.9696 17.0148 16.0808 15.9956C14.7103 16.8616 13.2418 17.3562 11.6033 17.3976C11.7673 16.8227 11.9209 16.2799 12.0774 15.7377C12.4394 14.4838 12.8932 13.2776 13.706 12.2691C14.5498 11.2223 15.5973 10.5427 16.8709 10.303C18.6238 9.97351 20.2933 11.5342 20.1198 13.3435C20.041 14.1662 19.6708 14.871 19.227 15.5262C18.5362 16.5466 17.5821 17.2281 16.5842 17.8482C15.8659 18.2944 15.1915 18.7977 14.6198 19.4535C13.9822 20.1846 13.8134 21.0212 14.0645 21.9738C14.2263 22.5882 14.5065 22.8273 15.1027 22.8813C15.6896 22.934 16.2753 23.0055 16.8615 23.0689C16.8633 23.1022 16.865 23.136 16.8668 23.1693C16.7132 23.2465 16.5596 23.3231 16.3751 23.4153C16.7412 23.5791 17.0828 23.7322 17.4244 23.8847C17.4133 23.9218 17.4022 23.9594 17.3911 23.9964C17.3503 23.9964 17.3071 24.0046 17.2679 23.9952C16.3874 23.7787 15.4846 23.7191 14.6011 23.8345C14.019 23.9105 13.4899 23.8019 12.9369 23.7159C12.6175 23.6657 12.2865 23.7071 11.9507 23.7071C12.0278 23.4505 12.2035 23.3312 12.4459 23.3124C12.5323 23.3055 12.6205 23.3218 12.7075 23.3268C12.9399 23.3413 13.1635 23.3488 13.2213 23.0174C13.2966 22.5857 13.219 22.4131 12.8657 22.3026C12.6053 22.2211 12.3413 22.1552 12.0792 22.0799C12.0546 22.0723 12.0354 22.0441 11.9414 21.9644Z" fill="#025BE8"/>
<path d="M19.4583 2.604C19.3362 4.27332 19.7438 5.68974 20.73 6.94424C22.2956 8.93676 22.4188 11.5995 21.1003 13.6818C21.0308 13.7916 20.9537 13.8958 20.8311 13.9855C20.8503 13.8292 20.8725 13.6736 20.8883 13.5173C21.0185 12.2139 20.5998 11.1175 19.7823 10.1781C18.2834 8.45416 17.5383 5.37595 19.3654 2.69248C19.3806 2.66989 19.4051 2.6542 19.4583 2.604Z" fill="#025BE8"/>
<path d="M21.0634 0.657746C21.0535 -0.0903127 21.0546 -0.0934503 21.6082 0.126826C21.8073 0.205899 22.0123 0.283089 22.1916 0.402327C22.7872 0.798949 23.047 1.45727 22.7323 2.11872C22.3813 2.85674 22.4923 3.48807 22.8216 4.15894C22.9326 4.38486 23.0102 4.64342 23.0458 4.89633C23.1492 5.62556 22.6698 6.11381 21.9907 5.96758C21.3238 5.82387 20.9723 5.3168 20.8047 4.65032C20.636 3.9782 20.876 3.22889 21.3554 2.85235C21.4336 2.79085 21.5463 2.7557 21.5913 2.67537C21.6625 2.54735 21.7641 2.34778 21.7186 2.25804C21.6573 2.13943 21.4634 2.02835 21.3326 2.03651C21.0652 2.05346 20.8053 2.17332 20.5373 2.2116C20.25 2.2524 19.9563 2.2731 19.6672 2.2593C18.8906 2.22227 18.2191 1.65621 17.9353 0.783259C18.2045 0.820286 18.448 0.852292 18.6909 0.886808C18.8252 0.905635 18.9595 0.931993 19.0944 0.946427C19.3396 0.972784 19.4862 0.867981 19.4967 0.585576C19.4996 0.513406 19.5183 0.441864 19.5358 0.370949C19.6065 0.0810128 19.6725 0.0653237 19.9247 0.183306C20.2815 0.350239 20.6506 0.487676 21.0634 0.657746Z" fill="#025BE8"/>
<path d="M16.8907 8.69144C16.6349 8.93431 16.4037 9.21985 16.1176 9.41126C15.616 9.74638 15.0928 10.0508 14.5573 10.32C13.3994 10.9017 12.6526 11.9015 12.064 13.07C11.6587 13.8751 11.393 14.7324 11.2687 15.6392C11.2494 15.7804 11.2214 15.921 11.1817 16.1513C10.9492 15.4899 10.8436 14.8912 10.819 14.2774C10.7828 13.3593 10.9282 12.4688 11.2348 11.6115C11.5764 10.6551 12.2035 10.0068 13.115 9.71124C13.5962 9.55497 14.0908 9.42318 14.5883 9.35415C15.3766 9.24433 16.1386 9.07802 16.8154 8.59668C16.8405 8.62806 16.8656 8.65944 16.8907 8.69144Z" fill="#025BE8"/>
<path d="M19.905 3.50049C20.0381 4.52656 20.4422 5.3719 21.1844 6.07854C22.0346 6.88747 22.3452 7.99198 22.3744 9.19628C22.2751 8.92517 22.2162 8.6252 22.0696 8.38735C21.627 7.66879 21.1908 6.9383 20.6769 6.27998C20.034 5.45662 19.8156 4.53786 19.905 3.50049Z" fill="#025BE8"/>
<path d="M16.6191 9.49695C17.2206 8.81855 17.4769 8.05543 17.5225 7.15111C17.5581 6.45263 17.7385 5.76231 17.8547 5.06885C17.8787 5.07387 17.9026 5.07952 17.9271 5.08454C17.8822 5.64433 17.8004 6.20474 17.8028 6.76453C17.8051 7.2716 17.8746 7.78307 17.9581 8.28449C18.0632 8.91394 17.9359 9.18129 17.3578 9.3432C17.1155 9.41098 16.8656 9.44675 16.6191 9.49695Z" fill="#025BE8"/>
<path d="M23.9486 3.3287C23.5404 3.3287 23.1317 3.3287 22.6949 3.3287C22.685 3.24398 22.6622 3.13416 22.6604 3.02433C22.6523 2.62081 22.8175 2.47584 23.1533 2.64277C23.4511 2.79088 23.7191 3.00802 24.0006 3.1944C23.9825 3.23896 23.9655 3.28415 23.9486 3.3287Z" fill="#025BE8"/>
</g>
</g>
<defs>
<clipPath id="clip0_103_249">
<rect width="24" height="24" fill="white"/>
</clipPath>
</defs>
</svg>
