<svg width="20" height="20" viewBox="0 0 20 20" fill="none" xmlns="http://www.w3.org/2000/svg">
<path d="M4.42862 13.3846V11.0769H6.65718V13.3846H4.42862ZM15.5714 4.72385C15.5696 4.26602 15.3927 3.82757 15.0795 3.50448C14.7662 3.18139 14.3421 3 13.9 3H2.67141C2.22813 3 1.803 3.18235 1.48955 3.50693C1.17609 3.83151 1 4.27174 1 4.73077V15.1154C1 15.8804 1.29349 16.6141 1.81591 17.1551C2.33833 17.6961 3.04688 18 3.78569 18H16.2143C16.9531 18 17.6617 17.6961 18.1841 17.1551C18.7065 16.6141 19 15.8804 19 15.1154V8.19231C19 7.73328 18.8239 7.29305 18.5105 6.96847C18.197 6.64389 17.7719 6.46154 17.3286 6.46154H16.6856V14.8038C16.6856 14.9569 16.627 15.1036 16.5225 15.2118C16.418 15.32 16.2763 15.3808 16.1285 15.3808C15.9808 15.3808 15.839 15.32 15.7346 15.2118C15.6301 15.1036 15.5714 14.9569 15.5714 14.8038V4.72385ZM3.31435 7.03846C3.31435 6.88545 3.37305 6.73871 3.47753 6.63052C3.58202 6.52232 3.72373 6.46154 3.87149 6.46154H12.7857C12.9334 6.46154 13.0752 6.52232 13.1796 6.63052C13.2841 6.73871 13.3428 6.88545 13.3428 7.03846C13.3428 7.19147 13.2841 7.33821 13.1796 7.44641C13.0752 7.5546 12.9334 7.61538 12.7857 7.61538H3.87149C3.72373 7.61538 3.58202 7.5546 3.47753 7.44641C3.37305 7.33821 3.31435 7.19147 3.31435 7.03846ZM9.44286 9.92308H12.7857C12.9334 9.92308 13.0752 9.98386 13.1796 10.0921C13.2841 10.2002 13.3428 10.347 13.3428 10.5C13.3428 10.653 13.2841 10.7998 13.1796 10.9079C13.0752 11.0161 12.9334 11.0769 12.7857 11.0769H9.44286C9.2951 11.0769 9.15339 11.0161 9.04891 10.9079C8.94442 10.7998 8.88573 10.653 8.88573 10.5C8.88573 10.347 8.94442 10.2002 9.04891 10.0921C9.15339 9.98386 9.2951 9.92308 9.44286 9.92308ZM8.88573 13.9615C8.88573 13.8085 8.94442 13.6618 9.04891 13.5536C9.15339 13.4454 9.2951 13.3846 9.44286 13.3846H12.7857C12.9334 13.3846 13.0752 13.4454 13.1796 13.5536C13.2841 13.6618 13.3428 13.8085 13.3428 13.9615C13.3428 14.1145 13.2841 14.2613 13.1796 14.3695C13.0752 14.4777 12.9334 14.5385 12.7857 14.5385H9.44286C9.2951 14.5385 9.15339 14.4777 9.04891 14.3695C8.94442 14.2613 8.88573 14.1145 8.88573 13.9615ZM3.87149 9.92308H7.21431C7.36207 9.92308 7.50378 9.98386 7.60827 10.0921C7.71275 10.2002 7.77145 10.347 7.77145 10.5V13.9615C7.77145 14.1145 7.71275 14.2613 7.60827 14.3695C7.50378 14.4777 7.36207 14.5385 7.21431 14.5385H3.87149C3.72373 14.5385 3.58202 14.4777 3.47753 14.3695C3.37305 14.2613 3.31435 14.1145 3.31435 13.9615V10.5C3.31435 10.347 3.37305 10.2002 3.47753 10.0921C3.58202 9.98386 3.72373 9.92308 3.87149 9.92308Z" fill="#025BE8"/>
</svg>
