<svg width="24" height="24" viewBox="0 0 24 24" fill="none" xmlns="http://www.w3.org/2000/svg">
<path d="M2.6401 12.4799L7.4401 15.4799C7.6801 15.5999 8.0401 15.5999 8.2801 15.2399C8.2801 15.1199 8.4001 14.9999 8.4001 14.8799V8.8799C8.4001 8.7599 8.1601 8.3999 7.8001 8.3999C7.6801 8.3999 7.5601 8.3999 7.4401 8.5199L2.6401 11.5199C2.4001 11.6399 2.2801 12.1199 2.4001 12.3599C2.5201 12.3599 2.6401 12.4799 2.6401 12.4799ZM3.6001 4.7999H20.4001C21.1201 4.7999 21.6001 4.3199 21.6001 3.5999C21.6001 2.8799 21.1201 2.3999 20.4001 2.3999H3.6001C2.8801 2.3999 2.4001 2.8799 2.4001 3.5999C2.4001 4.3199 3.0001 4.7999 3.6001 4.7999ZM12.0001 13.1999H20.4001C21.1201 13.1999 21.6001 12.7199 21.6001 11.9999C21.6001 11.2799 21.1201 10.7999 20.4001 10.7999H12.0001C11.2801 10.7999 10.8001 11.2799 10.8001 11.9999C10.8001 12.7199 11.4001 13.1999 12.0001 13.1999ZM3.6001 21.5999H20.4001C21.1201 21.5999 21.6001 21.1199 21.6001 20.3999C21.6001 19.6799 21.1201 19.1999 20.4001 19.1999H3.6001C2.8801 19.1999 2.4001 19.6799 2.4001 20.3999C2.4001 21.1199 3.0001 21.5999 3.6001 21.5999Z" fill="#996AFF"/>
</svg>
