<svg width="32" height="27" viewBox="0 0 32 27" fill="none" xmlns="http://www.w3.org/2000/svg">
<path d="M28.3623 6.98528C28.3814 7.26678 28.3814 7.54827 28.3814 7.83236C28.3814 16.4886 21.9119 26.4718 10.0821 26.4718C6.58476 26.4763 3.16009 25.4549 0.217407 23.5298C0.724566 23.5917 1.23485 23.6233 1.74564 23.6245C4.64303 23.6273 7.4572 22.6377 9.73574 20.8147C8.39364 20.789 7.09299 20.3367 6.01568 19.521C4.93836 18.7053 4.13826 17.5671 3.72724 16.2655C4.69085 16.4547 5.68424 16.4161 6.63088 16.1526C5.17554 15.8532 3.86669 15.0502 2.92636 13.8798C1.98603 12.7095 1.47213 11.2438 1.47183 9.73146V9.64844C2.36628 10.1559 3.36735 10.4371 4.39075 10.4683C3.02916 9.54148 2.06541 8.12108 1.69562 6.4961C1.32583 4.87113 1.57779 3.16369 2.40023 1.72125C4.01484 3.74508 6.02936 5.40031 8.31293 6.57941C10.5965 7.75852 13.0981 8.43512 15.6551 8.56527C15.3353 7.16096 15.4787 5.68844 16.0632 4.37552C16.6477 3.0626 17.6407 1.98247 18.8885 1.30221C20.1363 0.62196 21.5694 0.379507 22.9661 0.612362C24.3628 0.845218 25.6453 1.5404 26.615 2.59037C28.0553 2.30072 29.4366 1.76288 30.6992 1C30.219 2.51678 29.2143 3.80428 27.872 4.62308C29.1469 4.47006 30.3919 4.12241 31.5652 3.59181C30.704 4.90784 29.6194 6.05698 28.3623 6.98528Z" fill="white"/>
</svg>
