<svg width="28" height="28" viewBox="0 0 28 28" fill="none" xmlns="http://www.w3.org/2000/svg">
<path d="M14.0003 1.16711C11.4621 1.16711 8.98095 1.91978 6.87051 3.32992C4.76008 4.74007 3.1152 6.74436 2.14388 9.08934C1.17255 11.4343 0.91841 14.0147 1.41359 16.5041C1.90876 18.9935 3.13102 21.2802 4.92579 23.075C6.72057 24.8698 9.00725 26.092 11.4967 26.5872C13.9861 27.0824 16.5665 26.8282 18.9114 25.8569C21.2564 24.8856 23.2607 23.2407 24.6709 21.1303C26.081 19.0198 26.8337 16.5386 26.8337 14.0004C26.8297 10.5981 25.4763 7.33619 23.0704 4.93034C20.6646 2.5245 17.4027 1.17113 14.0003 1.16711ZM19.8337 15.1671H15.167V19.8338C15.167 20.1432 15.0441 20.4399 14.8253 20.6587C14.6065 20.8775 14.3098 21.0004 14.0003 21.0004C13.6909 21.0004 13.3942 20.8775 13.1754 20.6587C12.9566 20.4399 12.8337 20.1432 12.8337 19.8338V15.1671H8.167C7.85758 15.1671 7.56083 15.0442 7.34204 14.8254C7.12325 14.6066 7.00033 14.3099 7.00033 14.0004C7.00033 13.691 7.12325 13.3943 7.34204 13.1755C7.56083 12.9567 7.85758 12.8338 8.167 12.8338H12.8337V8.16711C12.8337 7.8577 12.9566 7.56095 13.1754 7.34216C13.3942 7.12336 13.6909 7.00045 14.0003 7.00045C14.3098 7.00045 14.6065 7.12336 14.8253 7.34216C15.0441 7.56095 15.167 7.8577 15.167 8.16711V12.8338H19.8337C20.1431 12.8338 20.4398 12.9567 20.6586 13.1755C20.8774 13.3943 21.0003 13.691 21.0003 14.0004C21.0003 14.3099 20.8774 14.6066 20.6586 14.8254C20.4398 15.0442 20.1431 15.1671 19.8337 15.1671Z" fill="#E5E5E5"/>
</svg>
