<svg width="50" height="50" viewBox="0 0 50 50" fill="none" xmlns="http://www.w3.org/2000/svg">
<path d="M25 2.08337C20.4675 2.08337 16.0368 3.42741 12.2682 5.94553C8.49955 8.46364 5.56226 12.0427 3.82775 16.2302C2.09324 20.4177 1.63942 25.0255 2.52366 29.4709C3.40791 33.9163 5.59051 37.9996 8.79546 41.2046C12.0004 44.4095 16.0838 46.5921 20.5292 47.4764C24.9746 48.3606 29.5823 47.9068 33.7698 46.1723C37.9573 44.4378 41.5364 41.5005 44.0545 37.7319C46.5726 33.9632 47.9167 29.5325 47.9167 25C47.9095 18.9244 45.4928 13.0996 41.1966 8.80343C36.9005 4.50727 31.0757 2.09054 25 2.08337ZM35.4167 27.0834H27.0833V35.4167C27.0833 35.9692 26.8638 36.4991 26.4731 36.8899C26.0824 37.2806 25.5525 37.5 25 37.5C24.4475 37.5 23.9176 37.2806 23.5269 36.8899C23.1362 36.4991 22.9167 35.9692 22.9167 35.4167V27.0834H14.5833C14.0308 27.0834 13.5009 26.8639 13.1102 26.4732C12.7195 26.0825 12.5 25.5526 12.5 25C12.5 24.4475 12.7195 23.9176 13.1102 23.5269C13.5009 23.1362 14.0308 22.9167 14.5833 22.9167H22.9167V14.5834C22.9167 14.0308 23.1362 13.5009 23.5269 13.1102C23.9176 12.7195 24.4475 12.5 25 12.5C25.5525 12.5 26.0824 12.7195 26.4731 13.1102C26.8638 13.5009 27.0833 14.0308 27.0833 14.5834V22.9167H35.4167C35.9692 22.9167 36.4991 23.1362 36.8898 23.5269C37.2805 23.9176 37.5 24.4475 37.5 25C37.5 25.5526 37.2805 26.0825 36.8898 26.4732C36.4991 26.8639 35.9692 27.0834 35.4167 27.0834Z" fill="white"/>
</svg>
