<svg width="30" height="31" viewBox="0 0 30 31" fill="none" xmlns="http://www.w3.org/2000/svg">
<path d="M8.93294 15.8364L19.6132 26.5165C19.8603 26.7637 20.19 26.8999 20.5416 26.8999C20.8932 26.8999 21.223 26.7637 21.47 26.5165L22.2565 25.7302C22.7683 25.2178 22.7683 24.385 22.2565 23.8734L13.288 14.9049L22.2665 5.92641C22.5135 5.6792 22.6499 5.34964 22.6499 4.99823C22.6499 4.64643 22.5135 4.31687 22.2665 4.06945L21.48 3.28331C21.2327 3.0361 20.9032 2.8999 20.5516 2.8999C20.2 2.8999 19.8702 3.0361 19.6232 3.28331L8.93294 13.9732C8.68533 14.2212 8.54933 14.5523 8.55012 14.9043C8.54933 15.2577 8.68533 15.5886 8.93294 15.8364Z" fill="white"/>
</svg>
