<svg width="56" height="56" viewBox="0 0 56 56" fill="none" xmlns="http://www.w3.org/2000/svg">
<path d="M28 1.3999C13.328 1.3999 1.39999 13.3279 1.39999 27.9999C1.39999 42.6719 13.328 54.5999 28 54.5999C42.672 54.5999 54.6 42.6719 54.6 27.9999C54.6 13.3279 42.672 1.3999 28 1.3999ZM28 17.1919C32.592 17.1919 36.344 20.9439 36.344 25.5359C36.344 30.1279 32.592 33.8799 28 33.8799C23.408 33.8799 19.656 30.1279 19.656 25.5359C19.656 20.9439 23.408 17.1919 28 17.1919ZM13.44 44.1279V42.8959C13.44 39.3679 16.296 36.4559 19.88 36.4559H36.12C39.648 36.4559 42.56 39.3119 42.56 42.8959V44.1279C38.696 47.5999 33.6 49.7279 28 49.7279C22.4 49.7279 17.304 47.5999 13.44 44.1279Z" fill="#2C2C2C"/>
</svg>
