<svg width="151" height="150" viewBox="0 0 151 150" fill="none" xmlns="http://www.w3.org/2000/svg">
<path d="M75.6415 0C34.2707 0 0.637299 33.6334 0.637299 75.0042C0.637299 116.375 34.2707 150.008 75.6415 150.008C117.012 150.008 150.646 116.375 150.646 75.0042C150.646 33.6335 117.012 0 75.6415 0ZM75.6415 44.5288C88.5896 44.5288 99.1691 55.1083 99.1691 68.0564C99.1691 81.0045 88.5896 91.584 75.6415 91.584C62.6934 91.584 52.1138 81.0045 52.1138 68.0564C52.1138 55.1083 62.6934 44.5288 75.6415 44.5288ZM34.5866 120.48V117.007C34.5866 107.059 42.6396 98.8476 52.7455 98.8476H98.5375C108.485 98.8476 116.696 106.901 116.696 117.007V120.48C105.801 130.27 91.4318 136.271 75.6415 136.271C59.8511 136.271 45.4819 130.27 34.5866 120.48Z" fill="white"/>
</svg>
