<svg width="54" height="54" viewBox="0 0 54 54" fill="none" xmlns="http://www.w3.org/2000/svg">
<path d="M27.4 0.799988C12.728 0.799988 0.800049 12.728 0.800049 27.4C0.800049 42.072 12.728 54 27.4 54C42.072 54 54 42.072 54 27.4C54 12.728 42.072 0.799988 27.4 0.799988ZM27.4 16.592C31.992 16.592 35.744 20.344 35.744 24.936C35.744 29.528 31.992 33.28 27.4 33.28C22.808 33.28 19.056 29.528 19.056 24.936C19.056 20.344 22.808 16.592 27.4 16.592ZM12.84 43.528V42.296C12.84 38.768 15.696 35.856 19.28 35.856H35.52C39.048 35.856 41.96 38.712 41.96 42.296V43.528C38.096 47 33 49.128 27.4 49.128C21.8 49.128 16.704 47 12.84 43.528Z" fill="#CF0808"/>
</svg>
