<svg width="20" height="21" viewBox="0 0 20 21" fill="none" xmlns="http://www.w3.org/2000/svg">
<path fill-rule="evenodd" clip-rule="evenodd" d="M9.33792 18.6052C9.14283 18.5067 8.86783 18.3614 8.5395 18.1705C7.88462 17.7898 7.00803 17.2219 6.12738 16.4744C4.39008 14.9997 2.5 12.705 2.5 9.66669C2.5 5.52455 5.85787 2.16669 10 2.16669C14.1422 2.16669 17.5 5.52455 17.5 9.66669C17.5 12.705 15.6099 14.9997 13.8726 16.4744C12.992 17.2219 12.1154 17.7898 11.4605 18.1705C11.1322 18.3614 10.8572 18.5067 10.6621 18.6052C10.6378 18.6174 10.6137 18.6299 10.5893 18.6424C10.4058 18.7372 10.2193 18.8334 10 18.8334C9.78425 18.8334 9.58608 18.732 9.39675 18.6352L9.33792 18.6052ZM9.16667 8.00002C8.70642 8.00002 8.33333 8.37312 8.33333 8.83335C8.33333 9.2936 8.70642 9.66669 9.16667 9.66669V12.1667C8.70642 12.1667 8.33333 12.5398 8.33333 13C8.33333 13.4603 8.70642 13.8334 9.16667 13.8334H10.8333C11.2936 13.8334 11.6667 13.4603 11.6667 13C11.6667 12.5398 11.2936 12.1667 10.8333 12.1667V8.83335C10.8333 8.61234 10.7455 8.40038 10.5893 8.2441C10.433 8.08782 10.221 8.00002 10 8.00002H9.16667ZM9.16667 6.33335C9.16667 5.87312 9.53975 5.50002 10 5.50002C10.4603 5.50002 10.8333 5.87312 10.8333 6.33335C10.8333 6.79359 10.4603 7.16669 10 7.16669C9.53975 7.16669 9.16667 6.79359 9.16667 6.33335Z" fill="#FFA602"/>
</svg>
