<svg width="24" height="24" viewBox="0 0 24 24" fill="none" xmlns="http://www.w3.org/2000/svg">
<g id="jam:blogger-circle">
<g id="Group">
<path id="Vector" d="M12 20C14.1217 20 16.1566 19.1571 17.6569 17.6569C19.1571 16.1566 20 14.1217 20 12C20 9.87827 19.1571 7.84344 17.6569 6.34315C16.1566 4.84285 14.1217 4 12 4C9.87827 4 7.84344 4.84285 6.34315 6.34315C4.84285 7.84344 4 9.87827 4 12C4 14.1217 4.84285 16.1566 6.34315 17.6569C7.84344 19.1571 9.87827 20 12 20ZM12 22C6.477 22 2 17.523 2 12C2 6.477 6.477 2 12 2C17.523 2 22 6.477 22 12C22 17.523 17.523 22 12 22Z" fill="white" fill-opacity="0.7"/>
<path id="Vector_2" d="M13.81 17C15.554 17 16.97 15.58 16.98 13.846L17 11.293L16.97 11.153L16.887 10.979L16.745 10.869C16.561 10.725 15.629 10.879 15.378 10.651C15.2 10.488 15.172 10.195 15.118 9.796C15.018 9.025 14.955 8.985 14.834 8.723C14.394 7.794 13.204 7.096 12.386 7H10.169C9.33049 7.00131 8.52657 7.33438 7.93281 7.92645C7.33905 8.51852 7.0037 9.3215 7 10.16V13.846C7 15.58 8.426 17 10.17 17H13.81ZM10.21 9.581H11.967C12.302 9.581 12.574 9.854 12.574 10.185C12.574 10.515 12.302 10.789 11.967 10.789H10.21C10.0496 10.7887 9.89582 10.7251 9.78213 10.612C9.66844 10.4989 9.60406 10.3454 9.603 10.185C9.603 9.854 9.874 9.581 10.21 9.581ZM9.603 13.8C9.603 13.47 9.874 13.199 10.21 13.199H13.78C14.113 13.199 14.384 13.469 14.384 13.8C14.384 14.127 14.114 14.401 13.78 14.401H10.21C10.05 14.401 9.89656 14.3379 9.78289 14.2253C9.66923 14.1128 9.60458 13.9599 9.603 13.8Z" fill="white" fill-opacity="0.7"/>
</g>
</g>
</svg>
