<svg width="30" height="30" viewBox="0 0 30 30" fill="none" xmlns="http://www.w3.org/2000/svg">
<path d="M1.5 15C1.5 22.4385 7.5615 28.5 15 28.5C22.4385 28.5 28.5 22.4385 28.5 15C28.5 7.5615 22.4385 1.5 15 1.5C7.5615 1.5 1.5 7.5615 1.5 15ZM17.4165 9.519C17.619 9.7215 17.7135 9.978 17.7135 10.2345C17.7135 10.491 17.619 10.7475 17.4165 10.95L13.3665 15L17.4165 19.05C17.808 19.4415 17.808 20.0895 17.4165 20.481C17.025 20.8725 16.377 20.8725 15.9855 20.481L11.22 15.7155C10.8285 15.324 10.8285 14.676 11.22 14.2845L15.9855 9.519C16.3905 9.1275 17.025 9.1275 17.4165 9.519Z" fill="#F9C5C5"/>
</svg>
