<svg width="100" height="100" viewBox="0 0 100 100" fill="none" xmlns="http://www.w3.org/2000/svg">
<path d="M5 45C5 22.9086 22.9086 5 45 5H55C77.0914 5 95 22.9086 95 45V55C95 77.0914 77.0914 95 55 95H45C22.9086 95 5 77.0914 5 55V45Z" fill="white"/>
<path fill-rule="evenodd" clip-rule="evenodd" d="M45 5C22.9086 5 5 22.9086 5 45V55C5 77.0914 22.9086 95 45 95H55C77.0914 95 95 77.0914 95 55V45C95 22.9086 77.0914 5 55 5H45ZM47.8125 35.9375C49.0625 34.6875 50.3125 34.6875 51.5625 35.9375L61.5625 45.9375C62.8125 47.1875 62.8125 48.4375 61.5625 49.6875C61.25 50.3125 60.9375 50.625 60 50.625C59.6875 50.625 59.0625 50.3125 58.4375 49.6875L52.5 43.75V72.5C52.5 73.75 51.25 75 50 75C48.75 75 47.5 73.75 47.5 72.5V43.75L41.5625 49.6875C40.3125 50.9375 39.0625 50.9375 37.8125 49.6875C36.5625 48.4375 36.5625 47.1875 37.8125 45.9375L47.8125 35.9375ZM32.5 25H67.5C68.75 25 70 26.25 70 27.5C70 28.75 68.75 30 67.5 30H32.5C31.25 30 30 28.75 30 27.5C30 26.25 31.25 25 32.5 25Z" fill="url(#paint0_linear_5387_12581)"/>
<defs>
<linearGradient id="paint0_linear_5387_12581" x1="5" y1="5" x2="95" y2="95" gradientUnits="userSpaceOnUse">
<stop stop-color="#FCA273"/>
<stop offset="1" stop-color="#FF4D96"/>
</linearGradient>
</defs>
</svg>
