<svg width="30" height="30" viewBox="0 0 30 30" fill="none" xmlns="http://www.w3.org/2000/svg">
<path d="M28.5 15C28.5 7.5615 22.4385 1.5 15 1.5C7.5615 1.5 1.5 7.5615 1.5 15C1.5 22.4385 7.5615 28.5 15 28.5C22.4385 28.5 28.5 22.4385 28.5 15ZM12.5835 20.481C12.381 20.2785 12.2865 20.022 12.2865 19.7655C12.2865 19.509 12.381 19.2525 12.5835 19.05L16.6335 15L12.5835 10.95C12.192 10.5585 12.192 9.9105 12.5835 9.519C12.975 9.1275 13.623 9.1275 14.0145 9.519L18.78 14.2845C19.1715 14.676 19.1715 15.324 18.78 15.7155L14.0145 20.481C13.6095 20.8725 12.975 20.8725 12.5835 20.481Z" fill="#F9C5C5"/>
</svg>
