<svg width="60" height="60" viewBox="0 0 60 60" fill="none" xmlns="http://www.w3.org/2000/svg">
<path d="M13.125 36.8113C13.591 36.8113 13.9688 36.4335 13.9688 35.9675C13.9688 35.5015 13.591 35.1238 13.125 35.1238C12.659 35.1238 12.2812 35.5015 12.2812 35.9675C12.2812 36.4335 12.659 36.8113 13.125 36.8113Z" fill="white"/>
<path d="M30 26.6863C24.8823 26.6863 20.7188 30.8499 20.7188 35.9675C20.7188 41.0852 24.8823 45.2488 30 45.2488C35.1177 45.2488 39.2812 41.0852 39.2812 35.9675C39.2812 30.8499 35.1177 26.6863 30 26.6863ZM30.0417 35.124C31.8835 35.1463 33.375 36.6517 33.375 38.4988C33.375 40.0128 32.3728 41.2972 30.9971 41.7235C30.907 41.7514 30.8438 41.8321 30.8438 41.9264V42.6886C30.8438 43.138 30.5047 43.5304 30.0562 43.5595C29.5648 43.5913 29.1562 43.2022 29.1562 42.7175V41.9298C29.1562 41.837 29.0975 41.7526 29.0088 41.7253C27.6492 41.3068 26.6532 40.0507 26.6255 38.5622C26.6169 38.0927 26.9622 37.6761 27.4312 37.6559C27.9142 37.635 28.3124 38.0205 28.3124 38.4988C28.3124 39.456 29.1135 40.2296 30.0806 40.1844C30.939 40.1442 31.6454 39.4379 31.6855 38.5795C31.7307 37.6125 30.9571 36.8113 29.9999 36.8113C28.1389 36.8113 26.6249 35.2973 26.6249 33.4363C26.6249 31.9223 27.6271 30.6379 29.0028 30.2116C29.0929 30.1836 29.1561 30.1029 29.1561 30.0086V29.2464C29.1561 28.797 29.4952 28.4047 29.9437 28.3756C30.4351 28.3437 30.8436 28.7329 30.8436 29.2175V30.0053C30.8436 30.0981 30.9024 30.1825 30.9911 30.2098C32.3507 30.6283 33.3467 31.8843 33.3744 33.3729C33.383 33.8423 33.0377 34.2589 32.5687 34.2792C32.0856 34.3001 31.6875 33.9146 31.6875 33.4363C31.6875 32.5058 30.9304 31.7488 30 31.7488C29.0635 31.7488 28.3027 32.5156 28.3126 33.4544C28.3224 34.3857 29.1103 35.1127 30.0417 35.124Z" fill="white"/>
<path d="M54.4688 21.6238H5.53125C4.13558 21.6238 3 22.7594 3 24.155V47.78C3 49.1757 4.13558 50.3113 5.53125 50.3113H54.4688C55.8644 50.3113 57 49.1757 57 47.78V24.155C57 22.7593 55.8644 21.6238 54.4688 21.6238ZM20.7188 46.9363H9.75C9.28636 46.9363 8.90456 46.5623 8.90625 46.0986C8.90963 45.1633 8.14793 44.4017 7.21263 44.405C6.74899 44.4067 6.375 44.0249 6.375 43.5613V28.3738C6.375 27.9101 6.74899 27.5283 7.21263 27.53C8.14793 27.5334 8.90963 26.7717 8.90625 25.8364C8.90456 25.3728 9.28636 24.9988 9.75 24.9988H20.6899C21.1393 24.9988 21.5316 25.3379 21.5607 25.7863C21.5926 26.2777 21.2034 26.6863 20.7188 26.6863H10.7224C10.5862 26.6863 10.4659 26.7738 10.423 26.9032C10.088 27.9126 9.28868 28.7119 8.27945 29.0468C8.15004 29.0897 8.0625 29.2099 8.0625 29.3462V42.5888C8.0625 42.725 8.15004 42.8453 8.27945 42.8882C9.28878 43.2231 10.0881 44.0225 10.423 45.0317C10.4659 45.161 10.5862 45.2487 10.7224 45.2487H20.6897C21.1391 45.2487 21.5315 45.5878 21.5606 46.0362C21.5926 46.5277 21.2033 46.9363 20.7188 46.9363ZM15.6562 35.9675C15.6562 37.3632 14.5207 38.4988 13.125 38.4988C11.7293 38.4988 10.5938 37.3632 10.5938 35.9675C10.5938 34.5719 11.7293 33.4363 13.125 33.4363C14.5207 33.4363 15.6562 34.5718 15.6562 35.9675ZM30 46.9363C23.9518 46.9363 19.0312 42.0157 19.0312 35.9675C19.0312 29.9193 23.9518 24.9988 30 24.9988C36.0482 24.9988 40.9688 29.9193 40.9688 35.9675C40.9688 42.0157 36.0482 46.9363 30 46.9363ZM53.625 43.5613C53.625 44.0249 53.251 44.4067 52.7874 44.405C51.8521 44.4017 51.0904 45.1633 51.0938 46.0986C51.0954 46.5623 50.7136 46.9363 50.25 46.9363H39.3101C38.8607 46.9363 38.4684 46.5972 38.4393 46.1487C38.4074 45.6574 38.7966 45.2488 39.2812 45.2488H49.2776C49.4138 45.2488 49.5341 45.1612 49.577 45.0318C49.912 44.0225 50.7113 43.2231 51.7206 42.8883C51.8499 42.8454 51.9375 42.7251 51.9375 42.5889V29.3462C51.9375 29.2099 51.85 29.0897 51.7206 29.0468C50.7112 28.7118 49.9119 27.9125 49.577 26.9032C49.5341 26.7739 49.4138 26.6863 49.2776 26.6863H39.3103C38.8609 26.6863 38.4685 26.3472 38.4394 25.8987C38.4075 25.4074 38.7967 24.9988 39.2814 24.9988H50.2501C50.7137 24.9988 51.0955 25.3728 51.0939 25.8364C51.0905 26.7717 51.8522 27.5334 52.7875 27.53C53.2511 27.5283 53.6251 27.9101 53.6251 28.3738V43.5613H53.625ZM44.3438 35.9675C44.3438 34.5719 45.4793 33.4363 46.875 33.4363C48.2707 33.4363 49.4062 34.5719 49.4062 35.9675C49.4062 37.3632 48.2707 38.4988 46.875 38.4988C45.4793 38.4988 44.3438 37.3632 44.3438 35.9675Z" fill="white"/>
<path d="M46.875 36.8113C47.341 36.8113 47.7188 36.4335 47.7188 35.9675C47.7188 35.5015 47.341 35.1238 46.875 35.1238C46.409 35.1238 46.0312 35.5015 46.0312 35.9675C46.0312 36.4335 46.409 36.8113 46.875 36.8113Z" fill="white"/>
<path d="M53.8302 17.3091C53.6564 15.9142 52.3781 14.9219 50.9678 15.1164L18.7358 19.7264C18.6061 19.745 18.6198 19.9363 18.7507 19.9363H53.9193C54.0462 19.9363 54.1444 19.8252 54.1287 19.6992L53.8302 17.3091Z" fill="white"/>
<path d="M49.1058 13.6781C49.2296 13.6604 49.31 13.5396 49.2796 13.4183L48.9545 12.1169C48.6128 10.7457 47.2148 9.91689 45.8326 10.2891L19.3091 17.7276C19.1823 17.7631 19.2215 17.9522 19.3518 17.9336C26.017 16.9804 44.1983 14.3807 49.1058 13.6781Z" fill="white"/>
</svg>
