<svg width="30" height="30" viewBox="0 0 30 30" fill="none" xmlns="http://www.w3.org/2000/svg">
<g id="Frame 48095649">
<path id="Union" fill-rule="evenodd" clip-rule="evenodd" d="M11.1731 5.76119C12.3863 5.25865 13.6866 5 14.9998 5C16.313 5 17.6134 5.25865 18.8266 5.76119C20.0398 6.26373 21.1422 7.00031 22.0708 7.92889C22.9994 8.85746 23.7359 9.95983 24.2385 11.1731C24.741 12.3863 24.9997 13.6866 24.9997 14.9998C24.9997 16.313 24.741 17.6134 24.2385 18.8266C23.7359 20.0398 22.9994 21.1422 22.0708 22.0708C21.1422 22.9994 20.0398 23.7359 18.8266 24.2385C17.6134 24.741 16.313 24.9997 14.9998 24.9997C13.6866 24.9997 12.3863 24.741 11.1731 24.2385C9.95983 23.7359 8.85745 22.9994 7.92888 22.0708C7.00031 21.1422 6.26373 20.0398 5.76119 18.8266C5.25865 17.6134 5 16.313 5 14.9998C5 13.6866 5.25865 12.3863 5.76119 11.1731C6.26373 9.95983 7.00031 8.85745 7.92889 7.92888C8.85746 7.00031 9.95983 6.26373 11.1731 5.76119ZM14.9998 4C13.5553 4 12.1249 4.28452 10.7904 4.83731C9.45582 5.39011 8.24321 6.20035 7.22178 7.22178C6.20035 8.24321 5.39011 9.45582 4.83731 10.7904C4.28452 12.1249 4 13.5553 4 14.9998C4 16.4444 4.28452 17.8747 4.83731 19.2093C5.39011 20.5439 6.20035 21.7565 7.22178 22.7779C8.24321 23.7993 9.45582 24.6096 10.7904 25.1624C12.1249 25.7152 13.5553 25.9997 14.9998 25.9997C16.4444 25.9997 17.8747 25.7152 19.2093 25.1624C20.5438 24.6096 21.7565 23.7993 22.7779 22.7779C23.7993 21.7565 24.6096 20.5439 25.1624 19.2093C25.7152 17.8747 25.9997 16.4444 25.9997 14.9998C25.9997 13.5553 25.7152 12.1249 25.1624 10.7904C24.6096 9.45582 23.7993 8.24321 22.7779 7.22178C21.7565 6.20035 20.5439 5.39011 19.2093 4.83731C17.8747 4.28452 16.4444 4 14.9998 4ZM18.8528 11.1463C18.6576 10.951 18.341 10.951 18.1457 11.1463L14.9994 14.2926L11.853 11.1463C11.6578 10.951 11.3412 10.951 11.1459 11.1463C10.9507 11.3416 10.9507 11.6581 11.1459 11.8534L14.2923 14.9997L11.1458 18.1462C10.9506 18.3414 10.9506 18.658 11.1458 18.8533C11.3411 19.0486 11.6577 19.0486 11.8529 18.8533L14.9994 15.7068L18.1458 18.8533C18.3411 19.0486 18.6577 19.0486 18.8529 18.8533C19.0482 18.658 19.0482 18.3414 18.8529 18.1462L15.7065 14.9997L18.8528 11.8534C19.0481 11.6581 19.0481 11.3416 18.8528 11.1463Z" fill="white"/>
</g>
</svg>
