<svg width="24" height="24" viewBox="0 0 24 24" fill="none" xmlns="http://www.w3.org/2000/svg">
<g clip-path="url(#clip0_1257_3982)">
<path d="M9.59978 16.2527C9.0357 15.4124 8.71046 14.5589 8.56915 13.6194C8.42959 12.6887 8.50667 11.7725 8.74783 10.8029C7.47487 11.5529 6.71693 12.6454 6.33095 14.1278C5.7552 13.1701 5.59871 12.1879 5.81301 11.1318C6.02089 10.1088 6.53182 9.25722 7.14203 8.4533C6.04249 8.86436 5.08485 9.4982 4.43202 10.5475C3.78269 11.5911 3.74123 12.8187 3.70561 14.0562C3.04461 13.6665 2.71994 11.3219 3.07322 9.89294C3.40489 8.54869 3.92225 7.8477 5.50002 6.60136C5.49243 6.57563 5.48542 6.55053 5.47783 6.52479C5.06558 6.67478 4.64223 6.7959 4.24341 6.97978C3.09424 7.51007 2.36083 8.48908 1.81486 9.65886C1.23093 10.9096 0.956484 12.2488 0.820429 13.6295C0.801159 13.8272 0.746854 14.0211 0.708899 14.2169C0.672695 14.2238 0.636492 14.23 0.599704 14.237C0.515619 14.0719 0.407592 13.9156 0.352119 13.7399C-0.197357 12.0003 -0.0794033 10.2745 0.530801 8.59074C1.41078 6.16394 3.05337 4.65026 5.46207 4.31074C7.41822 4.03461 9.17877 4.64649 10.4751 6.3315C11.0088 7.02496 11.4549 7.81758 11.5746 8.75203C11.6283 9.16999 11.5647 9.571 11.3311 9.91616C10.0891 11.7493 9.51511 13.7958 9.60912 16.06C9.61146 16.0964 9.6062 16.1328 9.59978 16.2527Z" fill="white" fill-opacity="0.7"/>
<path d="M11.9414 21.9642C12.1095 21.9516 12.2018 21.9428 12.2935 21.9385C12.4097 21.9328 12.5282 21.9428 12.6426 21.924C13.1816 21.8362 13.3037 21.6473 13.1127 21.1007C13.0018 20.7837 12.8453 20.4725 12.6555 20.202C12.3016 19.6987 11.953 19.2016 11.8374 18.5552C11.0094 18.4806 10.182 18.4712 9.39368 18.0915C9.50637 18.0752 9.61849 18.0488 9.73177 18.0432C10.5755 18.0005 11.4246 18.008 12.2631 17.9126C13.7282 17.7457 14.9696 17.0146 16.0808 15.9954C14.7103 16.8614 13.2418 17.356 11.6033 17.3974C11.7673 16.8225 11.9209 16.2797 12.0774 15.7375C12.4394 14.4836 12.8932 13.2774 13.706 12.2689C14.5498 11.2221 15.5973 10.5425 16.8709 10.3028C18.6238 9.97328 20.2933 11.534 20.1198 13.3433C20.041 14.166 19.6708 14.8708 19.227 15.526C18.5362 16.5464 17.5821 17.2279 16.5842 17.848C15.8659 18.2942 15.1915 18.7975 14.6198 19.4533C13.9822 20.1844 13.8134 21.021 14.0645 21.9736C14.2263 22.588 14.5065 22.8271 15.1027 22.8811C15.6896 22.9338 16.2753 23.0053 16.8615 23.0687C16.8633 23.102 16.865 23.1358 16.8668 23.1691C16.7132 23.2463 16.5596 23.3229 16.3751 23.4151C16.7412 23.5789 17.0828 23.732 17.4244 23.8845C17.4133 23.9216 17.4022 23.9592 17.3911 23.9962C17.3503 23.9962 17.3071 24.0044 17.2679 23.995C16.3874 23.7785 15.4846 23.7189 14.6011 23.8343C14.019 23.9103 13.4899 23.8017 12.9369 23.7157C12.6175 23.6655 12.2865 23.7069 11.9507 23.7069C12.0278 23.4503 12.2035 23.331 12.4459 23.3122C12.5323 23.3053 12.6205 23.3216 12.7075 23.3266C12.9399 23.3411 13.1635 23.3486 13.2213 23.0172C13.2966 22.5855 13.219 22.4129 12.8657 22.3024C12.6053 22.2209 12.3413 22.155 12.0792 22.0797C12.0546 22.0721 12.0354 22.0439 11.9414 21.9642Z" fill="white" fill-opacity="0.7"/>
<path d="M19.4583 2.60378C19.3362 4.2731 19.7438 5.68952 20.73 6.94402C22.2956 8.93654 22.4188 11.5993 21.1003 13.6816C21.0308 13.7914 20.9537 13.8956 20.8311 13.9853C20.8503 13.829 20.8725 13.6734 20.8883 13.5171C21.0185 12.2137 20.5998 11.1173 19.7823 10.1779C18.2834 8.45394 17.5383 5.37573 19.3654 2.69226C19.3806 2.66967 19.4051 2.65398 19.4583 2.60378Z" fill="white" fill-opacity="0.7"/>
<path d="M21.0634 0.6577C21.0535 -0.0903583 21.0546 -0.093496 21.6082 0.12678C21.8073 0.205853 22.0123 0.283043 22.1916 0.402281C22.7872 0.798903 23.047 1.45722 22.7323 2.11867C22.3813 2.85669 22.4923 3.48802 22.8216 4.15889C22.9326 4.38481 23.0102 4.64337 23.0458 4.89628C23.1492 5.62551 22.6698 6.11376 21.9907 5.96753C21.3238 5.82382 20.9723 5.31675 20.8047 4.65027C20.636 3.97815 20.876 3.22884 21.3554 2.8523C21.4336 2.7908 21.5463 2.75565 21.5913 2.67532C21.6625 2.5473 21.7641 2.34773 21.7186 2.25799C21.6573 2.13938 21.4634 2.0283 21.3326 2.03646C21.0652 2.05341 20.8053 2.17327 20.5373 2.21155C20.25 2.25235 19.9563 2.27305 19.6672 2.25925C18.8906 2.22222 18.2191 1.65616 17.9353 0.783213C18.2045 0.82024 18.448 0.852246 18.6909 0.886762C18.8252 0.905589 18.9595 0.931947 19.0944 0.946381C19.3396 0.972738 19.4862 0.867935 19.4967 0.58553C19.4996 0.51336 19.5183 0.441818 19.5358 0.370903C19.6065 0.0809672 19.6725 0.0652781 19.9247 0.18326C20.2815 0.350193 20.6506 0.48763 21.0634 0.6577Z" fill="white" fill-opacity="0.7"/>
<path d="M16.8907 8.69115C16.6349 8.93402 16.4037 9.21956 16.1176 9.41097C15.616 9.74609 15.0928 10.0505 14.5573 10.3197C13.3994 10.9014 12.6526 11.9012 12.064 13.0697C11.6587 13.8748 11.393 14.7321 11.2687 15.6389C11.2494 15.7801 11.2214 15.9207 11.1817 16.151C10.9492 15.4896 10.8436 14.8909 10.819 14.2771C10.7828 13.359 10.9282 12.4685 11.2348 11.6112C11.5764 10.6548 12.2035 10.0065 13.115 9.71095C13.5962 9.55468 14.0908 9.42289 14.5883 9.35386C15.3766 9.24404 16.1386 9.07773 16.8154 8.59639C16.8405 8.62777 16.8656 8.65915 16.8907 8.69115Z" fill="white" fill-opacity="0.7"/>
<path d="M19.905 3.50056C20.0381 4.52663 20.4422 5.37197 21.1844 6.07861C22.0346 6.88754 22.3452 7.99205 22.3744 9.19635C22.2751 8.92524 22.2162 8.62527 22.0696 8.38742C21.627 7.66886 21.1908 6.93837 20.6769 6.28005C20.034 5.45669 19.8156 4.53793 19.905 3.50056Z" fill="white" fill-opacity="0.7"/>
<path d="M16.6191 9.49695C17.2206 8.81855 17.4769 8.05543 17.5225 7.15111C17.5581 6.45263 17.7385 5.76231 17.8547 5.06885C17.8787 5.07387 17.9026 5.07952 17.9271 5.08454C17.8822 5.64433 17.8004 6.20474 17.8028 6.76453C17.8051 7.2716 17.8746 7.78307 17.9581 8.28449C18.0632 8.91394 17.9359 9.18129 17.3578 9.3432C17.1155 9.41098 16.8656 9.44675 16.6191 9.49695Z" fill="white" fill-opacity="0.7"/>
<path d="M23.9486 3.32861C23.5404 3.32861 23.1317 3.32861 22.6949 3.32861C22.685 3.24389 22.6622 3.13407 22.6604 3.02424C22.6523 2.62072 22.8175 2.47575 23.1533 2.64268C23.4511 2.79079 23.7191 3.00793 24.0006 3.19431C23.9825 3.23887 23.9655 3.28406 23.9486 3.32861Z" fill="white" fill-opacity="0.7"/>
</g>
<defs>
<clipPath id="clip0_1257_3982">
<rect width="24" height="24" fill="white"/>
</clipPath>
</defs>
</svg>
