<svg width="20" height="20" viewBox="0 0 20 20" fill="none" xmlns="http://www.w3.org/2000/svg">
<path d="M11.8 6.5H2.8C1.8073 6.5 1 7.3073 1 8.3V17.3C1 18.2927 1.8073 19.1 2.8 19.1H11.8C12.7927 19.1 13.6 18.2927 13.6 17.3V8.3C13.6 7.3073 12.7927 6.5 11.8 6.5Z" fill="#CF0808"/>
<path d="M17.1999 1.09961H8.1999C7.72251 1.09961 7.26468 1.28925 6.92711 1.62682C6.58954 1.96438 6.3999 2.42222 6.3999 2.89961V4.69961H13.5999C14.0773 4.69961 14.5351 4.88925 14.8727 5.22682C15.2103 5.56438 15.3999 6.02222 15.3999 6.49961V13.6996H17.1999C17.6773 13.6996 18.1351 13.51 18.4727 13.1724C18.8103 12.8348 18.9999 12.377 18.9999 11.8996V2.89961C18.9999 2.42222 18.8103 1.96438 18.4727 1.62682C18.1351 1.28925 17.6773 1.09961 17.1999 1.09961Z" fill="#CF0808"/>
</svg>
