<svg width="61" height="60" viewBox="0 0 61 60" fill="none" xmlns="http://www.w3.org/2000/svg">
<path d="M20.6905 30.1912C28.1944 30.1912 34.2808 24.1049 34.2808 16.6012C34.2808 9.09748 28.1944 3 20.6905 3C13.1865 3 7.1001 9.08623 7.1001 16.59C7.1001 24.0937 13.1865 30.1912 20.6905 30.1912ZM15.9428 21.9674C16.0666 21.5174 16.1903 21.0787 16.3253 20.6287C16.4828 20.1112 16.6291 20.0549 17.1016 20.3024C17.9116 20.7187 18.7667 20.9549 19.6667 21.0674C20.2404 21.1349 20.8142 21.0787 21.343 20.8424C22.3443 20.4037 22.5018 19.2449 21.658 18.5474C21.3655 18.3112 21.0392 18.1312 20.7017 17.9849C19.8242 17.6024 18.9129 17.3099 18.0804 16.815C16.7416 16.0162 15.8866 14.9025 15.9878 13.2712C16.1003 11.4262 17.1466 10.2675 18.8342 9.65998C19.5317 9.40123 19.5317 9.41248 19.5429 8.68123C19.5429 8.43373 19.5429 8.18623 19.5429 7.93873C19.5542 7.38748 19.6554 7.29748 20.1954 7.27498C20.3642 7.27498 20.533 7.27498 20.7017 7.27498C21.8717 7.27498 21.8717 7.27498 21.8717 8.44498C21.8717 9.26623 21.8717 9.27748 22.693 9.40123C23.323 9.50248 23.9193 9.68248 24.5043 9.94123C24.8306 10.0875 24.9431 10.3125 24.8531 10.65C24.7068 11.1562 24.5718 11.6625 24.4031 12.1575C24.2456 12.63 24.0993 12.6975 23.6493 12.4837C22.738 12.045 21.7817 11.8537 20.7692 11.91C20.4992 11.9212 20.2517 11.955 20.0042 12.0675C19.1379 12.45 18.9917 13.4062 19.7342 14.0025C20.1054 14.3062 20.533 14.52 20.983 14.7C21.748 15.015 22.5243 15.33 23.2668 15.735C25.5956 17.0287 26.2256 19.9537 24.5831 21.9449C23.9868 22.6649 23.2218 23.1487 22.3105 23.3962C21.9167 23.5087 21.7367 23.7112 21.7592 24.1162C21.7817 24.5212 21.7592 24.9149 21.7592 25.3199C21.7592 25.6799 21.5792 25.8712 21.2192 25.8824C20.7917 25.8937 20.3529 25.8937 19.9254 25.8824C19.5429 25.8712 19.3629 25.6574 19.3629 25.2862C19.3629 24.9937 19.3629 24.7012 19.3517 24.4087C19.3404 23.7674 19.3292 23.7337 18.6992 23.6324C17.9004 23.5087 17.1241 23.3287 16.3928 22.9687C15.8416 22.7099 15.7853 22.5637 15.9428 21.9674Z" fill="#2C2C2C"/>
<path d="M51.1774 31.3275H49.5911C48.5448 28.1213 46.4973 25.275 43.7634 23.07C43.7634 22.9688 43.7409 22.8563 43.7184 22.755C43.1447 20.7413 43.8534 18.9075 44.6747 17.5913C45.2485 16.6688 44.506 15.4876 43.4259 15.6226C41.0071 15.9263 39.3421 16.8151 38.1945 17.8163C37.407 18.5026 36.8445 19.425 36.597 20.4488C34.8645 27.6263 28.3955 32.97 20.6891 32.97C16.9427 32.97 13.5001 31.71 10.7438 29.595C9.78753 31.665 9.27002 33.9262 9.27002 36.3C9.27002 37.5825 9.42752 38.8312 9.72003 40.035C9.72003 40.035 9.72003 40.0575 9.73128 40.0912C10.035 41.34 10.4963 42.5437 11.0813 43.68C11.8576 45.3562 12.9826 47.3137 14.5352 48.8999C16.774 51.2062 17.1565 54.0637 17.2127 55.3012V55.8299C17.2127 55.8524 17.2127 55.8749 17.2127 55.8974C17.2127 55.9087 17.2127 55.9087 17.2127 55.9087C17.2577 56.5162 17.764 56.9999 18.3828 56.9999H25.493C26.1342 56.9999 26.663 56.4824 26.663 55.8299V54.0749C27.698 54.2099 28.7555 54.2887 29.8243 54.2887C30.6681 54.2887 31.4894 54.2437 32.3106 54.1537V55.8299C32.3106 56.4712 32.8281 56.9999 33.4807 56.9999H40.6133C41.2546 56.9999 41.7834 56.4824 41.7834 55.8299V54.0749C41.7946 53.4899 41.9971 51.1612 44.2022 49.1699C44.2809 49.1024 44.3597 49.0349 44.4384 48.9674C44.4609 48.9449 44.4835 48.9337 44.506 48.9112C46.9585 46.7287 48.7698 44.0062 49.7036 40.9687H51.1999C52.3924 40.9687 53.3599 40.0012 53.3599 38.8087V33.4875C53.3374 32.295 52.3699 31.3275 51.1774 31.3275ZM42.2784 31.71C41.2996 31.71 40.5121 30.9225 40.5121 29.9438C40.5121 28.965 41.2996 28.1775 42.2784 28.1775C43.2572 28.1775 44.0447 28.965 44.0447 29.9438C44.0447 30.9225 43.2572 31.71 42.2784 31.71Z" fill="#2C2C2C"/>
</svg>
