<svg width="16" height="16" viewBox="0 0 16 16" fill="none" xmlns="http://www.w3.org/2000/svg">
<path d="M11.75 5H8.5V9.79281L10.1466 8.14656C10.2411 8.05675 10.367 8.00742 10.4973 8.00909C10.6277 8.01076 10.7523 8.0633 10.8445 8.1555C10.9367 8.2477 10.9892 8.37227 10.9909 8.50265C10.9926 8.63303 10.9432 8.75891 10.8534 8.85344L8.35344 11.3534C8.25968 11.4471 8.13255 11.4998 8 11.4998C7.86745 11.4998 7.74032 11.4471 7.64656 11.3534L5.14656 8.85344C5.05675 8.75891 5.00742 8.63303 5.00909 8.50265C5.01076 8.37227 5.0633 8.2477 5.1555 8.1555C5.2477 8.0633 5.37227 8.01076 5.50265 8.00909C5.63303 8.00742 5.75891 8.05675 5.85344 8.14656L7.5 9.79281V5H4.25C3.78602 5.0005 3.34119 5.18503 3.01311 5.51311C2.68503 5.84119 2.5005 6.28602 2.5 6.75V13.25C2.5005 13.714 2.68503 14.1588 3.01311 14.4869C3.34119 14.815 3.78602 14.9995 4.25 15H11.75C12.214 14.9995 12.6588 14.815 12.9869 14.4869C13.315 14.1588 13.4995 13.714 13.5 13.25V6.75C13.4995 6.28602 13.315 5.84119 12.9869 5.51311C12.6588 5.18503 12.214 5.0005 11.75 5ZM8.5 1.5C8.5 1.36739 8.44732 1.24021 8.35355 1.14645C8.25979 1.05268 8.13261 1 8 1C7.86739 1 7.74021 1.05268 7.64645 1.14645C7.55268 1.24021 7.5 1.36739 7.5 1.5V5H8.5V1.5Z" fill="white" fill-opacity="0.7"/>
</svg>
