<svg width="24" height="24" viewBox="0 0 24 24" fill="none" xmlns="http://www.w3.org/2000/svg">
<path d="M21.7199 22.5599H2.27995C1.99352 22.5599 1.71882 22.4461 1.51628 22.2435C1.31374 22.041 1.19995 21.7662 1.19995 21.4798C1.19995 21.1933 1.31374 20.9186 1.51628 20.716C1.71882 20.5135 1.99352 20.3997 2.27995 20.3997H21.7199C22.0064 20.3997 22.2811 20.5135 22.4836 20.716C22.6862 20.9186 22.7999 21.1933 22.7999 21.4798C22.7999 21.7662 22.6862 22.041 22.4836 22.2435C22.2811 22.4461 22.0064 22.5599 21.7199 22.5599Z" fill="#2C2C2C"/>
<path d="M21.4068 2.35101C21.0951 2.04363 20.7229 1.80429 20.314 1.64812C19.905 1.49195 19.4681 1.42235 19.0308 1.44371C18.1408 1.49308 17.3029 1.87924 16.6872 2.52383L7.09682 12.0721C6.9743 12.2055 6.88218 12.364 6.82682 12.5365L5.52002 16.857C5.47188 17.0215 5.4636 17.1951 5.49585 17.3635C5.5281 17.5319 5.59997 17.6901 5.7055 17.8252C5.81103 17.9603 5.94719 18.0684 6.10274 18.1404C6.25829 18.2124 6.42874 18.2464 6.60002 18.2395C6.7002 18.2553 6.80224 18.2553 6.90242 18.2395L11.2224 16.9758C11.3949 16.9204 11.5534 16.8283 11.6868 16.7057L21.2664 7.11432C21.9109 6.49852 22.2971 5.66056 22.3464 4.77047C22.3711 4.32353 22.3 3.87647 22.138 3.45921C21.976 3.04195 21.7267 2.66413 21.4068 2.35101Z" fill="#2C2C2C"/>
</svg>
