<svg width="21" height="20" viewBox="0 0 21 20" fill="none" xmlns="http://www.w3.org/2000/svg">
<path d="M1.92976 10.7239L2.28697 10.9422V8.60336L1.66329 9.62396C1.43364 10.001 1.55268 10.4943 1.92976 10.7239Z" fill="#F9C5C5"/>
<path d="M7.12342 2.23026C6.74354 2.00062 6.25025 2.11969 6.02061 2.49675L4.69385 4.66836H11.1094L7.12342 2.23026Z" fill="#F9C5C5"/>
<path d="M13.6893 17.9135C14.0664 18.1431 14.5597 18.0241 14.7893 17.647L16.1189 15.4754H9.70044L13.6893 17.9135Z" fill="#F9C5C5"/>
<path d="M18.8802 9.41982L18.5229 9.20154V11.5432L19.1466 10.5226C19.3763 10.1428 19.26 9.64946 18.8802 9.41982Z" fill="#F9C5C5"/>
<path d="M4.01341 8.0307H2.71216V9.18738H4.93195C4.54072 8.92089 4.22604 8.541 4.03608 8.08173L4.01341 8.0307Z" fill="#F9C5C5"/>
<path d="M12.3512 8.08457C12.1612 8.541 11.8466 8.9209 11.4553 9.18738H18.0977V8.0307H12.3739L12.3512 8.08457Z" fill="#F9C5C5"/>
<path d="M5.25514 11.6112L5.08221 10.7778L4.2487 10.6048C4.0531 10.5651 3.89433 10.4205 3.83764 10.2306C3.78096 10.0378 3.83197 9.83086 3.97372 9.68911L4.05027 9.61258H2.71216V14.2478C2.71216 14.69 3.07221 15.0501 3.51445 15.0501H7.18863V10.8685L6.17084 11.8862C5.86477 12.1923 5.34013 12.0316 5.25514 11.6112Z" fill="#F9C5C5"/>
<path d="M7.61401 10.4433V15.0501H8.77348V10.4433L8.19517 9.86493L7.61401 10.4433Z" fill="#F9C5C5"/>
<path d="M12.4564 9.73173C12.5897 9.86497 12.6407 10.0606 12.5868 10.2392C12.5329 10.4206 12.3827 10.5567 12.1984 10.5936L11.3054 10.7778L11.1211 11.6709C11.0729 11.909 10.8632 12.0791 10.6221 12.0791C10.4861 12.0791 10.3557 12.0252 10.2593 11.9289L9.19897 10.8686V15.0502H17.2957C17.738 15.0502 18.0981 14.6901 18.0981 14.2479V9.61267H12.3373L12.4564 9.73173ZM13.2842 11.9629H16.363C16.4821 11.9629 16.5756 12.0593 16.5756 12.1755C16.5756 12.2946 16.4821 12.3881 16.363 12.3881H13.2842C13.168 12.3881 13.0716 12.2946 13.0716 12.1755C13.0716 12.0593 13.168 11.9629 13.2842 11.9629ZM13.2842 13.111H16.363C16.4821 13.111 16.5756 13.2074 16.5756 13.3237C16.5756 13.4427 16.4821 13.5363 16.363 13.5363H13.2842C13.168 13.5363 13.0716 13.4427 13.0716 13.3237C13.0716 13.2074 13.168 13.111 13.2842 13.111Z" fill="#F9C5C5"/>
<path d="M2.71216 7.60546H3.84048C3.61651 7.05263 3.88018 6.42044 4.43015 6.1908L4.90361 5.99519C5.20697 5.87045 5.52445 5.80523 5.85049 5.80523C6.33813 5.80523 6.79737 5.94416 7.18863 6.19646V5.09366H3.51445C3.07221 5.09366 2.71216 5.45369 2.71216 5.89595L2.71216 7.60546Z" fill="#F9C5C5"/>
<path d="M8.35107 7.11501C8.46451 6.89955 8.6091 6.70677 8.77348 6.54234V5.09366H7.61401V6.5395C7.78123 6.70677 7.92298 6.89955 8.03643 7.11501C8.08744 7.1065 8.14412 7.10366 8.19801 7.10366C8.24905 7.10366 8.30006 7.1065 8.35107 7.11501Z" fill="#F9C5C5"/>
<path d="M17.2957 5.09366H9.19897V6.19646C9.59024 5.94416 10.0523 5.80523 10.5371 5.80523C10.8631 5.80523 11.1807 5.87044 11.4868 5.99518L11.9575 6.1908C12.5075 6.42043 12.7711 7.05263 12.55 7.60546H18.0981V5.89595C18.0981 5.45369 17.738 5.09366 17.2957 5.09366Z" fill="#F9C5C5"/>
<path d="M10.7042 11.5858L10.9339 10.4716C10.9396 10.4405 10.9679 10.4121 10.9991 10.4064L12.1132 10.1768C12.1812 10.1626 12.2039 10.0804 12.1557 10.0351L11.3648 9.24408C10.2671 9.92707 9.26407 9.46818 9.19882 9.46238C9.06559 9.60413 8.90117 9.71754 8.71973 9.78841L10.5625 11.6283C10.6078 11.6765 10.69 11.6538 10.7042 11.5858Z" fill="#F9C5C5"/>
<path d="M4.33384 10.1881L5.36578 10.4007C5.41399 10.4121 5.44797 10.4461 5.45932 10.4943L5.67195 11.5262C5.68897 11.6198 5.80235 11.6538 5.87038 11.5858L7.66779 9.78838C7.48635 9.71467 7.32477 9.60126 7.19154 9.46235L7.06394 9.50204C6.41955 9.70914 5.64904 9.63843 5.01989 9.24405L4.27432 9.98965C4.20912 10.0577 4.2431 10.1711 4.33384 10.1881Z" fill="#F9C5C5"/>
<path d="M11.9572 7.92014L12.1528 7.44953C12.2917 7.11217 12.1329 6.72378 11.7956 6.58485L11.3221 6.38923C10.3667 5.99234 9.28659 6.3694 8.77344 7.23123C9.0513 7.35597 9.28091 7.57144 9.42266 7.84076L10.5481 7.37582C10.6559 7.33329 10.7806 7.38148 10.826 7.49205C10.8714 7.59978 10.8203 7.72452 10.7126 7.76989L9.56725 8.24333C9.58144 8.32554 9.58995 8.40776 9.58995 8.49564C9.58995 8.71109 9.54175 8.91522 9.45388 9.09666C10.4546 9.40851 11.5489 8.90955 11.9572 7.92014Z" fill="#F9C5C5"/>
<path d="M5.83941 7.37582L6.96206 7.84076C7.10665 7.57428 7.33626 7.35881 7.61412 7.23124C7.10097 6.3694 6.02082 5.99234 5.06546 6.38923L4.59481 6.58485C4.25462 6.72378 4.09585 7.11217 4.23479 7.44954L4.43039 7.92014C4.83865 8.90955 5.93295 9.41135 6.93652 9.09666C6.84581 8.91522 6.79761 8.71109 6.79761 8.49565C6.79761 8.41058 6.80612 8.32553 6.82031 8.24333L5.6778 7.76989C5.56723 7.72452 5.51618 7.59978 5.56159 7.49205C5.60692 7.38148 5.73165 7.33329 5.83941 7.37582Z" fill="#F9C5C5"/>
<path d="M9.16432 8.49647C9.16432 7.9623 8.73094 7.5289 8.19678 7.5289C7.65754 7.5289 7.22412 7.9623 7.22412 8.49647C7.22412 9.0357 7.65754 9.46912 8.19678 9.46912C8.73094 9.46911 9.16432 9.0357 9.16432 8.49647Z" fill="#F9C5C5"/>
<path d="M1.90676 2.35991C1.90676 2.4773 2.002 2.57253 2.11938 2.57253C2.23677 2.57253 2.33201 2.4773 2.33201 2.35991V1.99889H2.69303C2.81041 1.99889 2.90565 1.90365 2.90565 1.78627C2.90565 1.66888 2.81041 1.57364 2.69303 1.57364H2.33201V1.21262C2.33201 1.09524 2.23677 1 2.11938 1C2.002 1 1.90676 1.09524 1.90676 1.21262V1.57364H1.54588C1.42849 1.57364 1.33325 1.66888 1.33325 1.78627C1.33325 1.90365 1.42849 1.99889 1.54588 1.99889H1.90676V2.35991Z" fill="#F9C5C5"/>
<path d="M17.5783 18.0012H17.2174V17.6404C17.2174 17.523 17.1222 17.4278 17.0048 17.4278C16.8874 17.4278 16.7922 17.523 16.7922 17.6404V18.0012H16.4311C16.3137 18.0012 16.2185 18.0964 16.2185 18.2138C16.2185 18.3312 16.3137 18.4264 16.4311 18.4264H16.7922V18.7874C16.7922 18.9048 16.8874 19.0001 17.0048 19.0001C17.1222 19.0001 17.2174 18.9048 17.2174 18.7874V18.4264H17.5783C17.6957 18.4264 17.7909 18.3312 17.7909 18.2138C17.7909 18.0964 17.6957 18.0012 17.5783 18.0012Z" fill="#F9C5C5"/>
<path d="M2.28536 17.7972C1.97161 17.7972 1.71704 18.0518 1.71704 18.3655C1.71704 18.6767 1.97161 18.9313 2.28536 18.9313C2.5965 18.9313 2.85104 18.6767 2.85104 18.3655C2.85104 18.0518 2.5965 17.7972 2.28536 17.7972Z" fill="#F9C5C5"/>
<path d="M14.9324 3.34001C15.2435 3.34001 15.498 3.08544 15.498 2.77429C15.498 2.46058 15.2435 2.20599 14.9324 2.20599C14.6186 2.20599 14.364 2.46058 14.364 2.77429C14.364 3.08544 14.6186 3.34001 14.9324 3.34001Z" fill="#F9C5C5"/>
<path d="M3.58079 3.85908C3.69817 3.85908 3.79341 3.76384 3.79341 3.64646V3.56645C3.79341 3.44906 3.69817 3.35382 3.58079 3.35382C3.4634 3.35382 3.36816 3.44906 3.36816 3.56645V3.64646C3.36816 3.76384 3.4634 3.85908 3.58079 3.85908Z" fill="#F9C5C5"/>
<path d="M9.44236 2.03877C9.55975 2.03877 9.65499 1.94353 9.65499 1.82614V1.74613C9.65499 1.62875 9.55975 1.53351 9.44236 1.53351C9.32498 1.53351 9.22974 1.62875 9.22974 1.74613V1.82614C9.22974 1.94353 9.32498 2.03877 9.44236 2.03877Z" fill="#F9C5C5"/>
<path d="M11.9302 3.63261C12.0475 3.63261 12.1428 3.53737 12.1428 3.41999V3.33997C12.1428 3.22259 12.0475 3.12735 11.9302 3.12735C11.8128 3.12735 11.7175 3.22259 11.7175 3.33997V3.41999C11.7175 3.53737 11.8128 3.63261 11.9302 3.63261Z" fill="#F9C5C5"/>
<path d="M18.9839 5.75911C19.1013 5.75911 19.1965 5.66387 19.1965 5.54648V5.46647C19.1965 5.34908 19.1013 5.25385 18.9839 5.25385C18.8665 5.25385 18.7712 5.34908 18.7712 5.46647V5.54648C18.7712 5.66387 18.8665 5.75911 18.9839 5.75911Z" fill="#F9C5C5"/>
<path d="M17.5779 2.0388C17.6952 2.0388 17.7905 1.94356 17.7905 1.82618V1.74616C17.7905 1.62878 17.6952 1.53354 17.5779 1.53354C17.4605 1.53354 17.3652 1.62878 17.3652 1.74616V1.82618C17.3652 1.94356 17.4605 2.0388 17.5779 2.0388Z" fill="#F9C5C5"/>
<path d="M7.79807 16.1373C7.68069 16.1373 7.58545 16.2326 7.58545 16.35V16.43C7.58545 16.5474 7.68069 16.6426 7.79807 16.6426C7.91546 16.6426 8.0107 16.5474 8.0107 16.43V16.35C8.0107 16.2326 7.91546 16.1373 7.79807 16.1373Z" fill="#F9C5C5"/>
<path d="M10.4053 18.1116C10.2879 18.1116 10.1926 18.2068 10.1926 18.3242V18.4042C10.1926 18.5216 10.2879 18.6168 10.4053 18.6168C10.5226 18.6168 10.6179 18.5216 10.6179 18.4042V18.3242C10.6179 18.2068 10.5226 18.1116 10.4053 18.1116Z" fill="#F9C5C5"/>
<path d="M18.7822 16.0972C18.6648 16.0972 18.5696 16.1924 18.5696 16.3098V16.3901C18.5696 16.5075 18.6648 16.6027 18.7822 16.6027C18.8996 16.6027 18.9948 16.5075 18.9948 16.3901V16.3098C18.9948 16.1924 18.8996 16.0972 18.7822 16.0972Z" fill="#F9C5C5"/>
<path d="M4.92796 17.0847C4.81057 17.0847 4.71533 17.18 4.71533 17.2973V17.3774C4.71533 17.4947 4.81057 17.59 4.92796 17.59C5.04534 17.59 5.14058 17.4947 5.14058 17.3774V17.2973C5.14058 17.18 5.04535 17.0847 4.92796 17.0847Z" fill="#F9C5C5"/>
<path d="M1.9814 15.0916V15.0116C1.9814 14.8942 1.88616 14.799 1.76878 14.799C1.65139 14.799 1.55615 14.8942 1.55615 15.0116V15.0916C1.55615 15.209 1.65139 15.3042 1.76878 15.3042C1.88616 15.3042 1.9814 15.209 1.9814 15.0916Z" fill="#F9C5C5"/>
</svg>
