<svg width="30" height="30" viewBox="0 0 30 30" fill="none" xmlns="http://www.w3.org/2000/svg">
<g id="icon">
<path id="Vector" fill-rule="evenodd" clip-rule="evenodd" d="M4.5 7.5C4.5 7.10217 4.65804 6.72065 4.93934 6.43934C5.22065 6.15804 5.60217 6 6 6H24C24.3978 6 24.7794 6.15804 25.0606 6.43934C25.3419 6.72065 25.5 7.10217 25.5 7.5C25.5 7.89783 25.3419 8.27935 25.0606 8.56066C24.7794 8.84196 24.3978 9 24 9H6C5.60217 9 5.22065 8.84196 4.93934 8.56066C4.65804 8.27935 4.5 7.89783 4.5 7.5ZM4.5 15C4.5 14.6022 4.65804 14.2206 4.93934 13.9393C5.22065 13.658 5.60217 13.5 6 13.5H15C15.3978 13.5 15.7794 13.658 16.0606 13.9393C16.3419 14.2206 16.5 14.6022 16.5 15C16.5 15.3978 16.3419 15.7794 16.0606 16.0606C15.7794 16.3419 15.3978 16.5 15 16.5H6C5.60217 16.5 5.22065 16.3419 4.93934 16.0606C4.65804 15.7794 4.5 15.3978 4.5 15ZM4.5 22.5C4.5 22.1022 4.65804 21.7206 4.93934 21.4394C5.22065 21.1581 5.60217 21 6 21H24C24.3978 21 24.7794 21.1581 25.0606 21.4394C25.3419 21.7206 25.5 22.1022 25.5 22.5C25.5 22.8978 25.3419 23.2794 25.0606 23.5606C24.7794 23.8419 24.3978 24 24 24H6C5.60217 24 5.22065 23.8419 4.93934 23.5606C4.65804 23.2794 4.5 22.8978 4.5 22.5Z" fill="#CF0808"/>
</g>
</svg>
