<svg width="24" height="24" viewBox="0 0 24 24" fill="none" xmlns="http://www.w3.org/2000/svg">
<rect width="24" height="24" rx="12" fill="white" fill-opacity="0.6"/>
<path fill-rule="evenodd" clip-rule="evenodd" d="M9.78589 8.12401C8.53328 8.12401 7.57189 9.08056 7.57189 10.2864C7.57189 11.0338 7.91006 11.752 8.61089 12.5925C9.31706 13.4394 10.3365 14.3475 11.6135 15.4833L12.0011 15.8295L12.3859 15.4885C12.3861 15.4884 12.3863 15.4882 12.3865 15.488C13.6633 14.3499 14.6826 13.4407 15.3888 12.5933C16.0897 11.7521 16.4279 11.0338 16.4279 10.2864C16.4279 9.08056 15.4665 8.12401 14.2139 8.12401C13.5033 8.12401 12.8162 8.45089 12.3714 8.96322C12.278 9.07086 12.1424 9.13268 11.9999 9.13268C11.8573 9.13268 11.7218 9.07086 11.6284 8.96322C11.1836 8.45089 10.4965 8.12401 9.78589 8.12401ZM6.58789 10.2864C6.58789 8.51933 8.00778 7.14001 9.78589 7.14001C10.6061 7.14001 11.396 7.44517 11.9999 7.9529C12.6038 7.44517 13.3936 7.14001 14.2139 7.14001C15.992 7.14001 17.4119 8.51933 17.4119 10.2864C17.4119 11.3633 16.9137 12.3004 16.1447 13.2232C15.3901 14.1289 14.3226 15.0804 13.0844 16.184L13.0407 16.2231L13.0396 16.224L12.3262 16.8562C12.1394 17.0217 11.8583 17.0212 11.6722 16.855L10.9588 16.2179L10.928 16.1906C9.68455 15.0845 8.61244 14.1309 7.85514 13.2227C7.08612 12.3004 6.58789 11.3633 6.58789 10.2864Z" fill="#CF0808"/>
</svg>
