<svg width="20" height="20" viewBox="0 0 20 20" fill="none" xmlns="http://www.w3.org/2000/svg">
<path fill-rule="evenodd" clip-rule="evenodd" d="M9.33792 18.1052C9.14283 18.0067 8.86783 17.8614 8.5395 17.6705C7.88462 17.2898 7.00803 16.7219 6.12738 15.9744C4.39008 14.4997 2.5 12.205 2.5 9.16669C2.5 5.02455 5.85787 1.66669 10 1.66669C14.1422 1.66669 17.5 5.02455 17.5 9.16669C17.5 12.205 15.6099 14.4997 13.8726 15.9744C12.992 16.7219 12.1154 17.2898 11.4605 17.6705C11.1322 17.8614 10.8572 18.0067 10.6621 18.1052C10.6378 18.1174 10.6137 18.1299 10.5893 18.1424C10.4058 18.2372 10.2193 18.3334 10 18.3334C9.78425 18.3334 9.58608 18.232 9.39675 18.1352L9.33792 18.1052ZM9.16667 7.50002C8.70642 7.50002 8.33333 7.87312 8.33333 8.33335C8.33333 8.7936 8.70642 9.16669 9.16667 9.16669V11.6667C8.70642 11.6667 8.33333 12.0398 8.33333 12.5C8.33333 12.9603 8.70642 13.3334 9.16667 13.3334H10.8333C11.2936 13.3334 11.6667 12.9603 11.6667 12.5C11.6667 12.0398 11.2936 11.6667 10.8333 11.6667V8.33335C10.8333 8.11234 10.7455 7.90038 10.5893 7.7441C10.433 7.58782 10.221 7.50002 10 7.50002H9.16667ZM9.16667 5.83335C9.16667 5.37312 9.53975 5.00002 10 5.00002C10.4603 5.00002 10.8333 5.37312 10.8333 5.83335C10.8333 6.29359 10.4603 6.66669 10 6.66669C9.53975 6.66669 9.16667 6.29359 9.16667 5.83335Z" fill="white"/>
</svg>
