<svg width="20" height="20" viewBox="0 0 20 20" fill="none" xmlns="http://www.w3.org/2000/svg">
<path d="M19.6783 10.7281C19.7092 11.4665 19.4459 12.187 18.9463 12.7316C18.4466 13.2761 17.7514 13.6002 17.0131 13.6328C16.9699 13.6348 16.9268 13.6358 16.8838 13.6358C16.6876 13.6357 16.492 13.6144 16.3004 13.5725C15.7318 14.4504 14.9862 15.2 14.1113 15.7733C13.2364 16.3465 12.2515 16.7309 11.2196 16.9018C11.0976 17.2603 10.8541 17.565 10.5312 17.7631C10.2084 17.9612 9.82645 18.0402 9.45149 17.9866C9.07653 17.933 8.7321 17.75 8.47773 17.4693C8.22336 17.1887 8.07503 16.828 8.0584 16.4496C8.04176 16.0712 8.15786 15.6988 8.38663 15.397C8.61539 15.0951 8.94244 14.8826 9.31124 14.7963C9.68005 14.7099 10.0674 14.7552 10.4064 14.9242C10.7454 15.0931 11.0147 15.3753 11.1677 15.7217C12.6205 15.453 13.933 14.6831 14.8764 13.546C15.8197 12.409 16.3342 10.9769 16.33 9.49951C16.33 6.00908 13.4904 3.16943 9.99997 3.16943C6.50954 3.16943 3.66989 6.00908 3.66989 9.49951C3.6697 10.5788 3.94554 11.6402 4.47118 12.5829C4.489 12.614 4.50237 12.6474 4.51091 12.6822C4.56168 12.8234 4.55625 12.9786 4.49575 13.1158C4.43525 13.2531 4.3243 13.3618 4.18587 13.4195C3.84691 13.5621 3.48285 13.6356 3.11509 13.6355C3.07181 13.6355 3.02843 13.6345 2.98497 13.6325C2.24696 13.5995 1.55214 13.2752 1.05288 12.7307C0.553616 12.1862 0.290653 11.4659 0.32165 10.7278C0.334111 10.4335 0.327157 10.1709 0.320361 9.91693C0.314032 9.67783 0.307431 9.43057 0.31829 9.17256C0.3507 8.45188 0.66071 7.77169 1.18339 7.27446C1.70607 6.77723 2.40087 6.50152 3.12227 6.5051C4.28071 3.85463 6.92731 1.99756 9.99997 1.99756C13.0726 1.99756 15.7193 3.85463 16.8777 6.50514C17.5992 6.50102 18.2942 6.77649 18.817 7.27373C19.3397 7.77097 19.6496 8.45135 19.6816 9.17213C19.6925 9.43053 19.6859 9.67775 19.6795 9.91686C19.6728 10.1708 19.6658 10.4336 19.6783 10.7281ZM14.9142 9.49951C14.9139 10.2524 14.7407 10.9951 14.408 11.6705C14.0752 12.3458 13.5918 12.9357 12.995 13.3947C12.3982 13.8536 11.704 14.1694 10.9659 14.3176C10.2277 14.4658 9.46541 14.4425 8.7377 14.2495L6.7486 15.3982C6.64824 15.4562 6.53294 15.4831 6.41729 15.4755C6.30164 15.4679 6.19084 15.4262 6.09889 15.3557C6.00694 15.2851 5.93798 15.1889 5.90073 15.0791C5.86348 14.9694 5.85961 14.8511 5.88962 14.7391L6.39798 12.8427C5.55611 11.9327 5.08768 10.7392 5.08591 9.49951C5.08591 6.78904 7.29024 4.58412 9.99997 4.58412C12.7097 4.58412 14.9142 6.78904 14.9142 9.49951ZM8.63376 9.49951C8.63376 9.34411 8.57203 9.19508 8.46214 9.08519C8.35226 8.97531 8.20322 8.91357 8.04782 8.91357C7.93198 8.91379 7.81783 8.94834 7.72161 9.01285C7.6254 9.07737 7.55047 9.16895 7.50629 9.27604C7.46211 9.38312 7.45066 9.5009 7.47339 9.61449C7.49613 9.72808 7.55202 9.83238 7.63401 9.91422C7.71599 9.99605 7.8204 10.0517 7.93403 10.0743C8.04766 10.0968 8.16542 10.0851 8.27242 10.0407C8.37942 9.99636 8.47087 9.92126 8.5352 9.82493C8.59954 9.72859 8.63376 9.61535 8.63376 9.49951ZM10.586 9.49951C10.586 9.48033 10.5849 9.46116 10.5829 9.44209C10.5811 9.42294 10.5782 9.4039 10.5743 9.38506C10.5708 9.36628 10.5661 9.34776 10.5602 9.32959C10.5548 9.31123 10.5482 9.29326 10.5411 9.27529C10.5341 9.25732 10.5255 9.24053 10.5165 9.22373C10.5076 9.20684 10.4978 9.19041 10.4872 9.17451C10.4766 9.15845 10.4651 9.14293 10.4528 9.12803C10.4408 9.1131 10.4279 9.09888 10.4142 9.08545C10.4009 9.07178 10.3865 9.05889 10.3716 9.04639C10.3567 9.03467 10.3411 9.02295 10.3251 9.0124C10.3092 9.00181 10.2928 8.99203 10.2759 8.98311C10.2591 8.97412 10.2415 8.96592 10.2239 8.9585C10.2063 8.95113 10.1883 8.94474 10.17 8.93936C10.1335 8.92762 10.0958 8.92002 10.0575 8.9167C10.0002 8.91117 9.94228 8.91393 9.88567 8.9249C9.86683 8.92875 9.8482 8.93357 9.82985 8.93936C9.81154 8.94473 9.79355 8.95112 9.77595 8.9585C9.75837 8.96592 9.74079 8.97412 9.72399 8.98311C9.7072 8.99209 9.69079 9.00186 9.67474 9.0124C9.65868 9.02295 9.6431 9.03467 9.62868 9.04639C9.61345 9.05889 9.59938 9.07178 9.58571 9.08545C9.572 9.09889 9.55908 9.1131 9.547 9.12803C9.53491 9.14294 9.52357 9.15845 9.51306 9.17451C9.50232 9.1904 9.49241 9.20682 9.48337 9.22373C9.47435 9.24047 9.46626 9.25768 9.45911 9.27529C9.4517 9.29305 9.44518 9.31118 9.43958 9.32959C9.43415 9.34756 9.42946 9.36631 9.42556 9.38506C9.4217 9.40391 9.41882 9.42294 9.41692 9.44209C9.41501 9.46123 9.41419 9.48037 9.41419 9.49951C9.41419 9.51865 9.41501 9.53818 9.41692 9.55732C9.41885 9.57634 9.42173 9.59524 9.42556 9.61396C9.42946 9.63271 9.43415 9.65147 9.43958 9.66982C9.44518 9.68811 9.4517 9.7061 9.45911 9.72373C9.46626 9.74147 9.47435 9.75881 9.48337 9.77568C9.49231 9.79248 9.50251 9.80889 9.51306 9.8249C9.52358 9.84084 9.53491 9.85622 9.547 9.871C9.55917 9.88596 9.57209 9.9003 9.58571 9.91397C9.59938 9.92725 9.61345 9.94053 9.62868 9.95264C9.64337 9.96484 9.65875 9.97618 9.67474 9.98662C9.69079 9.99717 9.70716 10.0073 9.72399 10.0163C9.75792 10.034 9.79334 10.0486 9.82985 10.0601C9.84817 10.0655 9.86692 10.0702 9.88567 10.0741C9.92333 10.0818 9.96169 10.0856 10.0001 10.0854C10.1553 10.085 10.3041 10.0234 10.4142 9.91397C10.4412 9.88656 10.4656 9.85675 10.4872 9.8249C10.4978 9.80889 10.5075 9.79248 10.5165 9.77568C10.5255 9.75889 10.5337 9.74131 10.5411 9.72373C10.5486 9.70615 10.5548 9.68779 10.5602 9.66982C10.5661 9.65151 10.5708 9.63286 10.5743 9.61396C10.5782 9.59524 10.581 9.57634 10.5829 9.55732C10.5849 9.53809 10.586 9.51885 10.586 9.49951ZM12.5391 9.49951C12.5391 9.34411 12.4774 9.19508 12.3675 9.08519C12.2576 8.97531 12.1086 8.91357 11.9532 8.91357H11.9521C11.8362 8.9138 11.7231 8.94835 11.6269 9.01287C11.5307 9.07739 11.4557 9.16898 11.4116 9.27607C11.3674 9.38315 11.3559 9.50093 11.3787 9.61452C11.4014 9.7281 11.4573 9.8324 11.5393 9.91423C11.6213 9.99606 11.7257 10.0518 11.8393 10.0743C11.9529 10.0968 12.0707 10.0851 12.1777 10.0407C12.2847 9.99636 12.3761 9.92125 12.4405 9.82492C12.5048 9.72859 12.5391 9.61535 12.5391 9.49951Z" fill="white"/>
</svg>
