<svg width="28" height="28" viewBox="0 0 28 28" fill="none" xmlns="http://www.w3.org/2000/svg">
<circle cx="14" cy="13.9922" r="14" fill="white"/>
<path opacity="0.5" d="M14.0001 4.89929C12.2002 4.89929 10.4407 5.43304 8.94405 6.43304C7.44744 7.43304 6.28098 8.85438 5.59217 10.5173C4.90336 12.1803 4.72313 14.0101 5.07429 15.7755C5.42544 17.5408 6.2922 19.1624 7.56496 20.4352C8.83771 21.7079 10.4593 22.5747 12.2247 22.9259C13.99 23.277 15.8199 23.0968 17.4828 22.408C19.1458 21.7192 20.5671 20.5527 21.5671 19.0561C22.5671 17.5595 23.1009 15.8 23.1009 14C23.1009 12.8049 22.8655 11.6215 22.4081 10.5173C21.9507 9.41317 21.2804 8.40991 20.4353 7.56483C19.5902 6.71975 18.587 6.0494 17.4828 5.59204C16.3787 5.13469 15.1953 4.89929 14.0001 4.89929ZM14.0001 21.2806C12.5602 21.2806 11.1525 20.8536 9.95527 20.0536C8.75798 19.2536 7.82481 18.1165 7.27376 16.7862C6.72271 15.4558 6.57853 13.9919 6.85946 12.5796C7.14038 11.1673 7.83379 9.87007 8.85199 8.85187C9.8702 7.83366 11.1675 7.14025 12.5798 6.85933C13.9921 6.57841 15.4559 6.72259 16.7863 7.27364C18.1166 7.82469 19.2537 8.75786 20.0537 9.95514C20.8537 11.1524 21.2807 12.56 21.2807 14C21.2807 15.9309 20.5137 17.7828 19.1483 19.1482C17.7829 20.5135 15.9311 21.2806 14.0001 21.2806Z" fill="black"/>
<path d="M21.3333 13.9987H23.1667C23.1667 12.7949 22.9296 11.6029 22.4689 10.4908C22.0082 9.37862 21.333 8.36809 20.4818 7.51689C19.6306 6.66568 18.6201 5.99047 17.5079 5.5298C16.3958 5.06913 15.2038 4.83203 14 4.83203V6.66536C15.9449 6.66536 17.8102 7.43798 19.1855 8.81325C20.5607 10.1885 21.3333 12.0538 21.3333 13.9987Z" fill="black"/>
</svg>
