<svg width="24" height="24" viewBox="0 0 24 24" fill="none" xmlns="http://www.w3.org/2000/svg">
<g id="majesticons:login-half-circle">
<path id="Vector" fill-rule="evenodd" clip-rule="evenodd" d="M13.204 2.24399C11.347 1.82599 10 3.42199 10 4.99999V19C10 20.578 11.347 22.174 13.204 21.756C17.666 20.752 21 16.766 21 12C21 7.23399 17.666 3.24799 13.204 2.24399ZM13.293 8.29299C13.4805 8.10552 13.7348 8.0002 14 8.0002C14.2652 8.0002 14.5195 8.10552 14.707 8.29299L17.707 11.293C17.8945 11.4805 17.9998 11.7348 17.9998 12C17.9998 12.2652 17.8945 12.5195 17.707 12.707L14.707 15.707C14.5184 15.8891 14.2658 15.9899 14.0036 15.9877C13.7414 15.9854 13.4906 15.8802 13.3052 15.6948C13.1198 15.5094 13.0146 15.2586 13.0123 14.9964C13.01 14.7342 13.1108 14.4816 13.293 14.293L14.586 13H4C3.73478 13 3.48043 12.8946 3.29289 12.7071C3.10536 12.5196 3 12.2652 3 12C3 11.7348 3.10536 11.4804 3.29289 11.2929C3.48043 11.1053 3.73478 11 4 11H14.586L13.293 9.70699C13.1055 9.51946 13.0002 9.26515 13.0002 8.99999C13.0002 8.73482 13.1055 8.48052 13.293 8.29299Z" fill="white" fill-opacity="0.7"/>
</g>
</svg>
