<svg width="20" height="20" viewBox="0 0 20 20" fill="none" xmlns="http://www.w3.org/2000/svg">
<path d="M12.1621 13C12.2004 12.7547 12.2191 12.5027 12.2191 12.25C12.2191 11.9987 12.2004 11.7497 12.163 11.506L13.4026 10.5332C13.6936 10.3045 13.774 9.89055 13.5894 9.56796L12.7892 8.18204C12.6031 7.86028 12.2035 7.72226 11.8592 7.86096L10.3981 8.44969C9.99919 8.12807 9.56633 7.87744 9.1082 7.70345L8.88614 6.14352C8.83368 5.77672 8.51494 5.5 8.1436 5.5H6.54468C6.17334 5.5 5.8546 5.77672 5.80214 6.14421L5.58008 7.70496C5.12113 7.88129 4.68387 8.1348 4.29619 8.44969L2.82842 7.86096C2.48413 7.72295 2.08519 7.86096 1.89911 8.18204L1.09958 9.56796C0.913637 9.89055 0.994661 10.306 1.28786 10.5339L2.52616 11.5C2.48784 11.7453 2.46916 11.9973 2.46916 12.25C2.46916 12.5013 2.48784 12.7503 2.52533 12.994L1.28566 13.9668C0.994661 14.1955 0.914461 14.6095 1.09889 14.932L1.89842 16.318C2.08437 16.639 2.48413 16.7771 2.82842 16.639L4.28946 16.0503C4.6884 16.3719 5.12113 16.6226 5.57939 16.7966L5.80145 18.3565C5.8546 18.7233 6.17334 19 6.54468 19H8.1436C8.51494 19 8.83368 18.7233 8.88614 18.3558L9.1082 16.795C9.56716 16.6187 10.0044 16.3652 10.3921 16.0503L11.8599 16.639C12.2057 16.7777 12.6039 16.6397 12.7892 16.318L13.5887 14.932C13.7746 14.6095 13.6936 14.194 13.4004 13.9661L12.1621 13ZM7.34421 14.875C5.89662 14.875 4.71916 13.6974 4.71916 12.25C4.71916 10.8026 5.89662 9.62495 7.34421 9.62495C8.79166 9.62495 9.96912 10.8026 9.96912 12.25C9.96912 13.6974 8.79166 14.875 7.34421 14.875Z" fill="white"/>
<path d="M17.9965 5.10175C18.0108 4.98557 18.0318 4.87076 18.0318 4.75005C18.0318 4.6292 18.0108 4.51453 17.9965 4.39821L18.6723 3.8868C18.8229 3.77281 18.8649 3.56421 18.7705 3.39996L18.1637 2.34995C18.0693 2.18652 17.8674 2.11827 17.6934 2.19174L16.9157 2.51955C16.7259 2.3748 16.5242 2.24722 16.3014 2.15425L16.198 1.32849C16.174 1.14104 16.015 1 15.826 1H14.6132C14.4243 1 14.2644 1.14104 14.2412 1.32849L14.1377 2.15425C13.9149 2.24722 13.7125 2.37549 13.5234 2.51955L12.7457 2.19174C12.571 2.11827 12.3691 2.1857 12.2747 2.34995L11.6688 3.39996C11.5741 3.56352 11.6162 3.77199 11.767 3.8868L12.4427 4.39821C12.4276 4.51453 12.4068 4.6292 12.4068 4.75005C12.4068 4.87076 12.4276 4.98557 12.4419 5.10175L11.7663 5.6133C11.6155 5.72728 11.5735 5.93575 11.6679 6.09999L12.2747 7.15001C12.3691 7.31357 12.571 7.38168 12.745 7.30821L13.5227 6.97972C13.7125 7.12447 13.9142 7.25204 14.137 7.34502L14.2404 8.17078C14.2644 8.35905 14.4234 8.49995 14.6124 8.49995H15.8252C16.0143 8.49995 16.174 8.35905 16.1972 8.17146L16.3007 7.3457C16.5235 7.25273 16.7259 7.12447 16.915 6.98055L17.6927 7.30821C17.8674 7.38168 18.0693 7.31425 18.1637 7.15001L18.7696 6.09999C18.8643 5.93643 18.8222 5.72797 18.6714 5.6133L17.9965 5.10175ZM15.2193 6.24995C14.3905 6.24995 13.7192 5.57869 13.7192 4.75005C13.7192 3.92126 14.3905 3.25 15.2193 3.25C16.0479 3.25 16.7192 3.92126 16.7192 4.75005C16.7192 5.57869 16.0479 6.24995 15.2193 6.24995Z" fill="white"/>
</svg>
