<svg width="24" height="24" viewBox="0 0 24 24" fill="none" xmlns="http://www.w3.org/2000/svg">
<g id="fluent:lottery-20-filled">
<path id="Vector" d="M14.9211 3.90003C13.7552 4.28507 12.735 5.01793 11.9979 6.00003C11.2606 5.01773 10.24 4.28486 9.07355 3.90003C9.40666 3.43553 9.84572 3.05716 10.3543 2.79629C10.8629 2.53542 11.4264 2.39958 11.9979 2.40003C13.2015 2.40003 14.2683 2.99163 14.9211 3.90003ZM4.34915 13.464C4.68331 11.8029 5.549 10.2956 6.81544 9.16985C8.08188 8.04413 9.68027 7.36113 11.3691 7.22403C11.0154 6.60297 10.5273 6.06878 9.94069 5.66043C9.35406 5.25209 8.68364 4.97991 7.97838 4.86377C7.27313 4.74763 6.55083 4.79046 5.86424 4.98914C5.17765 5.18781 4.5441 5.53731 4.00983 6.01211C3.47557 6.48692 3.05409 7.07505 2.77617 7.73356C2.49824 8.39207 2.37089 9.10434 2.40341 9.81836C2.43592 10.5324 2.62749 11.2301 2.96412 11.8606C3.30075 12.4912 3.77394 13.0385 4.34915 13.4628M19.6455 13.4628C20.2208 13.0385 20.6939 12.4912 21.0306 11.8606C21.3672 11.2301 21.5588 10.5324 21.5913 9.81836C21.6238 9.10434 21.4965 8.39207 21.2185 7.73356C20.9406 7.07505 20.5191 6.48692 19.9849 6.01211C19.4506 5.53731 18.817 5.18781 18.1305 4.98914C17.4439 4.79046 16.7216 4.74763 16.0163 4.86377C15.3111 4.97991 14.6406 5.25209 14.054 5.66043C13.4674 6.06878 12.9793 6.60297 12.6255 7.22403C14.3143 7.36106 15.9125 8.04389 17.1789 9.16938C18.4454 10.2949 19.3112 11.8019 19.6455 13.4628ZM18.5967 15C18.5967 16.7505 17.9014 18.4292 16.6637 19.6669C15.4259 20.9047 13.7472 21.6 11.9967 21.6C10.2463 21.6 8.56758 20.9047 7.32984 19.6669C6.0921 18.4292 5.39675 16.7505 5.39675 15C5.39675 13.2496 6.0921 11.5709 7.32984 10.3331C8.56758 9.09538 10.2463 8.40003 11.9967 8.40003C13.7472 8.40003 15.4259 9.09538 16.6637 10.3331C17.9014 11.5709 18.5967 13.2496 18.5967 15ZM9.59675 12.6C9.59675 12.7592 9.65996 12.9118 9.77248 13.0243C9.88501 13.1368 10.0376 13.2 10.1967 13.2H12.8847C12.7623 13.3752 12.6327 13.572 12.5007 13.782C11.9211 14.7084 11.2671 15.9972 11.1015 17.3256C11.0898 17.4047 11.0939 17.4854 11.1137 17.5629C11.1336 17.6404 11.1687 17.7131 11.2171 17.7768C11.2654 17.8406 11.326 17.894 11.3953 17.9339C11.4646 17.9739 11.5412 17.9996 11.6206 18.0095C11.6999 18.0194 11.7805 18.0134 11.8575 17.9917C11.9345 17.97 12.0064 17.9332 12.0689 17.8833C12.1315 17.8335 12.1834 17.7716 12.2217 17.7014C12.26 17.6312 12.2839 17.554 12.2919 17.4744C12.4263 16.4028 12.9723 15.2916 13.5183 14.418C13.8248 13.9294 14.1628 13.4612 14.5299 13.0164L14.5443 12.9996L14.5491 12.9948C14.625 12.908 14.6742 12.8012 14.691 12.6871C14.7077 12.5731 14.6912 12.4566 14.6435 12.3516C14.5958 12.2467 14.5188 12.1577 14.4219 12.0954C14.3249 12.033 14.212 11.9999 14.0967 12H10.1967C10.0376 12 9.88501 12.0632 9.77248 12.1758C9.65996 12.2883 9.59675 12.4409 9.59675 12.6Z" fill="white" fill-opacity="0.7"/>
</g>
</svg>
