<svg width="15" height="19" viewBox="0 0 15 19" fill="none" xmlns="http://www.w3.org/2000/svg">
<path d="M12.5625 7.6665H12V5.4165C12 2.93475 9.98175 0.916504 7.5 0.916504C5.01825 0.916504 3 2.93475 3 5.4165V7.6665H2.4375C1.5075 7.6665 0.75 8.42325 0.75 9.354V17.229C0.75 18.1598 1.5075 18.9165 2.4375 18.9165H12.5625C13.4925 18.9165 14.25 18.1598 14.25 17.229V9.354C14.25 8.42325 13.4925 7.6665 12.5625 7.6665ZM4.5 5.4165C4.5 3.762 5.8455 2.4165 7.5 2.4165C9.1545 2.4165 10.5 3.762 10.5 5.4165V7.6665H4.5V5.4165ZM8.25 13.458V15.1665C8.25 15.5805 7.91475 15.9165 7.5 15.9165C7.08525 15.9165 6.75 15.5805 6.75 15.1665V13.458C6.30375 13.1978 6 12.7193 6 12.1665C6 11.3393 6.67275 10.6665 7.5 10.6665C8.32725 10.6665 9 11.3393 9 12.1665C9 12.7193 8.69625 13.1978 8.25 13.458Z" fill="#A3A3A3"/>
</svg>
