<svg width="18" height="18" viewBox="0 0 18 18" fill="none" xmlns="http://www.w3.org/2000/svg">
<path fill-rule="evenodd" clip-rule="evenodd" d="M9 0C4.02955 0 0 4.02955 0 9C0 13.9705 4.02955 18 9 18C13.9705 18 18 13.9705 18 9C18 4.02955 13.9705 0 9 0ZM8.09345 6.49227C8.28164 6.12164 8.42073 5.94573 8.53609 5.85409C8.62282 5.78536 8.74064 5.72727 9 5.72727C9.51136 5.72727 9.81818 6.11182 9.81818 6.52745C9.81818 6.75491 9.774 6.86782 9.65291 7.01182C9.48355 7.21309 9.17018 7.45773 8.55 7.86764L8.18182 8.10982V9.81818C8.18182 10.0352 8.26802 10.2433 8.42146 10.3967C8.5749 10.5502 8.783 10.6364 9 10.6364C9.217 10.6364 9.4251 10.5502 9.57854 10.3967C9.73198 10.2433 9.81818 10.0352 9.81818 9.81818V8.98609C10.2616 8.68009 10.6339 8.38718 10.9039 8.06645C11.2942 7.60336 11.4545 7.10918 11.4545 6.52745C11.4545 5.32473 10.5275 4.09091 9 4.09091C8.44036 4.09091 7.94536 4.23491 7.52073 4.57118C7.12473 4.88455 6.85473 5.31573 6.63382 5.75345C6.58248 5.84956 6.55086 5.95496 6.54081 6.06345C6.53077 6.17195 6.54249 6.28136 6.57529 6.38526C6.6081 6.48917 6.66133 6.58547 6.73186 6.66852C6.80239 6.75158 6.8888 6.81971 6.98601 6.86891C7.08323 6.91812 7.18929 6.94741 7.29798 6.95508C7.40667 6.96274 7.5158 6.94861 7.61895 6.91353C7.72211 6.87844 7.81722 6.82311 7.8987 6.75077C7.98019 6.67843 8.0464 6.59055 8.09345 6.49227ZM9.81818 12.6818C9.81818 12.4648 9.73198 12.2567 9.57854 12.1033C9.4251 11.9498 9.217 11.8636 9 11.8636C8.783 11.8636 8.5749 11.9498 8.42146 12.1033C8.26802 12.2567 8.18182 12.4648 8.18182 12.6818V13.0909C8.18182 13.3079 8.26802 13.516 8.42146 13.6695C8.5749 13.8229 8.783 13.9091 9 13.9091C9.217 13.9091 9.4251 13.8229 9.57854 13.6695C9.73198 13.516 9.81818 13.3079 9.81818 13.0909V12.6818Z" fill="#FFA602"/>
</svg>
