<svg width="20" height="20" viewBox="0 0 20 20" fill="none" xmlns="http://www.w3.org/2000/svg">
<path fill-rule="evenodd" clip-rule="evenodd" d="M10 4.16667C6.77834 4.16667 4.16667 6.77834 4.16667 10C4.16667 10.2477 4.18205 10.4913 4.21184 10.7302C4.26879 11.1869 3.94472 11.6033 3.48802 11.6603C3.03132 11.7172 2.61493 11.3931 2.55798 10.9364C2.51968 10.6293 2.5 10.3168 2.5 10C2.5 5.85786 5.85786 2.5 10 2.5C11.6145 2.5 13.11 3.01059 14.3335 3.87807V3.33333C14.3335 2.8731 14.7066 2.5 15.1668 2.5C15.6271 2.5 16.0002 2.8731 16.0002 3.33333V5.83327C16.0002 6.2935 15.6271 6.6666 15.1669 6.66661L12.6669 6.66667C12.2066 6.66668 11.8335 6.29359 11.8335 5.83335C11.8335 5.37312 12.2066 5.00001 12.6668 5L13.0066 4.99999C12.1285 4.4707 11.0999 4.16667 10 4.16667ZM16.5118 8.33975C16.9685 8.28274 17.385 8.60674 17.442 9.06343C17.4804 9.3707 17.5 9.68327 17.5 10C17.5 14.1422 14.1422 17.5 10 17.5C8.4583 17.5 7.02488 17.0343 5.83333 16.2369V16.6667C5.83333 17.1269 5.46024 17.5 5 17.5C4.53976 17.5 4.16667 17.1269 4.16667 16.6667V14.1667C4.16667 13.7064 4.53976 13.3333 5 13.3333H7.5C7.96024 13.3333 8.33333 13.7064 8.33333 14.1667C8.33333 14.6269 7.96024 15 7.5 15H6.99336C7.87151 15.5293 8.90004 15.8333 10 15.8333C13.2217 15.8333 15.8333 13.2217 15.8333 10C15.8333 9.75223 15.818 9.50863 15.7882 9.2699C15.7312 8.81321 16.0552 8.39677 16.5118 8.33975Z" fill="#2C2C2C"/>
</svg>
