<svg width="30" height="30" viewBox="0 0 30 30" fill="none" xmlns="http://www.w3.org/2000/svg">
<path d="M27.9599 22.355C27.179 21.5741 24.7172 19.7565 22.2731 18.3491C22.2466 18.3888 22.2202 18.4285 22.1937 18.4726C24.951 14.03 24.4084 8.11382 20.5481 4.25353C16.0481 -0.242061 8.75543 -0.242061 4.25543 4.25353C-0.244574 8.75794 -0.240162 16.0462 4.25543 20.5462C8.08043 24.3668 13.9172 24.9447 18.3466 22.2712C19.6216 24.4859 21.479 27.0845 22.3569 27.9624C23.901 29.5065 26.4157 29.5021 27.9598 27.958C29.504 26.4094 29.504 23.9035 27.9599 22.355ZM17.5128 17.5109C14.6893 20.33 10.1187 20.33 7.29518 17.5065C4.47606 14.6874 4.47165 10.1168 7.29518 7.29323C10.1143 4.47412 14.6893 4.47412 17.5084 7.29323C20.3319 10.1168 20.3319 14.6918 17.5128 17.5109Z" fill="#CF0808"/>
</svg>
