<svg width="50" height="50" viewBox="0 0 50 50" fill="none" xmlns="http://www.w3.org/2000/svg">
<circle cx="25" cy="25" r="25" fill="white"/>
<path d="M35.885 23.4501L15.0355 13.2795C14.8562 13.1921 14.6593 13.1466 14.4598 13.1466C13.7345 13.1466 13.1466 13.7345 13.1466 14.4598V14.4977C13.1466 14.6739 13.1682 14.8494 13.2109 15.0204L15.2109 23.0202C15.2655 23.2387 15.4503 23.4002 15.6741 23.4251L24.4646 24.4018C24.7695 24.4356 25.0001 24.6933 25.0001 25.0001C25.0001 25.3068 24.7695 25.5645 24.4646 25.5983L15.6741 26.5751C15.4503 26.5999 15.2655 26.7614 15.2109 26.9799L13.2109 34.9797C13.1682 35.1507 13.1466 35.3262 13.1466 35.5024V35.5404C13.1466 36.2656 13.7345 36.8535 14.4598 36.8535C14.6593 36.8535 14.8562 36.808 15.0355 36.7205L35.885 26.5501C36.4775 26.261 36.8535 25.6594 36.8535 25.0001C36.8535 24.3407 36.4775 23.7391 35.885 23.4501Z" fill="#CF0808"/>
</svg>
