<svg width="26" height="26" viewBox="0 0 26 26" fill="none" xmlns="http://www.w3.org/2000/svg">
<g clip-path="url(#clip0_5123_68172)">
<path d="M20.3889 16.7109C18.9288 16.7109 17.6421 17.4229 16.834 18.5056L9.84694 14.9592C9.96295 14.5672 10.0445 14.161 10.0445 13.7324C10.0445 13.1511 9.92423 12.5984 9.7165 12.09L17.0287 7.72832C17.8425 8.675 19.0386 9.28906 20.3889 9.28906C22.8335 9.28906 24.8222 7.31782 24.8222 4.89453C24.8222 2.47124 22.8335 0.5 20.3889 0.5C17.9442 0.5 15.9555 2.47124 15.9555 4.89453C15.9555 5.45298 16.0715 5.98272 16.264 6.47451L8.92999 10.849C8.11692 9.93047 6.93805 9.33789 5.61116 9.33789C3.16649 9.33789 1.17786 11.3091 1.17786 13.7324C1.17786 16.1557 3.16649 18.127 5.61116 18.127C7.09534 18.127 8.4037 17.3941 9.20879 16.281L16.1728 19.8159C16.0446 20.2263 15.9555 20.6538 15.9555 21.1055C15.9555 23.5288 17.9442 25.5 20.3889 25.5C22.8335 25.5 24.8222 23.5288 24.8222 21.1055C24.8222 18.6822 22.8335 16.7109 20.3889 16.7109Z" fill="white"/>
</g>
<defs>
<clipPath id="clip0_5123_68172">
<rect width="25.2206" height="25" fill="white" transform="translate(0.389709 0.5)"/>
</clipPath>
</defs>
</svg>
