<svg width="20" height="20" viewBox="0 0 20 20" fill="none" xmlns="http://www.w3.org/2000/svg">
<path fill-rule="evenodd" clip-rule="evenodd" d="M11.5026 4.44379C11.5026 2.90967 12.7519 1.66602 14.293 1.66602C15.8341 1.66602 17.0834 2.90967 17.0834 4.44379C17.0834 5.97791 15.8341 7.22157 14.293 7.22157C13.5148 7.22157 12.8116 6.90431 12.306 6.39391L8.44316 9.02393C8.47883 9.20143 8.49758 9.38476 8.49758 9.57201C8.49758 9.94285 8.42425 10.2973 8.29141 10.6213L12.527 13.4042C13.0077 13.0128 13.6228 12.7771 14.293 12.7771C15.8341 12.7771 17.0834 14.0208 17.0834 15.5549C17.0834 17.089 15.8341 18.3327 14.293 18.3327C12.7519 18.3327 11.5026 17.089 11.5026 15.5549C11.5026 15.1531 11.5886 14.7706 11.7432 14.4253L7.54181 11.6649C7.05171 12.0908 6.40975 12.3498 5.70715 12.3498C4.16606 12.3498 2.91675 11.1061 2.91675 9.57201C2.91675 8.03787 4.16606 6.79422 5.70715 6.79422C6.59333 6.79422 7.38219 7.20539 7.89296 7.84533L11.6367 5.29637C11.5496 5.02734 11.5026 4.74068 11.5026 4.44379Z" fill="#CF0808"/>
</svg>
