<svg width="24" height="24" viewBox="0 0 24 24" fill="none" xmlns="http://www.w3.org/2000/svg">
<g clip-path="url(#clip0_1249_17797)">
<path d="M12 1.872C14.7855 1.872 17.289 2.8335 18.975 4.563C20.3618 4.74513 21.6701 5.31146 22.752 6.198C20.8605 2.223 16.9425 0 12 0C7.12499 0 3.17999 2.22 1.26599 6.183C2.25784 5.37527 3.43979 4.83464 4.69949 4.6125C6.35399 2.808 8.96099 1.872 12 1.872Z" fill="white" fill-opacity="0.7"/>
<path d="M18 18C16.4396 17.9999 14.9406 17.3919 13.821 16.305L13.818 16.302C13.6888 16.2048 13.5501 16.1208 13.404 16.0515C12.9638 15.8492 12.4844 15.7462 12 15.75C11.379 15.75 10.9065 15.9045 10.5975 16.0515C10.4509 16.1208 10.3117 16.2047 10.182 16.302L10.179 16.305C9.47371 16.9897 8.61102 17.4906 7.66676 17.7637C6.7225 18.0369 5.72561 18.0738 4.76372 17.8713C3.80184 17.6689 2.90443 17.2332 2.15041 16.6026C1.39639 15.9719 0.808846 15.1657 0.439443 14.2548C0.0700409 13.3439 -0.0699062 12.3562 0.0319075 11.3785C0.133721 10.4009 0.474177 9.46317 1.02334 8.64791C1.5725 7.83266 2.31355 7.16482 3.18133 6.7031C4.0491 6.24139 5.01702 5.99994 5.99999 6H18C19.5913 6 21.1174 6.63214 22.2426 7.75736C23.3678 8.88258 24 10.4087 24 12C24 13.5913 23.3678 15.1174 22.2426 16.2426C21.1174 17.3679 19.5913 18 18 18Z" fill="white" fill-opacity="0.7"/>
</g>
<defs>
<clipPath id="clip0_1249_17797">
<rect width="24" height="24" fill="white"/>
</clipPath>
</defs>
</svg>
