<svg width="54" height="53" viewBox="0 0 54 53" fill="none" xmlns="http://www.w3.org/2000/svg">
<path d="M12.6192 10.0673L34.1465 4.1913L33.0064 1.88698C32.2606 0.389169 30.4414 -0.22936 28.9435 0.516513L9.67212 10.0673H12.6192Z" fill="white"/>
<path d="M40.829 4.36113C40.5622 4.36113 40.2954 4.39751 40.0285 4.47028L34.9712 5.85288L19.5261 10.0674H37.0572H44.6978L43.7518 6.59875C43.388 5.24648 42.1631 4.36113 40.829 4.36113Z" fill="white"/>
<path d="M47.8572 12.1897H47.1659H46.2259H45.286H38.1123H11.7521H8.29556H5.38484H4.84514H3.03807C2.07996 12.1897 1.22493 12.6324 0.667041 13.3297C0.412353 13.6511 0.218304 14.021 0.109152 14.4273C0.0424481 14.682 0 14.9488 0 15.2217V15.5855V19.042V49.0043C0 50.678 1.35834 52.0363 3.032 52.0363H47.8511C49.5248 52.0363 50.8831 50.678 50.8831 49.0043V40.545H32.8912C30.0472 40.545 27.7368 38.2346 27.7368 35.3906V32.6133V31.6733V30.7334V28.6474C27.7368 27.2527 28.2946 25.9854 29.1982 25.0576C29.9987 24.2328 31.072 23.6749 32.2727 23.5354C32.4728 23.5112 32.6789 23.4991 32.8851 23.4991H48.3605H49.3004H50.2403H50.8831V15.2217C50.8892 13.548 49.5308 12.1897 47.8572 12.1897Z" fill="white"/>
<path d="M53.0115 26.3977C52.7083 26.1187 52.3505 25.9065 51.9503 25.767C51.641 25.664 51.3136 25.6033 50.9679 25.6033H50.8891H50.8285H49.8886H46.4988H32.8911C31.2174 25.6033 29.8591 26.9616 29.8591 28.6353V30.1452V31.0851V32.0251V35.3845C29.8591 37.0582 31.2174 38.4165 32.8911 38.4165H50.8891H50.9679C51.3136 38.4165 51.6411 38.3559 51.9503 38.2528C52.3505 38.1194 52.7083 37.9011 53.0115 37.6221C53.6179 37.0703 54 36.2699 54 35.3846V28.6353C54 27.7499 53.6179 26.9494 53.0115 26.3977ZM39.222 32.6133C39.222 33.4501 38.5428 34.1293 37.706 34.1293H36.6993C35.8625 34.1293 35.1833 33.4501 35.1833 32.6133V31.6066C35.1833 31.1215 35.4077 30.6909 35.7655 30.418C36.0262 30.2179 36.3477 30.0906 36.6993 30.0906H36.954H37.706C38.5428 30.0906 39.222 30.7697 39.222 31.6066V32.6133Z" fill="white"/>
</svg>
