<svg width="20" height="20" viewBox="0 0 20 20" fill="none" xmlns="http://www.w3.org/2000/svg">
<path d="M5.20649 4.68913L12.3822 2.73046L12.0022 1.96235C11.7536 1.46308 11.1472 1.25691 10.6479 1.50553L4.22412 4.68913H5.20649Z" fill="#2C2C2C"/>
<path d="M14.6097 2.78711C14.5208 2.78711 14.4319 2.79924 14.3429 2.82349L12.6572 3.28436L7.50879 4.68919H13.3525H15.8994L15.584 3.53298C15.4627 3.08222 15.0544 2.78711 14.6097 2.78711Z" fill="#2C2C2C"/>
<path d="M16.9524 5.39661H16.722H16.4086H16.0953H13.7041H4.91735H3.76519H2.79495H2.61505H2.01269C1.69332 5.39661 1.40831 5.54416 1.22235 5.77662C1.13745 5.88375 1.07277 6.00705 1.03638 6.14248C1.01415 6.22738 1 6.31631 1 6.40727V6.52855V7.68072V17.6681C1 18.226 1.45278 18.6788 2.01067 18.6788H16.9504C17.5083 18.6788 17.961 18.226 17.961 17.6681V14.8484H11.9637C11.0157 14.8484 10.2456 14.0782 10.2456 13.1302V12.2045V11.8912V11.5779V10.8825C10.2456 10.4176 10.4315 9.99517 10.7327 9.6859C10.9996 9.41098 11.3573 9.22502 11.7576 9.17853C11.8243 9.17046 11.893 9.1664 11.9617 9.1664H17.1202H17.4335H17.7468H17.961V6.40727C17.9631 5.84939 17.5103 5.39661 16.9524 5.39661Z" fill="#2C2C2C"/>
<path d="M18.6706 10.1326C18.5695 10.0396 18.4503 9.96884 18.3169 9.92235C18.2137 9.88801 18.1046 9.8678 17.9894 9.8678H17.9631H17.9429H17.6296H16.4997H11.9638C11.4059 9.8678 10.9531 10.3206 10.9531 10.8785V11.3818V11.6951V12.0084V13.1282C10.9531 13.6861 11.4059 14.1389 11.9638 14.1389H17.9631H17.9894C18.1046 14.1389 18.2138 14.1186 18.3169 14.0843C18.4503 14.0398 18.5695 13.967 18.6706 13.8741C18.8727 13.6901 19.0001 13.4233 19.0001 13.1282V10.8785C19.0001 10.5833 18.8727 10.3165 18.6706 10.1326ZM14.0741 12.2044C14.0741 12.4834 13.8477 12.7098 13.5687 12.7098H13.2332C12.9542 12.7098 12.7279 12.4834 12.7279 12.2044V11.8689C12.7279 11.7072 12.8026 11.5637 12.9219 11.4727C13.0088 11.406 13.116 11.3636 13.2332 11.3636H13.3181H13.5687C13.8477 11.3636 14.0741 11.5899 14.0741 11.8689V12.2044Z" fill="#2C2C2C"/>
</svg>
