<svg width="61" height="60" viewBox="0 0 61 60" fill="none" xmlns="http://www.w3.org/2000/svg">
<path d="M14.05 6H46.45C52.39 6 57.25 10.86 57.25 16.8C57.25 21.39 54.55 25.17 50.5 26.79V16.8C50.5 15.72 49.96 14.64 49.42 13.83C48.88 13.02 47.53 12.75 46.45 12.75H14.05C12.97 12.75 11.89 13.29 11.08 13.83C10.27 14.37 10 15.72 10 16.8V26.79C5.95 25.17 3.25 21.39 3.25 16.8C3.25 10.86 8.11 6 14.05 6Z" fill="#2C2C2C"/>
<path fill-rule="evenodd" clip-rule="evenodd" d="M46.4496 16.7999V49.1999C46.4496 52.1699 44.0196 54.5999 41.0496 54.5999H19.4496C16.4796 54.5999 14.0496 52.1699 14.0496 49.1999V16.7999H46.4496ZM26.1996 37.0499L28.0896 38.9399V27.5999C28.0896 26.5199 28.8996 25.4399 30.2496 25.4399C31.5996 25.4399 32.4096 26.2499 32.4096 27.5999V38.9399L34.2996 37.0499C35.1096 36.2399 36.4596 36.2399 37.2696 37.0499C38.0796 37.8599 38.0796 39.2099 37.2696 40.0199L33.7596 43.5299C31.8696 45.4199 28.8996 45.4199 27.0096 43.5299L23.4996 40.0199C22.6896 39.2099 22.6896 37.8599 23.4996 37.0499C24.3096 36.2399 25.3896 36.2399 26.1996 37.0499Z" fill="#2C2C2C"/>
</svg>
