<svg width="24" height="24" viewBox="0 0 16 16" fill="rgb(109, 118, 147)" xmlns="http://www.w3.org/2000/svg">
<path fill-rule="evenodd" clip-rule="evenodd" d="M7.03266 14.352L7.19933 14.07C7.46599 13.6187 7.59933 13.3934 7.81266 13.2674C8.026 13.1414 8.30333 13.1327 8.858 13.1147C9.37866 13.098 9.72866 13.0527 10.028 12.9287C10.6576 12.6679 11.1578 12.1676 11.4187 11.538C11.6147 11.0654 11.6147 10.4667 11.6147 9.26938V8.75471C11.6147 7.07204 11.6147 6.23071 11.236 5.61271C11.0241 5.2668 10.7332 4.97599 10.3873 4.76404C9.76933 4.38538 8.92733 4.38538 7.24533 4.38538H5.70266C4.01999 4.38538 3.17866 4.38538 2.56066 4.76404C2.21468 4.97617 1.92386 5.26723 1.71199 5.61338C1.33333 6.23071 1.33333 7.07338 1.33333 8.75471V9.26871C1.33333 10.4667 1.33333 11.0654 1.52866 11.538C1.65789 11.8499 1.84728 12.1332 2.086 12.3718C2.32473 12.6104 2.60812 12.7996 2.92 12.9287C3.21933 13.0527 3.56866 13.098 4.08933 13.1154C4.64466 13.1327 4.92266 13.1414 5.13533 13.2674C5.348 13.3934 5.482 13.6187 5.74866 14.07L5.91533 14.352C5.97356 14.4481 6.05556 14.5275 6.15342 14.5826C6.25127 14.6377 6.36169 14.6666 6.474 14.6666C6.5863 14.6666 6.69672 14.6377 6.79457 14.5826C6.89243 14.5275 6.97443 14.4481 7.03266 14.352ZM8.72266 9.52604C8.89311 9.52604 9.05657 9.45833 9.1771 9.33781C9.29762 9.21729 9.36533 9.05382 9.36533 8.88338C9.36533 8.71293 9.29762 8.54947 9.1771 8.42894C9.05657 8.30842 8.89311 8.24071 8.72266 8.24071C8.55222 8.24071 8.38875 8.30842 8.26823 8.42894C8.1477 8.54947 8.08 8.71293 8.08 8.88338C8.08 9.05382 8.1477 9.21729 8.26823 9.33781C8.38875 9.45833 8.55222 9.52604 8.72266 9.52604ZM7.11599 8.88338C7.11877 8.96947 7.10421 9.05524 7.07318 9.1356C7.04214 9.21595 6.99528 9.28925 6.93536 9.35113C6.87543 9.41301 6.80369 9.46222 6.72437 9.49582C6.64506 9.52942 6.5598 9.54674 6.47366 9.54674C6.38752 9.54674 6.30226 9.52942 6.22295 9.49582C6.14364 9.46222 6.07189 9.41301 6.01197 9.35113C5.95205 9.28925 5.90518 9.21595 5.87415 9.1356C5.84312 9.05524 5.82855 8.96947 5.83133 8.88338C5.83133 8.71293 5.89904 8.54947 6.01956 8.42894C6.14008 8.30842 6.30355 8.24071 6.474 8.24071C6.64444 8.24071 6.80791 8.30842 6.92843 8.42894C7.04895 8.54947 7.11666 8.71293 7.11666 8.88338M4.22533 9.52604C4.39577 9.52604 4.55924 9.45833 4.67976 9.33781C4.80029 9.21729 4.868 9.05382 4.868 8.88338C4.868 8.71293 4.80029 8.54947 4.67976 8.42894C4.55924 8.30842 4.39577 8.24071 4.22533 8.24071C4.05488 8.24071 3.89142 8.30842 3.77089 8.42894C3.65037 8.54947 3.58266 8.71293 3.58266 8.88338C3.58266 9.05382 3.65037 9.21729 3.77089 9.33781C3.89142 9.45833 4.05488 9.52604 4.22533 9.52604Z" fill-opacity="0.7"/>
<path d="M10.1133 1.33337C10.8807 1.33337 11.4913 1.33337 11.9813 1.38004C12.4833 1.42737 12.908 1.52804 13.286 1.76004C13.6747 1.99817 14.0016 2.32484 14.24 2.71337C14.472 3.09137 14.572 3.51604 14.62 4.01804C14.6667 4.50871 14.6667 5.11871 14.6667 5.88671V6.41137C14.6667 6.95804 14.6667 7.39271 14.6427 7.74471C14.618 8.10537 14.5667 8.41537 14.4467 8.70471C14.2976 9.06457 14.0774 9.39061 13.7993 9.66327C13.5211 9.93592 13.1908 10.1496 12.828 10.2914C12.7544 10.3201 12.6801 10.3472 12.6053 10.3727C12.6147 10.06 12.6147 9.70404 12.6147 9.30271V8.70737C12.6147 7.90671 12.6147 7.23537 12.5627 6.69004C12.508 6.11871 12.39 5.58337 12.088 5.09004C11.7936 4.60965 11.3897 4.20575 10.9093 3.91137C10.4173 3.61004 9.88133 3.49137 9.30933 3.43737C8.76466 3.38537 8.09333 3.38537 7.292 3.38537H5.65533C5.11133 3.38537 4.62733 3.38537 4.202 3.40137C4.222 3.33271 4.24866 3.25471 4.28066 3.16137C4.33384 3.00514 4.40428 2.85533 4.49066 2.71471C4.72882 2.32544 5.05573 1.99807 5.44466 1.75937C5.82333 1.52804 6.248 1.42737 6.75 1.37937C7.23933 1.33337 7.85 1.33337 8.618 1.33337H10.1133Z" fill-opacity="0.7"/>
</svg>
