<svg width="20" height="20" viewBox="0 0 20 20" fill="none" xmlns="http://www.w3.org/2000/svg">
<path d="M0.298306 10.4987L5.28607 13.6161C5.53546 13.7408 5.90954 13.7408 6.15893 13.3667C6.15893 13.242 6.28362 13.1173 6.28362 12.9926V6.7579C6.28362 6.6332 6.03424 6.25912 5.66015 6.25912C5.53546 6.25912 5.41077 6.25912 5.28607 6.38381L0.298306 9.50117C0.0489181 9.62586 -0.075776 10.1246 0.0489181 10.374C0.173612 10.374 0.298306 10.4987 0.298306 10.4987ZM1.29586 2.5183H18.7531C19.5012 2.5183 20 2.01952 20 1.27136C20 0.523191 19.5012 0.0244141 18.7531 0.0244141H1.29586C0.547695 0.0244141 0.0489181 0.523191 0.0489181 1.27136C0.0489181 2.01952 0.672389 2.5183 1.29586 2.5183ZM10.0245 11.2469H18.7531C19.5012 11.2469 20 10.7481 20 9.99994C20 9.25178 19.5012 8.753 18.7531 8.753H10.0245C9.2763 8.753 8.77753 9.25178 8.77753 9.99994C8.77753 10.7481 9.401 11.2469 10.0245 11.2469ZM1.29586 19.9755H18.7531C19.5012 19.9755 20 19.4767 20 18.7285C20 17.9804 19.5012 17.4816 18.7531 17.4816H1.29586C0.547695 17.4816 0.0489181 17.9804 0.0489181 18.7285C0.0489181 19.4767 0.672389 19.9755 1.29586 19.9755Z" fill="white"/>
</svg>
