<svg width="34" height="35" viewBox="0 0 34 35" fill="none" xmlns="http://www.w3.org/2000/svg">
<g clip-path="url(#clip0_10695_4783)">
<path d="M27.7668 3.80664H6.23346C4.98162 3.80664 3.9668 4.82146 3.9668 6.07331V32.14C3.9668 33.3918 4.98162 34.4066 6.23346 34.4066H27.7668C29.0186 34.4066 30.0335 33.3918 30.0335 32.14V6.07331C30.0335 4.82146 29.0186 3.80664 27.7668 3.80664Z" fill="#895F3D"/>
<path d="M22.6667 32.1342C22.6254 32.139 22.5837 32.1408 22.5421 32.1399H6.80007C6.64978 32.1399 6.50564 32.0802 6.39937 31.9739C6.2931 31.8677 6.2334 31.7235 6.2334 31.5732V6.63991C6.2334 6.48962 6.2931 6.34549 6.39937 6.23922C6.50564 6.13294 6.64978 6.07324 6.80007 6.07324H27.2001C27.3504 6.07324 27.4945 6.13294 27.6008 6.23922C27.707 6.34549 27.7667 6.48962 27.7667 6.63991V27.0399L22.6667 32.1342Z" fill="#F0F2F5"/>
<path d="M21.517 5.13327C21.4607 5.40376 21.3114 5.64596 21.095 5.81773C20.8786 5.9895 20.6088 6.07996 20.3326 6.07337H14.0732C13.2232 6.07337 12.8033 5.85237 12.5999 5.46647C12.5094 5.294 12.4649 5.10113 12.4707 4.90646C12.4765 4.71179 12.5323 4.5219 12.6328 4.35509C12.7334 4.18828 12.8752 4.05019 13.0446 3.95413C13.214 3.85808 13.4053 3.8073 13.6001 3.80671H14.1667C14.317 3.80671 14.4612 3.747 14.5674 3.64073C14.6737 3.53446 14.7334 3.39033 14.7334 3.24004C14.7334 2.78917 14.9125 2.35677 15.2313 2.03796C15.5501 1.71915 15.9825 1.54004 16.4334 1.54004H17.5667C18.0176 1.54004 18.45 1.71915 18.7688 2.03796C19.0876 2.35677 19.2667 2.78917 19.2667 3.24004C19.2667 3.39033 19.3264 3.53446 19.4327 3.64073C19.539 3.747 19.6831 3.80671 19.8334 3.80671H20.4001C20.5653 3.80668 20.7285 3.84278 20.8783 3.91246C21.0281 3.98214 21.1608 4.08372 21.2672 4.2101C21.3736 4.33647 21.4511 4.48458 21.4942 4.64405C21.5374 4.80352 21.5451 4.97049 21.517 5.13327Z" fill="#FCC10A"/>
<path d="M27.7665 27.04V27.176C27.7659 27.667 27.6593 28.1521 27.4539 28.5981C27.2485 29.0441 26.9492 29.4404 26.5765 29.76L24.7575 31.324C24.1728 31.8238 23.4353 32.1096 22.6665 32.1344V28.74C22.6665 28.2892 22.8456 27.8568 23.1644 27.538C23.4832 27.2191 23.9156 27.04 24.3665 27.04H27.7665Z" fill="#CCD0DA"/>
<path d="M25.4999 14.007L20.3999 14.5736L20.9666 9.47363C22.1689 9.47363 23.322 9.95125 24.1721 10.8014C25.0223 11.6516 25.4999 12.8047 25.4999 14.007Z" fill="#44C3A1"/>
<path d="M25.4999 14.0068C25.5006 14.904 25.2352 15.7811 24.7371 16.5273C24.239 17.2734 23.5307 17.855 22.7019 18.1985C21.8731 18.5419 20.9611 18.6317 20.0812 18.4564C19.2014 18.2812 18.3933 17.8489 17.7593 17.2142L20.9666 14.0068H25.4999Z" fill="#FCC10A"/>
<path d="M20.9666 9.47363V14.007L17.7593 17.2143C17.1245 16.5803 16.6922 15.7722 16.517 14.8924C16.3418 14.0125 16.4316 13.1005 16.775 12.2717C17.1184 11.4429 17.7 10.7346 18.4461 10.2365C19.1923 9.73842 20.0695 9.47293 20.9666 9.47363Z" fill="#439AF6"/>
<path d="M11.8999 12.9301V9.5777C12.2302 9.69448 12.5164 9.91047 12.7193 10.1961C12.9221 10.4817 13.0318 10.8231 13.0332 11.1734C13.0332 11.3237 13.0929 11.4679 13.1992 11.5741C13.3055 11.6804 13.4496 11.7401 13.5999 11.7401C13.7502 11.7401 13.8943 11.6804 14.0006 11.5741C14.1069 11.4679 14.1666 11.3237 14.1666 11.1734C14.1658 10.5205 13.9399 9.88785 13.527 9.38206C13.1141 8.87627 12.5394 8.52829 11.8999 8.39677V8.3401C11.8999 8.18981 11.8402 8.04568 11.7339 7.93941C11.6277 7.83314 11.4835 7.77344 11.3332 7.77344C11.183 7.77344 11.0388 7.83314 10.9325 7.93941C10.8263 8.04568 10.7666 8.18981 10.7666 8.3401V8.39677C10.1261 8.52683 9.55024 8.87432 9.13663 9.38036C8.72302 9.8864 8.49707 10.5199 8.49707 11.1734C8.49707 11.827 8.72302 12.4605 9.13663 12.9665C9.55024 13.4726 10.1261 13.82 10.7666 13.9501V17.3031C10.4362 17.1863 10.1499 16.9702 9.94706 16.6844C9.74419 16.3987 9.63458 16.0572 9.63324 15.7068C9.63324 15.5565 9.57354 15.4123 9.46727 15.3061C9.361 15.1998 9.21687 15.1401 9.06658 15.1401C8.91629 15.1401 8.77215 15.1998 8.66588 15.3061C8.55961 15.4123 8.49991 15.5565 8.49991 15.7068C8.50073 16.3597 8.72663 16.9924 9.13952 17.4981C9.55241 18.0039 10.127 18.3519 10.7666 18.4834V18.5401C10.7666 18.6904 10.8263 18.8345 10.9325 18.9408C11.0388 19.0471 11.183 19.1068 11.3332 19.1068C11.4835 19.1068 11.6277 19.0471 11.7339 18.9408C11.8402 18.8345 11.8999 18.6904 11.8999 18.5401V18.4834C12.5404 18.3534 13.1162 18.0059 13.5299 17.4999C13.9435 16.9938 14.1694 16.3603 14.1694 15.7068C14.1694 15.0532 13.9435 14.4197 13.5299 13.9137C13.1162 13.4077 12.5404 13.0602 11.8999 12.9301ZM9.63324 11.1734C9.6347 10.8231 9.74436 10.4817 9.94723 10.1961C10.1501 9.91047 10.4363 9.69448 10.7666 9.5777V12.7692C10.4363 12.6524 10.1501 12.4364 9.94723 12.1508C9.74436 11.8651 9.6347 11.5238 9.63324 11.1734ZM11.8999 17.3025V14.111C12.2312 14.2264 12.5183 14.4421 12.7214 14.728C12.9246 15.0139 13.0338 15.356 13.0338 15.7068C13.0338 16.0575 12.9246 16.3996 12.7214 16.6855C12.5183 16.9715 12.2312 17.1871 11.8999 17.3025Z" fill="#3EA69B"/>
<path d="M10.2002 21.3736H9.63356C9.48327 21.3736 9.33914 21.3139 9.23287 21.2076C9.1266 21.1013 9.06689 20.9572 9.06689 20.8069C9.06689 20.6566 9.1266 20.5125 9.23287 20.4062C9.33914 20.2999 9.48327 20.2402 9.63356 20.2402H10.2002C10.3505 20.2402 10.4947 20.2999 10.6009 20.4062C10.7072 20.5125 10.7669 20.6566 10.7669 20.8069C10.7669 20.9572 10.7072 21.1013 10.6009 21.2076C10.4947 21.3139 10.3505 21.3736 10.2002 21.3736Z" fill="#B9BFCC"/>
<path d="M24.3671 21.3736H12.4671C12.3168 21.3736 12.1726 21.3139 12.0664 21.2076C11.9601 21.1013 11.9004 20.9572 11.9004 20.8069C11.9004 20.6566 11.9601 20.5125 12.0664 20.4062C12.1726 20.2999 12.3168 20.2402 12.4671 20.2402H24.3671C24.5173 20.2402 24.6615 20.2999 24.7678 20.4062C24.874 20.5125 24.9337 20.6566 24.9337 20.8069C24.9337 20.9572 24.874 21.1013 24.7678 21.2076C24.6615 21.3139 24.5173 21.3736 24.3671 21.3736Z" fill="#B9BFCC"/>
<path d="M10.2002 23.6402H9.63356C9.48327 23.6402 9.33914 23.5805 9.23287 23.4742C9.1266 23.3679 9.06689 23.2238 9.06689 23.0735C9.06689 22.9232 9.1266 22.7791 9.23287 22.6728C9.33914 22.5665 9.48327 22.5068 9.63356 22.5068H10.2002C10.3505 22.5068 10.4947 22.5665 10.6009 22.6728C10.7072 22.7791 10.7669 22.9232 10.7669 23.0735C10.7669 23.2238 10.7072 23.3679 10.6009 23.4742C10.4947 23.5805 10.3505 23.6402 10.2002 23.6402Z" fill="#B9BFCC"/>
<path d="M24.3671 23.6402H12.4671C12.3168 23.6402 12.1726 23.5805 12.0664 23.4742C11.9601 23.3679 11.9004 23.2238 11.9004 23.0735C11.9004 22.9232 11.9601 22.7791 12.0664 22.6728C12.1726 22.5665 12.3168 22.5068 12.4671 22.5068H24.3671C24.5173 22.5068 24.6615 22.5665 24.7678 22.6728C24.874 22.7791 24.9337 22.9232 24.9337 23.0735C24.9337 23.2238 24.874 23.3679 24.7678 23.4742C24.6615 23.5805 24.5173 23.6402 24.3671 23.6402Z" fill="#B9BFCC"/>
<path d="M10.2002 25.9068H9.63356C9.48327 25.9068 9.33914 25.8471 9.23287 25.7408C9.1266 25.6345 9.06689 25.4904 9.06689 25.3401C9.06689 25.1898 9.1266 25.0457 9.23287 24.9394C9.33914 24.8331 9.48327 24.7734 9.63356 24.7734H10.2002C10.3505 24.7734 10.4947 24.8331 10.6009 24.9394C10.7072 25.0457 10.7669 25.1898 10.7669 25.3401C10.7669 25.4904 10.7072 25.6345 10.6009 25.7408C10.4947 25.8471 10.3505 25.9068 10.2002 25.9068Z" fill="#B9BFCC"/>
<path d="M24.3671 25.9068H12.4671C12.3168 25.9068 12.1726 25.8471 12.0664 25.7408C11.9601 25.6345 11.9004 25.4904 11.9004 25.3401C11.9004 25.1898 11.9601 25.0457 12.0664 24.9394C12.1726 24.8331 12.3168 24.7734 12.4671 24.7734H24.3671C24.5173 24.7734 24.6615 24.8331 24.7678 24.9394C24.874 25.0457 24.9337 25.1898 24.9337 25.3401C24.9337 25.4904 24.874 25.6345 24.7678 25.7408C24.6615 25.8471 24.5173 25.9068 24.3671 25.9068Z" fill="#B9BFCC"/>
<path d="M10.2002 28.1734H9.63356C9.48327 28.1734 9.33914 28.1137 9.23287 28.0074C9.1266 27.9011 9.06689 27.757 9.06689 27.6067C9.06689 27.4564 9.1266 27.3123 9.23287 27.206C9.33914 27.0997 9.48327 27.04 9.63356 27.04H10.2002C10.3505 27.04 10.4947 27.0997 10.6009 27.206C10.7072 27.3123 10.7669 27.4564 10.7669 27.6067C10.7669 27.757 10.7072 27.9011 10.6009 28.0074C10.4947 28.1137 10.3505 28.1734 10.2002 28.1734Z" fill="#B9BFCC"/>
<path d="M20.4004 28.1734H12.4671C12.3168 28.1734 12.1726 28.1137 12.0664 28.0074C11.9601 27.9011 11.9004 27.757 11.9004 27.6067C11.9004 27.4564 11.9601 27.3123 12.0664 27.206C12.1726 27.0997 12.3168 27.04 12.4671 27.04H20.4004C20.5507 27.04 20.6948 27.0997 20.8011 27.206C20.9074 27.3123 20.9671 27.4564 20.9671 27.6067C20.9671 27.757 20.9074 27.9011 20.8011 28.0074C20.6948 28.1137 20.5507 28.1734 20.4004 28.1734Z" fill="#B9BFCC"/>
<path d="M16.9999 4.94023C17.4693 4.94023 17.8499 4.55968 17.8499 4.09023C17.8499 3.62079 17.4693 3.24023 16.9999 3.24023C16.5305 3.24023 16.1499 3.62079 16.1499 4.09023C16.1499 4.55968 16.5305 4.94023 16.9999 4.94023Z" fill="#F5AB01"/>
</g>
<defs>
<clipPath id="clip0_10695_4783">
<rect width="34" height="34" fill="white" transform="translate(0 0.973633)"/>
</clipPath>
</defs>
</svg>
