<svg width="16" height="16" viewBox="0 0 16 16" fill="none" xmlns="http://www.w3.org/2000/svg">
<g clip-path="url(#clip0_2106_10985)">
<path fill-rule="evenodd" clip-rule="evenodd" d="M2.25641 2.89746C1.65797 2.89746 1.08405 3.15592 0.660887 3.61597C0.237728 4.07602 0 4.69999 0 5.3506V13.379C0 14.0297 0.237728 14.6536 0.660887 15.1137C1.08405 15.5737 1.65797 15.8322 2.25641 15.8322H13.7436C14.342 15.8322 14.916 15.5737 15.3391 15.1137C15.7623 14.6536 16 14.0297 16 13.379V5.3506C16 4.69999 15.7623 4.07602 15.3391 3.61597C14.916 3.15592 14.342 2.89746 13.7436 2.89746H2.25641ZM11.6923 8.24976C11.4203 8.24976 11.1594 8.36724 10.9671 8.57635C10.7747 8.78547 10.6667 9.06909 10.6667 9.36482C10.6667 9.66055 10.7747 9.94418 10.9671 10.1533C11.1594 10.3624 11.4203 10.4799 11.6923 10.4799C11.9643 10.4799 12.2252 10.3624 12.4175 10.1533C12.6099 9.94418 12.7179 9.66055 12.7179 9.36482C12.7179 9.06909 12.6099 8.78547 12.4175 8.57635C12.2252 8.36724 11.9643 8.24976 11.6923 8.24976Z" fill="black" fill-opacity="0.8"/>
<path d="M11.6801 0.060163C11.9231 -0.0102211 12.1776 -0.0189772 12.4242 0.0345702C12.6707 0.0881177 12.9026 0.202537 13.1021 0.368997C13.3015 0.535457 13.463 0.749506 13.5743 0.994625C13.6855 1.23974 13.7435 1.50938 13.7437 1.78271H5.53857L11.6801 0.060163Z" fill="black" fill-opacity="0.8"/>
</g>
<defs>
<clipPath id="clip0_2106_10985">
<rect width="16" height="15.8317" fill="white"/>
</clipPath>
</defs>
</svg>
