<svg width="119" height="48" viewBox="0 0 119 48" fill="none" xmlns="http://www.w3.org/2000/svg">
<g clip-path="url(#clip0_828_120884)">
<path d="M14.6303 15.3925C20.638 15.3925 25.9424 19.5205 27.7041 25.5685C27.7482 25.7185 27.7912 25.8745 27.8293 26.0245C27.5957 26.6725 25.642 27.1765 23.2687 27.1765C21.0552 27.1765 18.776 26.1493 18.776 26.1469C18.7474 26.0629 18.7188 25.9789 18.6854 25.8937C17.1907 21.8545 13.3214 19.3585 9.22333 19.7893C5.1276 20.2201 1.80311 23.4733 1.09863 27.7441C2.06296 20.6569 7.82868 15.3925 14.6303 15.3925Z" fill="url(#paint0_linear_828_120884)"/>
<path d="M28.0425 33.1896L27.9984 33.3768C26.2784 40.3692 19.8451 44.9328 12.9863 44.0244C6.12875 43.116 0.987637 37.0224 0.991213 29.8044V29.5404C1.04247 34.08 4.12618 37.9632 8.38879 38.856C12.6514 39.7476 16.9307 37.404 18.6519 33.2376C18.7044 33.1152 18.7544 32.9964 18.795 32.8632C19.3326 32.3028 21.1599 31.884 23.3401 31.884C25.9363 31.884 28.0366 32.466 28.0425 33.1896Z" fill="url(#paint1_linear_828_120884)"/>
<path d="M14.6303 15.3925C7.82868 15.3925 2.06296 20.6569 1.09863 27.7441C1.20115 27.1321 1.35849 26.5309 1.57067 25.9501C3.19537 20.7853 7.9002 17.4013 13.0616 17.6869C18.2241 17.9725 22.5654 21.8581 23.6656 27.1741C25.8565 27.1225 27.6088 26.6389 27.8293 26.0269C27.7908 25.874 27.7491 25.7219 27.7041 25.5709C25.9436 19.5229 20.6391 15.3925 14.6303 15.3925Z" fill="url(#paint2_linear_828_120884)"/>
<path d="M23.8586 31.8924C22.818 37.9524 17.5636 42.2124 11.6847 41.7612C5.80691 41.3112 1.20339 36.2952 1.0222 30.1428C1.00671 29.9424 0.991212 29.742 0.991212 29.5404V29.8044C0.988828 37.0236 6.12994 43.1172 12.9875 44.0244C19.8451 44.9292 26.2784 40.3656 27.9972 33.3732C27.9972 33.3732 28.0294 33.2472 28.0413 33.186C28.0378 32.5152 26.208 31.9632 23.8586 31.8924Z" fill="url(#paint3_linear_828_120884)"/>
<path d="M9.61203 21.5676C6.22436 21.57 3.23362 23.8968 2.23949 27.3036C2.21446 27.3876 2.18942 27.4752 2.16797 27.5592C2.30028 27.9276 3.40288 28.212 4.7415 28.212C5.61167 28.1772 6.46991 27.9804 7.2757 27.6312C7.2912 27.5832 7.3055 27.5352 7.32577 27.4884C8.16851 25.212 10.3499 23.8044 12.6612 24.048C14.9713 24.2916 16.8451 26.124 17.2432 28.53C16.6985 24.5376 13.4479 21.5712 9.61203 21.5676Z" fill="url(#paint4_linear_828_120884)"/>
<path d="M2.06055 31.4892C2.06055 31.5192 2.08439 31.5888 2.08439 31.5912C3.07375 35.5176 6.67122 38.07 10.4999 37.5612C14.3298 37.0524 17.2109 33.6408 17.2431 29.5776V29.4288C17.2133 31.9968 15.4813 34.1928 13.0902 34.6968C10.6978 35.2008 8.2983 33.8748 7.33159 31.5156C7.3021 31.4474 7.27507 31.3782 7.25053 31.308C6.95491 30.9888 5.92502 30.7524 4.69964 30.7524C3.2454 30.75 2.06531 31.0884 2.06055 31.4892Z" fill="url(#paint5_linear_828_120884)"/>
<path d="M9.61322 21.5676C13.4479 21.5712 16.6997 24.5376 17.2432 28.53C17.1867 28.185 17.0973 27.8462 16.9762 27.5184C16.0679 24.5988 13.4121 22.6836 10.4953 22.8456C7.57847 23.0076 5.12771 25.206 4.51741 28.2096C3.28011 28.1736 2.29313 27.9072 2.16797 27.5616C2.18942 27.4776 2.21446 27.39 2.23949 27.3048C3.23243 23.8968 6.22316 21.5712 9.61322 21.5676Z" fill="url(#paint6_linear_828_120884)"/>
<path d="M4.40879 30.7573C4.45171 31.0045 4.50654 31.2493 4.57448 31.4905C5.45537 34.7161 8.44253 36.7801 11.6037 36.3505C14.7649 35.9197 17.1549 33.1225 17.2264 29.7697C17.2359 29.6581 17.2419 29.5417 17.2431 29.4301V29.5789C17.2121 33.6409 14.331 37.0525 10.5011 37.5625C6.67241 38.0713 3.07494 35.5213 2.08558 31.5949L2.06055 31.4929C2.06412 31.1089 3.09163 30.7969 4.40879 30.7573Z" fill="url(#paint7_linear_828_120884)"/>
<path d="M49.6103 30.876C48.7533 30.0377 47.607 29.5662 46.4121 29.5608C47.5299 29.5549 48.6168 29.1905 49.5149 28.5204C50.0091 28.0814 50.4029 27.5397 50.6692 26.9327C50.9355 26.3257 51.0679 25.6679 51.0573 25.0044C51.0482 26.3541 51.5264 27.6612 52.4031 28.6824C53.2299 29.4531 54.3184 29.8761 55.4451 29.8644C54.346 29.897 53.2816 30.2598 52.3888 30.906C51.8813 31.3365 51.4754 31.8755 51.2005 32.4836C50.9257 33.0918 50.7888 33.7539 50.7999 34.422C50.8433 33.7812 50.7606 33.1381 50.5564 32.5295C50.3523 31.921 50.0307 31.3591 49.6103 30.876Z" fill="#FABE00"/>
<path d="M63.1009 46.3476C48.8636 43.1856 39.8747 36.5784 40.9177 32.0052C42.4614 25.1808 68.757 3.0984 42.8166 0C42.8166 0 51.2047 12.6876 37.7196 26.4036L41.1215 10.2036L29.7165 15.468L32.3174 15.5256L26.498 48L34.2818 42.786C34.786 39.5604 35.1639 37.4808 35.4214 36.5472C41.1764 44.3892 50.4025 47.6556 63.1009 46.3476Z" fill="url(#paint8_linear_828_120884)"/>
<path d="M42.9297 0C42.9297 0 51.375 12.7512 37.6908 26.4924L37.5752 26.6124C41.4945 25.5996 45.6391 23.1864 49.2235 19.5396C54.982 11.1816 59.0611 1.9236 42.9297 0Z" fill="url(#paint9_linear_828_120884)"/>
<path d="M102.65 17.454H85.2136L80.6982 43.6356H98.7857L98.2374 37.3836H87.954L88.6549 33.3192H96.2277L98.7309 27.1032H89.7408L90.2986 23.7072H105.068L101.602 43.6368H107.773L111.284 23.7072H114.984C115.869 23.6976 116.47 23.2236 116.803 22.4676L119 17.4552L102.65 17.454Z" fill="url(#paint10_linear_828_120884)"/>
<path d="M68.0832 28.7052L67.7256 30.8196C67.8517 30.116 67.9709 29.4112 68.0832 28.7052Z" fill="url(#paint11_linear_828_120884)"/>
<path d="M77.9557 30.9527C77.157 30.2879 76.2607 29.8931 75.3094 29.6627C75.2451 29.6471 75.1855 29.6015 75.1235 29.5691C75.1771 29.5391 75.2248 29.4971 75.2832 29.4803C75.7874 29.3423 76.3012 29.2355 76.7935 29.0675C77.9783 28.6655 78.9772 27.9923 79.6638 26.9039C80.4303 25.6871 80.7533 24.2843 80.6913 22.7555C80.6067 20.6399 79.5077 18.9911 77.6446 18.0947C76.5956 17.5895 75.5228 17.4227 74.4333 17.4587L72.6572 17.4827C72.6155 17.4755 72.5702 17.4827 72.5261 17.4827L67.4517 17.4971C65.8068 17.5019 64.8413 17.5079 63.1987 17.5079C61.7683 17.5079 61.5656 17.6831 61.2807 18.7919L56.9144 43.2107C56.8382 43.5275 56.9574 43.6163 57.0992 43.6319C57.1528 43.6391 57.2065 43.6343 57.2601 43.6331C60.2354 43.6259 60.8337 43.6355 63.809 43.6355C65.7972 43.6355 65.74 42.2759 65.8509 41.5595L68.0835 28.7051C68.1193 28.4759 68.1646 28.2479 68.1848 28.0139C68.2266 27.5363 67.8141 27.8579 67.6747 27.9971C66.5041 29.1731 66.0023 29.8571 65.0046 31.0259C64.5218 31.5911 63.772 32.4911 63.2237 33.1523C63.033 33.3803 62.6694 33.1943 62.7231 32.8931L63.8257 26.6603C63.9091 26.1959 64.1237 25.7711 64.4455 25.4423C64.5957 25.2863 64.7423 25.1399 64.995 24.8843C69.4114 20.5103 73.2127 18.0659 74.1389 17.5235C74.1269 17.5553 74.1181 17.5883 74.1127 17.6219L70.6106 37.7627L69.8656 42.5315C69.7797 43.0835 70.2065 43.5887 70.7441 43.5683H70.756C72.1661 43.5131 74.009 43.3259 75.3178 42.8723C77.4634 42.1259 78.9689 40.6919 79.6471 38.3807C80.0405 37.0415 80.2264 35.6579 79.9058 34.1831C79.6446 32.9127 78.955 31.7718 77.9557 30.9527Z" fill="url(#paint12_linear_828_120884)"/>
</g>
<defs>
<linearGradient id="paint0_linear_828_120884" x1="1.09943" y1="21.571" x2="27.832" y2="21.571" gradientUnits="userSpaceOnUse">
<stop stop-color="#036EB8"/>
<stop offset="0.07" stop-color="#0569B4"/>
<stop offset="0.69" stop-color="#123B94"/>
<stop offset="1" stop-color="#172A88"/>
</linearGradient>
<linearGradient id="paint1_linear_828_120884" x1="0.988776" y1="36.835" x2="28.0382" y2="36.835" gradientUnits="userSpaceOnUse">
<stop stop-color="#036EB8"/>
<stop offset="0.07" stop-color="#0569B4"/>
<stop offset="0.69" stop-color="#123B94"/>
<stop offset="1" stop-color="#172A88"/>
</linearGradient>
<linearGradient id="paint2_linear_828_120884" x1="1.09943" y1="21.571" x2="27.832" y2="21.571" gradientUnits="userSpaceOnUse">
<stop stop-color="#2EA7E0"/>
<stop offset="0.14" stop-color="#2C9EDA"/>
<stop offset="0.37" stop-color="#2887C9"/>
<stop offset="0.66" stop-color="#2160AE"/>
<stop offset="0.99" stop-color="#172C89"/>
<stop offset="1" stop-color="#172A88"/>
</linearGradient>
<linearGradient id="paint3_linear_828_120884" x1="0.991752" y1="36.8352" x2="28.0411" y2="36.8352" gradientUnits="userSpaceOnUse">
<stop stop-color="#2EA7E0"/>
<stop offset="0.14" stop-color="#2C9EDA"/>
<stop offset="0.37" stop-color="#2887C9"/>
<stop offset="0.66" stop-color="#2160AE"/>
<stop offset="0.99" stop-color="#172C89"/>
<stop offset="1" stop-color="#172A88"/>
</linearGradient>
<linearGradient id="paint4_linear_828_120884" x1="17.2361" y1="25.0516" x2="2.15968" y2="25.0516" gradientUnits="userSpaceOnUse">
<stop stop-color="#036EB8"/>
<stop offset="0.07" stop-color="#0569B4"/>
<stop offset="0.69" stop-color="#123B94"/>
<stop offset="1" stop-color="#172A88"/>
</linearGradient>
<linearGradient id="paint5_linear_828_120884" x1="17.2414" y1="33.537" x2="2.06009" y2="33.537" gradientUnits="userSpaceOnUse">
<stop stop-color="#036EB8"/>
<stop offset="0.07" stop-color="#0569B4"/>
<stop offset="0.69" stop-color="#123B94"/>
<stop offset="1" stop-color="#172A88"/>
</linearGradient>
<linearGradient id="paint6_linear_828_120884" x1="17.2361" y1="25.0521" x2="2.15968" y2="25.0521" gradientUnits="userSpaceOnUse">
<stop stop-color="#2EA7E0"/>
<stop offset="0.15" stop-color="#298CCD"/>
<stop offset="0.41" stop-color="#2162AF"/>
<stop offset="0.65" stop-color="#1C439A"/>
<stop offset="0.86" stop-color="#18318D"/>
<stop offset="1" stop-color="#172A88"/>
</linearGradient>
<linearGradient id="paint7_linear_828_120884" x1="-28.9925" y1="33.5371" x2="-13.8081" y2="33.5371" gradientUnits="userSpaceOnUse">
<stop stop-color="#2EA7E0"/>
<stop offset="0.15" stop-color="#298CCD"/>
<stop offset="0.41" stop-color="#2162AF"/>
<stop offset="0.65" stop-color="#1C439A"/>
<stop offset="0.86" stop-color="#18318D"/>
<stop offset="1" stop-color="#172A88"/>
</linearGradient>
<linearGradient id="paint8_linear_828_120884" x1="44.1717" y1="43.7851" x2="53.791" y2="-1.91912" gradientUnits="userSpaceOnUse">
<stop stop-color="#E60012"/>
<stop offset="0.8" stop-color="#F6AD64"/>
</linearGradient>
<linearGradient id="paint9_linear_828_120884" x1="43.3542" y1="24.5145" x2="51.2121" y2="8.09226" gradientUnits="userSpaceOnUse">
<stop stop-color="#F6AD64"/>
<stop offset="0.8" stop-color="#E60012"/>
</linearGradient>
<linearGradient id="paint10_linear_828_120884" x1="99.849" y1="27.9266" x2="99.849" y2="43.6355" gradientUnits="userSpaceOnUse">
<stop stop-color="#0064C6"/>
<stop offset="1" stop-color="#00289E"/>
</linearGradient>
<linearGradient id="paint11_linear_828_120884" x1="67.9048" y1="28.3374" x2="67.9048" y2="30.9229" gradientUnits="userSpaceOnUse">
<stop offset="0.4" stop-color="#0064C6"/>
<stop offset="1" stop-color="#00289E"/>
</linearGradient>
<linearGradient id="paint12_linear_828_120884" x1="68.7945" y1="12.9002" x2="68.7945" y2="44.9092" gradientUnits="userSpaceOnUse">
<stop offset="0.4" stop-color="#0064C6"/>
<stop offset="1" stop-color="#00289E"/>
</linearGradient>
<clipPath id="clip0_828_120884">
<rect width="119" height="48" fill="white"/>
</clipPath>
</defs>
</svg>
