<svg width="16" height="14" viewBox="0 0 16 14" fill="none" xmlns="http://www.w3.org/2000/svg">
<path d="M15.5 6.99991C15.5 6.66839 15.3683 6.35044 15.1339 6.11602C14.8995 5.8816 14.5816 5.74991 14.25 5.74991L4.35004 5.74991L7.63337 2.46657C7.85417 2.22961 7.97438 1.91621 7.96866 1.59237C7.96295 1.26854 7.83176 0.959559 7.60274 0.730538C7.37372 0.501516 7.06474 0.370329 6.74091 0.364614C6.41707 0.358901 6.10366 0.479108 5.8667 0.699907L0.450039 6.11657C0.215955 6.35095 0.0844723 6.66866 0.0844724 6.99991C0.0844724 7.33116 0.215955 7.64887 0.450039 7.88324L5.86671 13.2999C5.98114 13.4227 6.11914 13.5212 6.27248 13.5895C6.42581 13.6579 6.59133 13.6946 6.75917 13.6976C6.92701 13.7005 7.09372 13.6696 7.24937 13.6068C7.40502 13.5439 7.54641 13.4503 7.6651 13.3316C7.7838 13.2129 7.87738 13.0715 7.94024 12.9159C8.00311 12.7603 8.03399 12.5935 8.03102 12.4257C8.02806 12.2579 7.99133 12.0923 7.92301 11.939C7.85469 11.7857 7.75618 11.6477 7.63337 11.5332L4.35004 8.24991L14.25 8.24991C14.94 8.24991 15.5 7.68991 15.5 6.99991Z" fill="white" fill-opacity="0.65"/>
</svg>
