<svg width="20" height="20" viewBox="0 0 20 20" fill="none" xmlns="http://www.w3.org/2000/svg">
<g clip-path="url(#clip0_12201_9299)">
<path d="M10 0C15.5228 5.15422e-07 20 4.47715 20 10C20 15.5228 15.5228 20 10 20C4.47715 20 5.15406e-07 15.5228 0 10C0 4.47715 4.47715 0 10 0ZM16.5654 5.9873C16.0648 5.4514 15.2166 5.42312 14.6807 5.92383L12.5811 7.88574C12.5377 7.9174 12.4952 7.9517 12.4551 7.98926L7.98926 12.1611L5.16895 9.1416C4.66825 8.60587 3.82006 8.5775 3.28418 9.07812C2.7483 9.57881 2.71909 10.427 3.21973 10.9629L6.87793 14.877L7.8623 15.9307L10.0801 13.8574L10.0869 13.8643L16.501 7.87207C17.0368 7.37136 17.0661 6.52313 16.5654 5.9873Z" fill="#FFF"/>
</g>
<defs>
<clipPath id="clip0_12201_9299">
<rect width="20" height="20" fill="white"/>
</clipPath>
</defs>
</svg>
