<svg width="22" height="22" viewBox="0 0 22 22" fill="none" xmlns="http://www.w3.org/2000/svg">
<rect width="22" height="22" rx="11" fill="#FF0000"/>
<path d="M12.9096 6.11654C13.3047 5.72167 13.8404 5.4999 14.3989 5.5C14.9574 5.5001 15.493 5.72208 15.8879 6.11709C16.2828 6.5121 16.5045 7.0478 16.5044 7.60633C16.5043 8.16486 16.2824 8.70047 15.8873 9.09534L15.6299 9.35274L12.6522 6.37504L12.9096 6.11654ZM11.8745 7.15274L6.21505 12.8111C6.13866 12.8879 6.08662 12.9855 6.06545 13.0916L5.51105 15.8416C5.49296 15.9305 5.49713 16.0225 5.5232 16.1094C5.54926 16.1962 5.59641 16.2753 5.66043 16.3396C5.72446 16.4038 5.80338 16.4512 5.89016 16.4776C5.97695 16.5039 6.06891 16.5084 6.15785 16.4906L8.91225 15.9406C9.01856 15.9192 9.11615 15.8667 9.19275 15.7899L14.8522 10.1304L11.8745 7.15274Z" fill="white"/>
</svg>
