<svg width="24" height="24" viewBox="0 0 24 24" fill="none" xmlns="http://www.w3.org/2000/svg">
<path fill-rule="evenodd" clip-rule="evenodd" d="M16.0841 6.2656C17.5251 7.09806 18.6774 8.35102 19.3865 9.85663C20.0956 11.3622 20.3276 13.0486 20.0516 14.6898C19.7755 16.3309 19.0045 17.8485 17.8418 19.0393C16.6792 20.2301 15.1804 21.0371 13.5463 21.3522C11.9122 21.6674 10.2208 21.4757 8.69866 20.8028C7.17655 20.1298 5.89644 19.0078 5.02981 17.587C4.16318 16.1662 3.75142 14.5146 3.8497 12.8532C3.94798 11.1919 4.55161 9.60028 5.57971 8.29159C5.81531 7.99184 6.26787 8.03732 6.50464 8.33708C6.82967 8.7492 7.1963 9.12011 7.60453 9.4498C7.99176 9.76356 8.5213 9.39265 8.50613 8.89461L8.50264 8.67066C8.50264 7.59877 8.74291 6.58402 9.1733 5.67658C9.79609 4.36618 10.8089 3.28045 12.0729 2.5682C12.361 2.40491 12.7144 2.54954 12.8625 2.8458C13.5764 4.27795 14.6971 5.46757 16.0841 6.2656ZM16.6672 14.5025C16.6672 15.7399 16.1757 16.9266 15.3008 17.8015C14.4258 18.6765 13.2391 19.168 12.0018 19.168C9.77048 19.168 7.89612 17.5374 7.44124 15.4566C7.33276 14.9562 7.95444 14.7066 8.39066 14.9749C8.95889 15.3253 9.59568 15.5496 10.258 15.6327C10.6114 15.6771 10.8774 15.3528 10.8529 14.9982C10.7252 13.2329 11.2735 11.485 12.3867 10.1088C12.4459 10.0354 12.5239 9.97929 12.6124 9.94645C12.7008 9.91361 12.7965 9.90522 12.8894 9.92218C13.9529 10.1283 14.9116 10.6981 15.6009 11.5338C16.2903 12.3696 16.6673 13.4192 16.6672 14.5025Z" fill="#FF3C00"/>
</svg>
