<svg width="24" height="24" viewBox="0 0 24 24" fill="currentColor" xmlns="http://www.w3.org/2000/svg">
<g id="jam:write-f">
<path id="Vector" d="M21.7913 1.47999L22.3813 2.06999C23.1943 2.88399 23.0713 4.32699 22.1042 5.29299L9.93725 17.46L5.99525 18.902C5.50025 19.084 5.01825 18.848 4.92025 18.377C4.88713 18.2061 4.90272 18.0294 4.96525 17.867L6.43525 13.891L18.5683 1.75699C19.5353 0.790995 20.9783 0.665995 21.7913 1.47999ZM9.40625 2.68999C9.53757 2.68999 9.66761 2.71586 9.78893 2.76612C9.91026 2.81637 10.0205 2.89003 10.1134 2.98289C10.2062 3.07575 10.2799 3.18599 10.3301 3.30731C10.3804 3.42864 10.4062 3.55867 10.4062 3.68999C10.4062 3.82132 10.3804 3.95135 10.3301 4.07268C10.2799 4.194 10.2062 4.30424 10.1134 4.3971C10.0205 4.48996 9.91026 4.56362 9.78893 4.61387C9.66761 4.66413 9.53757 4.68999 9.40625 4.68999H5.40625C4.87582 4.68999 4.36711 4.90071 3.99204 5.27578C3.61696 5.65085 3.40625 6.15956 3.40625 6.68999V18.69C3.40625 19.2204 3.61696 19.7291 3.99204 20.1042C4.36711 20.4793 4.87582 20.69 5.40625 20.69H17.4062C17.9367 20.69 18.4454 20.4793 18.8205 20.1042C19.1955 19.7291 19.4062 19.2204 19.4062 18.69V14.69C19.4062 14.4248 19.5116 14.1704 19.6991 13.9829C19.8867 13.7954 20.141 13.69 20.4062 13.69C20.6715 13.69 20.9258 13.7954 21.1134 13.9829C21.3009 14.1704 21.4062 14.4248 21.4062 14.69V18.69C21.4062 19.7509 20.9848 20.7683 20.2347 21.5184C19.4845 22.2686 18.4671 22.69 17.4062 22.69H5.40625C4.34538 22.69 3.32797 22.2686 2.57782 21.5184C1.82768 20.7683 1.40625 19.7509 1.40625 18.69V6.68999C1.40625 5.62913 1.82768 4.61171 2.57782 3.86157C3.32797 3.11142 4.34538 2.68999 5.40625 2.68999H9.40625Z" fill-opacity="0.7"/>
</g>
</svg>
