<svg width="110" height="110" viewBox="0 0 110 110" fill="none" xmlns="http://www.w3.org/2000/svg">
<path d="M55 0.833008C25.1 0.833008 0.833344 25.0997 0.833344 54.9997C0.833344 84.8997 25.1 109.166 55 109.166C84.9 109.166 109.167 84.8997 109.167 54.9997C109.167 25.0997 84.9 0.833008 55 0.833008ZM55 22.4997C65.4542 22.4997 73.9584 31.0038 73.9584 41.458C73.9584 51.9122 65.4542 60.4163 55 60.4163C44.5458 60.4163 36.0417 51.9122 36.0417 41.458C36.0417 31.0038 44.5458 22.4997 55 22.4997ZM55 98.333C44.0042 98.333 31.0042 93.8913 21.7417 82.733C31.2307 75.2917 42.9412 71.2476 55 71.2476C67.0588 71.2476 78.7693 75.2917 88.2583 82.733C78.9958 93.8913 65.9958 98.333 55 98.333Z" fill="white" fill-opacity="0.65"/>
</svg>
