<svg width="22" height="22" viewBox="0 0 22 22" fill="none" xmlns="http://www.w3.org/2000/svg">
<path d="M19.6376 8.58156C20.4301 9.03489 21.0726 9.7075 21.4869 10.5174C21.9012 11.3272 22.0693 12.2394 21.9707 13.1425C21.8721 14.0457 21.5111 14.9008 20.9318 15.6036C20.3524 16.3065 19.5797 16.8266 18.7078 17.1007C18.3997 18.4899 17.6233 19.7328 16.5071 20.6238C15.3909 21.5147 14.0018 22.0003 12.57 22H10.2141C10.0058 22 9.80607 21.9178 9.6588 21.7715C9.51153 21.6252 9.42879 21.4268 9.42879 21.2199C9.42879 21.013 9.51153 20.8145 9.6588 20.6682C9.80607 20.5219 10.0058 20.4397 10.2141 20.4397H12.57C13.5447 20.44 14.4956 20.1401 15.2916 19.5812C16.0876 19.0223 16.6896 18.232 17.0147 17.3191H16.4965C16.2882 17.3191 16.0884 17.237 15.9412 17.0907C15.7939 16.9443 15.7112 16.7459 15.7112 16.539V8.73759C15.7112 8.53068 15.7939 8.33225 15.9412 8.18594C16.0884 8.03964 16.2882 7.95745 16.4965 7.95745H17.2817C17.5362 7.95745 17.7859 7.97773 18.0309 8.01674C17.8541 6.28622 17.037 4.68249 15.7379 3.51629C14.4389 2.35009 12.7503 1.70444 10.9994 1.70444C9.24848 1.70444 7.5599 2.35009 6.26082 3.51629C4.96174 4.68249 4.14465 6.28622 3.96785 8.01674C4.2156 7.97729 4.46611 7.95747 4.71702 7.95745H5.50232C5.71059 7.95745 5.91033 8.03964 6.0576 8.18594C6.20487 8.33225 6.28761 8.53068 6.28761 8.73759V16.539C6.28761 16.7459 6.20487 16.9443 6.0576 17.0907C5.91033 17.237 5.71059 17.3191 5.50232 17.3191H4.71702C3.67883 17.3203 2.66933 16.9808 1.84535 16.3533C1.02137 15.7259 0.429064 14.8457 0.160447 13.8494C-0.10817 12.8531 -0.0380543 11.7966 0.359901 10.8441C0.757857 9.89146 1.46137 9.0961 2.36113 8.58156C2.36113 6.30559 3.27123 4.12284 4.89122 2.51348C6.5112 0.904126 8.70838 0 10.9994 0C13.2904 0 15.4876 0.904126 17.1075 2.51348C18.7275 4.12284 19.6376 6.30559 19.6376 8.58156ZM4.71702 9.51773C3.88393 9.51773 3.08495 9.8465 2.49587 10.4317C1.90678 11.0169 1.57584 11.8107 1.57584 12.6383C1.57584 13.4659 1.90678 14.2597 2.49587 14.8449C3.08495 15.4301 3.88393 15.7589 4.71702 15.7589V9.51773ZM20.4229 12.6383C20.4229 11.8107 20.092 11.0169 19.5029 10.4317C18.9138 9.8465 18.1148 9.51773 17.2817 9.51773V15.7589C18.1148 15.7589 18.9138 15.4301 19.5029 14.8449C20.092 14.2597 20.4229 13.4659 20.4229 12.6383Z" fill="#FFF4F4"/>
</svg>
