<svg width="14" height="15" viewBox="0 0 14 15" fill="none" xmlns="http://www.w3.org/2000/svg">
<path d="M7.00293 0.420898C8.34985 0.420898 9.64221 0.955839 10.5947 1.9082C11.5472 2.86071 12.082 4.15299 12.082 5.5V5.74316L12.293 5.86523C12.7267 6.115 13.0789 6.48545 13.3057 6.93164C13.5324 7.37776 13.6243 7.88043 13.5703 8.37793C13.5164 8.87527 13.3189 9.34631 13.002 9.7334C12.6849 10.1206 12.2613 10.4076 11.7842 10.5586L11.5527 10.6318L11.5 10.8691C11.3244 11.6657 10.882 12.3787 10.2461 12.8896C9.61017 13.4005 8.81859 13.6789 8.00293 13.6787H6.50293C6.48206 13.6786 6.46188 13.6709 6.44727 13.6562V13.6553C6.43276 13.6406 6.4248 13.6204 6.4248 13.5996C6.42492 13.5789 6.43253 13.5587 6.44727 13.5439C6.46205 13.5292 6.48224 13.5216 6.50293 13.5215H8.00293C8.71061 13.5217 9.40149 13.3021 9.97949 12.8936C10.5573 12.4852 10.9945 11.9073 11.2305 11.2402L11.4287 10.6787H10.5029C10.4821 10.6786 10.462 10.6709 10.4473 10.6562C10.4325 10.6415 10.4248 10.6205 10.4248 10.5996V5.59961C10.4249 5.57892 10.4325 5.55873 10.4473 5.54395C10.462 5.5292 10.4822 5.5216 10.5029 5.52148H11.0029C11.1423 5.52148 11.2798 5.53219 11.4141 5.55371L11.9541 5.64062L11.8994 5.0957C11.7764 3.88284 11.2072 2.75876 10.3027 1.94141C9.39815 1.12405 8.22202 0.670898 7.00293 0.670898C5.78396 0.671 4.60852 1.12413 3.7041 1.94141C2.79959 2.75877 2.23053 3.88283 2.10742 5.0957L2.05176 5.64062L2.59277 5.55371C2.72834 5.53198 2.86563 5.52151 3.00293 5.52148H3.50293C3.52386 5.52148 3.54476 5.52914 3.55957 5.54395C3.57423 5.55866 3.58193 5.57887 3.58203 5.59961V10.5996C3.58203 10.6205 3.57429 10.6415 3.55957 10.6562C3.54486 10.671 3.52396 10.6787 3.50293 10.6787H3.00293C2.4347 10.6794 1.88165 10.4922 1.43066 10.1465C0.979951 9.80089 0.655802 9.31618 0.508789 8.76758C0.361762 8.21861 0.400354 7.63611 0.618164 7.11133C0.835994 6.58655 1.22143 6.1487 1.71387 5.86523L1.9248 5.74316V5.5C1.9248 4.15298 2.45962 2.86069 3.41211 1.9082C4.36448 0.955987 5.65619 0.421007 7.00293 0.420898ZM3.00293 5.67871C2.36098 5.67882 1.74496 5.93376 1.29102 6.3877C0.837077 6.84164 0.582132 7.45764 0.582031 8.09961C0.582031 8.74153 0.83723 9.35752 1.29102 9.81152C1.74496 10.2655 2.36098 10.5214 3.00293 10.5215H3.4248V5.67871H3.00293ZM10.582 10.5215H11.0029C11.645 10.5215 12.2608 10.2656 12.7148 9.81152C13.1689 9.35748 13.4248 8.74171 13.4248 8.09961C13.4247 7.45764 13.1688 6.84165 12.7148 6.3877C12.2608 5.93391 11.6448 5.67871 11.0029 5.67871H10.582V10.5215Z" fill="#FFFB00" stroke="#FFFB00" stroke-width="0.842105"/>
<path d="M5.73975 10.0474C6.20759 10.524 7.36781 11.1912 8.26606 10.0474" stroke="#FFFB00" stroke-width="0.631579" stroke-linecap="round"/>
</svg>
