<svg width="30" height="30" viewBox="0 0 30 30" fill="none" xmlns="http://www.w3.org/2000/svg">
<g id="material-symbols:sound-detection-loud-sound-rounded">
<path id="Vector" d="M15.0625 22.0313L11.5313 25.5625C11.0521 26.0417 10.4638 26.2813 9.76625 26.2813C9.06875 26.2813 8.48 26.0417 8 25.5625L4.46875 22.0313C3.98958 21.5521 3.75 20.9583 3.75 20.25C3.75 19.5417 3.98958 18.9479 4.46875 18.4688L7.96875 14.9688V10.875C7.96875 10.3125 8.22417 9.92709 8.735 9.71875C9.24583 9.51042 9.69875 9.60417 10.0938 10L20.0312 19.9063C20.4271 20.3021 20.5158 20.7554 20.2975 21.2663C20.0792 21.7771 19.6883 22.0321 19.125 22.0313H15.0625ZM21.1875 8.78125C19.9583 7.55209 18.5158 6.76042 16.86 6.40625C15.2042 6.05209 13.5842 6.16667 12 6.75C11.6875 6.85417 11.37 6.84917 11.0475 6.735C10.725 6.62084 10.5112 6.40709 10.4062 6.09375C10.2812 5.73959 10.2917 5.40125 10.4375 5.07875C10.5833 4.75625 10.8333 4.53209 11.1875 4.40625C13.2083 3.65625 15.2812 3.505 17.4062 3.9525C19.5312 4.4 21.3854 5.41584 22.9688 7C24.5521 8.58334 25.5679 10.4533 26.0163 12.61C26.4646 14.7667 26.3029 16.8654 25.5312 18.9063C25.4062 19.2396 25.1771 19.4742 24.8438 19.61C24.5104 19.7458 24.1771 19.7404 23.8438 19.5938C23.5312 19.4688 23.3175 19.25 23.2025 18.9375C23.0875 18.625 23.0929 18.3021 23.2188 17.9688C23.8021 16.3854 23.9167 14.7658 23.5625 13.11C23.2083 11.4542 22.4167 10.0113 21.1875 8.78125ZM19.4375 10.5625C19.8958 11.0208 20.255 11.5367 20.515 12.11C20.775 12.6833 20.9575 13.2925 21.0625 13.9375C21.1042 14.2708 21.0104 14.5521 20.7812 14.7813C20.5521 15.0104 20.2604 15.125 19.9062 15.125C19.5729 15.125 19.2867 15.0104 19.0475 14.7813C18.8083 14.5521 18.6467 14.2708 18.5625 13.9375C18.4792 13.6458 18.37 13.3646 18.235 13.0938C18.1 12.8229 17.9175 12.5729 17.6875 12.3438C17.4583 12.1146 17.1979 11.9221 16.9062 11.7663C16.6146 11.6104 16.3125 11.4904 16 11.4063C15.6667 11.3229 15.3804 11.1667 15.1412 10.9375C14.9021 10.7083 14.7612 10.4167 14.7188 10.0625C14.6771 9.72917 14.7658 9.4375 14.985 9.1875C15.2042 8.9375 15.4696 8.83334 15.7812 8.875C16.4688 8.95834 17.1304 9.14084 17.7663 9.4225C18.4021 9.70417 18.9592 10.0842 19.4375 10.5625Z" fill="#FFC002"/>
</g>
</svg>
