<svg width="44" height="44" viewBox="0 0 44 44" fill="none" xmlns="http://www.w3.org/2000/svg">
<path d="M8.2149 10.0449H5.79834V14.6873H8.2149V10.0449Z" fill="black"/>
<path d="M8.2149 10.0449H5.79834V14.6873H8.2149V10.0449Z" fill="url(#paint0_linear_2107_11142)"/>
<path d="M27.6592 39.7527H33.2078V34.2041C30.4033 34.7317 28.1868 36.9482 27.6592 39.7527Z" fill="black"/>
<path d="M27.6592 39.7527H33.2078V34.2041C30.4033 34.7317 28.1868 36.9482 27.6592 39.7527Z" fill="url(#paint1_linear_2107_11142)"/>
<path d="M10.7925 34.2041V39.7527H16.341C15.8134 36.9483 13.597 34.7318 10.7925 34.2041Z" fill="black"/>
<path d="M10.7925 34.2041V39.7527H16.341C15.8134 36.9483 13.597 34.7318 10.7925 34.2041Z" fill="url(#paint2_linear_2107_11142)"/>
<path d="M21.9998 10.2412C19.5848 10.2412 17.5444 13.3408 17.5444 17.0096C17.5444 20.6785 19.5848 23.7781 21.9998 23.7781C24.4149 23.7781 26.4551 20.6785 26.4551 17.0096C26.4551 13.3408 24.4149 10.2412 21.9998 10.2412Z" fill="black"/>
<path d="M21.9998 10.2412C19.5848 10.2412 17.5444 13.3408 17.5444 17.0096C17.5444 20.6785 19.5848 23.7781 21.9998 23.7781C24.4149 23.7781 26.4551 20.6785 26.4551 17.0096C26.4551 13.3408 24.4149 10.2412 21.9998 10.2412Z" fill="url(#paint3_linear_2107_11142)"/>
<path d="M26.7109 10.0449C26.8488 10.2101 26.9825 10.383 27.1115 10.5641C28.3509 12.3025 29.0334 14.5917 29.0334 17.0099C29.0334 19.4282 28.3509 21.7173 27.1115 23.4557C25.7779 25.3263 23.9626 26.3565 22 26.3565C20.0375 26.3565 18.222 25.3263 16.8885 23.4557C15.6492 21.7173 14.9666 19.4281 14.9666 17.0099C14.9666 14.5917 15.6492 12.3025 16.8885 10.5641C17.0176 10.383 17.1513 10.2101 17.2891 10.0449H10.7925V31.5939C15.0211 32.168 18.3774 35.5243 18.9514 39.7529H25.0487C25.6227 35.5243 28.979 32.168 33.2076 31.5939V10.0449H26.7109Z" fill="black"/>
<path d="M26.7109 10.0449C26.8488 10.2101 26.9825 10.383 27.1115 10.5641C28.3509 12.3025 29.0334 14.5917 29.0334 17.0099C29.0334 19.4282 28.3509 21.7173 27.1115 23.4557C25.7779 25.3263 23.9626 26.3565 22 26.3565C20.0375 26.3565 18.222 25.3263 16.8885 23.4557C15.6492 21.7173 14.9666 19.4281 14.9666 17.0099C14.9666 14.5917 15.6492 12.3025 16.8885 10.5641C17.0176 10.383 17.1513 10.2101 17.2891 10.0449H10.7925V31.5939C15.0211 32.168 18.3774 35.5243 18.9514 39.7529H25.0487C25.6227 35.5243 28.979 32.168 33.2076 31.5939V10.0449H26.7109Z" fill="url(#paint4_linear_2107_11142)"/>
<path d="M38.2018 10.0449H35.7861V14.6873H38.2018V10.0449Z" fill="black"/>
<path d="M38.2018 10.0449H35.7861V14.6873H38.2018V10.0449Z" fill="url(#paint5_linear_2107_11142)"/>
<path d="M0 4.24707V20.4859H8.21425V17.2659H3.21999V7.46706H40.78V17.2659H35.7857V20.4859H44V4.24707H0Z" fill="black"/>
<path d="M0 4.24707V20.4859H8.21425V17.2659H3.21999V7.46706H40.78V17.2659H35.7857V20.4859H44V4.24707H0Z" fill="url(#paint6_linear_2107_11142)"/>
<defs>
<linearGradient id="paint0_linear_2107_11142" x1="7.00662" y1="14.6873" x2="7.00662" y2="10.0449" gradientUnits="userSpaceOnUse">
<stop stop-color="#BC9578"/>
<stop offset="1" stop-color="#FFE7C2"/>
</linearGradient>
<linearGradient id="paint1_linear_2107_11142" x1="30.4335" y1="39.7527" x2="30.4335" y2="34.2041" gradientUnits="userSpaceOnUse">
<stop stop-color="#BC9578"/>
<stop offset="1" stop-color="#FFE7C2"/>
</linearGradient>
<linearGradient id="paint2_linear_2107_11142" x1="13.5668" y1="39.7527" x2="13.5668" y2="34.2041" gradientUnits="userSpaceOnUse">
<stop stop-color="#BC9578"/>
<stop offset="1" stop-color="#FFE7C2"/>
</linearGradient>
<linearGradient id="paint3_linear_2107_11142" x1="21.9998" y1="23.7781" x2="21.9998" y2="10.2412" gradientUnits="userSpaceOnUse">
<stop stop-color="#BC9578"/>
<stop offset="1" stop-color="#FFE7C2"/>
</linearGradient>
<linearGradient id="paint4_linear_2107_11142" x1="22.0001" y1="39.7529" x2="22.0001" y2="10.0449" gradientUnits="userSpaceOnUse">
<stop stop-color="#BC9578"/>
<stop offset="1" stop-color="#FFE7C2"/>
</linearGradient>
<linearGradient id="paint5_linear_2107_11142" x1="36.994" y1="14.6873" x2="36.994" y2="10.0449" gradientUnits="userSpaceOnUse">
<stop stop-color="#BC9578"/>
<stop offset="1" stop-color="#FFE7C2"/>
</linearGradient>
<linearGradient id="paint6_linear_2107_11142" x1="22" y1="20.4859" x2="22" y2="4.24707" gradientUnits="userSpaceOnUse">
<stop stop-color="#BC9578"/>
<stop offset="1" stop-color="#FFE7C2"/>
</linearGradient>
</defs>
</svg>
