<svg width="599" height="69" viewBox="0 0 599 69" fill="none" xmlns="http://www.w3.org/2000/svg">
<g filter="url(#filter0_d_2_172)">
<path d="M43.8908 9.30762L44.6311 8.29817C48.2651 9.50951 51.1589 10.9228 53.0432 12.6725C54.5911 14.0857 55.1967 15.2971 55.1294 16.5757C55.1294 17.8543 54.2546 18.7292 52.9086 18.7292C51.8319 18.6619 51.0243 17.4506 49.8803 15.8354C48.6016 14.0857 46.8519 11.7303 43.8908 9.30762ZM30.566 29.0929L30.1623 27.8816C33.5271 25.93 38.5744 24.3149 43.6217 24.3149C48.0633 24.3149 51.0243 25.257 52.5049 26.0646C54.3219 27.1413 55.1967 28.4873 55.1967 29.7659C55.1967 31.3137 53.9854 32.054 51.5627 32.1886C50.3514 32.1886 49.14 32.3905 47.3903 32.9289C44.833 33.4672 41.8046 34.6786 39.4492 35.6207L38.709 34.6113C40.8625 33.2654 44.3619 30.7081 45.1022 29.9005C45.5733 29.4967 45.3714 29.1602 44.833 28.9583C43.2852 28.42 40.9298 28.1508 38.9782 28.1508C36.4882 28.1508 33.5944 28.5546 30.566 29.0929ZM24.6439 14.5568L23.9036 17.1814C27.1339 16.1046 29.5566 14.9606 31.5082 13.9511C32.7195 13.2108 33.5944 12.6725 34.2001 12.6725C35.6806 12.6725 38.3052 13.48 38.3052 15.4989C38.3052 17.1141 37.1611 18.0562 33.2579 19.4695C31.5082 20.2097 26.7974 21.7576 22.2885 22.8343C21.4136 25.8627 20.4042 29.2275 19.3274 32.3232C16.5683 40.5334 12.3286 52.1085 9.56937 56.8866C8.49262 58.8382 7.61776 59.9823 5.59885 59.9823C3.91643 59.9823 2.70508 58.0979 2.70508 55.9444C2.70508 53.7236 3.91643 52.8488 5.39696 50.2915C8.29073 45.7826 11.7902 39.3894 14.8858 30.5062C15.5588 28.5546 16.2991 26.2665 16.9047 23.9784C14.7512 24.3149 12.3958 24.584 10.5115 24.584C5.86804 24.584 2.70508 23.2381 0.551577 16.7776L1.49374 16.1046C4.72399 18.5946 6.6756 19.5368 9.70397 19.6041C12.665 19.6714 15.6934 19.2003 18.1834 18.7292C18.991 15.3644 19.5293 12.336 19.6639 10.4517C19.7312 8.83654 19.462 8.29817 18.318 7.5579C17.1739 6.88493 15.7607 6.41385 14.2802 5.94277L14.3475 4.73143C15.9626 4.12575 17.5104 3.78927 19.3274 3.85657C22.6923 3.92386 26.9993 5.80818 26.9993 7.5579C26.9993 9.03844 25.8552 10.519 24.6439 14.5568ZM25.7879 42.2159L27.1339 42.0813C27.4031 43.8983 27.9415 46.321 29.2874 48.2726C31.7774 52.0412 35.7479 53.3872 41.3336 53.3872C47.6595 53.3872 50.0149 52.1085 51.63 52.1085C53.7835 52.1085 56.3408 53.118 56.3408 55.4061C56.3408 57.0212 54.6584 58.0306 52.2357 58.569C50.1495 59.0401 47.1884 59.4439 42.8814 59.4439C33.6617 59.4439 27.605 56.079 26.3263 49.2147C25.5861 46.8593 25.6534 44.3021 25.7879 42.2159ZM49.8803 5.06791L50.5532 4.05846C54.2546 5.06791 57.0811 6.27926 58.8981 7.6252C60.5805 8.97114 61.2535 10.3171 61.2535 11.7976C61.2535 13.1436 60.5132 13.8838 59.3019 13.8838C58.0905 13.8838 57.3502 12.6052 56.0043 10.9228C54.6584 9.30762 53.1778 7.5579 49.8803 5.06791ZM86.0188 30.3043L87.4993 30.91C86.0188 35.3516 84.1344 41.4083 83.4615 44.1002C83.0577 45.5807 82.7885 46.9266 82.7885 48.6091C82.7885 50.8972 83.9325 52.5123 83.9325 54.935C83.9325 56.6847 82.8558 57.6942 81.0388 57.6942C79.3564 57.6942 77.9431 56.4155 76.7991 54.3966C74.982 51.3682 72.8958 46.2537 72.8958 38.178C72.8958 29.1602 77.0683 19.8733 77.0683 13.7492C77.0683 10.8555 75.3858 8.36547 73.2996 6.07737L74.1072 5.20251C76.0588 5.80818 77.2701 6.41385 78.6834 7.28871C80.5004 8.50006 83.9998 12.0668 83.9998 15.4989C83.9998 17.2487 82.9904 18.9984 81.779 21.2865C79.4909 25.7954 77.1356 31.6502 77.1356 37.1686C77.1356 39.9951 77.6066 42.1486 78.2796 43.4945C78.818 44.5039 79.4236 44.5039 79.962 43.5618C81.4426 41.2737 84.269 34.6113 86.0188 30.3043ZM102.843 7.96168L102.708 6.75034C104.525 5.74088 106.948 4.86602 108.496 4.86602C111.457 4.86602 116.168 6.95223 116.168 9.10573C116.168 10.1825 115.226 11.3265 115.158 13.6819C115.091 15.0952 115.091 17.1141 115.158 19.2676C116.302 18.8638 117.379 18.5273 118.254 18.1235C120.677 17.1141 121.35 16.5084 121.821 16.5084C123.907 16.5084 126.262 17.6525 126.262 19.4695C126.262 20.7481 125.657 21.623 123.84 22.4305C122.023 23.2381 118.994 24.2476 115.428 25.1224C115.831 32.2559 116.437 42.2831 113.947 48.2053C110.851 55.8771 104.324 59.242 95.9787 61.6647L95.373 60.4533C101.901 56.8866 106.275 52.9161 108.496 45.3788C110.313 40.0623 110.111 32.4578 109.842 26.1992C107.486 26.5357 105.131 26.7375 102.843 26.7375C98.7379 26.7375 94.2963 25.4589 90.9987 19.0657L91.8063 18.1908C95.5076 20.5462 98.536 21.6903 102.103 21.6903C104.324 21.6903 106.948 21.2865 109.573 20.7481C109.371 17.2487 109.169 13.5473 108.967 11.5957C108.765 10.1152 108.361 9.57681 107.486 9.24033C106.208 8.56735 104.525 8.29817 102.843 7.96168ZM162.872 18.5273C162.872 16.2392 161.997 14.2876 160.92 12.5379C156.411 13.6146 151.97 16.0373 148.672 19.4695C144.634 23.7092 142.279 28.6892 142.279 34.3421C142.279 40.1969 144.836 45.1096 147.596 45.1096C151.701 45.1096 157.757 35.2843 160.113 29.9005C161.728 26.2665 162.872 21.8249 162.872 18.5273ZM162.064 57.6942L161.795 56.2809C178.552 52.7815 185.618 43.7637 185.618 31.8521C185.618 19.6714 177.273 11.8649 166.237 11.8649C165.429 11.8649 164.554 11.9322 163.679 11.9995C165.564 14.153 167.515 17.0468 167.515 20.0078C167.515 23.3054 166.775 27.4778 165.295 31.4483C162.401 39.7932 154.729 52.3777 147.124 52.3777C142.077 52.3777 137.232 44.6385 137.232 36.0245C137.232 29.564 140.327 21.9595 146.721 16.5084C152.172 11.7303 159.036 9.37492 166.842 9.37492C181.58 9.37492 192.483 19.4022 192.483 33.3999C192.483 45.4461 184.34 56.5501 162.064 57.6942ZM233.736 28.4873L233.332 27.2759C236.697 25.3243 241.744 23.7092 246.791 23.7092C251.233 23.7092 254.194 24.6513 255.674 25.4589C257.491 26.5357 258.366 27.8816 258.366 29.1602C258.366 30.7081 257.155 31.4483 254.732 31.5829C253.521 31.5829 252.31 31.7848 250.56 32.3232C248.003 32.8616 244.974 34.0729 242.619 35.0151L241.879 34.0056C244.032 32.6597 247.532 30.1024 248.272 29.2948C248.743 28.891 248.541 28.5546 248.003 28.3527C246.455 27.8143 244.099 27.5451 242.148 27.5451C239.658 27.5451 236.764 27.9489 233.736 28.4873ZM227.814 13.9511L227.073 16.5757C230.303 15.4989 232.726 14.3549 234.678 13.3454C235.889 12.6052 236.764 12.0668 237.37 12.0668C238.85 12.0668 241.475 12.8744 241.475 14.8933C241.475 16.5084 240.331 17.4506 236.428 18.8638C234.678 19.6041 229.967 21.1519 225.458 22.2286C224.583 25.257 223.574 28.6219 222.497 31.7175C219.738 39.9278 215.498 51.5028 212.739 56.2809C211.662 58.2325 210.787 59.3766 208.768 59.3766C207.086 59.3766 205.875 57.4923 205.875 55.3388C205.875 53.118 207.086 52.2431 208.567 49.6858C211.46 45.1769 214.96 38.7837 218.055 29.9005C218.728 27.9489 219.469 25.6608 220.074 23.3727C217.921 23.7092 215.565 23.9784 213.681 23.9784C209.038 23.9784 205.875 22.6324 203.721 16.1719L204.663 15.4989C207.894 17.9889 209.845 18.9311 212.874 18.9984C215.835 19.0657 218.863 18.5946 221.353 18.1235C222.161 14.7587 222.699 11.7303 222.834 9.846C222.901 8.23087 222.632 7.6925 221.488 6.95223C220.344 6.27926 218.93 5.80818 217.45 5.3371L217.517 4.12575C219.132 3.52008 220.68 3.1836 222.497 3.25089C225.862 3.31819 230.169 5.20251 230.169 6.95223C230.169 8.43276 229.025 9.9133 227.814 13.9511ZM228.958 41.6102L230.303 41.4756C230.573 43.2926 231.111 45.7153 232.457 47.6669C234.947 51.4355 238.918 52.7815 244.503 52.7815C250.829 52.7815 253.184 51.5028 254.8 51.5028C256.953 51.5028 259.51 52.5123 259.51 54.8004C259.51 56.4155 257.828 57.425 255.405 57.9633C253.319 58.4344 250.358 58.8382 246.051 58.8382C236.831 58.8382 230.775 55.4734 229.496 48.6091C228.756 46.2537 228.823 43.6964 228.958 41.6102ZM296.524 31.5156C298.61 27.5451 300.225 23.3054 301.302 19.5368C296.389 19.806 291.948 21.0846 287.641 24.1803C288.246 26.5357 289.054 29.0929 290.265 31.381C291.342 33.2654 292.553 34.8132 293.765 36.0245C294.774 34.6113 295.716 33.0635 296.524 31.5156ZM286.362 44.4367C287.573 43.4272 288.919 42.1486 290.265 40.668C288.246 38.5145 286.833 36.0918 285.824 33.871C285.016 32.054 284.276 29.9678 283.603 27.8816C279.363 32.5251 277.344 38.178 277.344 41.8794C277.344 45.4461 278.69 47.0612 280.44 47.0612C282.661 47.0612 284.41 45.9845 286.362 44.4367ZM308.839 13.7492L307.964 16.7103C319.741 18.1908 326.942 26.4684 326.942 36.7648C326.942 48.5418 319.203 58.0979 294.976 59.1074L294.707 57.6942C314.829 53.9255 320.347 44.7731 320.347 35.6207C320.347 28.4873 315.703 21.2865 306.955 19.806C305.609 23.6419 303.926 27.747 301.167 33.3326C300.158 35.4189 299.081 37.3032 297.937 39.0529C299.687 39.9278 301.302 41.2737 301.302 43.4272C301.302 44.9077 300.225 45.648 298.61 45.648C297.197 45.648 295.649 44.8404 294.37 44.0329C292.621 46.1864 290.871 47.8688 289.121 49.1474C286.429 51.2336 283.401 53.3872 279.161 53.3872C274.72 53.3872 272.701 48.8783 272.701 44.4367C272.701 34.7459 278.825 27.8816 282.593 24.584C282.055 22.9016 281.584 21.3538 281.113 20.0751C280.103 17.2487 277.882 14.7587 274.989 12.0668L275.662 11.2592C278.152 11.7976 280.574 12.6052 282.122 13.7492C283.805 14.9606 285.756 16.3065 286.496 19.2003C286.631 19.806 286.833 20.5462 286.968 21.2865C290.871 18.7965 295.783 16.8449 302.109 16.5084C302.715 13.8838 303.119 11.663 303.253 9.98059C303.321 8.43276 302.648 8.02898 301.504 7.6925C300.36 7.35601 299.014 7.15412 297.533 7.08682L297.399 5.94277C299.014 5.00062 300.763 4.39494 302.311 4.39494C305.138 4.39494 310.522 7.08682 310.522 9.37492C310.522 10.7882 309.445 11.663 308.839 13.7492ZM364.763 18.5273C364.763 16.2392 363.888 14.2876 362.811 12.5379C358.302 13.6146 353.861 16.0373 350.563 19.4695C346.525 23.7092 344.17 28.6892 344.17 34.3421C344.17 40.1969 346.727 45.1096 349.486 45.1096C353.592 45.1096 359.648 35.2843 362.004 29.9005C363.619 26.2665 364.763 21.8249 364.763 18.5273ZM363.955 57.6942L363.686 56.2809C380.443 52.7815 387.509 43.7637 387.509 31.8521C387.509 19.6714 379.164 11.8649 368.128 11.8649C367.32 11.8649 366.445 11.9322 365.57 11.9995C367.455 14.153 369.406 17.0468 369.406 20.0078C369.406 23.3054 368.666 27.4778 367.186 31.4483C364.292 39.7932 356.62 52.3777 349.015 52.3777C343.968 52.3777 339.123 44.6385 339.123 36.0245C339.123 29.564 342.218 21.9595 348.612 16.5084C354.063 11.7303 360.927 9.37492 368.733 9.37492C383.471 9.37492 394.374 19.4022 394.374 33.3999C394.374 45.4461 386.231 56.5501 363.955 57.6942ZM422.504 26.1319L421.965 24.1803H445.587C447.202 20.0751 448.75 14.4222 449.557 10.3171L458.171 12.6725C457.969 13.48 457.162 14.0184 455.681 14.0184C453.729 16.9795 450.634 21.0173 447.404 24.1803H455.345L459.113 19.6041C459.113 19.6041 463.286 22.8343 465.843 25.0551C465.708 25.7954 464.968 26.1319 464.026 26.1319H422.504ZM430.781 10.9228L431.589 10.5863C445.452 16.643 438.924 27.074 433.877 22.2286C433.877 18.3927 432.329 13.8838 430.781 10.9228ZM424.455 10.1152L423.984 8.16357H439.732V0.424419L448.211 1.16468C448.144 2.10685 447.605 2.71252 445.856 2.9817V8.16357H454.874L458.44 3.65468C458.44 3.65468 462.478 6.75034 464.833 9.03844C464.632 9.7787 463.959 10.1152 463.016 10.1152H424.455ZM425.734 27.2086L426.003 28.0162C423.648 29.4967 420.687 31.381 417.12 33.5345V54.8677C417.12 59.3766 416.245 61.9339 409.246 62.6068C409.112 60.7898 408.775 59.242 407.968 58.2998C407.093 57.2904 405.747 56.6174 403.122 56.2136V55.2042C403.122 55.2042 408.641 55.608 409.852 55.608C410.929 55.608 411.198 55.2715 411.198 54.3966V37.034C409.583 37.9088 407.9 38.851 406.151 39.8605C405.881 40.7353 405.343 41.4083 404.603 41.6775L401.709 34.0729C403.593 33.6691 407.025 32.727 411.198 31.5156V17.7197H403.257L402.718 15.7681H411.198V0.0879348L419.61 0.962796C419.408 1.90495 418.735 2.57792 417.12 2.77982V15.7681H417.995L421.09 10.99C421.09 10.99 424.455 14.3549 426.34 16.643C426.138 17.3833 425.532 17.7197 424.59 17.7197H417.12V29.8332C419.879 29.0256 422.84 28.0835 425.734 27.2086ZM449.49 36.9667H439.059C437.646 39.9278 436.03 43.158 434.617 45.9845C438.52 46.5229 441.885 47.1958 444.846 47.9361C447 44.9077 448.48 41.2737 449.49 36.9667ZM455.008 35.0151L458.844 30.1697C458.844 30.1697 463.151 33.4672 465.776 35.8899C465.574 36.6302 464.901 36.9667 463.959 36.9667H456.354C455.143 42.0813 453.326 46.321 450.634 49.7531C466.583 55.7425 463.218 64.3566 457.633 62.0685C455.479 59.7804 451.643 56.8193 446.663 53.7909C441.145 58.2998 432.935 60.9917 420.485 62.6068L420.148 61.5301C430.243 59.1074 437.309 55.9444 442.087 51.2336C439.53 49.8877 436.771 48.6091 433.877 47.465C433.271 48.5418 432.733 49.6185 432.262 50.4934C430.781 51.0991 428.224 50.9645 425.801 49.955C427.686 46.8593 430.243 41.8121 432.464 36.9667H422.234L421.696 35.0151H433.339C434.886 31.5829 436.165 28.3527 436.838 26.2665L445.115 27.747C444.846 28.6892 444.106 29.3621 442.424 29.3621C441.885 30.7754 441.01 32.727 439.934 35.0151H455.008ZM522.642 10.1152H480.581C480.716 14.8933 478.899 18.1908 476.812 19.7387C474.928 21.2192 472.034 21.1519 471.092 19.0657C470.285 17.1814 471.429 15.4989 473.044 14.4222C475.668 12.9417 478.495 8.83654 478.495 4.32765H479.572C479.975 5.67359 480.245 6.95223 480.446 8.16357H497.809V0.0879348L506.894 0.8955C506.76 1.83766 506.154 2.51063 504.404 2.77982V8.16357H522.44L526.006 4.59684L532.13 10.5863C531.659 11.1246 530.919 11.2592 529.573 11.3265C527.42 13.7492 523.449 16.8449 520.488 18.7292L519.815 18.2581C520.69 16.1046 521.901 12.7398 522.642 10.1152ZM512.076 41.6775L513.355 40.2642C509.317 38.5818 505.481 36.4956 502.116 34.0729C498.146 36.6975 493.839 38.9183 489.06 40.8699L491.147 41.6775H512.076ZM490.272 55.8771H512.682V43.5618H490.272V55.8771ZM508.98 19.9405H494.444C493.839 20.6135 493.098 21.2865 492.425 21.9595C494.781 24.5167 497.674 26.8048 501.039 28.7565C504.202 25.9973 506.894 23.0362 508.98 19.9405ZM513.355 14.4895L519.344 20.0751C518.738 20.7481 517.998 20.95 516.248 21.0173C513.422 24.7859 509.99 28.2181 506.019 31.3137C514.028 35.0151 523.651 37.3705 532.803 38.5818L532.669 39.3894C530.044 39.9278 528.295 41.9467 527.554 44.8404C525.401 44.3694 523.315 43.7637 521.296 43.158L521.363 43.2253C521.026 43.6291 520.219 44.1675 519.075 44.3694V60.6552C519.008 61.1263 515.845 62.3377 513.691 62.3377H512.682V57.8288H490.272V60.7225C490.272 61.1936 488.253 62.5395 485.09 62.5395H484.013V42.7542C479.773 44.1675 475.197 45.3788 470.419 46.2537L469.881 45.2442C480.514 42.014 490.474 37.1013 498.28 31.1118C495.521 28.6892 493.166 26.0646 491.147 23.1035C486.369 27.4105 480.446 31.381 473.851 34.0056L473.246 33.2654C482.129 27.5451 489.733 18.1908 493.098 11.1246L502.116 13.2781C501.847 14.0184 501.107 14.4222 499.155 14.4895C498.28 15.6335 497.338 16.8449 496.261 17.9889H509.384L513.355 14.4895ZM584.084 20.2097L584.757 19.0657C587.718 19.4022 589.333 19.806 590.746 20.6808C592.832 21.9595 595.322 24.7859 595.322 27.074C595.322 28.7565 593.909 28.8238 590.881 29.6986C586.035 31.1118 578.767 33.6691 572.98 36.2264C573.249 40.0623 573.316 44.3021 573.316 46.6575C573.316 48.6764 572.307 50.0896 570.422 50.0896C568.74 50.0896 567.26 49.1474 567.26 46.8593C567.26 45.1096 567.529 42.1486 567.596 38.9183C561.607 42.2831 556.963 46.2537 556.963 50.0896C556.963 53.1853 560.261 55.0696 566.788 55.0696C576.816 55.0696 580.719 52.8488 583.613 52.8488C586.506 52.8488 588.727 53.6563 588.727 55.8098C588.727 57.3577 588.122 58.3671 585.766 59.0401C583.074 59.8477 576.345 60.8571 570.624 60.8571C557.771 60.8571 553.666 56.4828 553.666 50.8972C553.666 45.2442 560.395 39.524 567.663 34.9478C567.461 29.564 566.519 27.4778 563.154 27.4778C559.655 27.4778 555.348 31.8521 552.791 34.8132C550.368 37.6397 548.349 41.4083 546.196 41.4756C544.311 41.5429 543.369 39.9278 543.302 37.707C543.302 35.5535 545.657 34.1402 548.416 31.1791C552.05 27.5451 555.213 23.2381 557.501 19.2003C555.819 19.3349 554.137 19.4695 552.454 19.4695C547.003 19.4695 545.792 16.8449 543.571 11.5284L544.715 10.8555C547.205 13.2108 549.022 14.826 553.8 14.7587C555.752 14.6914 557.973 14.4222 560.261 14.0184C561.203 11.9322 561.808 10.1825 562.078 8.90384C562.347 7.75979 562.28 7.01952 561.068 6.34655C560.126 5.80818 558.713 5.4044 557.098 4.93332V3.85657C558.578 3.31819 560.395 2.77982 561.607 2.77982C564.097 2.77982 569.077 3.78927 569.077 5.87548C569.077 6.81764 568.538 7.28871 567.865 8.70195C567.327 9.7787 566.587 11.1919 565.846 12.6725C568.673 11.8649 571.23 10.99 572.912 10.3171C575.402 9.24033 576.008 8.43276 576.95 8.43276C578.969 8.43276 580.719 9.10573 580.719 10.99C580.719 11.9322 580.113 12.8071 578.565 13.5473C576.143 14.826 569.817 17.0468 562.751 18.3927C561.472 20.7481 559.655 23.5746 557.03 27.074C556.761 27.4778 556.963 27.8143 557.501 27.4778C559.722 26.1319 562.145 24.9878 564.837 24.9878C569.009 24.9878 571.634 27.6797 572.441 32.1886C577.489 29.564 583.545 26.9394 586.978 24.9878C588.122 24.3822 588.323 23.6419 587.381 22.6324C586.708 21.7576 585.362 20.8827 584.084 20.2097Z" fill="url(#paint0_linear_2_172)"/>
</g>
<defs>
<filter id="filter0_d_2_172" x="0.0703708" y="0.0878906" width="598.622" height="68.1198" filterUnits="userSpaceOnUse" color-interpolation-filters="sRGB">
<feFlood flood-opacity="0" result="BackgroundImageFix"/>
<feColorMatrix in="SourceAlpha" type="matrix" values="0 0 0 0 0 0 0 0 0 0 0 0 0 0 0 0 0 0 127 0" result="hardAlpha"/>
<feOffset dx="1.44416" dy="1.92555"/>
<feGaussianBlur stdDeviation="0.962774"/>
<feComposite in2="hardAlpha" operator="out"/>
<feColorMatrix type="matrix" values="0 0 0 0 0.154346 0 0 0 0 0.154346 0 0 0 0 0.154346 0 0 0 1 0"/>
<feBlend mode="normal" in2="BackgroundImageFix" result="effect1_dropShadow_2_172"/>
<feBlend mode="normal" in="SourceGraphic" in2="effect1_dropShadow_2_172" result="shape"/>
</filter>
<linearGradient id="paint0_linear_2_172" x1="-3.41895" y1="27.3877" x2="602.581" y2="27.3877" gradientUnits="userSpaceOnUse">
<stop stop-color="#F0C48F"/>
<stop offset="0.36" stop-color="#835120"/>
<stop offset="1" stop-color="#EAD69C"/>
</linearGradient>
</defs>
</svg>
