<svg width="411" height="139" viewBox="0 0 411 139" fill="none" xmlns="http://www.w3.org/2000/svg">
<g filter="url(#filter0_d_2_11162)">
<path d="M127.432 38.3365H76.1257C88.5677 62.5216 111.634 82.5127 133.443 91.7394L133.023 93.2772C127.432 94.2557 122.958 98.4497 120.721 105.16C99.472 91.4598 82.9758 68.3931 73.1899 38.3365V97.0517H81.0186L88.7075 86.2873C88.7075 86.2873 97.375 93.5568 102.548 98.8691C102.128 100.407 100.73 101.106 98.773 101.106H73.1899V126.689C73.1899 128.227 67.7378 130.883 62.2857 130.883H59.6295V101.106H32.0893L30.9709 97.0517H59.6295V54.2735C47.0477 75.8024 27.6158 93.8364 2.45212 106.558L1.05414 104.741C23.8412 88.3842 41.4558 62.941 50.6824 38.3365H3.57051L2.45212 34.2824H59.6295V1.01045L78.9217 3.10742C78.6421 5.2044 77.3839 6.88197 73.1899 7.44116V34.2824H107.161L115.828 22.9587C115.828 22.9587 125.614 30.6476 131.346 36.0998C130.927 37.6375 129.389 38.3365 127.432 38.3365ZM156.649 33.4436H165.457V14.4311C164.758 15.6892 163.36 16.528 160.983 16.6678C159.725 22.3996 158.327 28.1313 156.649 33.4436ZM260.1 20.8618L273.101 32.1854C271.983 33.3038 270.026 34.2824 266.95 34.7018C265.133 84.7495 260.799 114.387 252.551 122.914C247.658 127.947 241.647 130.044 233.119 130.044C233.119 125.99 232.42 122.495 230.183 120.538C227.667 118.301 221.655 116.344 215.085 115.225L215.225 112.989C222.215 113.688 232.979 114.526 236.474 114.526C239.41 114.526 240.808 114.107 242.625 112.429C248.636 107.257 252.271 76.781 254.228 32.6048H249.615C243.324 69.5115 226.828 102.084 192.717 122.635L191.319 121.097C218.16 98.1701 231.721 66.1563 235.775 32.6048H229.344C222.354 57.6287 207.396 80.5555 185.588 95.5139L184.19 93.8364C200.546 77.6198 212.009 54.6929 216.343 32.6048H208.514C202.084 43.3693 193.975 52.0367 184.749 58.3277L182.931 56.9297C187.265 51.6173 191.319 44.907 194.954 37.4977H194.814H177.899V67.1349C184.05 65.3176 190.341 63.3604 196.771 61.4032L197.331 63.2206C192.158 66.2961 185.727 70.0707 177.899 74.4044V126.829C177.899 128.227 172.726 130.743 167.833 130.743H165.457V81.2545C160.983 83.7709 156.09 86.2873 150.918 88.9434C150.358 90.621 149.1 92.019 147.702 92.5782L141.411 77.0606C146.165 76.082 154.972 73.7054 165.457 70.7697V37.4977H155.251C152.036 46.305 148.122 54.2735 143.508 60.5644L141.272 59.446C145.605 46.1652 148.401 27.5721 149.1 10.2371L165.457 13.1729V0.870657L183.071 2.82783C182.652 4.785 181.673 6.18298 177.899 6.74217V33.4436H179.996L186.706 23.5179C186.706 23.5179 192.438 28.9701 196.771 33.4436C200.965 23.6577 204.46 12.4739 206.557 0.870657L224.731 6.32278C224.172 8.14015 222.494 9.25854 219.279 9.25854C216.902 16.2484 214.106 22.8189 210.751 28.6905H252.691L260.1 20.8618ZM342.441 39.3151C342.441 34.562 340.624 30.5078 338.387 26.8731C329.02 29.1099 319.794 34.1426 312.944 41.2723C304.556 50.0796 299.663 60.4246 299.663 72.1677C299.663 84.3301 304.975 94.5353 310.707 94.5353C319.234 94.5353 331.816 74.1248 336.709 62.941C340.064 55.3919 342.441 46.1652 342.441 39.3151ZM340.763 120.678L340.204 117.742C375.014 110.472 389.693 91.7394 389.693 66.9951C389.693 41.6917 372.358 25.4751 349.431 25.4751C347.753 25.4751 345.936 25.6149 344.119 25.7547C348.033 30.2282 352.087 36.2396 352.087 42.3907C352.087 49.2408 350.549 57.9083 347.474 66.1563C341.462 83.4913 325.525 109.634 309.728 109.634C299.243 109.634 289.178 93.5568 289.178 75.6626C289.178 62.242 295.609 46.4448 308.889 35.1212C320.213 25.1955 334.472 20.3026 350.689 20.3026C381.305 20.3026 403.952 41.1325 403.952 70.2105C403.952 95.2343 387.037 118.301 340.763 120.678Z" fill="url(#paint0_linear_2_11162)"/>
</g>
<defs>
<filter id="filter0_d_2_11162" x="0.0541992" y="0.870605" width="410.898" height="138.012" filterUnits="userSpaceOnUse" color-interpolation-filters="sRGB">
<feFlood flood-opacity="0" result="BackgroundImageFix"/>
<feColorMatrix in="SourceAlpha" type="matrix" values="0 0 0 0 0 0 0 0 0 0 0 0 0 0 0 0 0 0 127 0" result="hardAlpha"/>
<feOffset dx="3" dy="4"/>
<feGaussianBlur stdDeviation="2"/>
<feComposite in2="hardAlpha" operator="out"/>
<feColorMatrix type="matrix" values="0 0 0 0 0.154346 0 0 0 0 0.154346 0 0 0 0 0.154346 0 0 0 1 0"/>
<feBlend mode="normal" in2="BackgroundImageFix" result="effect1_dropShadow_2_11162"/>
<feBlend mode="normal" in="SourceGraphic" in2="effect1_dropShadow_2_11162" result="shape"/>
</filter>
<linearGradient id="paint0_linear_2_11162" x1="-3" y1="58.5024" x2="417" y2="58.5024" gradientUnits="userSpaceOnUse">
<stop stop-color="#F0C48F"/>
<stop offset="0.36" stop-color="#835120"/>
<stop offset="1" stop-color="#EAD69C"/>
</linearGradient>
</defs>
</svg>
