<svg id="Layer_1" data-name="Layer 1" xmlns="http://www.w3.org/2000/svg" viewBox="0 0 23 24.32"><defs><style>.cls-1{fill:#172335;}.cls-2{fill:#fff;}.cls-3{fill:#ea2127;}</style></defs><title>icon-transfer</title><path class="cls-1" d="M19.06,5.78H2.39A1.89,1.89,0,0,0,.5,7.67V21.86a1.89,1.89,0,0,0,1.89,1.89H20.7a1.89,1.89,0,0,0,1.89-1.89V19.2l-7.27.07a1,1,0,0,1-1.06-1.05V15.28a1,1,0,0,1,1-1l7.29-.05v-2.6a1.69,1.69,0,0,0-1.7-1.68L4,10S2.63,10,2.63,8.8,4,7.61,4,7.61l17,.06A1.89,1.89,0,0,0,19.06,5.78Z" transform="translate(-0.5 0.57)"/><path class="cls-1" d="M22.69,14.51H15.44a.82.82,0,0,0-.81.82v2.79a.81.81,0,0,0,.81.81h7.25a.81.81,0,0,0,.81-.81V15.33A.82.82,0,0,0,22.69,14.51Zm-6,3.29a1.08,1.08,0,1,1,1.07-1.08A1.08,1.08,0,0,1,16.72,17.8Z" transform="translate(-0.5 0.57)"/><polygon class="cls-2" points="5.11 2.93 6.36 4.19 10.13 0.41 13.33 3.61 9.55 7.38 10.81 8.63 5.09 8.65 5.11 2.93"/><path class="cls-2" d="M10.63.25,13.41,3,9.64,6.81l1,1-4.72,0,0-4.72,1,1L10.63.25m0-.82-.41.41L6.86,3.2l-.55-.55-1-1V8.37H12l-1-1-.55-.55,3.36-3.36L14.24,3l-.41-.41L11.05-.16l-.42-.41Z" transform="translate(-0.5 0.57)"/><polygon class="cls-2" points="9.99 7.27 13.77 3.5 12.52 2.25 18.23 2.23 18.22 7.95 16.96 6.69 13.19 10.47 9.99 7.27"/><path class="cls-2" d="M18.44,2l0,4.72-1-1L13.69,9.48,10.91,6.7l3.77-3.77-1-1h4.72M19,1.36h-.59l-4.72,0H12.31l1,1,.55.55L10.49,6.29l-.41.41.41.41,2.78,2.78.42.42.41-.42,3.36-3.35.55.54,1,1V1.36Z" transform="translate(-0.5 0.57)"/><rect class="cls-2" x="5.04" y="5.42" width="13.14" height="3.4"/><polygon class="cls-3" points="12.91 3.61 10.13 0.83 6.36 4.6 5.4 3.64 5.38 8.36 10.1 8.34 9.14 7.38 12.91 3.61"/><polygon class="cls-3" points="17.94 2.52 13.22 2.54 14.18 3.5 10.41 7.27 13.19 10.05 16.96 6.28 17.93 7.24 17.94 2.52"/></svg>