<?xml version="1.0" encoding="utf-8"?>
<!-- Generator: Adobe Illustrator 19.2.1, SVG Export Plug-In . SVG Version: 6.00 Build 0)  -->
<svg version="1.1" id="Layer_1" xmlns="http://www.w3.org/2000/svg" xmlns:xlink="http://www.w3.org/1999/xlink" x="0px" y="0px"
	 viewBox="0 0 150 150" style="enable-background:new 0 0 150 150;" xml:space="preserve">
<style type="text/css">
	.st0{fill:#FFFFFF;}
</style>
<path class="st0" d="M73,47L25,86.5v42.7c0,2.3,1.9,4.2,4.2,4.2l29.2-0.1c2.3,0,4.1-1.9,4.1-4.2v-24.9c0-2.3,1.9-4.2,4.2-4.2h16.7
	c2.3,0,4.2,1.9,4.2,4.2v24.9c0,2.3,1.9,4.2,4.2,4.2c0,0,0,0,0,0l29.2,0.1c2.3,0,4.2-1.9,4.2-4.2V86.5L77,47C75.8,46,74.2,46,73,47
	L73,47z M148.9,73.8l-21.8-17.9V19.8c0-1.7-1.4-3.1-3.1-3.1h-14.6c-1.7,0-3.1,1.4-3.1,3.1v18.9L82.9,19.6c-4.6-3.8-11.3-3.8-15.9,0
	L1.1,73.8c-1.3,1.1-1.5,3.1-0.4,4.4c0,0,0,0,0,0l6.6,8.1c1.1,1.3,3.1,1.5,4.4,0.4c0,0,0,0,0,0L73,36.3c1.2-0.9,2.8-0.9,4,0
	l61.3,50.4c1.3,1.1,3.3,0.9,4.4-0.4c0,0,0,0,0,0l6.6-8.1C150.4,76.9,150.2,74.9,148.9,73.8C148.9,73.8,148.9,73.8,148.9,73.8
	L148.9,73.8z"/>
</svg>
