<?xml version="1.0" encoding="utf-8"?>
<!-- Generator: Adobe Illustrator 19.2.1, SVG Export Plug-In . SVG Version: 6.00 Build 0)  -->
<svg version="1.1" id="Capa_1" xmlns="http://www.w3.org/2000/svg" xmlns:xlink="http://www.w3.org/1999/xlink" x="0px" y="0px"
	 viewBox="0 0 150 150" style="enable-background:new 0 0 150 150;" xml:space="preserve">
<style type="text/css">
	.st0{fill:#FFFFFF;}
</style>
<g>
	<g>
		<path class="st0" d="M9.4,79.6v56.1c0,5.2,4.2,9.3,9.4,9.3h46.9V79.6H9.4z"/>
	</g>
</g>
<g>
	<g>
		<path class="st0" d="M140.6,42.2H111c2.1-1.4,4-2.9,5.2-4.2c7.6-7.6,7.6-19.9,0-27.5c-7.3-7.4-20.2-7.4-27.5,0
			c-4.1,4.1-14.8,20.6-13.4,31.7h-0.7c1.5-11.1-9.3-27.6-13.4-31.7c-7.4-7.4-20.2-7.4-27.5,0c-7.6,7.6-7.6,19.9,0,27.5
			c1.3,1.3,3.1,2.7,5.2,4.2H9.4c-5.2,0-9.4,4.2-9.4,9.3v14c0,2.6,2.1,4.7,4.7,4.7h60.9V51.5h18.8v18.7h60.9c2.6,0,4.7-2.1,4.7-4.7
			v-14C150,46.4,145.8,42.2,140.6,42.2z M65.1,41.9c0,0-0.4,0.3-1.7,0.3c-6.5,0-18.8-6.7-22.9-10.8c-3.9-3.9-3.9-10.4,0-14.3
			c1.9-1.9,4.4-3,7.1-3c2.7,0,5.2,1,7.1,3C61,23.5,67.3,39.6,65.1,41.9z M86.7,42.2c-1.3,0-1.7-0.3-1.7-0.3
			c-2.2-2.3,4.1-18.4,10.4-24.8c3.8-3.8,10.4-3.8,14.2,0c3.9,3.9,3.9,10.4,0,14.3C105.5,35.5,93.1,42.2,86.7,42.2z"/>
	</g>
</g>
<g>
	<g>
		<path class="st0" d="M84.4,79.6V145h46.9c5.2,0,9.4-4.2,9.4-9.3V79.6H84.4z"/>
	</g>
</g>
</svg>
