<svg width="449" height="64" viewBox="0 0 449 64" fill="none" xmlns="http://www.w3.org/2000/svg">
<g filter="url(#filter0_d_2_175)">
<path d="M10.9883 0.479981L12.0651 2.16241C8.22914 4.6524 6.14294 6.8732 4.59511 10.7091L7.35428 12.8626C9.57508 14.6796 10.1808 16.2275 10.1808 17.9772C10.1808 20.7364 8.36374 22.2842 5.87375 22.2842C4.32592 22.2842 3.04727 21.8131 2.03782 20.871C1.23026 19.2558 0.759177 17.3042 0.759177 15.4199C0.759177 9.22859 5.13348 3.57564 10.9883 0.479981ZM19.2658 10.7091L22.025 12.8626C24.2458 14.6796 24.8515 16.2275 24.8515 17.9772C24.8515 20.7364 22.9672 22.2842 20.5445 22.2842C18.9967 22.2842 17.718 21.8131 16.6413 20.871C15.8337 19.2558 15.4299 17.3042 15.4299 15.4199C15.4299 9.22859 19.8042 3.57564 25.6591 0.479981L26.7358 2.16241C22.8326 4.6524 20.7464 6.8732 19.2658 10.7091ZM40.742 24.6396C40.2709 23.2937 40.069 22.0823 40.0017 20.5345L41.1458 19.9961C42.8282 22.0823 44.0396 23.4956 46.3949 23.4956C50.4328 23.4956 68.5357 21.1402 73.4483 20.3326C75.7364 19.9961 76.4767 18.7175 77.8226 18.7175C80.3126 18.7175 85.3599 22.8226 85.3599 25.1107C85.3599 26.6585 82.4661 27.6007 81.2548 29.8888C74.7943 42.2714 64.1614 53.3754 45.2509 59.5667L44.4433 58.1535C60.3254 49.9433 70.8238 37.426 75.2654 25.5145C75.5345 24.7069 75.2654 24.3704 74.4578 24.4377C70.0835 24.7742 55.9511 27.1969 51.5768 28.3409C49.5579 28.8793 48.4139 30.0907 46.9333 30.0907C44.5779 30.0907 41.415 26.5912 40.742 24.6396ZM77.7553 8.08454C77.7553 9.29589 77.0151 10.1035 74.8616 10.5745C69.6797 11.7186 60.46 13.3337 54.5379 13.3337C50.702 13.3337 48.6157 11.1129 46.2604 6.8059L47.0679 6.06563C49.7598 7.88265 51.9133 8.35373 54.1341 8.35373C58.7776 8.35373 62.4789 7.34427 65.5073 6.53671C69.2086 5.66185 70.0835 4.6524 71.2948 4.6524C75.1308 4.6524 77.7553 5.86374 77.7553 8.08454ZM108.106 10.5072L108.847 9.22859C117.393 10.7764 127.69 14.9488 127.69 21.2075C127.69 23.2264 126.276 24.8415 124.19 24.8415C122.441 24.8415 121.296 23.832 119.547 21.5439C116.317 17.3715 114.298 14.9488 108.106 10.5072ZM115.172 47.386C121.498 47.386 147.139 29.2831 156.762 15.7564L158.108 16.6313C150.302 31.2347 137.919 42.6079 122.71 52.0968C120.893 53.2408 120.085 55.1924 118.335 55.1924C114.971 55.1924 110.596 51.5584 109.183 49.1357C108.443 47.7898 107.837 45.3671 107.77 43.7519L108.779 43.1463C110.529 45.0306 112.817 47.386 115.172 47.386ZM204.139 11.1802L204.947 10.1707C208.513 11.3148 211.474 12.6607 213.359 14.4105C214.974 15.7564 215.512 17.035 215.512 18.381C215.512 19.6596 214.637 20.5345 213.426 20.5345C212.282 20.5345 211.542 19.3231 210.263 17.6407C208.917 15.891 207.235 13.6702 204.139 11.1802ZM183.008 6.53671L182.941 5.32537C184.758 4.6524 186.642 3.91213 188.257 3.91213C191.42 3.91213 196.804 6.8732 196.804 8.82481C196.804 10.5072 195.458 11.0456 195.121 13.401C194.785 16.2275 194.65 20.3999 194.516 24.3031C201.245 25.3126 207.504 27.3315 211.273 29.6196C213.897 31.1674 215.714 33.0517 215.714 35.9455C215.714 37.7625 214.57 39.3103 212.551 39.3103C209.186 39.3103 208.648 36.2147 203.937 32.1769C201.515 30.2925 198.553 28.5428 194.516 26.7931C194.381 32.7152 194.448 42.4733 194.583 48.8665C194.65 52.1641 194.785 54.3176 194.785 55.327C194.785 58.0862 194.045 59.2303 191.891 59.2303C188.997 59.2303 187.382 55.5289 187.382 51.693C187.382 50.0779 187.988 48.6646 188.257 45.8382C188.795 40.8582 188.863 30.9655 188.863 26.4566C188.863 20.9383 188.728 12.9972 188.257 9.83426C187.921 7.61346 186.103 7.00779 183.008 6.53671ZM210.061 5.72915L210.801 4.71969C214.436 5.66185 217.329 6.8732 219.079 8.21913C220.829 9.56507 221.502 10.911 221.502 12.3916C221.502 13.7375 220.829 14.4778 219.55 14.4778C218.339 14.4778 217.598 13.2664 216.185 11.5167C214.907 9.96886 213.426 8.15184 210.061 5.72915ZM239.605 12.0551L236.845 9.90156C234.625 8.08454 234.019 6.53671 234.019 4.78699C234.019 2.02781 235.903 0.479981 238.326 0.479981C239.874 0.479981 241.152 0.951061 242.229 1.89322C243.037 3.50835 243.441 5.45996 243.441 7.34427C243.441 13.5356 239.066 19.1885 233.211 22.2842L232.202 20.6018C236.038 18.1118 238.124 15.891 239.605 12.0551ZM254.275 12.0551L251.516 9.90156C249.295 8.08454 248.69 6.53671 248.69 4.78699C248.69 2.02781 250.507 0.479981 252.997 0.479981C254.545 0.479981 255.823 0.951061 256.833 1.89322C257.707 3.50835 258.111 5.45996 258.111 7.34427C258.111 13.5356 253.737 19.1885 247.882 22.2842L246.805 20.6018C250.709 18.1118 252.728 15.891 254.275 12.0551ZM298.767 19.1885L308.054 18.0445C309.938 17.8426 310.679 16.0256 312.025 16.0256C313.842 16.0256 318.822 20.0634 318.822 21.9477C318.822 23.5628 316.735 23.4956 316.399 25.7836C315.322 33.1863 313.438 42.7425 309.602 50.1452C307.852 53.7119 304.151 56.5384 300.921 56.5384C299.238 56.5384 298.632 55.7981 298.094 53.9138C297.488 51.4911 295.671 50.1452 291.634 46.7803L292.239 45.6363C295.739 47.0495 299.104 48.1935 300.584 48.4627C302.334 48.7992 303.007 48.6646 303.949 47.5206C307.919 42.3387 310.477 27.3988 310.477 23.0918C310.477 22.5534 310.208 22.2842 309.736 22.2842C306.708 22.2842 301.728 22.9572 297.556 23.5628C295.133 32.0423 289.009 49.5395 268.08 59.3648L267.07 58.1535C282.279 46.9149 287.865 34.6669 290.961 24.6396C287.461 25.2453 283.154 26.1201 281.27 26.6585C279.251 27.1969 278.309 28.2063 276.828 28.2063C274.809 28.2063 271.781 24.6396 271.041 22.6207C270.435 21.1402 270.57 19.5923 270.772 17.8426L271.916 17.5734C273.127 19.525 274.271 21.5439 276.424 21.5439C278.309 21.5439 285.106 20.8037 292.239 19.9961C293.114 16.2948 293.922 11.7186 293.922 9.83426C293.989 8.48832 293.787 7.88265 292.778 7.41157C291.634 6.7386 289.951 6.26752 288.673 5.93104L288.605 4.71969C290.153 4.18132 292.307 3.30645 293.922 3.30645C297.219 3.37375 302.603 6.46941 302.603 8.42103C302.603 10.3053 300.853 10.3053 300.18 12.9972C299.844 14.4778 299.373 16.6986 298.767 19.1885ZM381.812 17.3042C380.735 17.3042 379.927 16.2275 378.716 14.5451C377.37 12.728 375.553 10.238 372.592 7.61346L373.399 6.60401C377.033 7.94995 380.062 9.36319 381.879 11.1802C383.427 12.6607 384.032 13.8048 384.032 15.1507C384.032 16.4294 383.09 17.3042 381.812 17.3042ZM388.81 11.7859C387.599 11.7859 386.859 10.5745 385.446 8.8921C384.1 7.20968 382.485 5.32537 379.322 2.63348L380.062 1.62403C383.763 2.70078 386.59 4.11402 388.407 5.52725C390.022 6.8732 390.829 8.15184 390.829 9.69967C390.829 10.9783 390.022 11.7859 388.81 11.7859ZM352.47 14.7469C349.98 12.5261 347.423 10.7091 345.337 9.43048L345.875 8.15184C348.23 8.48832 351.393 9.0267 354.96 10.1035C359.604 11.7859 362.699 14.0067 362.699 17.4388C362.699 19.054 361.555 20.4672 359.94 20.4672C357.315 20.4672 356.037 17.8426 352.47 14.7469ZM345.538 50.1452C351.932 50.1452 376.899 33.9266 388.609 18.8521L389.954 19.6596C382.888 33.3209 368.083 46.2419 353.278 54.6541C351.461 55.7981 350.653 57.817 348.567 57.817C346.01 57.817 341.635 54.7887 339.886 52.1641C338.876 50.7508 338.338 47.8571 338.27 46.4438L339.28 45.9055C340.895 47.6552 343.048 50.1452 345.538 50.1452ZM344.26 28.7447C341.433 26.1874 338.943 24.3704 336.588 23.0918L337.126 21.7458C340.155 22.2842 342.779 22.7553 346.144 23.7647C350.653 25.1107 354.354 27.668 354.354 31.1674C354.354 32.5134 353.614 34.1958 351.461 34.1958C348.769 34.1958 347.557 31.4366 344.26 28.7447ZM435.848 13.5356C435.848 11.584 434.906 10.5072 431.272 8.55562L431.609 7.34427C433.628 7.14238 435.916 7.20968 437.935 7.88265C441.434 8.9594 445.539 12.5934 445.539 14.8815C445.539 16.9004 443.318 17.1696 442.107 19.5923C434.435 35.0033 421.918 49.6068 402.536 58.2208L401.594 56.8076C418.149 45.7036 430.061 29.0139 434.637 18.2464C435.445 16.2275 435.848 14.6796 435.848 13.5356Z" fill="url(#paint0_linear_2_175)"/>
</g>
<defs>
<filter id="filter0_d_2_175" x="0.27789" y="0.47998" width="448.631" height="62.9379" filterUnits="userSpaceOnUse" color-interpolation-filters="sRGB">
<feFlood flood-opacity="0" result="BackgroundImageFix"/>
<feColorMatrix in="SourceAlpha" type="matrix" values="0 0 0 0 0 0 0 0 0 0 0 0 0 0 0 0 0 0 127 0" result="hardAlpha"/>
<feOffset dx="1.44416" dy="1.92555"/>
<feGaussianBlur stdDeviation="0.962774"/>
<feComposite in2="hardAlpha" operator="out"/>
<feColorMatrix type="matrix" values="0 0 0 0 0.154346 0 0 0 0 0.154346 0 0 0 0 0.154346 0 0 0 1 0"/>
<feBlend mode="normal" in2="BackgroundImageFix" result="effect1_dropShadow_2_175"/>
<feBlend mode="normal" in="SourceGraphic" in2="effect1_dropShadow_2_175" result="shape"/>
</filter>
<linearGradient id="paint0_linear_2_175" x1="-2" y1="26.5012" x2="461" y2="26.5012" gradientUnits="userSpaceOnUse">
<stop stop-color="#F0C48F"/>
<stop offset="0.36" stop-color="#835120"/>
<stop offset="1" stop-color="#EAD69C"/>
</linearGradient>
</defs>
</svg>
