<svg width="64" height="64" viewBox="0 0 64 64" fill="none" xmlns="http://www.w3.org/2000/svg">
<path d="M28.1707 10C18.0433 10 9.83325 18.21 9.83325 28.3374C9.83325 38.4648 18.0433 46.6707 28.1666 46.6707C38.2899 46.6707 46.4999 38.4607 46.4999 28.3374C46.4999 18.2141 38.2981 10 28.1707 10Z" fill="#A0A8C2"/>
<path d="M33.6707 17.333C23.5433 17.333 15.3333 25.5431 15.3333 35.6704C15.3333 45.7978 23.5433 54.0037 33.6666 54.0037C43.7899 54.0037 51.9999 45.7937 51.9999 35.6704C51.9999 25.5471 43.7981 17.333 33.6707 17.333Z" fill="#D6DDF4"/>
<path d="M27.0144 44.9849H33.8745C34.339 44.9849 34.7134 45.3603 34.7134 45.8259C34.7134 46.2916 34.3369 46.667 33.8745 46.667H27.0144C25.6273 46.667 24.5 45.5367 24.5 44.1459V39.7915C24.5 36.5483 27.131 33.9083 30.3656 33.9103H35.3945C35.5436 33.9103 35.5635 34.1225 35.4236 34.1742C34.6834 34.4484 34.0182 34.8772 33.4674 35.4216C33.3607 35.527 33.2185 35.5903 33.0686 35.5903H30.3656C28.0558 35.5903 26.1756 37.4755 26.1756 39.7915V44.1439C26.1756 44.6075 26.552 44.9849 27.0144 44.9849Z" fill="white"/>
<path fill-rule="evenodd" clip-rule="evenodd" d="M37.07 28.8681C37.07 31.1882 35.194 33.0693 32.88 33.0693C30.5661 33.0693 28.69 31.1882 28.69 28.8681C28.69 26.5481 30.5661 24.667 32.88 24.667C35.194 24.667 37.07 26.5481 37.07 28.8681ZM35.3945 28.8681C35.3945 27.4773 34.2672 26.347 32.88 26.347C31.4929 26.347 30.3656 27.4794 30.3656 28.8681C30.3656 30.2569 31.4929 31.3892 32.88 31.3892C34.2672 31.3892 35.3945 30.2589 35.3945 28.8681Z" fill="white"/>
<path d="M27.0144 44.9849H33.8745C34.339 44.9849 34.7134 45.3603 34.7134 45.8259C34.7134 46.2916 34.3369 46.667 33.8745 46.667H27.0144C25.6273 46.667 24.5 45.5367 24.5 44.1459V39.7915C24.5 36.5483 27.131 33.9083 30.3656 33.9103H35.3945C35.5436 33.9103 35.5635 34.1225 35.4236 34.1742C34.6834 34.4484 34.0182 34.8772 33.4674 35.4216C33.3607 35.527 33.2185 35.5903 33.0686 35.5903H30.3656C28.0558 35.5903 26.1756 37.4755 26.1756 39.7915V44.1439C26.1756 44.6075 26.552 44.9849 27.0144 44.9849Z" stroke="white" stroke-width="0.366667"/>
<path fill-rule="evenodd" clip-rule="evenodd" d="M37.07 28.8681C37.07 31.1882 35.194 33.0693 32.88 33.0693C30.5661 33.0693 28.69 31.1882 28.69 28.8681C28.69 26.5481 30.5661 24.667 32.88 24.667C35.194 24.667 37.07 26.5481 37.07 28.8681ZM35.3945 28.8681C35.3945 27.4773 34.2672 26.347 32.88 26.347C31.4929 26.347 30.3656 27.4794 30.3656 28.8681C30.3656 30.2569 31.4929 31.3892 32.88 31.3892C34.2672 31.3892 35.3945 30.2589 35.3945 28.8681Z" stroke="white" stroke-width="0.366667"/>
<circle cx="40.0834" cy="40.2497" r="5.68333" stroke="white" stroke-width="1.46667"/>
<path d="M40.5197 38C41.0744 38 41.5082 38.1095 41.8212 38.3286C42.1342 38.5426 42.3402 38.8457 42.439 39.238H42.8756V39.7653H42.5131C42.5186 39.7959 42.5214 39.8264 42.5214 39.857C42.5214 39.8825 42.5214 39.9079 42.5214 39.9334C42.5214 39.9844 42.5186 40.0353 42.5131 40.0863C42.5131 40.1321 42.5104 40.1754 42.5049 40.2162H42.8756V40.7435H42.3896C42.3072 40.9829 42.1754 41.1969 41.9942 41.3854C41.813 41.5739 41.5741 41.7216 41.2776 41.8286C40.981 41.9356 40.6158 41.9891 40.182 41.9891H40.0255V43.4564H38.7981V40.7435H38.3286V40.2162H38.7981V39.7653H38.3286V39.238H38.7981V38H40.5197ZM41.1046 40.7435H40.0255V41.0721H40.1573C40.3824 41.0721 40.5746 41.0466 40.7339 40.9957C40.8932 40.9447 41.0167 40.8606 41.1046 40.7435ZM41.2858 39.7653H40.0255V40.2162H41.2858C41.2913 40.1754 41.294 40.1372 41.294 40.1015C41.294 40.0608 41.294 40.0175 41.294 39.9716C41.294 39.936 41.294 39.9029 41.294 39.8723C41.294 39.8366 41.2913 39.801 41.2858 39.7653ZM40.4621 38.917H40.0255V39.238H41.154C41.0936 39.1361 41.0057 39.0571 40.8904 39.0011C40.7806 38.9451 40.6378 38.917 40.4621 38.917Z" fill="white"/>
</svg>
