<svg width="22" height="22" viewBox="0 0 22 22" fill="none" xmlns="http://www.w3.org/2000/svg">
<path opacity="0.6" d="M21.6666 19.0833C21.6666 16.1367 16.8933 13.75 11 13.75C5.10665 13.75 0.333313 16.1367 0.333313 19.0833V21.75H21.6666V19.0833Z" fill="#FAFAFA"/>
<path opacity="0.5" d="M14.7712 1.97909C13.771 0.978899 12.4145 0.416992 11 0.416992C9.58543 0.416992 8.22892 0.978899 7.22872 1.97909C6.22853 2.97929 5.66663 4.33583 5.66663 5.75033C5.66663 7.16482 6.22853 8.52139 7.22872 9.52153C8.22892 10.5218 9.58543 11.0837 11 11.0837C12.4145 11.0837 13.771 10.5218 14.7712 9.52153C15.7714 8.52139 16.3333 7.16482 16.3333 5.75033C16.3333 4.33583 15.7714 2.97929 14.7712 1.97909Z" fill="#FAFAFA"/>
</svg>
