<svg width="40" height="40" viewBox="0 0 40 40" fill="none" xmlns="http://www.w3.org/2000/svg">
<path d="M27.1426 19.9832C22.4079 19.9832 18.5696 23.8215 18.5696 28.5563C18.5696 33.291 22.4079 37.1293 27.1426 37.1293C31.8774 37.1293 35.7157 33.291 35.7157 28.5563C35.7157 23.8215 31.8774 19.9832 27.1426 19.9832ZM27.1426 34.2719C23.9911 34.2719 21.4266 31.7078 21.4266 28.5559C21.4266 25.4039 23.9907 22.8399 27.1426 22.8399C30.2946 22.8399 32.8586 25.4039 32.8586 28.5559C32.8586 31.7078 30.2942 34.2719 27.1426 34.2719Z" fill="white"/>
<path d="M7.80156 31.8183C6.88281 30.2738 6.84648 28.4086 7.70468 26.8297L16.0707 11.4285H21.0402L24.9945 18.6535L27.5016 17.282L24.2977 11.4281H25.6641V8.57108H24.3605L27.093 2.85663H9.95038L12.9324 8.57108H11.3789V11.4281H12.8187L5.19374 25.4648C3.85038 27.939 3.90741 30.8598 5.34648 33.2789C6.78554 35.698 9.32538 37.1426 12.1398 37.1426H17.0867V34.2855H12.1398C10.3422 34.2855 8.72031 33.3637 7.80156 31.8183ZM14.6641 5.71444H22.5601L21.1937 8.57147H16.1551L14.6641 5.71444ZM22.7215 30.8469H28.384L27.6621 31.8519L29.0543 32.8523L31.7254 29.1324H22.7215V30.8469ZM26.6227 25.2601L25.2305 24.2598L22.5598 27.9801H31.5637V26.2652H25.9008L26.6227 25.2601Z" fill="white"/>
</svg>
