<svg width="44" height="45" viewBox="0 0 44 45" fill="none" xmlns="http://www.w3.org/2000/svg">
<path d="M6.44531 41.672H44V33.9377H37.4688C33.9138 33.9377 31.0234 31.0461 31.0234 27.4924C31.0234 23.9386 33.9138 21.047 37.4688 21.047H44V13.3127H3.86719C2.41038 13.3127 1.08041 12.809 0 11.9912V35.2267C0 38.7845 2.8875 41.672 6.44531 41.672ZM22 28.7814C19.8675 28.7814 18.1328 27.0467 18.1328 24.9142C18.1328 23.2359 19.2137 21.8184 20.7109 21.2845V18.5206H23.2891V21.2845C24.7863 21.8184 25.8672 23.2359 25.8672 24.9142H23.2891C23.2891 24.203 22.71 23.6252 22 23.6252C21.29 23.6252 20.7109 24.203 20.7109 24.9142C20.7109 25.6255 21.29 26.2033 22 26.2033C24.1325 26.2033 25.8672 27.938 25.8672 30.0705C25.8672 31.7488 24.7863 33.1663 23.2891 33.7002V36.4126H20.7109V33.7002C19.2137 33.1663 18.1328 31.7488 18.1328 30.0705H20.7109C20.7109 30.7817 21.29 31.3595 22 31.3595C22.71 31.3595 23.2891 30.7817 23.2891 30.0705C23.2891 29.3593 22.71 28.7814 22 28.7814Z" fill="url(#paint0_linear_2106_11003)"/>
<path d="M33.6016 27.4922C33.6016 29.6246 35.3363 31.3594 37.4688 31.3594H44V23.625H37.4688C35.3363 23.625 33.6016 25.3597 33.6016 27.4922ZM38.7578 28.7812H36.1797V26.2031H38.7578V28.7812Z" fill="url(#paint1_linear_2106_11003)"/>
<path d="M3.86719 10.7344H5.15625V5.57812H38.7578V10.7344H44V3H3.86719C1.73473 3 0 4.73473 0 6.86719C0 8.99964 1.73473 10.7344 3.86719 10.7344Z" fill="url(#paint2_linear_2106_11003)"/>
<path d="M7.73438 8.15625H36.1797V10.7344H7.73438V8.15625Z" fill="url(#paint3_linear_2106_11003)"/>
<defs>
<linearGradient id="paint0_linear_2106_11003" x1="22" y1="41.672" x2="22" y2="11.9912" gradientUnits="userSpaceOnUse">
<stop stop-color="#BC9578"/>
<stop offset="1" stop-color="#FFE7C2"/>
</linearGradient>
<linearGradient id="paint1_linear_2106_11003" x1="38.8008" y1="31.3594" x2="38.8008" y2="23.625" gradientUnits="userSpaceOnUse">
<stop stop-color="#BC9578"/>
<stop offset="1" stop-color="#FFE7C2"/>
</linearGradient>
<linearGradient id="paint2_linear_2106_11003" x1="22" y1="10.7344" x2="22" y2="3" gradientUnits="userSpaceOnUse">
<stop stop-color="#BC9578"/>
<stop offset="1" stop-color="#FFE7C2"/>
</linearGradient>
<linearGradient id="paint3_linear_2106_11003" x1="21.957" y1="10.7344" x2="21.957" y2="8.15625" gradientUnits="userSpaceOnUse">
<stop stop-color="#BC9578"/>
<stop offset="1" stop-color="#FFE7C2"/>
</linearGradient>
</defs>
</svg>
