<svg width="20" height="20" viewBox="0 0 20 20" fill="none" xmlns="http://www.w3.org/2000/svg">
<path fill-rule="evenodd" clip-rule="evenodd" d="M17.3255 3.2297C17.68 3.2297 17.9163 3.57616 17.9163 3.92261V11.0827C17.9163 12.9305 16.9711 14.8937 15.0805 16.626C13.4263 18.2428 11.4176 19.1667 9.99967 19.1667C8.58176 19.1667 6.57306 18.2428 4.91883 16.626C3.14644 14.8937 2.08301 12.9305 2.08301 11.0827V4.0381C2.08301 3.69164 2.31933 3.34518 2.6738 3.34518H3.38276C3.50092 3.34518 4.91883 3.2297 6.4549 2.65227C8.10913 1.95936 9.17256 1.26644 9.17256 1.26644L9.52704 0.919988C9.76336 0.804503 10.1178 0.804503 10.3542 0.919988L10.8268 1.26644C10.8268 1.26644 11.8902 2.07484 13.5445 2.53679C15.0805 3.2297 16.6166 3.2297 16.6166 3.2297H17.3255ZM7.10838 9.55812C6.8643 9.31405 6.46857 9.31405 6.22449 9.55812C5.98042 9.8022 5.98042 10.1979 6.22449 10.442L8.72449 12.942C8.96857 13.1861 9.3643 13.1861 9.60838 12.942L14.6084 7.94201C14.8525 7.69793 14.8525 7.3022 14.6084 7.05813C14.3643 6.81405 13.9686 6.81405 13.7245 7.05813L9.16644 11.6162L7.10838 9.55812Z" fill="url(#paint0_linear_828_120384)"/>
<defs>
<linearGradient id="paint0_linear_828_120384" x1="9.99967" y1="0.833374" x2="9.99967" y2="19.1667" gradientUnits="userSpaceOnUse">
<stop stop-color="#B6BFD5"/>
<stop offset="1" stop-color="#A0AAC4"/>
</linearGradient>
</defs>
</svg>
