<svg width="16" height="16" viewBox="0 0 16 16" fill="none" xmlns="http://www.w3.org/2000/svg">
<path d="M8.84229 1.3208C10.1052 1.3208 11.3197 1.79155 12.2515 2.63525L12.4341 2.80811C13.3865 3.76061 13.9214 5.05289 13.9214 6.3999V6.64307L14.1323 6.76514C14.5118 6.98369 14.8291 7.29421 15.0542 7.66748L15.145 7.83154C15.3434 8.22199 15.4389 8.65565 15.4233 9.09131L15.4097 9.27783C15.3625 9.71314 15.2056 10.1285 14.9546 10.4849L14.8413 10.6333C14.5243 11.0205 14.1007 11.3075 13.6235 11.4585L13.3921 11.5317L13.3394 11.769C13.1858 12.466 12.8279 13.0988 12.3149 13.5884L12.0854 13.7896C11.4495 14.3004 10.6579 14.5788 9.84229 14.5786H8.34229C8.33177 14.5786 8.32147 14.5767 8.31201 14.5728L8.28662 14.5562V14.5552L8.27002 14.5298C8.26615 14.5204 8.26416 14.5099 8.26416 14.4995C8.26422 14.489 8.266 14.4788 8.27002 14.4692L8.28662 14.4438C8.30141 14.4291 8.32159 14.4215 8.34229 14.4214H9.84229C10.4616 14.4216 11.0681 14.2537 11.5972 13.938L11.8188 13.7935C12.3966 13.3851 12.8338 12.8072 13.0698 12.1401L13.2681 11.5786H12.3423C12.3215 11.5785 12.3013 11.5708 12.2866 11.5562C12.2718 11.5414 12.2642 11.5204 12.2642 11.4995V6.49951C12.2642 6.48903 12.266 6.47876 12.27 6.46924L12.2866 6.44385C12.3014 6.4291 12.3215 6.42151 12.3423 6.42139H12.8423C12.9817 6.42139 13.1192 6.43209 13.2534 6.45361L13.7935 6.54053L13.7388 5.99561C13.6234 4.85851 13.1163 3.79897 12.3081 2.99756L12.1421 2.84131C11.2375 2.02395 10.0614 1.5708 8.84229 1.5708C7.69963 1.5709 6.59509 1.96892 5.71631 2.69189L5.54346 2.84131C4.63895 3.65867 4.06988 4.78273 3.94678 5.99561L3.89111 6.54053L4.43213 6.45361C4.50009 6.44272 4.56865 6.43465 4.63721 6.4292L4.84229 6.42139H5.34229C5.35268 6.42139 5.36312 6.42337 5.37256 6.42725L5.39893 6.44385C5.41359 6.45856 5.42128 6.47877 5.42139 6.49951V11.4995C5.42139 11.5099 5.41938 11.5204 5.41553 11.5298L5.39893 11.5562C5.38421 11.5709 5.36332 11.5786 5.34229 11.5786H4.84229C4.34492 11.5792 3.85959 11.436 3.44385 11.1685L3.27002 11.0464C2.87555 10.7439 2.57827 10.3348 2.41162 9.86963L2.34814 9.66748C2.21947 9.18705 2.23295 8.681 2.38428 8.21045L2.45752 8.01123C2.67535 7.48645 3.06079 7.0486 3.55322 6.76514L3.76416 6.64307V6.3999C3.76416 5.13699 4.23393 3.92243 5.07764 2.99072L5.25146 2.80811C6.20383 1.85589 7.49555 1.32091 8.84229 1.3208ZM4.84229 6.57861C4.28047 6.57871 3.73886 6.77439 3.30811 7.12744L3.13037 7.2876C2.67643 7.74154 2.42149 8.35754 2.42139 8.99951C2.42139 9.56152 2.61703 10.1038 2.97021 10.5347L3.13037 10.7114C3.58432 11.1654 4.20034 11.4213 4.84229 11.4214H5.26416V6.57861H4.84229ZM12.4214 11.4214H12.8423C13.4042 11.4214 13.9466 11.2257 14.3774 10.8726L14.5542 10.7114C15.0082 10.2574 15.2642 9.64161 15.2642 8.99951C15.2641 8.43772 15.0683 7.89608 14.7153 7.46533L14.5542 7.2876C14.1002 6.83381 13.4842 6.57861 12.8423 6.57861H12.4214V11.4214Z" fill="#FFBF00" stroke="#FFBF00" stroke-width="0.842105"/>
<path d="M7.5791 10.9473C8.04694 11.4239 9.20717 12.0911 10.1054 10.9473" stroke="#FFBF00" stroke-width="0.631579" stroke-linecap="round"/>
</svg>
