<svg width="20" height="20" viewBox="0 0 20 20" fill="none" xmlns="http://www.w3.org/2000/svg">
<path id="Vector" d="M7.9825 5.25724e-07C6.73313 0.000668161 5.50135 0.294365 4.38615 0.857485C3.27096 1.42061 2.30345 2.23744 1.56139 3.24234C0.819333 4.24724 0.323425 5.41218 0.113525 6.64352C-0.0963756 7.87486 -0.0144141 9.13826 0.352822 10.3322C0.720058 11.5261 1.36233 12.6172 2.228 13.5179C3.09368 14.4185 4.15862 15.1036 5.33723 15.5179C6.51585 15.9323 7.77525 16.0645 9.01424 15.9038C10.2532 15.7431 11.4372 15.294 12.4711 14.5927L17.4069 19.5235C17.544 19.6706 17.7093 19.7886 17.893 19.8704C18.0767 19.9522 18.275 19.9962 18.4761 19.9998C18.6771 20.0033 18.8769 19.9663 19.0633 19.891C19.2498 19.8157 19.4192 19.7036 19.5614 19.5615C19.7036 19.4193 19.8157 19.25 19.891 19.0635C19.9663 18.8771 20.0033 18.6774 19.9998 18.4764C19.9962 18.2754 19.9522 18.0771 19.8704 17.8934C19.7885 17.7098 19.6705 17.5445 19.5234 17.4074L14.5915 12.4727C15.4075 11.2721 15.8806 9.87184 15.9602 8.42252C16.0397 6.97319 15.7226 5.52961 15.043 4.24698C14.3633 2.96435 13.3468 1.89119 12.1028 1.1429C10.8588 0.3946 9.43431 -0.000526098 7.9825 5.25724e-07ZM2.99077 7.98506C2.99077 6.66146 3.51668 5.39206 4.45281 4.45613C5.38894 3.5202 6.65861 2.9944 7.9825 2.9944C9.30639 2.9944 10.5761 3.5202 11.5122 4.45613C12.4483 5.39206 12.9742 6.66146 12.9742 7.98506C12.9742 9.30867 12.4483 10.5781 11.5122 11.514C10.5761 12.4499 9.30639 12.9757 7.9825 12.9757C6.65861 12.9757 5.38894 12.4499 4.45281 11.514C3.51668 10.5781 2.99077 9.30867 2.99077 7.98506Z" fill="white" fill-opacity="0.3"/>
</svg>
