<svg width="16" height="16" viewBox="0 0 16 16" fill="none" xmlns="http://www.w3.org/2000/svg">
<g clip-path="url(#clip0_2107_11171)">
<path fill-rule="evenodd" clip-rule="evenodd" d="M2.25641 2.98145C1.65797 2.98145 1.08405 3.2399 0.660887 3.69995C0.237728 4.16 0 4.78397 0 5.43458V13.463C0 14.1136 0.237728 14.7376 0.660887 15.1977C1.08405 15.6577 1.65797 15.9162 2.25641 15.9162H13.7436C14.342 15.9162 14.916 15.6577 15.3391 15.1977C15.7623 14.7376 16 14.1136 16 13.463V5.43458C16 4.78397 15.7623 4.16 15.3391 3.69995C14.916 3.2399 14.342 2.98145 13.7436 2.98145H2.25641ZM11.6923 8.33374C11.4203 8.33374 11.1594 8.45122 10.9671 8.66034C10.7747 8.86945 10.6667 9.15307 10.6667 9.44881C10.6667 9.74454 10.7747 10.0282 10.9671 10.2373C11.1594 10.4464 11.4203 10.5639 11.6923 10.5639C11.9643 10.5639 12.2252 10.4464 12.4175 10.2373C12.6099 10.0282 12.7179 9.74454 12.7179 9.44881C12.7179 9.15307 12.6099 8.86945 12.4175 8.66034C12.2252 8.45122 11.9643 8.33374 11.6923 8.33374Z" fill="#D6B595"/>
<path d="M11.6801 0.144147C11.9231 0.0737633 12.1776 0.0650071 12.4242 0.118555C12.6707 0.172102 12.9026 0.286521 13.1021 0.452981C13.3015 0.619441 13.463 0.833491 13.5743 1.07861C13.6855 1.32373 13.7435 1.59336 13.7437 1.8667H5.53857L11.6801 0.144147Z" fill="#D6B595"/>
</g>
<defs>
<clipPath id="clip0_2107_11171">
<rect width="16" height="15.8317" fill="white" transform="translate(0 0.0839844)"/>
</clipPath>
</defs>
</svg>
