<svg width="30" height="30" viewBox="0 0 30 30" fill="none" xmlns="http://www.w3.org/2000/svg">
<g id="whatsapp">
<path id="Vector" d="M23.75 6.13757C22.604 4.97998 21.239 4.06216 19.7345 3.43764C18.2301 2.81312 16.6164 2.4944 14.9875 2.50007C8.1625 2.50007 2.6 8.06257 2.6 14.8876C2.6 17.0751 3.175 19.2001 4.25 21.0751L2.5 27.5001L9.0625 25.7751C10.875 26.7626 12.9125 27.2876 14.9875 27.2876C21.8125 27.2876 27.375 21.7251 27.375 14.9001C27.375 11.5876 26.0875 8.47507 23.75 6.13757ZM14.9875 25.1876C13.1375 25.1876 11.325 24.6876 9.7375 23.7501L9.3625 23.5251L5.4625 24.5501L6.5 20.7501L6.25 20.3626C5.22218 18.7213 4.67643 16.8241 4.675 14.8876C4.675 9.21257 9.3 4.58757 14.975 4.58757C17.725 4.58757 20.3125 5.66257 22.25 7.61257C23.2094 8.56753 23.9696 9.7034 24.4867 10.9544C25.0039 12.2053 25.2675 13.5465 25.2625 14.9001C25.2875 20.5751 20.6625 25.1876 14.9875 25.1876ZM20.6375 17.4876C20.325 17.3376 18.8 16.5876 18.525 16.4751C18.2375 16.3751 18.0375 16.3251 17.825 16.6251C17.6125 16.9376 17.025 17.6376 16.85 17.8376C16.675 18.0501 16.4875 18.0751 16.175 17.9126C15.8625 17.7626 14.8625 17.4251 13.6875 16.3751C12.7625 15.5501 12.15 14.5376 11.9625 14.2251C11.7875 13.9126 11.9375 13.7501 12.1 13.5876C12.2375 13.4501 12.4125 13.2251 12.5625 13.0501C12.7125 12.8751 12.775 12.7376 12.875 12.5376C12.975 12.3251 12.925 12.1501 12.85 12.0001C12.775 11.8501 12.15 10.3251 11.9 9.70007C11.65 9.10007 11.3875 9.17507 11.2 9.16257H10.6C10.3875 9.16257 10.0625 9.23757 9.775 9.55007C9.5 9.86257 8.7 10.6126 8.7 12.1376C8.7 13.6626 9.8125 15.1376 9.9625 15.3376C10.1125 15.5501 12.15 18.6751 15.25 20.0126C15.9875 20.3376 16.5625 20.5251 17.0125 20.6626C17.75 20.9001 18.425 20.8626 18.9625 20.7876C19.5625 20.7001 20.8 20.0376 21.05 19.3126C21.3125 18.5876 21.3125 17.9751 21.225 17.8376C21.1375 17.7001 20.95 17.6376 20.6375 17.4876Z" fill="white" fill-opacity="0.7"/>
</g>
</svg>
