<svg id="Layer_1" data-name="Layer 1" xmlns="http://www.w3.org/2000/svg" viewBox="0 0 22 24.15"><defs><style>.cls-1{fill:#121432;}.cls-2{fill:#ea2127;}.cls-3{fill:#fff;}</style></defs><title>icon-withdrawal</title><path class="cls-1" d="M18.76,6.69H2.81A1.81,1.81,0,0,0,1,8.49V22.06a1.81,1.81,0,0,0,1.81,1.81H20.32a1.82,1.82,0,0,0,1.81-1.81V19.52l-7,.07a1,1,0,0,1-1-1V15.77a1,1,0,0,1,1-1l7,0V12.24a1.6,1.6,0,0,0-1.62-1.61l-16.17.13S3,10.7,3,9.57s1.3-1.14,1.3-1.14l16.22.06A1.81,1.81,0,0,0,18.76,6.69Z" transform="translate(-1 0.28)"/><path class="cls-1" d="M22.22,15H15.29a.78.78,0,0,0-.78.78v2.67a.78.78,0,0,0,.78.77h6.93a.78.78,0,0,0,.78-.77V15.82A.78.78,0,0,0,22.22,15Zm-5.71,3.14a1,1,0,1,1,1-1A1,1,0,0,1,16.51,18.18Z" transform="translate(-1 0.28)"/><polygon class="cls-2" points="6.87 10.46 6.87 6.6 4.21 6.6 10.56 0.21 16.92 6.6 14.26 6.6 14.26 10.46 6.87 10.46"/><path class="cls-3" d="M11.56.13l6,6H15.11V10H8V6.17H5.56l6-6m0-.41-.2.2L5.35,6l-.49.49H7.72v3.87H15.4V6.46h2.87L17.77,6l-6-6-.21-.2Z" transform="translate(-1 0.28)"/><polygon class="cls-2" points="7.02 6.46 7.02 10.32 14.11 10.32 14.11 6.46 16.57 6.46 10.56 0.41 4.56 6.46 7.02 6.46"/></svg>