<?xml version="1.0" encoding="utf-8"?>
<!-- Generator: Adobe Illustrator 25.1.0, SVG Export Plug-In . SVG Version: 6.00 Build 0)  -->
<svg version="1.1" id="Layer_1" xmlns="http://www.w3.org/2000/svg" xmlns:xlink="http://www.w3.org/1999/xlink" x="0px" y="0px"
	 viewBox="0 0 150 150" style="enable-background:new 0 0 150 150;" xml:space="preserve">
<style type="text/css">
	.st0{fill:#FFFFFF;}
</style>
<g>
	<path class="st0" d="M109.1,88.5H70.6c-2,0-3.6,1.6-3.6,3.6c0,2,1.6,3.6,3.6,3.6h38.5c2,0,3.6-1.6,3.6-3.6
		C112.6,90.1,111.1,88.5,109.1,88.5z"/>
	<path class="st0" d="M68,38.2c2,0,3.6-1.6,3.6-3.6S70,31.1,68,31.1H51.5V17.2c0-2-1.6-3.6-3.6-3.6c-2,0-3.6,1.6-3.6,3.6v17.5
		c0,2,1.6,3.6,3.6,3.6H68z"/>
	<path class="st0" d="M81.5,34.7c0-18.5-15-33.5-33.5-33.5c-18.5,0-33.5,15-33.5,33.5c0,18.5,15,33.5,33.5,33.5
		C66.4,68.2,81.5,53.1,81.5,34.7z M21.6,34.7C21.6,20.1,33.4,8.3,48,8.3c14.6,0,26.4,11.8,26.4,26.4c0,14.6-11.8,26.4-26.4,26.4
		C33.4,61.1,21.6,49.2,21.6,34.7z"/>
	<path class="st0" d="M70.6,111c-2,0-3.6,1.6-3.6,3.6c0,2,1.6,3.6,3.6,3.6h38.5c2,0,3.6-1.6,3.6-3.6c0-2-1.6-3.6-3.6-3.6H70.6z"/>
	<path class="st0" d="M121.3,24.6H84.6c1,3.4,1.6,6.9,1.6,10.7h35.1c2,0,3.6,1.6,3.6,3.6v95.9c0,2-1.6,3.6-3.6,3.6H56.5
		c-2,0-3.6-1.6-3.6-3.6V72.6c-1.5,0.2-2.9,0.3-4.4,0.3c-2.1,0-4.2-0.2-6.2-0.6v62.3c0,7.8,6.4,14.2,14.2,14.2h64.8
		c7.8,0,14.2-6.4,14.2-14.2V38.8C135.5,30.9,129.2,24.6,121.3,24.6z"/>
	<path class="st0" d="M109,67H70.6c-2,0-3.6,1.6-3.6,3.6c0,2,1.6,3.6,3.6,3.6H109c2,0,3.6-1.6,3.6-3.6C112.6,68.6,111,67,109,67z"/>
</g>
</svg>
