<?xml version="1.0" encoding="utf-8"?>
<!-- Generator: Adobe Illustrator 19.2.1, SVG Export Plug-In . SVG Version: 6.00 Build 0)  -->
<svg version="1.1" id="Capa_1" xmlns="http://www.w3.org/2000/svg" xmlns:xlink="http://www.w3.org/1999/xlink" x="0px" y="0px"
	 viewBox="0 0 150 150" style="enable-background:new 0 0 150 150;" xml:space="preserve">
<style type="text/css">
	.st0{fill:#FFFFFF;}
</style>
<g>
	<path class="st0" d="M0.6,32.4c-0.6,1-0.7,2.2-0.4,3.4l20.6,71.1V25.5L3.2,30.3C2.1,30.6,1.1,31.3,0.6,32.4z"/>
	<path class="st0" d="M149.4,32.4c-0.6-1-1.5-1.8-2.7-2.1l-17.6-4.8v81.4l20.6-71.1C150.2,34.6,150,33.4,149.4,32.4L149.4,32.4z"/>
	<path class="st0" d="M82.9,62.6c-1.8,0-3.4,0.7-4.6,2c-0.8,0.9-2,1.4-3.3,1.4c-1.2,0-2.4-0.5-3.3-1.4c-1.2-1.3-2.8-2-4.6-2
		c-3.4,0-6.2,2.8-6.2,6.2c0,6.2,8.8,13.9,14.1,17.7c6.2-4.5,14.1-12,14.1-17.7C89.1,65.4,86.3,62.6,82.9,62.6L82.9,62.6z"/>
	<path class="st0" d="M116,9.1H34c-2.4,0-4.4,2-4.4,4.4v123c0,2.4,2,4.4,4.4,4.4h82c2.4,0,4.4-2,4.4-4.4v-123
		C120.4,11,118.4,9.1,116,9.1z M42.8,26.7c-2.4,0-4.4-2-4.4-4.4s2-4.4,4.4-4.4s4.4,2,4.4,4.4S45.2,26.7,42.8,26.7z M77.4,95.5
		c-0.7,0.5-1.5,0.7-2.4,0.7s-1.6-0.2-2.4-0.7c-2.1-1.3-20.5-13.4-20.5-26.8c0-8.3,6.7-15,15-15c2.8,0,5.5,0.8,7.9,2.2
		c2.3-1.4,5.1-2.2,7.9-2.2c8.3,0,15,6.7,15,15C97.9,82.1,79.5,94.2,77.4,95.5z M107.2,132.1c-2.4,0-4.4-2-4.4-4.4
		c0-2.4,2-4.4,4.4-4.4c2.4,0,4.4,2,4.4,4.4C111.6,130.2,109.7,132.1,107.2,132.1z"/>
</g>
</svg>
