<svg width="20" height="20" viewBox="0 0 20 20" fill="none" xmlns="http://www.w3.org/2000/svg">
<g id="icon / account">
<path id="Vector" d="M9.99967 3.3335C10.8837 3.3335 11.7316 3.68469 12.3567 4.30981C12.9818 4.93493 13.333 5.78277 13.333 6.66683C13.333 7.55088 12.9818 8.39873 12.3567 9.02385C11.7316 9.64897 10.8837 10.0002 9.99967 10.0002C9.11562 10.0002 8.26777 9.64897 7.64265 9.02385C7.01753 8.39873 6.66634 7.55088 6.66634 6.66683C6.66634 5.78277 7.01753 4.93493 7.64265 4.30981C8.26777 3.68469 9.11562 3.3335 9.99967 3.3335ZM9.99967 11.6668C13.683 11.6668 16.6663 13.1585 16.6663 15.0002V16.6668H3.33301V15.0002C3.33301 13.1585 6.31634 11.6668 9.99967 11.6668Z" fill="white" fill-opacity="0.47"/>
</g>
</svg>
