<svg width="22" height="23" viewBox="0 0 22 23" fill="none" xmlns="http://www.w3.org/2000/svg">
<path d="M11.541 0.513672C12.8005 0.575713 14.0415 0.853364 15.209 1.33691L15.7041 1.55664C16.8441 2.09601 17.8846 2.82798 18.7783 3.72168C19.7996 4.74298 20.6093 5.9557 21.1621 7.29004L21.3574 7.79492C21.7822 8.98254 22 10.236 22 11.5C22 12.9444 21.7148 14.3745 21.1621 15.709C20.6785 16.8766 19.9981 17.9512 19.1514 18.8857L18.7783 19.2783C17.7569 20.2997 16.5435 21.1093 15.209 21.6621C14.0414 22.1457 12.8006 22.4243 11.541 22.4863L11 22.5C9.73601 22.5 8.48254 22.2822 7.29492 21.8574L6.79004 21.6621C5.62245 21.1784 4.5478 20.4982 3.61328 19.6514L3.22168 19.2783C2.32798 18.3846 1.59601 17.3441 1.05664 16.2041L0.836914 15.709C0.284251 14.3746 2.1536e-05 12.9443 0 11.5C1.69334e-07 10.0555 0.28412 8.6246 0.836914 7.29004L1.05664 6.7959C1.59602 5.65575 2.32791 4.61545 3.22168 3.72168L3.61328 3.34863C4.5479 2.50169 5.62229 1.82063 6.79004 1.33691L7.29492 1.14258C8.48257 0.717742 9.73597 0.5 11 0.5L11.541 0.513672ZM11 1.5C9.85093 1.5 8.71147 1.6978 7.63184 2.08398L7.17285 2.26074C6.11127 2.70047 5.13481 3.31991 4.28516 4.08984L3.92871 4.42871C3.11621 5.24121 2.45128 6.18716 1.96094 7.22363L1.76074 7.67285C1.2582 8.88609 1 10.1868 1 11.5C1.00002 12.813 1.25837 14.1131 1.76074 15.3262L1.96094 15.7764C2.4512 16.8126 3.11642 17.758 3.92871 18.5703L4.28516 18.9102C5.13472 19.68 6.11142 20.2986 7.17285 20.7383L7.63184 20.915C8.71153 21.3013 9.85086 21.5 11 21.5L11.4912 21.4873C12.6364 21.431 13.7646 21.178 14.8262 20.7383C16.0394 20.2357 17.1417 19.4989 18.0703 18.5703L18.4102 18.2148C19.1801 17.3652 19.7986 16.3878 20.2383 15.3262C20.7407 14.1131 21 12.813 21 11.5C21 10.3509 20.8013 9.21153 20.415 8.13184L20.2383 7.67285C19.7357 6.45972 18.9988 5.35722 18.0703 4.42871C17.258 3.61642 16.3126 2.9512 15.2764 2.46094L14.8262 2.26074C13.7646 1.82111 12.6364 1.56805 11.4912 1.51172L11 1.5ZM14.2246 7.58203C14.4186 7.45397 14.6827 7.4758 14.8535 7.64648C15.0243 7.81732 15.046 8.08134 14.918 8.27539L14.8535 8.35352L11.707 11.5L14.8535 14.6465L14.918 14.7246C15.046 14.9187 15.0243 15.1827 14.8535 15.3535C14.6827 15.5243 14.4187 15.546 14.2246 15.418L14.1465 15.3535L11 12.207L7.85352 15.3535L7.77539 15.418C7.58135 15.546 7.3173 15.5243 7.14648 15.3535C6.97582 15.1827 6.954 14.9186 7.08203 14.7246L7.14648 14.6465L10.293 11.5L7.14648 8.35352L7.08203 8.27539C6.95406 8.08135 6.97574 7.81728 7.14648 7.64648C7.31727 7.47571 7.58134 7.45407 7.77539 7.58203L7.85352 7.64648L11 10.793L14.1465 7.64648L14.2246 7.58203Z" fill="white"/>
</svg>
