<svg width="20" height="21" viewBox="0 0 20 21" fill="none" xmlns="http://www.w3.org/2000/svg">
<path d="M11.5 7.5H4C3.17275 7.5 2.5 8.17275 2.5 9V16.5C2.5 17.3273 3.17275 18 4 18H11.5C12.3273 18 13 17.3273 13 16.5V9C13 8.17275 12.3273 7.5 11.5 7.5Z" fill="#F26319"/>
<path d="M16 3H8.5C8.10218 3 7.72064 3.15804 7.43934 3.43934C7.15804 3.72064 7 4.10218 7 4.5V6H13C13.3978 6 13.7794 6.15804 14.0607 6.43934C14.342 6.72064 14.5 7.10218 14.5 7.5V13.5H16C16.3978 13.5 16.7794 13.342 17.0607 13.0607C17.342 12.7794 17.5 12.3978 17.5 12V4.5C17.5 4.10218 17.342 3.72064 17.0607 3.43934C16.7794 3.15804 16.3978 3 16 3Z" fill="#F26319"/>
</svg>
