<svg width="20" height="20" viewBox="0 0 20 20" fill="none" xmlns="http://www.w3.org/2000/svg">
<path d="M5.00152 5.36267H3.03409C2.7391 5.36267 2.49998 5.60179 2.49998 5.89678V7.8642C3.87933 7.8642 5.00152 6.74202 5.00152 5.36267Z" fill="white" fill-opacity="0.47"/>
<path d="M14.9978 14.6374H16.9659C17.2609 14.6374 17.5 14.3983 17.5 14.1033V12.1407C17.4997 12.1407 17.4995 12.1406 17.4993 12.1406C16.1215 12.1406 15.0004 13.2603 14.9978 14.6374Z" fill="white" fill-opacity="0.47"/>
<path d="M16.9658 5.36255H14.9937C14.9937 5.36439 14.9936 5.36624 14.9936 5.36812C14.9936 6.74746 16.1158 7.86964 17.4952 7.86964C17.4968 7.86964 17.4983 7.86953 17.5 7.86953V5.89666C17.4999 5.60167 17.2608 5.36255 16.9658 5.36255Z" fill="white" fill-opacity="0.47"/>
<path d="M2.50405 12.1351C2.50267 12.1351 2.50132 12.1352 2.49998 12.1352V14.1034C2.49998 14.3984 2.7391 14.6375 3.03409 14.6375H5.00556C5.00556 14.6372 5.00559 14.6369 5.00559 14.6367C5.00559 13.2573 3.8834 12.1351 2.50405 12.1351Z" fill="white" fill-opacity="0.47"/>
<path d="M17.4952 8.9368C15.5274 8.9368 13.9264 7.33592 13.9264 5.36812C13.9264 5.3663 13.9266 5.36448 13.9266 5.36267L13.9264 5.36255H6.06865C6.06865 7.33032 4.46776 8.93124 2.49998 8.93124V11.068L2.50001 11.0681C2.50135 11.0681 2.5027 11.068 2.50405 11.068C4.47183 11.068 6.07276 12.6689 6.07276 14.6367C6.07276 14.6369 6.07273 14.6372 6.07273 14.6375H13.9306C13.9332 12.6719 15.533 11.0736 17.4992 11.0736C17.4995 11.0736 17.4997 11.0736 17.4999 11.0736V8.93678C17.4983 8.93675 17.4968 8.9368 17.4952 8.9368ZM11.3834 11.0446C11.3037 11.5186 10.9563 11.9987 10.413 12.173V12.3244C10.413 12.567 10.2163 12.7638 9.97357 12.7638C9.73088 12.7638 9.53412 12.567 9.53412 12.3244V12.2194C9.28618 12.1845 9.07205 12.1013 8.7886 11.9158C8.58549 11.783 8.52856 11.5106 8.66143 11.3075C8.79429 11.1044 9.06666 11.0475 9.26974 11.1803C9.52861 11.3497 9.62681 11.3649 9.97067 11.3628C10.2926 11.3607 10.4793 11.1208 10.5166 10.8988C10.5387 10.7674 10.5295 10.5307 10.2195 10.4211C9.80462 10.2744 9.37969 10.1065 9.08195 9.87304C8.7768 9.63371 8.6369 9.22169 8.71677 8.79773C8.8019 8.34595 9.11441 7.98534 9.53412 7.85139V7.73037C9.53412 7.48767 9.73088 7.29092 9.97357 7.29092C10.2163 7.29092 10.413 7.48767 10.413 7.73037V7.82423C10.6744 7.89244 10.857 8.01252 10.933 8.06927C11.1273 8.21461 11.1671 8.49 11.0218 8.68438C10.8764 8.87877 10.601 8.91849 10.4067 8.77321C10.33 8.71588 10.118 8.59274 9.80564 8.68685C9.63487 8.73829 9.59013 8.90932 9.5805 8.96054C9.56274 9.05469 9.5812 9.14765 9.62438 9.18149C9.82287 9.33717 10.1847 9.4766 10.5124 9.59244C11.1419 9.81503 11.492 10.3986 11.3834 11.0446Z" fill="white" fill-opacity="0.47"/>
</svg>
