<svg width="13" height="12" viewBox="0 0 13 12" fill="none" xmlns="http://www.w3.org/2000/svg">
<path d="M-0.000421758 5.99988C-0.00042177 6.2651 0.104935 6.51945 0.292472 6.70699C0.480009 6.89452 0.734361 6.99988 0.999578 6.99988L8.91958 6.99988L6.29291 9.62655C6.11627 9.81611 6.02011 10.0668 6.02468 10.3259C6.02925 10.585 6.1342 10.8322 6.31742 11.0154C6.50063 11.1986 6.74781 11.3035 7.00688 11.3081C7.26595 11.3127 7.51668 11.2165 7.70624 11.0399L12.0396 6.70655C12.2268 6.51905 12.332 6.26488 12.332 5.99988C12.332 5.73488 12.2268 5.48071 12.0396 5.29321L7.70624 0.959879C7.6147 0.86163 7.50429 0.782827 7.38163 0.728171C7.25896 0.673515 7.12655 0.644126 6.99227 0.641757C6.858 0.639388 6.72463 0.664087 6.60011 0.714382C6.4756 0.764677 6.36249 0.839536 6.26753 0.934494C6.17257 1.02945 6.09771 1.14256 6.04741 1.26708C5.99712 1.3916 5.97242 1.52497 5.97479 1.65924C5.97716 1.79351 6.00655 1.92593 6.0612 2.0486C6.11586 2.17126 6.19466 2.28166 6.29291 2.37321L8.91958 4.99988L0.999578 4.99988C0.447578 4.99988 -0.000421734 5.44788 -0.000421758 5.99988Z" fill="white"/>
</svg>
