<svg width="13" height="12" viewBox="0 0 13 12" fill="none" xmlns="http://www.w3.org/2000/svg">
<path d="M13.0004 6.00012C13.0004 5.7349 12.8951 5.48055 12.7075 5.29301C12.52 5.10548 12.2656 5.00012 12.0004 5.00012L4.08042 5.00012L6.70709 2.37345C6.88373 2.18389 6.97989 1.93316 6.97532 1.67409C6.97075 1.41502 6.8658 1.16784 6.68258 0.984625C6.49937 0.801408 6.25219 0.696458 5.99312 0.691887C5.73405 0.687316 5.48332 0.783481 5.29376 0.960121L0.960422 5.29345C0.773155 5.48095 0.667969 5.73512 0.667969 6.00012C0.667969 6.26512 0.773155 6.51929 0.960422 6.70679L5.29376 11.0401C5.3853 11.1384 5.49571 11.2172 5.61837 11.2718C5.74104 11.3265 5.87345 11.3559 6.00773 11.3582C6.142 11.3606 6.27537 11.3359 6.39989 11.2856C6.5244 11.2353 6.63751 11.1605 6.73247 11.0655C6.82743 10.9705 6.90229 10.8574 6.95259 10.7329C7.00288 10.6084 7.02758 10.475 7.02521 10.3408C7.02284 10.2065 6.99345 10.0741 6.9388 9.9514C6.88414 9.82874 6.80534 9.71834 6.70709 9.62679L4.08042 7.00012L12.0004 7.00012C12.5524 7.00012 13.0004 6.55212 13.0004 6.00012Z" fill="white" fill-opacity="0.47"/>
</svg>
