<svg width="20" height="20" viewBox="0 0 20 20" fill="none" xmlns="http://www.w3.org/2000/svg">
<path d="M13.9999 11.3335C12.1595 11.3335 10.6665 12.8257 10.6665 14.6667C10.6665 16.5073 12.1595 18.0001 13.9999 18.0001C15.8403 18.0001 17.3333 16.5073 17.3333 14.6667C17.3333 12.8257 15.8403 11.3335 13.9999 11.3335ZM15.9999 15.1667H13.4999V12.6667H14.4999V14.1667H15.9999V15.1667Z" fill="white" fill-opacity="0.47"/>
<path d="M13.3333 2H3.9999C3.2669 2 2.6665 2.6002 2.6665 3.3334V15.3334C2.6665 16.0664 3.2669 16.6666 3.9999 16.6666H9.3333V14.6666C9.3333 12.0938 11.4271 10 13.9999 10H14.6665V3.3334C14.6665 2.6002 14.0663 2 13.3333 2ZM4.6665 4H11.3333V5.3334H4.6665V4ZM7.3333 13.3334H4.6665V12H7.3333V13.3334ZM8.6665 10.6666H4.6665V9.3334H8.6665V10.6666ZM12.6665 8H4.6665V6.6666H12.6665V8Z" fill="white" fill-opacity="0.47"/>
</svg>
