<svg width="20" height="20" viewBox="0 0 20 20" fill="none" xmlns="http://www.w3.org/2000/svg">
<g clip-path="url(#clip0_2843_4133)">
<path fill-rule="evenodd" clip-rule="evenodd" d="M9.99981 0.953422C10.1098 0.953422 10.3638 1.01842 10.7348 1.41942C11.0968 1.80942 11.4788 2.42742 11.8258 3.26542C12.0488 3.80242 12.2488 4.41042 12.4188 5.07742C10.8105 4.91026 9.18914 4.91026 7.58081 5.07742C7.75081 4.41042 7.95081 3.80242 8.17381 3.26542C8.52081 2.42742 8.90281 1.80942 9.26381 1.41842C9.63581 1.01842 9.88881 0.953422 9.99981 0.953422ZM7.18481 7.13842C8.11793 7.01373 9.05839 6.95192 9.99981 6.95342C10.9848 6.95342 11.9298 7.01942 12.8148 7.13842C12.9338 8.02342 12.9998 8.96842 12.9998 9.95342C12.9998 10.9384 12.9338 11.8834 12.8148 12.7684C11.8817 12.8931 10.9412 12.9549 9.99981 12.9534C9.01481 12.9534 8.06981 12.8874 7.18481 12.7684C7.06011 11.8353 6.99831 10.8948 6.99981 9.95342C6.99981 8.96842 7.06581 8.02342 7.18481 7.13842ZM5.12481 12.3724C4.95765 10.7641 4.95765 9.14276 5.12481 7.53442C4.45681 7.70442 3.84781 7.90442 3.31181 8.12742C2.47381 8.47442 1.85581 8.85642 1.46481 9.21742C1.06481 9.58942 0.999809 9.84242 0.999809 9.95342C0.999809 10.0644 1.06481 10.3174 1.46481 10.6884C1.85581 11.0504 2.47381 11.4324 3.31181 11.7794C3.90096 12.0199 4.50749 12.218 5.12481 12.3724ZM7.58081 14.8294C9.18914 14.9966 10.8105 14.9966 12.4188 14.8294C12.2488 15.4964 12.0488 16.1054 11.8258 16.6414C11.4788 17.4794 11.0968 18.0974 10.7358 18.4884C10.3638 18.8884 10.1108 18.9534 9.99981 18.9534C9.88881 18.9534 9.63581 18.8884 9.26481 18.4884C8.90281 18.0974 8.52081 17.4794 8.17381 16.6414C7.93337 16.0523 7.7352 15.4467 7.58081 14.8294ZM14.8748 12.3724C15.042 10.7641 15.042 9.14276 14.8748 7.53442C15.4925 7.68877 16.0983 7.88694 16.6878 8.12742C17.5258 8.47442 18.1438 8.85642 18.5348 9.21742C18.9348 9.58942 18.9998 9.84242 18.9998 9.95342C18.9998 10.0644 18.9348 10.3174 18.5348 10.6884C18.1438 11.0504 17.5258 11.4324 16.6878 11.7794C16.1508 12.0024 15.5418 12.2024 14.8748 12.3724ZM14.5468 5.40642C14.3469 4.41238 14.0546 3.43916 13.6738 2.49942C13.3068 1.61542 12.8658 0.834422 12.3548 0.232422C14.1399 0.666925 15.7712 1.58385 17.0703 2.88296C18.3694 4.18206 19.2863 5.81333 19.7208 7.59842C19.1188 7.08842 18.3378 6.64642 17.4538 6.27942C16.5141 5.89864 15.5409 5.60637 14.5468 5.40642ZM14.5468 14.5004C14.3469 15.4945 14.0546 16.4677 13.6738 17.4074C13.3068 18.2914 12.8658 19.0724 12.3548 19.6744C14.1399 19.2399 15.7712 18.323 17.0703 17.0239C18.3694 15.7248 19.2863 14.0935 19.7208 12.3084C19.1188 12.8184 18.3378 13.2604 17.4538 13.6274C16.6028 13.9804 15.6218 14.2774 14.5468 14.5004ZM7.64481 19.6744C7.13481 19.0724 6.69281 18.2914 6.32581 17.4074C5.94503 16.4677 5.65276 15.4945 5.45281 14.5004C4.45876 14.3005 3.48555 14.0082 2.54581 13.6274C1.66181 13.2604 0.879809 12.8194 0.278809 12.3084C0.713312 14.0935 1.63024 15.7248 2.92934 17.0239C4.22845 18.323 5.85972 19.2399 7.64481 19.6744ZM5.45281 5.40642C5.67581 4.33142 5.97281 3.35042 6.32581 2.49942C6.69281 1.61542 7.13381 0.834422 7.64481 0.232422C5.85972 0.666925 4.22845 1.58385 2.92934 2.88296C1.63024 4.18206 0.713312 5.81333 0.278809 7.59842C0.879809 7.08842 1.66181 6.64642 2.54581 6.27942C3.48555 5.89864 4.45876 5.60637 5.45281 5.40642Z" fill="white" fill-opacity="0.47"/>
</g>
<defs>
<clipPath id="clip0_2843_4133">
<rect width="20" height="20" fill="white"/>
</clipPath>
</defs>
</svg>
