<svg width="24" height="24" viewBox="0 0 24 24" fill="none" xmlns="http://www.w3.org/2000/svg">
<g id="menu">
<path id="Vector" d="M21.3599 11.5201L16.5599 8.5201C16.3199 8.4001 15.9599 8.4001 15.7199 8.7601C15.7199 8.8801 15.5999 9.0001 15.5999 9.1201L15.5999 15.1201C15.5999 15.2401 15.8399 15.6001 16.1999 15.6001C16.3199 15.6001 16.4399 15.6001 16.5599 15.4801L21.3599 12.4801C21.5999 12.3601 21.7199 11.8801 21.5999 11.6401C21.4799 11.6401 21.3599 11.5201 21.3599 11.5201ZM20.3999 19.2001L3.59988 19.2001C2.87988 19.2001 2.39988 19.6801 2.39988 20.4001C2.39988 21.1201 2.87988 21.6001 3.59988 21.6001L20.3999 21.6001C21.1199 21.6001 21.5999 21.1201 21.5999 20.4001C21.5999 19.6801 20.9999 19.2001 20.3999 19.2001ZM11.9999 10.8001L3.59988 10.8001C2.87988 10.8001 2.39988 11.2801 2.39988 12.0001C2.39988 12.7201 2.87988 13.2001 3.59988 13.2001L11.9999 13.2001C12.7199 13.2001 13.1999 12.7201 13.1999 12.0001C13.1999 11.2801 12.5999 10.8001 11.9999 10.8001ZM20.3999 2.4001L3.59988 2.4001C2.87988 2.4001 2.39988 2.8801 2.39988 3.6001C2.39988 4.3201 2.87988 4.8001 3.59988 4.8001L20.3999 4.8001C21.1199 4.8001 21.5999 4.3201 21.5999 3.6001C21.5999 2.8801 20.9999 2.4001 20.3999 2.4001Z" fill="white"/>
</g>
</svg>
