<svg width="16" height="10" viewBox="0 0 16 10" fill="none" xmlns="http://www.w3.org/2000/svg">
<g id="Group">
<path id="Vector" d="M3.00154 0.0732422H1.03411C0.739121 0.0732422 0.5 0.312362 0.5 0.60735V2.57477C1.87935 2.57477 3.00154 1.45259 3.00154 0.0732422Z" fill="white"/>
<path id="Vector_2" d="M12.998 9.34834H14.9661C15.2611 9.34834 15.5002 9.10923 15.5002 8.81424V6.85159C15.4999 6.85159 15.4997 6.85156 15.4995 6.85156C14.1217 6.85156 13.0006 7.97119 12.998 9.34834Z" fill="white"/>
<path id="Vector_3" d="M14.9659 0.0732422H12.9938C12.9938 0.0750879 12.9937 0.0769336 12.9937 0.0788086C12.9937 1.45816 14.1158 2.58034 15.4952 2.58034C15.4968 2.58034 15.4984 2.58022 15.5 2.58022V0.60735C15.5 0.312362 15.2608 0.0732422 14.9659 0.0732422Z" fill="white"/>
<path id="Vector_4" d="M0.504072 6.8457C0.502695 6.8457 0.501348 6.84579 0.5 6.84579V8.81394C0.5 9.10893 0.739121 9.34805 1.03411 9.34805H3.00558C3.00558 9.34776 3.00561 9.3475 3.00561 9.34723C3.00561 7.96788 1.88343 6.8457 0.504072 6.8457Z" fill="white"/>
<g id="Group_2">
<path id="Vector_5" d="M15.4952 3.6475C13.5274 3.6475 11.9265 2.04661 11.9265 0.0788086C11.9265 0.0769922 11.9266 0.0751757 11.9266 0.0733593L11.9264 0.0732422H4.06868C4.06868 2.04101 2.46778 3.64193 0.5 3.64193V5.77869L0.500029 5.77874C0.501377 5.77874 0.502725 5.77869 0.504072 5.77869C2.47185 5.77869 4.07278 7.37958 4.07278 9.34738C4.07278 9.34764 4.07275 9.34793 4.07275 9.3482H11.9306C11.9332 7.38259 13.5331 5.78425 15.4992 5.78425C15.4995 5.78425 15.4997 5.78428 15.5 5.78428V3.64747C15.4984 3.64744 15.4968 3.6475 15.4952 3.6475ZM9.38339 5.75525C9.3037 6.22927 8.9563 6.70941 8.41305 6.88373V7.03505C8.41305 7.27774 8.21629 7.4745 7.97359 7.4745C7.7309 7.4745 7.53414 7.27774 7.53414 7.03505V6.93005C7.2862 6.89524 7.07207 6.81195 6.78863 6.62653C6.58551 6.49367 6.52859 6.2213 6.66145 6.01819C6.79431 5.8151 7.06668 5.75815 7.26977 5.89101C7.52863 6.06034 7.62684 6.07561 7.97069 6.07353C8.29258 6.07139 8.47935 5.83148 8.51667 5.6095C8.53876 5.47813 8.5295 5.24139 8.21948 5.13179C7.80464 4.98513 7.37972 4.81723 7.08197 4.58373C6.77682 4.34441 6.63693 3.93238 6.71679 3.50843C6.80193 3.05664 7.11444 2.69603 7.53414 2.56208V2.44106C7.53414 2.19837 7.7309 2.00161 7.97359 2.00161C8.21629 2.00161 8.41305 2.19837 8.41305 2.44106V2.53493C8.67446 2.60313 8.85707 2.72322 8.93298 2.77996C9.12736 2.9253 9.16712 3.20069 9.02181 3.39508C8.87646 3.58946 8.60104 3.62919 8.40669 3.4839C8.33002 3.42657 8.118 3.30344 7.80567 3.39754C7.63489 3.44898 7.59016 3.62002 7.58052 3.67123C7.56277 3.76539 7.58122 3.85835 7.62441 3.89218C7.82289 4.04787 8.18471 4.18729 8.51242 4.30313C9.14195 4.52573 9.49199 5.10926 9.38339 5.75525Z" fill="white"/>
</g>
</g>
</svg>
