<svg width="20" height="20" viewBox="0 0 20 20" fill="none" xmlns="http://www.w3.org/2000/svg">
<path d="M4.4 16C4.015 16 3.68553 15.8532 3.4116 15.5597C3.13767 15.2662 3.00047 14.913 3 14.5V5.5C3 5.0875 3.1372 4.7345 3.4116 4.441C3.686 4.1475 4.01547 4.0005 4.4 4H15.6C15.985 4 16.3147 4.147 16.5891 4.441C16.8635 4.735 17.0005 5.088 17 5.5V14.5C17 14.9125 16.863 15.2657 16.5891 15.5597C16.3152 15.8537 15.9855 16.0005 15.6 16H4.4ZM10 10.6187C10.0583 10.6187 10.1197 10.6092 10.1841 10.5902C10.2485 10.5712 10.3096 10.5432 10.3675 10.5062L15.32 7.1875C15.4133 7.125 15.4833 7.047 15.53 6.9535C15.5767 6.86 15.6 6.75675 15.6 6.64375C15.6 6.39375 15.5008 6.20625 15.3025 6.08125C15.1042 5.95625 14.9 5.9625 14.69 6.1L10 9.25L5.31 6.1C5.1 5.9625 4.89583 5.9595 4.6975 6.091C4.49917 6.2225 4.4 6.40675 4.4 6.64375C4.4 6.76875 4.42333 6.87825 4.47 6.97225C4.51667 7.06625 4.58667 7.138 4.68 7.1875L9.6325 10.5062C9.69083 10.5437 9.7522 10.572 9.8166 10.591C9.881 10.61 9.94213 10.6192 10 10.6187Z" fill="white" fill-opacity="0.47"/>
</svg>
