<svg width="14" height="14" viewBox="0 0 14 14" fill="none" xmlns="http://www.w3.org/2000/svg">
<path id="Vector" d="M12.6875 0H1.3125C0.588744 0 0 0.588744 0 1.3125V12.6875C0 13.4113 0.588744 14 1.3125 14H12.6875C13.4113 14 14 13.4113 14 12.6875V1.3125C14 0.588744 13.4113 0 12.6875 0ZM3.34747 9.38425C3.48099 9.5857 3.42587 9.85721 3.22442 9.99052C3.02531 10.1227 2.74974 10.0662 2.61817 9.86746C2.04971 9.00955 1.74936 8.01193 1.74936 6.98227C1.74936 4.09729 4.09665 1.75 6.98163 1.75C8.14007 1.75 9.29493 2.14906 10.211 2.8688L10.1544 2.48978C10.1189 2.25095 10.2834 2.02814 10.5226 1.99246C10.7619 1.95721 10.9845 2.12192 11.02 2.36075L11.2708 4.04068C11.2908 4.17676 11.246 4.31455 11.1494 4.4126C11.0535 4.51003 10.8867 4.55336 10.7534 4.53514L9.09607 4.30899C8.85639 4.2763 8.68891 4.05585 8.72137 3.81637C8.75384 3.5769 8.97473 3.40942 9.21399 3.44211C9.21399 3.44211 9.58274 3.49241 9.58276 3.49241C9.48074 3.4785 9.30279 3.29798 9.20925 3.24188C8.53925 2.84001 7.76283 2.625 6.98163 2.625C4.57901 2.625 2.62436 4.57965 2.62436 6.98227C2.62436 7.83954 2.87451 8.6701 3.34747 9.38425ZM6.45141 11.7685C6.40543 11.995 6.16366 12.1564 5.93551 12.1101C5.27926 11.9768 4.66061 11.7196 4.09664 11.3459C3.8952 11.2126 3.84008 10.9411 3.9736 10.7397C4.1069 10.538 4.37777 10.4823 4.57986 10.6166C5.04962 10.9277 5.56445 11.1417 6.10983 11.2526C6.34652 11.3007 6.49948 11.5318 6.45141 11.7685ZM5.86544 8.34754C5.64341 8.43581 5.38544 8.32482 5.29678 8.10358C5.20706 7.87927 5.31622 7.62463 5.54074 7.53491L6.86392 7.00577V5.38416C6.86392 5.14255 7.05981 4.94666 7.30142 4.94666C7.54303 4.94666 7.73871 5.14255 7.73871 5.38416V7.30207C7.73871 7.48087 7.63018 7.64194 7.46399 7.70838C7.46399 7.70837 5.86545 8.34754 5.86544 8.34754ZM9.86682 11.3462C9.30286 11.7196 8.6842 11.9766 8.02795 12.1101C7.79409 12.1575 7.55945 12.0023 7.51227 11.7685C7.46399 11.5318 7.61694 11.3007 7.85364 11.2526C8.39923 11.1417 8.91406 10.9277 9.38403 10.6164C9.5857 10.4829 9.85657 10.538 9.9903 10.7397C10.1236 10.9411 10.0685 11.2126 9.86682 11.3462ZM11.3455 9.86746C11.2167 10.062 10.9399 10.1237 10.7393 9.99051C10.5376 9.85721 10.4825 9.5857 10.6158 9.38425C10.9285 8.91257 11.1413 8.39859 11.2481 7.85641C11.2951 7.61908 11.5267 7.46356 11.7625 7.51205C11.9992 7.55884 12.1534 7.78912 12.1069 8.02603C11.9774 8.68078 11.7211 9.30029 11.3455 9.86746Z" fill="white" fill-opacity="0.47"/>
</svg>
