<svg width="20" height="20" viewBox="0 0 20 20" fill="none" xmlns="http://www.w3.org/2000/svg">
<path d="M6.37972 9.99967C7.76385 9.99967 8.8859 8.87761 8.8859 7.49349C8.8859 6.10936 7.76385 4.9873 6.37972 4.9873C4.99559 4.9873 3.87354 6.10936 3.87354 7.49349C3.87354 8.87761 4.99559 9.99967 6.37972 9.99967Z" fill="white" fill-opacity="0.47"/>
<path d="M9.23416 11.392C8.25397 10.8942 7.17213 10.6958 6.3799 10.6958C4.82815 10.6958 1.646 11.6475 1.646 13.5501V15.012H6.86721V14.4526C6.86721 13.7913 7.14568 13.1282 7.63299 12.5754C8.0218 12.1341 8.5662 11.7244 9.23416 11.392Z" fill="white" fill-opacity="0.47"/>
<path d="M12.9237 11.1138C11.1113 11.1138 7.49365 12.2332 7.49365 14.4553V16.1261H18.3538V14.4553C18.3538 12.2332 14.7362 11.1138 12.9237 11.1138Z" fill="white" fill-opacity="0.47"/>
<path d="M12.924 9.99976C14.6157 9.99976 15.9871 8.62836 15.9871 6.93665C15.9871 5.24494 14.6157 3.87354 12.924 3.87354C11.2322 3.87354 9.86084 5.24494 9.86084 6.93665C9.86084 8.62836 11.2322 9.99976 12.924 9.99976Z" fill="white" fill-opacity="0.47"/>
</svg>
