<svg width="16" height="16" viewBox="0 0 16 16" fill="none" xmlns="http://www.w3.org/2000/svg">
<path d="M9.66069 10.3334H9.66669M6.33335 10.3334H6.33935M2.84535 12.5634C2.99535 13.6767 3.91735 14.5494 5.04002 14.6007C5.98402 14.644 6.94335 14.6667 8.00002 14.6667C9.05669 14.6667 10.016 14.644 10.96 14.6C12.0827 14.5494 13.0047 13.6767 13.1547 12.5634C13.2527 11.8367 13.3334 11.092 13.3334 10.3334C13.3334 9.5747 13.2527 8.83004 13.1547 8.10337C13.0047 6.99004 12.0827 6.11737 10.96 6.06604C9.974 6.02097 8.98707 5.99897 8.00002 6.00004C6.94335 6.00004 5.98402 6.0227 5.04002 6.0667C3.91735 6.11737 2.99535 6.99004 2.84535 8.10337C2.74669 8.83004 2.66669 9.5747 2.66669 10.3334C2.66669 11.092 2.74735 11.8367 2.84535 12.5634Z" stroke="white" stroke-width="1.3" stroke-linecap="round" stroke-linejoin="round"/>
<path d="M5 5.99967V4.33301C5 3.53736 5.31607 2.7743 5.87868 2.21169C6.44129 1.64908 7.20435 1.33301 8 1.33301C8.79565 1.33301 9.55871 1.64908 10.1213 2.21169C10.6839 2.7743 11 3.53736 11 4.33301V5.99967" stroke="white" stroke-width="1.3" stroke-linecap="round" stroke-linejoin="round"/>
</svg>
