<svg width="19" height="19" viewBox="0 0 19 19" fill="none" xmlns="http://www.w3.org/2000/svg">
<path d="M16.0313 7.59961C16.6304 7.94463 17.1162 8.45654 17.4294 9.07291C17.7427 9.68929 17.8698 10.3835 17.7952 11.0709C17.7207 11.7582 17.4478 12.4091 17.0097 12.944C16.5717 13.4789 15.9874 13.8748 15.3283 14.0834C15.0953 15.1406 14.5082 16.0866 13.6643 16.7647C12.8203 17.4428 11.7701 17.8123 10.6875 17.8121H8.90625C8.74878 17.8121 8.59776 17.7496 8.48641 17.6382C8.37506 17.5269 8.3125 17.3758 8.3125 17.2184C8.3125 17.0609 8.37506 16.9099 8.48641 16.7985C8.59776 16.6872 8.74878 16.6246 8.90625 16.6246H10.6875C11.4245 16.6248 12.1434 16.3966 12.7453 15.9712C13.3471 15.5459 13.8023 14.9444 14.0481 14.2496H13.6563C13.4988 14.2496 13.3478 14.1871 13.2364 14.0757C13.1251 13.9644 13.0625 13.8133 13.0625 13.6559V7.71836C13.0625 7.56089 13.1251 7.40987 13.2364 7.29852C13.3478 7.18717 13.4988 7.12461 13.6563 7.12461H14.25C14.4424 7.12461 14.6312 7.14005 14.8164 7.16974C14.6828 5.85267 14.065 4.63211 13.0828 3.74454C12.1005 2.85696 10.8238 2.36557 9.5 2.36557C8.17617 2.36557 6.89946 2.85696 5.91725 3.74454C4.93503 4.63211 4.31724 5.85267 4.18356 7.16974C4.37088 7.13971 4.56029 7.12462 4.75 7.12461H5.34375C5.50122 7.12461 5.65225 7.18717 5.7636 7.29852C5.87494 7.40987 5.9375 7.56089 5.9375 7.71836V13.6559C5.9375 13.8133 5.87494 13.9644 5.7636 14.0757C5.65225 14.1871 5.50122 14.2496 5.34375 14.2496H4.75C3.96504 14.2505 3.20177 13.9921 2.57877 13.5145C1.95578 13.037 1.50794 12.3671 1.30484 11.6089C1.10175 10.8506 1.15476 10.0465 1.45565 9.32155C1.75654 8.59654 2.28845 7.99122 2.96875 7.59961C2.96875 5.86741 3.65686 4.20617 4.88171 2.98132C6.10656 1.75647 7.76781 1.06836 9.5 1.06836C11.2322 1.06836 12.8934 1.75647 14.1183 2.98132C15.3431 4.20617 16.0313 5.86741 16.0313 7.59961ZM4.75 8.31211C4.12011 8.31211 3.51602 8.56233 3.07062 9.00773C2.62522 9.45313 2.375 10.0572 2.375 10.6871C2.375 11.317 2.62522 11.9211 3.07062 12.3665C3.51602 12.8119 4.12011 13.0621 4.75 13.0621V8.31211ZM16.625 10.6871C16.625 10.0572 16.3748 9.45313 15.9294 9.00773C15.484 8.56233 14.8799 8.31211 14.25 8.31211V13.0621C14.8799 13.0621 15.484 12.8119 15.9294 12.3665C16.3748 11.9211 16.625 11.317 16.625 10.6871Z" fill="#025BE8"/>
<path d="M8 13C8.55556 13.566 9.93333 14.3583 11 13" stroke="#025BE8" stroke-width="0.75" stroke-linecap="round"/>
</svg>
