<svg width="20" height="21" viewBox="0 0 20 21" fill="none" xmlns="http://www.w3.org/2000/svg">
<path fill-rule="evenodd" clip-rule="evenodd" d="M11.5023 4.94428C11.5023 3.41015 12.7517 2.1665 14.2928 2.1665C15.8338 2.1665 17.0832 3.41015 17.0832 4.94428C17.0832 6.4784 15.8338 7.72206 14.2928 7.72206C13.5146 7.72206 12.8113 7.4048 12.3058 6.89439L8.44292 9.52442C8.47859 9.70192 8.49734 9.88525 8.49734 10.0725C8.49734 10.4433 8.424 10.7978 8.29116 11.1218L12.5268 13.9047C13.0075 13.5133 13.6226 13.2776 14.2928 13.2776C15.8338 13.2776 17.0832 14.5213 17.0832 16.0554C17.0832 17.5895 15.8338 18.8332 14.2928 18.8332C12.7517 18.8332 11.5023 17.5895 11.5023 16.0554C11.5023 15.6536 11.5883 15.2711 11.7429 14.9258L7.54156 12.1654C7.05147 12.5913 6.4095 12.8503 5.7069 12.8503C4.16581 12.8503 2.9165 11.6066 2.9165 10.0725C2.9165 8.53836 4.16581 7.29471 5.7069 7.29471C6.59309 7.29471 7.38195 7.70588 7.89271 8.34582L11.6364 5.79685C11.5493 5.52783 11.5023 5.24117 11.5023 4.94428Z" fill="#F26319"/>
</svg>
