<svg width="20" height="20" viewBox="0 0 20 20" fill="none" xmlns="http://www.w3.org/2000/svg">
<g clip-path="url(#clip0_3095_7076)">
<path fill-rule="evenodd" clip-rule="evenodd" d="M14.5168 2.5C14.7873 2.49997 15.0538 2.56582 15.2933 2.69184C15.5327 2.81787 15.7378 3.00028 15.891 3.22333L15.9635 3.34L18.7418 8.2C18.9114 8.49664 18.9858 8.83825 18.9548 9.17855C18.9238 9.51885 18.7889 9.8414 18.5685 10.1025L18.4735 10.205L10.7376 17.9408C10.5562 18.1222 10.3142 18.2303 10.058 18.2443C9.80177 18.2583 9.54942 18.1772 9.34929 18.0167L9.26429 17.9417L1.52846 10.205C1.28681 9.96346 1.12524 9.65349 1.06561 9.31707C1.00599 8.98065 1.0512 8.63404 1.19512 8.32417L1.26012 8.19917L4.03762 3.33917C4.17186 3.10423 4.36128 2.90551 4.58952 2.76017C4.81776 2.61484 5.07796 2.52726 5.34762 2.505L5.48346 2.5H14.5168ZM6.07762 7.74417C5.9214 7.90044 5.83363 8.11236 5.83363 8.33333C5.83363 8.5543 5.9214 8.76623 6.07762 8.9225L9.26346 12.1083C9.36019 12.2051 9.47503 12.2818 9.60143 12.3342C9.72783 12.3866 9.86331 12.4135 10.0001 12.4135C10.1369 12.4135 10.2724 12.3866 10.3988 12.3342C10.5252 12.2818 10.6401 12.2051 10.7368 12.1083L13.9226 8.9225C14.0022 8.84563 14.0657 8.75367 14.1094 8.652C14.153 8.55033 14.176 8.44098 14.177 8.33033C14.178 8.21969 14.1569 8.10995 14.115 8.00754C14.0731 7.90513 14.0112 7.81208 13.933 7.73384C13.8547 7.65559 13.7617 7.59372 13.6593 7.55182C13.5568 7.50991 13.4471 7.48883 13.3365 7.48979C13.2258 7.49075 13.1165 7.51374 13.0148 7.55742C12.9131 7.60109 12.8212 7.66458 12.7443 7.74417L10.0001 10.4883L7.25596 7.74417C7.09968 7.58794 6.88776 7.50018 6.66679 7.50018C6.44582 7.50018 6.2339 7.58794 6.07762 7.74417Z" fill="white" fill-opacity="0.47"/>
</g>
<defs>
<clipPath id="clip0_3095_7076">
<rect width="20" height="20" fill="white"/>
</clipPath>
</defs>
</svg>
