<svg width="14" height="14" viewBox="0 0 14 14" fill="none" xmlns="http://www.w3.org/2000/svg">
<g id="Group">
<path id="Vector" d="M6.42353 10.2395V7.49436C6.42353 6.35899 7.34698 5.43554 8.48235 5.43554H12.1333V5.29828C12.1333 4.61722 11.5791 4.06299 10.898 4.06299C10.3362 4.06299 1.70493 4.06299 1.23529 4.06299C0.554235 4.06299 0 4.61722 0 5.29828V12.4355C0 13.1166 0.554235 13.6708 1.23529 13.6708H10.898C11.5791 13.6708 12.1333 13.1166 12.1333 12.4355V12.2983H8.48235C7.34698 12.2983 6.42353 11.3746 6.42353 10.2395Z" fill="white" fill-opacity="0.47"/>
<path id="Vector_2" d="M12.7647 6.25879C11.7617 6.25879 9.37828 6.25879 8.48236 6.25879C7.80131 6.25879 7.24707 6.81302 7.24707 7.49408V10.2392C7.24707 10.9202 7.80131 11.4745 8.48236 11.4745H12.7647C13.4458 11.4745 14 10.9202 14 10.2392V7.49408C14 6.81302 13.4458 6.25879 12.7647 6.25879ZM9.93727 9.66271C9.48323 9.66271 9.11374 9.29322 9.11374 8.83918C9.11374 8.38514 9.48323 8.01565 9.93727 8.01565C10.3913 8.01565 10.7608 8.38514 10.7608 8.83918C10.7608 9.29322 10.3913 9.66271 9.93727 9.66271Z" fill="white" fill-opacity="0.47"/>
<path id="Vector_3" d="M6.94421 3.23939C6.97064 2.80372 6.60382 2.38841 6.1215 2.38841C5.64177 2.38841 5.27225 2.80171 5.2988 3.23939H2.47437C2.83946 1.57724 4.32374 0.32959 6.09405 0.32959C7.86436 0.32959 9.34864 1.57724 9.71374 3.23939H6.94421Z" fill="white" fill-opacity="0.47"/>
</g>
</svg>
