<svg width="29" height="29" viewBox="0 0 29 29" fill="none" xmlns="http://www.w3.org/2000/svg">
<path d="M7.02182 9.31738H1.32808C1.0753 9.31738 0.870738 9.52736 0.870738 9.78601V28.5286C0.870738 28.7876 1.07566 28.9972 1.32808 28.9972H7.02182C7.2746 28.9972 7.47916 28.7872 7.47916 28.5286V9.78601C7.47916 9.52736 7.2746 9.31738 7.02182 9.31738Z" fill="white"/>
<path d="M4.17759 0C2.10572 0 0.420288 1.72517 0.420288 3.84558C0.420288 5.96708 2.10572 7.69261 4.17759 7.69261C6.24768 7.69261 7.9317 5.96671 7.9317 3.84558C7.9317 1.72517 6.24768 0 4.17759 0Z" fill="white"/>
<path d="M21.5049 8.85163C19.2182 8.85163 17.5275 9.85898 16.5022 11.0036V9.78632C16.5022 9.52731 16.2973 9.3177 16.0448 9.3177H10.5922C10.3394 9.3177 10.1349 9.52767 10.1349 9.78632V28.5289C10.1349 28.7879 10.3398 28.9975 10.5922 28.9975H16.2735C16.5263 28.9975 16.7309 28.7875 16.7309 28.5289V19.2557C16.7309 16.1308 17.5594 14.9135 19.6852 14.9135C22.0006 14.9135 22.1846 16.865 22.1846 19.4166V28.5293C22.1846 28.7883 22.3895 28.9979 22.6419 28.9979H28.3254C28.5782 28.9979 28.7827 28.7879 28.7827 28.5293V18.2487C28.7827 13.6017 27.918 8.85163 21.5049 8.85163Z" fill="white"/>
</svg>
