<svg xmlns="http://www.w3.org/2000/svg" width="25" height="25" fill="none" viewBox="0 0 25 25">
    <g clip-path="url(#prefix__clip0)">
        <path fill="#4EA6EA" d="M24.003.198h-24v24h24v-24z"/>
        <path fill="#fff" d="M9.203 18.278c5.68 0 8.72-4.72 8.72-8.72v-.4c.64-.4 1.12-.96 1.52-1.6-.56.24-1.12.4-1.76.48.64-.4 1.12-.96 1.36-1.68-.56.32-1.28.64-1.92.72-.56-.56-1.36-.96-2.24-.96-1.68 0-3.04 1.36-3.04 3.04 0 .24 0 .48.08.72-2.56-.16-4.8-1.36-6.32-3.2-.32.48-.48.96-.48 1.52 0 1.04.56 2 1.36 2.56-.48 0-.96-.16-1.36-.4 0 1.52 1.04 2.72 2.48 3.04-.24.08-.56.08-.8.08-.16 0-.4 0-.56-.08.4 1.2 1.52 2.08 2.88 2.16-1.04.8-2.4 1.28-3.84 1.28-.24 0-.48 0-.72-.08 1.28 1.04 2.88 1.52 4.64 1.52z"/>
    </g>
    <defs>
        <clipPath id="prefix__clip0">
            <path fill="#fff" d="M.003.198h24v24h-24v-24z"/>
        </clipPath>
    </defs>
</svg>
