<svg width="25" height="25" viewBox="0 0 25 25" fill="none" xmlns="http://www.w3.org/2000/svg">
<path d="M19.3501 4.22656C19.8805 4.22656 20.3892 4.43728 20.7643 4.81235C21.1394 5.18742 21.3501 5.69613 21.3501 6.22656V7.22656H15.3501C14.024 7.22656 12.7522 7.75335 11.8146 8.69103C10.8769 9.62871 10.3501 10.9005 10.3501 12.2266C10.3501 13.5526 10.8769 14.8244 11.8146 15.7621C12.7522 16.6998 14.024 17.2266 15.3501 17.2266H21.3501V18.2266C21.3501 18.757 21.1394 19.2657 20.7643 19.6408C20.3892 20.0158 19.8805 20.2266 19.3501 20.2266H5.3501C4.81966 20.2266 4.31096 20.0158 3.93588 19.6408C3.56081 19.2657 3.3501 18.757 3.3501 18.2266V6.22656C3.3501 5.69613 3.56081 5.18742 3.93588 4.81235C4.31096 4.43728 4.81966 4.22656 5.3501 4.22656H19.3501ZM20.3501 9.22656C20.8805 9.22656 21.3892 9.43728 21.7643 9.81235C22.1394 10.1874 22.3501 10.6961 22.3501 11.2266V13.2266C22.3501 13.757 22.1394 14.2657 21.7643 14.6408C21.3892 15.0158 20.8805 15.2266 20.3501 15.2266H15.3501C14.5544 15.2266 13.7914 14.9105 13.2288 14.3479C12.6662 13.7853 12.3501 13.0222 12.3501 12.2266C12.3501 11.4309 12.6662 10.6679 13.2288 10.1052C13.7914 9.54263 14.5544 9.22656 15.3501 9.22656H20.3501ZM15.3501 11.2266C15.0849 11.2266 14.8305 11.3319 14.643 11.5195C14.4555 11.707 14.3501 11.9613 14.3501 12.2266C14.3501 12.4918 14.4555 12.7461 14.643 12.9337C14.8305 13.1212 15.0849 13.2266 15.3501 13.2266C15.6153 13.2266 15.8697 13.1212 16.0572 12.9337C16.2447 12.7461 16.3501 12.4918 16.3501 12.2266C16.3501 11.9613 16.2447 11.707 16.0572 11.5195C15.8697 11.3319 15.6153 11.2266 15.3501 11.2266Z" fill="#1E1E1E"/>
</svg>
