<svg width="27" height="24" viewBox="0 0 27 24" fill="none" xmlns="http://www.w3.org/2000/svg">
<g clip-path="url(#clip0_103_267)">
<mask id="mask0_103_267" style="mask-type:luminance" maskUnits="userSpaceOnUse" x="0" y="0" width="27" height="24">
<path d="M27 0H0V24H27V0Z" fill="white"/>
</mask>
<g mask="url(#mask0_103_267)">
<path d="M12.9006 1.8C12.4037 1.425 11.7287 1.40156 11.199 1.72969C10.6693 2.05781 10.4068 2.68594 10.5287 3.29531L10.9834 5.57344C10.074 5.99531 9.2537 6.50625 8.52714 7.05C7.80995 7.58906 7.16776 8.17031 6.61932 8.75156L2.25526 6.20625C1.66932 5.86406 0.924012 5.95781 0.445887 6.43594C-0.032238 6.91406 -0.14005 7.65469 0.19745 8.24531L2.34432 12L0.19745 15.7547C-0.14005 16.3453 -0.0369255 17.0859 0.445887 17.5641C0.9287 18.0422 1.66932 18.1359 2.25526 17.7938L6.61932 15.2484C7.17245 15.825 7.80995 16.4109 8.52714 16.95C9.2537 17.4938 10.074 18.0047 10.9834 18.4266L10.5287 20.7047C10.4068 21.3141 10.674 21.9375 11.199 22.2656C11.724 22.5938 12.399 22.5703 12.9006 22.1953L16.5381 19.4672C19.1115 19.2797 21.2959 18.2016 22.9693 16.9453C24.8068 15.5672 26.1193 13.9125 26.7943 12.75C27.0662 12.2859 27.0662 11.7094 26.7943 11.2453C26.1193 10.0828 24.8021 8.42812 22.9693 7.05C21.2912 5.79375 19.1115 4.71562 16.5381 4.52812L12.9006 1.8ZM18.0006 12C18.0006 11.6022 18.1586 11.2206 18.4399 10.9393C18.7212 10.658 19.1028 10.5 19.5006 10.5C19.8984 10.5 20.2799 10.658 20.5612 10.9393C20.8425 11.2206 21.0006 11.6022 21.0006 12C21.0006 12.3978 20.8425 12.7794 20.5612 13.0607C20.2799 13.342 19.8984 13.5 19.5006 13.5C19.1028 13.5 18.7212 13.342 18.4399 13.0607C18.1586 12.7794 18.0006 12.3978 18.0006 12Z" fill="#025BE8"/>
</g>
</g>
<defs>
<clipPath id="clip0_103_267">
<rect width="27" height="24" fill="white"/>
</clipPath>
</defs>
</svg>
