<svg width="24" height="24" viewBox="0 0 24 24" fill="none" xmlns="http://www.w3.org/2000/svg">
<path d="M14.9211 3.8999C13.7552 4.28494 12.735 5.0178 11.9979 5.9999C11.2606 5.0176 10.24 4.28473 9.07355 3.8999C9.40666 3.4354 9.84572 3.05703 10.3543 2.79616C10.8629 2.53529 11.4264 2.39945 11.9979 2.3999C13.2015 2.3999 14.2683 2.9915 14.9211 3.8999ZM4.34915 13.4639C4.68331 11.8028 5.549 10.2955 6.81544 9.16972C8.08188 8.044 9.68027 7.361 11.3691 7.2239C11.0154 6.60284 10.5273 6.06865 9.94069 5.6603C9.35406 5.25196 8.68364 4.97978 7.97838 4.86364C7.27313 4.7475 6.55083 4.79033 5.86424 4.98901C5.17765 5.18768 4.5441 5.53718 4.00983 6.01198C3.47557 6.48679 3.05409 7.07492 2.77617 7.73343C2.49824 8.39194 2.37089 9.10421 2.40341 9.81823C2.43592 10.5323 2.62749 11.23 2.96412 11.8605C3.30075 12.4911 3.77394 13.0384 4.34915 13.4627M19.6455 13.4627C20.2208 13.0384 20.6939 12.4911 21.0306 11.8605C21.3672 11.23 21.5588 10.5323 21.5913 9.81823C21.6238 9.10421 21.4965 8.39194 21.2185 7.73343C20.9406 7.07492 20.5191 6.48679 19.9849 6.01198C19.4506 5.53718 18.817 5.18768 18.1305 4.98901C17.4439 4.79033 16.7216 4.7475 16.0163 4.86364C15.3111 4.97978 14.6406 5.25196 14.054 5.6603C13.4674 6.06865 12.9793 6.60284 12.6255 7.2239C14.3143 7.36093 15.9125 8.04376 17.1789 9.16925C18.4454 10.2948 19.3112 11.8018 19.6455 13.4627ZM18.5967 14.9999C18.5967 16.7504 17.9014 18.4291 16.6637 19.6668C15.4259 20.9046 13.7472 21.5999 11.9967 21.5999C10.2463 21.5999 8.56758 20.9046 7.32984 19.6668C6.0921 18.4291 5.39675 16.7504 5.39675 14.9999C5.39675 13.2495 6.0921 11.5708 7.32984 10.333C8.56758 9.09525 10.2463 8.3999 11.9967 8.3999C13.7472 8.3999 15.4259 9.09525 16.6637 10.333C17.9014 11.5708 18.5967 13.2495 18.5967 14.9999ZM9.59675 12.5999C9.59675 12.7591 9.65996 12.9117 9.77248 13.0242C9.88501 13.1367 10.0376 13.1999 10.1967 13.1999H12.8847C12.7623 13.3751 12.6327 13.5719 12.5007 13.7819C11.9211 14.7083 11.2671 15.9971 11.1015 17.3255C11.0898 17.4046 11.0939 17.4853 11.1137 17.5628C11.1336 17.6403 11.1687 17.713 11.2171 17.7767C11.2654 17.8405 11.326 17.8939 11.3953 17.9338C11.4646 17.9738 11.5412 17.9995 11.6206 18.0094C11.6999 18.0193 11.7805 18.0133 11.8575 17.9916C11.9345 17.9699 12.0064 17.9331 12.0689 17.8832C12.1315 17.8334 12.1834 17.7715 12.2217 17.7013C12.26 17.6311 12.2839 17.5539 12.2919 17.4743C12.4263 16.4027 12.9723 15.2915 13.5183 14.4179C13.8248 13.9293 14.1628 13.4611 14.5299 13.0163L14.5443 12.9995L14.5491 12.9947C14.625 12.9079 14.6742 12.8011 14.691 12.687C14.7077 12.573 14.6912 12.4565 14.6435 12.3515C14.5958 12.2466 14.5188 12.1576 14.4219 12.0953C14.3249 12.0329 14.212 11.9998 14.0967 11.9999H10.1967C10.0376 11.9999 9.88501 12.0631 9.77248 12.1757C9.65996 12.2882 9.59675 12.4408 9.59675 12.5999Z" fill="#025BE8"/>
</svg>
