<svg width="25" height="24" viewBox="0 0 25 24" fill="none" xmlns="http://www.w3.org/2000/svg">
<g id="mingcute:report-forms-fill" clip-path="url(#clip0_596_163)">
<g id="Group">
<path id="Vector" d="M10.5 21H19.5C20.0304 21 20.5391 20.7893 20.9142 20.4142C21.2893 20.0391 21.5 19.5304 21.5 19V17H10.5V21ZM10.5 15H21.5V10H10.5V15ZM8.5 10V15H3.5V10H8.5ZM10.5 8H21.5V6C21.5 5.46957 21.2893 4.96086 20.9142 4.58579C20.5391 4.21071 20.0304 4 19.5 4H10.5V8ZM8.5 4V8H3.5V6C3.5 5.46957 3.71071 4.96086 4.08579 4.58579C4.46086 4.21071 4.96957 4 5.5 4H8.5ZM8.5 17V21H5.5C4.96957 21 4.46086 20.7893 4.08579 20.4142C3.71071 20.0391 3.5 19.5304 3.5 19V17H8.5Z" fill="white"/>
</g>
</g>
<defs>
<clipPath id="clip0_596_163">
<rect width="24" height="24" fill="white" transform="translate(0.5)"/>
</clipPath>
</defs>
</svg>
