<svg width="24" height="24" viewBox="0 0 24 24" fill="none" xmlns="http://www.w3.org/2000/svg">
<g id="heroicons:home-20-solid">
<path id="Vector" fill-rule="evenodd" clip-rule="evenodd" d="M11.1516 2.75149C11.3766 2.52652 11.6818 2.40015 12 2.40015C12.3182 2.40015 12.6234 2.52652 12.8484 2.75149L21.2484 11.1515C21.4162 11.3193 21.5304 11.5331 21.5767 11.7659C21.623 11.9986 21.5992 12.2398 21.5084 12.4591C21.4176 12.6783 21.2638 12.8657 21.0665 12.9976C20.8693 13.1294 20.6373 13.1998 20.4 13.1999H19.2V20.3999C19.2 20.7181 19.0736 21.0234 18.8485 21.2484C18.6235 21.4735 18.3183 21.5999 18 21.5999H15.6C15.2817 21.5999 14.9765 21.4735 14.7515 21.2484C14.5264 21.0234 14.4 20.7181 14.4 20.3999V16.7999C14.4 16.4816 14.2736 16.1764 14.0485 15.9514C13.8235 15.7263 13.5183 15.5999 13.2 15.5999H10.8C10.4817 15.5999 10.1765 15.7263 9.95147 15.9514C9.72643 16.1764 9.6 16.4816 9.6 16.7999V20.3999C9.6 20.7181 9.47357 21.0234 9.24853 21.2484C9.02348 21.4735 8.71826 21.5999 8.4 21.5999H6C5.68174 21.5999 5.37651 21.4735 5.15147 21.2484C4.92643 21.0234 4.8 20.7181 4.8 20.3999V13.1999H3.6C3.3627 13.1998 3.13074 13.1294 2.93345 12.9976C2.73616 12.8657 2.58239 12.6783 2.49159 12.4591C2.40078 12.2398 2.37702 11.9986 2.4233 11.7659C2.46958 11.5331 2.58383 11.3193 2.7516 11.1515L11.1516 2.75149Z" fill="white"/>
</g>
</svg>
