<svg width="24" height="24" viewBox="0 0 24 24" fill="none" xmlns="http://www.w3.org/2000/svg">
<g id="fluent:payment-28-filled">
<path id="Vector" d="M4.932 4.28564C4.07952 4.28564 3.26195 4.62429 2.65915 5.22709C2.05636 5.82988 1.71771 6.64745 1.71771 7.49993V8.14279H22.2857V7.49993C22.2857 6.64745 21.9471 5.82988 21.3443 5.22709C20.7415 4.62429 19.9239 4.28564 19.0714 4.28564H4.932ZM1.71771 16.4999V9.4285H22.2857V16.4999C22.2857 17.3524 21.9471 18.17 21.3443 18.7728C20.7415 19.3756 19.9239 19.7142 19.0714 19.7142H4.93286C4.08037 19.7142 3.26281 19.3756 2.66001 18.7728C2.05722 18.17 1.71857 17.3524 1.71857 16.4999M15.6429 14.1428C15.4724 14.1428 15.3088 14.2105 15.1883 14.3311C15.0677 14.4516 15 14.6151 15 14.7856C15 14.9561 15.0677 15.1197 15.1883 15.2402C15.3088 15.3608 15.4724 15.4285 15.6429 15.4285H18.6429C18.8134 15.4285 18.9769 15.3608 19.0974 15.2402C19.218 15.1197 19.2857 14.9561 19.2857 14.7856C19.2857 14.6151 19.218 14.4516 19.0974 14.3311C18.9769 14.2105 18.8134 14.1428 18.6429 14.1428H15.6429Z" fill="white"/>
</g>
</svg>
