<svg width="12" height="8" viewBox="0 0 12 8" fill="none" xmlns="http://www.w3.org/2000/svg">
<path d="M6.71567 7.29368L11.7157 2.29368C11.8089 2.20044 11.8829 2.08975 11.9333 1.96793C11.9838 1.84611 12.0098 1.71554 12.0098 1.58368C12.0098 1.31738 11.904 1.06198 11.7157 0.873679C11.6224 0.780441 11.5117 0.70648 11.3899 0.656019C11.2681 0.605559 11.1375 0.579588 11.0057 0.579588C10.7394 0.579588 10.484 0.685375 10.2957 0.873679L6.00567 5.17368L1.71567 0.873679C1.62271 0.77995 1.51211 0.705556 1.39025 0.654788C1.26839 0.604019 1.13769 0.57788 1.00567 0.57788C0.873663 0.57788 0.742957 0.604019 0.621098 0.654788C0.499238 0.705556 0.388638 0.77995 0.295675 0.873679C0.201947 0.966642 0.127551 1.07724 0.0767822 1.1991C0.0260133 1.32096 -0.000124016 1.45167 -0.000124022 1.58368C-0.000124027 1.71569 0.0260133 1.8464 0.0767822 1.96826C0.127551 2.09011 0.201947 2.20072 0.295675 2.29368L5.29567 7.29368C5.38864 7.38741 5.49924 7.4618 5.6211 7.51257C5.74296 7.56334 5.87366 7.58948 6.00567 7.58948C6.13769 7.58948 6.26839 7.56334 6.39025 7.51257C6.51211 7.4618 6.62271 7.38741 6.71567 7.29368Z" fill="#B0ACD3"/>
</svg>
