<svg width="20" height="20" viewBox="0 0 20 20" fill="none" xmlns="http://www.w3.org/2000/svg">
<path d="M10 0C4.47698 0 0 4.4771 0 10C0 15.5229 4.47698 20 10 20C15.5228 20 20 15.5229 20 10C20 4.4771 15.5228 0 10 0ZM15.4311 8.3455L9.23328 14.2933C9.14306 14.3837 9.03809 14.4579 8.92289 14.513C8.48344 14.8269 7.86904 14.7869 7.47451 14.3923L4.46941 11.3872C4.02997 10.9477 4.02997 10.2355 4.46941 9.79626C4.9086 9.3568 5.62089 9.3568 6.06031 9.79626C6.49972 10.2357 8.31651 12.0524 8.31651 12.0524L13.8402 6.75446C14.2795 6.31515 14.9919 6.31515 15.4311 6.75446C15.8705 7.19381 15.8705 7.90617 15.4311 8.3455Z" fill="#5DD38C"/>
</svg>
