<svg width="24" height="24" viewBox="0 0 24 24" fill="none" xmlns="http://www.w3.org/2000/svg">
<path d="M2.6401 12.4794L7.4401 15.4794C7.6801 15.5994 8.0401 15.5994 8.2801 15.2394C8.2801 15.1194 8.4001 14.9994 8.4001 14.8794V8.87941C8.4001 8.75941 8.1601 8.39941 7.8001 8.39941C7.6801 8.39941 7.5601 8.39941 7.4401 8.51941L2.6401 11.5194C2.4001 11.6394 2.2801 12.1194 2.4001 12.3594C2.5201 12.3594 2.6401 12.4794 2.6401 12.4794ZM3.6001 4.79941H20.4001C21.1201 4.79941 21.6001 4.31941 21.6001 3.59941C21.6001 2.87941 21.1201 2.39941 20.4001 2.39941H3.6001C2.8801 2.39941 2.4001 2.87941 2.4001 3.59941C2.4001 4.31941 3.0001 4.79941 3.6001 4.79941ZM12.0001 13.1994H20.4001C21.1201 13.1994 21.6001 12.7194 21.6001 11.9994C21.6001 11.2794 21.1201 10.7994 20.4001 10.7994H12.0001C11.2801 10.7994 10.8001 11.2794 10.8001 11.9994C10.8001 12.7194 11.4001 13.1994 12.0001 13.1994ZM3.6001 21.5994H20.4001C21.1201 21.5994 21.6001 21.1194 21.6001 20.3994C21.6001 19.6794 21.1201 19.1994 20.4001 19.1994H3.6001C2.8801 19.1994 2.4001 19.6794 2.4001 20.3994C2.4001 21.1194 3.0001 21.5994 3.6001 21.5994Z" fill="#12C887"/>
</svg>
