<svg width="24" height="24" viewBox="0 0 24 24" fill="none" xmlns="http://www.w3.org/2000/svg">
<path fill-rule="evenodd" clip-rule="evenodd" d="M11.606 2.07991C11.7305 2.02654 11.8645 1.99902 12 1.99902C12.1355 1.99902 12.2695 2.02654 12.394 2.07991L18.788 4.82091C19.1478 4.97517 19.4545 5.23165 19.6699 5.55855C19.8854 5.88545 20.0002 6.2684 20 6.65991V13.5199C19.9999 14.7538 19.6736 15.9658 19.0542 17.033C18.4348 18.1002 17.5443 18.9847 16.473 19.5969L12.496 21.8689C12.3449 21.9552 12.174 22.0006 12 22.0006C11.826 22.0006 11.6551 21.9552 11.504 21.8689L7.527 19.5969C6.45537 18.9845 5.5647 18.0997 4.94529 17.0321C4.32589 15.9645 3.99977 14.7522 4 13.5179V6.65991C4.00004 6.26857 4.1149 5.88584 4.33033 5.55913C4.54576 5.23243 4.85231 4.9761 5.212 4.82191L11.606 2.07991ZM15.707 10.7069C15.8892 10.5183 15.99 10.2657 15.9877 10.0035C15.9854 9.74132 15.8802 9.4905 15.6948 9.30509C15.5094 9.11969 15.2586 9.01452 14.9964 9.01224C14.7342 9.00996 14.4816 9.11076 14.293 9.29291L11 12.5859L9.707 11.2929C9.5184 11.1108 9.2658 11.01 9.0036 11.0122C8.7414 11.0145 8.49059 11.1197 8.30518 11.3051C8.11977 11.4905 8.0146 11.7413 8.01233 12.0035C8.01005 12.2657 8.11084 12.5183 8.293 12.7069L10.293 14.7069C10.4805 14.8944 10.7348 14.9997 11 14.9997C11.2652 14.9997 11.5195 14.8944 11.707 14.7069L15.707 10.7069Z" fill="#996AFF"/>
</svg>
