<svg width="24" height="24" viewBox="0 0 24 24" fill="currentColor" xmlns="http://www.w3.org/2000/svg">
<path d="M9.56864 20.2385C8.91458 20.2017 8.26779 20.214 7.63876 20.1151C7.11309 20.0326 6.72954 19.6632 6.46145 19.1933C4.92966 16.5064 3.39786 13.8195 1.8693 11.1301C1.48171 10.4478 1.48413 9.75233 1.87091 9.07161C3.39221 6.39451 4.91997 3.72066 6.4453 1.04601C6.83532 0.362839 7.42155 0.00654471 8.19915 0.00491033C11.2684 7.20471e-06 14.3376 -0.00162717 17.4061 0.00572752C18.1837 0.0073619 18.7626 0.377548 19.1518 1.06072C20.6618 3.71331 22.1735 6.36509 23.6875 9.01523C24.1009 9.73926 24.1066 10.4551 23.6907 11.1816C22.1678 13.8424 20.6465 16.5039 19.1309 19.1696C18.7893 19.7702 18.2919 20.1306 17.6152 20.1813C17.096 20.2197 16.5711 20.1886 15.9914 20.1886C15.9914 20.0293 15.9914 19.8855 15.9914 19.7416C15.9914 17.0989 15.9946 14.4561 15.9889 11.8125C15.9881 11.3385 16.0051 10.8547 15.9243 10.3914C15.6506 8.82155 14.2311 7.67504 12.7033 7.74613C11.0496 7.82295 9.69946 9.08551 9.61629 10.7313C9.55169 12.007 9.59368 13.2891 9.59287 14.568C9.59206 16.3528 9.59529 18.1375 9.5961 19.9231C9.5961 20.0023 9.58318 20.0816 9.56864 20.2385Z" fill-opacity="0.7"/>
<path d="M14.8471 22.1017C15.7757 22.1017 16.6478 22.1017 17.5191 22.1017C17.8962 22.1017 18.2733 22.096 18.6496 22.1033C19.2479 22.1148 19.6298 22.4939 19.625 23.0611C19.6202 23.6208 19.2293 23.9943 18.627 23.9967C17.469 24.0016 16.3119 23.9984 15.154 23.9984C10.4964 23.9984 5.83885 23.9984 1.18129 23.9984C0.33182 23.9984 0.0088272 23.6731 0.00721223 22.8208C0.00640475 22.2757 -0.0137823 21.7299 0.018517 21.1864C0.0290143 21.0124 0.142062 20.7786 0.280141 20.6994C0.396419 20.6324 0.647546 20.7018 0.78401 20.7942C1.26446 21.1194 1.70939 21.4978 2.19065 21.8214C2.39413 21.9587 2.65333 22.0878 2.8875 22.0894C5.4448 22.1082 8.0029 22.1009 10.5602 22.0992C10.5982 22.0992 10.6369 22.0829 10.7298 22.0625C10.7298 21.926 10.7298 21.7813 10.7298 21.6375C10.7298 18.8035 10.7298 15.9695 10.7298 13.1355C10.7298 12.3739 10.7274 11.6122 10.7322 10.8514C10.7395 9.80953 11.7537 8.86159 12.8276 8.88693C13.9597 8.91389 14.8592 9.90106 14.8536 11.0026C14.8342 14.6783 14.8471 18.3549 14.8471 22.1017ZM12.8107 9.93129C12.2244 9.92067 11.7504 10.4159 11.7529 11.0361C11.7545 11.4831 12.2753 12.0282 12.7138 12.0421C13.2499 12.0584 13.8313 11.5559 13.8354 11.0713C13.8402 10.4347 13.3977 9.94273 12.8107 9.93129Z" fill-opacity="0.7"/>
<path d="M5.3213 19.5872C5.31968 20.6103 4.48555 21.4553 3.47459 21.4577C2.46362 21.461 1.62141 20.6185 1.61334 19.5986C1.60526 18.5624 2.45797 17.7003 3.48266 17.7068C4.48959 17.7125 5.32291 18.5649 5.3213 19.5872ZM4.26107 18.8501C3.7677 18.3924 3.17501 18.3671 2.74543 18.7512C2.32796 19.1238 2.26013 19.7196 2.60331 20.1756C3.14675 19.7408 3.68938 19.3069 4.26107 18.8501Z" fill-opacity="0.7"/>
</svg>
